<svg width="26" height="26" viewBox="0 0 26 26" fill="none" xmlns="http://www.w3.org/2000/svg">
    <path d="M13 0C5.83158 0 0 5.83158 0 13C0 20.1684 5.83158 26 13 26C20.1684 26 26 20.1684 26 13C26 5.83158 20.1684 0 13 0ZM8.66667 10.8333C8.66667 8.44025 10.6643 6.5 13 6.5C15.3357 6.5 17.3333 8.44025 17.3333 10.8333V11.9167C17.3333 14.3098 15.3357 16.25 13 16.25C10.6643 16.25 8.66667 14.3098 8.66667 11.9167V10.8333ZM13 23.8333C10.3643 23.8333 7.94625 22.8843 6.06558 21.3135C6.9745 19.5986 8.75658 18.4167 10.8333 18.4167H15.1667C17.2434 18.4167 19.0255 19.5986 19.9344 21.3135C18.0537 22.8843 15.6358 23.8333 13 23.8333Z" fill="url(#paint0_linear)"/>
    <defs>
        <linearGradient id="paint0_linear" x1="13" y1="33.6018" x2="13" y2="1.37847" gradientUnits="userSpaceOnUse">
            <stop stop-color="#B5BDD2"/>
            <stop offset="0.961522" stop-color="#C3C9D9"/>
        </linearGradient>
    </defs>
</svg>