<svg width="32" height="33" viewBox="0 0 32 33" fill="none" xmlns="http://www.w3.org/2000/svg">
<g clip-path="url(#clip0_3477_6008)">
<path d="M28.25 25.0625C27.6352 25.0625 27.0549 25.2121 26.5424 25.4755L23.7465 22.6797C25.0786 20.9965 25.875 18.8708 25.875 16.5625C25.875 14.2895 25.1027 12.1938 23.8071 10.5232L26.6342 7.69602C27.1237 7.93066 27.6718 8.0625 28.25 8.0625C30.3178 8.0625 31.9999 6.38034 31.9999 4.31249C31.9999 2.24487 30.3178 0.5625 28.25 0.5625C26.1821 0.5625 24.5 2.24487 24.5 4.31249C24.5 4.89062 24.6318 5.4387 24.8664 5.92822L22.0395 8.75534C20.3686 7.45994 18.2729 6.6875 16 6.6875C13.6916 6.6875 11.5661 7.48386 9.8828 8.8159L7.08688 6.02026C7.35032 5.50754 7.5 4.9275 7.5 4.31249C7.5 2.24487 5.81784 0.5625 3.74999 0.5625C1.68212 0.5625 0 2.24487 0 4.31249C0 6.38034 1.68212 8.0625 3.74999 8.0625C4.291 8.0625 4.8054 7.94626 5.27048 7.73926L8.13256 10.6015C6.87352 12.2593 6.125 14.3249 6.125 16.5625C6.125 18.8354 6.8972 20.9311 8.19284 22.6018L5.36572 25.4289C4.8762 25.1943 4.32812 25.0625 3.74999 25.0625C1.68212 25.0625 0 26.7448 0 28.8125C0 30.8803 1.68212 32.5624 3.74999 32.5624C5.81784 32.5624 7.5 30.8803 7.5 28.8125C7.5 28.2343 7.36816 27.6862 7.13352 27.1967L9.96068 24.3696C11.6313 25.665 13.727 26.4375 16 26.4375C18.2375 26.4375 20.3034 25.6889 21.9611 24.4299L24.8232 27.2919C24.6162 27.757 24.5 28.2714 24.5 28.8125C24.5 30.8803 26.1821 32.5624 28.25 32.5624C30.3178 32.5624 31.9999 30.8803 31.9999 28.8125C31.9999 26.7448 30.3178 25.0625 28.25 25.0625ZM28.25 3.0625C28.9392 3.0625 29.5 3.62328 29.5 4.31249C29.5 5.0017 28.9392 5.5625 28.25 5.5625C27.5607 5.5625 27 5.0017 27 4.31249C27 3.62328 27.5607 3.0625 28.25 3.0625ZM23.375 16.5625C23.375 18.3894 22.707 20.0629 21.6028 21.3527C21.0886 20.2502 20.2583 19.3235 19.229 18.6899C19.7893 17.9856 20.125 17.0954 20.125 16.1277C20.125 13.853 18.2746 12.0027 16 12.0027C13.7253 12.0027 11.875 13.853 11.875 16.1277C11.875 17.0954 12.2107 17.9856 12.771 18.6899C11.7417 19.3235 10.9116 20.25 10.3972 21.3525C9.29296 20.0629 8.625 18.3894 8.625 16.5625C8.625 12.4958 11.9333 9.1875 16 9.1875C20.0666 9.1875 23.375 12.4958 23.375 16.5625ZM16 17.7527C15.104 17.7527 14.375 17.0237 14.375 16.1277C14.375 15.2317 15.104 14.5027 16 14.5027C16.896 14.5027 17.625 15.2317 17.625 16.1277C17.625 17.0237 16.896 17.7527 16 17.7527ZM3.74999 5.5625C3.06078 5.5625 2.5 5.0017 2.5 4.31249C2.5 3.62328 3.06078 3.0625 3.74999 3.0625C4.4392 3.0625 5 3.62328 5 4.31249C5 5.0017 4.4392 5.5625 3.74999 5.5625ZM3.74999 30.0625C3.06078 30.0625 2.5 29.5017 2.5 28.8125C2.5 28.1232 3.06078 27.5625 3.74999 27.5625C4.4392 27.5625 5 28.1232 5 28.8125C5 29.5017 4.4392 30.0625 3.74999 30.0625ZM12.4421 23.0207C12.8569 21.4436 14.2946 20.2768 16 20.2768C17.7053 20.2768 19.1433 21.4436 19.5578 23.0207C18.5022 23.6045 17.2893 23.9375 16 23.9375C14.7107 23.9375 13.4978 23.6045 12.4421 23.0207ZM28.25 30.0625C27.5607 30.0625 27 29.5017 27 28.8125C27 28.1232 27.5607 27.5625 28.25 27.5625C28.9392 27.5625 29.5 28.1232 29.5 28.8125C29.5 29.5017 28.9392 30.0625 28.25 30.0625Z" fill="#064DD6"/>
<path fill-rule="evenodd" clip-rule="evenodd" d="M21.603 21.354C21.0889 20.2515 20.2585 19.3247 19.2292 18.6911C19.7895 17.9868 20.1252 17.0967 20.1252 16.1289C20.1252 13.8543 18.2749 12.0039 16.0002 12.0039C13.7256 12.0039 11.8752 13.8543 11.8752 16.1289C11.8752 17.0967 12.2109 17.9868 12.7712 18.6911C11.7419 19.3247 10.9119 20.2512 10.3975 21.3537C11.0898 22.1293 11.5398 22.4892 12.4424 23.0219C12.8572 21.4448 14.2949 20.2781 16.0002 20.2781C17.7055 20.2781 19.1435 21.4448 19.5581 23.0219C20.4492 22.5076 20.8922 22.1337 21.603 21.354ZM14.3752 16.1289C14.3752 17.0249 15.1042 17.7539 16.0002 17.7539C16.8962 17.7539 17.6252 17.0249 17.6252 16.1289C17.6252 15.2329 16.8962 14.5039 16.0002 14.5039C15.1042 14.5039 14.3752 15.2329 14.3752 16.1289Z" fill="#FF6C0E"/>
</g>
<defs>
<clipPath id="clip0_3477_6008">
<rect width="32" height="32" fill="white" transform="translate(0 0.5625)"/>
</clipPath>
</defs>
</svg>
