<svg width="32" height="33" viewBox="0 0 32 33" fill="none" xmlns="http://www.w3.org/2000/svg">
<g clip-path="url(#clip0_3477_5888)">
<path d="M18.8787 0.5625C11.6436 0.5625 5.75732 6.44878 5.75732 13.6838C5.75732 16.8524 6.88632 19.7622 8.76308 22.0322L0 30.7953L1.76732 32.5625L10.5303 23.7995C12.8004 25.6762 15.7102 26.8052 18.8787 26.8052C26.1138 26.8052 32 20.919 32 13.6839C32 6.44882 26.1138 0.5625 18.8787 0.5625ZM18.8787 24.3059C13.0217 24.3059 8.25664 19.5409 8.25664 13.6838C8.25664 7.82682 13.0217 3.06182 18.8787 3.06182C24.7357 3.06182 29.5008 7.8269 29.5008 13.6839C29.5008 19.5409 24.7357 24.3059 18.8787 24.3059ZM22.6902 16.206C22.6902 17.2137 22.2915 18.1709 21.5675 18.9013C21.1517 19.3209 20.6608 19.6323 20.1284 19.8226V21.7441H17.629V19.8196C16.1553 19.2849 15.0672 17.8397 15.0672 16.1916H17.5665C17.5665 16.9104 18.1768 17.541 18.8726 17.541C19.5748 17.541 20.1908 16.9171 20.1908 16.206C20.1908 15.6634 19.5946 15.2933 18.3288 14.6336L18.2949 14.616C17.2046 14.0477 15.3796 13.0963 15.3796 10.7668C15.3796 9.37314 16.298 8.14402 17.5665 7.62962V5.56114H20.0658V7.58238C21.3777 8.05902 22.3152 9.2977 22.3152 10.7472H19.8158C19.8158 10.273 19.3839 9.87246 18.8725 9.87246C18.3525 9.87246 17.8788 10.2988 17.8788 10.7668C17.8788 11.463 18.2712 11.7851 19.4502 12.3997L19.4838 12.4173C20.1782 12.7791 20.8962 13.1534 21.4826 13.67C22.2838 14.3758 22.6902 15.229 22.6902 16.206Z" fill="#064DD6"/>
<path d="M21.5675 18.9013C22.2915 18.1709 22.6902 17.2137 22.6902 16.206C22.6902 15.229 22.2838 14.3758 21.4826 13.67C20.8962 13.1534 20.1782 12.7791 19.4838 12.4173L19.4502 12.3997C18.2712 11.7851 17.8788 11.463 17.8788 10.7668C17.8788 10.2988 18.3525 9.87246 18.8725 9.87246C19.3839 9.87246 19.8158 10.273 19.8158 10.7472H22.3152C22.3152 9.2977 21.3777 8.05902 20.0658 7.58238V5.56114H17.5665V7.62962C16.298 8.14402 15.3796 9.37314 15.3796 10.7668C15.3796 13.0963 17.2046 14.0477 18.2949 14.616L18.3288 14.6336C19.5946 15.2933 20.1908 15.6634 20.1908 16.206C20.1908 16.9171 19.5748 17.541 18.8726 17.541C18.1768 17.541 17.5665 16.9104 17.5665 16.1916H15.0672C15.0672 17.8397 16.1553 19.2849 17.629 19.8196V21.7441H20.1284V19.8226C20.6608 19.6323 21.1517 19.3209 21.5675 18.9013Z" fill="#064DD6"/>
<path d="M21.5677 18.9027C22.2917 18.1722 22.6903 17.215 22.6903 16.2074C22.6903 15.2304 22.284 14.3771 21.4827 13.6713C20.8964 13.1547 20.1784 12.7805 19.484 12.4186L19.4503 12.4011C18.2713 11.7865 17.879 11.4644 17.879 10.7682C17.879 10.3001 18.3527 9.87382 18.8727 9.87382C19.3841 9.87382 19.816 10.2744 19.816 10.7486H22.3153C22.3153 9.29906 21.3779 8.06038 20.066 7.58374V5.5625H17.5667V7.63098C16.2982 8.14538 15.3798 9.3745 15.3798 10.7682C15.3798 13.0977 17.2048 14.049 18.2951 14.6173L18.329 14.6349C19.5947 15.2946 20.191 15.6648 20.191 16.2074C20.191 16.9185 19.575 17.5423 18.8728 17.5423C18.177 17.5423 17.5667 16.9118 17.5667 16.1929H15.0674C15.0674 17.8411 16.1555 19.2863 17.6292 19.821V21.7455H20.1285V19.824C20.661 19.6337 21.1519 19.3223 21.5677 18.9027Z" fill="#FF6C0E"/>
</g>
<defs>
<clipPath id="clip0_3477_5888">
<rect width="32" height="32" fill="white" transform="translate(0 0.5625)"/>
</clipPath>
</defs>
</svg>
