<svg width="32" height="33" viewBox="0 0 32 33" fill="none" xmlns="http://www.w3.org/2000/svg">
<g clip-path="url(#clip0_3477_6000)">
<path d="M27.3073 21.2373C25.5656 19.4956 23.4925 18.2063 21.2306 17.4257C23.6532 15.7573 25.2447 12.9649 25.2447 9.8073C25.2447 4.70974 21.0975 0.5625 15.9999 0.5625C10.9024 0.5625 6.75508 4.70974 6.75508 9.8073C6.75508 12.9648 8.34664 15.7572 10.7692 17.4257C8.50736 18.2062 6.43428 19.4955 4.69252 21.2373C1.67216 24.2576 0.00878906 28.2733 0.00878906 32.5447H2.50741C2.50741 25.6157 7.7578 19.8909 14.4888 19.1373L12.1185 28.6806L15.9999 32.5625L19.881 28.6806L17.5108 19.1373C24.2419 19.8909 29.4923 25.6157 29.4923 32.5447H31.9909C31.9909 28.2733 30.3275 24.2576 27.3073 21.2373ZM9.25368 9.80738C9.25368 6.0875 12.2799 3.06119 15.9998 3.06119C19.7198 3.06119 22.7461 6.0875 22.7461 9.80738C22.7461 13.5273 19.7198 16.5536 15.9998 16.5536C12.2799 16.5536 9.25368 13.5273 9.25368 9.80738ZM15.9998 29.0287L14.8838 27.9125L15.9998 23.4193L17.1156 27.9125L15.9998 29.0287Z" fill="#064DD6"/>
<path d="M12.1191 28.679L14.4895 19.1356C15.6695 18.9909 16.3315 19.0021 17.5115 19.1356L19.8816 28.6789L16.0006 32.5608L12.1191 28.679Z" fill="#FF6C0E"/>
</g>
<defs>
<clipPath id="clip0_3477_6000">
<rect width="32" height="32" fill="white" transform="translate(0 0.5625)"/>
</clipPath>
</defs>
</svg>
