<svg width="26" height="26" viewBox="0 0 26 26" fill="none" xmlns="http://www.w3.org/2000/svg">
<path d="M23.7148 22.9023C23.2882 22.9023 22.9531 22.5671 22.9531 22.1406V6.90625C22.9531 6.47964 22.618 6.14453 22.1914 6.14453L13.4114 4.62109L9.86172 3.09766L9.06948 1.90932C8.91719 1.69604 8.68862 1.57422 8.42969 1.57422H0.761719C0.335105 1.57422 0 1.90932 0 2.33594V23.6641C0 24.0906 0.335105 24.4258 0.761719 24.4258H23.7148C23.7606 24.4258 23.8215 24.4258 23.8671 24.4105C24.2176 24.3344 24.4766 24.0297 24.4766 23.6641C24.4766 23.2374 24.1415 22.9023 23.7148 22.9023Z" fill="url(#paint0_linear)"/>
<path d="M9.95312 16.8086H3.85938C3.43835 16.8086 3.09766 17.1493 3.09766 17.5703V20.6172C3.09766 21.0382 3.43835 21.3789 3.85938 21.3789H9.95312C10.3742 21.3789 10.7148 21.0382 10.7148 20.6172V17.5703C10.7148 17.1493 10.3742 16.8086 9.95312 16.8086ZM25.2383 3.09766H9.86172L11.8879 6.14453H21.4297V22.1406C21.4297 23.4027 22.4528 24.4258 23.7148 24.4258C24.9769 24.4258 26 23.4027 26 22.1406V3.85938C26 3.4387 25.659 3.09766 25.2383 3.09766Z" fill="url(#paint1_linear)"/>
<defs>
<linearGradient id="paint0_linear" x1="12.2383" y1="31.1071" x2="12.2383" y2="2.78577" gradientUnits="userSpaceOnUse">
<stop stop-color="#0A3ECA"/>
<stop offset="0.961522" stop-color="#4B7CFF"/>
</linearGradient>
<linearGradient id="paint1_linear" x1="23.5357" y1="8.71941" x2="23.5357" y2="34.315" gradientUnits="userSpaceOnUse">
<stop stop-color="#F1F5FF"/>
<stop offset="0.961522" stop-color="#9CB7FF"/>
</linearGradient>
</defs>
</svg>
