<svg width="28" height="28" viewBox="0 0 28 28" fill="none" xmlns="http://www.w3.org/2000/svg">
<path d="M21.875 24.5001C19.3804 24.5001 17.3005 23.7449 16.1875 22.5781V24.0626C16.1875 25.7798 18.6856 27.1251 21.875 27.1251C25.0644 27.1251 27.5625 25.7798 27.5625 24.0626V22.5781C26.4495 23.7449 24.3696 24.5001 21.875 24.5001Z" fill="#ABABAB"/>
<path d="M21.875 21.0001C19.3804 21.0001 17.3005 20.2449 16.1875 19.0781V20.5626C16.1875 22.2798 18.6856 23.6251 21.875 23.6251C25.0644 23.6251 27.5625 22.2798 27.5625 20.5626V19.0781C26.4495 20.2449 24.3696 21.0001 21.875 21.0001Z" fill="#ABABAB"/>
<path d="M21.875 13.125C22.3274 13.125 22.7653 13.1508 23.1875 13.1985V8.72725C21.3364 8.53125 19.9063 7.10106 19.7107 5.25H8.28931C8.09375 7.10106 6.66356 8.53125 4.8125 8.72681V13.1478C6.66356 13.3438 8.09375 14.7735 8.28931 16.6246H15.3506C15.6914 14.6016 18.3811 13.125 21.875 13.125ZM11.375 10.9375C11.375 9.48763 12.5501 8.3125 14 8.3125C15.4499 8.3125 16.625 9.48763 16.625 10.9375C16.625 12.3874 15.4499 13.5625 14 13.5625C12.5501 13.5625 11.375 12.3874 11.375 10.9375Z" fill="#ABABAB"/>
<path d="M21.875 14C18.6856 14 16.1875 15.3453 16.1875 17.0625C16.1875 18.7797 18.6856 20.125 21.875 20.125C25.0644 20.125 27.5625 18.7797 27.5625 17.0625C27.5625 15.3453 25.0644 14 21.875 14Z" fill="#ABABAB"/>
<path d="M15.3125 17.5H7.875C7.6335 17.5 7.4375 17.304 7.4375 17.0625C7.4375 15.3164 6.12106 14 4.375 14C4.1335 14 3.9375 13.804 3.9375 13.5625V8.3125C3.9375 8.071 4.1335 7.875 4.375 7.875C6.12106 7.875 7.4375 6.55856 7.4375 4.8125C7.4375 4.571 7.6335 4.375 7.875 4.375H20.125C20.3665 4.375 20.5625 4.571 20.5625 4.8125C20.5625 6.55856 21.8789 7.875 23.625 7.875C23.8665 7.875 24.0625 8.071 24.0625 8.3125V13.3368C25.5688 13.6369 26.7956 14.2428 27.5625 15.0474V1.3125C27.5625 1.071 27.3665 0.875 27.125 0.875H0.875C0.6335 0.875 0.4375 1.071 0.4375 1.3125V20.5625C0.4375 20.804 0.6335 21 0.875 21H15.3125V17.5Z" fill="#ABABAB"/>
</svg>
