<svg width="40" height="40" viewBox="0 0 40 40" fill="none" xmlns="http://www.w3.org/2000/svg">
<path d="M19.6018 28.2935V30.972C19.6018 32.4121 18.4343 33.5796 16.9942 33.5796H16.3386C13.6322 33.5796 11.0705 32.3583 9.36656 30.2557L5.41333 25.3774C5.14974 25.0521 5.03331 24.6318 5.09195 24.2173L6.12957 16.8815C6.21796 16.2566 6.75286 15.792 7.38401 15.792C7.88562 15.792 8.33999 16.0879 8.54279 16.5467L8.70117 16.905C8.80011 17.1289 8.85411 17.3699 8.86012 17.6146L8.96247 21.7826C8.99287 23.0205 9.67125 24.1514 10.749 24.761L12.8267 25.9361C12.9325 25.9959 13.0513 25.8816 12.9956 25.7736L12.3853 24.5902C12.1689 24.1705 11.9212 23.7677 11.6445 23.385L10.9285 22.3952C10.7298 22.1204 10.6579 21.7738 10.7311 21.4427L10.7537 21.3404C10.8608 20.856 11.2902 20.5112 11.7863 20.5112C12.3743 20.5112 12.94 20.7365 13.367 21.1409L18.6955 26.1872C19.2741 26.735 19.6018 27.4967 19.6018 28.2935Z" fill="#064DD6"/>
<path d="M20.3982 28.2935V30.972C20.3982 32.4121 21.5657 33.5796 23.0058 33.5796H23.6614C26.3678 33.5796 28.9295 32.3583 30.6334 30.2557L34.5867 25.3774C34.8503 25.0521 34.9667 24.6318 34.9081 24.2173L33.8704 16.8815C33.782 16.2566 33.2471 15.792 32.616 15.792C32.1144 15.792 31.66 16.0879 31.4572 16.5467L31.2988 16.905C31.1999 17.1289 31.1459 17.3699 31.1399 17.6146L31.0375 21.7826C31.0071 23.0205 30.3288 24.1514 29.251 24.761L27.1733 25.9361C27.0675 25.9959 26.9487 25.8816 27.0044 25.7736L27.6147 24.5902C27.8311 24.1705 28.0788 23.7677 28.3555 23.385L29.0715 22.3952C29.2702 22.1204 29.3421 21.7738 29.2689 21.4427L29.2463 21.3404C29.1392 20.856 28.7098 20.5112 28.2137 20.5112C27.6257 20.5112 27.06 20.7365 26.633 21.1409L21.3045 26.1872C20.7259 26.735 20.3982 27.4967 20.3982 28.2935Z" fill="#064DD6"/>
<path d="M26.9911 11.732C26.8338 11.732 26.6765 11.7582 26.5279 11.7756L24.7277 9.98803H26.1172C26.5978 9.98803 26.9911 9.59563 26.9911 9.11602V8.78466C26.9911 8.13938 26.3094 7.71209 25.7239 8.00857L23.7315 9.00266L21.4856 6.7616C21.3283 6.59592 21.101 6.5 20.8738 6.5H18.2521C17.7715 6.5 17.3783 6.8924 17.3783 7.37201C17.3783 7.85161 17.7715 8.24402 18.2521 8.24402H20.1485C20.3844 8.24402 20.6029 8.33994 20.769 8.4969L22.2633 9.98803H19.3358C19.196 9.98803 19.0649 10.0229 18.9425 10.084L16.1985 11.453C15.8664 11.6187 15.4557 11.5576 15.1935 11.2873L14.1448 10.2409C13.9788 10.084 13.7516 9.98803 13.5244 9.98803H10.3871C9.90646 9.98803 9.51321 10.3804 9.51321 10.86C9.51321 11.3396 9.90646 11.732 10.3871 11.732H13.0088C10.8066 11.732 9.085 13.7551 9.60933 16.0398C9.89772 17.3042 10.9202 18.3244 12.1873 18.6122C14.4769 19.1354 16.5044 17.4175 16.5044 15.2201L17.7365 16.4496C18.0686 16.781 18.5143 16.9641 18.9775 16.9641H19.8601C20.4893 16.9641 21.0661 16.6327 21.3807 16.0834L23.9237 11.6448L24.8063 12.5256C23.8188 13.3191 23.2683 14.6271 23.6004 16.0572C23.8975 17.3129 24.92 18.3331 26.1784 18.6209C28.4592 19.1354 30.4867 17.4088 30.4867 15.2201C30.4867 13.2929 28.9224 11.732 26.9911 11.732ZM13.0088 16.9641C12.0475 16.9641 11.261 16.1793 11.261 15.2201C11.261 14.2609 12.0475 13.4761 13.0088 13.4761C13.9701 13.4761 14.7566 14.2609 14.7566 15.2201C14.7566 16.1793 13.9701 16.9641 13.0088 16.9641ZM26.9911 16.9641C26.0298 16.9641 25.2433 16.1793 25.2433 15.2201C25.2433 14.2609 26.0298 13.4761 26.9911 13.4761C27.9524 13.4761 28.7389 14.2609 28.7389 15.2201C28.7389 16.1793 27.9524 16.9641 26.9911 16.9641Z" fill="#FF6C0E"/>
</svg>
