<svg width="170" height="49" viewBox="0 0 170 49" fill="none" xmlns="http://www.w3.org/2000/svg">
<g clip-path="url(#clip0_3808_19145)">
<path d="M48.8058 4.97266H69.0456V10.0285H53.8748V15.0491H63.977V20.1038H53.8748V27.7574C53.8748 28.4446 53.6276 29.0349 53.1332 29.5285C52.6388 30.022 52.0351 30.2681 51.3221 30.2666H48.8047L48.8058 4.97266Z" fill="white"/>
<path d="M122.122 4.96875H127.156L137.259 30.2438H133.949C133.439 30.2499 132.94 30.0997 132.518 29.8135C132.096 29.5315 131.766 29.1316 131.57 28.6637L130.19 25.156H119.088L117.709 28.6637C117.512 29.1313 117.183 29.531 116.761 29.8135C116.339 30.0995 115.839 30.2497 115.329 30.2438H112.02L122.122 4.96875ZM121.122 20.134H128.157L124.64 11.2964L121.122 20.134Z" fill="white"/>
<path d="M104.44 7.62649V22.2724L89.3036 4.97266H84.2354V30.3037H86.7527C87.4645 30.3037 88.0679 30.0564 88.5628 29.5619C89.0576 29.0673 89.3047 28.4757 89.304 27.7871V13.0369L104.44 30.3018H109.474V4.97266H107.094C106.745 4.97305 106.399 5.042 106.077 5.17558C105.755 5.30915 105.462 5.50474 105.216 5.75117C104.969 5.9976 104.774 6.29005 104.64 6.61182C104.507 6.93359 104.439 7.27837 104.439 7.62649" fill="white"/>
<path d="M74.0967 4.99236V30.2663L76.7702 30.2841C77.0841 30.2861 77.3952 30.2261 77.6858 30.1078C77.9763 29.9894 78.2405 29.8148 78.4631 29.5942C78.6858 29.3736 78.8624 29.1112 78.983 28.8222C79.1036 28.5332 79.1656 28.2233 79.1656 27.9103V4.98828L74.0967 4.99236Z" fill="white"/>
<path d="M37.5916 33.1753C37.631 33.1293 37.6697 33.0837 37.708 33.0362C37.7787 32.9474 37.8465 32.8572 37.9114 32.7655C37.9594 32.6976 38.0063 32.6297 38.0513 32.5603C38.0963 32.491 38.1439 32.412 38.1878 32.3378C38.2435 32.2428 38.2965 32.1463 38.3466 32.0481C38.3741 31.9947 38.3994 31.9413 38.425 31.8868C38.4827 31.764 38.5366 31.6394 38.5857 31.5129C38.5987 31.4784 38.6106 31.4443 38.6229 31.4098C38.6753 31.2663 38.7222 31.1209 38.7631 30.9725C38.7694 30.9491 38.7754 30.9246 38.7817 30.9013C38.8215 30.7474 38.8561 30.5916 38.8836 30.4328C38.888 30.4076 38.8914 30.382 38.8955 30.3568C38.9197 30.2032 38.939 30.0486 38.9513 29.8913C38.9539 29.8542 38.9546 29.8171 38.9569 29.78C38.9628 29.6728 38.9728 29.5664 38.9728 29.4577C38.9728 29.4165 38.9676 29.3769 38.9669 29.3361C38.9661 29.2953 38.9624 29.253 38.9606 29.2122C38.9542 29.0638 38.9453 28.9154 38.9278 28.7712C38.9238 28.7389 38.9171 28.7074 38.913 28.6747C38.8914 28.5186 38.8661 28.3639 38.8323 28.2122C38.8274 28.19 38.8204 28.1681 38.8148 28.1458C38.7776 27.9834 38.7333 27.8228 38.6813 27.6636C38.6746 27.644 38.6664 27.6266 38.6597 27.605C38.6043 27.4448 38.544 27.2872 38.4738 27.1332C38.463 27.1091 38.45 27.0854 38.4392 27.0613C38.37 26.9129 38.2964 26.7672 38.216 26.6258C38.2104 26.6155 38.206 26.6047 38.2 26.5947L24.458 2.85672C24.4405 2.82593 24.4208 2.79811 24.4004 2.7677C24.3654 2.7091 24.326 2.65272 24.2888 2.59523C24.2233 2.49508 24.1583 2.39531 24.0872 2.2985C24.0456 2.2425 23.9998 2.18946 23.9559 2.13493C23.8816 2.04258 23.8072 1.94948 23.7291 1.8638C23.6815 1.8115 23.6298 1.76329 23.5803 1.71247C23.4981 1.62902 23.4159 1.54482 23.3293 1.46693C23.2754 1.41871 23.2177 1.37421 23.1616 1.32747C23.0723 1.25329 22.9831 1.17911 22.8897 1.11049C22.828 1.06524 22.7625 1.02333 22.6986 0.980304C22.6056 0.917621 22.5126 0.85568 22.4174 0.798931C22.3958 0.78632 22.3761 0.771113 22.3549 0.758502C22.2969 0.725121 22.2367 0.699528 22.1779 0.668372C22.0957 0.624605 22.0131 0.580468 21.9287 0.541152C21.8268 0.493305 21.7242 0.450651 21.6208 0.409109C21.5561 0.383888 21.4917 0.357182 21.4263 0.334928C21.3103 0.294499 21.1916 0.259634 21.0726 0.222544C21.0157 0.205853 20.9584 0.189162 20.9015 0.175068C20.7799 0.143911 20.6583 0.118319 20.5363 0.0953228C20.4739 0.0838247 20.4114 0.0726975 20.3485 0.063054C20.2352 0.0469814 20.1219 0.0339997 20.0086 0.0241089C19.9305 0.0170617 19.8524 0.0107563 19.7736 0.00667631C19.678 0.00185453 19.5828 0 19.488 0C19.3931 0 19.2894 0.00185453 19.1904 0.00667631C19.1161 0.0107563 19.0417 0.0166908 18.9673 0.023738C18.8498 0.0337524 18.7326 0.0474759 18.6151 0.0652794C18.5567 0.0741812 18.4987 0.0845665 18.4403 0.0956937C18.3142 0.119061 18.1893 0.145395 18.064 0.177293C18.0097 0.191017 17.9561 0.206595 17.9022 0.222173C17.7806 0.257038 17.6597 0.296354 17.5396 0.337895C17.476 0.36052 17.4135 0.386484 17.351 0.412076C17.2458 0.45436 17.1416 0.497385 17.0383 0.545973C16.955 0.584919 16.8743 0.628315 16.7928 0.670969C16.7329 0.702867 16.6723 0.72883 16.6132 0.762953C16.5909 0.775564 16.5715 0.791142 16.5496 0.804124C16.4547 0.860131 16.3636 0.921701 16.2714 0.983271C16.2067 1.02667 16.1401 1.06932 16.0776 1.11494C15.9847 1.18282 15.8958 1.25737 15.8065 1.33155C15.7507 1.37829 15.6924 1.42279 15.6384 1.47101C15.5518 1.5489 15.47 1.63347 15.3874 1.71692C15.3379 1.76774 15.2859 1.81595 15.2386 1.86825C15.1598 1.95467 15.0865 2.04666 15.0122 2.13864C14.9683 2.19354 14.9222 2.24658 14.8801 2.30333C14.8095 2.39754 14.7448 2.49768 14.6793 2.59745C14.6421 2.65494 14.6023 2.71169 14.5677 2.7703C14.5491 2.80071 14.5283 2.82853 14.5101 2.85931L0.768436 26.5973C0.750957 26.6277 0.737569 26.66 0.720461 26.6904C0.692197 26.7416 0.66728 26.7939 0.640503 26.8458C0.580999 26.9611 0.522611 27.0769 0.471661 27.1952C0.451207 27.2423 0.434471 27.2905 0.414761 27.338C0.363439 27.4656 0.314348 27.5943 0.272695 27.7256C0.259307 27.7664 0.248894 27.8087 0.235505 27.8502C0.194225 27.99 0.156291 28.131 0.126167 28.273C0.117986 28.3127 0.112035 28.3532 0.104225 28.3932C0.0748453 28.5386 0.0525313 28.6844 0.0376554 28.8316C0.0328207 28.878 0.0305893 28.9247 0.0268703 28.9718C0.0149696 29.1117 0.00678781 29.2515 0.00530021 29.3924C0.00530021 29.4143 0.00195312 29.4358 0.00195312 29.4577C0.00195312 29.5041 0.0079035 29.5486 0.0090192 29.5946C0.0119944 29.7088 0.0164572 29.8238 0.0264984 29.9384C0.0346802 30.0367 0.0473248 30.1335 0.0603412 30.2296C0.0718701 30.3112 0.0826551 30.392 0.0975311 30.4729C0.119473 30.5923 0.145506 30.7092 0.174514 30.8256C0.184183 30.8627 0.189018 30.9035 0.199803 30.9428C0.206869 30.9684 0.216911 30.9929 0.224349 31.017C0.256332 31.1301 0.292778 31.2395 0.331455 31.3508C0.358232 31.4276 0.385753 31.504 0.415504 31.5789C0.448232 31.6609 0.483562 31.741 0.520008 31.8208C0.567239 31.9261 0.616702 32.0296 0.668767 32.1308C0.691825 32.1735 0.715255 32.2147 0.738684 32.2562C0.813064 32.3905 0.89265 32.5214 0.977815 32.6486C0.98265 32.656 0.987856 32.6635 0.992691 32.6701C1.47622 33.3889 2.11827 33.9877 2.86966 34.4208C2.90685 34.4416 2.94404 34.4553 2.98123 34.4753C3.0876 34.5343 3.19879 34.5866 3.30925 34.637C3.47177 34.7112 3.63578 34.7813 3.80313 34.8414C3.90689 34.8785 4.01065 34.9156 4.11738 34.9479C4.22412 34.9801 4.3368 35.0072 4.44763 35.0324C4.55846 35.0577 4.66296 35.078 4.7723 35.097C4.88164 35.1159 4.98577 35.1341 5.09362 35.1459C5.24535 35.1634 5.39932 35.1708 5.55403 35.176C5.61093 35.1778 5.6656 35.1871 5.72399 35.1871C5.73142 35.1871 5.73849 35.1871 5.74593 35.1871H33.2255C33.2326 35.1871 33.2393 35.1871 33.2463 35.1871C33.2962 35.1871 33.3449 35.1789 33.3951 35.1775C33.5617 35.1726 33.7265 35.1641 33.889 35.1456C33.9861 35.1344 34.0816 35.117 34.1776 35.1014C34.304 35.0803 34.4286 35.0562 34.5517 35.0272C34.6465 35.0046 34.7403 34.9816 34.8344 34.9531C34.9772 34.9111 35.1163 34.8626 35.2546 34.8106C35.3223 34.7847 35.3918 34.7639 35.4591 34.7364C35.6524 34.6544 35.8408 34.5617 36.0237 34.4586C36.049 34.4442 36.0758 34.4349 36.1007 34.4215C36.1799 34.3763 36.2524 34.3236 36.3279 34.2754C36.38 34.2417 36.4328 34.2098 36.4837 34.1745C36.5953 34.1003 36.7005 34.018 36.8043 33.9353C36.8437 33.9041 36.8831 33.8737 36.9218 33.8415C37.0274 33.7532 37.1282 33.6604 37.2264 33.5655C37.2614 33.5314 37.2963 33.498 37.3309 33.4631C37.4224 33.37 37.509 33.2736 37.5938 33.1746L37.5916 33.1753ZM36.9616 29.928C36.9462 30.07 36.9225 30.2109 36.8906 30.3501C36.8672 30.4465 36.8337 30.5382 36.8028 30.6316C36.761 30.7669 36.7113 30.8997 36.6541 31.0292C36.6072 31.1309 36.5499 31.2262 36.4941 31.3226C36.4324 31.4306 36.3714 31.5385 36.2993 31.6401C36.2214 31.7448 36.1381 31.8453 36.0497 31.9413C35.9779 32.0233 35.9073 32.106 35.8266 32.182C35.7274 32.2729 35.6235 32.3584 35.5153 32.4383C35.4249 32.5073 35.3357 32.5755 35.2382 32.6371C35.1217 32.7089 35.0012 32.7743 34.8775 32.833C34.7808 32.8797 34.6841 32.9268 34.5841 32.965C34.4513 33.0149 34.3157 33.0572 34.178 33.0915C34.0768 33.1178 33.976 33.1438 33.873 33.162C33.7303 33.1846 33.5864 33.199 33.442 33.205C32.7437 33.2547 32.0455 33.1066 31.4279 32.7777C30.8104 32.4488 30.2986 31.9525 29.9517 31.346L26.6775 25.6882H33.2289C34.6871 25.6882 35.9408 26.5253 36.5708 27.7349C36.6445 27.8741 36.7095 28.0178 36.7653 28.1651C36.7987 28.2567 36.8259 28.3506 36.8526 28.4466C36.8931 28.5865 36.9253 28.7287 36.949 28.8724C36.9661 28.9785 36.9743 29.0868 36.9817 29.1955C36.9931 29.3345 36.9967 29.4741 36.9925 29.6135C36.988 29.7203 36.9743 29.8245 36.9605 29.9288L36.9616 29.928ZM5.08878 33.159C4.99581 33.143 4.90507 33.1189 4.81395 33.0956C4.66245 33.059 4.5134 33.0131 4.36767 32.958C4.28585 32.9261 4.20664 32.8871 4.12668 32.8493C3.98159 32.7822 3.84098 32.7059 3.70569 32.6208C3.63875 32.5781 3.57664 32.5299 3.51342 32.4836C3.37768 32.3864 3.2487 32.2802 3.12739 32.1657C3.07384 32.1141 3.02586 32.0585 2.97565 32.004C2.86375 31.8853 2.75965 31.7596 2.664 31.6275C2.60896 31.5493 2.56136 31.4662 2.51227 31.3831C2.44008 31.2662 2.3744 31.1455 2.31553 31.0215C2.26375 30.9026 2.21807 30.7811 2.17868 30.6576C2.14149 30.5511 2.1043 30.4458 2.07789 30.3353C2.0474 30.2077 2.03103 30.0786 2.01355 29.9503C1.99469 29.8246 1.98227 29.6981 1.97636 29.5712C1.97264 29.4599 1.98045 29.3513 1.98678 29.2418C1.99297 29.0985 2.00737 28.9556 2.02992 28.8138C2.04814 28.71 2.07454 28.6076 2.10169 28.5056C2.13553 28.371 2.17675 28.2384 2.22516 28.1084C2.2657 28.0049 2.31442 27.9044 2.36388 27.8038C2.98049 26.5554 4.25722 25.6867 5.74444 25.6867H12.2899L9.01492 31.346C8.66887 31.9511 8.15864 32.4466 7.54288 32.7756C6.92711 33.1045 6.2308 33.2534 5.53395 33.2053C5.38442 33.1994 5.23539 33.1844 5.08767 33.1605L5.08878 33.159ZM16.4778 3.44052C16.6142 3.26411 16.766 3.10014 16.9315 2.95056C16.9687 2.91755 17.0059 2.88639 17.0431 2.85449C17.2021 2.7188 17.3721 2.5966 17.5515 2.48915C17.5708 2.47802 17.5887 2.46319 17.6088 2.45206C17.799 2.34597 17.9981 2.25649 18.2038 2.18464C18.2644 2.16349 18.3254 2.14309 18.3868 2.12418C18.5884 2.06072 18.795 2.01444 19.0045 1.98583C19.0268 1.98323 19.0495 1.98583 19.0722 1.98175C19.272 1.96053 19.4732 1.9552 19.6739 1.9658C19.7196 1.96803 19.765 1.97062 19.8108 1.9747C20.2487 2.01352 20.6765 2.12784 21.0752 2.3126C21.1195 2.33263 21.1637 2.35451 21.2076 2.37676C21.3273 2.44178 21.4436 2.51284 21.5561 2.58966C21.667 2.66109 21.7741 2.73822 21.877 2.82074C21.9685 2.89492 22.0544 2.97837 22.1396 3.0622C22.2311 3.15173 22.318 3.24582 22.3999 3.34409C22.4769 3.43793 22.5468 3.53955 22.6156 3.64081C23.3836 4.79655 23.4967 6.32691 22.7558 7.60617L19.4831 13.2595L16.2104 7.60617C15.8435 6.96985 15.6707 6.24061 15.7132 5.50781C15.7557 4.77501 16.0116 4.07049 16.4495 3.48058C16.4596 3.46686 16.4678 3.45202 16.4774 3.43867L16.4778 3.44052ZM14.5093 8.58832L18.3492 15.2216L13.426 23.7276H5.74518C5.37179 23.7287 4.99938 23.766 4.63321 23.8389L14.0486 7.57241C14.1686 7.9252 14.323 8.26545 14.5093 8.58832V8.58832ZM19.4839 17.1818L23.2735 23.7276H15.6946L19.4839 17.1818ZM10.7167 32.3259L14.5592 25.6867H24.4082L28.2514 32.3259C28.4367 32.6464 28.653 32.9482 28.897 33.2269H10.0711C10.3148 32.9479 10.531 32.6462 10.7167 32.3259V32.3259ZM33.2289 23.7276H25.5428L20.6185 15.2216L24.4584 8.58832C24.645 8.2655 24.7994 7.92524 24.9195 7.57241L34.3345 23.8366C33.9704 23.7647 33.6001 23.7282 33.2289 23.7276Z" fill="white"/>
<path d="M51.9463 47.4552C50.1028 47.4552 49.0303 46.0673 49.0303 44.1227C49.0303 42.1424 50.2092 40.8164 52.0174 40.8164C53.3465 40.8164 54.4102 41.6035 54.6951 42.9732H53.8174C53.6314 42.1691 52.9932 41.5768 51.9739 41.5768C50.8396 41.5768 49.953 42.4606 49.953 44.1227C49.953 45.7491 50.8039 46.6949 52.0006 46.6949C53.0375 46.6949 53.6489 46.1204 53.8531 45.2981H54.7304C54.4466 46.7127 53.338 47.4552 51.9463 47.4552Z" fill="white"/>
<path d="M60.0019 44.9795C60.0019 46.7027 58.8234 47.4545 57.7155 47.4545C56.6076 47.4545 55.4287 46.7027 55.4287 44.9795C55.4287 43.2562 56.6076 42.5044 57.7155 42.5044C58.8234 42.5044 60.0019 43.2555 60.0019 44.9795ZM57.7155 46.7472C58.4511 46.7472 59.1425 46.199 59.1425 44.9795C59.1425 43.7061 58.4511 43.2113 57.7155 43.2113C56.9799 43.2113 56.2885 43.6798 56.2885 44.9795C56.2885 46.2531 56.9799 46.7472 57.7155 46.7472V46.7472ZM58.1499 41.9562L57.7155 41.4788L57.2811 41.9562H56.4302L57.3343 40.9306H58.1231L59.0008 41.9562H58.1499ZM58.8409 41.408L59.3727 40.3828H60.4099L59.5147 41.408H58.8409Z" fill="white"/>
<path d="M65.9129 42.582H66.7463L64.9471 47.3378H64.2293L62.4297 42.582H63.3252L64.6191 46.224L65.9129 42.582Z" fill="white"/>
<path d="M66.9229 46.0833C66.9229 44.9602 68.1992 44.6249 70.149 44.4142V44.2988C70.149 43.4239 69.6704 43.1409 69.0676 43.1409C68.3941 43.1409 68.0129 43.4947 67.9775 44.0867H67.1445C67.2152 43.0615 68.1371 42.487 69.059 42.487C70.3979 42.487 70.9642 43.0967 70.9557 44.4494L70.9471 45.5454C70.9382 46.3496 70.9735 46.8892 71.071 47.3399H70.2554C70.2209 47.1233 70.2001 46.9048 70.1933 46.6856C69.901 47.1808 69.4123 47.4549 68.5625 47.4549C67.6674 47.4534 66.9229 46.9567 66.9229 46.0833ZM69.4841 41.9551L69.0501 41.4777L68.6154 41.9551H67.7645L68.6685 40.9295H69.4573L70.3346 41.9551H69.4841ZM67.818 46.0666C67.818 46.5172 68.1635 46.818 68.7396 46.818C69.493 46.818 70.2112 46.4731 70.2112 45.3507V45.0499C68.7485 45.1905 67.818 45.4112 67.818 46.0666ZM70.1758 41.408L70.7073 40.3828H71.7445L70.849 41.408H70.1758Z" fill="white"/>
<path d="M74.5099 42.5039C75.6628 42.5039 76.0786 43.2457 76.0786 44.3332V47.3376H75.273V44.5706C75.273 43.8369 75.1488 43.2005 74.2273 43.2005C73.4463 43.2005 72.9684 43.7223 72.9684 44.7583V47.3394H72.1621V42.5833H72.9673V43.2995C73.2425 42.8485 73.7033 42.5039 74.5099 42.5039Z" fill="white"/>
<path d="M80.4201 41.3906V42.5838H81.3242V43.2292H80.4201V46.0481C80.4201 46.5429 80.4554 46.6664 80.9166 46.6664H81.3257V47.3385H80.7392C79.8262 47.3385 79.6134 47.1352 79.6134 46.1449V43.2281H78.8604V42.5827H79.6134V41.3906H80.4201Z" fill="white"/>
<path d="M81.9805 46.0834C81.9805 44.9603 83.2568 44.625 85.2067 44.4143V44.299C85.2067 43.424 84.7281 43.141 84.1252 43.141C83.4517 43.141 83.0705 43.4949 83.0352 44.0868H82.2021C82.2728 43.0617 83.1947 42.4871 84.1163 42.4871C85.4551 42.4871 86.0219 43.0969 86.013 44.4496L86.0044 45.5456C85.9955 46.3497 86.0308 46.8894 86.1282 47.3401H85.3142C85.2794 47.1235 85.2587 46.905 85.2521 46.6858C84.9597 47.1809 84.4711 47.455 83.6213 47.455C82.725 47.4536 81.9805 46.9569 81.9805 46.0834ZM82.8756 46.0656C82.8756 46.5163 83.2211 46.8171 83.7972 46.8171C84.5507 46.8171 85.2684 46.4721 85.2684 45.3498V45.049C83.8061 45.1907 82.8756 45.4113 82.8756 46.0667V46.0656ZM83.9381 40.9297L84.4785 41.9552H83.7961L82.9098 40.9297H83.9381Z" fill="white"/>
<path d="M88.0244 41.9018H87.2178V40.9297H88.0244V41.9018ZM88.0244 47.3386H87.2178V42.5828H88.0244V47.3386Z" fill="white"/>
<path d="M95.372 44.1763H94.5565C94.4415 43.6103 93.954 43.212 93.3247 43.212C92.6155 43.212 91.9509 43.7683 91.9509 44.9619C91.9509 46.1644 92.6155 46.7478 93.3247 46.7478C94.0072 46.7478 94.4776 46.2879 94.5922 45.7931H95.4252C95.2568 46.6859 94.4148 47.4551 93.2979 47.4551C91.9241 47.4551 91.0732 46.4207 91.0732 44.9701C91.0732 43.5558 91.9595 42.5039 93.379 42.5039C94.5375 42.5046 95.2567 43.3603 95.372 44.1763Z" fill="white"/>
<path d="M98.6858 42.5034C99.8387 42.5034 100.254 43.2453 100.254 44.3327V47.3371H99.4478V44.5701C99.4478 43.8365 99.324 43.2 98.4021 43.2C97.6211 43.2 97.1436 43.7219 97.1436 44.7578V47.3389H96.3369V40.9297H97.1436V43.299C97.4184 42.848 97.8792 42.5034 98.6858 42.5034Z" fill="white"/>
<path d="M102.266 47.3386H101.459V42.5828H102.266V47.3386ZM101.504 41.9552L102.035 40.9297H103.072L102.177 41.9552H101.504Z" fill="white"/>
<path d="M105.891 42.5039C107.044 42.5039 107.46 43.2457 107.46 44.3332V47.3376H106.653V44.5706C106.653 43.8369 106.529 43.2005 105.607 43.2005C104.826 43.2005 104.349 43.7223 104.349 44.7583V47.3394H103.542V42.5833H104.349V43.2995C104.623 42.8485 105.084 42.5039 105.891 42.5039Z" fill="white"/>
<path d="M111.012 42.5034C112.165 42.5034 112.581 43.2453 112.581 44.3327V47.3371H111.774V44.5701C111.774 43.8365 111.65 43.2 110.728 43.2C109.947 43.2 109.469 43.7219 109.469 44.7578V47.3389H108.663V40.9297H109.469V43.299C109.745 42.848 110.206 42.5034 111.012 42.5034Z" fill="white"/>
<path d="M119.857 44.1763H119.042C118.927 43.6103 118.439 43.212 117.81 43.212C117.101 43.212 116.436 43.7683 116.436 44.9619C116.436 46.1644 117.101 46.7478 117.81 46.7478C118.492 46.7478 118.963 46.2879 119.077 45.7931H119.911C119.742 46.6859 118.9 47.4551 117.783 47.4551C116.409 47.4551 115.559 46.4207 115.559 44.9701C115.559 43.5558 116.445 42.5039 117.864 42.5039C119.024 42.5046 119.742 43.3603 119.857 44.1763Z" fill="white"/>
<path d="M122.277 47.4536C121.178 47.4536 120.752 46.7118 120.752 45.6236V42.5821H121.559V45.3843C121.559 46.118 121.674 46.7545 122.56 46.7545C123.331 46.7545 123.774 46.233 123.774 45.1967V42.5803H124.581V47.336H123.774V46.6551C123.5 47.1087 123.066 47.4536 122.277 47.4536ZM122.801 41.2658C122.801 40.9743 122.571 40.8949 122.225 40.8949C122.157 40.8956 122.088 40.9016 122.021 40.9127V40.5418C122.133 40.5268 122.245 40.521 122.358 40.5244H122.455C123.129 40.5244 123.377 40.8248 123.377 41.0989C123.377 41.6649 123.005 41.7884 122.782 42.1419L122.401 42.0358C122.605 41.6371 122.801 41.5418 122.801 41.2658Z" fill="white"/>
<path d="M125.573 46.0846C125.573 44.9615 126.85 44.6262 128.799 44.4155V44.3002C128.799 43.4252 128.321 43.1422 127.718 43.1422C127.044 43.1422 126.663 43.496 126.628 44.088H125.795C125.866 43.0628 126.787 42.4883 127.709 42.4883C129.048 42.4883 129.615 43.0981 129.606 44.4507L129.597 45.5468C129.588 46.3509 129.624 46.8906 129.721 47.3412H128.906C128.871 47.1246 128.851 46.9061 128.844 46.6869C128.551 47.1821 128.063 47.4562 127.213 47.4562C126.318 47.4547 125.573 46.9581 125.573 46.0846ZM126.468 46.0668C126.468 46.5174 126.814 46.8182 127.39 46.8182C128.143 46.8182 128.862 46.4733 128.862 45.3509V45.0501C127.399 45.1918 126.468 45.4125 126.468 46.0679V46.0668Z" fill="white"/>
<path d="M134.834 43.3861C134.09 43.3861 133.718 43.7841 133.718 44.8445V47.3374H132.912V42.5816H133.701V43.4125C133.94 42.8732 134.419 42.5816 135.048 42.5549C135.128 42.5538 135.208 42.5567 135.287 42.5638V43.4214C135.138 43.3976 134.986 43.3859 134.834 43.3861Z" fill="white"/>
<path d="M136.864 41.9018H136.058V40.9297H136.864V41.9018ZM136.864 47.3386H136.058V42.5828H136.864V47.3386Z" fill="white"/>
<path d="M140.152 46.7462C140.861 46.7462 141.251 46.428 141.453 45.9595H142.289C142.076 46.7726 141.314 47.4535 140.152 47.4535C138.646 47.4535 137.812 46.375 137.812 44.9685C137.812 43.4567 138.823 42.5023 140.126 42.5023C141.588 42.5023 142.448 43.7133 142.35 45.2248H138.681C138.707 46.2522 139.451 46.7462 140.152 46.7462ZM138.689 44.5364H141.499C141.472 43.8647 140.985 43.193 140.125 43.193C139.416 43.193 138.76 43.5817 138.689 44.5364ZM140.515 41.9552L140.081 41.4779L139.648 41.9552H138.797L139.701 40.9297H140.49L141.367 41.9552H140.515Z" fill="white"/>
<path d="M145.638 42.5039C146.791 42.5039 147.207 43.2457 147.207 44.3332V47.3376H146.4V44.5706C146.4 43.8369 146.276 43.2005 145.355 43.2005C144.574 43.2005 144.096 43.7223 144.096 44.7583V47.3394H143.289V42.5833H144.096V43.2995C144.372 42.8485 144.831 42.5039 145.638 42.5039Z" fill="white"/>
<path d="M152.426 42.5825V46.6996C152.426 47.6639 152.249 48.0719 151.974 48.3705C151.628 48.7685 151.034 48.9981 150.326 48.9981C149.227 48.9981 148.517 48.5207 148.367 47.5397H149.227C149.324 47.964 149.59 48.2908 150.334 48.2908C150.768 48.2908 151.088 48.1762 151.309 47.9373C151.478 47.7519 151.619 47.5486 151.619 46.8858V46.4374C151.327 46.9411 150.876 47.2593 150.104 47.2593C149.049 47.2593 148.083 46.4107 148.083 44.8814C148.083 43.3607 149.05 42.5039 150.104 42.5039C150.875 42.5039 151.327 42.8307 151.619 43.3347V42.5833L152.426 42.5825ZM150.306 43.1927C149.517 43.1927 148.959 43.7861 148.959 44.8807C148.959 45.986 149.517 46.5779 150.306 46.5779C151.015 46.5779 151.653 46.0832 151.653 44.8807C151.653 43.6782 151.017 43.1927 150.308 43.1927H150.306Z" fill="white"/>
<path d="M156.609 43.3343C156.902 42.8302 157.398 42.5034 158.169 42.5034C159.268 42.5034 160.208 43.4225 160.208 44.9785C160.208 46.5604 159.268 47.4535 158.169 47.4535C157.398 47.4535 156.902 47.1264 156.609 46.6223V47.3386H155.803V40.9297H156.609V43.3343ZM157.965 46.7637C158.79 46.7637 159.33 46.1361 159.33 44.9785C159.33 43.8209 158.79 43.193 157.965 43.193C157.248 43.193 156.574 43.7234 156.574 44.9785C156.574 46.2336 157.248 46.7637 157.965 46.7637Z" fill="white"/>
<path d="M160.847 46.0846C160.847 44.9615 162.123 44.6262 164.073 44.4155V44.3002C164.073 43.4252 163.594 43.1422 162.992 43.1422C162.318 43.1422 161.937 43.496 161.901 44.088H161.068C161.139 43.0628 162.061 42.4883 162.983 42.4883C164.322 42.4883 164.888 43.0981 164.88 44.4507L164.871 45.5468C164.862 46.3509 164.897 46.8906 164.994 47.3412H164.179C164.145 47.1246 164.124 46.9061 164.117 46.6869C163.825 47.1821 163.336 47.4562 162.486 47.4562C161.59 47.4547 160.847 46.9581 160.847 46.0846ZM161.739 46.0679C161.739 46.5185 162.085 46.8193 162.661 46.8193C163.415 46.8193 164.132 46.4744 164.132 45.352V45.0512C162.671 45.1918 161.739 45.4125 161.739 46.0679ZM163.37 48.6668H162.565V47.7915H163.371L163.37 48.6668Z" fill="white"/>
<path d="M168.433 42.5039C169.586 42.5039 170.002 43.2457 170.002 44.3332V47.3376H169.196V44.5706C169.196 43.8369 169.071 43.2005 168.15 43.2005C167.369 43.2005 166.891 43.7223 166.891 44.7583V47.3394H166.083V42.5833H166.889V43.2995C167.164 42.8485 167.625 42.5039 168.433 42.5039Z" fill="white"/>
</g>
<defs>
<clipPath id="clip0_3808_19145">
<rect width="170" height="49" fill="white"/>
</clipPath>
</defs>
</svg>
