<svg width="26" height="26" viewBox="0 0 26 26" fill="none" xmlns="http://www.w3.org/2000/svg">
    <path d="M8.2566 18.8205L7.17933 17.7433L9.09788 15.8247L10.1751 16.902L8.2566 18.8205Z" fill="url(#paint0_linear)"/>
    <path d="M16.0972 19.8055C10.6369 19.8055 6.19449 15.3631 6.19449 9.90275C6.19449 4.44237 10.6369 0 16.0972 0C21.5576 0 26 4.44237 26 9.90275C26 15.3631 21.5576 19.8055 16.0972 19.8055Z" fill="url(#paint1_linear)"/>
    <path d="M18.7088 9.96255C18.1892 9.57279 17.5498 9.31242 16.859 9.20166V6.18468C17.7365 6.39913 18.3825 6.96862 18.3825 7.61737C18.3825 8.03806 18.7235 8.37912 19.1442 8.37912C19.5649 8.37912 19.906 8.03806 19.906 7.61737C19.906 6.77376 19.4696 5.96265 18.7088 5.39205C18.1892 5.00229 17.5498 4.74192 16.859 4.63116V3.80862C16.859 3.38794 16.5179 3.04688 16.0972 3.04688C15.6765 3.04688 15.3355 3.38794 15.3355 3.80862V4.63116C14.6447 4.74192 14.0053 5.00229 13.4856 5.39205C12.7249 5.96265 12.2885 6.77376 12.2885 7.61737C12.2885 8.46099 12.7249 9.2721 13.4856 9.8427C14.0053 10.2325 14.6447 10.4928 15.3355 10.6036V13.6206C14.4579 13.4061 13.812 12.8366 13.812 12.1879C13.812 11.7672 13.4709 11.4261 13.0502 11.4261C12.6295 11.4261 12.2885 11.7672 12.2885 12.1879C12.2885 13.0315 12.7249 13.8426 13.4856 14.4132C14.0053 14.803 14.6447 15.0633 15.3355 15.1741V15.9966C15.3355 16.4173 15.6765 16.7584 16.0972 16.7584C16.5179 16.7584 16.859 16.4173 16.859 15.9966V15.1741C17.5498 15.0633 18.1892 14.803 18.7088 14.4132C19.4696 13.8426 19.906 13.0315 19.906 12.1879C19.906 11.3443 19.4696 10.5331 18.7088 9.96255ZM13.812 7.61737C13.812 6.96862 14.4579 6.39913 15.3355 6.18468V9.05007C14.4579 8.83562 13.812 8.26613 13.812 7.61737ZM16.859 13.6206V10.7552C17.7365 10.9696 18.3825 11.5391 18.3825 12.1879C18.3825 12.8366 17.7365 13.4061 16.859 13.6206Z" fill="url(#paint2_linear)"/>
    <path d="M2.28417 26C1.69889 26 1.11377 25.7772 0.668245 25.3317C-0.222748 24.4407 -0.222698 22.9908 0.668296 22.0998L6.10211 16.666C6.24497 16.5232 6.4387 16.4429 6.64072 16.4429C6.84274 16.4429 7.03653 16.5232 7.17933 16.666L9.33386 18.8206C9.63135 19.1181 9.63135 19.6004 9.33386 19.8979L3.90005 25.3317C3.45462 25.7772 2.8693 26 2.28417 26Z" fill="url(#paint3_linear)"/>
    <defs>
        <linearGradient id="paint0_linear" x1="8.67724" y1="19.6964" x2="8.67724" y2="15.9835" gradientUnits="userSpaceOnUse">
            <stop stop-color="#E0E6F5"/>
            <stop offset="0.961522" stop-color="#F2F6FF"/>
        </linearGradient>
        <linearGradient id="paint1_linear" x1="16.0972" y1="25.5962" x2="16.0973" y2="1.05005" gradientUnits="userSpaceOnUse">
            <stop stop-color="#B5BDD2"/>
            <stop offset="0.961522" stop-color="#C3C9D9"/>
        </linearGradient>
        <linearGradient id="paint2_linear" x1="16.0972" y1="20.7673" x2="16.0972" y2="3.77383" gradientUnits="userSpaceOnUse">
            <stop stop-color="#E0E6F5"/>
            <stop offset="0.961522" stop-color="#F2F6FF"/>
        </linearGradient>
        <linearGradient id="paint3_linear" x1="4.7785" y1="28.7943" x2="4.77851" y2="16.9496" gradientUnits="userSpaceOnUse">
            <stop stop-color="#B5BDD2"/>
            <stop offset="0.961522" stop-color="#C3C9D9"/>
        </linearGradient>
    </defs>
</svg>
