<svg width="248" height="207" viewBox="0 0 248 207" fill="none" xmlns="http://www.w3.org/2000/svg">
<path fill-rule="evenodd" clip-rule="evenodd" d="M0 0L205.607 0V0.237148L248.001 102.017L205.607 206.756V207L205.508 207L0 207L0 0Z" fill="#064DD6"/>
<path d="M54.3301 58H58.418V38.2715H54.3164L49.2168 41.8125V45.4766L54.248 42.0586H54.3301V58ZM67.7832 58H71.8711V38.2715H67.7695L62.6699 41.8125V45.4766L67.7012 42.0586H67.7832V58ZM77.9277 58.2324C79.1582 58.2324 80.1426 57.248 80.1426 56.0176C80.1426 54.7734 79.1582 53.8027 77.9277 53.8027C76.6836 53.8027 75.7129 54.7734 75.7129 56.0176C75.7129 57.248 76.6836 58.2324 77.9277 58.2324ZM82.6992 58H97.041V54.7188H88.0996V54.5547L92.2285 50.7812C95.6328 47.6504 96.7676 46.0918 96.7676 43.6992V43.6719C96.7676 40.3086 93.8965 37.9297 89.7266 37.9297C85.5566 37.9297 82.4668 40.541 82.4668 44.2598V44.3691H86.2949L86.3086 44.2461C86.3633 42.4688 87.7305 41.1426 89.7539 41.1426C91.5039 41.1426 92.7344 42.291 92.748 43.9043V43.9316C92.748 45.2988 92.2148 46.2695 89.6719 48.6484L82.6992 55.1699V58ZM107.309 58.3418C112.312 58.3418 115.348 54.418 115.348 48.1426V48.1152C115.348 41.8398 112.312 37.9297 107.309 37.9297C102.305 37.9297 99.2695 41.8398 99.2695 48.1152V48.1426C99.2695 54.418 102.305 58.3418 107.309 58.3418ZM107.309 55.0332C104.848 55.0332 103.439 52.4766 103.439 48.1426V48.1152C103.439 43.7812 104.848 41.2383 107.309 41.2383C109.77 41.2383 111.178 43.7812 111.178 48.1152V48.1426C111.178 52.4766 109.77 55.0332 107.309 55.0332ZM122.689 58H126.777V38.2715H122.676L117.576 41.8125V45.4766L122.607 42.0586H122.689V58ZM138.645 37.9297C134.256 37.9297 131.043 40.7871 131.043 44.8203V44.8477C131.043 48.5527 133.654 51.2461 137.469 51.2461C140.135 51.2461 142.076 49.9062 142.855 48.0742H142.924C142.938 48.293 142.924 48.5664 142.91 48.8262C142.76 52.3125 141.502 55.0605 138.617 55.0605C137.004 55.0605 135.91 54.2539 135.418 53.0645L135.377 52.9551H131.303L131.33 53.0781C131.918 56.127 134.789 58.3418 138.604 58.3418C143.744 58.3418 146.875 54.4453 146.875 47.9785V47.9512C146.875 41.2656 143.402 37.9297 138.645 37.9297ZM138.658 48.1973C136.607 48.1973 135.062 46.7617 135.062 44.7109V44.6836C135.062 42.7285 136.689 41.2109 138.699 41.2109C140.723 41.2109 142.309 42.7422 142.309 44.7383V44.752C142.309 46.7617 140.723 48.1973 138.658 48.1973Z" fill="white"/>
<path d="M51.9453 104H53.3516V93.9922H56.9062V92.7266H48.3906V93.9922H51.9453V104ZM58.25 104H59.6094V99.2578C59.6094 97.875 60.4453 96.9219 61.7031 96.9219C62.9688 96.9219 63.7188 97.7891 63.7188 99.2578V104H65.0781V99.0234C65.0781 97.0547 63.8984 95.7188 62.1719 95.7188C60.9609 95.7188 60.0781 96.2578 59.6406 97.1719H59.6094V92.7266H58.25V104ZM69.6094 94.9453H70.6562L69.3203 92.6016H67.8984L69.6094 94.9453ZM69.1797 104.156C70.2656 104.156 71.2422 103.57 71.7188 102.68H71.75V104H73.1094V98.3828C73.1094 96.7578 71.9062 95.7188 69.9844 95.7188C68.0703 95.7188 66.9062 96.7969 66.7891 98.1328L66.7812 98.2188H68.0938L68.1094 98.1484C68.2656 97.4219 68.9219 96.9219 69.9688 96.9219C71.1016 96.9219 71.75 97.5234 71.75 98.5156V99.1953L69.4219 99.3281C67.5547 99.4375 66.4766 100.305 66.4766 101.688V101.703C66.4766 103.18 67.5625 104.156 69.1797 104.156ZM67.8672 101.703V101.688C67.8672 100.93 68.4922 100.445 69.5781 100.383L71.75 100.25V100.914C71.75 102.094 70.7656 102.977 69.4844 102.977C68.5078 102.977 67.8672 102.484 67.8672 101.703ZM74.8359 104H76.1953V99.2188C76.1953 97.8359 77.0312 96.9219 78.3125 96.9219C79.5625 96.9219 80.1797 97.6484 80.1797 98.9688V104H81.5391V98.7266C81.5391 96.875 80.5078 95.7188 78.7266 95.7188C77.4922 95.7188 76.6641 96.2734 76.2266 97.0312H76.1953V95.875H74.8359V104ZM83.3438 104H84.7031V99.2578C84.7031 97.875 85.5391 96.9219 86.7969 96.9219C88.0625 96.9219 88.8125 97.7891 88.8125 99.2578V104H90.1719V99.0234C90.1719 97.0547 88.9922 95.7188 87.2656 95.7188C86.0547 95.7188 85.1719 96.2578 84.7344 97.1719H84.7031V92.7266H83.3438V104ZM95.25 104H96.6094V92.7266H95.25V104ZM99.25 94.9453H100.422L101.625 93.3203L102.828 94.9453H104L102.273 92.6016H100.977L99.25 94.9453ZM100.82 104.156C101.906 104.156 102.883 103.57 103.359 102.68H103.391V104H104.75V98.3828C104.75 96.7578 103.547 95.7188 101.625 95.7188C99.7109 95.7188 98.5469 96.7969 98.4297 98.1328L98.4219 98.2188H99.7344L99.75 98.1484C99.9062 97.4219 100.562 96.9219 101.609 96.9219C102.742 96.9219 103.391 97.5234 103.391 98.5156V99.1953L101.062 99.3281C99.1953 99.4375 98.1172 100.305 98.1172 101.688V101.703C98.1172 103.18 99.2031 104.156 100.82 104.156ZM99.5078 101.703V101.688C99.5078 100.93 100.133 100.445 101.219 100.383L103.391 100.25V100.914C103.391 102.094 102.406 102.977 101.125 102.977C100.148 102.977 99.5078 102.484 99.5078 101.703ZM101.625 107.078C102.102 107.078 102.477 106.695 102.477 106.227C102.477 105.75 102.102 105.375 101.625 105.375C101.156 105.375 100.773 105.75 100.773 106.227C100.773 106.695 101.156 107.078 101.625 107.078ZM106.477 106.734H107.836V102.641H107.867C108.375 103.578 109.32 104.156 110.469 104.156C112.508 104.156 113.898 102.508 113.898 99.9453V99.9375C113.898 97.375 112.523 95.7188 110.445 95.7188C109.281 95.7188 108.375 96.3047 107.867 97.25H107.836V95.875H106.477V106.734ZM110.18 102.953C108.812 102.953 107.828 101.758 107.828 99.9453V99.9375C107.828 98.1172 108.805 96.9219 110.18 96.9219C111.617 96.9219 112.508 98.0703 112.508 99.9375V99.9453C112.508 101.797 111.617 102.953 110.18 102.953ZM123.477 104.188C125.836 104.188 127.641 102.789 128.07 100.633L128.086 100.555H126.664L126.641 100.625C126.148 102.109 125.055 102.891 123.477 102.891C121.234 102.891 119.773 101.102 119.773 98.3594V98.3516C119.773 95.6094 121.227 93.8359 123.477 93.8359C125.062 93.8359 126.172 94.6328 126.609 96L126.664 96.1719H128.086L128.07 96.0938C127.641 93.9609 125.82 92.5391 123.477 92.5391C120.336 92.5391 118.328 94.8047 118.328 98.3516V98.3594C118.328 101.906 120.344 104.188 123.477 104.188ZM130.531 94.9453H131.703L132.906 93.3203L134.109 94.9453H135.281L133.555 92.6016H132.258L130.531 94.9453ZM132.906 104.156C135.148 104.156 136.664 102.531 136.664 99.9375V99.9219C136.664 97.3281 135.141 95.7188 132.898 95.7188C130.656 95.7188 129.141 97.3359 129.141 99.9219V99.9375C129.141 102.523 130.648 104.156 132.906 104.156ZM132.914 102.953C131.477 102.953 130.531 101.852 130.531 99.9375V99.9219C130.531 98.0234 131.484 96.9219 132.898 96.9219C134.336 96.9219 135.273 98.0156 135.273 99.9219V99.9375C135.273 101.844 134.344 102.953 132.914 102.953ZM138.039 104H139.398V99.2188C139.398 97.8359 140.234 96.9219 141.516 96.9219C142.766 96.9219 143.383 97.6484 143.383 98.9688V104H144.742V98.7266C144.742 96.875 143.711 95.7188 141.93 95.7188C140.695 95.7188 139.867 96.2734 139.43 97.0312H139.398V95.875H138.039V104ZM149.914 106.891C152.117 106.891 153.5 105.656 153.5 103.773V95.875H152.141V97.25H152.109C151.609 96.3438 150.703 95.7188 149.555 95.7188C147.492 95.7188 146.078 97.3594 146.078 99.8828V99.8906C146.078 102.43 147.477 104.078 149.523 104.078C150.688 104.078 151.625 103.5 152.109 102.602H152.141V103.641C152.141 104.898 151.328 105.688 149.898 105.688C148.789 105.688 148.016 105.328 147.758 104.742L147.727 104.672H146.359L146.375 104.742C146.641 105.945 147.906 106.891 149.914 106.891ZM149.82 102.875C148.375 102.875 147.469 101.734 147.469 99.8906V99.8828C147.469 98.0781 148.375 96.9219 149.82 96.9219C151.195 96.9219 152.141 98.0938 152.141 99.8828V99.8906C152.141 101.695 151.203 102.875 149.82 102.875ZM161.18 104.156C161.445 104.156 161.734 104.125 161.906 104.102V103C161.789 103.008 161.633 103.031 161.469 103.031C160.742 103.031 160.359 102.789 160.359 101.922V97H161.906V95.875H160.359V93.6797H158.953V95.875H157.766V97H158.953V101.93C158.953 103.484 159.688 104.156 161.18 104.156ZM164.148 106.734C165.617 106.734 166.328 106.062 166.906 104.508L170.078 95.875H168.648L166.398 102.641H166.367L164.125 95.875H162.672L165.688 104.008L165.523 104.469C165.195 105.391 164.719 105.609 163.859 105.609C163.695 105.609 163.539 105.586 163.422 105.562V106.672C163.594 106.703 163.883 106.734 164.148 106.734ZM52.25 123.156C54.0859 123.156 55.4219 121.961 55.6406 120.414L55.6484 120.359H54.3125L54.2969 120.422C54.0703 121.328 53.3594 121.953 52.25 121.953C50.8438 121.953 49.875 120.836 49.875 118.945V118.938C49.875 117.094 50.8203 115.922 52.2344 115.922C53.4297 115.922 54.0859 116.641 54.2891 117.453L54.3047 117.516H55.6328L55.625 117.453C55.4531 116.062 54.2578 114.719 52.2344 114.719C49.9766 114.719 48.4844 116.359 48.4844 118.922V118.93C48.4844 121.516 49.9453 123.156 52.25 123.156ZM61.4922 111.453H62.4922C63 111.125 63.2109 110.734 63.2109 110.305C63.2109 109.57 62.4766 109.109 61.6797 109.109C61.3281 109.109 61.0156 109.172 60.8359 109.25V110.055C60.9375 110.031 61.0781 110.008 61.3281 110.008C61.7969 110.008 62.1719 110.195 62.1719 110.516C62.1719 110.781 61.9453 111.102 61.4922 111.43V111.453ZM57.8594 113.945H59.0312L60.2656 112.312L61.5 113.945H62.6719L60.8984 111.602H59.6328L57.8594 113.945ZM60.2656 123.156C62.5078 123.156 64.0234 121.531 64.0234 118.938V118.922C64.0234 116.328 62.5 114.719 60.2578 114.719C58.0156 114.719 56.5 116.336 56.5 118.922V118.938C56.5 121.523 58.0078 123.156 60.2656 123.156ZM60.2734 121.953C58.8359 121.953 57.8906 120.852 57.8906 118.938V118.922C57.8906 117.023 58.8438 115.922 60.2578 115.922C61.6953 115.922 62.6328 117.016 62.6328 118.922V118.938C62.6328 120.844 61.7031 121.953 60.2734 121.953ZM68.6797 125.734H70.0391V121.641H70.0703C70.5781 122.578 71.5234 123.156 72.6719 123.156C74.7109 123.156 76.1016 121.508 76.1016 118.945V118.938C76.1016 116.375 74.7266 114.719 72.6484 114.719C71.4844 114.719 70.5781 115.305 70.0703 116.25H70.0391V114.875H68.6797V125.734ZM72.3828 121.953C71.0156 121.953 70.0312 120.758 70.0312 118.945V118.938C70.0312 117.117 71.0078 115.922 72.3828 115.922C73.8203 115.922 74.7109 117.07 74.7109 118.938V118.945C74.7109 120.797 73.8203 121.953 72.3828 121.953ZM77.5469 123H78.9062V118.258C78.9062 116.875 79.7422 115.922 81 115.922C82.2656 115.922 83.0156 116.789 83.0156 118.258V123H84.375V118.023C84.375 116.055 83.1953 114.719 81.4688 114.719C80.2578 114.719 79.375 115.258 78.9375 116.172H78.9062V111.727H77.5469V123ZM90.6641 111.453H91.6172L90.3594 109.266H88.9688L90.6641 111.453ZM86.6328 113.945H87.8047L89.0391 112.312L90.2734 113.945H91.4453L89.6719 111.602H88.4062L86.6328 113.945ZM88.4766 123.156C89.5625 123.156 90.5391 122.57 91.0156 121.68H91.0469V123H92.4062V117.383C92.4062 115.758 91.2031 114.719 89.2812 114.719C87.3672 114.719 86.2031 115.797 86.0859 117.133L86.0781 117.219H87.3906L87.4062 117.148C87.5625 116.422 88.2188 115.922 89.2656 115.922C90.3984 115.922 91.0469 116.523 91.0469 117.516V118.195L88.7188 118.328C86.8516 118.438 85.7734 119.305 85.7734 120.688V120.703C85.7734 122.18 86.8594 123.156 88.4766 123.156ZM87.1641 120.703V120.688C87.1641 119.93 87.7891 119.445 88.875 119.383L91.0469 119.25V119.914C91.0469 121.094 90.0625 121.977 88.7812 121.977C87.8047 121.977 87.1641 121.484 87.1641 120.703ZM94.1328 123H95.4922V118.219C95.4922 116.836 96.3281 115.922 97.6094 115.922C98.8594 115.922 99.4766 116.648 99.4766 117.969V123H100.836V117.727C100.836 115.875 99.8047 114.719 98.0234 114.719C96.7891 114.719 95.9609 115.273 95.5234 116.031H95.4922V114.875H94.1328V123ZM106.062 123H109.852C113.203 123 115.172 120.914 115.172 117.359V117.344C115.172 113.805 113.188 111.727 109.852 111.727H106.062V123ZM107.469 121.734V112.992H109.758C112.312 112.992 113.734 114.547 113.734 117.359V117.375C113.734 120.172 112.312 121.734 109.758 121.734H107.469ZM117.477 113.5C117.953 113.5 118.328 113.117 118.328 112.648C118.328 112.172 117.953 111.797 117.477 111.797C117.008 111.797 116.625 112.172 116.625 112.648C116.625 113.117 117.008 113.5 117.477 113.5ZM116.797 123H118.156V114.875H116.797V123ZM117.477 126.078C117.953 126.078 118.328 125.695 118.328 125.227C118.328 124.75 117.953 124.375 117.477 124.375C117.008 124.375 116.625 124.75 116.625 125.227C116.625 125.695 117.008 126.078 117.477 126.078ZM123.375 123.156C125.211 123.156 126.547 121.961 126.766 120.414L126.773 120.359H125.438L125.422 120.422C125.195 121.328 124.484 121.953 123.375 121.953C121.969 121.953 121 120.836 121 118.945V118.938C121 117.094 121.945 115.922 123.359 115.922C124.555 115.922 125.211 116.641 125.414 117.453L125.43 117.516H126.758L126.75 117.453C126.578 116.062 125.383 114.719 123.359 114.719C121.102 114.719 119.609 116.359 119.609 118.922V118.93C119.609 121.516 121.07 123.156 123.375 123.156ZM128.094 123H129.453V118.258C129.453 116.875 130.289 115.922 131.547 115.922C132.812 115.922 133.562 116.789 133.562 118.258V123H134.922V118.023C134.922 116.055 133.742 114.719 132.016 114.719C130.805 114.719 129.922 115.258 129.484 116.172H129.453V111.727H128.094V123ZM142.219 123H143.609L146.594 114.875H145.18L142.93 121.555H142.898L140.656 114.875H139.227L142.219 123ZM150.438 123.156C151.672 123.156 152.5 122.602 152.938 121.844H152.969V123H154.328V114.875H152.969V119.656C152.969 121.039 152.133 121.953 150.852 121.953C149.602 121.953 148.984 121.227 148.984 119.906V114.875H147.625V120.148C147.625 122 148.656 123.156 150.438 123.156ZM150.977 126.078C151.453 126.078 151.828 125.695 151.828 125.227C151.828 124.75 151.453 124.375 150.977 124.375C150.508 124.375 150.125 124.75 150.125 125.227C150.125 125.695 150.508 126.078 150.977 126.078ZM162.445 123H163.852V112.992H167.406V111.727H158.891V112.992H162.445V123ZM170.547 113.945H171.594L170.258 111.602H168.836L170.547 113.945ZM170.117 123.156C171.203 123.156 172.18 122.57 172.656 121.68H172.688V123H174.047V117.383C174.047 115.758 172.844 114.719 170.922 114.719C169.008 114.719 167.844 115.797 167.727 117.133L167.719 117.219H169.031L169.047 117.148C169.203 116.422 169.859 115.922 170.906 115.922C172.039 115.922 172.688 116.523 172.688 117.516V118.195L170.359 118.328C168.492 118.438 167.414 119.305 167.414 120.688V120.703C167.414 122.18 168.5 123.156 170.117 123.156ZM168.805 120.703V120.688C168.805 119.93 169.43 119.445 170.516 119.383L172.688 119.25V119.914C172.688 121.094 171.703 121.977 170.422 121.977C169.445 121.977 168.805 121.484 168.805 120.703ZM176.539 113.5C177.016 113.5 177.391 113.117 177.391 112.648C177.391 112.172 177.016 111.797 176.539 111.797C176.07 111.797 175.688 112.172 175.688 112.648C175.688 113.117 176.07 113.5 176.539 113.5ZM175.859 123H177.219V114.875H175.859V123ZM52.25 142.156C54.0859 142.156 55.4219 140.961 55.6406 139.414L55.6484 139.359H54.3125L54.2969 139.422C54.0703 140.328 53.3594 140.953 52.25 140.953C50.8438 140.953 49.875 139.836 49.875 137.945V137.938C49.875 136.094 50.8203 134.922 52.2344 134.922C53.4297 134.922 54.0859 135.641 54.2891 136.453L54.3047 136.516H55.6328L55.625 136.453C55.4531 135.062 54.2578 133.719 52.2344 133.719C49.9766 133.719 48.4844 135.359 48.4844 137.922V137.93C48.4844 140.516 49.9453 142.156 52.25 142.156ZM56.9688 142H58.3281V137.258C58.3281 135.875 59.1641 134.922 60.4219 134.922C61.6875 134.922 62.4375 135.789 62.4375 137.258V142H63.7969V137.023C63.7969 135.055 62.6172 133.719 60.8906 133.719C59.6797 133.719 58.7969 134.258 58.3594 135.172H58.3281V130.727H56.9688V142ZM66.6641 132.945L68.375 130.602H66.9531L65.6172 132.945H66.6641ZM65.6094 142H66.9688V133.875H65.6094V142ZM68.8203 142H70.1797V137.219C70.1797 135.836 71.0156 134.922 72.2969 134.922C73.5469 134.922 74.1641 135.648 74.1641 136.969V142H75.5234V136.727C75.5234 134.875 74.4922 133.719 72.7109 133.719C71.4766 133.719 70.6484 134.273 70.2109 135.031H70.1797V133.875H68.8203V142ZM77.3281 142H78.6875V137.258C78.6875 135.875 79.5234 134.922 80.7812 134.922C82.0469 134.922 82.7969 135.789 82.7969 137.258V142H84.1562V137.023C84.1562 135.055 82.9766 133.719 81.25 133.719C80.0391 133.719 79.1562 134.258 78.7188 135.172H78.6875V130.727H77.3281V142ZM89.375 142H93.6328C96.0312 142 97.4531 140.82 97.4531 138.836V138.82C97.4531 137.328 96.4688 136.234 94.8438 136.047V136.016C96.0078 135.852 96.8828 134.719 96.8828 133.555V133.539C96.8828 131.852 95.5781 130.727 93.6484 130.727H89.375V142ZM93.3281 131.969C94.6875 131.969 95.4609 132.578 95.4609 133.688V133.703C95.4609 134.922 94.5547 135.586 92.8906 135.586H90.7812V131.969H93.3281ZM93.2891 136.797C95.0859 136.797 96.0078 137.461 96.0078 138.766V138.781C96.0078 140.078 95.1094 140.758 93.4219 140.758H90.7812V136.797H93.2891ZM103.352 130.453H104.305L106 128.266H104.609L103.352 130.453ZM99.6094 132.945H100.781L102.016 131.312L103.25 132.945H104.422L102.648 130.602H101.383L99.6094 132.945ZM101.211 142.156C102.297 142.156 103.273 141.57 103.75 140.68H103.781V142H105.141V136.383C105.141 134.758 103.938 133.719 102.016 133.719C100.102 133.719 98.9375 134.797 98.8203 136.133L98.8125 136.219H100.125L100.141 136.148C100.297 135.422 100.953 134.922 102 134.922C103.133 134.922 103.781 135.523 103.781 136.516V137.195L101.453 137.328C99.5859 137.438 98.5078 138.305 98.5078 139.688V139.703C98.5078 141.18 99.5938 142.156 101.211 142.156ZM99.8984 139.703V139.688C99.8984 138.93 100.523 138.445 101.609 138.383L103.781 138.25V138.914C103.781 140.094 102.797 140.977 101.516 140.977C100.539 140.977 99.8984 140.484 99.8984 139.703ZM109.508 142.156C109.773 142.156 110.062 142.125 110.234 142.102V141C110.117 141.008 109.961 141.031 109.797 141.031C109.07 141.031 108.688 140.789 108.688 139.922V135H110.234V133.875H108.688V131.68H107.281V133.875H106.094V135H107.281V139.93C107.281 141.484 108.016 142.156 109.508 142.156ZM118.031 142.156C119.195 142.156 120.102 141.57 120.609 140.625H120.641V142H122V132.797H122.953V131.828H122V130.727H120.641V131.828H119.078V132.797H120.641V135.234H120.609C120.102 134.297 119.156 133.719 118.008 133.719C115.969 133.719 114.578 135.367 114.578 137.93V137.938C114.578 140.5 115.953 142.156 118.031 142.156ZM118.297 140.953C116.859 140.953 115.969 139.805 115.969 137.938V137.93C115.969 136.078 116.859 134.922 118.297 134.922C119.664 134.922 120.648 136.117 120.648 137.93V137.938C120.648 139.758 119.672 140.953 118.297 140.953ZM125.141 132.945H126.312L127.516 131.32L128.719 132.945H129.891L128.164 130.602H126.867L125.141 132.945ZM127.516 142.156C129.758 142.156 131.273 140.531 131.273 137.938V137.922C131.273 135.328 129.75 133.719 127.508 133.719C125.266 133.719 123.75 135.336 123.75 137.922V137.938C123.75 140.523 125.258 142.156 127.516 142.156ZM127.523 140.953C126.086 140.953 125.141 139.852 125.141 137.938V137.922C125.141 136.023 126.094 134.922 127.508 134.922C128.945 134.922 129.883 136.016 129.883 137.922V137.938C129.883 139.844 128.953 140.953 127.523 140.953ZM127.516 145.078C127.992 145.078 128.367 144.695 128.367 144.227C128.367 143.75 127.992 143.375 127.516 143.375C127.047 143.375 126.664 143.75 126.664 144.227C126.664 144.695 127.047 145.078 127.516 145.078ZM132.648 142H134.008V137.219C134.008 135.836 134.844 134.922 136.125 134.922C137.375 134.922 137.992 135.648 137.992 136.969V142H139.352V136.727C139.352 134.875 138.32 133.719 136.539 133.719C135.305 133.719 134.477 134.273 134.039 135.031H134.008V133.875H132.648V142ZM144.523 144.891C146.727 144.891 148.109 143.656 148.109 141.773V133.875H146.75V135.25H146.719C146.219 134.344 145.312 133.719 144.164 133.719C142.102 133.719 140.688 135.359 140.688 137.883V137.891C140.688 140.43 142.086 142.078 144.133 142.078C145.297 142.078 146.234 141.5 146.719 140.602H146.75V141.641C146.75 142.898 145.938 143.688 144.508 143.688C143.398 143.688 142.625 143.328 142.367 142.742L142.336 142.672H140.969L140.984 142.742C141.25 143.945 142.516 144.891 144.523 144.891ZM144.43 140.875C142.984 140.875 142.078 139.734 142.078 137.891V137.883C142.078 136.078 142.984 134.922 144.43 134.922C145.805 134.922 146.75 136.094 146.75 137.883V137.891C146.75 139.695 145.812 140.875 144.43 140.875ZM156.031 142.156C157.844 142.156 159.188 141.156 159.188 139.734V139.727C159.188 138.57 158.594 137.922 156.953 137.523L155.664 137.211C154.766 136.992 154.398 136.609 154.398 136.055V136.047C154.398 135.328 155.008 134.852 155.992 134.852C157 134.852 157.602 135.375 157.711 136.164L157.719 136.219H159.016L159.008 136.117C158.906 134.758 157.773 133.719 155.992 133.719C154.234 133.719 153.008 134.711 153.008 136.109V136.117C153.008 137.289 153.75 138 155.281 138.367L156.57 138.68C157.492 138.906 157.797 139.234 157.797 139.82V139.828C157.797 140.562 157.141 141.023 156.039 141.023C154.93 141.023 154.328 140.547 154.164 139.734L154.148 139.656H152.789L152.797 139.727C152.961 141.18 154.117 142.156 156.031 142.156ZM163.141 132.945H164.141C164.703 132.578 164.953 132.18 164.953 131.719C164.953 130.969 164.172 130.492 163.328 130.492C162.961 130.492 162.641 130.555 162.453 130.633V131.438C162.555 131.414 162.695 131.391 162.945 131.391C163.477 131.391 163.914 131.594 163.914 131.945C163.914 132.227 163.641 132.555 163.141 132.922V132.945ZM162.977 142.156C164.062 142.156 165.039 141.57 165.516 140.68H165.547V142H166.906V136.383C166.906 134.758 165.703 133.719 163.781 133.719C161.867 133.719 160.703 134.797 160.586 136.133L160.578 136.219H161.891L161.906 136.148C162.062 135.422 162.719 134.922 163.766 134.922C164.898 134.922 165.547 135.523 165.547 136.516V137.195L163.219 137.328C161.352 137.438 160.273 138.305 160.273 139.688V139.703C160.273 141.18 161.359 142.156 162.977 142.156ZM161.664 139.703V139.688C161.664 138.93 162.289 138.445 163.375 138.383L165.547 138.25V138.914C165.547 140.094 164.562 140.977 163.281 140.977C162.305 140.977 161.664 140.484 161.664 139.703ZM168.633 142H169.992V137.219C169.992 135.836 170.828 134.922 172.109 134.922C173.359 134.922 173.977 135.648 173.977 136.969V142H175.336V136.727C175.336 134.875 174.305 133.719 172.523 133.719C171.289 133.719 170.461 134.273 170.023 135.031H169.992V133.875H168.633V142ZM51.9453 161H53.3516V150.992H56.9062V149.727H48.3906V150.992H51.9453V161ZM59.1875 161.156C60.4219 161.156 61.25 160.602 61.6875 159.844H61.7188V161H63.0781V152.875H61.7188V157.656C61.7188 159.039 60.8828 159.953 59.6016 159.953C58.3516 159.953 57.7344 159.227 57.7344 157.906V152.875H56.375V158.148C56.375 160 57.4062 161.156 59.1875 161.156ZM64.9219 161H66.2812V149.727H64.9219V161ZM68.8828 151.5C69.3594 151.5 69.7344 151.117 69.7344 150.648C69.7344 150.172 69.3594 149.797 68.8828 149.797C68.4141 149.797 68.0312 150.172 68.0312 150.648C68.0312 151.117 68.4141 151.5 68.8828 151.5ZM68.2031 161H69.5625V152.875H68.2031V161ZM71.4141 163.734H72.7734V159.641H72.8047C73.3125 160.578 74.2578 161.156 75.4062 161.156C77.4453 161.156 78.8359 159.508 78.8359 156.945V156.938C78.8359 154.375 77.4609 152.719 75.3828 152.719C74.2188 152.719 73.3125 153.305 72.8047 154.25H72.7734V152.875H71.4141V163.734ZM75.1172 159.953C73.75 159.953 72.7656 158.758 72.7656 156.945V156.938C72.7656 155.117 73.7422 153.922 75.1172 153.922C76.5547 153.922 77.4453 155.07 77.4453 156.938V156.945C77.4453 158.797 76.5547 159.953 75.1172 159.953ZM86.3125 163.734H87.4531C86.3281 162.43 85.4766 159.336 85.4766 156.727C85.4766 154.117 86.3281 151.031 87.4531 149.727H86.3125C84.7891 151.664 84.0938 153.945 84.0938 156.727C84.0938 159.508 84.7891 161.805 86.3125 163.734ZM88.8594 161H90.2656V156.117H95.2578V154.867H90.2656V150.992H95.7031V149.727H88.8594V161ZM97.3125 161H98.7188V149.727H97.3125V161ZM100.906 161H102.297V152.102H102.336L108.539 161H109.906V149.727H108.516V158.625H108.477L102.273 149.727H100.906V161ZM111.195 161H112.672L113.812 157.773H118.352L119.492 161H120.969L116.781 149.727H115.391L111.195 161ZM116.07 151.414H116.102L117.93 156.578H114.242L116.07 151.414ZM122.625 163.734C124.148 161.805 124.844 159.508 124.844 156.727C124.844 153.945 124.148 151.664 122.625 149.727H121.484C122.609 151.031 123.461 154.117 123.461 156.727C123.461 159.336 122.609 162.43 121.484 163.734H122.625Z" fill="white"/>
</svg>
