<svg width="280" height="247" viewBox="0 0 280 247" fill="none" xmlns="http://www.w3.org/2000/svg">
<path fill-rule="evenodd" clip-rule="evenodd" d="M0 0L232.137 0V0.282986L280.001 121.731L232.137 246.709V247H232.026H0L0 0Z" fill="#FF6C0E"/>
<path d="M49.3945 58H63.7363V54.7188H54.7949V54.5547L58.9238 50.7812C62.3281 47.6504 63.4629 46.0918 63.4629 43.6992V43.6719C63.4629 40.3086 60.5918 37.9297 56.4219 37.9297C52.252 37.9297 49.1621 40.541 49.1621 44.2598V44.3691H52.9902L53.0039 44.2461C53.0586 42.4688 54.4258 41.1426 56.4492 41.1426C58.1992 41.1426 59.4297 42.291 59.4434 43.9043V43.9316C59.4434 45.2988 58.9102 46.2695 56.3672 48.6484L49.3945 55.1699V58ZM74.0039 58.3418C79.0078 58.3418 82.043 54.418 82.043 48.1426V48.1152C82.043 41.8398 79.0078 37.9297 74.0039 37.9297C69 37.9297 65.9648 41.8398 65.9648 48.1152V48.1426C65.9648 54.418 69 58.3418 74.0039 58.3418ZM74.0039 55.0332C71.543 55.0332 70.1348 52.4766 70.1348 48.1426V48.1152C70.1348 43.7812 71.543 41.2383 74.0039 41.2383C76.4648 41.2383 77.873 43.7812 77.873 48.1152V48.1426C77.873 52.4766 76.4648 55.0332 74.0039 55.0332ZM84.4492 58H98.791V54.7188H89.8496V54.5547L93.9785 50.7812C97.3828 47.6504 98.5176 46.0918 98.5176 43.6992V43.6719C98.5176 40.3086 95.6465 37.9297 91.4766 37.9297C87.3066 37.9297 84.2168 40.541 84.2168 44.2598V44.3691H88.0449L88.0586 44.2461C88.1133 42.4688 89.4805 41.1426 91.5039 41.1426C93.2539 41.1426 94.4844 42.291 94.498 43.9043V43.9316C94.498 45.2988 93.9648 46.2695 91.4219 48.6484L84.4492 55.1699V58ZM109.059 58.3418C114.062 58.3418 117.098 54.418 117.098 48.1426V48.1152C117.098 41.8398 114.062 37.9297 109.059 37.9297C104.055 37.9297 101.02 41.8398 101.02 48.1152V48.1426C101.02 54.418 104.055 58.3418 109.059 58.3418ZM109.059 55.0332C106.598 55.0332 105.189 52.4766 105.189 48.1426V48.1152C105.189 43.7812 106.598 41.2383 109.059 41.2383C111.52 41.2383 112.928 43.7812 112.928 48.1152V48.1426C112.928 52.4766 111.52 55.0332 109.059 55.0332Z" fill="white"/>
<path d="M54.2031 100H56.125V97.8359H57.6562V96.1797H56.125V88.7266H53.2578L48.5781 96.1172V97.8359H54.2031V100ZM50.3906 96.2266V96.1719L54.1875 90.25H54.2344V96.2266H50.3906ZM63.1797 100.195C65.9375 100.195 67.6094 97.9531 67.6094 94.3672V94.3516C67.6094 90.7656 65.9375 88.5312 63.1797 88.5312C60.4141 88.5312 58.75 90.7656 58.75 94.3516V94.3672C58.75 97.9531 60.4141 100.195 63.1797 100.195ZM63.1797 98.5469C61.6562 98.5469 60.7812 96.9688 60.7812 94.3672V94.3516C60.7812 91.75 61.6562 90.1875 63.1797 90.1875C64.6953 90.1875 65.5781 91.75 65.5781 94.3516V94.3672C65.5781 96.9688 64.6953 98.5469 63.1797 98.5469ZM73.2344 100.195C75.7266 100.195 77.4688 98.6016 77.4688 96.2812V96.2656C77.4688 94.125 75.9219 92.5703 73.7734 92.5703C72.6406 92.5703 71.7109 93.0156 71.2188 93.7734H71.1797L71.4922 90.375H76.8047V88.7266H69.8828L69.3438 95.2812H71.1016C71.2344 95.0312 71.4219 94.8125 71.6328 94.6406C72.0625 94.2812 72.6172 94.0859 73.2578 94.0859C74.5781 94.0859 75.5234 95.0078 75.5234 96.2969V96.3125C75.5234 97.6328 74.5938 98.5547 73.25 98.5547C72.0625 98.5547 71.2031 97.8281 71.0391 96.8828L71.0312 96.8281H69.1406L69.1484 96.9297C69.2969 98.7969 70.8906 100.195 73.2344 100.195ZM82.2344 100H83.5938V95.2578C83.5938 93.875 84.4297 92.9219 85.6875 92.9219C86.9531 92.9219 87.7031 93.7891 87.7031 95.2578V100H89.0625V95.0234C89.0625 93.0547 87.8828 91.7188 86.1562 91.7188C84.9453 91.7188 84.0625 92.2578 83.625 93.1719H83.5938V88.7266H82.2344V100ZM95.5391 88.4531H96.4922L95.2344 86.2656H93.8438L95.5391 88.4531ZM91.5078 90.9453H92.6797L93.9141 89.3125L95.1484 90.9453H96.3203L94.5469 88.6016H93.2812L91.5078 90.9453ZM94.1562 100.156C96.3984 100.156 97.9141 98.5312 97.9141 95.9375V95.9219C97.9141 93.3281 96.3906 91.7188 94.1484 91.7188C91.9062 91.7188 90.3906 93.3359 90.3906 95.9219V95.9375C90.3906 98.5234 91.8984 100.156 94.1562 100.156ZM94.1641 98.9531C92.7266 98.9531 91.7812 97.8516 91.7812 95.9375V95.9219C91.7812 94.0234 92.7344 92.9219 94.1484 92.9219C95.5859 92.9219 96.5234 94.0156 96.5234 95.9219V95.9375C96.5234 97.8438 95.5938 98.9531 94.1641 98.9531ZM105.453 100.156C107.266 100.156 108.609 99.1562 108.609 97.7344V97.7266C108.609 96.5703 108.016 95.9219 106.375 95.5234L105.086 95.2109C104.188 94.9922 103.82 94.6094 103.82 94.0547V94.0469C103.82 93.3281 104.43 92.8516 105.414 92.8516C106.422 92.8516 107.023 93.375 107.133 94.1641L107.141 94.2188H108.438L108.43 94.1172C108.328 92.7578 107.195 91.7188 105.414 91.7188C103.656 91.7188 102.43 92.7109 102.43 94.1094V94.1172C102.43 95.2891 103.172 96 104.703 96.3672L105.992 96.6797C106.914 96.9062 107.219 97.2344 107.219 97.8203V97.8281C107.219 98.5625 106.562 99.0234 105.461 99.0234C104.352 99.0234 103.75 98.5469 103.586 97.7344L103.57 97.6562H102.211L102.219 97.7266C102.383 99.1797 103.539 100.156 105.453 100.156ZM113.391 100.156C115.633 100.156 117.148 98.5312 117.148 95.9375V95.9219C117.148 94.1797 116.461 92.8828 115.336 92.2188C116.734 91.8594 117.133 91.125 117.164 89.6641H115.961C115.914 91.1016 115.398 91.5938 113.391 91.7188H113.383C111.141 91.7188 109.625 93.3359 109.625 95.9219V95.9375C109.625 98.5234 111.133 100.156 113.391 100.156ZM113.398 98.9531C111.961 98.9531 111.016 97.8516 111.016 95.9375V95.9219C111.016 94.0234 111.969 92.9219 113.383 92.9219C114.82 92.9219 115.758 94.0156 115.758 95.9219V95.9375C115.758 97.8438 114.828 98.9531 113.398 98.9531ZM53.8203 119.188C56.8281 119.188 58.6016 117.383 58.6016 114.336V113.266H54.0156V114.5H57.1953V114.703C57.1953 116.594 55.8203 117.891 53.8203 117.891C51.5234 117.891 50.0938 116.141 50.0938 113.305V113.297C50.0938 110.516 51.5 108.836 53.8203 108.836C55.4062 108.836 56.5 109.656 57.0234 111.086L57.0547 111.172H58.5312L58.4922 111.023C57.9688 109.031 56.4141 107.539 53.8203 107.539C50.6719 107.539 48.6562 109.773 48.6562 113.297V113.305C48.6562 116.898 50.6719 119.188 53.8203 119.188ZM60.9609 109.5C61.4375 109.5 61.8125 109.117 61.8125 108.648C61.8125 108.172 61.4375 107.797 60.9609 107.797C60.4922 107.797 60.1094 108.172 60.1094 108.648C60.1094 109.117 60.4922 109.5 60.9609 109.5ZM60.2812 119H61.6406V110.875H60.2812V119ZM66.0312 109.945H67.0312C67.5938 109.578 67.8438 109.18 67.8438 108.719C67.8438 107.969 67.0625 107.492 66.2188 107.492C65.8516 107.492 65.5312 107.555 65.3438 107.633V108.438C65.4453 108.414 65.5859 108.391 65.8359 108.391C66.3672 108.391 66.8047 108.594 66.8047 108.945C66.8047 109.227 66.5312 109.555 66.0312 109.922V109.945ZM65.8672 119.156C66.9531 119.156 67.9297 118.57 68.4062 117.68H68.4375V119H69.7969V113.383C69.7969 111.758 68.5938 110.719 66.6719 110.719C64.7578 110.719 63.5938 111.797 63.4766 113.133L63.4688 113.219H64.7812L64.7969 113.148C64.9531 112.422 65.6094 111.922 66.6562 111.922C67.7891 111.922 68.4375 112.523 68.4375 113.516V114.195L66.1094 114.328C64.2422 114.438 63.1641 115.305 63.1641 116.688V116.703C63.1641 118.18 64.25 119.156 65.8672 119.156ZM64.5547 116.703V116.688C64.5547 115.93 65.1797 115.445 66.2656 115.383L68.4375 115.25V115.914C68.4375 117.094 67.4531 117.977 66.1719 117.977C65.1953 117.977 64.5547 117.484 64.5547 116.703ZM72.2891 109.5C72.7656 109.5 73.1406 109.117 73.1406 108.648C73.1406 108.172 72.7656 107.797 72.2891 107.797C71.8203 107.797 71.4375 108.172 71.4375 108.648C71.4375 109.117 71.8203 109.5 72.2891 109.5ZM71.6094 119H72.9688V110.875H71.6094V119ZM78.1016 119H79.4609V114.219C79.4609 112.836 80.2969 111.922 81.5781 111.922C82.8281 111.922 83.4453 112.648 83.4453 113.969V119H84.8047V113.727C84.8047 111.875 83.7734 110.719 81.9922 110.719C80.7578 110.719 79.9297 111.273 79.4922 112.031H79.4609V110.875H78.1016V119ZM89.9766 121.891C92.1797 121.891 93.5625 120.656 93.5625 118.773V110.875H92.2031V112.25H92.1719C91.6719 111.344 90.7656 110.719 89.6172 110.719C87.5547 110.719 86.1406 112.359 86.1406 114.883V114.891C86.1406 117.43 87.5391 119.078 89.5859 119.078C90.75 119.078 91.6875 118.5 92.1719 117.602H92.2031V118.641C92.2031 119.898 91.3906 120.688 89.9609 120.688C88.8516 120.688 88.0781 120.328 87.8203 119.742L87.7891 119.672H86.4219L86.4375 119.742C86.7031 120.945 87.9688 121.891 89.9766 121.891ZM89.8828 117.875C88.4375 117.875 87.5312 116.734 87.5312 114.891V114.883C87.5312 113.078 88.4375 111.922 89.8828 111.922C91.2578 111.922 92.2031 113.094 92.2031 114.883V114.891C92.2031 116.695 91.2656 117.875 89.8828 117.875ZM96.125 109.945H97.2969L98.5 108.32L99.7031 109.945H100.875L99.1484 107.602H97.8516L96.125 109.945ZM97.6953 119.156C98.7812 119.156 99.7578 118.57 100.234 117.68H100.266V119H101.625V113.383C101.625 111.758 100.422 110.719 98.5 110.719C96.5859 110.719 95.4219 111.797 95.3047 113.133L95.2969 113.219H96.6094L96.625 113.148C96.7812 112.422 97.4375 111.922 98.4844 111.922C99.6172 111.922 100.266 112.523 100.266 113.516V114.195L97.9375 114.328C96.0703 114.438 94.9922 115.305 94.9922 116.688V116.703C94.9922 118.18 96.0781 119.156 97.6953 119.156ZM96.3828 116.703V116.688C96.3828 115.93 97.0078 115.445 98.0938 115.383L100.266 115.25V115.914C100.266 117.094 99.2812 117.977 98 117.977C97.0234 117.977 96.3828 117.484 96.3828 116.703ZM103.352 119H104.711V114.219C104.711 112.836 105.547 111.922 106.828 111.922C108.078 111.922 108.695 112.648 108.695 113.969V119H110.055V113.727C110.055 111.875 109.023 110.719 107.242 110.719C106.008 110.719 105.18 111.273 104.742 112.031H104.711V110.875H103.352V119ZM119.188 119.195C121.68 119.195 123.422 117.602 123.422 115.281V115.266C123.422 113.125 121.875 111.57 119.727 111.57C118.594 111.57 117.664 112.016 117.172 112.773H117.133L117.445 109.375H122.758V107.727H115.836L115.297 114.281H117.055C117.188 114.031 117.375 113.812 117.586 113.641C118.016 113.281 118.57 113.086 119.211 113.086C120.531 113.086 121.477 114.008 121.477 115.297V115.312C121.477 116.633 120.547 117.555 119.203 117.555C118.016 117.555 117.156 116.828 116.992 115.883L116.984 115.828H115.094L115.102 115.93C115.25 117.797 116.844 119.195 119.188 119.195ZM130.156 119H132.078V116.836H133.609V115.18H132.078V107.727H129.211L124.531 115.117V116.836H130.156V119ZM126.344 115.227V115.172L130.141 109.25H130.188V115.227H126.344ZM139.133 119.195C141.891 119.195 143.562 116.953 143.562 113.367V113.352C143.562 109.766 141.891 107.531 139.133 107.531C136.367 107.531 134.703 109.766 134.703 113.352V113.367C134.703 116.953 136.367 119.195 139.133 119.195ZM139.133 117.547C137.609 117.547 136.734 115.969 136.734 113.367V113.352C136.734 110.75 137.609 109.188 139.133 109.188C140.648 109.188 141.531 110.75 141.531 113.352V113.367C141.531 115.969 140.648 117.547 139.133 117.547ZM151.312 119.164C151.703 119.164 152.047 119.125 152.273 119.094V117.633C152.141 117.641 151.992 117.664 151.805 117.664C151.094 117.664 150.734 117.406 150.734 116.594V112.219H152.273V110.719H150.734V108.617H148.758V110.719H147.586V112.219H148.758V116.758C148.758 118.461 149.578 119.164 151.312 119.164ZM156.312 109.781H157.469C158.016 109.414 158.312 108.984 158.312 108.461C158.312 107.602 157.477 107.047 156.453 107.047C156.055 107.047 155.695 107.117 155.461 107.203V108.219C155.609 108.195 155.789 108.164 156.031 108.164C156.625 108.164 157.047 108.383 157.047 108.766C157.047 109.086 156.75 109.414 156.312 109.758V109.781ZM154.719 121.75C156.445 121.75 157.414 121.102 158.047 119.281L161.023 110.719H158.977L157.031 117.344H156.977L155.039 110.719H152.914L155.891 119.008L155.773 119.344C155.523 120.039 155.109 120.25 154.367 120.25C154.094 120.25 153.867 120.211 153.719 120.18V121.664C153.953 121.703 154.344 121.75 154.719 121.75ZM51.9453 138H53.3516V127.992H56.9062V126.727H48.3906V127.992H51.9453V138ZM61.3672 126.453H62.3672C62.875 126.125 63.0859 125.734 63.0859 125.305C63.0859 124.57 62.3516 124.109 61.5547 124.109C61.2031 124.109 60.8906 124.172 60.7109 124.25V125.055C60.8125 125.031 60.9531 125.008 61.2031 125.008C61.6719 125.008 62.0469 125.195 62.0469 125.516C62.0469 125.781 61.8203 126.102 61.3672 126.43V126.453ZM57.7344 128.945H58.9062L60.1406 127.312L61.375 128.945H62.5469L60.7734 126.602H59.5078L57.7344 128.945ZM60.1406 138.156C62.3828 138.156 63.8984 136.531 63.8984 133.938V133.922C63.8984 131.328 62.375 129.719 60.1328 129.719C57.8906 129.719 56.375 131.336 56.375 133.922V133.938C56.375 136.523 57.8828 138.156 60.1406 138.156ZM60.1484 136.953C58.7109 136.953 57.7656 135.852 57.7656 133.938V133.922C57.7656 132.023 58.7188 130.922 60.1328 130.922C61.5703 130.922 62.5078 132.016 62.5078 133.922V133.938C62.5078 135.844 61.5781 136.953 60.1484 136.953ZM65.2734 138H66.6328V133.219C66.6328 131.836 67.4688 130.922 68.75 130.922C70 130.922 70.6172 131.648 70.6172 132.969V138H71.9766V132.727C71.9766 130.875 70.9453 129.719 69.1641 129.719C67.9297 129.719 67.1016 130.273 66.6641 131.031H66.6328V129.875H65.2734V138ZM77.1484 140.891C79.3516 140.891 80.7344 139.656 80.7344 137.773V129.875H79.375V131.25H79.3438C78.8438 130.344 77.9375 129.719 76.7891 129.719C74.7266 129.719 73.3125 131.359 73.3125 133.883V133.891C73.3125 136.43 74.7109 138.078 76.7578 138.078C77.9219 138.078 78.8594 137.5 79.3438 136.602H79.375V137.641C79.375 138.898 78.5625 139.688 77.1328 139.688C76.0234 139.688 75.25 139.328 74.9922 138.742L74.9609 138.672H73.5938L73.6094 138.742C73.875 139.945 75.1406 140.891 77.1484 140.891ZM77.0547 136.875C75.6094 136.875 74.7031 135.734 74.7031 133.891V133.883C74.7031 132.078 75.6094 130.922 77.0547 130.922C78.4297 130.922 79.375 132.094 79.375 133.883V133.891C79.375 135.695 78.4375 136.875 77.0547 136.875ZM89.2109 140.891C91.4141 140.891 92.7969 139.656 92.7969 137.773V129.875H91.4375V131.25H91.4062C90.9062 130.344 90 129.719 88.8516 129.719C86.7891 129.719 85.375 131.359 85.375 133.883V133.891C85.375 136.43 86.7734 138.078 88.8203 138.078C89.9844 138.078 90.9219 137.5 91.4062 136.602H91.4375V137.641C91.4375 138.898 90.625 139.688 89.1953 139.688C88.0859 139.688 87.3125 139.328 87.0547 138.742L87.0234 138.672H85.6562L85.6719 138.742C85.9375 139.945 87.2031 140.891 89.2109 140.891ZM89.1172 136.875C87.6719 136.875 86.7656 135.734 86.7656 133.891V133.883C86.7656 132.078 87.6719 130.922 89.1172 130.922C90.4922 130.922 91.4375 132.094 91.4375 133.883V133.891C91.4375 135.695 90.5 136.875 89.1172 136.875ZM95.3203 128.5C95.7969 128.5 96.1719 128.117 96.1719 127.648C96.1719 127.172 95.7969 126.797 95.3203 126.797C94.8516 126.797 94.4688 127.172 94.4688 127.648C94.4688 128.117 94.8516 128.5 95.3203 128.5ZM94.6406 138H96V129.875H94.6406V138ZM101.406 128.945L103.117 126.602H101.695L100.359 128.945H101.406ZM100.227 138.156C101.312 138.156 102.289 137.57 102.766 136.68H102.797V138H104.156V132.383C104.156 130.758 102.953 129.719 101.031 129.719C99.1172 129.719 97.9531 130.797 97.8359 132.133L97.8281 132.219H99.1406L99.1562 132.148C99.3125 131.422 99.9688 130.922 101.016 130.922C102.148 130.922 102.797 131.523 102.797 132.516V133.195L100.469 133.328C98.6016 133.438 97.5234 134.305 97.5234 135.688V135.703C97.5234 137.18 98.6094 138.156 100.227 138.156ZM98.9141 135.703V135.688C98.9141 134.93 99.5391 134.445 100.625 134.383L102.797 134.25V134.914C102.797 136.094 101.812 136.977 100.531 136.977C99.5547 136.977 98.9141 136.484 98.9141 135.703ZM111.805 138.156C112.07 138.156 112.359 138.125 112.531 138.102V137C112.414 137.008 112.258 137.031 112.094 137.031C111.367 137.031 110.984 136.789 110.984 135.922V131H112.531V129.875H110.984V127.68H109.578V129.875H108.391V131H109.578V135.93C109.578 137.484 110.312 138.156 111.805 138.156ZM113.992 138H115.352V132.984C115.352 131.75 116.039 131.016 117.094 131.016C117.422 131.016 117.711 131.055 117.82 131.094V129.773C117.711 129.758 117.508 129.719 117.273 129.719C116.359 129.719 115.656 130.312 115.383 131.25H115.352V129.875H113.992V138ZM119.695 128.5C120.172 128.5 120.547 128.117 120.547 127.648C120.547 127.172 120.172 126.797 119.695 126.797C119.227 126.797 118.844 127.172 118.844 127.648C118.844 128.117 119.227 128.5 119.695 128.5ZM119.016 138H120.375V129.875H119.016V138ZM119.695 141.078C120.172 141.078 120.547 140.695 120.547 140.227C120.547 139.75 120.172 139.375 119.695 139.375C119.227 139.375 118.844 139.75 118.844 140.227C118.844 140.695 119.227 141.078 119.695 141.078ZM128.945 140.891C131.148 140.891 132.531 139.656 132.531 137.773V129.875H131.172V131.25H131.141C130.641 130.344 129.734 129.719 128.586 129.719C126.523 129.719 125.109 131.359 125.109 133.883V133.891C125.109 136.43 126.508 138.078 128.555 138.078C129.719 138.078 130.656 137.5 131.141 136.602H131.172V137.641C131.172 138.898 130.359 139.688 128.93 139.688C127.82 139.688 127.047 139.328 126.789 138.742L126.758 138.672H125.391L125.406 138.742C125.672 139.945 126.938 140.891 128.945 140.891ZM128.852 136.875C127.406 136.875 126.5 135.734 126.5 133.891V133.883C126.5 132.078 127.406 130.922 128.852 130.922C130.227 130.922 131.172 132.094 131.172 133.883V133.891C131.172 135.695 130.234 136.875 128.852 136.875ZM135.055 128.5C135.531 128.5 135.906 128.117 135.906 127.648C135.906 127.172 135.531 126.797 135.055 126.797C134.586 126.797 134.203 127.172 134.203 127.648C134.203 128.117 134.586 128.5 135.055 128.5ZM134.375 138H135.734V129.875H134.375V138ZM139.961 138.156C141.047 138.156 142.023 137.57 142.5 136.68H142.531V138H143.891V132.383C143.891 130.758 142.688 129.719 140.766 129.719C138.852 129.719 137.688 130.797 137.57 132.133L137.562 132.219H138.875L138.891 132.148C139.047 131.422 139.703 130.922 140.75 130.922C141.883 130.922 142.531 131.523 142.531 132.516V133.195L140.203 133.328C138.336 133.438 137.258 134.305 137.258 135.688V135.703C137.258 137.18 138.344 138.156 139.961 138.156ZM138.648 135.703V135.688C138.648 134.93 139.273 134.445 140.359 134.383L142.531 134.25V134.914C142.531 136.094 141.547 136.977 140.266 136.977C139.289 136.977 138.648 136.484 138.648 135.703ZM148.984 138.156C151.227 138.156 152.742 136.531 152.742 133.938V133.922C152.742 131.328 151.219 129.719 148.977 129.719C146.734 129.719 145.219 131.336 145.219 133.922V133.938C145.219 136.523 146.727 138.156 148.984 138.156ZM148.992 136.953C147.555 136.953 146.609 135.852 146.609 133.938V133.922C146.609 132.023 147.562 130.922 148.977 130.922C150.414 130.922 151.352 132.016 151.352 133.922V133.938C151.352 135.844 150.422 136.953 148.992 136.953ZM160.453 138.156C161.617 138.156 162.523 137.57 163.031 136.625H163.062V138H164.422V126.727H163.062V131.234H163.031C162.523 130.297 161.578 129.719 160.43 129.719C158.391 129.719 157 131.367 157 133.93V133.938C157 136.5 158.375 138.156 160.453 138.156ZM160.719 136.953C159.281 136.953 158.391 135.805 158.391 133.938V133.93C158.391 132.078 159.281 130.922 160.719 130.922C162.086 130.922 163.07 132.117 163.07 133.93V133.938C163.07 135.758 162.094 136.953 160.719 136.953ZM167.023 128.5C167.5 128.5 167.875 128.117 167.875 127.648C167.875 127.172 167.5 126.797 167.023 126.797C166.555 126.797 166.172 127.172 166.172 127.648C166.172 128.117 166.555 128.5 167.023 128.5ZM166.344 138H167.703V129.875H166.344V138ZM167.023 141.078C167.5 141.078 167.875 140.695 167.875 140.227C167.875 139.75 167.5 139.375 167.023 139.375C166.555 139.375 166.172 139.75 166.172 140.227C166.172 140.695 166.555 141.078 167.023 141.078ZM172.922 138.156C174.758 138.156 176.094 136.961 176.312 135.414L176.32 135.359H174.984L174.969 135.422C174.742 136.328 174.031 136.953 172.922 136.953C171.516 136.953 170.547 135.836 170.547 133.945V133.938C170.547 132.094 171.492 130.922 172.906 130.922C174.102 130.922 174.758 131.641 174.961 132.453L174.977 132.516H176.305L176.297 132.453C176.125 131.062 174.93 129.719 172.906 129.719C170.648 129.719 169.156 131.359 169.156 133.922V133.93C169.156 136.516 170.617 138.156 172.922 138.156ZM177.641 138H179V133.258C179 131.875 179.836 130.922 181.094 130.922C182.359 130.922 183.109 131.789 183.109 133.258V138H184.469V133.023C184.469 131.055 183.289 129.719 181.562 129.719C180.352 129.719 179.469 130.258 179.031 131.172H179V126.727H177.641V138ZM193.594 138.195C196.086 138.195 197.828 136.602 197.828 134.281V134.266C197.828 132.125 196.281 130.57 194.133 130.57C193 130.57 192.07 131.016 191.578 131.773H191.539L191.852 128.375H197.164V126.727H190.242L189.703 133.281H191.461C191.594 133.031 191.781 132.812 191.992 132.641C192.422 132.281 192.977 132.086 193.617 132.086C194.938 132.086 195.883 133.008 195.883 134.297V134.312C195.883 135.633 194.953 136.555 193.609 136.555C192.422 136.555 191.562 135.828 191.398 134.883L191.391 134.828H189.5L189.508 134.93C189.656 136.797 191.25 138.195 193.594 138.195ZM204.562 138H206.484V135.836H208.016V134.18H206.484V126.727H203.617L198.938 134.117V135.836H204.562V138ZM200.75 134.227V134.172L204.547 128.25H204.594V134.227H200.75ZM209.305 138H217.227V136.352H211.969V136.266L214.453 133.906C216.438 132 217.055 131.102 217.055 129.773V129.758C217.055 127.898 215.477 126.531 213.219 126.531C210.93 126.531 209.195 128.008 209.195 130.07V130.125H211.086V130.07C211.109 128.984 211.984 128.148 213.234 128.148C214.32 128.148 215.078 128.867 215.086 129.875V129.891C215.086 130.727 214.766 131.297 213.289 132.742L209.305 136.625V138ZM224.984 138.164C225.375 138.164 225.719 138.125 225.945 138.094V136.633C225.812 136.641 225.664 136.664 225.477 136.664C224.766 136.664 224.406 136.406 224.406 135.594V131.219H225.945V129.719H224.406V127.617H222.43V129.719H221.258V131.219H222.43V135.758C222.43 137.461 223.25 138.164 224.984 138.164ZM229.984 128.781H231.141C231.688 128.414 231.984 127.984 231.984 127.461C231.984 126.602 231.148 126.047 230.125 126.047C229.727 126.047 229.367 126.117 229.133 126.203V127.219C229.281 127.195 229.461 127.164 229.703 127.164C230.297 127.164 230.719 127.383 230.719 127.766C230.719 128.086 230.422 128.414 229.984 128.758V128.781ZM228.391 140.75C230.117 140.75 231.086 140.102 231.719 138.281L234.695 129.719H232.648L230.703 136.344H230.648L228.711 129.719H226.586L229.562 138.008L229.445 138.344C229.195 139.039 228.781 139.25 228.039 139.25C227.766 139.25 227.539 139.211 227.391 139.18V140.664C227.625 140.703 228.016 140.75 228.391 140.75ZM49.0938 176H50.4844V167.102H50.5234L56.7266 176H58.0938V164.727H56.7031V173.625H56.6641L50.4609 164.727H49.0938V176ZM63.5391 176H64.9297L69.0859 164.727H67.6094L64.25 174.312H64.2188L60.8594 164.727H59.3828L63.5391 176ZM73.4453 176H74.8047V171.219C74.8047 169.836 75.6406 168.922 76.9219 168.922C78.1719 168.922 78.7891 169.648 78.7891 170.969V176H80.1484V170.727C80.1484 168.875 79.1172 167.719 77.3359 167.719C76.1016 167.719 75.2734 168.273 74.8359 169.031H74.8047V167.875H73.4453V176ZM85.3203 178.891C87.5234 178.891 88.9062 177.656 88.9062 175.773V167.875H87.5469V169.25H87.5156C87.0156 168.344 86.1094 167.719 84.9609 167.719C82.8984 167.719 81.4844 169.359 81.4844 171.883V171.891C81.4844 174.43 82.8828 176.078 84.9297 176.078C86.0938 176.078 87.0312 175.5 87.5156 174.602H87.5469V175.641C87.5469 176.898 86.7344 177.688 85.3047 177.688C84.1953 177.688 83.4219 177.328 83.1641 176.742L83.1328 176.672H81.7656L81.7812 176.742C82.0469 177.945 83.3125 178.891 85.3203 178.891ZM85.2266 174.875C83.7812 174.875 82.875 173.734 82.875 171.891V171.883C82.875 170.078 83.7812 168.922 85.2266 168.922C86.6016 168.922 87.5469 170.094 87.5469 171.883V171.891C87.5469 173.695 86.6094 174.875 85.2266 174.875ZM91.4688 166.945H92.6406L93.8438 165.32L95.0469 166.945H96.2188L94.4922 164.602H93.1953L91.4688 166.945ZM93.0391 176.156C94.125 176.156 95.1016 175.57 95.5781 174.68H95.6094V176H96.9688V170.383C96.9688 168.758 95.7656 167.719 93.8438 167.719C91.9297 167.719 90.7656 168.797 90.6484 170.133L90.6406 170.219H91.9531L91.9688 170.148C92.125 169.422 92.7812 168.922 93.8281 168.922C94.9609 168.922 95.6094 169.523 95.6094 170.516V171.195L93.2812 171.328C91.4141 171.438 90.3359 172.305 90.3359 173.688V173.703C90.3359 175.18 91.4219 176.156 93.0391 176.156ZM91.7266 173.703V173.688C91.7266 172.93 92.3516 172.445 93.4375 172.383L95.6094 172.25V172.914C95.6094 174.094 94.625 174.977 93.3438 174.977C92.3672 174.977 91.7266 174.484 91.7266 173.703ZM98.6953 176H100.055V171.219C100.055 169.836 100.891 168.922 102.172 168.922C103.422 168.922 104.039 169.648 104.039 170.969V176H105.398V170.727C105.398 168.875 104.367 167.719 102.586 167.719C101.352 167.719 100.523 168.273 100.086 169.031H100.055V167.875H98.6953V176ZM110.484 176H111.844V171.258C111.844 169.875 112.68 168.922 113.938 168.922C115.203 168.922 115.953 169.789 115.953 171.258V176H117.312V171.023C117.312 169.055 116.133 167.719 114.406 167.719C113.195 167.719 112.312 168.258 111.875 169.172H111.844V164.727H110.484V176ZM121.844 166.945H122.891L121.555 164.602H120.133L121.844 166.945ZM121.414 176.156C122.5 176.156 123.477 175.57 123.953 174.68H123.984V176H125.344V170.383C125.344 168.758 124.141 167.719 122.219 167.719C120.305 167.719 119.141 168.797 119.023 170.133L119.016 170.219H120.328L120.344 170.148C120.5 169.422 121.156 168.922 122.203 168.922C123.336 168.922 123.984 169.523 123.984 170.516V171.195L121.656 171.328C119.789 171.438 118.711 172.305 118.711 173.688V173.703C118.711 175.18 119.797 176.156 121.414 176.156ZM120.102 173.703V173.688C120.102 172.93 120.727 172.445 121.812 172.383L123.984 172.25V172.914C123.984 174.094 123 174.977 121.719 174.977C120.742 174.977 120.102 174.484 120.102 173.703ZM127.07 176H128.43V171.219C128.43 169.836 129.266 168.922 130.547 168.922C131.797 168.922 132.414 169.648 132.414 170.969V176H133.773V170.727C133.773 168.875 132.742 167.719 130.961 167.719C129.727 167.719 128.898 168.273 128.461 169.031H128.43V167.875H127.07V176ZM138.945 178.891C141.148 178.891 142.531 177.656 142.531 175.773V167.875H141.172V169.25H141.141C140.641 168.344 139.734 167.719 138.586 167.719C136.523 167.719 135.109 169.359 135.109 171.883V171.891C135.109 174.43 136.508 176.078 138.555 176.078C139.719 176.078 140.656 175.5 141.141 174.602H141.172V175.641C141.172 176.898 140.359 177.688 138.93 177.688C137.82 177.688 137.047 177.328 136.789 176.742L136.758 176.672H135.391L135.406 176.742C135.672 177.945 136.938 178.891 138.945 178.891ZM138.852 174.875C137.406 174.875 136.5 173.734 136.5 171.891V171.883C136.5 170.078 137.406 168.922 138.852 168.922C140.227 168.922 141.172 170.094 141.172 171.883V171.891C141.172 173.695 140.234 174.875 138.852 174.875ZM145.125 170.062C145.625 170.062 146.016 169.672 146.016 169.172C146.016 168.672 145.625 168.281 145.125 168.281C144.625 168.281 144.234 168.672 144.234 169.172C144.234 169.672 144.625 170.062 145.125 170.062ZM145.125 176.109C145.625 176.109 146.016 175.719 146.016 175.219C146.016 174.719 145.625 174.328 145.125 174.328C144.625 174.328 144.234 174.719 144.234 175.219C144.234 175.719 144.625 176.109 145.125 176.109ZM156.328 176H158.25V173.836H159.781V172.18H158.25V164.727H155.383L150.703 172.117V173.836H156.328V176ZM152.516 172.227V172.172L156.312 166.25H156.359V172.227H152.516ZM165.305 176.195C168.062 176.195 169.734 173.953 169.734 170.367V170.352C169.734 166.766 168.062 164.531 165.305 164.531C162.539 164.531 160.875 166.766 160.875 170.352V170.367C160.875 173.953 162.539 176.195 165.305 176.195ZM165.305 174.547C163.781 174.547 162.906 172.969 162.906 170.367V170.352C162.906 167.75 163.781 166.188 165.305 166.188C166.82 166.188 167.703 167.75 167.703 170.352V170.367C167.703 172.969 166.82 174.547 165.305 174.547ZM171.133 176H179.055V174.352H173.797V174.266L176.281 171.906C178.266 170 178.883 169.102 178.883 167.773V167.758C178.883 165.898 177.305 164.531 175.047 164.531C172.758 164.531 171.023 166.008 171.023 168.07V168.125H172.914V168.07C172.938 166.984 173.812 166.148 175.062 166.148C176.148 166.148 176.906 166.867 176.914 167.875V167.891C176.914 168.727 176.594 169.297 175.117 170.742L171.133 174.625V176ZM49.0938 195H50.5V191.055L51.7031 189.734L55.7109 195H57.5078L52.6875 188.719L57.0938 183.727H55.3281L50.5469 189.258H50.5V183.727H49.0938V195ZM58.5625 195H59.9219V190.258C59.9219 188.875 60.7578 187.922 62.0156 187.922C63.2812 187.922 64.0312 188.789 64.0312 190.258V195H65.3906V190.023C65.3906 188.055 64.2109 186.719 62.4844 186.719C61.2734 186.719 60.3906 187.258 59.9531 188.172H59.9219V183.727H58.5625V195ZM70.6719 185.945L72.3828 183.602H70.9609L69.625 185.945H70.6719ZM69.4922 195.156C70.5781 195.156 71.5547 194.57 72.0312 193.68H72.0625V195H73.4219V189.383C73.4219 187.758 72.2188 186.719 70.2969 186.719C68.3828 186.719 67.2188 187.797 67.1016 189.133L67.0938 189.219H68.4062L68.4219 189.148C68.5781 188.422 69.2344 187.922 70.2812 187.922C71.4141 187.922 72.0625 188.523 72.0625 189.516V190.195L69.7344 190.328C67.8672 190.438 66.7891 191.305 66.7891 192.688V192.703C66.7891 194.18 67.875 195.156 69.4922 195.156ZM68.1797 192.703V192.688C68.1797 191.93 68.8047 191.445 69.8906 191.383L72.0625 191.25V191.914C72.0625 193.094 71.0781 193.977 69.7969 193.977C68.8203 193.977 68.1797 193.484 68.1797 192.703ZM78.5156 195.156C80.3516 195.156 81.6875 193.961 81.9062 192.414L81.9141 192.359H80.5781L80.5625 192.422C80.3359 193.328 79.625 193.953 78.5156 193.953C77.1094 193.953 76.1406 192.836 76.1406 190.945V190.938C76.1406 189.094 77.0859 187.922 78.5 187.922C79.6953 187.922 80.3516 188.641 80.5547 189.453L80.5703 189.516H81.8984L81.8906 189.453C81.7188 188.062 80.5234 186.719 78.5 186.719C76.2422 186.719 74.75 188.359 74.75 190.922V190.93C74.75 193.516 76.2109 195.156 78.5156 195.156ZM83.2344 195H84.5938V190.258C84.5938 188.875 85.4297 187.922 86.6875 187.922C87.9531 187.922 88.7031 188.789 88.7031 190.258V195H90.0625V190.023C90.0625 188.055 88.8828 186.719 87.1562 186.719C85.9453 186.719 85.0625 187.258 84.625 188.172H84.5938V183.727H83.2344V195ZM95.1406 195H96.5V190.258C96.5 188.875 97.3359 187.922 98.5938 187.922C99.8594 187.922 100.609 188.789 100.609 190.258V195H101.969V190.023C101.969 188.055 100.789 186.719 99.0625 186.719C97.8516 186.719 96.9688 187.258 96.5312 188.172H96.5V183.727H95.1406V195ZM106.5 185.945H107.547L106.211 183.602H104.789L106.5 185.945ZM106.07 195.156C107.156 195.156 108.133 194.57 108.609 193.68H108.641V195H110V189.383C110 187.758 108.797 186.719 106.875 186.719C104.961 186.719 103.797 187.797 103.68 189.133L103.672 189.219H104.984L105 189.148C105.156 188.422 105.812 187.922 106.859 187.922C107.992 187.922 108.641 188.523 108.641 189.516V190.195L106.312 190.328C104.445 190.438 103.367 191.305 103.367 192.688V192.703C103.367 194.18 104.453 195.156 106.07 195.156ZM104.758 192.703V192.688C104.758 191.93 105.383 191.445 106.469 191.383L108.641 191.25V191.914C108.641 193.094 107.656 193.977 106.375 193.977C105.398 193.977 104.758 193.484 104.758 192.703ZM111.727 195H113.086V190.219C113.086 188.836 113.922 187.922 115.203 187.922C116.453 187.922 117.07 188.648 117.07 189.969V195H118.43V189.727C118.43 187.875 117.398 186.719 115.617 186.719C114.383 186.719 113.555 187.273 113.117 188.031H113.086V186.875H111.727V195ZM123.602 197.891C125.805 197.891 127.188 196.656 127.188 194.773V186.875H125.828V188.25H125.797C125.297 187.344 124.391 186.719 123.242 186.719C121.18 186.719 119.766 188.359 119.766 190.883V190.891C119.766 193.43 121.164 195.078 123.211 195.078C124.375 195.078 125.312 194.5 125.797 193.602H125.828V194.641C125.828 195.898 125.016 196.688 123.586 196.688C122.477 196.688 121.703 196.328 121.445 195.742L121.414 195.672H120.047L120.062 195.742C120.328 196.945 121.594 197.891 123.602 197.891ZM123.508 193.875C122.062 193.875 121.156 192.734 121.156 190.891V190.883C121.156 189.078 122.062 187.922 123.508 187.922C124.883 187.922 125.828 189.094 125.828 190.883V190.891C125.828 192.695 124.891 193.875 123.508 193.875ZM129.781 189.062C130.281 189.062 130.672 188.672 130.672 188.172C130.672 187.672 130.281 187.281 129.781 187.281C129.281 187.281 128.891 187.672 128.891 188.172C128.891 188.672 129.281 189.062 129.781 189.062ZM129.781 195.109C130.281 195.109 130.672 194.719 130.672 194.219C130.672 193.719 130.281 193.328 129.781 193.328C129.281 193.328 128.891 193.719 128.891 194.219C128.891 194.719 129.281 195.109 129.781 195.109ZM138.461 195H140.438V183.727H138.445L135.5 185.797V187.648L138.414 185.648H138.461V195ZM147.25 195.195C149.742 195.195 151.484 193.602 151.484 191.281V191.266C151.484 189.125 149.938 187.57 147.789 187.57C146.656 187.57 145.727 188.016 145.234 188.773H145.195L145.508 185.375H150.82V183.727H143.898L143.359 190.281H145.117C145.25 190.031 145.438 189.812 145.648 189.641C146.078 189.281 146.633 189.086 147.273 189.086C148.594 189.086 149.539 190.008 149.539 191.297V191.312C149.539 192.633 148.609 193.555 147.266 193.555C146.078 193.555 145.219 192.828 145.055 191.883L145.047 191.828H143.156L143.164 191.93C143.312 193.797 144.906 195.195 147.25 195.195ZM155.695 195H157.672V183.727H155.68L152.734 185.797V187.648L155.648 185.648H155.695V195ZM163.164 195H165.141V183.727H163.148L160.203 185.797V187.648L163.117 185.648H163.164V195ZM49.0938 214H50.4062V205.289H50.4531L54.0547 214H55.2422L58.8438 205.289H58.8906V214H60.2031V202.727H58.5781L54.6719 212.227H54.625L50.7188 202.727H49.0938V214ZM63.1719 204.945H64.3438L65.5469 203.32L66.75 204.945H67.9219L66.1953 202.602H64.8984L63.1719 204.945ZM65.5469 214.156C67.7891 214.156 69.3047 212.531 69.3047 209.938V209.922C69.3047 207.328 67.7812 205.719 65.5391 205.719C63.2969 205.719 61.7812 207.336 61.7812 209.922V209.938C61.7812 212.523 63.2891 214.156 65.5469 214.156ZM65.5547 212.953C64.1172 212.953 63.1719 211.852 63.1719 209.938V209.922C63.1719 208.023 64.125 206.922 65.5391 206.922C66.9766 206.922 67.9141 208.016 67.9141 209.922V209.938C67.9141 211.844 66.9844 212.953 65.5547 212.953ZM71.4453 204.5C71.9219 204.5 72.2969 204.117 72.2969 203.648C72.2969 203.172 71.9219 202.797 71.4453 202.797C70.9766 202.797 70.5938 203.172 70.5938 203.648C70.5938 204.117 70.9766 204.5 71.4453 204.5ZM70.7656 214H72.125V205.875H70.7656V214ZM80.6953 216.891C82.8984 216.891 84.2812 215.656 84.2812 213.773V205.875H82.9219V207.25H82.8906C82.3906 206.344 81.4844 205.719 80.3359 205.719C78.2734 205.719 76.8594 207.359 76.8594 209.883V209.891C76.8594 212.43 78.2578 214.078 80.3047 214.078C81.4688 214.078 82.4062 213.5 82.8906 212.602H82.9219V213.641C82.9219 214.898 82.1094 215.688 80.6797 215.688C79.5703 215.688 78.7969 215.328 78.5391 214.742L78.5078 214.672H77.1406L77.1562 214.742C77.4219 215.945 78.6875 216.891 80.6953 216.891ZM80.6016 212.875C79.1562 212.875 78.25 211.734 78.25 209.891V209.883C78.25 208.078 79.1562 206.922 80.6016 206.922C81.9766 206.922 82.9219 208.094 82.9219 209.883V209.891C82.9219 211.695 81.9844 212.875 80.6016 212.875ZM86.8047 204.5C87.2812 204.5 87.6562 204.117 87.6562 203.648C87.6562 203.172 87.2812 202.797 86.8047 202.797C86.3359 202.797 85.9531 203.172 85.9531 203.648C85.9531 204.117 86.3359 204.5 86.8047 204.5ZM86.125 214H87.4844V205.875H86.125V214ZM92.3594 204.945L94.0703 202.602H92.6484L91.3125 204.945H92.3594ZM92.7031 214.156C94.9453 214.156 96.4609 212.531 96.4609 209.938V209.922C96.4609 208.18 95.7734 206.883 94.6484 206.219C96.0469 205.859 96.4453 205.125 96.4766 203.664H95.2734C95.2266 205.102 94.7109 205.594 92.7031 205.719H92.6953C90.4531 205.719 88.9375 207.336 88.9375 209.922V209.938C88.9375 212.523 90.4453 214.156 92.7031 214.156ZM92.7109 212.953C91.2734 212.953 90.3281 211.852 90.3281 209.938V209.922C90.3281 208.023 91.2812 206.922 92.6953 206.922C94.1328 206.922 95.0703 208.016 95.0703 209.922V209.938C95.0703 211.844 94.1406 212.953 92.7109 212.953ZM98.6016 204.5C99.0781 204.5 99.4531 204.117 99.4531 203.648C99.4531 203.172 99.0781 202.797 98.6016 202.797C98.1328 202.797 97.75 203.172 97.75 203.648C97.75 204.117 98.1328 204.5 98.6016 204.5ZM97.9219 214H99.2812V205.875H97.9219V214ZM101.969 208.062C102.469 208.062 102.859 207.672 102.859 207.172C102.859 206.672 102.469 206.281 101.969 206.281C101.469 206.281 101.078 206.672 101.078 207.172C101.078 207.672 101.469 208.062 101.969 208.062ZM101.969 214.109C102.469 214.109 102.859 213.719 102.859 213.219C102.859 212.719 102.469 212.328 101.969 212.328C101.469 212.328 101.078 212.719 101.078 213.219C101.078 213.719 101.469 214.109 101.969 214.109ZM110.648 214H112.625V202.727H110.633L107.688 204.797V206.648L110.602 204.648H110.648V214ZM119.438 214.195C121.93 214.195 123.672 212.602 123.672 210.281V210.266C123.672 208.125 122.125 206.57 119.977 206.57C118.844 206.57 117.914 207.016 117.422 207.773H117.383L117.695 204.375H123.008V202.727H116.086L115.547 209.281H117.305C117.438 209.031 117.625 208.812 117.836 208.641C118.266 208.281 118.82 208.086 119.461 208.086C120.781 208.086 121.727 209.008 121.727 210.297V210.312C121.727 211.633 120.797 212.555 119.453 212.555C118.266 212.555 117.406 211.828 117.242 210.883L117.234 210.828H115.344L115.352 210.93C115.5 212.797 117.094 214.195 119.438 214.195ZM127.883 214H129.859V202.727H127.867L124.922 204.797V206.648L127.836 204.648H127.883V214ZM133.117 214H135.227L140.047 204.406V202.727H132.203V204.375H138.062V204.414L133.117 214Z" fill="white"/>
</svg>
