<svg width="344" height="247" viewBox="0 0 344 247" fill="none" xmlns="http://www.w3.org/2000/svg">
<path fill-rule="evenodd" clip-rule="evenodd" d="M0 0L285.197 0V0.282987L344.001 121.731L285.197 246.709V247L285.06 247L0 247L0 0Z" fill="#669AFF"/>
<path d="M57.1875 58.3418C62.1914 58.3418 65.2266 54.418 65.2266 48.1426V48.1152C65.2266 41.8398 62.1914 37.9297 57.1875 37.9297C52.1836 37.9297 49.1484 41.8398 49.1484 48.1152V48.1426C49.1484 54.418 52.1836 58.3418 57.1875 58.3418ZM57.1875 55.0332C54.7266 55.0332 53.3184 52.4766 53.3184 48.1426V48.1152C53.3184 43.7812 54.7266 41.2383 57.1875 41.2383C59.6484 41.2383 61.0566 43.7812 61.0566 48.1152V48.1426C61.0566 52.4766 59.6484 55.0332 57.1875 55.0332ZM67.6328 58H81.9746V54.7188H73.0332V54.5547L77.1621 50.7812C80.5664 47.6504 81.7012 46.0918 81.7012 43.6992V43.6719C81.7012 40.3086 78.8301 37.9297 74.6602 37.9297C70.4902 37.9297 67.4004 40.541 67.4004 44.2598V44.3691H71.2285L71.2422 44.2461C71.2969 42.4688 72.6641 41.1426 74.6875 41.1426C76.4375 41.1426 77.668 42.291 77.6816 43.9043V43.9316C77.6816 45.2988 77.1484 46.2695 74.6055 48.6484L67.6328 55.1699V58ZM86.5137 58.2324C87.7441 58.2324 88.7285 57.248 88.7285 56.0176C88.7285 54.7734 87.7441 53.8027 86.5137 53.8027C85.2695 53.8027 84.2988 54.7734 84.2988 56.0176C84.2988 57.248 85.2695 58.2324 86.5137 58.2324ZM91.2852 58H105.627V54.7188H96.6855V54.5547L100.814 50.7812C104.219 47.6504 105.354 46.0918 105.354 43.6992V43.6719C105.354 40.3086 102.482 37.9297 98.3125 37.9297C94.1426 37.9297 91.0527 40.541 91.0527 44.2598V44.3691H94.8809L94.8945 44.2461C94.9492 42.4688 96.3164 41.1426 98.3398 41.1426C100.09 41.1426 101.32 42.291 101.334 43.9043V43.9316C101.334 45.2988 100.801 46.2695 98.2578 48.6484L91.2852 55.1699V58ZM115.895 58.3418C120.898 58.3418 123.934 54.418 123.934 48.1426V48.1152C123.934 41.8398 120.898 37.9297 115.895 37.9297C110.891 37.9297 107.855 41.8398 107.855 48.1152V48.1426C107.855 54.418 110.891 58.3418 115.895 58.3418ZM115.895 55.0332C113.434 55.0332 112.025 52.4766 112.025 48.1426V48.1152C112.025 43.7812 113.434 41.2383 115.895 41.2383C118.355 41.2383 119.764 43.7812 119.764 48.1152V48.1426C119.764 52.4766 118.355 55.0332 115.895 55.0332ZM126.34 58H140.682V54.7188H131.74V54.5547L135.869 50.7812C139.273 47.6504 140.408 46.0918 140.408 43.6992V43.6719C140.408 40.3086 137.537 37.9297 133.367 37.9297C129.197 37.9297 126.107 40.541 126.107 44.2598V44.3691H129.936L129.949 44.2461C130.004 42.4688 131.371 41.1426 133.395 41.1426C135.145 41.1426 136.375 42.291 136.389 43.9043V43.9316C136.389 45.2988 135.855 46.2695 133.312 48.6484L126.34 55.1699V58ZM143.238 58H157.58V54.7188H148.639V54.5547L152.768 50.7812C156.172 47.6504 157.307 46.0918 157.307 43.6992V43.6719C157.307 40.3086 154.436 37.9297 150.266 37.9297C146.096 37.9297 143.006 40.541 143.006 44.2598V44.3691H146.834L146.848 44.2461C146.902 42.4688 148.27 41.1426 150.293 41.1426C152.043 41.1426 153.273 42.291 153.287 43.9043V43.9316C153.287 45.2988 152.754 46.2695 150.211 48.6484L143.238 55.1699V58Z" fill="white"/>
<path d="M51.6797 100H53.6562V88.7266H51.6641L48.7188 90.7969V92.6484L51.6328 90.6484H51.6797V100ZM60.4531 88.5312C58.0234 88.5312 56.2344 90.1641 56.2344 92.4375V92.4531C56.2344 94.5703 57.7656 96.1328 59.9375 96.1328C61.4609 96.1328 62.5859 95.3516 63.0312 94.3203H63.0781C63.0781 94.4453 63.0703 94.5625 63.0625 94.6797C62.9844 96.8125 62.2266 98.5469 60.4141 98.5469C59.4062 98.5469 58.7188 98.0469 58.4141 97.2734L58.3906 97.2031H56.3906L56.4062 97.2891C56.7578 98.9922 58.3203 100.195 60.4062 100.195C63.2812 100.195 65.0078 97.9688 65.0078 94.2422V94.2266C65.0078 90.2734 62.9375 88.5312 60.4531 88.5312ZM60.4531 94.5781C59.1719 94.5781 58.2188 93.6641 58.2188 92.3828V92.3672C58.2188 91.1484 59.2266 90.1797 60.4766 90.1797C61.7422 90.1797 62.7266 91.1562 62.7266 92.4062V92.4141C62.7266 93.6719 61.7422 94.5781 60.4531 94.5781ZM66.3984 100H74.3203V98.3516H69.0625V98.2656L71.5469 95.9062C73.5312 94 74.1484 93.1016 74.1484 91.7734V91.7578C74.1484 89.8984 72.5703 88.5312 70.3125 88.5312C68.0234 88.5312 66.2891 90.0078 66.2891 92.0703V92.125H68.1797V92.0703C68.2031 90.9844 69.0781 90.1484 70.3281 90.1484C71.4141 90.1484 72.1719 90.8672 72.1797 91.875V91.8906C72.1797 92.7266 71.8594 93.2969 70.3828 94.7422L66.3984 98.625V100ZM80.9375 100H82.8594V97.8359H84.3906V96.1797H82.8594V88.7266H79.9922L75.3125 96.1172V97.8359H80.9375V100ZM77.125 96.2266V96.1719L80.9219 90.25H80.9688V96.2266H77.125ZM89.0781 100H90.4375V95.2578C90.4375 93.875 91.2734 92.9219 92.5312 92.9219C93.7969 92.9219 94.5469 93.7891 94.5469 95.2578V100H95.9062V95.0234C95.9062 93.0547 94.7266 91.7188 93 91.7188C91.7891 91.7188 90.9062 92.2578 90.4688 93.1719H90.4375V88.7266H89.0781V100ZM102.383 88.4531H103.336L102.078 86.2656H100.688L102.383 88.4531ZM98.3516 90.9453H99.5234L100.758 89.3125L101.992 90.9453H103.164L101.391 88.6016H100.125L98.3516 90.9453ZM101 100.156C103.242 100.156 104.758 98.5312 104.758 95.9375V95.9219C104.758 93.3281 103.234 91.7188 100.992 91.7188C98.75 91.7188 97.2344 93.3359 97.2344 95.9219V95.9375C97.2344 98.5234 98.7422 100.156 101 100.156ZM101.008 98.9531C99.5703 98.9531 98.625 97.8516 98.625 95.9375V95.9219C98.625 94.0234 99.5781 92.9219 100.992 92.9219C102.43 92.9219 103.367 94.0156 103.367 95.9219V95.9375C103.367 97.8438 102.438 98.9531 101.008 98.9531ZM112.297 100.156C114.109 100.156 115.453 99.1562 115.453 97.7344V97.7266C115.453 96.5703 114.859 95.9219 113.219 95.5234L111.93 95.2109C111.031 94.9922 110.664 94.6094 110.664 94.0547V94.0469C110.664 93.3281 111.273 92.8516 112.258 92.8516C113.266 92.8516 113.867 93.375 113.977 94.1641L113.984 94.2188H115.281L115.273 94.1172C115.172 92.7578 114.039 91.7188 112.258 91.7188C110.5 91.7188 109.273 92.7109 109.273 94.1094V94.1172C109.273 95.2891 110.016 96 111.547 96.3672L112.836 96.6797C113.758 96.9062 114.062 97.2344 114.062 97.8203V97.8281C114.062 98.5625 113.406 99.0234 112.305 99.0234C111.195 99.0234 110.594 98.5469 110.43 97.7344L110.414 97.6562H109.055L109.062 97.7266C109.227 99.1797 110.383 100.156 112.297 100.156ZM120.234 100.156C122.477 100.156 123.992 98.5312 123.992 95.9375V95.9219C123.992 94.1797 123.305 92.8828 122.18 92.2188C123.578 91.8594 123.977 91.125 124.008 89.6641H122.805C122.758 91.1016 122.242 91.5938 120.234 91.7188H120.227C117.984 91.7188 116.469 93.3359 116.469 95.9219V95.9375C116.469 98.5234 117.977 100.156 120.234 100.156ZM120.242 98.9531C118.805 98.9531 117.859 97.8516 117.859 95.9375V95.9219C117.859 94.0234 118.812 92.9219 120.227 92.9219C121.664 92.9219 122.602 94.0156 122.602 95.9219V95.9375C122.602 97.8438 121.672 98.9531 120.242 98.9531ZM53.8203 119.188C56.8281 119.188 58.6016 117.383 58.6016 114.336V113.266H54.0156V114.5H57.1953V114.703C57.1953 116.594 55.8203 117.891 53.8203 117.891C51.5234 117.891 50.0938 116.141 50.0938 113.305V113.297C50.0938 110.516 51.5 108.836 53.8203 108.836C55.4062 108.836 56.5 109.656 57.0234 111.086L57.0547 111.172H58.5312L58.4922 111.023C57.9688 109.031 56.4141 107.539 53.8203 107.539C50.6719 107.539 48.6562 109.773 48.6562 113.297V113.305C48.6562 116.898 50.6719 119.188 53.8203 119.188ZM60.9609 109.5C61.4375 109.5 61.8125 109.117 61.8125 108.648C61.8125 108.172 61.4375 107.797 60.9609 107.797C60.4922 107.797 60.1094 108.172 60.1094 108.648C60.1094 109.117 60.4922 109.5 60.9609 109.5ZM60.2812 119H61.6406V110.875H60.2812V119ZM66.0312 109.945H67.0312C67.5938 109.578 67.8438 109.18 67.8438 108.719C67.8438 107.969 67.0625 107.492 66.2188 107.492C65.8516 107.492 65.5312 107.555 65.3438 107.633V108.438C65.4453 108.414 65.5859 108.391 65.8359 108.391C66.3672 108.391 66.8047 108.594 66.8047 108.945C66.8047 109.227 66.5312 109.555 66.0312 109.922V109.945ZM65.8672 119.156C66.9531 119.156 67.9297 118.57 68.4062 117.68H68.4375V119H69.7969V113.383C69.7969 111.758 68.5938 110.719 66.6719 110.719C64.7578 110.719 63.5938 111.797 63.4766 113.133L63.4688 113.219H64.7812L64.7969 113.148C64.9531 112.422 65.6094 111.922 66.6562 111.922C67.7891 111.922 68.4375 112.523 68.4375 113.516V114.195L66.1094 114.328C64.2422 114.438 63.1641 115.305 63.1641 116.688V116.703C63.1641 118.18 64.25 119.156 65.8672 119.156ZM64.5547 116.703V116.688C64.5547 115.93 65.1797 115.445 66.2656 115.383L68.4375 115.25V115.914C68.4375 117.094 67.4531 117.977 66.1719 117.977C65.1953 117.977 64.5547 117.484 64.5547 116.703ZM72.2891 109.5C72.7656 109.5 73.1406 109.117 73.1406 108.648C73.1406 108.172 72.7656 107.797 72.2891 107.797C71.8203 107.797 71.4375 108.172 71.4375 108.648C71.4375 109.117 71.8203 109.5 72.2891 109.5ZM71.6094 119H72.9688V110.875H71.6094V119ZM78.1016 119H79.4609V114.219C79.4609 112.836 80.2969 111.922 81.5781 111.922C82.8281 111.922 83.4453 112.648 83.4453 113.969V119H84.8047V113.727C84.8047 111.875 83.7734 110.719 81.9922 110.719C80.7578 110.719 79.9297 111.273 79.4922 112.031H79.4609V110.875H78.1016V119ZM89.9766 121.891C92.1797 121.891 93.5625 120.656 93.5625 118.773V110.875H92.2031V112.25H92.1719C91.6719 111.344 90.7656 110.719 89.6172 110.719C87.5547 110.719 86.1406 112.359 86.1406 114.883V114.891C86.1406 117.43 87.5391 119.078 89.5859 119.078C90.75 119.078 91.6875 118.5 92.1719 117.602H92.2031V118.641C92.2031 119.898 91.3906 120.688 89.9609 120.688C88.8516 120.688 88.0781 120.328 87.8203 119.742L87.7891 119.672H86.4219L86.4375 119.742C86.7031 120.945 87.9688 121.891 89.9766 121.891ZM89.8828 117.875C88.4375 117.875 87.5312 116.734 87.5312 114.891V114.883C87.5312 113.078 88.4375 111.922 89.8828 111.922C91.2578 111.922 92.2031 113.094 92.2031 114.883V114.891C92.2031 116.695 91.2656 117.875 89.8828 117.875ZM96.125 109.945H97.2969L98.5 108.32L99.7031 109.945H100.875L99.1484 107.602H97.8516L96.125 109.945ZM97.6953 119.156C98.7812 119.156 99.7578 118.57 100.234 117.68H100.266V119H101.625V113.383C101.625 111.758 100.422 110.719 98.5 110.719C96.5859 110.719 95.4219 111.797 95.3047 113.133L95.2969 113.219H96.6094L96.625 113.148C96.7812 112.422 97.4375 111.922 98.4844 111.922C99.6172 111.922 100.266 112.523 100.266 113.516V114.195L97.9375 114.328C96.0703 114.438 94.9922 115.305 94.9922 116.688V116.703C94.9922 118.18 96.0781 119.156 97.6953 119.156ZM96.3828 116.703V116.688C96.3828 115.93 97.0078 115.445 98.0938 115.383L100.266 115.25V115.914C100.266 117.094 99.2812 117.977 98 117.977C97.0234 117.977 96.3828 117.484 96.3828 116.703ZM103.352 119H104.711V114.219C104.711 112.836 105.547 111.922 106.828 111.922C108.078 111.922 108.695 112.648 108.695 113.969V119H110.055V113.727C110.055 111.875 109.023 110.719 107.242 110.719C106.008 110.719 105.18 111.273 104.742 112.031H104.711V110.875H103.352V119ZM115.023 119H122.945V117.352H117.688V117.266L120.172 114.906C122.156 113 122.773 112.102 122.773 110.773V110.758C122.773 108.898 121.195 107.531 118.938 107.531C116.648 107.531 114.914 109.008 114.914 111.07V111.125H116.805V111.07C116.828 109.984 117.703 109.148 118.953 109.148C120.039 109.148 120.797 109.867 120.805 110.875V110.891C120.805 111.727 120.484 112.297 119.008 113.742L115.023 117.625V119ZM129.562 119H131.484V116.836H133.016V115.18H131.484V107.727H128.617L123.938 115.117V116.836H129.562V119ZM125.75 115.227V115.172L129.547 109.25H129.594V115.227H125.75ZM138.469 119.195C140.961 119.195 142.703 117.602 142.703 115.281V115.266C142.703 113.125 141.156 111.57 139.008 111.57C137.875 111.57 136.945 112.016 136.453 112.773H136.414L136.727 109.375H142.039V107.727H135.117L134.578 114.281H136.336C136.469 114.031 136.656 113.812 136.867 113.641C137.297 113.281 137.852 113.086 138.492 113.086C139.812 113.086 140.758 114.008 140.758 115.297V115.312C140.758 116.633 139.828 117.555 138.484 117.555C137.297 117.555 136.438 116.828 136.273 115.883L136.266 115.828H134.375L134.383 115.93C134.531 117.797 136.125 119.195 138.469 119.195ZM148.125 119.195C150.617 119.195 152.336 117.82 152.336 115.859V115.844C152.336 114.281 151.234 113.297 149.57 113.141V113.102C150.922 112.82 151.938 111.891 151.938 110.492V110.477C151.938 108.727 150.43 107.531 148.102 107.531C145.828 107.531 144.289 108.797 144.125 110.703L144.117 110.797H145.992L146 110.719C146.102 109.75 146.914 109.133 148.102 109.133C149.312 109.133 150 109.727 150 110.742V110.758C150 111.742 149.172 112.445 147.93 112.445H146.641V113.945H147.977C149.414 113.945 150.289 114.602 150.289 115.789V115.805C150.289 116.828 149.422 117.547 148.117 117.547C146.797 117.547 145.922 116.883 145.812 115.969L145.805 115.883H143.875L143.883 115.977C144.039 117.867 145.648 119.195 148.125 119.195ZM160.172 119.164C160.562 119.164 160.906 119.125 161.133 119.094V117.633C161 117.641 160.852 117.664 160.664 117.664C159.953 117.664 159.594 117.406 159.594 116.594V112.219H161.133V110.719H159.594V108.617H157.617V110.719H156.445V112.219H157.617V116.758C157.617 118.461 158.438 119.164 160.172 119.164ZM165.172 109.781H166.328C166.875 109.414 167.172 108.984 167.172 108.461C167.172 107.602 166.336 107.047 165.312 107.047C164.914 107.047 164.555 107.117 164.32 107.203V108.219C164.469 108.195 164.648 108.164 164.891 108.164C165.484 108.164 165.906 108.383 165.906 108.766C165.906 109.086 165.609 109.414 165.172 109.758V109.781ZM163.578 121.75C165.305 121.75 166.273 121.102 166.906 119.281L169.883 110.719H167.836L165.891 117.344H165.836L163.898 110.719H161.773L164.75 119.008L164.633 119.344C164.383 120.039 163.969 120.25 163.227 120.25C162.953 120.25 162.727 120.211 162.578 120.18V121.664C162.812 121.703 163.203 121.75 163.578 121.75ZM51.9453 138H53.3516V127.992H56.9062V126.727H48.3906V127.992H51.9453V138ZM61.3672 126.453H62.3672C62.875 126.125 63.0859 125.734 63.0859 125.305C63.0859 124.57 62.3516 124.109 61.5547 124.109C61.2031 124.109 60.8906 124.172 60.7109 124.25V125.055C60.8125 125.031 60.9531 125.008 61.2031 125.008C61.6719 125.008 62.0469 125.195 62.0469 125.516C62.0469 125.781 61.8203 126.102 61.3672 126.43V126.453ZM57.7344 128.945H58.9062L60.1406 127.312L61.375 128.945H62.5469L60.7734 126.602H59.5078L57.7344 128.945ZM60.1406 138.156C62.3828 138.156 63.8984 136.531 63.8984 133.938V133.922C63.8984 131.328 62.375 129.719 60.1328 129.719C57.8906 129.719 56.375 131.336 56.375 133.922V133.938C56.375 136.523 57.8828 138.156 60.1406 138.156ZM60.1484 136.953C58.7109 136.953 57.7656 135.852 57.7656 133.938V133.922C57.7656 132.023 58.7188 130.922 60.1328 130.922C61.5703 130.922 62.5078 132.016 62.5078 133.922V133.938C62.5078 135.844 61.5781 136.953 60.1484 136.953ZM65.2734 138H66.6328V133.219C66.6328 131.836 67.4688 130.922 68.75 130.922C70 130.922 70.6172 131.648 70.6172 132.969V138H71.9766V132.727C71.9766 130.875 70.9453 129.719 69.1641 129.719C67.9297 129.719 67.1016 130.273 66.6641 131.031H66.6328V129.875H65.2734V138ZM77.1484 140.891C79.3516 140.891 80.7344 139.656 80.7344 137.773V129.875H79.375V131.25H79.3438C78.8438 130.344 77.9375 129.719 76.7891 129.719C74.7266 129.719 73.3125 131.359 73.3125 133.883V133.891C73.3125 136.43 74.7109 138.078 76.7578 138.078C77.9219 138.078 78.8594 137.5 79.3438 136.602H79.375V137.641C79.375 138.898 78.5625 139.688 77.1328 139.688C76.0234 139.688 75.25 139.328 74.9922 138.742L74.9609 138.672H73.5938L73.6094 138.742C73.875 139.945 75.1406 140.891 77.1484 140.891ZM77.0547 136.875C75.6094 136.875 74.7031 135.734 74.7031 133.891V133.883C74.7031 132.078 75.6094 130.922 77.0547 130.922C78.4297 130.922 79.375 132.094 79.375 133.883V133.891C79.375 135.695 78.4375 136.875 77.0547 136.875ZM89.2109 140.891C91.4141 140.891 92.7969 139.656 92.7969 137.773V129.875H91.4375V131.25H91.4062C90.9062 130.344 90 129.719 88.8516 129.719C86.7891 129.719 85.375 131.359 85.375 133.883V133.891C85.375 136.43 86.7734 138.078 88.8203 138.078C89.9844 138.078 90.9219 137.5 91.4062 136.602H91.4375V137.641C91.4375 138.898 90.625 139.688 89.1953 139.688C88.0859 139.688 87.3125 139.328 87.0547 138.742L87.0234 138.672H85.6562L85.6719 138.742C85.9375 139.945 87.2031 140.891 89.2109 140.891ZM89.1172 136.875C87.6719 136.875 86.7656 135.734 86.7656 133.891V133.883C86.7656 132.078 87.6719 130.922 89.1172 130.922C90.4922 130.922 91.4375 132.094 91.4375 133.883V133.891C91.4375 135.695 90.5 136.875 89.1172 136.875ZM95.3203 128.5C95.7969 128.5 96.1719 128.117 96.1719 127.648C96.1719 127.172 95.7969 126.797 95.3203 126.797C94.8516 126.797 94.4688 127.172 94.4688 127.648C94.4688 128.117 94.8516 128.5 95.3203 128.5ZM94.6406 138H96V129.875H94.6406V138ZM101.406 128.945L103.117 126.602H101.695L100.359 128.945H101.406ZM100.227 138.156C101.312 138.156 102.289 137.57 102.766 136.68H102.797V138H104.156V132.383C104.156 130.758 102.953 129.719 101.031 129.719C99.1172 129.719 97.9531 130.797 97.8359 132.133L97.8281 132.219H99.1406L99.1562 132.148C99.3125 131.422 99.9688 130.922 101.016 130.922C102.148 130.922 102.797 131.523 102.797 132.516V133.195L100.469 133.328C98.6016 133.438 97.5234 134.305 97.5234 135.688V135.703C97.5234 137.18 98.6094 138.156 100.227 138.156ZM98.9141 135.703V135.688C98.9141 134.93 99.5391 134.445 100.625 134.383L102.797 134.25V134.914C102.797 136.094 101.812 136.977 100.531 136.977C99.5547 136.977 98.9141 136.484 98.9141 135.703ZM111.805 138.156C112.07 138.156 112.359 138.125 112.531 138.102V137C112.414 137.008 112.258 137.031 112.094 137.031C111.367 137.031 110.984 136.789 110.984 135.922V131H112.531V129.875H110.984V127.68H109.578V129.875H108.391V131H109.578V135.93C109.578 137.484 110.312 138.156 111.805 138.156ZM113.992 138H115.352V132.984C115.352 131.75 116.039 131.016 117.094 131.016C117.422 131.016 117.711 131.055 117.82 131.094V129.773C117.711 129.758 117.508 129.719 117.273 129.719C116.359 129.719 115.656 130.312 115.383 131.25H115.352V129.875H113.992V138ZM119.695 128.5C120.172 128.5 120.547 128.117 120.547 127.648C120.547 127.172 120.172 126.797 119.695 126.797C119.227 126.797 118.844 127.172 118.844 127.648C118.844 128.117 119.227 128.5 119.695 128.5ZM119.016 138H120.375V129.875H119.016V138ZM119.695 141.078C120.172 141.078 120.547 140.695 120.547 140.227C120.547 139.75 120.172 139.375 119.695 139.375C119.227 139.375 118.844 139.75 118.844 140.227C118.844 140.695 119.227 141.078 119.695 141.078ZM128.945 140.891C131.148 140.891 132.531 139.656 132.531 137.773V129.875H131.172V131.25H131.141C130.641 130.344 129.734 129.719 128.586 129.719C126.523 129.719 125.109 131.359 125.109 133.883V133.891C125.109 136.43 126.508 138.078 128.555 138.078C129.719 138.078 130.656 137.5 131.141 136.602H131.172V137.641C131.172 138.898 130.359 139.688 128.93 139.688C127.82 139.688 127.047 139.328 126.789 138.742L126.758 138.672H125.391L125.406 138.742C125.672 139.945 126.938 140.891 128.945 140.891ZM128.852 136.875C127.406 136.875 126.5 135.734 126.5 133.891V133.883C126.5 132.078 127.406 130.922 128.852 130.922C130.227 130.922 131.172 132.094 131.172 133.883V133.891C131.172 135.695 130.234 136.875 128.852 136.875ZM135.055 128.5C135.531 128.5 135.906 128.117 135.906 127.648C135.906 127.172 135.531 126.797 135.055 126.797C134.586 126.797 134.203 127.172 134.203 127.648C134.203 128.117 134.586 128.5 135.055 128.5ZM134.375 138H135.734V129.875H134.375V138ZM139.961 138.156C141.047 138.156 142.023 137.57 142.5 136.68H142.531V138H143.891V132.383C143.891 130.758 142.688 129.719 140.766 129.719C138.852 129.719 137.688 130.797 137.57 132.133L137.562 132.219H138.875L138.891 132.148C139.047 131.422 139.703 130.922 140.75 130.922C141.883 130.922 142.531 131.523 142.531 132.516V133.195L140.203 133.328C138.336 133.438 137.258 134.305 137.258 135.688V135.703C137.258 137.18 138.344 138.156 139.961 138.156ZM138.648 135.703V135.688C138.648 134.93 139.273 134.445 140.359 134.383L142.531 134.25V134.914C142.531 136.094 141.547 136.977 140.266 136.977C139.289 136.977 138.648 136.484 138.648 135.703ZM148.984 138.156C151.227 138.156 152.742 136.531 152.742 133.938V133.922C152.742 131.328 151.219 129.719 148.977 129.719C146.734 129.719 145.219 131.336 145.219 133.922V133.938C145.219 136.523 146.727 138.156 148.984 138.156ZM148.992 136.953C147.555 136.953 146.609 135.852 146.609 133.938V133.922C146.609 132.023 147.562 130.922 148.977 130.922C150.414 130.922 151.352 132.016 151.352 133.922V133.938C151.352 135.844 150.422 136.953 148.992 136.953ZM160.453 138.156C161.617 138.156 162.523 137.57 163.031 136.625H163.062V138H164.422V126.727H163.062V131.234H163.031C162.523 130.297 161.578 129.719 160.43 129.719C158.391 129.719 157 131.367 157 133.93V133.938C157 136.5 158.375 138.156 160.453 138.156ZM160.719 136.953C159.281 136.953 158.391 135.805 158.391 133.938V133.93C158.391 132.078 159.281 130.922 160.719 130.922C162.086 130.922 163.07 132.117 163.07 133.93V133.938C163.07 135.758 162.094 136.953 160.719 136.953ZM167.023 128.5C167.5 128.5 167.875 128.117 167.875 127.648C167.875 127.172 167.5 126.797 167.023 126.797C166.555 126.797 166.172 127.172 166.172 127.648C166.172 128.117 166.555 128.5 167.023 128.5ZM166.344 138H167.703V129.875H166.344V138ZM167.023 141.078C167.5 141.078 167.875 140.695 167.875 140.227C167.875 139.75 167.5 139.375 167.023 139.375C166.555 139.375 166.172 139.75 166.172 140.227C166.172 140.695 166.555 141.078 167.023 141.078ZM172.922 138.156C174.758 138.156 176.094 136.961 176.312 135.414L176.32 135.359H174.984L174.969 135.422C174.742 136.328 174.031 136.953 172.922 136.953C171.516 136.953 170.547 135.836 170.547 133.945V133.938C170.547 132.094 171.492 130.922 172.906 130.922C174.102 130.922 174.758 131.641 174.961 132.453L174.977 132.516H176.305L176.297 132.453C176.125 131.062 174.93 129.719 172.906 129.719C170.648 129.719 169.156 131.359 169.156 133.922V133.93C169.156 136.516 170.617 138.156 172.922 138.156ZM177.641 138H179V133.258C179 131.875 179.836 130.922 181.094 130.922C182.359 130.922 183.109 131.789 183.109 133.258V138H184.469V133.023C184.469 131.055 183.289 129.719 181.562 129.719C180.352 129.719 179.469 130.258 179.031 131.172H179V126.727H177.641V138ZM189.43 138H197.352V136.352H192.094V136.266L194.578 133.906C196.562 132 197.18 131.102 197.18 129.773V129.758C197.18 127.898 195.602 126.531 193.344 126.531C191.055 126.531 189.32 128.008 189.32 130.07V130.125H191.211V130.07C191.234 128.984 192.109 128.148 193.359 128.148C194.445 128.148 195.203 128.867 195.211 129.875V129.891C195.211 130.727 194.891 131.297 193.414 132.742L189.43 136.625V138ZM203.219 138.195C205.648 138.195 207.43 136.562 207.43 134.289V134.273C207.43 132.156 205.906 130.594 203.734 130.594C202.203 130.594 201.078 131.375 200.633 132.406H200.594C200.594 132.281 200.594 132.164 200.602 132.047C200.68 129.914 201.438 128.18 203.25 128.18C204.258 128.18 204.953 128.68 205.25 129.453L205.281 129.523H207.281L207.266 129.438C206.906 127.734 205.352 126.531 203.266 126.531C200.391 126.531 198.664 128.758 198.664 132.484V132.5C198.664 136.453 200.727 138.195 203.219 138.195ZM200.938 134.32V134.312C200.938 133.055 201.922 132.148 203.211 132.148C204.5 132.148 205.445 133.062 205.445 134.344V134.359C205.445 135.578 204.445 136.547 203.188 136.547C201.93 136.547 200.938 135.57 200.938 134.32ZM213.453 138.195C215.883 138.195 217.664 136.562 217.664 134.289V134.273C217.664 132.156 216.141 130.594 213.969 130.594C212.438 130.594 211.312 131.375 210.867 132.406H210.828C210.828 132.281 210.828 132.164 210.836 132.047C210.914 129.914 211.672 128.18 213.484 128.18C214.492 128.18 215.188 128.68 215.484 129.453L215.516 129.523H217.516L217.5 129.438C217.141 127.734 215.586 126.531 213.5 126.531C210.625 126.531 208.898 128.758 208.898 132.484V132.5C208.898 136.453 210.961 138.195 213.453 138.195ZM211.172 134.32V134.312C211.172 133.055 212.156 132.148 213.445 132.148C214.734 132.148 215.68 133.062 215.68 134.344V134.359C215.68 135.578 214.68 136.547 213.422 136.547C212.164 136.547 211.172 135.57 211.172 134.32ZM224.672 138H226.594V135.836H228.125V134.18H226.594V126.727H223.727L219.047 134.117V135.836H224.672V138ZM220.859 134.227V134.172L224.656 128.25H224.703V134.227H220.859ZM235.656 138.164C236.047 138.164 236.391 138.125 236.617 138.094V136.633C236.484 136.641 236.336 136.664 236.148 136.664C235.438 136.664 235.078 136.406 235.078 135.594V131.219H236.617V129.719H235.078V127.617H233.102V129.719H231.93V131.219H233.102V135.758C233.102 137.461 233.922 138.164 235.656 138.164ZM240.656 128.781H241.812C242.359 128.414 242.656 127.984 242.656 127.461C242.656 126.602 241.82 126.047 240.797 126.047C240.398 126.047 240.039 126.117 239.805 126.203V127.219C239.953 127.195 240.133 127.164 240.375 127.164C240.969 127.164 241.391 127.383 241.391 127.766C241.391 128.086 241.094 128.414 240.656 128.758V128.781ZM239.062 140.75C240.789 140.75 241.758 140.102 242.391 138.281L245.367 129.719H243.32L241.375 136.344H241.32L239.383 129.719H237.258L240.234 138.008L240.117 138.344C239.867 139.039 239.453 139.25 238.711 139.25C238.438 139.25 238.211 139.211 238.062 139.18V140.664C238.297 140.703 238.688 140.75 239.062 140.75ZM49.0938 176H50.4844V167.102H50.5234L56.7266 176H58.0938V164.727H56.7031V173.625H56.6641L50.4609 164.727H49.0938V176ZM63.5391 176H64.9297L69.0859 164.727H67.6094L64.25 174.312H64.2188L60.8594 164.727H59.3828L63.5391 176ZM73.4453 176H74.8047V171.219C74.8047 169.836 75.6406 168.922 76.9219 168.922C78.1719 168.922 78.7891 169.648 78.7891 170.969V176H80.1484V170.727C80.1484 168.875 79.1172 167.719 77.3359 167.719C76.1016 167.719 75.2734 168.273 74.8359 169.031H74.8047V167.875H73.4453V176ZM85.3203 178.891C87.5234 178.891 88.9062 177.656 88.9062 175.773V167.875H87.5469V169.25H87.5156C87.0156 168.344 86.1094 167.719 84.9609 167.719C82.8984 167.719 81.4844 169.359 81.4844 171.883V171.891C81.4844 174.43 82.8828 176.078 84.9297 176.078C86.0938 176.078 87.0312 175.5 87.5156 174.602H87.5469V175.641C87.5469 176.898 86.7344 177.688 85.3047 177.688C84.1953 177.688 83.4219 177.328 83.1641 176.742L83.1328 176.672H81.7656L81.7812 176.742C82.0469 177.945 83.3125 178.891 85.3203 178.891ZM85.2266 174.875C83.7812 174.875 82.875 173.734 82.875 171.891V171.883C82.875 170.078 83.7812 168.922 85.2266 168.922C86.6016 168.922 87.5469 170.094 87.5469 171.883V171.891C87.5469 173.695 86.6094 174.875 85.2266 174.875ZM91.4688 166.945H92.6406L93.8438 165.32L95.0469 166.945H96.2188L94.4922 164.602H93.1953L91.4688 166.945ZM93.0391 176.156C94.125 176.156 95.1016 175.57 95.5781 174.68H95.6094V176H96.9688V170.383C96.9688 168.758 95.7656 167.719 93.8438 167.719C91.9297 167.719 90.7656 168.797 90.6484 170.133L90.6406 170.219H91.9531L91.9688 170.148C92.125 169.422 92.7812 168.922 93.8281 168.922C94.9609 168.922 95.6094 169.523 95.6094 170.516V171.195L93.2812 171.328C91.4141 171.438 90.3359 172.305 90.3359 173.688V173.703C90.3359 175.18 91.4219 176.156 93.0391 176.156ZM91.7266 173.703V173.688C91.7266 172.93 92.3516 172.445 93.4375 172.383L95.6094 172.25V172.914C95.6094 174.094 94.625 174.977 93.3438 174.977C92.3672 174.977 91.7266 174.484 91.7266 173.703ZM98.6953 176H100.055V171.219C100.055 169.836 100.891 168.922 102.172 168.922C103.422 168.922 104.039 169.648 104.039 170.969V176H105.398V170.727C105.398 168.875 104.367 167.719 102.586 167.719C101.352 167.719 100.523 168.273 100.086 169.031H100.055V167.875H98.6953V176ZM110.484 176H111.844V171.258C111.844 169.875 112.68 168.922 113.938 168.922C115.203 168.922 115.953 169.789 115.953 171.258V176H117.312V171.023C117.312 169.055 116.133 167.719 114.406 167.719C113.195 167.719 112.312 168.258 111.875 169.172H111.844V164.727H110.484V176ZM121.844 166.945H122.891L121.555 164.602H120.133L121.844 166.945ZM121.414 176.156C122.5 176.156 123.477 175.57 123.953 174.68H123.984V176H125.344V170.383C125.344 168.758 124.141 167.719 122.219 167.719C120.305 167.719 119.141 168.797 119.023 170.133L119.016 170.219H120.328L120.344 170.148C120.5 169.422 121.156 168.922 122.203 168.922C123.336 168.922 123.984 169.523 123.984 170.516V171.195L121.656 171.328C119.789 171.438 118.711 172.305 118.711 173.688V173.703C118.711 175.18 119.797 176.156 121.414 176.156ZM120.102 173.703V173.688C120.102 172.93 120.727 172.445 121.812 172.383L123.984 172.25V172.914C123.984 174.094 123 174.977 121.719 174.977C120.742 174.977 120.102 174.484 120.102 173.703ZM127.07 176H128.43V171.219C128.43 169.836 129.266 168.922 130.547 168.922C131.797 168.922 132.414 169.648 132.414 170.969V176H133.773V170.727C133.773 168.875 132.742 167.719 130.961 167.719C129.727 167.719 128.898 168.273 128.461 169.031H128.43V167.875H127.07V176ZM138.945 178.891C141.148 178.891 142.531 177.656 142.531 175.773V167.875H141.172V169.25H141.141C140.641 168.344 139.734 167.719 138.586 167.719C136.523 167.719 135.109 169.359 135.109 171.883V171.891C135.109 174.43 136.508 176.078 138.555 176.078C139.719 176.078 140.656 175.5 141.141 174.602H141.172V175.641C141.172 176.898 140.359 177.688 138.93 177.688C137.82 177.688 137.047 177.328 136.789 176.742L136.758 176.672H135.391L135.406 176.742C135.672 177.945 136.938 178.891 138.945 178.891ZM138.852 174.875C137.406 174.875 136.5 173.734 136.5 171.891V171.883C136.5 170.078 137.406 168.922 138.852 168.922C140.227 168.922 141.172 170.094 141.172 171.883V171.891C141.172 173.695 140.234 174.875 138.852 174.875ZM145.125 170.062C145.625 170.062 146.016 169.672 146.016 169.172C146.016 168.672 145.625 168.281 145.125 168.281C144.625 168.281 144.234 168.672 144.234 169.172C144.234 169.672 144.625 170.062 145.125 170.062ZM145.125 176.109C145.625 176.109 146.016 175.719 146.016 175.219C146.016 174.719 145.625 174.328 145.125 174.328C144.625 174.328 144.234 174.719 144.234 175.219C144.234 175.719 144.625 176.109 145.125 176.109ZM153.805 176H155.781V164.727H153.789L150.844 166.797V168.648L153.758 166.648H153.805V176ZM162.695 176.195C165.453 176.195 167.125 173.953 167.125 170.367V170.352C167.125 166.766 165.453 164.531 162.695 164.531C159.93 164.531 158.266 166.766 158.266 170.352V170.367C158.266 173.953 159.93 176.195 162.695 176.195ZM162.695 174.547C161.172 174.547 160.297 172.969 160.297 170.367V170.352C160.297 167.75 161.172 166.188 162.695 166.188C164.211 166.188 165.094 167.75 165.094 170.352V170.367C165.094 172.969 164.211 174.547 162.695 174.547ZM172.688 176.195C175.18 176.195 176.898 174.82 176.898 172.859V172.844C176.898 171.281 175.797 170.297 174.133 170.141V170.102C175.484 169.82 176.5 168.891 176.5 167.492V167.477C176.5 165.727 174.992 164.531 172.664 164.531C170.391 164.531 168.852 165.797 168.688 167.703L168.68 167.797H170.555L170.562 167.719C170.664 166.75 171.477 166.133 172.664 166.133C173.875 166.133 174.562 166.727 174.562 167.742V167.758C174.562 168.742 173.734 169.445 172.492 169.445H171.203V170.945H172.539C173.977 170.945 174.852 171.602 174.852 172.789V172.805C174.852 173.828 173.984 174.547 172.68 174.547C171.359 174.547 170.484 173.883 170.375 172.969L170.367 172.883H168.438L168.445 172.977C168.602 174.867 170.211 176.195 172.688 176.195ZM179.102 176H181.211L186.031 166.406V164.727H178.188V166.375H184.047V166.414L179.102 176ZM49.0938 195H50.5V191.055L51.7031 189.734L55.7109 195H57.5078L52.6875 188.719L57.0938 183.727H55.3281L50.5469 189.258H50.5V183.727H49.0938V195ZM58.5625 195H59.9219V190.258C59.9219 188.875 60.7578 187.922 62.0156 187.922C63.2812 187.922 64.0312 188.789 64.0312 190.258V195H65.3906V190.023C65.3906 188.055 64.2109 186.719 62.4844 186.719C61.2734 186.719 60.3906 187.258 59.9531 188.172H59.9219V183.727H58.5625V195ZM70.6719 185.945L72.3828 183.602H70.9609L69.625 185.945H70.6719ZM69.4922 195.156C70.5781 195.156 71.5547 194.57 72.0312 193.68H72.0625V195H73.4219V189.383C73.4219 187.758 72.2188 186.719 70.2969 186.719C68.3828 186.719 67.2188 187.797 67.1016 189.133L67.0938 189.219H68.4062L68.4219 189.148C68.5781 188.422 69.2344 187.922 70.2812 187.922C71.4141 187.922 72.0625 188.523 72.0625 189.516V190.195L69.7344 190.328C67.8672 190.438 66.7891 191.305 66.7891 192.688V192.703C66.7891 194.18 67.875 195.156 69.4922 195.156ZM68.1797 192.703V192.688C68.1797 191.93 68.8047 191.445 69.8906 191.383L72.0625 191.25V191.914C72.0625 193.094 71.0781 193.977 69.7969 193.977C68.8203 193.977 68.1797 193.484 68.1797 192.703ZM78.5156 195.156C80.3516 195.156 81.6875 193.961 81.9062 192.414L81.9141 192.359H80.5781L80.5625 192.422C80.3359 193.328 79.625 193.953 78.5156 193.953C77.1094 193.953 76.1406 192.836 76.1406 190.945V190.938C76.1406 189.094 77.0859 187.922 78.5 187.922C79.6953 187.922 80.3516 188.641 80.5547 189.453L80.5703 189.516H81.8984L81.8906 189.453C81.7188 188.062 80.5234 186.719 78.5 186.719C76.2422 186.719 74.75 188.359 74.75 190.922V190.93C74.75 193.516 76.2109 195.156 78.5156 195.156ZM83.2344 195H84.5938V190.258C84.5938 188.875 85.4297 187.922 86.6875 187.922C87.9531 187.922 88.7031 188.789 88.7031 190.258V195H90.0625V190.023C90.0625 188.055 88.8828 186.719 87.1562 186.719C85.9453 186.719 85.0625 187.258 84.625 188.172H84.5938V183.727H83.2344V195ZM95.1406 195H96.5V190.258C96.5 188.875 97.3359 187.922 98.5938 187.922C99.8594 187.922 100.609 188.789 100.609 190.258V195H101.969V190.023C101.969 188.055 100.789 186.719 99.0625 186.719C97.8516 186.719 96.9688 187.258 96.5312 188.172H96.5V183.727H95.1406V195ZM106.5 185.945H107.547L106.211 183.602H104.789L106.5 185.945ZM106.07 195.156C107.156 195.156 108.133 194.57 108.609 193.68H108.641V195H110V189.383C110 187.758 108.797 186.719 106.875 186.719C104.961 186.719 103.797 187.797 103.68 189.133L103.672 189.219H104.984L105 189.148C105.156 188.422 105.812 187.922 106.859 187.922C107.992 187.922 108.641 188.523 108.641 189.516V190.195L106.312 190.328C104.445 190.438 103.367 191.305 103.367 192.688V192.703C103.367 194.18 104.453 195.156 106.07 195.156ZM104.758 192.703V192.688C104.758 191.93 105.383 191.445 106.469 191.383L108.641 191.25V191.914C108.641 193.094 107.656 193.977 106.375 193.977C105.398 193.977 104.758 193.484 104.758 192.703ZM111.727 195H113.086V190.219C113.086 188.836 113.922 187.922 115.203 187.922C116.453 187.922 117.07 188.648 117.07 189.969V195H118.43V189.727C118.43 187.875 117.398 186.719 115.617 186.719C114.383 186.719 113.555 187.273 113.117 188.031H113.086V186.875H111.727V195ZM123.602 197.891C125.805 197.891 127.188 196.656 127.188 194.773V186.875H125.828V188.25H125.797C125.297 187.344 124.391 186.719 123.242 186.719C121.18 186.719 119.766 188.359 119.766 190.883V190.891C119.766 193.43 121.164 195.078 123.211 195.078C124.375 195.078 125.312 194.5 125.797 193.602H125.828V194.641C125.828 195.898 125.016 196.688 123.586 196.688C122.477 196.688 121.703 196.328 121.445 195.742L121.414 195.672H120.047L120.062 195.742C120.328 196.945 121.594 197.891 123.602 197.891ZM123.508 193.875C122.062 193.875 121.156 192.734 121.156 190.891V190.883C121.156 189.078 122.062 187.922 123.508 187.922C124.883 187.922 125.828 189.094 125.828 190.883V190.891C125.828 192.695 124.891 193.875 123.508 193.875ZM129.781 189.062C130.281 189.062 130.672 188.672 130.672 188.172C130.672 187.672 130.281 187.281 129.781 187.281C129.281 187.281 128.891 187.672 128.891 188.172C128.891 188.672 129.281 189.062 129.781 189.062ZM129.781 195.109C130.281 195.109 130.672 194.719 130.672 194.219C130.672 193.719 130.281 193.328 129.781 193.328C129.281 193.328 128.891 193.719 128.891 194.219C128.891 194.719 129.281 195.109 129.781 195.109ZM139.672 195.195C142.164 195.195 143.883 193.82 143.883 191.859V191.844C143.883 190.281 142.781 189.297 141.117 189.141V189.102C142.469 188.82 143.484 187.891 143.484 186.492V186.477C143.484 184.727 141.977 183.531 139.648 183.531C137.375 183.531 135.836 184.797 135.672 186.703L135.664 186.797H137.539L137.547 186.719C137.648 185.75 138.461 185.133 139.648 185.133C140.859 185.133 141.547 185.727 141.547 186.742V186.758C141.547 187.742 140.719 188.445 139.477 188.445H138.188V189.945H139.523C140.961 189.945 141.836 190.602 141.836 191.789V191.805C141.836 192.828 140.969 193.547 139.664 193.547C138.344 193.547 137.469 192.883 137.359 191.969L137.352 191.883H135.422L135.43 191.977C135.586 193.867 137.195 195.195 139.672 195.195ZM146.086 195H148.195L153.016 185.406V183.727H145.172V185.375H151.031V185.414L146.086 195ZM158.703 195.195C161.281 195.195 163.086 193.852 163.086 191.93V191.914C163.086 190.484 162.039 189.375 160.547 189.07V189.023C161.828 188.68 162.672 187.742 162.672 186.539V186.523C162.672 184.797 161.031 183.531 158.703 183.531C156.383 183.531 154.734 184.797 154.734 186.523V186.539C154.734 187.742 155.578 188.68 156.859 189.023V189.07C155.367 189.375 154.328 190.484 154.328 191.914V191.93C154.328 193.852 156.125 195.195 158.703 195.195ZM158.703 188.383C157.531 188.383 156.727 187.703 156.727 186.727V186.711C156.727 185.734 157.539 185.055 158.703 185.055C159.867 185.055 160.68 185.734 160.68 186.711V186.727C160.68 187.703 159.875 188.383 158.703 188.383ZM158.703 193.656C157.359 193.656 156.398 192.883 156.398 191.805V191.789C156.398 190.703 157.344 189.922 158.703 189.922C160.062 189.922 161.008 190.703 161.008 191.789V191.805C161.008 192.883 160.055 193.656 158.703 193.656ZM168.766 183.531C166.336 183.531 164.547 185.164 164.547 187.438V187.453C164.547 189.57 166.078 191.133 168.25 191.133C169.773 191.133 170.898 190.352 171.344 189.32H171.391C171.391 189.445 171.383 189.562 171.375 189.68C171.297 191.812 170.539 193.547 168.727 193.547C167.719 193.547 167.031 193.047 166.727 192.273L166.703 192.203H164.703L164.719 192.289C165.07 193.992 166.633 195.195 168.719 195.195C171.594 195.195 173.32 192.969 173.32 189.242V189.227C173.32 185.273 171.25 183.531 168.766 183.531ZM168.766 189.578C167.484 189.578 166.531 188.664 166.531 187.383V187.367C166.531 186.148 167.539 185.18 168.789 185.18C170.055 185.18 171.039 186.156 171.039 187.406V187.414C171.039 188.672 170.055 189.578 168.766 189.578ZM49.0938 214H50.4062V205.289H50.4531L54.0547 214H55.2422L58.8438 205.289H58.8906V214H60.2031V202.727H58.5781L54.6719 212.227H54.625L50.7188 202.727H49.0938V214ZM63.1719 204.945H64.3438L65.5469 203.32L66.75 204.945H67.9219L66.1953 202.602H64.8984L63.1719 204.945ZM65.5469 214.156C67.7891 214.156 69.3047 212.531 69.3047 209.938V209.922C69.3047 207.328 67.7812 205.719 65.5391 205.719C63.2969 205.719 61.7812 207.336 61.7812 209.922V209.938C61.7812 212.523 63.2891 214.156 65.5469 214.156ZM65.5547 212.953C64.1172 212.953 63.1719 211.852 63.1719 209.938V209.922C63.1719 208.023 64.125 206.922 65.5391 206.922C66.9766 206.922 67.9141 208.016 67.9141 209.922V209.938C67.9141 211.844 66.9844 212.953 65.5547 212.953ZM71.4453 204.5C71.9219 204.5 72.2969 204.117 72.2969 203.648C72.2969 203.172 71.9219 202.797 71.4453 202.797C70.9766 202.797 70.5938 203.172 70.5938 203.648C70.5938 204.117 70.9766 204.5 71.4453 204.5ZM70.7656 214H72.125V205.875H70.7656V214ZM80.6953 216.891C82.8984 216.891 84.2812 215.656 84.2812 213.773V205.875H82.9219V207.25H82.8906C82.3906 206.344 81.4844 205.719 80.3359 205.719C78.2734 205.719 76.8594 207.359 76.8594 209.883V209.891C76.8594 212.43 78.2578 214.078 80.3047 214.078C81.4688 214.078 82.4062 213.5 82.8906 212.602H82.9219V213.641C82.9219 214.898 82.1094 215.688 80.6797 215.688C79.5703 215.688 78.7969 215.328 78.5391 214.742L78.5078 214.672H77.1406L77.1562 214.742C77.4219 215.945 78.6875 216.891 80.6953 216.891ZM80.6016 212.875C79.1562 212.875 78.25 211.734 78.25 209.891V209.883C78.25 208.078 79.1562 206.922 80.6016 206.922C81.9766 206.922 82.9219 208.094 82.9219 209.883V209.891C82.9219 211.695 81.9844 212.875 80.6016 212.875ZM86.8047 204.5C87.2812 204.5 87.6562 204.117 87.6562 203.648C87.6562 203.172 87.2812 202.797 86.8047 202.797C86.3359 202.797 85.9531 203.172 85.9531 203.648C85.9531 204.117 86.3359 204.5 86.8047 204.5ZM86.125 214H87.4844V205.875H86.125V214ZM92.3594 204.945L94.0703 202.602H92.6484L91.3125 204.945H92.3594ZM92.7031 214.156C94.9453 214.156 96.4609 212.531 96.4609 209.938V209.922C96.4609 208.18 95.7734 206.883 94.6484 206.219C96.0469 205.859 96.4453 205.125 96.4766 203.664H95.2734C95.2266 205.102 94.7109 205.594 92.7031 205.719H92.6953C90.4531 205.719 88.9375 207.336 88.9375 209.922V209.938C88.9375 212.523 90.4453 214.156 92.7031 214.156ZM92.7109 212.953C91.2734 212.953 90.3281 211.852 90.3281 209.938V209.922C90.3281 208.023 91.2812 206.922 92.6953 206.922C94.1328 206.922 95.0703 208.016 95.0703 209.922V209.938C95.0703 211.844 94.1406 212.953 92.7109 212.953ZM98.6016 204.5C99.0781 204.5 99.4531 204.117 99.4531 203.648C99.4531 203.172 99.0781 202.797 98.6016 202.797C98.1328 202.797 97.75 203.172 97.75 203.648C97.75 204.117 98.1328 204.5 98.6016 204.5ZM97.9219 214H99.2812V205.875H97.9219V214ZM101.969 208.062C102.469 208.062 102.859 207.672 102.859 207.172C102.859 206.672 102.469 206.281 101.969 206.281C101.469 206.281 101.078 206.672 101.078 207.172C101.078 207.672 101.469 208.062 101.969 208.062ZM101.969 214.109C102.469 214.109 102.859 213.719 102.859 213.219C102.859 212.719 102.469 212.328 101.969 212.328C101.469 212.328 101.078 212.719 101.078 213.219C101.078 213.719 101.469 214.109 101.969 214.109ZM111.969 214.195C114.461 214.195 116.203 212.602 116.203 210.281V210.266C116.203 208.125 114.656 206.57 112.508 206.57C111.375 206.57 110.445 207.016 109.953 207.773H109.914L110.227 204.375H115.539V202.727H108.617L108.078 209.281H109.836C109.969 209.031 110.156 208.812 110.367 208.641C110.797 208.281 111.352 208.086 111.992 208.086C113.312 208.086 114.258 209.008 114.258 210.297V210.312C114.258 211.633 113.328 212.555 111.984 212.555C110.797 212.555 109.938 211.828 109.773 210.883L109.766 210.828H107.875L107.883 210.93C108.031 212.797 109.625 214.195 111.969 214.195ZM120.414 214H122.391V202.727H120.398L117.453 204.797V206.648L120.367 204.648H120.414V214ZM129.422 214.195C131.852 214.195 133.633 212.562 133.633 210.289V210.273C133.633 208.156 132.109 206.594 129.938 206.594C128.406 206.594 127.281 207.375 126.836 208.406H126.797C126.797 208.281 126.797 208.164 126.805 208.047C126.883 205.914 127.641 204.18 129.453 204.18C130.461 204.18 131.156 204.68 131.453 205.453L131.484 205.523H133.484L133.469 205.438C133.109 203.734 131.555 202.531 129.469 202.531C126.594 202.531 124.867 204.758 124.867 208.484V208.5C124.867 212.453 126.93 214.195 129.422 214.195ZM127.141 210.32V210.312C127.141 209.055 128.125 208.148 129.414 208.148C130.703 208.148 131.648 209.062 131.648 210.344V210.359C131.648 211.578 130.648 212.547 129.391 212.547C128.133 212.547 127.141 211.57 127.141 210.32ZM135.273 214H143.195V212.352H137.938V212.266L140.422 209.906C142.406 208 143.023 207.102 143.023 205.773V205.758C143.023 203.898 141.445 202.531 139.188 202.531C136.898 202.531 135.164 204.008 135.164 206.07V206.125H137.055V206.07C137.078 204.984 137.953 204.148 139.203 204.148C140.289 204.148 141.047 204.867 141.055 205.875V205.891C141.055 206.727 140.734 207.297 139.258 208.742L135.273 212.625V214Z" fill="white"/>
</svg>
