<svg width="312" height="247" viewBox="0 0 312 247" fill="none" xmlns="http://www.w3.org/2000/svg">
<path fill-rule="evenodd" clip-rule="evenodd" d="M0 0L258.667 0V0.282997L312.001 121.731L258.667 246.709V247L258.543 247L0 247L0 0Z" fill="#2B70F5"/>
<path d="M57.1875 58.3418C62.1914 58.3418 65.2266 54.418 65.2266 48.1426V48.1152C65.2266 41.8398 62.1914 37.9297 57.1875 37.9297C52.1836 37.9297 49.1484 41.8398 49.1484 48.1152V48.1426C49.1484 54.418 52.1836 58.3418 57.1875 58.3418ZM57.1875 55.0332C54.7266 55.0332 53.3184 52.4766 53.3184 48.1426V48.1152C53.3184 43.7812 54.7266 41.2383 57.1875 41.2383C59.6484 41.2383 61.0566 43.7812 61.0566 48.1152V48.1426C61.0566 52.4766 59.6484 55.0332 57.1875 55.0332ZM75.7266 58.3418C80.1152 58.3418 83.3281 55.4707 83.3281 51.4375V51.4102C83.3281 47.7188 80.7168 45.0117 76.9023 45.0117C74.2363 45.0117 72.2949 46.3516 71.5156 48.1836H71.4336C71.4336 47.9785 71.4473 47.7051 71.4609 47.4316C71.6113 43.9453 72.8691 41.1973 75.7539 41.1973C77.3672 41.1973 78.4609 42.0039 78.9531 43.1934L78.9941 43.3164H83.0684L83.041 43.1797C82.4531 40.1309 79.582 37.9297 75.7676 37.9297C70.627 37.9297 67.4961 41.8125 67.4961 48.2793V48.3066C67.4961 54.9922 70.9688 58.3418 75.7266 58.3418ZM72.0625 51.5332V51.5059C72.0625 49.4961 73.6484 48.0605 75.7129 48.0605C77.7637 48.0605 79.3086 49.5098 79.3086 51.5605V51.5879C79.3086 53.5293 77.6816 55.0605 75.6719 55.0605C73.6484 55.0605 72.0625 53.5156 72.0625 51.5332ZM87.7441 58.2324C88.9746 58.2324 89.959 57.248 89.959 56.0176C89.959 54.7734 88.9746 53.8027 87.7441 53.8027C86.5 53.8027 85.5293 54.7734 85.5293 56.0176C85.5293 57.248 86.5 58.2324 87.7441 58.2324ZM92.5156 58H106.857V54.7188H97.916V54.5547L102.045 50.7812C105.449 47.6504 106.584 46.0918 106.584 43.6992V43.6719C106.584 40.3086 103.713 37.9297 99.543 37.9297C95.373 37.9297 92.2832 40.541 92.2832 44.2598V44.3691H96.1113L96.125 44.2461C96.1797 42.4688 97.5469 41.1426 99.5703 41.1426C101.32 41.1426 102.551 42.291 102.564 43.9043V43.9316C102.564 45.2988 102.031 46.2695 99.4883 48.6484L92.5156 55.1699V58ZM117.125 58.3418C122.129 58.3418 125.164 54.418 125.164 48.1426V48.1152C125.164 41.8398 122.129 37.9297 117.125 37.9297C112.121 37.9297 109.086 41.8398 109.086 48.1152V48.1426C109.086 54.418 112.121 58.3418 117.125 58.3418ZM117.125 55.0332C114.664 55.0332 113.256 52.4766 113.256 48.1426V48.1152C113.256 43.7812 114.664 41.2383 117.125 41.2383C119.586 41.2383 120.994 43.7812 120.994 48.1152V48.1426C120.994 52.4766 119.586 55.0332 117.125 55.0332ZM127.57 58H141.912V54.7188H132.971V54.5547L137.1 50.7812C140.504 47.6504 141.639 46.0918 141.639 43.6992V43.6719C141.639 40.3086 138.768 37.9297 134.598 37.9297C130.428 37.9297 127.338 40.541 127.338 44.2598V44.3691H131.166L131.18 44.2461C131.234 42.4688 132.602 41.1426 134.625 41.1426C136.375 41.1426 137.605 42.291 137.619 43.9043V43.9316C137.619 45.2988 137.086 46.2695 134.543 48.6484L127.57 55.1699V58ZM149.404 58H153.492V38.2715H149.391L144.291 41.8125V45.4766L149.322 42.0586H149.404V58Z" fill="white"/>
<path d="M51.6797 100H53.6562V88.7266H51.6641L48.7188 90.7969V92.6484L51.6328 90.6484H51.6797V100ZM56.9141 100H59.0234L63.8438 90.4062V88.7266H56V90.375H61.8594V90.4141L56.9141 100ZM69.5312 100.195C72.1094 100.195 73.9141 98.8516 73.9141 96.9297V96.9141C73.9141 95.4844 72.8672 94.375 71.375 94.0703V94.0234C72.6562 93.6797 73.5 92.7422 73.5 91.5391V91.5234C73.5 89.7969 71.8594 88.5312 69.5312 88.5312C67.2109 88.5312 65.5625 89.7969 65.5625 91.5234V91.5391C65.5625 92.7422 66.4062 93.6797 67.6875 94.0234V94.0703C66.1953 94.375 65.1562 95.4844 65.1562 96.9141V96.9297C65.1562 98.8516 66.9531 100.195 69.5312 100.195ZM69.5312 93.3828C68.3594 93.3828 67.5547 92.7031 67.5547 91.7266V91.7109C67.5547 90.7344 68.3672 90.0547 69.5312 90.0547C70.6953 90.0547 71.5078 90.7344 71.5078 91.7109V91.7266C71.5078 92.7031 70.7031 93.3828 69.5312 93.3828ZM69.5312 98.6562C68.1875 98.6562 67.2266 97.8828 67.2266 96.8047V96.7891C67.2266 95.7031 68.1719 94.9219 69.5312 94.9219C70.8906 94.9219 71.8359 95.7031 71.8359 96.7891V96.8047C71.8359 97.8828 70.8828 98.6562 69.5312 98.6562ZM79.6484 100.195C82.4062 100.195 84.0781 97.9531 84.0781 94.3672V94.3516C84.0781 90.7656 82.4062 88.5312 79.6484 88.5312C76.8828 88.5312 75.2188 90.7656 75.2188 94.3516V94.3672C75.2188 97.9531 76.8828 100.195 79.6484 100.195ZM79.6484 98.5469C78.125 98.5469 77.25 96.9688 77.25 94.3672V94.3516C77.25 91.75 78.125 90.1875 79.6484 90.1875C81.1641 90.1875 82.0469 91.75 82.0469 94.3516V94.3672C82.0469 96.9688 81.1641 98.5469 79.6484 98.5469ZM88.9844 100H90.3438V95.2578C90.3438 93.875 91.1797 92.9219 92.4375 92.9219C93.7031 92.9219 94.4531 93.7891 94.4531 95.2578V100H95.8125V95.0234C95.8125 93.0547 94.6328 91.7188 92.9062 91.7188C91.6953 91.7188 90.8125 92.2578 90.375 93.1719H90.3438V88.7266H88.9844V100ZM102.289 88.4531H103.242L101.984 86.2656H100.594L102.289 88.4531ZM98.2578 90.9453H99.4297L100.664 89.3125L101.898 90.9453H103.07L101.297 88.6016H100.031L98.2578 90.9453ZM100.906 100.156C103.148 100.156 104.664 98.5312 104.664 95.9375V95.9219C104.664 93.3281 103.141 91.7188 100.898 91.7188C98.6562 91.7188 97.1406 93.3359 97.1406 95.9219V95.9375C97.1406 98.5234 98.6484 100.156 100.906 100.156ZM100.914 98.9531C99.4766 98.9531 98.5312 97.8516 98.5312 95.9375V95.9219C98.5312 94.0234 99.4844 92.9219 100.898 92.9219C102.336 92.9219 103.273 94.0156 103.273 95.9219V95.9375C103.273 97.8438 102.344 98.9531 100.914 98.9531ZM112.203 100.156C114.016 100.156 115.359 99.1562 115.359 97.7344V97.7266C115.359 96.5703 114.766 95.9219 113.125 95.5234L111.836 95.2109C110.938 94.9922 110.57 94.6094 110.57 94.0547V94.0469C110.57 93.3281 111.18 92.8516 112.164 92.8516C113.172 92.8516 113.773 93.375 113.883 94.1641L113.891 94.2188H115.188L115.18 94.1172C115.078 92.7578 113.945 91.7188 112.164 91.7188C110.406 91.7188 109.18 92.7109 109.18 94.1094V94.1172C109.18 95.2891 109.922 96 111.453 96.3672L112.742 96.6797C113.664 96.9062 113.969 97.2344 113.969 97.8203V97.8281C113.969 98.5625 113.312 99.0234 112.211 99.0234C111.102 99.0234 110.5 98.5469 110.336 97.7344L110.32 97.6562H108.961L108.969 97.7266C109.133 99.1797 110.289 100.156 112.203 100.156ZM120.141 100.156C122.383 100.156 123.898 98.5312 123.898 95.9375V95.9219C123.898 94.1797 123.211 92.8828 122.086 92.2188C123.484 91.8594 123.883 91.125 123.914 89.6641H122.711C122.664 91.1016 122.148 91.5938 120.141 91.7188H120.133C117.891 91.7188 116.375 93.3359 116.375 95.9219V95.9375C116.375 98.5234 117.883 100.156 120.141 100.156ZM120.148 98.9531C118.711 98.9531 117.766 97.8516 117.766 95.9375V95.9219C117.766 94.0234 118.719 92.9219 120.133 92.9219C121.57 92.9219 122.508 94.0156 122.508 95.9219V95.9375C122.508 97.8438 121.578 98.9531 120.148 98.9531ZM53.8203 119.188C56.8281 119.188 58.6016 117.383 58.6016 114.336V113.266H54.0156V114.5H57.1953V114.703C57.1953 116.594 55.8203 117.891 53.8203 117.891C51.5234 117.891 50.0938 116.141 50.0938 113.305V113.297C50.0938 110.516 51.5 108.836 53.8203 108.836C55.4062 108.836 56.5 109.656 57.0234 111.086L57.0547 111.172H58.5312L58.4922 111.023C57.9688 109.031 56.4141 107.539 53.8203 107.539C50.6719 107.539 48.6562 109.773 48.6562 113.297V113.305C48.6562 116.898 50.6719 119.188 53.8203 119.188ZM60.9609 109.5C61.4375 109.5 61.8125 109.117 61.8125 108.648C61.8125 108.172 61.4375 107.797 60.9609 107.797C60.4922 107.797 60.1094 108.172 60.1094 108.648C60.1094 109.117 60.4922 109.5 60.9609 109.5ZM60.2812 119H61.6406V110.875H60.2812V119ZM66.0312 109.945H67.0312C67.5938 109.578 67.8438 109.18 67.8438 108.719C67.8438 107.969 67.0625 107.492 66.2188 107.492C65.8516 107.492 65.5312 107.555 65.3438 107.633V108.438C65.4453 108.414 65.5859 108.391 65.8359 108.391C66.3672 108.391 66.8047 108.594 66.8047 108.945C66.8047 109.227 66.5312 109.555 66.0312 109.922V109.945ZM65.8672 119.156C66.9531 119.156 67.9297 118.57 68.4062 117.68H68.4375V119H69.7969V113.383C69.7969 111.758 68.5938 110.719 66.6719 110.719C64.7578 110.719 63.5938 111.797 63.4766 113.133L63.4688 113.219H64.7812L64.7969 113.148C64.9531 112.422 65.6094 111.922 66.6562 111.922C67.7891 111.922 68.4375 112.523 68.4375 113.516V114.195L66.1094 114.328C64.2422 114.438 63.1641 115.305 63.1641 116.688V116.703C63.1641 118.18 64.25 119.156 65.8672 119.156ZM64.5547 116.703V116.688C64.5547 115.93 65.1797 115.445 66.2656 115.383L68.4375 115.25V115.914C68.4375 117.094 67.4531 117.977 66.1719 117.977C65.1953 117.977 64.5547 117.484 64.5547 116.703ZM72.2891 109.5C72.7656 109.5 73.1406 109.117 73.1406 108.648C73.1406 108.172 72.7656 107.797 72.2891 107.797C71.8203 107.797 71.4375 108.172 71.4375 108.648C71.4375 109.117 71.8203 109.5 72.2891 109.5ZM71.6094 119H72.9688V110.875H71.6094V119ZM78.1016 119H79.4609V114.219C79.4609 112.836 80.2969 111.922 81.5781 111.922C82.8281 111.922 83.4453 112.648 83.4453 113.969V119H84.8047V113.727C84.8047 111.875 83.7734 110.719 81.9922 110.719C80.7578 110.719 79.9297 111.273 79.4922 112.031H79.4609V110.875H78.1016V119ZM89.9766 121.891C92.1797 121.891 93.5625 120.656 93.5625 118.773V110.875H92.2031V112.25H92.1719C91.6719 111.344 90.7656 110.719 89.6172 110.719C87.5547 110.719 86.1406 112.359 86.1406 114.883V114.891C86.1406 117.43 87.5391 119.078 89.5859 119.078C90.75 119.078 91.6875 118.5 92.1719 117.602H92.2031V118.641C92.2031 119.898 91.3906 120.688 89.9609 120.688C88.8516 120.688 88.0781 120.328 87.8203 119.742L87.7891 119.672H86.4219L86.4375 119.742C86.7031 120.945 87.9688 121.891 89.9766 121.891ZM89.8828 117.875C88.4375 117.875 87.5312 116.734 87.5312 114.891V114.883C87.5312 113.078 88.4375 111.922 89.8828 111.922C91.2578 111.922 92.2031 113.094 92.2031 114.883V114.891C92.2031 116.695 91.2656 117.875 89.8828 117.875ZM96.125 109.945H97.2969L98.5 108.32L99.7031 109.945H100.875L99.1484 107.602H97.8516L96.125 109.945ZM97.6953 119.156C98.7812 119.156 99.7578 118.57 100.234 117.68H100.266V119H101.625V113.383C101.625 111.758 100.422 110.719 98.5 110.719C96.5859 110.719 95.4219 111.797 95.3047 113.133L95.2969 113.219H96.6094L96.625 113.148C96.7812 112.422 97.4375 111.922 98.4844 111.922C99.6172 111.922 100.266 112.523 100.266 113.516V114.195L97.9375 114.328C96.0703 114.438 94.9922 115.305 94.9922 116.688V116.703C94.9922 118.18 96.0781 119.156 97.6953 119.156ZM96.3828 116.703V116.688C96.3828 115.93 97.0078 115.445 98.0938 115.383L100.266 115.25V115.914C100.266 117.094 99.2812 117.977 98 117.977C97.0234 117.977 96.3828 117.484 96.3828 116.703ZM103.352 119H104.711V114.219C104.711 112.836 105.547 111.922 106.828 111.922C108.078 111.922 108.695 112.648 108.695 113.969V119H110.055V113.727C110.055 111.875 109.023 110.719 107.242 110.719C106.008 110.719 105.18 111.273 104.742 112.031H104.711V110.875H103.352V119ZM115.023 119H122.945V117.352H117.688V117.266L120.172 114.906C122.156 113 122.773 112.102 122.773 110.773V110.758C122.773 108.898 121.195 107.531 118.938 107.531C116.648 107.531 114.914 109.008 114.914 111.07V111.125H116.805V111.07C116.828 109.984 117.703 109.148 118.953 109.148C120.039 109.148 120.797 109.867 120.805 110.875V110.891C120.805 111.727 120.484 112.297 119.008 113.742L115.023 117.625V119ZM128.516 119.195C131.008 119.195 132.727 117.82 132.727 115.859V115.844C132.727 114.281 131.625 113.297 129.961 113.141V113.102C131.312 112.82 132.328 111.891 132.328 110.492V110.477C132.328 108.727 130.82 107.531 128.492 107.531C126.219 107.531 124.68 108.797 124.516 110.703L124.508 110.797H126.383L126.391 110.719C126.492 109.75 127.305 109.133 128.492 109.133C129.703 109.133 130.391 109.727 130.391 110.742V110.758C130.391 111.742 129.562 112.445 128.32 112.445H127.031V113.945H128.367C129.805 113.945 130.68 114.602 130.68 115.789V115.805C130.68 116.828 129.812 117.547 128.508 117.547C127.188 117.547 126.312 116.883 126.203 115.969L126.195 115.883H124.266L124.273 115.977C124.43 117.867 126.039 119.195 128.516 119.195ZM137.164 119H139.141V107.727H137.148L134.203 109.797V111.648L137.117 109.648H137.164V119ZM145.938 107.531C143.508 107.531 141.719 109.164 141.719 111.438V111.453C141.719 113.57 143.25 115.133 145.422 115.133C146.945 115.133 148.07 114.352 148.516 113.32H148.562C148.562 113.445 148.555 113.562 148.547 113.68C148.469 115.812 147.711 117.547 145.898 117.547C144.891 117.547 144.203 117.047 143.898 116.273L143.875 116.203H141.875L141.891 116.289C142.242 117.992 143.805 119.195 145.891 119.195C148.766 119.195 150.492 116.969 150.492 113.242V113.227C150.492 109.273 148.422 107.531 145.938 107.531ZM145.938 113.578C144.656 113.578 143.703 112.664 143.703 111.383V111.367C143.703 110.148 144.711 109.18 145.961 109.18C147.227 109.18 148.211 110.156 148.211 111.406V111.414C148.211 112.672 147.227 113.578 145.938 113.578ZM158.234 119.164C158.625 119.164 158.969 119.125 159.195 119.094V117.633C159.062 117.641 158.914 117.664 158.727 117.664C158.016 117.664 157.656 117.406 157.656 116.594V112.219H159.195V110.719H157.656V108.617H155.68V110.719H154.508V112.219H155.68V116.758C155.68 118.461 156.5 119.164 158.234 119.164ZM163.234 109.781H164.391C164.938 109.414 165.234 108.984 165.234 108.461C165.234 107.602 164.398 107.047 163.375 107.047C162.977 107.047 162.617 107.117 162.383 107.203V108.219C162.531 108.195 162.711 108.164 162.953 108.164C163.547 108.164 163.969 108.383 163.969 108.766C163.969 109.086 163.672 109.414 163.234 109.758V109.781ZM161.641 121.75C163.367 121.75 164.336 121.102 164.969 119.281L167.945 110.719H165.898L163.953 117.344H163.898L161.961 110.719H159.836L162.812 119.008L162.695 119.344C162.445 120.039 162.031 120.25 161.289 120.25C161.016 120.25 160.789 120.211 160.641 120.18V121.664C160.875 121.703 161.266 121.75 161.641 121.75ZM51.9453 138H53.3516V127.992H56.9062V126.727H48.3906V127.992H51.9453V138ZM61.3672 126.453H62.3672C62.875 126.125 63.0859 125.734 63.0859 125.305C63.0859 124.57 62.3516 124.109 61.5547 124.109C61.2031 124.109 60.8906 124.172 60.7109 124.25V125.055C60.8125 125.031 60.9531 125.008 61.2031 125.008C61.6719 125.008 62.0469 125.195 62.0469 125.516C62.0469 125.781 61.8203 126.102 61.3672 126.43V126.453ZM57.7344 128.945H58.9062L60.1406 127.312L61.375 128.945H62.5469L60.7734 126.602H59.5078L57.7344 128.945ZM60.1406 138.156C62.3828 138.156 63.8984 136.531 63.8984 133.938V133.922C63.8984 131.328 62.375 129.719 60.1328 129.719C57.8906 129.719 56.375 131.336 56.375 133.922V133.938C56.375 136.523 57.8828 138.156 60.1406 138.156ZM60.1484 136.953C58.7109 136.953 57.7656 135.852 57.7656 133.938V133.922C57.7656 132.023 58.7188 130.922 60.1328 130.922C61.5703 130.922 62.5078 132.016 62.5078 133.922V133.938C62.5078 135.844 61.5781 136.953 60.1484 136.953ZM65.2734 138H66.6328V133.219C66.6328 131.836 67.4688 130.922 68.75 130.922C70 130.922 70.6172 131.648 70.6172 132.969V138H71.9766V132.727C71.9766 130.875 70.9453 129.719 69.1641 129.719C67.9297 129.719 67.1016 130.273 66.6641 131.031H66.6328V129.875H65.2734V138ZM77.1484 140.891C79.3516 140.891 80.7344 139.656 80.7344 137.773V129.875H79.375V131.25H79.3438C78.8438 130.344 77.9375 129.719 76.7891 129.719C74.7266 129.719 73.3125 131.359 73.3125 133.883V133.891C73.3125 136.43 74.7109 138.078 76.7578 138.078C77.9219 138.078 78.8594 137.5 79.3438 136.602H79.375V137.641C79.375 138.898 78.5625 139.688 77.1328 139.688C76.0234 139.688 75.25 139.328 74.9922 138.742L74.9609 138.672H73.5938L73.6094 138.742C73.875 139.945 75.1406 140.891 77.1484 140.891ZM77.0547 136.875C75.6094 136.875 74.7031 135.734 74.7031 133.891V133.883C74.7031 132.078 75.6094 130.922 77.0547 130.922C78.4297 130.922 79.375 132.094 79.375 133.883V133.891C79.375 135.695 78.4375 136.875 77.0547 136.875ZM89.2109 140.891C91.4141 140.891 92.7969 139.656 92.7969 137.773V129.875H91.4375V131.25H91.4062C90.9062 130.344 90 129.719 88.8516 129.719C86.7891 129.719 85.375 131.359 85.375 133.883V133.891C85.375 136.43 86.7734 138.078 88.8203 138.078C89.9844 138.078 90.9219 137.5 91.4062 136.602H91.4375V137.641C91.4375 138.898 90.625 139.688 89.1953 139.688C88.0859 139.688 87.3125 139.328 87.0547 138.742L87.0234 138.672H85.6562L85.6719 138.742C85.9375 139.945 87.2031 140.891 89.2109 140.891ZM89.1172 136.875C87.6719 136.875 86.7656 135.734 86.7656 133.891V133.883C86.7656 132.078 87.6719 130.922 89.1172 130.922C90.4922 130.922 91.4375 132.094 91.4375 133.883V133.891C91.4375 135.695 90.5 136.875 89.1172 136.875ZM95.3203 128.5C95.7969 128.5 96.1719 128.117 96.1719 127.648C96.1719 127.172 95.7969 126.797 95.3203 126.797C94.8516 126.797 94.4688 127.172 94.4688 127.648C94.4688 128.117 94.8516 128.5 95.3203 128.5ZM94.6406 138H96V129.875H94.6406V138ZM101.406 128.945L103.117 126.602H101.695L100.359 128.945H101.406ZM100.227 138.156C101.312 138.156 102.289 137.57 102.766 136.68H102.797V138H104.156V132.383C104.156 130.758 102.953 129.719 101.031 129.719C99.1172 129.719 97.9531 130.797 97.8359 132.133L97.8281 132.219H99.1406L99.1562 132.148C99.3125 131.422 99.9688 130.922 101.016 130.922C102.148 130.922 102.797 131.523 102.797 132.516V133.195L100.469 133.328C98.6016 133.438 97.5234 134.305 97.5234 135.688V135.703C97.5234 137.18 98.6094 138.156 100.227 138.156ZM98.9141 135.703V135.688C98.9141 134.93 99.5391 134.445 100.625 134.383L102.797 134.25V134.914C102.797 136.094 101.812 136.977 100.531 136.977C99.5547 136.977 98.9141 136.484 98.9141 135.703ZM111.805 138.156C112.07 138.156 112.359 138.125 112.531 138.102V137C112.414 137.008 112.258 137.031 112.094 137.031C111.367 137.031 110.984 136.789 110.984 135.922V131H112.531V129.875H110.984V127.68H109.578V129.875H108.391V131H109.578V135.93C109.578 137.484 110.312 138.156 111.805 138.156ZM113.992 138H115.352V132.984C115.352 131.75 116.039 131.016 117.094 131.016C117.422 131.016 117.711 131.055 117.82 131.094V129.773C117.711 129.758 117.508 129.719 117.273 129.719C116.359 129.719 115.656 130.312 115.383 131.25H115.352V129.875H113.992V138ZM119.695 128.5C120.172 128.5 120.547 128.117 120.547 127.648C120.547 127.172 120.172 126.797 119.695 126.797C119.227 126.797 118.844 127.172 118.844 127.648C118.844 128.117 119.227 128.5 119.695 128.5ZM119.016 138H120.375V129.875H119.016V138ZM119.695 141.078C120.172 141.078 120.547 140.695 120.547 140.227C120.547 139.75 120.172 139.375 119.695 139.375C119.227 139.375 118.844 139.75 118.844 140.227C118.844 140.695 119.227 141.078 119.695 141.078ZM128.945 140.891C131.148 140.891 132.531 139.656 132.531 137.773V129.875H131.172V131.25H131.141C130.641 130.344 129.734 129.719 128.586 129.719C126.523 129.719 125.109 131.359 125.109 133.883V133.891C125.109 136.43 126.508 138.078 128.555 138.078C129.719 138.078 130.656 137.5 131.141 136.602H131.172V137.641C131.172 138.898 130.359 139.688 128.93 139.688C127.82 139.688 127.047 139.328 126.789 138.742L126.758 138.672H125.391L125.406 138.742C125.672 139.945 126.938 140.891 128.945 140.891ZM128.852 136.875C127.406 136.875 126.5 135.734 126.5 133.891V133.883C126.5 132.078 127.406 130.922 128.852 130.922C130.227 130.922 131.172 132.094 131.172 133.883V133.891C131.172 135.695 130.234 136.875 128.852 136.875ZM135.055 128.5C135.531 128.5 135.906 128.117 135.906 127.648C135.906 127.172 135.531 126.797 135.055 126.797C134.586 126.797 134.203 127.172 134.203 127.648C134.203 128.117 134.586 128.5 135.055 128.5ZM134.375 138H135.734V129.875H134.375V138ZM139.961 138.156C141.047 138.156 142.023 137.57 142.5 136.68H142.531V138H143.891V132.383C143.891 130.758 142.688 129.719 140.766 129.719C138.852 129.719 137.688 130.797 137.57 132.133L137.562 132.219H138.875L138.891 132.148C139.047 131.422 139.703 130.922 140.75 130.922C141.883 130.922 142.531 131.523 142.531 132.516V133.195L140.203 133.328C138.336 133.438 137.258 134.305 137.258 135.688V135.703C137.258 137.18 138.344 138.156 139.961 138.156ZM138.648 135.703V135.688C138.648 134.93 139.273 134.445 140.359 134.383L142.531 134.25V134.914C142.531 136.094 141.547 136.977 140.266 136.977C139.289 136.977 138.648 136.484 138.648 135.703ZM148.984 138.156C151.227 138.156 152.742 136.531 152.742 133.938V133.922C152.742 131.328 151.219 129.719 148.977 129.719C146.734 129.719 145.219 131.336 145.219 133.922V133.938C145.219 136.523 146.727 138.156 148.984 138.156ZM148.992 136.953C147.555 136.953 146.609 135.852 146.609 133.938V133.922C146.609 132.023 147.562 130.922 148.977 130.922C150.414 130.922 151.352 132.016 151.352 133.922V133.938C151.352 135.844 150.422 136.953 148.992 136.953ZM160.453 138.156C161.617 138.156 162.523 137.57 163.031 136.625H163.062V138H164.422V126.727H163.062V131.234H163.031C162.523 130.297 161.578 129.719 160.43 129.719C158.391 129.719 157 131.367 157 133.93V133.938C157 136.5 158.375 138.156 160.453 138.156ZM160.719 136.953C159.281 136.953 158.391 135.805 158.391 133.938V133.93C158.391 132.078 159.281 130.922 160.719 130.922C162.086 130.922 163.07 132.117 163.07 133.93V133.938C163.07 135.758 162.094 136.953 160.719 136.953ZM167.023 128.5C167.5 128.5 167.875 128.117 167.875 127.648C167.875 127.172 167.5 126.797 167.023 126.797C166.555 126.797 166.172 127.172 166.172 127.648C166.172 128.117 166.555 128.5 167.023 128.5ZM166.344 138H167.703V129.875H166.344V138ZM167.023 141.078C167.5 141.078 167.875 140.695 167.875 140.227C167.875 139.75 167.5 139.375 167.023 139.375C166.555 139.375 166.172 139.75 166.172 140.227C166.172 140.695 166.555 141.078 167.023 141.078ZM172.922 138.156C174.758 138.156 176.094 136.961 176.312 135.414L176.32 135.359H174.984L174.969 135.422C174.742 136.328 174.031 136.953 172.922 136.953C171.516 136.953 170.547 135.836 170.547 133.945V133.938C170.547 132.094 171.492 130.922 172.906 130.922C174.102 130.922 174.758 131.641 174.961 132.453L174.977 132.516H176.305L176.297 132.453C176.125 131.062 174.93 129.719 172.906 129.719C170.648 129.719 169.156 131.359 169.156 133.922V133.93C169.156 136.516 170.617 138.156 172.922 138.156ZM177.641 138H179V133.258C179 131.875 179.836 130.922 181.094 130.922C182.359 130.922 183.109 131.789 183.109 133.258V138H184.469V133.023C184.469 131.055 183.289 129.719 181.562 129.719C180.352 129.719 179.469 130.258 179.031 131.172H179V126.727H177.641V138ZM189.43 138H197.352V136.352H192.094V136.266L194.578 133.906C196.562 132 197.18 131.102 197.18 129.773V129.758C197.18 127.898 195.602 126.531 193.344 126.531C191.055 126.531 189.32 128.008 189.32 130.07V130.125H191.211V130.07C191.234 128.984 192.109 128.148 193.359 128.148C194.445 128.148 195.203 128.867 195.211 129.875V129.891C195.211 130.727 194.891 131.297 193.414 132.742L189.43 136.625V138ZM202.922 138.195C205.414 138.195 207.133 136.82 207.133 134.859V134.844C207.133 133.281 206.031 132.297 204.367 132.141V132.102C205.719 131.82 206.734 130.891 206.734 129.492V129.477C206.734 127.727 205.227 126.531 202.898 126.531C200.625 126.531 199.086 127.797 198.922 129.703L198.914 129.797H200.789L200.797 129.719C200.898 128.75 201.711 128.133 202.898 128.133C204.109 128.133 204.797 128.727 204.797 129.742V129.758C204.797 130.742 203.969 131.445 202.727 131.445H201.438V132.945H202.773C204.211 132.945 205.086 133.602 205.086 134.789V134.805C205.086 135.828 204.219 136.547 202.914 136.547C201.594 136.547 200.719 135.883 200.609 134.969L200.602 134.883H198.672L198.68 134.977C198.836 136.867 200.445 138.195 202.922 138.195ZM211.57 138H213.547V126.727H211.555L208.609 128.797V130.648L211.523 128.648H211.57V138ZM220.344 126.531C217.914 126.531 216.125 128.164 216.125 130.438V130.453C216.125 132.57 217.656 134.133 219.828 134.133C221.352 134.133 222.477 133.352 222.922 132.32H222.969C222.969 132.445 222.961 132.562 222.953 132.68C222.875 134.812 222.117 136.547 220.305 136.547C219.297 136.547 218.609 136.047 218.305 135.273L218.281 135.203H216.281L216.297 135.289C216.648 136.992 218.211 138.195 220.297 138.195C223.172 138.195 224.898 135.969 224.898 132.242V132.227C224.898 128.273 222.828 126.531 220.344 126.531ZM220.344 132.578C219.062 132.578 218.109 131.664 218.109 130.383V130.367C218.109 129.148 219.117 128.18 220.367 128.18C221.633 128.18 222.617 129.156 222.617 130.406V130.414C222.617 131.672 221.633 132.578 220.344 132.578ZM232.641 138.164C233.031 138.164 233.375 138.125 233.602 138.094V136.633C233.469 136.641 233.32 136.664 233.133 136.664C232.422 136.664 232.062 136.406 232.062 135.594V131.219H233.602V129.719H232.062V127.617H230.086V129.719H228.914V131.219H230.086V135.758C230.086 137.461 230.906 138.164 232.641 138.164ZM237.641 128.781H238.797C239.344 128.414 239.641 127.984 239.641 127.461C239.641 126.602 238.805 126.047 237.781 126.047C237.383 126.047 237.023 126.117 236.789 126.203V127.219C236.938 127.195 237.117 127.164 237.359 127.164C237.953 127.164 238.375 127.383 238.375 127.766C238.375 128.086 238.078 128.414 237.641 128.758V128.781ZM236.047 140.75C237.773 140.75 238.742 140.102 239.375 138.281L242.352 129.719H240.305L238.359 136.344H238.305L236.367 129.719H234.242L237.219 138.008L237.102 138.344C236.852 139.039 236.438 139.25 235.695 139.25C235.422 139.25 235.195 139.211 235.047 139.18V140.664C235.281 140.703 235.672 140.75 236.047 140.75ZM49.0938 176H50.4844V167.102H50.5234L56.7266 176H58.0938V164.727H56.7031V173.625H56.6641L50.4609 164.727H49.0938V176ZM63.5391 176H64.9297L69.0859 164.727H67.6094L64.25 174.312H64.2188L60.8594 164.727H59.3828L63.5391 176ZM73.4453 176H74.8047V171.219C74.8047 169.836 75.6406 168.922 76.9219 168.922C78.1719 168.922 78.7891 169.648 78.7891 170.969V176H80.1484V170.727C80.1484 168.875 79.1172 167.719 77.3359 167.719C76.1016 167.719 75.2734 168.273 74.8359 169.031H74.8047V167.875H73.4453V176ZM85.3203 178.891C87.5234 178.891 88.9062 177.656 88.9062 175.773V167.875H87.5469V169.25H87.5156C87.0156 168.344 86.1094 167.719 84.9609 167.719C82.8984 167.719 81.4844 169.359 81.4844 171.883V171.891C81.4844 174.43 82.8828 176.078 84.9297 176.078C86.0938 176.078 87.0312 175.5 87.5156 174.602H87.5469V175.641C87.5469 176.898 86.7344 177.688 85.3047 177.688C84.1953 177.688 83.4219 177.328 83.1641 176.742L83.1328 176.672H81.7656L81.7812 176.742C82.0469 177.945 83.3125 178.891 85.3203 178.891ZM85.2266 174.875C83.7812 174.875 82.875 173.734 82.875 171.891V171.883C82.875 170.078 83.7812 168.922 85.2266 168.922C86.6016 168.922 87.5469 170.094 87.5469 171.883V171.891C87.5469 173.695 86.6094 174.875 85.2266 174.875ZM91.4688 166.945H92.6406L93.8438 165.32L95.0469 166.945H96.2188L94.4922 164.602H93.1953L91.4688 166.945ZM93.0391 176.156C94.125 176.156 95.1016 175.57 95.5781 174.68H95.6094V176H96.9688V170.383C96.9688 168.758 95.7656 167.719 93.8438 167.719C91.9297 167.719 90.7656 168.797 90.6484 170.133L90.6406 170.219H91.9531L91.9688 170.148C92.125 169.422 92.7812 168.922 93.8281 168.922C94.9609 168.922 95.6094 169.523 95.6094 170.516V171.195L93.2812 171.328C91.4141 171.438 90.3359 172.305 90.3359 173.688V173.703C90.3359 175.18 91.4219 176.156 93.0391 176.156ZM91.7266 173.703V173.688C91.7266 172.93 92.3516 172.445 93.4375 172.383L95.6094 172.25V172.914C95.6094 174.094 94.625 174.977 93.3438 174.977C92.3672 174.977 91.7266 174.484 91.7266 173.703ZM98.6953 176H100.055V171.219C100.055 169.836 100.891 168.922 102.172 168.922C103.422 168.922 104.039 169.648 104.039 170.969V176H105.398V170.727C105.398 168.875 104.367 167.719 102.586 167.719C101.352 167.719 100.523 168.273 100.086 169.031H100.055V167.875H98.6953V176ZM110.484 176H111.844V171.258C111.844 169.875 112.68 168.922 113.938 168.922C115.203 168.922 115.953 169.789 115.953 171.258V176H117.312V171.023C117.312 169.055 116.133 167.719 114.406 167.719C113.195 167.719 112.312 168.258 111.875 169.172H111.844V164.727H110.484V176ZM121.844 166.945H122.891L121.555 164.602H120.133L121.844 166.945ZM121.414 176.156C122.5 176.156 123.477 175.57 123.953 174.68H123.984V176H125.344V170.383C125.344 168.758 124.141 167.719 122.219 167.719C120.305 167.719 119.141 168.797 119.023 170.133L119.016 170.219H120.328L120.344 170.148C120.5 169.422 121.156 168.922 122.203 168.922C123.336 168.922 123.984 169.523 123.984 170.516V171.195L121.656 171.328C119.789 171.438 118.711 172.305 118.711 173.688V173.703C118.711 175.18 119.797 176.156 121.414 176.156ZM120.102 173.703V173.688C120.102 172.93 120.727 172.445 121.812 172.383L123.984 172.25V172.914C123.984 174.094 123 174.977 121.719 174.977C120.742 174.977 120.102 174.484 120.102 173.703ZM127.07 176H128.43V171.219C128.43 169.836 129.266 168.922 130.547 168.922C131.797 168.922 132.414 169.648 132.414 170.969V176H133.773V170.727C133.773 168.875 132.742 167.719 130.961 167.719C129.727 167.719 128.898 168.273 128.461 169.031H128.43V167.875H127.07V176ZM138.945 178.891C141.148 178.891 142.531 177.656 142.531 175.773V167.875H141.172V169.25H141.141C140.641 168.344 139.734 167.719 138.586 167.719C136.523 167.719 135.109 169.359 135.109 171.883V171.891C135.109 174.43 136.508 176.078 138.555 176.078C139.719 176.078 140.656 175.5 141.141 174.602H141.172V175.641C141.172 176.898 140.359 177.688 138.93 177.688C137.82 177.688 137.047 177.328 136.789 176.742L136.758 176.672H135.391L135.406 176.742C135.672 177.945 136.938 178.891 138.945 178.891ZM138.852 174.875C137.406 174.875 136.5 173.734 136.5 171.891V171.883C136.5 170.078 137.406 168.922 138.852 168.922C140.227 168.922 141.172 170.094 141.172 171.883V171.891C141.172 173.695 140.234 174.875 138.852 174.875ZM145.125 170.062C145.625 170.062 146.016 169.672 146.016 169.172C146.016 168.672 145.625 168.281 145.125 168.281C144.625 168.281 144.234 168.672 144.234 169.172C144.234 169.672 144.625 170.062 145.125 170.062ZM145.125 176.109C145.625 176.109 146.016 175.719 146.016 175.219C146.016 174.719 145.625 174.328 145.125 174.328C144.625 174.328 144.234 174.719 144.234 175.219C144.234 175.719 144.625 176.109 145.125 176.109ZM155.141 164.531C152.711 164.531 150.922 166.164 150.922 168.438V168.453C150.922 170.57 152.453 172.133 154.625 172.133C156.148 172.133 157.273 171.352 157.719 170.32H157.766C157.766 170.445 157.758 170.562 157.75 170.68C157.672 172.812 156.914 174.547 155.102 174.547C154.094 174.547 153.406 174.047 153.102 173.273L153.078 173.203H151.078L151.094 173.289C151.445 174.992 153.008 176.195 155.094 176.195C157.969 176.195 159.695 173.969 159.695 170.242V170.227C159.695 166.273 157.625 164.531 155.141 164.531ZM155.141 170.578C153.859 170.578 152.906 169.664 152.906 168.383V168.367C152.906 167.148 153.914 166.18 155.164 166.18C156.43 166.18 157.414 167.156 157.414 168.406V168.414C157.414 169.672 156.43 170.578 155.141 170.578ZM165.406 176.195C167.984 176.195 169.789 174.852 169.789 172.93V172.914C169.789 171.484 168.742 170.375 167.25 170.07V170.023C168.531 169.68 169.375 168.742 169.375 167.539V167.523C169.375 165.797 167.734 164.531 165.406 164.531C163.086 164.531 161.438 165.797 161.438 167.523V167.539C161.438 168.742 162.281 169.68 163.562 170.023V170.07C162.07 170.375 161.031 171.484 161.031 172.914V172.93C161.031 174.852 162.828 176.195 165.406 176.195ZM165.406 169.383C164.234 169.383 163.43 168.703 163.43 167.727V167.711C163.43 166.734 164.242 166.055 165.406 166.055C166.57 166.055 167.383 166.734 167.383 167.711V167.727C167.383 168.703 166.578 169.383 165.406 169.383ZM165.406 174.656C164.062 174.656 163.102 173.883 163.102 172.805V172.789C163.102 171.703 164.047 170.922 165.406 170.922C166.766 170.922 167.711 171.703 167.711 172.789V172.805C167.711 173.883 166.758 174.656 165.406 174.656ZM175.523 176.195C178.281 176.195 179.953 173.953 179.953 170.367V170.352C179.953 166.766 178.281 164.531 175.523 164.531C172.758 164.531 171.094 166.766 171.094 170.352V170.367C171.094 173.953 172.758 176.195 175.523 176.195ZM175.523 174.547C174 174.547 173.125 172.969 173.125 170.367V170.352C173.125 167.75 174 166.188 175.523 166.188C177.039 166.188 177.922 167.75 177.922 170.352V170.367C177.922 172.969 177.039 174.547 175.523 174.547ZM49.0938 195H50.5V191.055L51.7031 189.734L55.7109 195H57.5078L52.6875 188.719L57.0938 183.727H55.3281L50.5469 189.258H50.5V183.727H49.0938V195ZM58.5625 195H59.9219V190.258C59.9219 188.875 60.7578 187.922 62.0156 187.922C63.2812 187.922 64.0312 188.789 64.0312 190.258V195H65.3906V190.023C65.3906 188.055 64.2109 186.719 62.4844 186.719C61.2734 186.719 60.3906 187.258 59.9531 188.172H59.9219V183.727H58.5625V195ZM70.6719 185.945L72.3828 183.602H70.9609L69.625 185.945H70.6719ZM69.4922 195.156C70.5781 195.156 71.5547 194.57 72.0312 193.68H72.0625V195H73.4219V189.383C73.4219 187.758 72.2188 186.719 70.2969 186.719C68.3828 186.719 67.2188 187.797 67.1016 189.133L67.0938 189.219H68.4062L68.4219 189.148C68.5781 188.422 69.2344 187.922 70.2812 187.922C71.4141 187.922 72.0625 188.523 72.0625 189.516V190.195L69.7344 190.328C67.8672 190.438 66.7891 191.305 66.7891 192.688V192.703C66.7891 194.18 67.875 195.156 69.4922 195.156ZM68.1797 192.703V192.688C68.1797 191.93 68.8047 191.445 69.8906 191.383L72.0625 191.25V191.914C72.0625 193.094 71.0781 193.977 69.7969 193.977C68.8203 193.977 68.1797 193.484 68.1797 192.703ZM78.5156 195.156C80.3516 195.156 81.6875 193.961 81.9062 192.414L81.9141 192.359H80.5781L80.5625 192.422C80.3359 193.328 79.625 193.953 78.5156 193.953C77.1094 193.953 76.1406 192.836 76.1406 190.945V190.938C76.1406 189.094 77.0859 187.922 78.5 187.922C79.6953 187.922 80.3516 188.641 80.5547 189.453L80.5703 189.516H81.8984L81.8906 189.453C81.7188 188.062 80.5234 186.719 78.5 186.719C76.2422 186.719 74.75 188.359 74.75 190.922V190.93C74.75 193.516 76.2109 195.156 78.5156 195.156ZM83.2344 195H84.5938V190.258C84.5938 188.875 85.4297 187.922 86.6875 187.922C87.9531 187.922 88.7031 188.789 88.7031 190.258V195H90.0625V190.023C90.0625 188.055 88.8828 186.719 87.1562 186.719C85.9453 186.719 85.0625 187.258 84.625 188.172H84.5938V183.727H83.2344V195ZM95.1406 195H96.5V190.258C96.5 188.875 97.3359 187.922 98.5938 187.922C99.8594 187.922 100.609 188.789 100.609 190.258V195H101.969V190.023C101.969 188.055 100.789 186.719 99.0625 186.719C97.8516 186.719 96.9688 187.258 96.5312 188.172H96.5V183.727H95.1406V195ZM106.5 185.945H107.547L106.211 183.602H104.789L106.5 185.945ZM106.07 195.156C107.156 195.156 108.133 194.57 108.609 193.68H108.641V195H110V189.383C110 187.758 108.797 186.719 106.875 186.719C104.961 186.719 103.797 187.797 103.68 189.133L103.672 189.219H104.984L105 189.148C105.156 188.422 105.812 187.922 106.859 187.922C107.992 187.922 108.641 188.523 108.641 189.516V190.195L106.312 190.328C104.445 190.438 103.367 191.305 103.367 192.688V192.703C103.367 194.18 104.453 195.156 106.07 195.156ZM104.758 192.703V192.688C104.758 191.93 105.383 191.445 106.469 191.383L108.641 191.25V191.914C108.641 193.094 107.656 193.977 106.375 193.977C105.398 193.977 104.758 193.484 104.758 192.703ZM111.727 195H113.086V190.219C113.086 188.836 113.922 187.922 115.203 187.922C116.453 187.922 117.07 188.648 117.07 189.969V195H118.43V189.727C118.43 187.875 117.398 186.719 115.617 186.719C114.383 186.719 113.555 187.273 113.117 188.031H113.086V186.875H111.727V195ZM123.602 197.891C125.805 197.891 127.188 196.656 127.188 194.773V186.875H125.828V188.25H125.797C125.297 187.344 124.391 186.719 123.242 186.719C121.18 186.719 119.766 188.359 119.766 190.883V190.891C119.766 193.43 121.164 195.078 123.211 195.078C124.375 195.078 125.312 194.5 125.797 193.602H125.828V194.641C125.828 195.898 125.016 196.688 123.586 196.688C122.477 196.688 121.703 196.328 121.445 195.742L121.414 195.672H120.047L120.062 195.742C120.328 196.945 121.594 197.891 123.602 197.891ZM123.508 193.875C122.062 193.875 121.156 192.734 121.156 190.891V190.883C121.156 189.078 122.062 187.922 123.508 187.922C124.883 187.922 125.828 189.094 125.828 190.883V190.891C125.828 192.695 124.891 193.875 123.508 193.875ZM129.781 189.062C130.281 189.062 130.672 188.672 130.672 188.172C130.672 187.672 130.281 187.281 129.781 187.281C129.281 187.281 128.891 187.672 128.891 188.172C128.891 188.672 129.281 189.062 129.781 189.062ZM129.781 195.109C130.281 195.109 130.672 194.719 130.672 194.219C130.672 193.719 130.281 193.328 129.781 193.328C129.281 193.328 128.891 193.719 128.891 194.219C128.891 194.719 129.281 195.109 129.781 195.109ZM139.672 195.195C142.164 195.195 143.883 193.82 143.883 191.859V191.844C143.883 190.281 142.781 189.297 141.117 189.141V189.102C142.469 188.82 143.484 187.891 143.484 186.492V186.477C143.484 184.727 141.977 183.531 139.648 183.531C137.375 183.531 135.836 184.797 135.672 186.703L135.664 186.797H137.539L137.547 186.719C137.648 185.75 138.461 185.133 139.648 185.133C140.859 185.133 141.547 185.727 141.547 186.742V186.758C141.547 187.742 140.719 188.445 139.477 188.445H138.188V189.945H139.523C140.961 189.945 141.836 190.602 141.836 191.789V191.805C141.836 192.828 140.969 193.547 139.664 193.547C138.344 193.547 137.469 192.883 137.359 191.969L137.352 191.883H135.422L135.43 191.977C135.586 193.867 137.195 195.195 139.672 195.195ZM149.828 195.195C152.258 195.195 154.039 193.562 154.039 191.289V191.273C154.039 189.156 152.516 187.594 150.344 187.594C148.812 187.594 147.688 188.375 147.242 189.406H147.203C147.203 189.281 147.203 189.164 147.211 189.047C147.289 186.914 148.047 185.18 149.859 185.18C150.867 185.18 151.562 185.68 151.859 186.453L151.891 186.523H153.891L153.875 186.438C153.516 184.734 151.961 183.531 149.875 183.531C147 183.531 145.273 185.758 145.273 189.484V189.5C145.273 193.453 147.336 195.195 149.828 195.195ZM147.547 191.32V191.312C147.547 190.055 148.531 189.148 149.82 189.148C151.109 189.148 152.055 190.062 152.055 191.344V191.359C152.055 192.578 151.055 193.547 149.797 193.547C148.539 193.547 147.547 192.57 147.547 191.32ZM161.047 195H162.969V192.836H164.5V191.18H162.969V183.727H160.102L155.422 191.117V192.836H161.047V195ZM157.234 191.227V191.172L161.031 185.25H161.078V191.227H157.234ZM171.156 195H173.078V192.836H174.609V191.18H173.078V183.727H170.211L165.531 191.117V192.836H171.156V195ZM167.344 191.227V191.172L171.141 185.25H171.188V191.227H167.344ZM49.0938 214H50.4062V205.289H50.4531L54.0547 214H55.2422L58.8438 205.289H58.8906V214H60.2031V202.727H58.5781L54.6719 212.227H54.625L50.7188 202.727H49.0938V214ZM63.1719 204.945H64.3438L65.5469 203.32L66.75 204.945H67.9219L66.1953 202.602H64.8984L63.1719 204.945ZM65.5469 214.156C67.7891 214.156 69.3047 212.531 69.3047 209.938V209.922C69.3047 207.328 67.7812 205.719 65.5391 205.719C63.2969 205.719 61.7812 207.336 61.7812 209.922V209.938C61.7812 212.523 63.2891 214.156 65.5469 214.156ZM65.5547 212.953C64.1172 212.953 63.1719 211.852 63.1719 209.938V209.922C63.1719 208.023 64.125 206.922 65.5391 206.922C66.9766 206.922 67.9141 208.016 67.9141 209.922V209.938C67.9141 211.844 66.9844 212.953 65.5547 212.953ZM71.4453 204.5C71.9219 204.5 72.2969 204.117 72.2969 203.648C72.2969 203.172 71.9219 202.797 71.4453 202.797C70.9766 202.797 70.5938 203.172 70.5938 203.648C70.5938 204.117 70.9766 204.5 71.4453 204.5ZM70.7656 214H72.125V205.875H70.7656V214ZM80.6953 216.891C82.8984 216.891 84.2812 215.656 84.2812 213.773V205.875H82.9219V207.25H82.8906C82.3906 206.344 81.4844 205.719 80.3359 205.719C78.2734 205.719 76.8594 207.359 76.8594 209.883V209.891C76.8594 212.43 78.2578 214.078 80.3047 214.078C81.4688 214.078 82.4062 213.5 82.8906 212.602H82.9219V213.641C82.9219 214.898 82.1094 215.688 80.6797 215.688C79.5703 215.688 78.7969 215.328 78.5391 214.742L78.5078 214.672H77.1406L77.1562 214.742C77.4219 215.945 78.6875 216.891 80.6953 216.891ZM80.6016 212.875C79.1562 212.875 78.25 211.734 78.25 209.891V209.883C78.25 208.078 79.1562 206.922 80.6016 206.922C81.9766 206.922 82.9219 208.094 82.9219 209.883V209.891C82.9219 211.695 81.9844 212.875 80.6016 212.875ZM86.8047 204.5C87.2812 204.5 87.6562 204.117 87.6562 203.648C87.6562 203.172 87.2812 202.797 86.8047 202.797C86.3359 202.797 85.9531 203.172 85.9531 203.648C85.9531 204.117 86.3359 204.5 86.8047 204.5ZM86.125 214H87.4844V205.875H86.125V214ZM92.3594 204.945L94.0703 202.602H92.6484L91.3125 204.945H92.3594ZM92.7031 214.156C94.9453 214.156 96.4609 212.531 96.4609 209.938V209.922C96.4609 208.18 95.7734 206.883 94.6484 206.219C96.0469 205.859 96.4453 205.125 96.4766 203.664H95.2734C95.2266 205.102 94.7109 205.594 92.7031 205.719H92.6953C90.4531 205.719 88.9375 207.336 88.9375 209.922V209.938C88.9375 212.523 90.4453 214.156 92.7031 214.156ZM92.7109 212.953C91.2734 212.953 90.3281 211.852 90.3281 209.938V209.922C90.3281 208.023 91.2812 206.922 92.6953 206.922C94.1328 206.922 95.0703 208.016 95.0703 209.922V209.938C95.0703 211.844 94.1406 212.953 92.7109 212.953ZM98.6016 204.5C99.0781 204.5 99.4531 204.117 99.4531 203.648C99.4531 203.172 99.0781 202.797 98.6016 202.797C98.1328 202.797 97.75 203.172 97.75 203.648C97.75 204.117 98.1328 204.5 98.6016 204.5ZM97.9219 214H99.2812V205.875H97.9219V214ZM101.969 208.062C102.469 208.062 102.859 207.672 102.859 207.172C102.859 206.672 102.469 206.281 101.969 206.281C101.469 206.281 101.078 206.672 101.078 207.172C101.078 207.672 101.469 208.062 101.969 208.062ZM101.969 214.109C102.469 214.109 102.859 213.719 102.859 213.219C102.859 212.719 102.469 212.328 101.969 212.328C101.469 212.328 101.078 212.719 101.078 213.219C101.078 213.719 101.469 214.109 101.969 214.109ZM113.172 214H115.094V211.836H116.625V210.18H115.094V202.727H112.227L107.547 210.117V211.836H113.172V214ZM109.359 210.227V210.172L113.156 204.25H113.203V210.227H109.359ZM117.914 214H125.836V212.352H120.578V212.266L123.062 209.906C125.047 208 125.664 207.102 125.664 205.773V205.758C125.664 203.898 124.086 202.531 121.828 202.531C119.539 202.531 117.805 204.008 117.805 206.07V206.125H119.695V206.07C119.719 204.984 120.594 204.148 121.844 204.148C122.93 204.148 123.688 204.867 123.695 205.875V205.891C123.695 206.727 123.375 207.297 121.898 208.742L117.914 212.625V214ZM131.516 214.195C134.008 214.195 135.75 212.602 135.75 210.281V210.266C135.75 208.125 134.203 206.57 132.055 206.57C130.922 206.57 129.992 207.016 129.5 207.773H129.461L129.773 204.375H135.086V202.727H128.164L127.625 209.281H129.383C129.516 209.031 129.703 208.812 129.914 208.641C130.344 208.281 130.898 208.086 131.539 208.086C132.859 208.086 133.805 209.008 133.805 210.297V210.312C133.805 211.633 132.875 212.555 131.531 212.555C130.344 212.555 129.484 211.828 129.32 210.883L129.312 210.828H127.422L127.43 210.93C127.578 212.797 129.172 214.195 131.516 214.195ZM141.5 214.195C143.93 214.195 145.711 212.562 145.711 210.289V210.273C145.711 208.156 144.188 206.594 142.016 206.594C140.484 206.594 139.359 207.375 138.914 208.406H138.875C138.875 208.281 138.875 208.164 138.883 208.047C138.961 205.914 139.719 204.18 141.531 204.18C142.539 204.18 143.234 204.68 143.531 205.453L143.562 205.523H145.562L145.547 205.438C145.188 203.734 143.633 202.531 141.547 202.531C138.672 202.531 136.945 204.758 136.945 208.484V208.5C136.945 212.453 139.008 214.195 141.5 214.195ZM139.219 210.32V210.312C139.219 209.055 140.203 208.148 141.492 208.148C142.781 208.148 143.727 209.062 143.727 210.344V210.359C143.727 211.578 142.727 212.547 141.469 212.547C140.211 212.547 139.219 211.57 139.219 210.32Z" fill="white"/>
</svg>
