<svg width="14" height="14" viewBox="0 0 14 14" fill="none" xmlns="http://www.w3.org/2000/svg">
<path d="M1.1665 6.41537H12.8332V11.6654C12.8332 11.8201 12.7717 11.9684 12.6623 12.0778C12.5529 12.1872 12.4045 12.2487 12.2498 12.2487H1.74984C1.59513 12.2487 1.44675 12.1872 1.33736 12.0778C1.22796 11.9684 1.1665 11.8201 1.1665 11.6654V6.41537ZM9.9165 1.7487H12.2498C12.4045 1.7487 12.5529 1.81016 12.6623 1.91955C12.7717 2.02895 12.8332 2.17732 12.8332 2.33203V5.2487H1.1665V2.33203C1.1665 2.17732 1.22796 2.02895 1.33736 1.91955C1.44675 1.81016 1.59513 1.7487 1.74984 1.7487H4.08317V0.582031H5.24984V1.7487H8.74984V0.582031H9.9165V1.7487Z" fill="#ABABAB"/>
</svg>
