<svg width="20" height="20" viewBox="0 0 20 20" fill="none" xmlns="http://www.w3.org/2000/svg">
<path d="M5.19616 5.3788C4.13369 6.48154 3.48324 7.91643 3.35413 9.44227C3.22503 10.9681 3.62514 12.4919 4.48721 13.7575C5.34928 15.0231 6.62075 15.9533 8.08792 16.3918C9.55508 16.8303 11.1285 16.7504 12.5437 16.1655C12.6395 15.5405 12.4295 14.9405 12.3437 14.7305C12.152 14.2638 11.5203 13.4663 10.4662 12.3605C10.1845 12.0646 10.2028 11.8371 10.3037 11.163L10.3145 11.0871C10.3828 10.6255 10.4978 10.3521 12.052 10.1055C12.842 9.98047 13.0495 10.2955 13.337 10.733L13.4337 10.8763C13.707 11.2763 13.9095 11.368 14.2153 11.5063C14.3528 11.5688 14.5237 11.648 14.7528 11.7771C15.2962 12.088 15.2962 12.4388 15.2962 13.2071V13.2946C15.2962 13.6205 15.2645 13.9071 15.2145 14.1563C15.854 13.3537 16.2996 12.4144 16.5166 11.4115C16.7337 10.4085 16.7164 9.36899 16.466 8.37383C16.2156 7.37867 15.7389 6.45472 15.0731 5.67392C14.4072 4.89311 13.5701 4.27652 12.627 3.87214C12.1662 4.18297 11.5337 4.6238 11.3128 4.9263C11.2003 5.08047 11.0403 5.86964 10.5212 5.93464C10.3862 5.9513 10.2037 5.93964 10.0103 5.92714C9.49199 5.8938 8.78366 5.84797 8.55699 6.4638C8.41283 6.8538 8.38783 7.9138 8.85366 8.4638C8.92866 8.5513 8.94283 8.7138 8.89199 8.8963C8.82533 9.13547 8.69116 9.2813 8.64866 9.3113C8.56866 9.26464 8.40866 9.0788 8.29949 8.95297C8.03866 8.6488 7.71199 8.26964 7.29033 8.15297C7.13699 8.11047 6.96866 8.07547 6.80449 8.04047C6.34699 7.94464 5.82949 7.83547 5.70866 7.5788C5.62033 7.39047 5.62116 7.1313 5.62116 6.85797C5.62116 6.51047 5.62116 6.11797 5.45116 5.73714C5.39206 5.60123 5.3052 5.47917 5.19616 5.3788ZM10.0003 18.3346C5.39783 18.3346 1.66699 14.6038 1.66699 10.0013C1.66699 5.3988 5.39783 1.66797 10.0003 1.66797C14.6028 1.66797 18.3337 5.3988 18.3337 10.0013C18.3337 14.6038 14.6028 18.3346 10.0003 18.3346Z" fill="#064DD6"/>
</svg>
