<svg width="16" height="16" viewBox="0 0 16 16" fill="none" xmlns="http://www.w3.org/2000/svg">
<path d="M11.4666 8.26562C9.69994 8.26562 8.2666 9.69896 8.2666 11.4656C8.2666 12.0656 8.43327 12.6323 8.73327 13.1123C9.2866 14.039 10.2999 14.6656 11.4666 14.6656C12.6333 14.6656 13.6533 14.039 14.1999 13.1123C14.4933 12.6323 14.6666 12.0656 14.6666 11.4656C14.6666 9.69896 13.2333 8.26562 11.4666 8.26562ZM13.0533 11.0456L11.3466 12.619C11.2533 12.7056 11.1266 12.7523 11.0066 12.7523C10.8799 12.7523 10.7533 12.7056 10.6533 12.6056L9.8666 11.819C9.67327 11.6256 9.67327 11.3056 9.8666 11.1123C10.0599 10.919 10.3799 10.919 10.5733 11.1123L11.0199 11.559L12.3733 10.3056C12.5733 10.119 12.8933 10.1323 13.0799 10.3323C13.2666 10.539 13.2533 10.859 13.0533 11.0456Z" fill="#292D32"/>
<path d="M14.6663 5.82042C14.6663 6.61375 14.5397 7.34708 14.3197 8.02708C14.2797 8.16708 14.113 8.20708 13.993 8.12042C13.2663 7.58042 12.3797 7.29375 11.4663 7.29375C9.15301 7.29375 7.26634 9.18042 7.26634 11.4937C7.26634 12.2137 7.45301 12.9204 7.80634 13.5471C7.91301 13.7337 7.78634 13.9738 7.58634 13.9004C5.97967 13.3538 2.73301 11.3604 1.67967 8.02708C1.45967 7.34708 1.33301 6.61375 1.33301 5.82042C1.33301 3.76042 2.99301 2.09375 5.03967 2.09375C6.24634 2.09375 7.32634 2.68042 7.99967 3.58042C8.67301 2.68042 9.75301 2.09375 10.9597 2.09375C13.0063 2.09375 14.6663 3.76042 14.6663 5.82042Z" fill="#292D32"/>
</svg>
