<svg width="16" height="16" viewBox="0 0 16 16" fill="none" xmlns="http://www.w3.org/2000/svg">
<path d="M12.3595 2.74786L8.69288 1.37453C8.31288 1.23453 7.69288 1.23453 7.31288 1.37453L3.64621 2.74786C2.93954 3.01453 2.36621 3.8412 2.36621 4.59453V9.99453C2.36621 10.5345 2.71954 11.2479 3.15288 11.5679L6.81954 14.3079C7.46621 14.7945 8.52621 14.7945 9.17288 14.3079L12.8395 11.5679C13.2729 11.2412 13.6262 10.5345 13.6262 9.99453V4.59453C13.6329 3.8412 13.0595 3.01453 12.3595 2.74786ZM10.3195 6.4812L7.45288 9.34786C7.35288 9.44786 7.22621 9.49453 7.09954 9.49453C6.97288 9.49453 6.84621 9.44786 6.74621 9.34786L5.67954 8.26786C5.48621 8.07453 5.48621 7.75453 5.67954 7.5612C5.87288 7.36786 6.19288 7.36786 6.38621 7.5612L7.10621 8.2812L9.61954 5.76786C9.81288 5.57453 10.1329 5.57453 10.3262 5.76786C10.5195 5.9612 10.5195 6.28786 10.3195 6.4812Z" fill="#292D32"/>
</svg>
