<svg width="16" height="16" viewBox="0 0 16 16" fill="none" xmlns="http://www.w3.org/2000/svg">
<path d="M6.83301 6.68797C6.83301 7.04797 6.93301 7.1013 7.15967 7.1813L7.49967 7.3013V6.16797H7.29967C7.04634 6.16797 6.83301 6.4013 6.83301 6.68797Z" fill="#292D32"/>
<path d="M8.5 9.83255H8.7C8.96 9.83255 9.16667 9.59922 9.16667 9.31255C9.16667 8.95255 9.06667 8.89922 8.84 8.81922L8.5 8.69922V9.83255Z" fill="#292D32"/>
<path d="M13.053 3.65203L11.6863 5.0187C11.5863 5.1187 11.4597 5.16536 11.333 5.16536C11.2063 5.16536 11.0797 5.1187 10.9797 5.0187C10.7863 4.82536 10.7863 4.50536 10.9797 4.31203L12.3463 2.94536C11.173 1.94536 9.65967 1.33203 7.99967 1.33203C4.31967 1.33203 1.33301 4.3187 1.33301 7.9987C1.33301 11.6787 4.31967 14.6654 7.99967 14.6654C11.6797 14.6654 14.6663 11.6787 14.6663 7.9987C14.6663 6.3387 14.053 4.82536 13.053 3.65203ZM9.16634 7.8787C9.59301 8.03203 10.1663 8.3387 10.1663 9.3187C10.1663 10.152 9.50634 10.8387 8.69967 10.8387H8.49967V11.0054C8.49967 11.2787 8.27301 11.5054 7.99967 11.5054C7.72634 11.5054 7.49967 11.2787 7.49967 11.0054V10.8387H7.44634C6.55967 10.8387 5.83301 10.092 5.83301 9.17203C5.83301 8.89203 6.05967 8.66536 6.33301 8.66536C6.60634 8.66536 6.83301 8.89203 6.83301 9.16536C6.83301 9.53203 7.10634 9.83203 7.44634 9.83203H7.49967V8.35203L6.83301 8.1187C6.40634 7.96536 5.83301 7.6587 5.83301 6.6787C5.83301 5.84537 6.49301 5.1587 7.29967 5.1587H7.49967V4.9987C7.49967 4.72536 7.72634 4.4987 7.99967 4.4987C8.27301 4.4987 8.49967 4.72536 8.49967 4.9987V5.16536H8.55301C9.43967 5.16536 10.1663 5.91203 10.1663 6.83203C10.1663 7.10536 9.93967 7.33203 9.66634 7.33203C9.39301 7.33203 9.16634 7.10536 9.16634 6.83203C9.16634 6.46536 8.89301 6.16536 8.55301 6.16536H8.49967V7.64536L9.16634 7.8787Z" fill="#292D32"/>
<path d="M15.1267 1.1387C15.0733 1.0187 14.98 0.918698 14.8533 0.865365C14.7933 0.845365 14.7333 0.832031 14.6667 0.832031H12C11.7267 0.832031 11.5 1.0587 11.5 1.33203C11.5 1.60536 11.7267 1.83203 12 1.83203H13.46L12.3467 2.94536C12.6 3.16536 12.8333 3.3987 13.0533 3.65203L14.1667 2.5387V3.9987C14.1667 4.27203 14.3933 4.4987 14.6667 4.4987C14.94 4.4987 15.1667 4.27203 15.1667 3.9987V1.33203C15.1667 1.26536 15.1533 1.20536 15.1267 1.1387Z" fill="#292D32"/>
</svg>
