<svg width="16" height="16" viewBox="0 0 16 16" fill="none" xmlns="http://www.w3.org/2000/svg">
<path d="M14.6136 11.1658C14.3936 12.9391 12.9402 14.3924 11.1669 14.6124C10.0936 14.7458 9.09357 14.4524 8.31357 13.8791C7.8669 13.5524 7.97357 12.8591 8.5069 12.6991C10.5136 12.0924 12.0936 10.5058 12.7069 8.49909C12.8669 7.97242 13.5602 7.86575 13.8869 8.30575C14.4536 9.09242 14.7469 10.0924 14.6136 11.1658Z" fill="#292D32"/>
<path d="M6.65967 1.33203C3.71967 1.33203 1.33301 3.7187 1.33301 6.6587C1.33301 9.5987 3.71967 11.9854 6.65967 11.9854C9.59967 11.9854 11.9863 9.5987 11.9863 6.6587C11.9797 3.7187 9.59967 1.33203 6.65967 1.33203ZM6.03301 5.91203L7.63967 6.47203C8.21967 6.6787 8.49967 7.08536 8.49967 7.71203C8.49967 8.43203 7.92634 9.02536 7.22634 9.02536H7.16634V9.0587C7.16634 9.33203 6.93967 9.5587 6.66634 9.5587C6.39301 9.5587 6.16634 9.33203 6.16634 9.0587V9.0187C5.42634 8.98536 4.83301 8.36537 4.83301 7.59203C4.83301 7.3187 5.05967 7.09203 5.33301 7.09203C5.60634 7.09203 5.83301 7.3187 5.83301 7.59203C5.83301 7.83203 6.00634 8.02536 6.21967 8.02536H7.21967C7.37301 8.02536 7.49301 7.88536 7.49301 7.71203C7.49301 7.4787 7.45301 7.46536 7.29967 7.41203L5.69301 6.85203C5.11967 6.65203 4.83301 6.24536 4.83301 5.61203C4.83301 4.89203 5.40634 4.2987 6.10634 4.2987H6.16634V4.27203C6.16634 3.9987 6.39301 3.77203 6.66634 3.77203C6.93967 3.77203 7.16634 3.9987 7.16634 4.27203V4.31203C7.90634 4.34536 8.49967 4.96536 8.49967 5.7387C8.49967 6.01203 8.27301 6.2387 7.99967 6.2387C7.72634 6.2387 7.49967 6.01203 7.49967 5.7387C7.49967 5.4987 7.32634 5.30536 7.11301 5.30536H6.11301C5.95967 5.30536 5.83967 5.44536 5.83967 5.6187C5.83301 5.84537 5.87301 5.8587 6.03301 5.91203Z" fill="#292D32"/>
</svg>
