<svg width="320" height="320" viewBox="0 0 320 320" fill="none" xmlns="http://www.w3.org/2000/svg">
<path d="M152.54 61.8531C188.685 65.896 204.548 34.56 240.37 38.663C272.337 42.3226 294.385 65.0994 286.923 95.7741C280.295 123.007 248.742 131.551 237.522 157.063C225.627 184.116 216.406 213.265 180.486 222.681C109.962 241.167 75.7026 154.388 70.9008 104.544C69.0597 85.4114 65.8434 39.67 90.822 33.7485C115.958 27.7818 130.394 59.3733 152.54 61.8531Z" fill="#064DD6"/>
<path opacity="0.9" d="M152.54 61.8531C188.685 65.896 204.548 34.56 240.37 38.663C272.337 42.3226 294.385 65.0994 286.923 95.7741C280.295 123.007 248.742 131.551 237.522 157.063C225.627 184.116 216.406 213.265 180.486 222.681C109.962 241.167 75.7026 154.388 70.9008 104.544C69.0597 85.4114 65.8434 39.67 90.822 33.7485C115.958 27.7818 130.394 59.3733 152.54 61.8531Z" fill="white"/>
<path d="M159.701 287.638C240.169 287.638 305.402 283.83 305.402 279.132C305.402 274.433 240.169 270.625 159.701 270.625C79.2325 270.625 14 274.433 14 279.132C14 283.83 79.2325 287.638 159.701 287.638Z" fill="#F5F5F5"/>
<path d="M50.0757 118.411L49.3262 118.465L50.3244 132.323L51.074 132.269L50.0757 118.411Z" fill="#064DD6"/>
<path d="M51.5835 139.423L50.834 139.477L51.2097 144.693L51.9593 144.639L51.5835 139.423Z" fill="#064DD6"/>
<path d="M225.611 203.178H64.6782C62.8868 203.145 61.1708 202.451 59.8609 201.229C58.5511 200.006 57.7401 198.342 57.5844 196.557L49.6791 86.7461C49.6055 85.8993 49.7102 85.0464 49.9864 84.2424C50.2625 83.4384 50.704 82.7012 51.2823 82.0782C51.8607 81.4553 52.5632 80.9603 53.3444 80.6254C54.1257 80.2904 54.9685 80.1227 55.8185 80.1333H216.752C218.542 80.1653 220.257 80.8585 221.567 82.0794C222.876 83.3003 223.688 84.9626 223.845 86.7461L231.751 196.557C231.824 197.404 231.719 198.258 231.443 199.062C231.167 199.866 230.726 200.604 230.148 201.228C229.569 201.851 228.867 202.347 228.086 202.683C227.305 203.018 226.462 203.187 225.611 203.178Z" fill="#064DD6"/>
<path d="M226.227 203.178H65.2935C63.5021 203.145 61.786 202.451 60.4762 201.229C59.1663 200.006 58.3553 198.342 58.1997 196.557L50.2943 86.7461C50.2208 85.8993 50.3254 85.0464 50.6016 84.2424C50.8777 83.4384 51.3192 82.7012 51.8976 82.0782C52.4759 81.4553 53.1784 80.9603 53.9597 80.6254C54.7409 80.2904 55.5837 80.1227 56.4337 80.1333H217.367C219.157 80.1653 220.872 80.8585 222.182 82.0794C223.491 83.3003 224.303 84.9626 224.461 86.7461L232.366 196.557C232.441 197.405 232.337 198.258 232.061 199.063C231.785 199.868 231.344 200.606 230.766 201.23C230.187 201.854 229.484 202.35 228.702 202.685C227.921 203.02 227.077 203.188 226.227 203.178Z" fill="#064DD6"/>
<path opacity="0.5" d="M226.227 203.178H65.2935C63.5021 203.145 61.786 202.451 60.4762 201.229C59.1663 200.006 58.3553 198.342 58.1997 196.557L50.2943 86.7461C50.2208 85.8993 50.3254 85.0464 50.6016 84.2424C50.8777 83.4384 51.3192 82.7012 51.8976 82.0782C52.4759 81.4553 53.1784 80.9603 53.9597 80.6254C54.7409 80.2904 55.5837 80.1227 56.4337 80.1333H217.367C219.157 80.1653 220.872 80.8585 222.182 82.0794C223.491 83.3003 224.303 84.9626 224.461 86.7461L232.366 196.557C232.441 197.405 232.337 198.258 232.061 199.063C231.785 199.868 231.344 200.606 230.766 201.23C230.187 201.854 229.484 202.35 228.702 202.685C227.921 203.02 227.077 203.188 226.227 203.178Z" fill="white"/>
<path d="M217.607 83.4414H56.6742H56.1331C52.0226 83.7796 52.8643 90.0392 57.0123 90.0392H218.216C222.371 90.0392 222.311 83.7796 218.148 83.4414H217.607Z" fill="#064DD6"/>
<path d="M60.8676 86.7453C60.8834 86.939 60.8584 87.1339 60.7943 87.3173C60.7301 87.5008 60.6281 87.6688 60.495 87.8104C60.3618 87.952 60.2005 88.0642 60.0214 88.1396C59.8422 88.215 59.6492 88.252 59.4549 88.2482C59.0465 88.2424 58.6546 88.0857 58.3549 87.8082C58.0552 87.5307 57.8688 87.152 57.8317 86.7453C57.816 86.5522 57.8408 86.3579 57.9046 86.175C57.9683 85.992 58.0696 85.8244 58.2019 85.6829C58.3342 85.5414 58.4946 85.4291 58.6729 85.3533C58.8511 85.2774 59.0433 85.2396 59.237 85.2423C59.6467 85.2462 60.0404 85.4021 60.3417 85.6798C60.643 85.9575 60.8304 86.3372 60.8676 86.7453Z" fill="#FAFAFA"/>
<path d="M66.0297 86.7453C66.0455 86.939 66.0205 87.1339 65.9564 87.3173C65.8922 87.5008 65.7902 87.6688 65.6571 87.8104C65.524 87.952 65.3626 88.0642 65.1835 88.1396C65.0043 88.215 64.8113 88.252 64.617 88.2482C64.2086 88.2424 63.8167 88.0857 63.517 87.8082C63.2173 87.5307 63.0309 87.152 62.9938 86.7453C62.9781 86.5522 63.0029 86.3579 63.0667 86.175C63.1304 85.992 63.2317 85.8244 63.364 85.6829C63.4963 85.5414 63.6567 85.4291 63.835 85.3533C64.0132 85.2774 64.2054 85.2396 64.3991 85.2423C64.8088 85.2462 65.2025 85.4021 65.5038 85.6798C65.8051 85.9575 65.9925 86.3372 66.0297 86.7453Z" fill="#FAFAFA"/>
<path d="M71.185 86.7454C71.2008 86.9385 71.1759 87.1327 71.1122 87.3156C71.0485 87.4986 70.9472 87.6662 70.8149 87.8077C70.6826 87.9492 70.5221 88.0615 70.3439 88.1374C70.1656 88.2132 69.9735 88.251 69.7798 88.2483C69.3709 88.2442 68.9781 88.0881 68.678 87.8102C68.378 87.5324 68.1921 87.1528 68.1566 86.7454C68.1397 86.552 68.1637 86.3573 68.227 86.1738C68.2903 85.9904 68.3915 85.8223 68.5241 85.6805C68.6566 85.5388 68.8175 85.4265 68.9963 85.351C69.1751 85.2756 69.3678 85.2386 69.5619 85.2425C69.9703 85.2482 70.3621 85.4049 70.6618 85.6825C70.9616 85.96 71.1479 86.3386 71.185 86.7454Z" fill="#FAFAFA"/>
<path d="M221.958 192.223H68.0211C67.3708 192.212 66.7477 191.96 66.2728 191.516C65.7979 191.072 65.505 190.467 65.4511 189.819L58.9509 99.5155C58.922 99.2056 58.9593 98.8931 59.0604 98.5987C59.1615 98.3044 59.324 98.0349 59.5372 97.8082C59.7504 97.5815 60.0094 97.4027 60.297 97.2838C60.5846 97.1648 60.8942 97.1084 61.2053 97.1183H215.18C215.829 97.1272 216.453 97.3777 216.928 97.8208C217.403 98.2639 217.696 98.868 217.75 99.5155L224.258 189.819C224.286 190.132 224.246 190.449 224.142 190.746C224.038 191.044 223.872 191.315 223.654 191.543C223.436 191.771 223.172 191.949 222.88 192.067C222.587 192.184 222.273 192.237 221.958 192.223Z" fill="white"/>
<path d="M157.093 157.822L154.583 123.014L146.993 118.445H126.095L128.935 157.822H157.093Z" fill="white"/>
<path d="M157.092 158.176H128.935C128.841 158.178 128.751 158.144 128.682 158.081C128.614 158.018 128.572 157.931 128.566 157.838L125.733 118.461C125.73 118.412 125.737 118.362 125.753 118.315C125.77 118.269 125.797 118.226 125.831 118.191C125.864 118.153 125.905 118.124 125.95 118.103C125.995 118.082 126.044 118.071 126.094 118.07H146.992C147.058 118.073 147.123 118.091 147.18 118.123L154.77 122.692C154.821 122.721 154.864 122.762 154.895 122.812C154.927 122.862 154.946 122.919 154.95 122.977L157.445 157.785C157.45 157.836 157.444 157.887 157.427 157.935C157.41 157.983 157.383 158.027 157.347 158.063C157.315 158.098 157.275 158.126 157.231 158.146C157.187 158.165 157.14 158.175 157.092 158.176ZM129.288 157.424H156.694L154.229 123.195L146.925 118.799H126.485L129.288 157.424Z" fill="#FF6C0E"/>
<path d="M154.583 123.014L146.993 118.445L149.781 124.502L154.583 123.014Z" fill="#EBEBEB"/>
<path d="M149.781 124.856C149.711 124.856 149.643 124.836 149.585 124.798C149.526 124.761 149.48 124.708 149.45 124.646L146.662 118.589C146.629 118.518 146.62 118.438 146.635 118.361C146.65 118.285 146.688 118.214 146.745 118.16C146.804 118.109 146.878 118.078 146.956 118.072C147.035 118.065 147.113 118.083 147.18 118.123L154.77 122.692C154.831 122.729 154.881 122.782 154.913 122.846C154.945 122.91 154.958 122.981 154.951 123.052C154.941 123.122 154.912 123.187 154.866 123.24C154.821 123.293 154.762 123.332 154.695 123.353L149.886 124.856H149.781ZM147.819 119.355L149.976 124.052L153.733 122.902L147.819 119.355Z" fill="#FF6C0E"/>
<path d="M137.907 136.18C137.918 136.384 137.888 136.589 137.817 136.78C137.747 136.972 137.638 137.148 137.497 137.297C137.356 137.445 137.187 137.563 136.999 137.644C136.811 137.724 136.608 137.766 136.404 137.766C135.975 137.758 135.564 137.592 135.25 137.299C134.937 137.006 134.743 136.607 134.706 136.18C134.686 135.974 134.711 135.765 134.779 135.569C134.846 135.373 134.954 135.194 135.097 135.043C135.239 134.893 135.412 134.774 135.603 134.695C135.795 134.616 136.001 134.58 136.209 134.587C136.638 134.596 137.049 134.764 137.363 135.058C137.676 135.352 137.87 135.752 137.907 136.18Z" fill="#FF6C0E"/>
<path d="M148.202 136.179C148.22 136.385 148.194 136.592 148.126 136.787C148.058 136.982 147.95 137.161 147.808 137.311C147.665 137.46 147.493 137.578 147.302 137.657C147.111 137.735 146.905 137.772 146.699 137.765C146.269 137.757 145.857 137.591 145.542 137.298C145.227 137.006 145.032 136.607 144.993 136.179C144.981 135.974 145.01 135.769 145.08 135.576C145.15 135.383 145.259 135.207 145.4 135.058C145.541 134.908 145.711 134.789 145.899 134.708C146.088 134.627 146.291 134.586 146.496 134.586C146.927 134.592 147.341 134.758 147.657 135.053C147.972 135.348 148.166 135.749 148.202 136.179Z" fill="#FF6C0E"/>
<path d="M151.118 146.504C151.026 146.503 150.939 146.467 150.872 146.405C150.805 146.342 150.764 146.257 150.757 146.166C150.569 143.603 146.556 141.522 141.815 141.522C138.666 141.522 135.84 142.461 134.443 143.964C134.156 144.241 133.931 144.576 133.783 144.946C133.635 145.317 133.568 145.715 133.586 146.113C133.59 146.163 133.583 146.212 133.568 146.259C133.552 146.306 133.527 146.349 133.495 146.387C133.429 146.462 133.336 146.508 133.237 146.515C133.137 146.522 133.039 146.489 132.963 146.424C132.888 146.358 132.842 146.266 132.835 146.166C132.812 145.668 132.894 145.17 133.075 144.706C133.257 144.241 133.533 143.82 133.887 143.468C135.39 141.822 138.448 140.793 141.792 140.793C147 140.793 151.245 143.13 151.456 146.113C151.459 146.161 151.453 146.208 151.437 146.253C151.422 146.298 151.398 146.34 151.366 146.375C151.335 146.411 151.297 146.44 151.254 146.461C151.211 146.481 151.165 146.494 151.118 146.497V146.504Z" fill="#FF6C0E"/>
<path d="M132.024 132.96C131.932 132.958 131.844 132.923 131.776 132.862C131.707 132.793 131.669 132.7 131.669 132.603C131.669 132.506 131.707 132.412 131.776 132.343L133.376 130.623C133.445 130.556 133.537 130.52 133.632 130.52C133.727 130.52 133.819 130.556 133.887 130.623C133.921 130.656 133.948 130.696 133.966 130.74C133.984 130.784 133.993 130.831 133.993 130.878C133.993 130.926 133.984 130.973 133.966 131.016C133.948 131.06 133.921 131.1 133.887 131.134L132.287 132.854C132.252 132.889 132.211 132.916 132.166 132.934C132.121 132.952 132.072 132.961 132.024 132.96Z" fill="#FF6C0E"/>
<path d="M150.367 132.96C150.276 132.955 150.189 132.921 150.119 132.862L148.278 131.141C148.243 131.107 148.215 131.067 148.197 131.023C148.178 130.978 148.168 130.93 148.168 130.882C148.168 130.833 148.178 130.786 148.197 130.741C148.215 130.697 148.243 130.656 148.278 130.623C148.347 130.556 148.438 130.52 148.533 130.52C148.629 130.52 148.72 130.556 148.789 130.623L150.63 132.343C150.664 132.377 150.69 132.417 150.709 132.461C150.727 132.504 150.736 132.551 150.736 132.599C150.736 132.646 150.727 132.693 150.709 132.737C150.69 132.781 150.664 132.821 150.63 132.854C150.559 132.921 150.465 132.959 150.367 132.96Z" fill="#FF6C0E"/>
<path d="M123.825 165.602H125.524L127.973 168.863L127.74 165.602H129.454L129.874 171.493H128.139L125.704 168.254L125.937 171.493H124.223L123.825 165.602Z" fill="#FF6C0E"/>
<path d="M130.641 168.546C130.583 168.146 130.61 167.738 130.722 167.349C130.833 166.961 131.026 166.6 131.287 166.291C131.573 166.011 131.915 165.794 132.29 165.655C132.666 165.517 133.067 165.459 133.466 165.487C134.313 165.441 135.145 165.724 135.788 166.276C136.378 166.863 136.719 167.654 136.743 168.486C136.805 169.059 136.727 169.639 136.517 170.177C136.323 170.609 135.997 170.969 135.585 171.206C135.092 171.471 134.537 171.598 133.977 171.574C133.402 171.592 132.83 171.485 132.302 171.259C131.838 171.036 131.447 170.687 131.174 170.252C130.852 169.739 130.668 169.151 130.641 168.546ZM132.467 168.546C132.46 169.007 132.608 169.457 132.888 169.823C133.005 169.953 133.149 170.055 133.31 170.122C133.471 170.19 133.645 170.221 133.82 170.214C133.986 170.226 134.153 170.197 134.306 170.13C134.459 170.064 134.594 169.961 134.699 169.831C134.915 169.42 134.986 168.949 134.902 168.493C134.905 168.051 134.756 167.622 134.481 167.276C134.36 167.149 134.214 167.049 134.052 166.983C133.89 166.917 133.716 166.886 133.542 166.893C133.378 166.886 133.215 166.917 133.066 166.985C132.917 167.053 132.787 167.155 132.685 167.283C132.465 167.671 132.388 168.123 132.467 168.561V168.546Z" fill="#FF6C0E"/>
<path d="M140.275 165.595H142.981C143.427 165.581 143.871 165.655 144.288 165.813C144.618 165.952 144.912 166.165 145.145 166.437C145.381 166.713 145.563 167.032 145.678 167.376C145.8 167.746 145.876 168.13 145.904 168.519C145.962 169.01 145.923 169.507 145.791 169.984C145.688 170.314 145.504 170.613 145.258 170.856C145.052 171.074 144.793 171.234 144.506 171.322C144.157 171.423 143.795 171.478 143.432 171.487H140.734L140.275 165.595ZM142.192 166.933L142.425 170.149H142.868C143.142 170.167 143.417 170.124 143.672 170.022C143.84 169.924 143.964 169.765 144.018 169.578C144.104 169.245 144.124 168.898 144.078 168.556C144.092 168.098 143.952 167.648 143.68 167.279C143.54 167.153 143.376 167.057 143.197 166.997C143.019 166.938 142.83 166.916 142.643 166.933H142.192Z" fill="#FF6C0E"/>
<path d="M150.268 170.516H148.202L147.984 171.493H146.128L147.916 165.602H149.93L152.568 171.493H150.659L150.268 170.516ZM149.795 169.246L148.999 167.127L148.503 169.246H149.795Z" fill="#FF6C0E"/>
<path d="M151.712 165.602H157.243L157.348 167.059H155.492L155.807 171.493H153.989L153.673 167.059H151.817L151.712 165.602Z" fill="#FF6C0E"/>
<path d="M161.48 170.516H159.414L159.196 171.493H157.34L159.128 165.602H161.112L163.742 171.493H161.841L161.48 170.516ZM161.007 169.246L160.203 167.127L159.699 169.246H161.007Z" fill="#FF6C0E"/>
<path d="M237.62 96.4033C238.289 96.0651 239.123 95.6518 239.829 95.2235C240.536 94.7952 241.332 94.3819 242.084 93.931C243.549 93.0217 245.037 92.1275 246.442 91.1356C249.265 89.2044 251.91 87.0266 254.348 84.6279C254.656 84.3423 254.926 84.0267 255.219 83.7186L255.648 83.2602L255.858 83.0348L255.963 82.9146C255.858 83.1175 255.963 83.0573 255.963 82.862C256.029 82.5936 256.067 82.3191 256.076 82.0429C256.059 80.445 255.875 78.8533 255.527 77.2936C254.859 73.9271 253.844 70.4553 252.845 67.0587L255.76 65.7812C257.601 69.0401 259.138 72.4611 260.352 76.0011C261.034 77.9142 261.468 79.9068 261.644 81.9302C261.69 82.5593 261.67 83.1914 261.584 83.8163C261.473 84.6999 261.159 85.5459 260.667 86.2886L260.54 86.4615L260.442 86.5817L260.329 86.7245L260.096 87.01L259.63 87.5736C259.322 87.9418 259.022 88.3251 258.691 88.6783C256.121 91.53 253.254 94.0995 250.139 96.3432C248.637 97.4553 247.043 98.5224 245.413 99.4918C244.609 99.9803 243.79 100.446 242.955 100.905C242.121 101.363 241.31 101.784 240.348 102.235L237.62 96.4033Z" fill="#FFD5AF"/>
<path d="M230.932 273.073C231.495 273.059 232.054 272.983 232.6 272.848C232.628 272.839 232.653 272.824 232.673 272.803C232.693 272.782 232.706 272.756 232.713 272.727C232.717 272.699 232.712 272.669 232.7 272.643C232.689 272.616 232.67 272.594 232.646 272.577C232.428 272.434 230.519 271.202 229.782 271.533C229.701 271.571 229.631 271.63 229.579 271.704C229.528 271.778 229.497 271.864 229.489 271.953C229.46 272.095 229.467 272.242 229.511 272.38C229.554 272.518 229.632 272.643 229.737 272.743C230.083 272.994 230.507 273.111 230.932 273.073ZM232.172 272.637C231.082 272.855 230.256 272.818 229.918 272.525C229.85 272.455 229.801 272.37 229.774 272.277C229.748 272.184 229.746 272.085 229.767 271.991C229.77 271.951 229.783 271.913 229.806 271.88C229.828 271.847 229.859 271.82 229.895 271.803C230.293 271.63 231.398 272.186 232.172 272.637Z" fill="#064DD6"/>
<path d="M232.592 272.853H232.667C232.689 272.839 232.708 272.821 232.721 272.798C232.734 272.776 232.741 272.751 232.743 272.725C232.743 272.643 232.743 270.832 232.051 270.23C231.969 270.151 231.869 270.091 231.759 270.056C231.65 270.02 231.534 270.011 231.42 270.028C231.301 270.028 231.187 270.07 231.095 270.145C231.004 270.22 230.941 270.325 230.917 270.441C230.774 271.192 231.916 272.507 232.517 272.853C232.542 272.86 232.568 272.86 232.592 272.853ZM231.518 270.306C231.64 270.306 231.758 270.351 231.848 270.433C232.245 271.018 232.45 271.711 232.434 272.417C231.833 271.936 231.119 270.914 231.21 270.486C231.21 270.418 231.262 270.328 231.45 270.306H231.518Z" fill="#064DD6"/>
<path d="M232.007 77.6094C231.255 81.3667 229.752 88.8813 232.345 91.3987C232.345 91.3987 231.323 95.156 224.387 95.156C216.752 95.156 220.742 91.3987 220.742 91.3987C224.906 90.4068 224.793 87.3182 224.071 84.4101L232.007 77.6094Z" fill="#FFD5AF"/>
<path d="M219.277 92.9063C218.082 93.0716 219.104 89.9681 219.585 89.6449C220.712 88.8935 235.261 87.8489 235.163 89.6449C235.103 90.3964 234.742 91.8993 234.111 92.3953C233.48 92.8912 229.737 91.3432 219.277 92.9063Z" fill="#263238"/>
<path d="M221.652 91.8395C220.697 92.1626 220.788 89.0365 221.111 88.6608C221.862 87.7891 233.638 84.7683 233.983 86.4741C234.119 87.2255 234.186 88.7285 233.78 89.262C233.375 89.7955 229.918 88.9163 221.652 91.8395Z" fill="#263238"/>
<path d="M217.27 70.8809C217.223 70.883 217.176 70.8738 217.133 70.8542C217.09 70.8346 217.052 70.8052 217.022 70.7682C216.793 70.4725 216.497 70.2348 216.159 70.0742C215.821 69.9137 215.45 69.8348 215.076 69.8439C215.037 69.8491 214.997 69.8464 214.959 69.8359C214.921 69.8254 214.885 69.8073 214.855 69.7827C214.824 69.7582 214.798 69.7276 214.779 69.693C214.76 69.6583 214.749 69.6201 214.745 69.5809C214.739 69.5035 214.763 69.4266 214.812 69.3663C214.861 69.3061 214.931 69.2672 215.008 69.2577C215.481 69.2336 215.953 69.3242 216.384 69.5217C216.814 69.7193 217.19 70.018 217.481 70.3924C217.531 70.4534 217.555 70.5318 217.548 70.6106C217.541 70.6893 217.503 70.7622 217.443 70.8133C217.392 70.8499 217.332 70.8732 217.27 70.8809Z" fill="#263238"/>
<path d="M215.812 74.5547C215.472 75.7535 214.966 76.8991 214.31 77.9587C214.585 78.1172 214.892 78.2134 215.209 78.2407C215.526 78.268 215.844 78.2256 216.143 78.1166L215.812 74.5547Z" fill="#FFAA5C"/>
<path d="M216.18 73.6474C216.233 74.1509 216 74.5868 215.669 74.6169C215.338 74.6469 215.03 74.2712 214.985 73.7602C214.94 73.2492 215.166 72.8208 215.489 72.7907C215.812 72.7607 216.127 73.1364 216.18 73.6474Z" fill="#263238"/>
<path d="M215.64 72.8033L214.393 72.5703C214.393 72.5703 215.106 73.457 215.64 72.8033Z" fill="#263238"/>
<path d="M239.882 272.711H233.585L234.081 258.133H240.378L239.882 272.711Z" fill="#FFD5AF"/>
<path d="M233.089 271.977H240.16C240.282 271.974 240.401 272.016 240.494 272.095C240.586 272.174 240.647 272.284 240.664 272.405L241.468 277.996C241.484 278.137 241.469 278.28 241.426 278.416C241.382 278.551 241.311 278.676 241.216 278.782C241.121 278.888 241.004 278.972 240.874 279.03C240.744 279.087 240.603 279.116 240.461 279.116C237.996 279.078 236.809 278.928 233.697 278.928C231.781 278.928 228.986 279.131 226.348 279.131C223.711 279.131 223.56 276.516 224.665 276.283C229.595 275.216 230.376 273.758 232.037 272.36C232.333 272.114 232.704 271.979 233.089 271.977Z" fill="#263238"/>
<g opacity="0.2">
<path opacity="0.2" d="M240.377 258.129H234.08L233.824 265.644H240.121L240.377 258.129Z" fill="black"/>
</g>
<path d="M214.836 100.104C210.982 98.6058 207.208 96.9128 203.526 95.0317C199.723 93.1736 196.101 90.9674 192.705 88.4414C191.798 87.7307 190.939 86.9599 190.135 86.1344C189.925 85.9089 189.714 85.6985 189.511 85.4355C189.273 85.1667 189.052 84.8831 188.85 84.5864C188.296 83.779 187.95 82.8471 187.843 81.8736C187.76 80.9507 187.886 80.021 188.211 79.1533C188.472 78.4559 188.828 77.7983 189.271 77.1995C189.997 76.2069 190.854 75.3171 191.818 74.5544C193.521 73.1986 195.359 72.0225 197.304 71.045C198.236 70.5491 199.183 70.1057 200.145 69.6924C201.106 69.2791 202.053 68.8883 203.083 68.5352L204.413 71.4283C201.136 73.4948 197.74 75.7717 195.245 78.3117C194.687 78.8774 194.195 79.5052 193.78 80.1828C193.419 80.7765 193.426 81.2198 193.487 81.1823C193.547 81.1447 193.487 81.1822 193.592 81.2574L193.892 81.5805C194.005 81.7158 194.163 81.851 194.306 81.9938C194.942 82.5797 195.618 83.122 196.327 83.617C197.878 84.7153 199.494 85.7191 201.167 86.6228C202.857 87.5697 204.601 88.4639 206.374 89.3206C209.921 91.0189 213.588 92.6495 217.188 94.1374L214.836 100.104Z" fill="#FFD5AF"/>
<path d="M206.292 69.4052L207.329 67.1508L202.58 65.5352C202.58 65.5352 201.077 69.9763 202.858 72.0203C203.602 71.9031 204.306 71.6028 204.905 71.1463C205.505 70.6898 205.981 70.0915 206.292 69.4052Z" fill="#FFD5AF"/>
<path d="M207.306 62.2768L203.526 61.1797L202.579 65.5081L207.306 67.1538V62.2768Z" fill="#FFD5AF"/>
<path d="M256.151 67.3735L256.7 62.1133L251.83 63.2856C251.83 63.2856 251.755 68.2302 254.333 69.0117L256.151 67.3735Z" fill="#FFD5AF"/>
<path d="M254.355 58.4023L251.177 59.8827L251.831 63.2418L256.7 62.092L254.355 58.4023Z" fill="#FFD5AF"/>
<path d="M232.998 70.2314C233.231 76.476 233.457 79.1136 230.639 82.6079C226.393 87.8682 218.675 86.7785 216.586 80.7293C214.708 75.2887 214.648 65.9931 220.479 62.9271C221.761 62.2455 223.196 61.9027 224.648 61.9313C226.099 61.96 227.52 62.3591 228.774 63.0908C230.028 63.8225 231.074 64.8626 231.814 66.1123C232.553 67.362 232.961 68.7798 232.998 70.2314Z" fill="#FFD5AF"/>
<path d="M230.278 82.6038C236.41 79.9511 240.438 74.3377 238.739 65.6358C237.109 57.287 231.473 56.4604 229.143 58.1888C226.814 59.9171 221.005 57.3396 217.518 60.2703C211.507 65.3577 217.188 70.7908 220.163 74.0747C221.937 77.7268 224.266 85.1963 230.278 82.6038Z" fill="#263238"/>
<path d="M227.731 64.1377C228.479 65.0973 229.492 65.8168 230.644 66.2075C231.796 66.5981 233.038 66.6428 234.215 66.3361C235.393 66.0293 236.454 65.3844 237.269 64.4811C238.085 63.5779 238.617 62.4556 238.802 61.2531C238.987 60.0505 238.815 58.8201 238.308 57.7139C237.802 56.6077 236.982 55.6741 235.951 55.0282C234.92 54.3824 233.722 54.0526 232.506 54.0797C231.29 54.1067 230.108 54.4893 229.106 55.1803C227.737 56.1861 226.822 57.6946 226.564 59.3743C226.307 61.054 226.726 62.7674 227.731 64.1377Z" fill="#064DD6"/>
<path d="M229.324 58.7739C228.444 53.7391 233.201 49.8616 239.574 51.7327C245.946 53.6038 242.579 59.2473 241.264 63.7561C239.949 68.2649 243.391 72.5632 244.819 69.129C246.247 65.6949 243.842 64.6203 243.842 64.6203C243.842 64.6203 250.605 66.3712 244.323 73.9985C238.041 81.6258 232.352 73.202 233.893 68.2348C235.14 64.2445 230.158 63.5306 229.324 58.7739Z" fill="#263238"/>
<path d="M222.959 60.6738C220.051 59.1708 215.129 57.9309 212.326 62.6501C211.003 64.9045 211.514 67.9103 211.514 67.9103L220.073 68.4739L222.959 60.6738Z" fill="#263238"/>
<path d="M210.508 66.422C210.457 66.4181 210.41 66.3948 210.377 66.357C210.343 66.3191 210.325 66.2697 210.327 66.2191C210.327 66.0913 210.545 63.0704 212.371 61.1768C216.782 56.5928 221.952 60.4253 223.425 61.6652C223.457 61.6987 223.475 61.7428 223.477 61.7889C223.478 61.835 223.462 61.88 223.433 61.9153C223.403 61.9506 223.361 61.9737 223.315 61.9803C223.27 61.9868 223.223 61.9763 223.185 61.9508C221.765 60.7334 216.82 57.0888 212.664 61.4323C210.936 63.2282 210.726 66.2116 210.726 66.2416C210.725 66.2684 210.718 66.2947 210.707 66.3188C210.695 66.3429 210.678 66.3642 210.658 66.3813C210.637 66.3983 210.613 66.4108 210.587 66.4178C210.561 66.4248 210.534 66.4263 210.508 66.422Z" fill="#263238"/>
<path d="M221.208 73.8019C221.174 74.9842 220.736 76.1192 219.968 77.0182C218.931 78.2356 217.714 77.6344 217.466 76.2667C217.218 75.0569 217.466 72.9603 218.773 72.2313C220.081 71.5024 221.223 72.4342 221.208 73.8019Z" fill="#FFD5AF"/>
<path d="M219.855 131.004C219.855 131.004 220.261 174.701 224.049 199.049C227.115 218.714 232.773 264.193 232.773 264.193H241.362C241.362 264.193 242.196 220.285 240.611 200.837C236.681 151.616 246.833 142.411 238.642 131.004H219.855Z" fill="#263238"/>
<path opacity="0.1" d="M219.855 131.004C219.855 131.004 220.261 174.701 224.049 199.049C227.115 218.714 232.773 264.193 232.773 264.193H241.362C241.362 264.193 242.196 220.285 240.611 200.837C236.681 151.616 246.833 142.411 238.642 131.004H219.855Z" fill="white"/>
<path opacity="0.3" d="M224.372 150.826C227.378 164.014 224.981 184.784 223.335 193.93C221.591 180.043 220.712 162.045 220.276 148.842C221.832 146.332 223.305 146.167 224.372 150.826Z" fill="black"/>
<path d="M231.601 264.36H242.535L243.106 260.527L231.541 260.137L231.601 264.36Z" fill="#064DD6"/>
<path d="M234.719 94.091C235.748 92.047 241.279 90.762 244.3 90.7696L246.554 100.809C246.554 100.809 240.543 109.744 238.033 108.797C235.079 107.708 232.517 98.5021 234.719 94.091Z" fill="#064DD6"/>
<path opacity="0.4" d="M234.719 94.091C235.748 92.047 241.279 90.762 244.3 90.7696L246.554 100.809C246.554 100.809 240.543 109.744 238.033 108.797C235.079 107.708 232.517 98.5021 234.719 94.091Z" fill="black"/>
<path d="M228.347 261.903C228.36 261.881 228.366 261.857 228.366 261.832C228.366 261.806 228.36 261.782 228.347 261.76C228.333 261.731 228.31 261.708 228.282 261.693C228.253 261.678 228.221 261.673 228.189 261.678C227.874 261.73 225.093 262.166 224.717 262.962C224.677 263.035 224.656 263.116 224.656 263.199C224.656 263.282 224.677 263.363 224.717 263.436C224.782 263.555 224.875 263.656 224.987 263.731C225.1 263.805 225.229 263.851 225.364 263.864C226.273 263.954 227.618 262.692 228.294 261.925L228.347 261.903ZM225.011 263.06C225.266 262.639 226.709 262.249 227.806 262.046C226.814 263.053 225.942 263.616 225.431 263.549C225.343 263.54 225.258 263.509 225.185 263.459C225.111 263.409 225.051 263.342 225.011 263.263C224.994 263.234 224.985 263.202 224.985 263.169C224.985 263.136 224.994 263.104 225.011 263.075C225.011 263.075 225.003 263.068 225.011 263.06Z" fill="#064DD6"/>
<path d="M234.907 259.233L229.151 261.795L226.589 256.452L223.237 249.464L222.839 248.652L228.595 246.09L229.038 247.007L232.285 253.777L234.907 259.233Z" fill="#FFD5AF"/>
<path opacity="0.2" d="M232.285 253.778L226.589 256.454L223.237 249.465L229.039 247.008L232.285 253.778Z" fill="black"/>
<path d="M213.107 131.004C213.107 131.004 194.719 176.753 199.701 198.245C204.21 217.7 224.123 254.544 224.123 254.544L231.841 250.682C231.841 250.682 219.524 206.203 218.194 196.539C215.594 177.752 232.299 151.203 232.299 131.004H213.107Z" fill="#263238"/>
<path opacity="0.1" d="M213.107 131.004C213.107 131.004 194.719 176.753 199.701 198.245C204.21 217.7 224.123 254.544 224.123 254.544L231.841 250.682C231.841 250.682 219.524 206.203 218.194 196.539C215.594 177.752 232.299 151.203 232.299 131.004H213.107Z" fill="white"/>
<path d="M228.129 260.995L233.841 256.84C233.937 256.764 234.058 256.727 234.18 256.736C234.302 256.744 234.417 256.797 234.502 256.885L238.447 260.935C238.543 261.041 238.615 261.166 238.659 261.301C238.704 261.437 238.719 261.58 238.704 261.722C238.689 261.864 238.644 262.001 238.573 262.124C238.501 262.248 238.405 262.355 238.289 262.438C236.268 263.851 235.223 264.437 232.713 266.263C231.165 267.39 228.084 269.877 225.95 271.433C223.816 272.989 222.193 270.96 222.944 270.125C226.311 266.368 227.017 264.039 227.543 261.927C227.625 261.558 227.832 261.229 228.129 260.995Z" fill="#263238"/>
<path d="M223.628 256.171L233.57 251.625L232.3 247.574L221.651 252.429L223.628 256.171Z" fill="#064DD6"/>
<path d="M217.985 93.6118C217.166 91.4776 209.982 89.103 206.375 88.3516L204.789 100.165C204.789 100.165 210.681 108.626 213.258 107.927C216.309 107.101 219.758 98.1882 217.985 93.6118Z" fill="#064DD6"/>
<path opacity="0.4" d="M217.985 93.6118C217.166 91.4776 209.982 89.103 206.375 88.3516L204.789 100.165C204.789 100.165 210.681 108.626 213.258 107.927C216.309 107.101 219.758 98.1882 217.985 93.6118Z" fill="black"/>
<path d="M210.101 93.0197C210.101 93.0197 207.095 94.0718 213.107 131.006H238.657C238.228 120.606 238.213 114.188 243.165 92.8319C239.585 92.0932 235.956 91.616 232.307 91.4041C228.444 91.1257 224.567 91.1257 220.704 91.4041C215.752 91.8399 210.101 93.0197 210.101 93.0197Z" fill="#064DD6"/>
<path opacity="0.4" d="M210.101 93.0197C210.101 93.0197 207.095 94.0718 213.107 131.006H238.657C238.228 120.606 238.213 114.188 243.165 92.8319C239.585 92.0932 235.956 91.616 232.307 91.4041C228.444 91.1257 224.567 91.1257 220.704 91.4041C215.752 91.8399 210.101 93.0197 210.101 93.0197Z" fill="black"/>
<path d="M239.055 129.51L240.205 131.764C240.295 131.944 240.085 132.125 239.791 132.125H212.979C212.746 132.125 212.559 132.012 212.543 131.862L212.311 129.607C212.311 129.449 212.498 129.314 212.746 129.314H238.604C238.69 129.301 238.778 129.312 238.858 129.346C238.938 129.381 239.006 129.438 239.055 129.51Z" fill="#064DD6"/>
<path opacity="0.3" d="M239.055 129.51L240.205 131.764C240.295 131.944 240.085 132.125 239.791 132.125H212.979C212.746 132.125 212.559 132.012 212.543 131.862L212.311 129.607C212.311 129.449 212.498 129.314 212.746 129.314H238.604C238.69 129.301 238.778 129.312 238.858 129.346C238.938 129.381 239.006 129.438 239.055 129.51Z" fill="white"/>
<path d="M235.598 132.415H236.289C236.432 132.415 236.537 132.34 236.522 132.257L236.199 129.252C236.199 129.161 236.071 129.094 235.936 129.094H235.237C235.102 129.094 234.997 129.161 235.004 129.252L235.327 132.257C235.32 132.325 235.44 132.415 235.598 132.415Z" fill="#263238"/>
<path d="M218.774 132.415H219.465C219.6 132.415 219.706 132.34 219.698 132.257L219.375 129.252C219.375 129.161 219.247 129.094 219.104 129.094H218.413C218.27 129.094 218.173 129.161 218.18 129.252L218.503 132.257C218.511 132.325 218.631 132.415 218.774 132.415Z" fill="#263238"/>
</svg>
