<svg width="16" height="16" viewBox="0 0 16 16" fill="none" xmlns="http://www.w3.org/2000/svg">
<path d="M0 8C0 3.58172 3.58172 0 8 0C12.4183 0 16 3.58172 16 8C16 12.4183 12.4183 16 8 16C3.58172 16 0 12.4183 0 8Z" fill="#0077B5"/>
<path fill-rule="evenodd" clip-rule="evenodd" d="M5.77299 4.9409C5.77299 5.46394 5.37928 5.88245 4.74713 5.88245H4.73554C4.12688 5.88245 3.7334 5.46394 3.7334 4.9409C3.7334 4.4068 4.13887 4 4.75908 4C5.37928 4 5.76122 4.4068 5.77299 4.9409ZM5.65358 6.62595V12.0732H3.8406V6.62595H5.65358ZM12.1918 12.0732L12.1919 8.94991C12.1919 7.27675 11.2975 6.49804 10.1044 6.49804C9.14187 6.49804 8.71092 7.02675 8.47029 7.39765V6.62609H6.6571C6.68099 7.13723 6.6571 12.0733 6.6571 12.0733H8.47029V9.03114C8.47029 8.86834 8.48206 8.70594 8.52999 8.58938C8.66102 8.26414 8.95936 7.92741 9.46023 7.92741C10.1165 7.92741 10.3789 8.42691 10.3789 9.15891V12.0732H12.1918Z" fill="white"/>
</svg>
