<svg width="16" height="16" viewBox="0 0 16 16" fill="none" xmlns="http://www.w3.org/2000/svg">
<path d="M0 8C0 3.58172 3.58172 0 8 0C12.4183 0 16 3.58172 16 8C16 12.4183 12.4183 16 8 16C3.58172 16 0 12.4183 0 8Z" fill="#55ACEE"/>
<path d="M7.7604 6.50328L7.77719 6.7801L7.4974 6.7462C6.47895 6.61627 5.58922 6.17562 4.83378 5.43555L4.46445 5.06835L4.36932 5.33952C4.16787 5.944 4.29658 6.58237 4.71627 7.01172C4.9401 7.249 4.88974 7.28289 4.50362 7.14166C4.36933 7.09646 4.25181 7.06257 4.24062 7.07952C4.20145 7.11906 4.33575 7.63315 4.44207 7.83653C4.58756 8.119 4.88414 8.39581 5.2087 8.55965L5.4829 8.68958L5.15834 8.69523C4.84497 8.69523 4.83378 8.70088 4.86735 8.81952C4.97927 9.18672 5.42134 9.57653 5.91377 9.74601L6.26072 9.86465L5.95854 10.0454C5.51088 10.3053 4.98487 10.4522 4.45886 10.4635C4.20705 10.4691 4 10.4917 4 10.5087C4 10.5652 4.68269 10.8815 5.08 11.0058C6.27191 11.373 7.68765 11.2148 8.75086 10.5878C9.5063 10.1415 10.2617 9.25452 10.6143 8.39581C10.8045 7.93822 10.9948 7.10211 10.9948 6.70101C10.9948 6.44114 11.0116 6.40724 11.3249 6.09653C11.5096 5.91575 11.6831 5.71802 11.7167 5.66153C11.7726 5.55419 11.767 5.55419 11.4816 5.65023C11.006 5.81971 10.9388 5.79711 11.1739 5.54289C11.3473 5.36211 11.5544 5.03445 11.5544 4.93841C11.5544 4.92146 11.4704 4.94971 11.3753 5.00055C11.2746 5.05705 11.0508 5.14179 10.8829 5.19263L10.5807 5.28867L10.3065 5.10224C10.1554 5.00055 9.94277 4.88757 9.83086 4.85367C9.54547 4.77458 9.109 4.78588 8.85159 4.87627C8.15211 5.13049 7.71004 5.78581 7.7604 6.50328Z" fill="white"/>
</svg>
