<svg width="16" height="16" viewBox="0 0 16 16" fill="none" xmlns="http://www.w3.org/2000/svg">
<path d="M8.00016 14.6654C4.31816 14.6654 1.3335 11.6807 1.3335 7.9987C1.3335 4.3167 4.31816 1.33203 8.00016 1.33203C11.6822 1.33203 14.6668 4.3167 14.6668 7.9987C14.6668 11.6807 11.6822 14.6654 8.00016 14.6654ZM5.66683 9.33203V10.6654H7.3335V11.9987H8.66683V10.6654H9.3335C9.77552 10.6654 10.1994 10.4898 10.512 10.1772C10.8246 9.86465 11.0002 9.44073 11.0002 8.9987C11.0002 8.55667 10.8246 8.13275 10.512 7.82019C10.1994 7.50763 9.77552 7.33203 9.3335 7.33203H6.66683C6.57842 7.33203 6.49364 7.29691 6.43113 7.2344C6.36862 7.17189 6.3335 7.0871 6.3335 6.9987C6.3335 6.91029 6.36862 6.82551 6.43113 6.763C6.49364 6.70048 6.57842 6.66536 6.66683 6.66536H10.3335V5.33203H8.66683V3.9987H7.3335V5.33203H6.66683C6.2248 5.33203 5.80088 5.50763 5.48832 5.82019C5.17576 6.13275 5.00016 6.55667 5.00016 6.9987C5.00016 7.44073 5.17576 7.86465 5.48832 8.17721C5.80088 8.48977 6.2248 8.66536 6.66683 8.66536H9.3335C9.4219 8.66536 9.50669 8.70048 9.5692 8.763C9.63171 8.82551 9.66683 8.91029 9.66683 8.9987C9.66683 9.0871 9.63171 9.17189 9.5692 9.2344C9.50669 9.29691 9.4219 9.33203 9.3335 9.33203H5.66683Z" fill="#ABABAB"/>
</svg>
