<svg width="307" height="259" viewBox="0 0 307 259" fill="none" xmlns="http://www.w3.org/2000/svg">
<g filter="url(#filter0_d_4375_53776)">
<circle cx="129.322" cy="160" r="13" fill="#FF6C0E"/>
</g>
<path d="M136.479 165.412C136.495 165.394 136.51 165.376 136.525 165.358C136.553 165.323 136.579 165.287 136.605 165.251C136.624 165.225 136.642 165.198 136.66 165.171C136.678 165.142 136.696 165.113 136.713 165.083C136.735 165.045 136.756 165.008 136.776 164.969C136.786 164.948 136.796 164.927 136.806 164.906C136.829 164.858 136.85 164.809 136.869 164.759C136.875 164.745 136.879 164.732 136.884 164.718C136.905 164.662 136.923 164.605 136.939 164.547C136.942 164.537 136.944 164.528 136.947 164.519C136.962 164.458 136.976 164.397 136.987 164.335C136.988 164.325 136.99 164.315 136.991 164.305C137.001 164.245 137.009 164.184 137.013 164.122C137.014 164.108 137.015 164.094 137.016 164.079C137.018 164.037 137.022 163.995 137.022 163.953C137.022 163.936 137.02 163.921 137.019 163.905C137.019 163.889 137.018 163.873 137.017 163.856C137.015 163.798 137.011 163.74 137.004 163.683C137.003 163.671 137 163.658 136.998 163.645C136.99 163.584 136.98 163.523 136.967 163.464C136.965 163.455 136.962 163.446 136.96 163.438C136.945 163.374 136.928 163.311 136.907 163.249C136.905 163.241 136.901 163.234 136.899 163.226C136.877 163.163 136.853 163.101 136.826 163.041C136.822 163.031 136.817 163.022 136.813 163.012C136.786 162.954 136.757 162.897 136.725 162.841C136.723 162.837 136.721 162.833 136.719 162.829L131.321 153.509C131.314 153.497 131.306 153.486 131.298 153.474C131.284 153.451 131.27 153.429 131.254 153.407C131.229 153.367 131.203 153.328 131.175 153.291C131.159 153.269 131.141 153.248 131.124 153.227C131.094 153.19 131.065 153.154 131.034 153.12C131.015 153.1 130.996 153.081 130.976 153.061C130.944 153.028 130.911 152.995 130.877 152.964C130.856 152.945 130.834 152.928 130.811 152.91C130.776 152.88 130.741 152.851 130.705 152.824C130.681 152.807 130.655 152.79 130.63 152.773C130.593 152.749 130.557 152.724 130.519 152.702C130.511 152.697 130.503 152.691 130.495 152.686C130.472 152.673 130.448 152.663 130.425 152.651C130.393 152.634 130.361 152.616 130.327 152.601C130.287 152.582 130.247 152.565 130.206 152.549C130.181 152.539 130.156 152.529 130.13 152.519C130.084 152.503 130.037 152.488 129.99 152.475C129.968 152.469 129.945 152.462 129.923 152.456C129.876 152.444 129.828 152.434 129.78 152.425C129.755 152.42 129.731 152.415 129.706 152.412C129.662 152.405 129.617 152.4 129.573 152.396C129.542 152.393 129.511 152.391 129.48 152.389C129.443 152.387 129.405 152.387 129.368 152.387C129.33 152.387 129.29 152.387 129.251 152.389C129.221 152.391 129.192 152.393 129.163 152.396C129.117 152.4 129.071 152.405 129.025 152.412C129.002 152.416 128.979 152.42 128.956 152.424C128.907 152.434 128.857 152.444 128.808 152.456C128.787 152.462 128.766 152.468 128.745 152.474C128.697 152.488 128.649 152.502 128.602 152.519C128.577 152.528 128.553 152.538 128.528 152.548C128.487 152.565 128.446 152.581 128.405 152.6C128.373 152.616 128.341 152.633 128.309 152.65C128.285 152.662 128.261 152.672 128.238 152.686C128.23 152.691 128.222 152.697 128.213 152.702C128.176 152.724 128.14 152.748 128.104 152.772C128.079 152.789 128.053 152.806 128.028 152.824C127.991 152.851 127.956 152.88 127.921 152.909C127.899 152.927 127.876 152.945 127.855 152.964C127.821 152.994 127.789 153.027 127.757 153.06C127.737 153.08 127.717 153.099 127.698 153.12C127.667 153.153 127.638 153.19 127.609 153.226C127.592 153.247 127.574 153.268 127.557 153.29C127.529 153.328 127.504 153.367 127.478 153.406C127.463 153.429 127.448 153.451 127.434 153.474C127.427 153.486 127.419 153.497 127.412 153.509L122.014 162.829C122.007 162.841 122.002 162.853 121.995 162.865C121.984 162.885 121.974 162.906 121.964 162.926C121.94 162.972 121.917 163.017 121.897 163.064C121.889 163.082 121.882 163.101 121.875 163.12C121.855 163.17 121.835 163.22 121.819 163.272C121.814 163.288 121.809 163.304 121.805 163.321C121.789 163.376 121.774 163.431 121.762 163.487C121.759 163.502 121.756 163.518 121.754 163.534C121.743 163.591 121.733 163.648 121.727 163.706C121.725 163.724 121.724 163.743 121.722 163.761C121.718 163.816 121.715 163.871 121.714 163.926C121.714 163.935 121.713 163.943 121.713 163.952C121.713 163.97 121.715 163.988 121.716 164.006C121.717 164.051 121.719 164.096 121.722 164.141C121.726 164.179 121.731 164.217 121.736 164.255C121.74 164.287 121.745 164.319 121.75 164.35C121.759 164.397 121.77 164.443 121.781 164.489C121.784 164.504 121.786 164.52 121.79 164.535C121.793 164.545 121.797 164.555 121.8 164.565C121.812 164.609 121.827 164.653 121.842 164.696C121.852 164.726 121.863 164.756 121.875 164.785C121.887 164.817 121.901 164.849 121.916 164.88C121.935 164.921 121.954 164.962 121.975 165.002C121.984 165.019 121.993 165.035 122.002 165.051C122.032 165.104 122.063 165.155 122.096 165.205L122.102 165.214C122.292 165.496 122.544 165.731 122.839 165.901C122.853 165.909 122.868 165.915 122.883 165.922C122.924 165.945 122.968 165.965 123.012 165.986C123.075 166.016 123.14 166.042 123.206 166.066C123.246 166.081 123.287 166.096 123.329 166.108C123.371 166.12 123.415 166.131 123.459 166.141C123.501 166.151 123.543 166.159 123.586 166.166C123.629 166.174 123.67 166.181 123.712 166.185C123.772 166.192 123.832 166.195 123.893 166.197C123.916 166.198 123.938 166.201 123.96 166.201C123.963 166.201 123.966 166.201 123.969 166.201H134.764C134.766 166.201 134.769 166.201 134.772 166.201C134.791 166.201 134.81 166.198 134.83 166.198C134.895 166.196 134.96 166.192 135.024 166.185C135.062 166.181 135.1 166.174 135.137 166.168C135.187 166.16 135.236 166.15 135.284 166.139C135.321 166.13 135.358 166.121 135.395 166.111C135.451 166.094 135.506 166.075 135.56 166.055C135.587 166.045 135.614 166.037 135.64 166.025C135.716 165.993 135.791 165.957 135.862 165.916C135.872 165.91 135.883 165.907 135.893 165.901C135.924 165.883 135.952 165.863 135.982 165.844C136.002 165.831 136.023 165.818 136.043 165.805C136.087 165.775 136.128 165.743 136.169 165.711C136.184 165.698 136.2 165.686 136.215 165.674C136.257 165.639 136.296 165.603 136.335 165.565C136.348 165.552 136.362 165.539 136.376 165.525C136.412 165.489 136.446 165.451 136.479 165.412V165.412ZM136.231 164.137C136.225 164.193 136.216 164.248 136.203 164.303C136.194 164.341 136.181 164.377 136.169 164.414C136.152 164.467 136.133 164.519 136.11 164.57C136.092 164.609 136.069 164.647 136.048 164.685C136.023 164.727 136 164.77 135.971 164.81C135.941 164.851 135.907 164.889 135.873 164.928C135.844 164.96 135.817 164.992 135.786 165.022C135.747 165.058 135.706 165.092 135.663 165.123C135.628 165.15 135.593 165.177 135.555 165.201C135.509 165.229 135.462 165.255 135.413 165.278C135.375 165.296 135.336 165.314 135.298 165.33C135.246 165.349 135.193 165.366 135.139 165.379C135.099 165.389 135.06 165.4 135.019 165.407C134.963 165.415 134.907 165.421 134.85 165.424C134.694 165.432 134.537 165.423 134.381 165.381C134.193 165.332 134.016 165.245 133.861 165.127C133.706 165.009 133.576 164.862 133.479 164.694L132.193 162.472H134.766C135.339 162.472 135.831 162.801 136.078 163.276C136.107 163.33 136.133 163.387 136.155 163.444C136.168 163.48 136.179 163.518 136.189 163.555C136.205 163.61 136.218 163.666 136.228 163.722C136.234 163.764 136.237 163.806 136.24 163.849C136.245 163.904 136.246 163.958 136.245 164.013C136.243 164.055 136.237 164.096 136.232 164.137L136.231 164.137ZM123.713 165.405C123.676 165.399 123.641 165.39 123.605 165.38C123.546 165.366 123.487 165.348 123.43 165.326C123.398 165.314 123.367 165.299 123.336 165.284C123.279 165.257 123.223 165.227 123.17 165.194C123.144 165.177 123.12 165.158 123.095 165.14C123.041 165.102 122.991 165.06 122.943 165.015C122.922 164.995 122.903 164.973 122.884 164.952C122.84 164.905 122.799 164.856 122.761 164.804C122.739 164.773 122.721 164.741 122.702 164.708C122.673 164.662 122.647 164.615 122.624 164.566C122.603 164.52 122.587 164.472 122.57 164.423C122.556 164.381 122.542 164.34 122.531 164.297C122.52 164.247 122.512 164.196 122.506 164.145C122.498 164.096 122.493 164.046 122.491 163.997C122.489 163.953 122.492 163.91 122.495 163.867C122.497 163.811 122.503 163.755 122.512 163.699C122.519 163.658 122.529 163.618 122.54 163.578C122.553 163.525 122.569 163.473 122.588 163.422C122.604 163.382 122.623 163.342 122.643 163.303C122.885 162.812 123.386 162.471 123.971 162.471H126.542L125.255 164.693C125.158 164.861 125.028 165.009 124.873 165.127C124.718 165.245 124.541 165.331 124.353 165.38C124.199 165.422 124.042 165.431 123.888 165.423C123.829 165.421 123.771 165.415 123.713 165.406V165.405ZM128.186 153.738C128.239 153.669 128.299 153.604 128.364 153.546C128.378 153.533 128.393 153.52 128.408 153.507C128.47 153.454 128.537 153.406 128.608 153.364C128.615 153.36 128.622 153.354 128.63 153.35C128.705 153.308 128.783 153.273 128.864 153.245C128.888 153.236 128.912 153.229 128.936 153.221C129.015 153.196 129.096 153.178 129.178 153.167C129.186 153.166 129.195 153.166 129.204 153.165C129.283 153.157 129.362 153.155 129.441 153.159C129.459 153.16 129.476 153.161 129.494 153.163C129.667 153.178 129.835 153.223 129.992 153.295C130.009 153.303 130.026 153.312 130.044 153.32C130.091 153.346 130.136 153.374 130.181 153.404C130.224 153.432 130.266 153.462 130.307 153.495C130.343 153.524 130.376 153.557 130.41 153.59C130.446 153.625 130.481 153.662 130.512 153.7C130.543 153.737 130.57 153.777 130.597 153.817C130.899 154.271 130.943 154.872 130.652 155.374L129.366 157.594L128.081 155.374C127.777 154.849 127.834 154.214 128.175 153.754C128.179 153.749 128.182 153.743 128.186 153.738ZM127.412 155.759L128.921 158.364L126.986 161.703H123.97C123.823 161.704 123.677 161.718 123.533 161.747L127.231 155.361C127.279 155.499 127.339 155.633 127.412 155.76V155.759ZM129.366 159.133L130.855 161.703H127.878L129.366 159.133ZM125.923 165.079L127.432 162.473H131.301L132.81 165.079C132.883 165.205 132.968 165.323 133.064 165.433H125.669C125.765 165.323 125.85 165.205 125.923 165.079L125.923 165.079ZM134.765 161.703H131.746L129.812 158.363L131.32 155.759C131.394 155.632 131.454 155.499 131.501 155.36L135.2 161.746C135.057 161.717 134.911 161.703 134.765 161.703" fill="white"/>
<g filter="url(#filter1_d_4375_53776)">
<circle cx="129.322" cy="160" r="13" fill="#FF6C0E"/>
</g>
<path d="M136.479 165.412C136.495 165.394 136.51 165.376 136.525 165.358C136.553 165.323 136.579 165.287 136.605 165.251C136.624 165.225 136.642 165.198 136.66 165.171C136.678 165.142 136.696 165.113 136.713 165.083C136.735 165.045 136.756 165.008 136.776 164.969C136.786 164.948 136.796 164.927 136.806 164.906C136.829 164.858 136.85 164.809 136.869 164.759C136.875 164.745 136.879 164.732 136.884 164.718C136.905 164.662 136.923 164.605 136.939 164.547C136.942 164.537 136.944 164.528 136.947 164.519C136.962 164.458 136.976 164.397 136.987 164.335C136.988 164.325 136.99 164.315 136.991 164.305C137.001 164.245 137.009 164.184 137.013 164.122C137.014 164.108 137.015 164.094 137.016 164.079C137.018 164.037 137.022 163.995 137.022 163.953C137.022 163.936 137.02 163.921 137.019 163.905C137.019 163.889 137.018 163.873 137.017 163.856C137.015 163.798 137.011 163.74 137.004 163.683C137.003 163.671 137 163.658 136.998 163.645C136.99 163.584 136.98 163.523 136.967 163.464C136.965 163.455 136.962 163.446 136.96 163.438C136.945 163.374 136.928 163.311 136.907 163.249C136.905 163.241 136.901 163.234 136.899 163.226C136.877 163.163 136.853 163.101 136.826 163.041C136.822 163.031 136.817 163.022 136.813 163.012C136.786 162.954 136.757 162.897 136.725 162.841C136.723 162.837 136.721 162.833 136.719 162.829L131.321 153.509C131.314 153.497 131.306 153.486 131.298 153.474C131.284 153.451 131.27 153.429 131.254 153.407C131.229 153.367 131.203 153.328 131.175 153.291C131.159 153.269 131.141 153.248 131.124 153.227C131.094 153.19 131.065 153.154 131.034 153.12C131.015 153.1 130.996 153.081 130.976 153.061C130.944 153.028 130.911 152.995 130.877 152.964C130.856 152.945 130.834 152.928 130.811 152.91C130.776 152.88 130.741 152.851 130.705 152.824C130.681 152.807 130.655 152.79 130.63 152.773C130.593 152.749 130.557 152.724 130.519 152.702C130.511 152.697 130.503 152.691 130.495 152.686C130.472 152.673 130.448 152.663 130.425 152.651C130.393 152.634 130.361 152.616 130.327 152.601C130.287 152.582 130.247 152.565 130.206 152.549C130.181 152.539 130.156 152.529 130.13 152.519C130.084 152.503 130.037 152.488 129.99 152.475C129.968 152.469 129.945 152.462 129.923 152.456C129.876 152.444 129.828 152.434 129.78 152.425C129.755 152.42 129.731 152.415 129.706 152.412C129.662 152.405 129.617 152.4 129.573 152.396C129.542 152.393 129.511 152.391 129.48 152.389C129.443 152.387 129.405 152.387 129.368 152.387C129.33 152.387 129.29 152.387 129.251 152.389C129.221 152.391 129.192 152.393 129.163 152.396C129.117 152.4 129.071 152.405 129.025 152.412C129.002 152.416 128.979 152.42 128.956 152.424C128.907 152.434 128.857 152.444 128.808 152.456C128.787 152.462 128.766 152.468 128.745 152.474C128.697 152.488 128.649 152.502 128.602 152.519C128.577 152.528 128.553 152.538 128.528 152.548C128.487 152.565 128.446 152.581 128.405 152.6C128.373 152.616 128.341 152.633 128.309 152.65C128.285 152.662 128.261 152.672 128.238 152.686C128.23 152.691 128.222 152.697 128.213 152.702C128.176 152.724 128.14 152.748 128.104 152.772C128.079 152.789 128.053 152.806 128.028 152.824C127.991 152.851 127.956 152.88 127.921 152.909C127.899 152.927 127.876 152.945 127.855 152.964C127.821 152.994 127.789 153.027 127.757 153.06C127.737 153.08 127.717 153.099 127.698 153.12C127.667 153.153 127.638 153.19 127.609 153.226C127.592 153.247 127.574 153.268 127.557 153.29C127.529 153.328 127.504 153.367 127.478 153.406C127.463 153.429 127.448 153.451 127.434 153.474C127.427 153.486 127.419 153.497 127.412 153.509L122.014 162.829C122.007 162.841 122.002 162.853 121.995 162.865C121.984 162.885 121.974 162.906 121.964 162.926C121.94 162.972 121.917 163.017 121.897 163.064C121.889 163.082 121.882 163.101 121.875 163.12C121.855 163.17 121.835 163.22 121.819 163.272C121.814 163.288 121.809 163.304 121.805 163.321C121.789 163.376 121.774 163.431 121.762 163.487C121.759 163.502 121.756 163.518 121.754 163.534C121.743 163.591 121.733 163.648 121.727 163.706C121.725 163.724 121.724 163.743 121.722 163.761C121.718 163.816 121.715 163.871 121.714 163.926C121.714 163.935 121.713 163.943 121.713 163.952C121.713 163.97 121.715 163.988 121.716 164.006C121.717 164.051 121.719 164.096 121.722 164.141C121.726 164.179 121.731 164.217 121.736 164.255C121.74 164.287 121.745 164.319 121.75 164.35C121.759 164.397 121.77 164.443 121.781 164.489C121.784 164.504 121.786 164.52 121.79 164.535C121.793 164.545 121.797 164.555 121.8 164.565C121.812 164.609 121.827 164.653 121.842 164.696C121.852 164.726 121.863 164.756 121.875 164.785C121.887 164.817 121.901 164.849 121.916 164.88C121.935 164.921 121.954 164.962 121.975 165.002C121.984 165.019 121.993 165.035 122.002 165.051C122.032 165.104 122.063 165.155 122.096 165.205L122.102 165.214C122.292 165.496 122.544 165.731 122.839 165.901C122.853 165.909 122.868 165.915 122.883 165.922C122.924 165.945 122.968 165.965 123.012 165.986C123.075 166.016 123.14 166.042 123.206 166.066C123.246 166.081 123.287 166.096 123.329 166.108C123.371 166.12 123.415 166.131 123.459 166.141C123.501 166.151 123.543 166.159 123.586 166.166C123.629 166.174 123.67 166.181 123.712 166.185C123.772 166.192 123.832 166.195 123.893 166.197C123.916 166.198 123.938 166.201 123.96 166.201C123.963 166.201 123.966 166.201 123.969 166.201H134.764C134.766 166.201 134.769 166.201 134.772 166.201C134.791 166.201 134.81 166.198 134.83 166.198C134.895 166.196 134.96 166.192 135.024 166.185C135.062 166.181 135.1 166.174 135.137 166.168C135.187 166.16 135.236 166.15 135.284 166.139C135.321 166.13 135.358 166.121 135.395 166.111C135.451 166.094 135.506 166.075 135.56 166.055C135.587 166.045 135.614 166.037 135.64 166.025C135.716 165.993 135.791 165.957 135.862 165.916C135.872 165.91 135.883 165.907 135.893 165.901C135.924 165.883 135.952 165.863 135.982 165.844C136.002 165.831 136.023 165.818 136.043 165.805C136.087 165.775 136.128 165.743 136.169 165.711C136.184 165.698 136.2 165.686 136.215 165.674C136.257 165.639 136.296 165.603 136.335 165.565C136.348 165.552 136.362 165.539 136.376 165.525C136.412 165.489 136.446 165.451 136.479 165.412V165.412ZM136.231 164.137C136.225 164.193 136.216 164.248 136.203 164.303C136.194 164.341 136.181 164.377 136.169 164.414C136.152 164.467 136.133 164.519 136.11 164.57C136.092 164.609 136.069 164.647 136.048 164.685C136.023 164.727 136 164.77 135.971 164.81C135.941 164.851 135.907 164.889 135.873 164.928C135.844 164.96 135.817 164.992 135.786 165.022C135.747 165.058 135.706 165.092 135.663 165.123C135.628 165.15 135.593 165.177 135.555 165.201C135.509 165.229 135.462 165.255 135.413 165.278C135.375 165.296 135.336 165.314 135.298 165.33C135.246 165.349 135.193 165.366 135.139 165.379C135.099 165.389 135.06 165.4 135.019 165.407C134.963 165.415 134.907 165.421 134.85 165.424C134.694 165.432 134.537 165.423 134.381 165.381C134.193 165.332 134.016 165.245 133.861 165.127C133.706 165.009 133.576 164.862 133.479 164.694L132.193 162.472H134.766C135.339 162.472 135.831 162.801 136.078 163.276C136.107 163.33 136.133 163.387 136.155 163.444C136.168 163.48 136.179 163.518 136.189 163.555C136.205 163.61 136.218 163.666 136.228 163.722C136.234 163.764 136.237 163.806 136.24 163.849C136.245 163.904 136.246 163.958 136.245 164.013C136.243 164.055 136.237 164.096 136.232 164.137L136.231 164.137ZM123.713 165.405C123.676 165.399 123.641 165.39 123.605 165.38C123.546 165.366 123.487 165.348 123.43 165.326C123.398 165.314 123.367 165.299 123.336 165.284C123.279 165.257 123.223 165.227 123.17 165.194C123.144 165.177 123.12 165.158 123.095 165.14C123.041 165.102 122.991 165.06 122.943 165.015C122.922 164.995 122.903 164.973 122.884 164.952C122.84 164.905 122.799 164.856 122.761 164.804C122.739 164.773 122.721 164.741 122.702 164.708C122.673 164.662 122.647 164.615 122.624 164.566C122.603 164.52 122.587 164.472 122.57 164.423C122.556 164.381 122.542 164.34 122.531 164.297C122.52 164.247 122.512 164.196 122.506 164.145C122.498 164.096 122.493 164.046 122.491 163.997C122.489 163.953 122.492 163.91 122.495 163.867C122.497 163.811 122.503 163.755 122.512 163.699C122.519 163.658 122.529 163.618 122.54 163.578C122.553 163.525 122.569 163.473 122.588 163.422C122.604 163.382 122.623 163.342 122.643 163.303C122.885 162.812 123.386 162.471 123.971 162.471H126.542L125.255 164.693C125.158 164.861 125.028 165.009 124.873 165.127C124.718 165.245 124.541 165.331 124.353 165.38C124.199 165.422 124.042 165.431 123.888 165.423C123.829 165.421 123.771 165.415 123.713 165.406V165.405ZM128.186 153.738C128.239 153.669 128.299 153.604 128.364 153.546C128.378 153.533 128.393 153.52 128.408 153.507C128.47 153.454 128.537 153.406 128.608 153.364C128.615 153.36 128.622 153.354 128.63 153.35C128.705 153.308 128.783 153.273 128.864 153.245C128.888 153.236 128.912 153.229 128.936 153.221C129.015 153.196 129.096 153.178 129.178 153.167C129.186 153.166 129.195 153.166 129.204 153.165C129.283 153.157 129.362 153.155 129.441 153.159C129.459 153.16 129.476 153.161 129.494 153.163C129.667 153.178 129.835 153.223 129.992 153.295C130.009 153.303 130.026 153.312 130.044 153.32C130.091 153.346 130.136 153.374 130.181 153.404C130.224 153.432 130.266 153.462 130.307 153.495C130.343 153.524 130.376 153.557 130.41 153.59C130.446 153.625 130.481 153.662 130.512 153.7C130.543 153.737 130.57 153.777 130.597 153.817C130.899 154.271 130.943 154.872 130.652 155.374L129.366 157.594L128.081 155.374C127.777 154.849 127.834 154.214 128.175 153.754C128.179 153.749 128.182 153.743 128.186 153.738ZM127.412 155.759L128.921 158.364L126.986 161.703H123.97C123.823 161.704 123.677 161.718 123.533 161.747L127.231 155.361C127.279 155.499 127.339 155.633 127.412 155.76V155.759ZM129.366 159.133L130.855 161.703H127.878L129.366 159.133ZM125.923 165.079L127.432 162.473H131.301L132.81 165.079C132.883 165.205 132.968 165.323 133.064 165.433H125.669C125.765 165.323 125.85 165.205 125.923 165.079L125.923 165.079ZM134.765 161.703H131.746L129.812 158.363L131.32 155.759C131.394 155.632 131.454 155.499 131.501 155.36L135.2 161.746C135.057 161.717 134.911 161.703 134.765 161.703" fill="white"/>
<path d="M143.891 240C210.165 240 263.891 186.274 263.891 120C263.891 53.7258 210.165 0 143.891 0C77.6164 0 23.8906 53.7258 23.8906 120C23.8906 186.274 77.6164 240 143.891 240Z" fill="url(#paint0_linear_4375_53776)"/>
<g filter="url(#filter2_d_4375_53776)">
<rect x="82.8906" y="34.5566" width="124.537" height="155.029" rx="16" fill="url(#paint1_linear_4375_53776)"/>
</g>
<rect x="93.8906" y="54.5566" width="50" height="9.8" rx="4.9" fill="black"/>
<rect x="93.8906" y="82.3574" width="100" height="9.8" rx="4.9" fill="#D5D5D5"/>
<rect x="93.8906" y="110.156" width="100" height="9.8" rx="4.9" fill="#D5D5D5"/>
<rect x="93.8906" y="137.957" width="100" height="9.8" rx="4.9" fill="#D5D5D5"/>
<rect x="93.8906" y="165.756" width="100" height="9.8" rx="4.9" fill="#D5D5D5"/>
<g filter="url(#filter3_d_4375_53776)">
<path d="M282.04 17.4238H221.96C219.16 17.4238 216.891 19.8123 216.891 22.7587V52.4778C216.891 55.4242 219.16 57.8127 221.96 57.8127H282.04C284.84 57.8127 287.11 55.4242 287.11 52.4778V22.7587C287.11 19.8123 284.84 17.4238 282.04 17.4238Z" fill="white"/>
</g>
<path d="M231.891 44C235.204 44 237.891 41.3137 237.891 38C237.891 34.6863 235.204 32 231.891 32C228.577 32 225.891 34.6863 225.891 38C225.891 41.3137 228.577 44 231.891 44Z" fill="#CCC6D9"/>
<rect x="245.891" y="32" width="32" height="12" rx="6" fill="#D5D5D5"/>
<path fill-rule="evenodd" clip-rule="evenodd" d="M50.2051 62.1719C50.1862 60.7459 50.0074 59.3076 49.6495 57.8594C48.3949 52.7773 42.797 49.5146 36.839 48.7475C30.8833 47.9804 24.6899 49.7261 22.3029 54.1468C20.9376 56.6743 20.7493 58.8527 21.3072 60.6893C21.8628 62.5161 23.1809 64.0306 24.97 65.2108C29.9581 68.4981 38.694 69.1693 42.6793 67.7949C44.5225 67.1581 46.3233 66.391 48.077 65.5133C47.0742 71.2592 43.3384 76.7027 38.3526 81.6077C27.517 92.2685 10.7023 100.36 1.54519 103.335C1.0532 103.495 0.780109 104.041 0.93312 104.554C1.08613 105.068 1.60871 105.356 2.1007 105.196C11.4391 102.162 28.5811 93.8987 39.6308 83.0264C45.3393 77.4108 49.4071 71.0895 50.1015 64.4437C63.0062 57.2423 73.604 44.1769 82.6646 33.1817C83.0013 32.776 82.9565 32.1589 82.5658 31.8073C82.175 31.4582 81.5864 31.5024 81.2498 31.9106C72.5588 42.4558 62.4718 55 50.2051 62.1719ZM48.329 63.2169C48.3996 61.6138 48.2489 59.9861 47.8416 58.3437C46.7564 53.9452 41.7683 51.3439 36.6106 50.6801C33.4492 50.2744 30.1983 50.6088 27.6489 51.7988C26.0458 52.5462 24.7252 53.6305 23.9295 55.1057C22.8843 57.0407 22.6583 58.6954 23.0867 60.0993C23.5152 61.513 24.5793 62.6489 25.9658 63.561C30.5114 66.5582 38.4656 67.195 42.0931 65.9435C44.2329 65.2059 46.3092 64.2864 48.329 63.2169Z" fill="black"/>
<path fill-rule="evenodd" clip-rule="evenodd" d="M52.2749 196.394C53.3456 195.993 54.4724 195.459 55.3413 194.686C56.3733 193.769 56.793 192.587 57.0749 191.343C57.4367 189.744 57.5813 188.042 58.0201 186.441C58.1826 185.846 58.4952 185.621 58.6294 185.522C58.9684 185.27 59.3112 185.202 59.6336 185.228C60.0158 185.257 60.5407 185.409 60.886 186.083C60.9352 186.18 60.9992 186.327 61.0423 186.528C61.0736 186.676 61.0939 187.137 61.1272 187.328C61.2103 187.797 61.2798 188.266 61.345 188.737C61.5623 190.306 61.6872 191.639 62.3733 193.081C63.3044 195.038 64.2374 196.235 65.5026 196.766C66.726 197.279 68.1887 197.182 70.0577 196.78C70.2355 196.735 70.4115 196.696 70.5856 196.664C71.4096 196.513 72.1973 197.082 72.3592 197.946C72.521 198.809 71.9974 199.65 71.1807 199.84C71.0103 199.88 70.8423 199.917 70.6761 199.952C68.1506 200.61 65.2269 202.958 63.5278 205.014C63.0041 205.648 62.2373 207.421 61.4552 208.551C60.878 209.386 60.2293 209.935 59.6847 210.13C59.3198 210.261 59.0121 210.24 58.758 210.174C58.3887 210.079 58.0823 209.868 57.8472 209.533C57.7192 209.35 57.6004 209.104 57.5438 208.791C57.5167 208.64 57.5137 208.257 57.5143 208.083C57.3549 207.506 57.1598 206.943 57.0177 206.36C56.6786 204.971 56.0133 204.092 55.2232 202.93C54.4841 201.843 53.6903 201.159 52.5266 200.614C52.3752 200.575 51.1537 200.26 50.7223 200.08C50.0921 199.815 49.7918 199.371 49.6829 199.132C49.4976 198.727 49.4786 198.373 49.5155 198.077C49.5703 197.641 49.7561 197.268 50.086 196.967C50.2903 196.78 50.5955 196.598 51.0041 196.509C51.3198 196.44 52.1573 196.4 52.2749 196.394ZM59.441 194.13C59.4976 194.263 59.558 194.396 59.622 194.531C60.9857 197.397 62.5106 198.998 64.3641 199.774L64.4263 199.799C63.1863 200.768 62.0638 201.851 61.2059 202.889C60.8527 203.317 60.385 204.205 59.8798 205.115C59.4207 203.545 58.67 202.435 57.726 201.045C57.0047 199.985 56.249 199.187 55.3204 198.537C56.041 198.148 56.7284 197.692 57.3272 197.16C58.3241 196.273 58.9832 195.246 59.441 194.13Z" fill="#CCC6D9"/>
<path d="M216.575 185C209.319 185 202.227 187.151 196.194 191.182C190.162 195.213 185.46 200.943 182.683 207.646C179.907 214.349 179.18 221.725 180.596 228.841C182.011 235.957 185.505 242.493 190.635 247.624C195.766 252.754 202.302 256.248 209.418 257.664C216.534 259.079 223.91 258.353 230.613 255.576C237.316 252.799 243.046 248.098 247.077 242.065C251.108 236.032 253.259 228.94 253.259 221.684C253.246 211.959 249.377 202.636 242.5 195.759C235.623 188.882 226.3 185.013 216.575 185ZM237.072 211.611L214.145 234.539C213.863 234.825 213.527 235.051 213.157 235.206C212.787 235.361 212.39 235.441 211.989 235.441C211.588 235.441 211.191 235.361 210.821 235.206C210.451 235.051 210.116 234.825 209.834 234.539L199.135 223.839C198.563 223.268 198.242 222.493 198.242 221.684C198.242 220.876 198.563 220.101 199.135 219.529C199.706 218.957 200.481 218.636 201.29 218.636C202.098 218.636 202.873 218.957 203.445 219.529L211.989 228.058L232.762 207.301C233.333 206.729 234.109 206.408 234.917 206.408C235.725 206.408 236.501 206.729 237.072 207.301C237.644 207.873 237.965 208.648 237.965 209.456C237.965 210.264 237.644 211.04 237.072 211.611Z" fill="url(#paint2_linear_4375_53776)"/>
<path d="M237.071 211.613L214.143 234.541C213.861 234.827 213.526 235.053 213.156 235.208C212.786 235.363 212.389 235.443 211.988 235.443C211.587 235.443 211.19 235.363 210.82 235.208C210.45 235.053 210.114 234.827 209.833 234.541L199.133 223.841C198.561 223.27 198.24 222.494 198.24 221.686C198.24 220.878 198.561 220.103 199.133 219.531C199.705 218.959 200.48 218.638 201.288 218.638C202.096 218.638 202.872 218.959 203.443 219.531L211.988 228.06L232.76 207.303C233.332 206.731 234.107 206.41 234.915 206.41C235.724 206.41 236.499 206.731 237.071 207.303C237.642 207.874 237.963 208.65 237.963 209.458C237.963 210.266 237.642 211.042 237.071 211.613Z" fill="white"/>
<defs>
<filter id="filter0_d_4375_53776" x="112.322" y="143" width="34" height="34" filterUnits="userSpaceOnUse" color-interpolation-filters="sRGB">
<feFlood flood-opacity="0" result="BackgroundImageFix"/>
<feColorMatrix in="SourceAlpha" type="matrix" values="0 0 0 0 0 0 0 0 0 0 0 0 0 0 0 0 0 0 127 0" result="hardAlpha"/>
<feOffset/>
<feGaussianBlur stdDeviation="2"/>
<feComposite in2="hardAlpha" operator="out"/>
<feColorMatrix type="matrix" values="0 0 0 0 0 0 0 0 0 0 0 0 0 0 0 0 0 0 0.15 0"/>
<feBlend mode="normal" in2="BackgroundImageFix" result="effect1_dropShadow_4375_53776"/>
<feBlend mode="normal" in="SourceGraphic" in2="effect1_dropShadow_4375_53776" result="shape"/>
</filter>
<filter id="filter1_d_4375_53776" x="112.322" y="143" width="34" height="34" filterUnits="userSpaceOnUse" color-interpolation-filters="sRGB">
<feFlood flood-opacity="0" result="BackgroundImageFix"/>
<feColorMatrix in="SourceAlpha" type="matrix" values="0 0 0 0 0 0 0 0 0 0 0 0 0 0 0 0 0 0 127 0" result="hardAlpha"/>
<feOffset/>
<feGaussianBlur stdDeviation="2"/>
<feComposite in2="hardAlpha" operator="out"/>
<feColorMatrix type="matrix" values="0 0 0 0 0 0 0 0 0 0 0 0 0 0 0 0 0 0 0.15 0"/>
<feBlend mode="normal" in2="BackgroundImageFix" result="effect1_dropShadow_4375_53776"/>
<feBlend mode="normal" in="SourceGraphic" in2="effect1_dropShadow_4375_53776" result="shape"/>
</filter>
<filter id="filter2_d_4375_53776" x="52.8906" y="24.5566" width="184.537" height="215.029" filterUnits="userSpaceOnUse" color-interpolation-filters="sRGB">
<feFlood flood-opacity="0" result="BackgroundImageFix"/>
<feColorMatrix in="SourceAlpha" type="matrix" values="0 0 0 0 0 0 0 0 0 0 0 0 0 0 0 0 0 0 127 0" result="hardAlpha"/>
<feOffset dy="20"/>
<feGaussianBlur stdDeviation="15"/>
<feComposite in2="hardAlpha" operator="out"/>
<feColorMatrix type="matrix" values="0 0 0 0 0.570833 0 0 0 0 0.570833 0 0 0 0 0.570833 0 0 0 0.19 0"/>
<feBlend mode="normal" in2="BackgroundImageFix" result="effect1_dropShadow_4375_53776"/>
<feBlend mode="normal" in="SourceGraphic" in2="effect1_dropShadow_4375_53776" result="shape"/>
</filter>
<filter id="filter3_d_4375_53776" x="209.891" y="8.42383" width="96.2188" height="66.3887" filterUnits="userSpaceOnUse" color-interpolation-filters="sRGB">
<feFlood flood-opacity="0" result="BackgroundImageFix"/>
<feColorMatrix in="SourceAlpha" type="matrix" values="0 0 0 0 0 0 0 0 0 0 0 0 0 0 0 0 0 0 127 0" result="hardAlpha"/>
<feOffset dx="6" dy="4"/>
<feGaussianBlur stdDeviation="6.5"/>
<feComposite in2="hardAlpha" operator="out"/>
<feColorMatrix type="matrix" values="0 0 0 0 0.104618 0 0 0 0 0.465612 0 0 0 0 0.545833 0 0 0 0.09 0"/>
<feBlend mode="normal" in2="BackgroundImageFix" result="effect1_dropShadow_4375_53776"/>
<feBlend mode="normal" in="SourceGraphic" in2="effect1_dropShadow_4375_53776" result="shape"/>
</filter>
<linearGradient id="paint0_linear_4375_53776" x1="142.966" y1="-39.0749" x2="145.424" y2="382.347" gradientUnits="userSpaceOnUse">
<stop stop-color="#F2F2F2"/>
<stop offset="1" stop-color="#EFEFEF"/>
</linearGradient>
<linearGradient id="paint1_linear_4375_53776" x1="145.159" y1="34.5566" x2="145.159" y2="189.585" gradientUnits="userSpaceOnUse">
<stop stop-color="white"/>
<stop offset="0.71875" stop-color="#FAFAFA"/>
</linearGradient>
<linearGradient id="paint2_linear_4375_53776" x1="253.978" y1="219.526" x2="138.171" y2="219.526" gradientUnits="userSpaceOnUse">
<stop stop-color="#4CD964"/>
<stop offset="1" stop-color="white"/>
</linearGradient>
</defs>
</svg>
