<svg width="10" height="12" viewBox="0 0 10 12" fill="none" xmlns="http://www.w3.org/2000/svg">
<path fill-rule="evenodd" clip-rule="evenodd" d="M5 11.5C5 11.5 9.5 8.5 9.5 5C9.5 3.80653 9.02589 2.66193 8.18198 1.81802C7.33807 0.974106 6.19347 0.5 5 0.5C3.80653 0.5 2.66193 0.974106 1.81802 1.81802C0.974106 2.66193 0.5 3.80653 0.5 5C0.5 8.5 5 11.5 5 11.5ZM6.5 5C6.5 5.82843 5.82843 6.5 5 6.5C4.17157 6.5 3.5 5.82843 3.5 5C3.5 4.17157 4.17157 3.5 5 3.5C5.82843 3.5 6.5 4.17157 6.5 5Z" fill="#064DD6"/>
</svg>
