<svg width="163" height="55" viewBox="0 0 163 55" fill="none" xmlns="http://www.w3.org/2000/svg">
  <path d="M12 0.5H151C157.351 0.5 162.5 5.64873 162.5 12V43C162.5 49.3513 157.351 54.5 151 54.5H12C5.64873 54.5 0.5 49.3513 0.5 43V12C0.5 5.64873 5.64873 0.5 12 0.5Z" fill="white" stroke="#064DD6"/>
  <path d="M151.001 0.0507812H12.0008C5.40098 0.0507812 0.0507812 5.40098 0.0507812 12.0008V43.0008C0.0507812 49.6006 5.40098 54.9508 12.0008 54.9508H151.001C157.601 54.9508 162.951 49.6006 162.951 43.0008V12.0008C162.951 5.40098 157.601 0.0507812 151.001 0.0507812Z" stroke="#5D7795" stroke-opacity="0.5" stroke-width="0.1"/>
  <path fill-rule="evenodd" clip-rule="evenodd" d="M101.69 40.0775C99.464 40.0775 97.8348 38.963 97.6473 37.2656L95.0565 37.2655C95.2201 40.3615 97.7523 42.32 101.503 42.32C105.511 42.32 108.031 40.3144 108.031 37.1121C108.031 34.6084 106.59 33.1977 103.12 32.3672L101.257 31.9042C99.077 31.3591 98.1859 30.647 98.1859 29.4369C98.1859 27.9185 99.581 26.8753 101.619 26.8753C103.659 26.8753 105.054 27.9064 105.207 29.6145H107.762C107.679 26.6613 105.23 24.6328 101.655 24.6328C98.0449 24.6328 95.5021 26.6613 95.5021 29.6145C95.5021 31.9998 96.9438 33.4697 100.049 34.2289L102.241 34.7633C104.432 35.3084 105.358 36.1039 105.358 37.4325C105.358 38.963 103.824 40.0775 101.69 40.0775ZM57.5996 37.4082H51.1533L49.6053 42.0346H46.875L52.9807 24.918H55.8175L61.9232 42.0346H59.1463L57.5996 37.4082ZM51.8228 35.2749H56.9325L54.4135 27.7666H54.343L51.8228 35.2749ZM69.9658 42.1642C73.0606 42.1642 75.1113 39.6727 75.1113 35.7946C75.1113 31.9274 73.0485 29.4237 69.9192 29.4237C68.309 29.3712 66.8005 30.2188 65.9931 31.6299H65.9466V29.5543H63.4969V46.162H66.0277V39.9809H66.0863C66.8593 41.4009 68.3661 42.2489 69.9658 42.1642ZM72.5106 35.795C72.5106 33.2684 71.2206 31.6074 69.2523 31.6074C67.3186 31.6074 66.0179 33.3034 66.0179 35.795C66.0179 38.3094 67.3186 39.9934 69.2523 39.9934C71.2207 39.9934 72.5106 38.3444 72.5106 35.795ZM83.5329 42.1642C86.6277 42.1642 88.6792 39.6727 88.6792 35.7946C88.6792 31.9274 86.6158 29.4237 83.4864 29.4237C81.8761 29.3712 80.3677 30.2188 79.5604 31.6299H79.5139V29.5543H77.0641V46.162H79.595V39.9809H79.6536C80.4265 41.4009 81.9333 42.2489 83.5329 42.1642ZM86.0767 35.7947C86.0767 33.2682 84.7866 31.6071 82.8183 31.6071C80.8846 31.6071 79.5839 33.3031 79.5839 35.7947C79.5839 38.3092 80.8846 39.9931 82.8183 39.9931C84.7866 39.9931 86.0767 38.3442 86.0767 35.7947ZM113.494 26.6037V29.557H115.839V31.5855H113.494V38.4652C113.494 39.534 113.964 40.032 114.994 40.032C115.273 40.0271 115.55 40.0073 115.827 39.9728V41.9892C115.364 42.0768 114.892 42.1165 114.421 42.1076C111.924 42.1076 110.951 41.1586 110.951 38.7384V31.5855H109.159V29.557H110.951V26.6037H113.494ZM123.046 29.4023C119.483 29.4023 117.198 31.8696 117.198 35.7961C117.198 39.7333 119.46 42.1899 123.046 42.1899C126.633 42.1899 128.895 39.7333 128.895 35.7961C128.895 31.8696 126.621 29.4023 123.046 29.4023ZM126.318 35.7974C126.318 33.104 125.099 31.5143 123.048 31.5143C120.996 31.5143 119.777 33.1161 119.777 35.7974C119.777 38.5017 120.996 40.0793 123.048 40.0793C125.099 40.0793 126.318 38.5017 126.318 35.7974ZM133.394 29.5546H130.98V42.0339H133.512V34.6319C133.427 33.8831 133.671 33.1344 134.178 32.5824C134.685 32.0304 135.405 31.7302 136.149 31.7608C136.533 31.7494 136.917 31.8017 137.286 31.9156V29.5196C137.001 29.455 136.71 29.423 136.419 29.424C135.027 29.3703 133.789 30.3113 133.452 31.6787H133.394V29.5546ZM148.958 38.3698C148.617 40.6352 146.437 42.1899 143.648 42.1899C140.061 42.1899 137.835 39.7576 137.835 35.8553C137.835 31.941 140.073 29.4023 143.542 29.4023C146.953 29.4023 149.098 31.7741 149.098 35.5578V36.4355H140.389V36.5903C140.308 37.5193 140.626 38.439 141.26 39.1153C141.894 39.7916 142.785 40.1593 143.706 40.125C144.934 40.2415 146.092 39.5277 146.554 38.3698H148.958ZM146.566 34.6445H140.401C140.399 33.802 140.73 32.9934 141.319 32.3987C141.909 31.8039 142.709 31.4722 143.541 31.4772C144.367 31.4593 145.163 31.7908 145.738 32.3921C146.312 32.9933 146.612 33.8097 146.566 34.6445Z" fill="black"/>
  <path fill-rule="evenodd" clip-rule="evenodd" d="M31.7389 10.8184C31.876 12.6305 31.3098 14.4254 30.1605 15.8217C29.0455 17.2254 27.356 18.0339 25.5767 18.0153C25.4634 16.2554 26.0462 14.5221 27.1963 13.1972C28.3611 11.8544 29.9831 11.0051 31.7389 10.8184ZM37.3675 21.466C35.3206 22.7396 34.061 24.9857 34.03 27.4174C34.033 30.1685 35.6608 32.6513 38.1643 33.723C37.6828 35.3061 36.957 36.8021 36.0139 38.1557C34.7472 40.0734 33.4192 41.9469 31.3114 41.9815C30.3089 42.005 29.6322 41.7132 28.9271 41.4092C28.1916 41.0921 27.4252 40.7616 26.2258 40.7616C24.9539 40.7616 24.1531 41.1027 23.3809 41.4316C22.7135 41.7159 22.0673 41.9912 21.1567 42.0294C19.1493 42.1046 17.6152 39.9826 16.3025 38.0829C13.6789 34.2033 11.6359 27.1497 14.3748 22.3502C15.661 20.011 18.0657 18.5266 20.7093 18.4402C21.8479 18.4165 22.9403 18.8606 23.8981 19.25C24.6306 19.5478 25.2843 19.8136 25.8196 19.8136C26.2902 19.8136 26.9257 19.5583 27.6663 19.2608C28.833 18.7921 30.2605 18.2187 31.7152 18.3733C33.9756 18.4449 36.0703 19.591 37.3675 21.466Z" fill="black"/>
  <path d="M51.5697 20H52.8664V12.6816H55.4947V11.5449H48.9414V12.6816H51.5697V20Z" fill="black"/>
  <path d="M57.4904 20.1055C57.7683 20.1055 58.0249 20.0664 58.2604 19.9883C58.4958 19.9102 58.7061 19.7969 58.8914 19.6484C59.0766 19.4961 59.231 19.3125 59.3545 19.0977H59.4472V20H60.6976V15.6465C60.6976 15.2012 60.6011 14.8203 60.4082 14.5039C60.219 14.1836 59.9392 13.9395 59.5687 13.7715C59.2021 13.5996 58.7544 13.5137 58.2256 13.5137C57.7509 13.5137 57.3283 13.5859 56.9578 13.7305C56.5911 13.875 56.294 14.0781 56.0663 14.3398C55.8424 14.5977 55.7054 14.9023 55.6552 15.2539L55.6494 15.2949H56.8594L56.871 15.2773C56.9443 15.0508 57.091 14.875 57.3109 14.75C57.5348 14.625 57.8223 14.5625 58.1735 14.5625C58.5942 14.5625 58.9107 14.6562 59.123 14.8438C59.3391 15.0273 59.4472 15.2949 59.4472 15.6465V17.6504C59.4472 17.9238 59.3777 18.1699 59.2387 18.3887C59.0998 18.6035 58.9068 18.7754 58.6598 18.9043C58.4167 19.0293 58.1388 19.0918 57.8262 19.0918C57.4904 19.0918 57.2125 19.0098 56.9925 18.8457C56.7725 18.6777 56.6625 18.4492 56.6625 18.1602V18.1484C56.6625 17.8633 56.7648 17.6426 56.9694 17.4863C57.1739 17.3262 57.4923 17.2324 57.9246 17.2051L60.0724 17.0645V16.168L57.7509 16.3086C57.0022 16.3555 56.4233 16.541 56.0142 16.8652C55.6089 17.1855 55.4062 17.6309 55.4062 18.2012V18.2129C55.4062 18.5957 55.497 18.9297 55.6784 19.2148C55.8598 19.5 56.1068 19.7207 56.4194 19.877C56.7359 20.0293 57.0929 20.1055 57.4904 20.1055ZM57.722 12.7578H58.5788C58.8065 12.6016 58.9802 12.4414 59.0998 12.2773C59.2194 12.1133 59.2793 11.9297 59.2793 11.7266C59.2793 11.4062 59.1307 11.1387 58.8335 10.9238C58.5402 10.709 58.1793 10.6016 57.7509 10.6016C57.585 10.6016 57.4287 10.6152 57.282 10.6426C57.1392 10.666 57.0331 10.6914 56.9636 10.7188V11.4688C57.0215 11.457 57.091 11.4473 57.172 11.4395C57.253 11.4277 57.3495 11.4219 57.4615 11.4219C57.7123 11.4219 57.9207 11.4648 58.0867 11.5508C58.2527 11.6328 58.3356 11.75 58.3356 11.9023C58.3356 12.0234 58.2835 12.1484 58.1793 12.2773C58.079 12.4062 57.9265 12.5449 57.722 12.6934V12.7578Z" fill="black"/>
  <path d="M62.4864 20H63.7484V13.6367H62.4864V20ZM63.1232 12.5C63.3393 12.5 63.5246 12.4219 63.679 12.2656C63.8333 12.1094 63.9105 11.9219 63.9105 11.7031C63.9105 11.4844 63.8333 11.2988 63.679 11.1465C63.5246 10.9902 63.3393 10.9121 63.1232 10.9121C62.9071 10.9121 62.7218 10.9902 62.5674 11.1465C62.4131 11.2988 62.3359 11.4844 62.3359 11.7031C62.3359 11.9219 62.4131 12.1094 62.5674 12.2656C62.7218 12.4219 62.9071 12.5 63.1232 12.5Z" fill="black"/>
  <path d="M70.8997 20.123C71.359 20.123 71.7449 20.0273 72.0575 19.8359C72.3702 19.6445 72.6017 19.3789 72.7522 19.0391H72.8449V20H74.1069V13.6367H72.8449V17.3691C72.8449 17.709 72.787 18.0039 72.6712 18.2539C72.5554 18.5 72.3817 18.6914 72.1502 18.8281C71.9225 18.9609 71.6426 19.0273 71.3107 19.0273C70.8476 19.0273 70.5138 18.8965 70.3092 18.6348C70.1046 18.373 70.0024 17.9805 70.0024 17.457V13.6367H68.7461V17.7559C68.7461 18.2559 68.8252 18.6836 68.9835 19.0391C69.1456 19.3906 69.3868 19.6602 69.7071 19.8477C70.0313 20.0312 70.4288 20.123 70.8997 20.123ZM74.6279 11.7734C74.6279 12.1797 74.5797 12.5176 74.4832 12.7871C74.3906 13.0527 74.2169 13.2559 73.9622 13.3965C73.7075 13.5332 73.335 13.6133 72.8449 13.6367V14.4336L73.3891 14.3516C73.9718 14.2695 74.433 14.1406 74.7727 13.9648C75.1162 13.7891 75.3612 13.5273 75.5079 13.1797C75.6584 12.8281 75.7337 12.3594 75.7337 11.7734H74.6279ZM71.8433 12.7578L73.2096 10.7422H71.8665L70.8476 12.7578H71.8433Z" fill="black"/>
  <path d="M76.3516 20H77.6079V16.2676C77.6079 15.9238 77.6677 15.6289 77.7874 15.3828C77.9109 15.1328 78.0845 14.9414 78.3084 14.8086C78.5322 14.6719 78.7966 14.6035 79.1015 14.6035C79.5646 14.6035 79.9043 14.7344 80.1204 14.9961C80.3404 15.2539 80.4504 15.6484 80.4504 16.1797V20H81.7124V15.8809C81.7124 15.123 81.5252 14.5391 81.1509 14.1289C80.7765 13.7188 80.2362 13.5137 79.5299 13.5137C79.0706 13.5137 78.6905 13.6094 78.3894 13.8008C78.0884 13.9922 77.8607 14.2578 77.7063 14.5977H77.6079V13.6367H76.3516V20Z" fill="black"/>
  <path d="M86.1162 22.2441C86.7144 22.2441 87.2316 22.1465 87.6677 21.9512C88.1038 21.7559 88.4396 21.4805 88.675 21.125C88.9143 20.7695 89.034 20.3516 89.034 19.8711V13.6367H87.7777V14.6797H87.7025C87.579 14.4414 87.4226 14.2363 87.2335 14.0645C87.0444 13.8926 86.8264 13.7598 86.5793 13.666C86.3362 13.5723 86.068 13.5254 85.7747 13.5254C85.2305 13.5254 84.7615 13.6582 84.3679 13.9238C83.9742 14.1855 83.6712 14.5508 83.459 15.0195C83.2467 15.4844 83.1406 16.0195 83.1406 16.625V16.6367C83.1406 17.2344 83.2448 17.7637 83.4532 18.2246C83.6655 18.6816 83.9665 19.041 84.3563 19.3027C84.75 19.5605 85.2131 19.6895 85.7457 19.6895C86.0352 19.6895 86.3034 19.6484 86.5504 19.5664C86.7974 19.4844 87.0174 19.3633 87.2104 19.2031C87.4033 19.0391 87.5616 18.8438 87.6851 18.6172H87.7835V19.8652C87.7835 20.2949 87.6368 20.6289 87.3435 20.8672C87.0541 21.1055 86.6507 21.2246 86.1336 21.2246C85.7129 21.2246 85.3771 21.1543 85.1263 21.0137C84.8754 20.873 84.7229 20.6934 84.6689 20.4746L84.6631 20.4629H83.3895L83.3837 20.4746C83.4339 20.8262 83.5728 21.1348 83.8005 21.4004C84.0282 21.666 84.337 21.873 84.7268 22.0215C85.1205 22.1699 85.5836 22.2441 86.1162 22.2441ZM86.0988 18.6348C85.7438 18.6348 85.4408 18.5508 85.1899 18.3828C84.9429 18.2109 84.7538 17.9746 84.6226 17.6738C84.4914 17.373 84.4258 17.0254 84.4258 16.6309V16.6191C84.4258 16.2246 84.4914 15.877 84.6226 15.5762C84.7538 15.2715 84.9429 15.0332 85.1899 14.8613C85.4408 14.6895 85.7438 14.6035 86.0988 14.6035C86.4539 14.6035 86.7588 14.6895 87.0135 14.8613C87.2683 15.0332 87.4632 15.2715 87.5982 15.5762C87.7372 15.8809 87.8067 16.2285 87.8067 16.6191V16.6309C87.8067 17.0254 87.7372 17.373 87.5982 17.6738C87.4632 17.9746 87.2683 18.2109 87.0135 18.3828C86.7588 18.5508 86.4539 18.6348 86.0988 18.6348Z" fill="black"/>
  <path d="M96.3707 20.1055C96.8145 20.1055 97.2024 20.0078 97.5343 19.8125C97.8662 19.6172 98.1229 19.3457 98.3043 18.998H98.3969V20H99.6593V11.1406H98.3969V14.6445H98.3043C98.1383 14.3008 97.8817 14.0293 97.5343 13.8301C97.1908 13.627 96.803 13.5254 96.3707 13.5254C95.8381 13.5254 95.3769 13.6602 94.9871 13.9297C94.5973 14.1953 94.2962 14.5742 94.084 15.0664C93.8717 15.5586 93.7656 16.1406 93.7656 16.8125V16.8242C93.7656 17.4922 93.8717 18.0723 94.084 18.5645C94.3001 19.0566 94.6031 19.4375 94.9929 19.707C95.3865 19.9727 95.8458 20.1055 96.3707 20.1055ZM96.7296 19.0156C96.3823 19.0156 96.0812 18.9277 95.8265 18.752C95.5756 18.5762 95.3827 18.3242 95.2476 17.9961C95.1164 17.668 95.0508 17.2773 95.0508 16.8242V16.8125C95.0508 16.3555 95.1164 15.9648 95.2476 15.6406C95.3827 15.3125 95.5756 15.0605 95.8265 14.8848C96.0812 14.7051 96.3823 14.6152 96.7296 14.6152C97.077 14.6152 97.3761 14.7051 97.6269 14.8848C97.8817 15.0605 98.0766 15.3125 98.2117 15.6406C98.3506 15.9688 98.4201 16.3594 98.4201 16.8125V16.8242C98.4201 17.2734 98.3525 17.6641 98.2174 17.9961C98.0824 18.3242 97.8875 18.5762 97.6327 18.752C97.378 18.9277 97.077 19.0156 96.7296 19.0156Z" fill="black"/>
  <path d="M103.618 20.123C104.078 20.123 104.464 20.0273 104.776 19.8359C105.089 19.6445 105.32 19.3789 105.471 19.0391H105.564V20H106.826V13.6367H105.564V17.3691C105.564 17.709 105.506 18.0039 105.39 18.2539C105.274 18.5 105.101 18.6914 104.869 18.8281C104.641 18.9609 104.361 19.0273 104.03 19.0273C103.566 19.0273 103.233 18.8965 103.028 18.6348C102.823 18.373 102.721 17.9805 102.721 17.457V13.6367H101.465V17.7559C101.465 18.2559 101.544 18.6836 101.702 19.0391C101.864 19.3906 102.106 19.6602 102.426 19.8477C102.75 20.0312 103.148 20.123 103.618 20.123ZM104.128 22.6719C104.344 22.6719 104.527 22.5957 104.678 22.4434C104.828 22.291 104.904 22.1074 104.904 21.8926C104.904 21.6738 104.828 21.4883 104.678 21.3359C104.527 21.1836 104.344 21.1074 104.128 21.1074C103.916 21.1074 103.732 21.1836 103.578 21.3359C103.427 21.4883 103.352 21.6738 103.352 21.8926C103.352 22.1074 103.427 22.291 103.578 22.4434C103.732 22.5957 103.916 22.6719 104.128 22.6719Z" fill="black"/>
  <path d="M108.633 20H109.889V16.2676C109.889 15.9238 109.949 15.6289 110.069 15.3828C110.192 15.1328 110.366 14.9414 110.59 14.8086C110.814 14.6719 111.078 14.6035 111.383 14.6035C111.846 14.6035 112.186 14.7344 112.402 14.9961C112.622 15.2539 112.732 15.6484 112.732 16.1797V20H113.994V15.8809C113.994 15.123 113.807 14.5391 113.432 14.1289C113.058 13.7188 112.517 13.5137 111.811 13.5137C111.352 13.5137 110.972 13.6094 110.671 13.8008C110.37 13.9922 110.142 14.2578 109.988 14.5977H109.889V13.6367H108.633V20Z" fill="black"/>
  <path d="M118.397 22.2441C118.996 22.2441 119.513 22.1465 119.949 21.9512C120.385 21.7559 120.721 21.4805 120.956 21.125C121.195 20.7695 121.315 20.3516 121.315 19.8711V13.6367H120.059V14.6797H119.984C119.86 14.4414 119.704 14.2363 119.515 14.0645C119.326 13.8926 119.107 13.7598 118.86 13.666C118.617 13.5723 118.349 13.5254 118.056 13.5254C117.512 13.5254 117.043 13.6582 116.649 13.9238C116.255 14.1855 115.952 14.5508 115.74 15.0195C115.528 15.4844 115.422 16.0195 115.422 16.625V16.6367C115.422 17.2344 115.526 17.7637 115.734 18.2246C115.947 18.6816 116.248 19.041 116.637 19.3027C117.031 19.5605 117.494 19.6895 118.027 19.6895C118.316 19.6895 118.584 19.6484 118.831 19.5664C119.079 19.4844 119.298 19.3633 119.491 19.2031C119.684 19.0391 119.843 18.8438 119.966 18.6172H120.065V19.8652C120.065 20.2949 119.918 20.6289 119.625 20.8672C119.335 21.1055 118.932 21.2246 118.415 21.2246C117.994 21.2246 117.658 21.1543 117.407 21.0137C117.156 20.873 117.004 20.6934 116.95 20.4746L116.944 20.4629H115.671L115.665 20.4746C115.715 20.8262 115.854 21.1348 116.082 21.4004C116.309 21.666 116.618 21.873 117.008 22.0215C117.402 22.1699 117.865 22.2441 118.397 22.2441ZM118.38 18.6348C118.025 18.6348 117.722 18.5508 117.471 18.3828C117.224 18.2109 117.035 17.9746 116.904 17.6738C116.772 17.373 116.707 17.0254 116.707 16.6309V16.6191C116.707 16.2246 116.772 15.877 116.904 15.5762C117.035 15.2715 117.224 15.0332 117.471 14.8613C117.722 14.6895 118.025 14.6035 118.38 14.6035C118.735 14.6035 119.04 14.6895 119.295 14.8613C119.549 15.0332 119.744 15.2715 119.879 15.5762C120.018 15.8809 120.088 16.2285 120.088 16.6191V16.6309C120.088 17.0254 120.018 17.373 119.879 17.6738C119.744 17.9746 119.549 18.2109 119.295 18.3828C119.04 18.5508 118.735 18.6348 118.38 18.6348Z" fill="black"/>
  <path d="M128.732 20.041C128.856 20.041 128.975 20.0332 129.091 20.0176C129.207 20.0059 129.315 19.9923 129.415 19.9767V18.9571C129.326 18.9649 129.247 18.9707 129.178 18.9746C129.112 18.9785 129.033 18.9805 128.94 18.9805C128.628 18.9805 128.404 18.9062 128.269 18.7578C128.134 18.6055 128.066 18.3575 128.066 18.0138V14.6387H129.415V13.6367H128.066V12.0312H126.781V13.6367H125.797V14.6387H126.781V18.3242C126.781 18.9336 126.934 19.373 127.238 19.6426C127.547 19.9082 128.045 20.041 128.732 20.041Z" fill="black"/>
  <path d="M130.887 20H132.143V16.1973C132.143 15.8887 132.21 15.623 132.345 15.4004C132.484 15.1738 132.674 14.998 132.913 14.873C133.156 14.748 133.438 14.6855 133.758 14.6855C133.878 14.6855 133.992 14.6914 134.1 14.7031C134.212 14.7148 134.323 14.7324 134.435 14.7559V13.584C134.374 13.5684 134.293 13.5547 134.192 13.543C134.092 13.5312 133.99 13.5254 133.885 13.5254C133.469 13.5254 133.117 13.6191 132.832 13.8066C132.55 13.9941 132.353 14.2578 132.241 14.5977H132.143V13.6367H130.887V20Z" fill="black"/>
  <path d="M138.124 20.123C138.529 20.123 138.886 20.0703 139.195 19.9648C139.508 19.8594 139.774 19.7207 139.994 19.5488C140.218 19.377 140.397 19.1875 140.532 18.9805C140.668 18.7695 140.762 18.5586 140.816 18.3477L140.828 18.2949H139.612L139.589 18.3418C139.542 18.4512 139.456 18.5625 139.328 18.6758C139.205 18.7891 139.045 18.8848 138.848 18.9629C138.655 19.0371 138.423 19.0742 138.153 19.0742C137.802 19.0742 137.497 18.9961 137.238 18.8398C136.984 18.6836 136.787 18.457 136.648 18.1602C136.509 17.8633 136.439 17.5059 136.439 17.0879V16.5781C136.439 16.1406 136.509 15.7715 136.648 15.4707C136.791 15.1699 136.984 14.9434 137.227 14.791C137.474 14.6348 137.754 14.5566 138.066 14.5566C138.379 14.5566 138.655 14.6309 138.894 14.7793C139.133 14.9277 139.321 15.1523 139.456 15.4531C139.595 15.75 139.664 16.125 139.664 16.5781V17.0879L140.266 16.2441H135.808V17.1523H140.891V16.707C140.891 16.0664 140.778 15.5078 140.55 15.0312C140.322 14.5508 139.996 14.1777 139.571 13.9121C139.151 13.6465 138.647 13.5137 138.06 13.5137C137.478 13.5137 136.968 13.6523 136.532 13.9297C136.1 14.207 135.764 14.5938 135.525 15.0898C135.289 15.5859 135.172 16.166 135.172 16.8301V16.8359C135.172 17.5078 135.289 18.0898 135.525 18.582C135.764 19.0742 136.104 19.4551 136.544 19.7246C136.984 19.9902 137.51 20.123 138.124 20.123ZM135.947 12.7578H137.152L138.037 11.4629H138.13L139.016 12.7578H140.22L138.784 10.7422H137.383L135.947 12.7578Z" fill="black"/>
  <path d="M142.383 20H143.639V16.2676C143.639 15.9238 143.699 15.6289 143.819 15.3828C143.942 15.1328 144.116 14.9414 144.34 14.8086C144.564 14.6719 144.828 14.6035 145.133 14.6035C145.596 14.6035 145.936 14.7344 146.152 14.9961C146.372 15.2539 146.482 15.6484 146.482 16.1797V20H147.744V15.8809C147.744 15.123 147.557 14.5391 147.182 14.1289C146.808 13.7188 146.268 13.5137 145.561 13.5137C145.102 13.5137 144.722 13.6094 144.421 13.8008C144.12 13.9922 143.892 14.2578 143.738 14.5977H143.639V13.6367H142.383V20Z" fill="black"/>
</svg>
