<svg width="136" height="136" viewBox="0 0 136 136" fill="none" xmlns="http://www.w3.org/2000/svg">
<path d="M110.864 70.9668C87.0345 57.209 48.5302 57.209 24.8553 70.9668C1.18044 84.7245 1.30828 107.029 25.1273 120.786C48.9464 134.544 87.4616 134.544 111.136 120.786C134.811 107.029 134.692 84.7245 110.864 70.9668Z" fill="#F5F5F5"/>
<path d="M94.7158 105.387C100.877 108.945 100.909 114.711 94.7892 118.269C88.6692 121.827 78.7113 121.827 72.5478 118.269C66.3843 114.711 66.3544 108.945 72.4771 105.387C78.5998 101.829 88.555 101.829 94.7158 105.387Z" fill="#E6E6E6"/>
<path d="M99.699 95.9994C104.271 98.6378 111.667 98.6378 116.207 95.9994C118.478 94.6774 119.607 92.9475 119.596 91.2176C119.585 89.4877 118.437 87.7578 116.152 86.4358C111.577 83.7974 104.184 83.7974 99.6446 86.4358C97.3734 87.7578 96.2446 89.4877 96.2527 91.2176C96.2609 92.9475 97.4115 94.6774 99.699 95.9994Z" fill="#E6E6E6"/>
<path d="M13.5728 101.074C16.2357 102.614 20.5415 102.614 23.1853 101.074C24.5099 100.307 25.1682 99.2979 25.1627 98.2915C25.1573 97.2851 24.4882 96.2732 23.1554 95.5062C20.4925 93.9667 16.1867 93.9667 13.5402 95.5062C12.2183 96.2732 11.56 97.2824 11.5655 98.2915C11.5709 99.3006 12.24 100.307 13.5728 101.074Z" fill="#E6E6E6"/>
<path d="M23.4872 106.968L25.024 107.866C25.1949 107.964 25.3886 108.016 25.5857 108.016C25.7828 108.016 25.9765 107.964 26.1474 107.866L68.1877 83.8726C68.2322 83.8498 68.2696 83.8151 68.2957 83.7724C68.3218 83.7297 68.3357 83.6806 68.3357 83.6305C68.3357 83.5804 68.3218 83.5314 68.2957 83.4886C68.2696 83.4459 68.2322 83.4113 68.1877 83.3884L66.6482 82.4908C66.478 82.3919 66.2847 82.3398 66.0878 82.3398C65.891 82.3398 65.6977 82.3919 65.5275 82.4908L23.4899 106.481C23.4445 106.504 23.4063 106.538 23.3794 106.581C23.3526 106.624 23.3382 106.673 23.3379 106.724C23.3376 106.774 23.3514 106.824 23.3778 106.867C23.4042 106.91 23.4421 106.945 23.4872 106.968Z" fill="#E6E6E6"/>
<path d="M77.9662 17.694L78.9127 17.1445L88.9033 22.8919V23.9853L77.9662 17.694Z" fill="#F5F5F5"/>
<path d="M77.9661 17.6914L88.9032 23.9828V25.2285L77.9634 18.9453L77.9661 17.6914Z" fill="#E0E0E0"/>
<path d="M94.6152 27.2682L95.5618 26.7188L105.552 32.4661V33.5596L94.6152 27.2682Z" fill="#F5F5F5"/>
<path d="M94.6153 27.2695L105.552 33.5609V34.8094L94.6125 28.5235L94.6153 27.2695Z" fill="#E0E0E0"/>
<path d="M111.264 36.849L112.211 36.2969L122.202 42.0442V43.1377L111.264 36.849Z" fill="#F5F5F5"/>
<path d="M111.264 36.8477L122.201 43.1363V44.3848L111.262 38.1016L111.264 36.8477Z" fill="#E0E0E0"/>
<path d="M78.0205 7.19007L78.9643 6.64062L78.9099 34.9341L77.9634 35.4808L78.0205 7.19007Z" fill="#F0F0F0"/>
<path d="M77.9634 35.4803L78.9099 34.9336L89.7927 41.1787L88.8488 41.7282L77.9634 35.4803Z" fill="#F5F5F5"/>
<path d="M76.9352 5.3125L89.9912 12.817L89.9287 43.6101L76.8727 36.1056L76.9352 5.3125ZM88.8488 41.7306L88.9032 13.4426L78.0232 7.18658L77.9661 35.4746L88.8461 41.7306" fill="#E0E0E0"/>
<path d="M76.9353 5.31116L77.8819 4.76172L90.9406 12.2662L89.994 12.8156L76.9353 5.31116Z" fill="#F5F5F5"/>
<path d="M89.994 12.8151L90.9405 12.2656L90.878 43.0587L89.9314 43.6082L89.994 12.8151Z" fill="#F0F0F0"/>
<path d="M94.6697 16.7682L95.6135 16.2188L95.5591 44.5122L94.6125 45.0616L94.6697 16.7682Z" fill="#F0F0F0"/>
<path d="M94.6125 45.0612L95.5591 44.5117L106.442 50.7596L105.498 51.309L94.6125 45.0612Z" fill="#F5F5F5"/>
<path d="M93.5844 14.8906L106.64 22.3924L106.578 53.1855L93.5219 45.6837L93.5844 14.8906ZM105.498 51.3087L105.552 23.0207L94.6724 16.7647L94.6153 45.0527L105.495 51.3087" fill="#E0E0E0"/>
<path d="M93.5844 14.8893L94.5309 14.3398L107.59 21.8443L106.643 22.3938L93.5844 14.8893Z" fill="#F5F5F5"/>
<path d="M106.643 22.3971L107.59 21.8477L107.527 52.6381L106.581 53.1875L106.643 22.3971Z" fill="#F0F0F0"/>
<path d="M111.319 26.3463L112.263 25.7969L112.208 54.0876L111.262 54.637L111.319 26.3463Z" fill="#F0F0F0"/>
<path d="M111.262 54.6393L112.208 54.0898L123.091 60.3377L122.147 60.8871L111.262 54.6393Z" fill="#F5F5F5"/>
<path d="M110.233 24.4805L123.289 31.9849L123.227 62.7781L110.171 55.2736L110.233 24.4805ZM122.147 60.8985L122.201 32.6105L111.321 26.3545L111.264 54.6425L122.144 60.8985" fill="#E0E0E0"/>
<path d="M110.234 24.4674L111.18 23.918L124.239 31.4224L123.292 31.9719L110.234 24.4674Z" fill="#F5F5F5"/>
<path d="M123.292 31.9713L124.239 31.4219L124.176 62.215L123.23 62.7644L123.292 31.9713Z" fill="#F0F0F0"/>
<path d="M23.2424 89.293L18.0744 89.4426L12.9064 89.293C12.6833 92.78 13.3633 96.3323 14.3017 98.0677C14.5236 98.5139 14.8818 98.8779 15.3245 99.1067C16.8477 99.9853 19.3093 99.9853 20.8243 99.1067C21.2735 98.8747 21.6325 98.4995 21.8443 98.0405C22.7881 96.2861 23.4627 92.7501 23.2424 89.293Z" fill="white"/>
<path d="M21.7165 87.1809C23.7401 88.3477 23.751 90.2409 21.7409 91.4077C19.7309 92.5746 16.4641 92.5773 14.4405 91.4077C12.4168 90.2381 12.4059 88.3477 14.416 87.1809C16.4261 86.014 19.6955 86.0113 21.7165 87.1809Z" fill="#EBEBEB"/>
<path d="M20.9168 87.6433C22.4944 88.5545 22.5026 90.0342 20.9359 90.9427C19.3691 91.8512 16.8178 91.8539 15.2402 90.9427C13.6626 90.0315 13.6544 88.5545 15.2211 87.6433C16.7879 86.7321 19.3392 86.7348 20.9168 87.6433Z" fill="#E0E0E0"/>
<g opacity="0.15">
<path opacity="0.15" d="M20.9168 87.6433C22.4944 88.5545 22.5026 90.0342 20.9359 90.9427C19.3691 91.8512 16.8178 91.8539 15.2402 90.9427C13.6626 90.0315 13.6544 88.5545 15.2211 87.6433C16.7879 86.7321 19.3392 86.7348 20.9168 87.6433Z" fill="black"/>
</g>
<path d="M26.5663 67.2656C14.9328 71.0736 14.8268 78.8583 17.4488 84.4016C18.1125 85.5223 20.1144 86.1261 21.8552 79.2336L18.8007 79.6253L22.3612 77.8219L23.286 75.0557L20.3157 75.276L24.0856 73.6903C24.7786 71.4994 25.607 69.3537 26.5663 67.2656Z" fill="#064DD6"/>
<path opacity="0.2" d="M26.5663 67.2656C14.9328 71.0736 14.8268 78.8583 17.4488 84.4016C18.1125 85.5223 20.1144 86.1261 21.8552 79.2336L18.8007 79.6253L22.3612 77.8219L23.286 75.0557L20.3157 75.276L24.0856 73.6903C24.7786 71.4994 25.607 69.3537 26.5663 67.2656Z" fill="black"/>
<path d="M23.275 69.2109C17.136 73.8676 16.592 79.2069 18.3192 84.7802C17.7072 79.8733 17.0435 74.9121 23.275 69.2109Z" fill="white"/>
<path d="M6.86255 75.1719C18.3301 76.7848 19.72 84.0173 18.1995 89.6151C17.7698 90.7683 16.0045 91.6632 13.2382 85.5351L16.1486 85.3909L12.531 84.3029L11.2118 81.8712L14.0134 81.5992L10.2408 80.7479C9.2311 78.8211 8.10285 76.9589 6.86255 75.1719Z" fill="#064DD6"/>
<path opacity="0.2" d="M6.86255 75.1719C18.3301 76.7848 19.72 84.0173 18.1995 89.6151C17.7698 90.7683 16.0045 91.6632 13.2382 85.5351L16.1486 85.3909L12.531 84.3029L11.2118 81.8712L14.0134 81.5992L10.2408 80.7479C9.2311 78.8211 8.10285 76.9589 6.86255 75.1719Z" fill="white"/>
<path d="M10.2489 76.4336C16.7361 79.752 18.1369 84.6317 17.4515 90.1097C17.2067 85.4422 16.9999 80.7122 10.2489 76.4336Z" fill="white"/>
<path d="M29.92 77.8828C19.4045 78.0542 17.34 84.4108 18.0853 89.6305C18.3573 90.7185 19.8343 91.7222 23.014 86.5079L20.4 86.0537L23.7837 85.4771L25.2444 83.4425L22.7501 82.8686L26.248 82.5259C27.3753 80.904 28.6016 79.3534 29.92 77.8828Z" fill="#064DD6"/>
<path d="M26.7267 78.6445C20.5088 80.9076 18.7 85.1372 18.7055 90.1637C19.448 85.9804 20.1661 81.7399 26.7267 78.6445Z" fill="white"/>
<path d="M107.168 80.9805C107.241 89.1078 107.328 96.9333 107.328 96.9333C107.333 96.9856 107.351 97.0357 107.382 97.0783C107.413 97.1209 107.454 97.1544 107.503 97.1753C107.632 97.2411 107.776 97.2753 107.921 97.2753C108.067 97.2753 108.21 97.2411 108.34 97.1753C108.388 97.1538 108.429 97.1201 108.459 97.0775C108.489 97.035 108.507 96.9852 108.512 96.9333C108.512 96.9333 108.599 89.1105 108.672 80.9832C108.177 81.0022 107.674 81.0022 107.168 80.9805Z" fill="#E0E0E0"/>
<path d="M97.2971 91.0702C97.3019 91.1224 97.3206 91.1724 97.3512 91.215C97.3818 91.2575 97.4232 91.2911 97.4712 91.3123C97.6011 91.378 97.7445 91.4122 97.8901 91.4122C98.0356 91.4122 98.1791 91.378 98.309 91.3123C98.3563 91.2905 98.397 91.2567 98.4271 91.2142C98.4572 91.1717 98.4755 91.122 98.4803 91.0702C98.4803 91.0702 98.8584 85.4806 99.3969 78.8302C98.8894 78.5158 98.4146 78.1513 97.9798 77.7422C97.5446 84.8631 97.2971 91.0702 97.2971 91.0702Z" fill="#E0E0E0"/>
<path d="M117.371 91.072C117.376 91.1238 117.394 91.1735 117.424 91.216C117.454 91.2585 117.495 91.2923 117.542 91.3141C117.672 91.3798 117.815 91.4141 117.961 91.4141C118.107 91.4141 118.25 91.3798 118.38 91.3141C118.427 91.2922 118.468 91.2585 118.499 91.216C118.529 91.1736 118.548 91.124 118.554 91.072C118.554 91.072 118.32 84.8894 117.871 77.793C117.436 78.1973 116.961 78.5572 116.454 78.8674C116.995 85.4987 117.371 91.072 117.371 91.072Z" fill="#E0E0E0"/>
<path opacity="0.1" d="M107.168 80.9805C107.241 89.1078 107.328 96.9333 107.328 96.9333C107.333 96.9856 107.351 97.0357 107.382 97.0783C107.413 97.1209 107.454 97.1544 107.503 97.1753C107.632 97.2411 107.776 97.2753 107.921 97.2753C108.067 97.2753 108.21 97.2411 108.34 97.1753C108.388 97.1538 108.429 97.1201 108.459 97.0775C108.489 97.035 108.507 96.9852 108.512 96.9333C108.512 96.9333 108.599 89.1105 108.672 80.9832C108.177 81.0022 107.674 81.0022 107.168 80.9805Z" fill="black"/>
<path opacity="0.1" d="M97.2971 91.0702C97.3019 91.1224 97.3206 91.1724 97.3512 91.215C97.3818 91.2575 97.4232 91.2911 97.4712 91.3123C97.6011 91.378 97.7445 91.4122 97.8901 91.4122C98.0356 91.4122 98.1791 91.378 98.309 91.3123C98.3563 91.2905 98.397 91.2567 98.4271 91.2142C98.4572 91.1717 98.4755 91.122 98.4803 91.0702C98.4803 91.0702 98.8584 85.4806 99.3969 78.8302C98.8894 78.5158 98.4146 78.1513 97.9798 77.7422C97.5446 84.8631 97.2971 91.0702 97.2971 91.0702Z" fill="black"/>
<path opacity="0.1" d="M117.371 91.072C117.376 91.1238 117.394 91.1735 117.424 91.216C117.454 91.2585 117.495 91.2923 117.542 91.3141C117.672 91.3798 117.815 91.4141 117.961 91.4141C118.107 91.4141 118.25 91.3798 118.38 91.3141C118.427 91.2922 118.468 91.2585 118.499 91.216C118.529 91.1736 118.548 91.124 118.554 91.072C118.554 91.072 118.32 84.8894 117.871 77.793C117.436 78.1973 116.961 78.5572 116.454 78.8674C116.995 85.4987 117.371 91.072 117.371 91.072Z" fill="black"/>
<path d="M119.596 72.9219C119.596 74.6518 118.478 76.3817 116.206 77.7009C111.661 80.342 104.271 80.342 99.6988 77.7009C97.4113 76.3817 96.2634 74.6518 96.2526 72.9219V74.2356C96.2526 75.4569 96.8374 76.6836 97.9798 77.7553C98.4146 78.1645 98.8893 78.5289 99.3969 78.8433L99.6988 79.0256C101.782 80.2278 104.453 80.8806 107.173 80.9867C107.674 81.0084 108.177 81.0084 108.678 80.9867C111.422 80.8915 114.118 80.236 116.206 79.0228L116.454 78.8705C116.961 78.5603 117.436 78.2004 117.871 77.7961C119.027 76.7081 119.604 75.476 119.596 74.2411V72.9219Z" fill="#E0E0E0"/>
<path opacity="0.1" d="M119.596 72.9219C119.596 74.6518 118.478 76.3817 116.206 77.7009C111.661 80.342 104.271 80.342 99.6988 77.7009C97.4113 76.3817 96.2634 74.6518 96.2526 72.9219V74.2356C96.2526 75.4569 96.8374 76.6836 97.9798 77.7553C98.4146 78.1645 98.8893 78.5289 99.3969 78.8433L99.6988 79.0256C101.782 80.2278 104.453 80.8806 107.173 80.9867C107.674 81.0084 108.177 81.0084 108.678 80.9867C111.422 80.8915 114.118 80.236 116.206 79.0228L116.454 78.8705C116.961 78.5603 117.436 78.2004 117.871 77.7961C119.027 76.7081 119.604 75.476 119.596 74.2411V72.9219Z" fill="black"/>
<path d="M99.6989 77.7037C104.271 80.3448 111.667 80.3448 116.207 77.7037C118.478 76.3845 119.607 74.6545 119.596 72.9246C119.585 71.1947 118.437 69.4648 116.152 68.1429C111.577 65.5045 104.184 65.5045 99.6444 68.1429C97.3732 69.4648 96.2444 71.1947 96.2526 72.9246C96.2608 74.6545 97.4113 76.3845 99.6989 77.7037Z" fill="#E0E0E0"/>
<g opacity="0.3">
<path opacity="0.3" d="M107.168 80.9805C107.168 81.5245 107.168 82.0685 107.182 82.6125C107.674 82.6315 108.166 82.6315 108.659 82.6125C108.659 82.0685 108.659 81.5245 108.672 80.9805C108.177 81.0022 107.674 81.0022 107.168 80.9805Z" fill="black"/>
<path opacity="0.3" d="M97.9798 77.7578C97.9499 78.2773 97.9172 78.7914 97.8873 79.2973C98.3116 79.7061 98.7764 80.0706 99.2745 80.3853C99.3126 79.8767 99.3561 79.3599 99.3969 78.8377C98.8897 78.5259 98.415 78.1641 97.9798 77.7578Z" fill="black"/>
<path opacity="0.3" d="M117.871 77.793C117.436 78.1973 116.961 78.5572 116.454 78.8674C116.498 79.3896 116.539 79.9055 116.579 80.415C117.077 80.1005 117.54 79.7359 117.964 79.327C117.934 78.8266 117.904 78.3125 117.871 77.793Z" fill="black"/>
</g>
<g opacity="0.5">
<path opacity="0.5" d="M107.168 80.9805C107.241 89.1078 107.328 96.9333 107.328 96.9333C107.333 96.9856 107.351 97.0357 107.382 97.0783C107.413 97.1209 107.454 97.1544 107.503 97.1753C107.632 97.2411 107.776 97.2753 107.921 97.2753C108.067 97.2753 108.21 97.2411 108.34 97.1753C108.388 97.1538 108.429 97.1201 108.459 97.0775C108.489 97.035 108.507 96.9852 108.512 96.9333C108.512 96.9333 108.599 89.1105 108.672 80.9832C108.177 81.0022 107.674 81.0022 107.168 80.9805Z" fill="#E0E0E0"/>
<path opacity="0.5" d="M97.2971 91.0741C97.3019 91.1263 97.3206 91.1763 97.3512 91.2189C97.3818 91.2614 97.4232 91.295 97.4712 91.3162C97.6011 91.3819 97.7445 91.4161 97.8901 91.4161C98.0356 91.4161 98.1791 91.3819 98.309 91.3162C98.3563 91.2944 98.397 91.2606 98.4271 91.2181C98.4572 91.1756 98.4755 91.1259 98.4803 91.0741C98.4803 91.0741 98.8584 85.4845 99.3969 78.8341C98.8894 78.5197 98.4146 78.1552 97.9798 77.7461C97.5446 84.8671 97.2971 91.0741 97.2971 91.0741Z" fill="#E0E0E0"/>
<path opacity="0.5" d="M117.371 91.072C117.376 91.1238 117.394 91.1735 117.424 91.216C117.454 91.2585 117.495 91.2923 117.542 91.3141C117.672 91.3798 117.815 91.4141 117.961 91.4141C118.107 91.4141 118.25 91.3798 118.38 91.3141C118.427 91.2922 118.468 91.2585 118.499 91.216C118.529 91.1736 118.548 91.124 118.554 91.072C118.554 91.072 118.32 84.8894 117.871 77.793C117.436 78.1973 116.961 78.5572 116.454 78.8674C116.995 85.4987 117.371 91.072 117.371 91.072Z" fill="#E0E0E0"/>
<path opacity="0.5" d="M119.596 72.9258C119.596 74.6557 118.478 76.3856 116.206 77.7048C111.661 80.3459 104.271 80.3459 99.6988 77.7048C97.4113 76.3856 96.2634 74.6557 96.2526 72.9258V74.2395C96.2526 75.4608 96.8374 76.6875 97.9798 77.7592C98.4146 78.1684 98.8893 78.5329 99.3969 78.8472L99.6988 79.0295C101.782 80.2317 104.453 80.8845 107.173 80.9906C107.674 81.0123 108.177 81.0123 108.678 80.9906C111.422 80.8954 114.118 80.2399 116.206 79.0267L116.454 78.8744C116.961 78.5642 117.436 78.2043 117.871 77.8C119.027 76.712 119.604 75.4799 119.596 74.245V72.9258Z" fill="white"/>
<path opacity="0.5" d="M99.6989 77.7037C104.271 80.3448 111.667 80.3448 116.207 77.7037C118.478 76.3845 119.607 74.6545 119.596 72.9246C119.585 71.1947 118.437 69.4648 116.152 68.1429C111.577 65.5045 104.184 65.5045 99.6444 68.1429C97.3732 69.4648 96.2444 71.1947 96.2526 72.9246C96.2608 74.6545 97.4113 76.3845 99.6989 77.7037Z" fill="white"/>
</g>
<path d="M111.835 65.7137L107.902 65.8252L103.969 65.7109C103.801 68.3657 104.317 71.0748 105.033 72.3967C105.202 72.736 105.474 73.013 105.811 73.1882C106.46 73.5184 107.178 73.6904 107.906 73.6904C108.635 73.6904 109.353 73.5184 110.002 73.1882C110.345 73.0102 110.619 72.7231 110.78 72.3722C111.493 71.0476 112.004 68.3548 111.835 65.7137Z" fill="#FF9F61"/>
<path d="M110.674 64.0978C112.216 64.9872 112.224 66.4315 110.693 67.321C109.162 68.2104 106.67 68.2104 105.131 67.321C103.591 66.4315 103.58 64.9899 105.112 64.0978C106.643 63.2056 109.135 63.2083 110.674 64.0978Z" fill="#EBEBEB"/>
<path d="M110.065 64.4657C111.267 65.1593 111.275 66.2854 110.078 66.979C108.882 67.6726 106.942 67.6726 105.74 66.979C104.538 66.2854 104.53 65.1593 105.726 64.4657C106.923 63.7721 108.863 63.7612 110.065 64.4657Z" fill="#E0E0E0"/>
<g opacity="0.15">
<path opacity="0.15" d="M110.065 64.4657C111.267 65.1593 111.275 66.2854 110.078 66.979C108.882 67.6726 106.942 67.6726 105.74 66.979C104.538 66.2854 104.53 65.1593 105.726 64.4657C106.923 63.7721 108.863 63.7612 110.065 64.4657Z" fill="black"/>
</g>
<path d="M107.573 65.8242C107.889 66.0878 108.264 66.2726 108.665 66.3634C109.066 66.4542 109.484 66.4484 109.882 66.3464C110.266 66.2301 110.615 66.0199 110.897 65.735C111.179 65.45 111.386 65.0993 111.498 64.7144C111.032 64.4934 110.606 64.1975 110.236 63.8386C110.826 63.6927 111.445 63.7144 112.023 63.9011C112.183 63.6501 112.28 63.3636 112.303 63.0667C112.327 62.7699 112.278 62.4717 112.159 62.1984C111.488 61.8999 110.733 61.847 110.027 62.0488C110.32 61.7939 110.663 61.6019 111.033 61.4849C111.404 61.3679 111.794 61.3284 112.181 61.3688C112.236 60.2417 112.061 59.1151 111.664 58.0586C110.198 58.1348 108.775 58.7658 108.297 59.22C108.274 59.7448 108.329 60.2699 108.46 60.7786C108.27 60.6821 108.108 60.5392 107.989 60.3633C107.87 60.1873 107.797 59.9839 107.777 59.7722C106.861 60.0007 106.466 60.4576 106.325 60.8085C106.455 61.4608 106.754 62.0676 107.192 62.5684C106.33 62.2964 105.982 61.3471 105.982 61.3471C105.133 63.3544 105.297 65.6283 107.573 65.8242Z" fill="#FF6C0E"/>
<path opacity="0.2" d="M107.573 65.8242C107.889 66.0878 108.264 66.2726 108.665 66.3634C109.066 66.4542 109.484 66.4484 109.882 66.3464C110.266 66.2301 110.615 66.0199 110.897 65.735C111.179 65.45 111.386 65.0993 111.498 64.7144C111.032 64.4934 110.606 64.1975 110.236 63.8386C110.826 63.6927 111.445 63.7144 112.023 63.9011C112.183 63.6501 112.28 63.3636 112.303 63.0667C112.327 62.7699 112.278 62.4717 112.159 62.1984C111.488 61.8999 110.733 61.847 110.027 62.0488C110.32 61.7939 110.663 61.6019 111.033 61.4849C111.404 61.3679 111.794 61.3284 112.181 61.3688C112.236 60.2417 112.061 59.1151 111.664 58.0586C110.198 58.1348 108.775 58.7658 108.297 59.22C108.274 59.7448 108.329 60.2699 108.46 60.7786C108.27 60.6821 108.108 60.5392 107.989 60.3633C107.87 60.1873 107.797 59.9839 107.777 59.7722C106.861 60.0007 106.466 60.4576 106.325 60.8085C106.455 61.4608 106.754 62.0676 107.192 62.5684C106.33 62.2964 105.982 61.3471 105.982 61.3471C105.133 63.3544 105.297 65.6283 107.573 65.8242Z" fill="black"/>
<path opacity="0.3" d="M107.573 65.8242C107.889 66.0878 108.264 66.2726 108.665 66.3634C109.066 66.4542 109.484 66.4484 109.882 66.3464C110.266 66.2301 110.615 66.0199 110.897 65.735C111.179 65.45 111.386 65.0993 111.498 64.7144C111.032 64.4934 110.606 64.1975 110.236 63.8386C110.826 63.6927 111.445 63.7144 112.023 63.9011C112.183 63.6501 112.28 63.3636 112.303 63.0667C112.327 62.7699 112.278 62.4717 112.159 62.1984C111.488 61.8999 110.733 61.847 110.027 62.0488C110.32 61.7939 110.663 61.6019 111.033 61.4849C111.404 61.3679 111.794 61.3284 112.181 61.3688C112.236 60.2417 112.061 59.1151 111.664 58.0586C110.198 58.1348 108.775 58.7658 108.297 59.22C108.274 59.7448 108.329 60.2699 108.46 60.7786C108.27 60.6821 108.108 60.5392 107.989 60.3633C107.87 60.1873 107.797 59.9839 107.777 59.7722C106.861 60.0007 106.466 60.4576 106.325 60.8085C106.455 61.4608 106.754 62.0676 107.192 62.5684C106.33 62.2964 105.982 61.3471 105.982 61.3471C105.133 63.3544 105.297 65.6283 107.573 65.8242Z" fill="white"/>
<path d="M107.524 66.0417C107.513 66.041 107.502 66.0381 107.492 66.0332C107.482 66.0283 107.474 66.0215 107.466 66.0132C107.459 66.0049 107.453 65.9951 107.45 65.9846C107.446 65.9741 107.445 65.963 107.445 65.9519C107.587 64.0996 108.645 61.0423 111.172 58.5209C111.18 58.513 111.189 58.5068 111.199 58.5025C111.209 58.4983 111.221 58.4961 111.232 58.4961C111.243 58.4961 111.254 58.4983 111.264 58.5025C111.274 58.5068 111.284 58.513 111.291 58.5209C111.299 58.5287 111.306 58.5381 111.31 58.5483C111.314 58.5586 111.316 58.5696 111.316 58.5807C111.316 58.5918 111.314 58.6028 111.31 58.6131C111.306 58.6234 111.299 58.6327 111.291 58.6406C108.8 61.1294 107.755 64.1404 107.617 65.9655C107.614 65.9876 107.603 66.0079 107.586 66.022C107.568 66.0362 107.546 66.0432 107.524 66.0417Z" fill="#F5F5F5"/>
<path d="M108.215 66.8161C107.921 67.0566 107.574 67.2241 107.203 67.3049C106.832 67.3857 106.447 67.3774 106.079 67.2809C105.712 67.1843 105.372 67.0022 105.089 66.7493C104.805 66.4964 104.586 66.18 104.448 65.826C104.869 65.6341 105.254 65.372 105.588 65.0508C105.03 64.9171 104.447 64.934 103.898 65.0998C103.732 64.888 103.622 64.6368 103.581 64.3705C103.54 64.1042 103.567 63.8317 103.662 63.5793C104.301 63.3161 105.009 63.2739 105.675 63.4596C105.081 62.9977 104.335 62.7762 103.586 62.8395C103.455 61.846 103.548 60.8358 103.858 59.8828C105.253 59.9671 106.637 60.5465 107.122 60.9572C107.175 61.418 107.156 61.8842 107.065 62.339C107.234 62.2587 107.378 62.1331 107.48 61.9761C107.582 61.8191 107.639 61.6368 107.644 61.4495C108.52 61.6617 108.914 62.0724 109.069 62.3825C108.986 62.9565 108.742 63.4952 108.365 63.9356C108.61 63.8479 108.833 63.7061 109.016 63.5205C109.199 63.335 109.338 63.1106 109.423 62.8639C110.345 64.6428 110.331 66.642 108.215 66.8161Z" fill="#FF6C0E"/>
<path opacity="0.3" d="M108.215 66.8161C107.921 67.0566 107.574 67.2241 107.203 67.3049C106.832 67.3857 106.447 67.3774 106.079 67.2809C105.712 67.1843 105.372 67.0022 105.089 66.7493C104.805 66.4964 104.586 66.18 104.448 65.826C104.869 65.6341 105.254 65.372 105.588 65.0508C105.03 64.9171 104.447 64.934 103.898 65.0998C103.732 64.888 103.622 64.6368 103.581 64.3705C103.54 64.1042 103.567 63.8317 103.662 63.5793C104.301 63.3161 105.009 63.2739 105.675 63.4596C105.081 62.9977 104.335 62.7762 103.586 62.8395C103.455 61.846 103.548 60.8358 103.858 59.8828C105.253 59.9671 106.637 60.5465 107.122 60.9572C107.175 61.418 107.156 61.8842 107.065 62.339C107.234 62.2587 107.378 62.1331 107.48 61.9761C107.582 61.8191 107.639 61.6368 107.644 61.4495C108.52 61.6617 108.914 62.0724 109.069 62.3825C108.986 62.9565 108.742 63.4952 108.365 63.9356C108.61 63.8479 108.833 63.7061 109.016 63.5205C109.199 63.335 109.338 63.1106 109.423 62.8639C110.345 64.6428 110.331 66.642 108.215 66.8161Z" fill="white"/>
<path d="M108.272 67.0168C108.252 67.0165 108.233 67.0093 108.218 66.9964C108.202 66.9835 108.192 66.9657 108.188 66.946C107.949 65.3331 106.776 62.6566 104.266 60.418C104.258 60.4102 104.252 60.4009 104.247 60.3906C104.243 60.3803 104.241 60.3693 104.241 60.3582C104.241 60.3471 104.243 60.3361 104.247 60.3258C104.252 60.3155 104.258 60.3062 104.266 60.2983C104.274 60.2905 104.283 60.2842 104.293 60.2799C104.303 60.2756 104.314 60.2734 104.326 60.2734C104.337 60.2734 104.348 60.2756 104.358 60.2799C104.368 60.2842 104.378 60.2905 104.385 60.2983C106.923 62.5614 108.112 65.2814 108.357 66.9134C108.36 66.9357 108.354 66.9584 108.341 66.9766C108.328 66.9949 108.308 67.0073 108.286 67.0113L108.272 67.0168Z" fill="white"/>
<path d="M68.4706 10.8645C68.4113 10.6343 68.3198 10.4136 68.1986 10.209C67.9266 9.801 67.4724 9.56164 66.3735 9.5834C66.22 9.58856 66.0684 9.61888 65.9247 9.67316L24.6296 33.1658C24.1762 33.4289 23.799 33.8055 23.5352 34.2585C23.2715 34.7116 23.1303 35.2256 23.1255 35.7498V102.95C23.1255 104.15 23.83 104.601 24.6133 104.653C24.9502 104.671 25.2875 104.627 25.6088 104.525C25.65 104.513 25.6901 104.498 25.7285 104.479L67.048 80.9453C67.504 80.6853 67.883 80.3093 68.1467 79.8555C68.4104 79.4017 68.5493 78.8862 68.5495 78.3613V11.1773C68.5463 11.0686 68.5193 10.9618 68.4706 10.8645Z" fill="#064DD6"/>
<path opacity="0.2" d="M68.4706 10.8645C68.4113 10.6343 68.3198 10.4136 68.1986 10.209C67.9266 9.801 67.4724 9.56164 66.3735 9.5834C66.22 9.58856 66.0684 9.61888 65.9247 9.67316L24.6296 33.1658C24.1762 33.4289 23.799 33.8055 23.5352 34.2585C23.2715 34.7116 23.1303 35.2256 23.1255 35.7498V102.95C23.1255 104.15 23.83 104.601 24.6133 104.653C24.9502 104.671 25.2875 104.627 25.6088 104.525C25.65 104.513 25.6901 104.498 25.7285 104.479L67.048 80.9453C67.504 80.6853 67.883 80.3093 68.1467 79.8555C68.4104 79.4017 68.5493 78.8862 68.5495 78.3613V11.1773C68.5463 11.0686 68.5193 10.9618 68.4706 10.8645Z" fill="black"/>
<path opacity="0.2" d="M23.4356 34.4459C23.2339 34.8517 23.1278 35.2983 23.1255 35.7515V102.952C23.1255 104.151 23.83 104.603 24.6133 104.655C24.399 104.328 24.2933 103.943 24.3114 103.553V36.3499C24.3131 35.8978 24.4182 35.4522 24.6188 35.047C24.6514 34.979 24.6949 34.9165 24.733 34.8512L23.5852 34.1875C23.5335 34.2745 23.4791 34.3561 23.4356 34.4459Z" fill="black"/>
<path opacity="0.2" d="M66.3844 9.58344C66.2309 9.5886 66.0793 9.61893 65.9356 9.6732L24.6297 33.1658C24.2012 33.4124 23.8419 33.7633 23.5852 34.1858L24.733 34.8495C24.9929 34.3969 25.3684 34.0214 25.821 33.7615L67.1188 10.2716C67.2629 10.2194 67.4144 10.19 67.5676 10.1846C67.7819 10.1793 67.9963 10.1875 68.2095 10.209C67.9511 9.79288 67.4833 9.56168 66.3844 9.58344Z" fill="white"/>
<path d="M66.6645 12.9648L26.2753 36.2752V99.6431L66.6645 76.3327V12.9648Z" fill="#455A64"/>
<path d="M48.5439 87.8571C48.1538 88.1008 47.8174 88.4214 47.5551 88.7992C47.2927 89.177 47.11 89.6042 47.018 90.0549C46.9173 90.8382 47.4368 91.1429 48.1821 90.6995C48.5715 90.4549 48.9073 90.1342 49.1696 89.7565C49.4318 89.3788 49.615 88.952 49.708 88.5017C49.806 87.7211 49.2864 87.4301 48.5439 87.8571Z" fill="#064DD6"/>
<g opacity="0.4">
<path opacity="0.4" d="M48.5439 87.8571C48.1538 88.1008 47.8174 88.4214 47.5551 88.7992C47.2927 89.177 47.11 89.6042 47.018 90.0549C46.9173 90.8382 47.4368 91.1429 48.1821 90.6995C48.5715 90.4549 48.9073 90.1342 49.1696 89.7565C49.4318 89.3788 49.615 88.952 49.708 88.5017C49.806 87.7211 49.2864 87.4301 48.5439 87.8571Z" fill="black"/>
</g>
<path d="M70.5459 9.64391V7.58759C70.5433 7.49306 70.5201 7.40023 70.4779 7.31559C70.4307 7.11358 70.3527 6.92002 70.2467 6.74167C70.021 6.37991 69.6075 6.17047 68.6392 6.19767C68.5045 6.20136 68.3712 6.22709 68.2448 6.27383L31.8621 26.9431C31.4634 27.1749 31.1318 27.5064 30.9001 27.9051C30.6683 28.3037 30.5443 28.7559 30.5402 29.217V31.5726L31.5819 32.1737L70.5459 9.64391Z" fill="#064DD6"/>
<path d="M31.5819 32.1743L30.5402 31.5732V90.4639C30.5402 91.5192 31.1603 91.9191 31.8485 91.9626C32.1457 91.9792 32.4434 91.9414 32.727 91.8511C32.7633 91.8389 32.7988 91.8244 32.8331 91.8076L69.224 71.0812C69.6257 70.8528 69.9596 70.522 70.1918 70.1226C70.424 69.7231 70.5462 69.2693 70.5459 68.8073V9.64453L31.5819 32.1743Z" fill="#064DD6"/>
<path opacity="0.2" d="M30.8122 28.0695C30.6345 28.4261 30.5414 28.8189 30.5402 29.2173V90.4636C30.5402 91.5189 31.1603 91.9188 31.8485 91.9623C31.6576 91.6755 31.5624 91.3355 31.5765 90.9913V29.7477C31.5787 29.3494 31.6717 28.9569 31.8485 28.5999C31.8784 28.5401 31.9165 28.4829 31.9491 28.4258L30.9373 27.8438C30.8914 27.9166 30.8496 27.992 30.8122 28.0695Z" fill="black"/>
<path opacity="0.2" d="M68.6392 6.17307C68.5045 6.17676 68.3712 6.20249 68.2448 6.24923L31.8621 26.943C31.4846 27.1607 31.1683 27.4704 30.9427 27.8433L31.9546 28.4254C32.1842 28.0285 32.5144 27.6991 32.912 27.4707L69.2866 6.77963C69.4136 6.73175 69.548 6.70599 69.6837 6.70347C69.8717 6.69744 70.0598 6.70471 70.2467 6.72523C70.021 6.36347 69.6075 6.15403 68.6392 6.17307Z" fill="white"/>
<path opacity="0.05" d="M70.5459 9.64391V7.58759C70.5433 7.49306 70.5201 7.40023 70.4779 7.31559C70.4307 7.11358 70.3527 6.92002 70.2467 6.74167C70.021 6.37991 69.6075 6.17047 68.6392 6.19767C68.5045 6.20136 68.3712 6.22709 68.2448 6.27383L31.8621 26.9431C31.4634 27.1749 31.1318 27.5064 30.9001 27.9051C30.6683 28.3037 30.5443 28.7559 30.5402 29.217V31.5726L31.5819 32.1737L70.5459 9.64391Z" fill="white"/>
<path opacity="0.3" d="M31.5819 32.1743L30.5402 31.5732V90.4639C30.5402 91.5192 31.1603 91.9191 31.8485 91.9626C32.1457 91.9792 32.4434 91.9414 32.727 91.8511C32.7633 91.8389 32.7988 91.8244 32.8331 91.8076L69.224 71.0812C69.6257 70.8528 69.9596 70.522 70.1918 70.1226C70.424 69.7231 70.5462 69.2693 70.5459 68.8073V9.64453L31.5819 32.1743Z" fill="white"/>
<path d="M50.6355 31.125L34.6392 40.354V67.0616L50.6355 57.83V31.125Z" fill="white"/>
<path d="M35.5287 40.8664L49.7488 32.6602V57.317L35.5287 65.5205V40.8664Z" fill="#455A64"/>
<path opacity="0.3" d="M35.5287 40.8664L49.7488 32.6602V57.317L35.5287 65.5205V40.8664Z" fill="white"/>
<path d="M49.7488 57.3377L35.5287 65.5521V56.1109L39.6658 52.8605L44.997 50.8369L46.3162 50.5077C46.901 50.3615 47.5105 50.3434 48.103 50.4547C48.6955 50.5659 49.2569 50.8039 49.7488 51.1524V57.3377Z" fill="#E0E0E0"/>
<path d="M38.7464 45.6959C38.3329 44.3115 38.4227 42.723 39.2496 41.5371C39.7951 40.7805 40.5607 40.2106 41.4419 39.9051C42.3163 39.6086 43.2408 39.4884 44.1619 39.5515C44.8923 39.5654 45.6109 39.739 46.2672 40.0601C46.6604 40.2698 47.0084 40.555 47.2913 40.8993C47.5742 41.2437 47.7864 41.6405 47.9158 42.0669C48.0451 42.4934 48.0891 42.9412 48.0452 43.3847C48.0013 43.8282 47.8703 44.2587 47.6598 44.6515C47.3014 45.2564 46.8338 45.7894 46.2808 46.2236C45.2196 47.132 44.0535 47.91 42.8073 48.5411C42.4972 48.6988 42.1817 48.8484 41.8608 48.9871C41.6432 49.0823 41.2324 49.3489 40.9876 49.2999C40.7428 49.251 40.4872 48.7967 40.3403 48.6091C40.1281 48.3371 39.9268 48.0651 39.7392 47.7767C39.3088 47.1351 38.9743 46.4341 38.7464 45.6959Z" fill="#263238"/>
<path d="M46.1748 57.3225C46.0716 56.9057 45.9295 56.4996 45.7504 56.1094L45.0704 56.2699C45.1221 56.6507 45.1493 57.0478 45.1629 57.4422C45.1629 57.7142 45.1412 58.7206 45.0895 60.0235L46.6154 59.1449C46.4794 58.5465 46.3352 57.9345 46.1748 57.3225Z" fill="#064DD6"/>
<path opacity="0.2" d="M45.0868 56.414C45.0868 56.3678 45.0868 56.3188 45.0704 56.2699L45.7504 56.1094L45.7912 56.21C45.6992 56.2987 45.587 56.3637 45.4642 56.3992C45.3415 56.4348 45.2119 56.4399 45.0868 56.414Z" fill="black"/>
<path d="M44.7059 54.4873L44.1619 54.1445L42.9161 54.8245C43.3427 55.1521 43.8524 55.3538 44.3877 55.4066L44.7059 54.4873Z" fill="#064DD6"/>
<path d="M45.5328 54.3594L45.696 53.9922L46.3244 54.3866C46.2572 54.6252 46.114 54.8353 45.9164 54.985L45.5328 54.3594Z" fill="#064DD6"/>
<path opacity="0.2" d="M44.7059 54.4873L44.1619 54.1445L42.9161 54.8245C43.3427 55.1521 43.8524 55.3538 44.3877 55.4066L44.7059 54.4873Z" fill="black"/>
<path opacity="0.2" d="M45.5328 54.3594L45.696 53.9922L46.3244 54.3866C46.2572 54.6252 46.114 54.8353 45.9164 54.985L45.5328 54.3594Z" fill="black"/>
<path d="M44.3959 55.4093C44.4485 55.088 44.5533 54.7775 44.706 54.4899L45.522 54.3594C45.6729 54.5528 45.8016 54.7627 45.9055 54.985C45.9234 55.3675 45.867 55.7499 45.7396 56.1111C45.5294 56.2193 45.2959 56.2744 45.0596 56.2715C44.7542 56.06 44.5223 55.7586 44.3959 55.4093Z" fill="#064DD6"/>
<path d="M40.9033 48.1055V51.8808C41.654 52.9171 44.812 54.2309 44.9969 54.201C45.2254 54.1602 44.9969 52.1256 44.9969 51.9488V50.4202C44.3822 50.3277 43.7811 50.2189 43.2398 50.1047C42.7134 49.9955 42.2231 49.755 41.8146 49.4054C41.4061 49.0559 41.0926 48.6087 40.9033 48.1055Z" fill="#FFBBBA"/>
<path d="M43.6234 50.9982C44.0739 51.1167 44.5333 51.1985 44.997 51.243V50.427C44.3823 50.3345 43.7812 50.2257 43.2399 50.1115C42.7463 50.0078 42.2844 49.7885 41.892 49.4717C41.4995 49.1549 41.1878 48.7496 40.9823 48.2891C41.0819 48.9242 41.3656 49.5163 41.7983 49.9918C42.3042 50.4865 42.9351 50.8344 43.6234 50.9982Z" fill="#FF8F8D"/>
<path d="M47.3553 42.1602C46.7369 42.7586 45.917 43.104 45.0569 43.1285C44.2409 43.1285 43.4684 42.8701 42.6877 42.6552C42.6164 43.0347 42.4258 43.3816 42.1437 43.6453C41.8321 43.9109 41.4488 44.0784 41.0421 44.1267C41.1564 44.8558 41.1564 45.5982 41.0421 46.3272C41.032 46.4033 41.0014 46.4751 40.9534 46.535C40.9055 46.595 40.8421 46.6406 40.7701 46.6672C40.4981 46.7434 40.3349 46.4741 40.2071 46.2565C40.0702 46.0018 39.8744 45.7835 39.6359 45.62C39.5166 45.5417 39.3802 45.4932 39.2382 45.4785C39.0962 45.4638 38.9527 45.4834 38.8199 45.5357C38.7139 45.5916 38.6206 45.6688 38.5457 45.7624C38.4708 45.856 38.416 45.964 38.3847 46.0797C38.3238 46.3067 38.3127 46.5443 38.3521 46.776C38.3988 47.1669 38.5554 47.5366 38.8036 47.8422C38.9279 47.9944 39.082 48.1194 39.2565 48.2097C39.431 48.3 39.6222 48.3536 39.8181 48.3672C40.009 48.3837 40.2006 48.3475 40.3723 48.2626C40.544 48.1777 40.6891 48.0474 40.7919 47.8858L40.8109 47.9565C40.9402 48.4928 41.2185 48.9816 41.6136 49.3666C42.0087 49.7516 42.5046 50.0171 43.0441 50.1325C43.5391 50.2358 44.0885 50.3338 44.6461 50.4208C44.9181 50.4616 45.1901 50.4997 45.4621 50.5323C45.9683 50.593 46.4785 50.4578 46.8882 50.1543C47.2978 49.8509 47.5759 49.4022 47.6653 48.9003C48.038 46.7488 48.1631 44.2682 47.3553 42.1602Z" fill="#FFBBBA"/>
<path d="M45.745 44.8485H45.2662C44.7848 44.5221 44.2299 44.3201 43.6512 44.2608C43.0726 44.2014 42.4882 44.2866 41.9506 44.5085V45.0144L42.0838 45.0851C42.1562 45.4114 42.1972 45.7439 42.2062 46.078C42.2153 46.4063 42.3462 46.7194 42.5734 46.9565C42.862 47.1535 43.2101 47.2439 43.5581 47.2122C43.8356 47.2338 44.1145 47.193 44.3741 47.0925C44.6714 46.932 44.8954 46.6632 44.9997 46.3418C45.1194 46.0263 45.0976 45.844 45.2445 45.4659C45.2648 45.4112 45.3022 45.3644 45.3512 45.3326C45.4002 45.3007 45.4582 45.2855 45.5165 45.2891C45.5702 45.2911 45.6221 45.309 45.6657 45.3405C45.7092 45.3719 45.7425 45.4156 45.7613 45.4659C45.8973 45.844 45.881 46.0263 45.9898 46.3418C46.084 46.6563 46.2927 46.9241 46.5746 47.0925C46.8177 47.194 47.0818 47.235 47.3443 47.2122C47.6727 47.2433 48.0009 47.1522 48.2664 46.9565C48.4818 46.7139 48.6033 46.4023 48.6091 46.078C48.6168 45.7442 48.6551 45.4119 48.7234 45.0851L48.8485 45.0144V44.5085C48.3471 44.2865 47.796 44.201 47.2509 44.2607C46.7059 44.3204 46.1863 44.5232 45.745 44.8485ZM45.0242 45.1205L45.0051 45.3C44.9611 45.6265 44.8799 45.9468 44.763 46.2547C44.6784 46.5103 44.502 46.7255 44.268 46.8586C44.0805 46.9329 43.8791 46.9654 43.6778 46.9538H43.569C43.2825 46.9842 42.9944 46.915 42.753 46.758C42.5757 46.5664 42.4784 46.3144 42.481 46.0535C42.481 45.9692 42.4646 45.8821 42.4592 45.7815C42.4429 45.5394 42.4592 45.0117 42.4782 44.6282C42.752 44.5524 43.0347 44.5139 43.3187 44.5139C43.9168 44.5165 44.5021 44.6871 45.0078 45.0063C45.0323 45.0226 45.0242 45.1069 45.0242 45.1069V45.1205ZM48.3752 45.7951C48.3752 45.8821 48.3752 45.9691 48.3562 46.0671C48.355 46.3273 48.2582 46.578 48.0842 46.7716C47.8626 46.9274 47.5918 46.997 47.3226 46.9674H47.2219C47.0357 46.9778 46.8496 46.9452 46.6779 46.8722C46.4545 46.735 46.2897 46.5199 46.2155 46.2684C46.1059 45.9592 46.0302 45.6391 45.9898 45.3136L45.9707 45.1341C45.9707 45.1341 45.9707 45.0498 45.9898 45.0335C46.4562 44.7165 47.0062 44.5452 47.5701 44.5411C47.8363 44.5409 48.1011 44.5794 48.3562 44.6554C48.3779 45.0117 48.3888 45.5394 48.3752 45.7815V45.7951Z" fill="#37474F"/>
<path d="M41.9506 44.5078L39.2523 45.4789C39.447 45.5159 39.6293 45.6009 39.7827 45.7264C39.8099 45.7509 41.9587 45.0137 41.9587 45.0137L41.9506 44.5078Z" fill="#37474F"/>
<path d="M45.5001 45.332L46.8628 46.9804L45.6144 47.421L45.5001 45.332Z" fill="#9C5C5C"/>
<path d="M45.5001 45.332L46.8628 46.9804L45.6144 47.421L45.5001 45.332Z" fill="#FF8F8D"/>
<path d="M43.5799 45.5381C43.5792 45.5871 43.5882 45.6358 43.6065 45.6813C43.6247 45.7268 43.6519 45.7682 43.6863 45.8031C43.7207 45.8381 43.7617 45.8658 43.807 45.8847C43.8522 45.9037 43.9008 45.9134 43.9498 45.9134C44.0016 45.9178 44.0537 45.9114 44.1029 45.8947C44.1521 45.8779 44.1973 45.851 44.2356 45.8159C44.2739 45.7807 44.3045 45.738 44.3254 45.6904C44.3463 45.6428 44.3571 45.5914 44.3571 45.5394C44.3571 45.4874 44.3463 45.436 44.3254 45.3884C44.3045 45.3408 44.2739 45.2981 44.2356 45.2629C44.1973 45.2278 44.1521 45.201 44.1029 45.1842C44.0537 45.1674 44.0016 45.161 43.9498 45.1654C43.8514 45.1661 43.7573 45.2057 43.6881 45.2755C43.6188 45.3453 43.5799 45.4397 43.5799 45.5381Z" fill="#263238"/>
<path d="M46.7187 45.4239C46.7179 45.4731 46.727 45.5219 46.7452 45.5676C46.7634 45.6132 46.7905 45.6548 46.8249 45.69C46.8593 45.7251 46.9003 45.7531 46.9456 45.7724C46.9908 45.7916 47.0394 45.8017 47.0886 45.802C47.1879 45.802 47.2833 45.7629 47.354 45.6932C47.4248 45.6235 47.4652 45.5287 47.4667 45.4294C47.4587 45.3357 47.4158 45.2484 47.3465 45.1848C47.2773 45.1212 47.1867 45.0859 47.0927 45.0859C46.9986 45.0859 46.908 45.1212 46.8388 45.1848C46.7695 45.2484 46.7267 45.3357 46.7187 45.4294V45.4239Z" fill="#263238"/>
<path d="M46.512 43.7906L47.5129 43.9021C47.4949 43.7953 47.4454 43.6963 47.3708 43.6178C47.2962 43.5393 47.1998 43.4849 47.094 43.4615C46.976 43.4566 46.8589 43.4849 46.7561 43.543C46.6532 43.6012 46.5687 43.6869 46.512 43.7906Z" fill="#263238"/>
<path d="M44.336 43.8628H43.3269C43.3579 43.7589 43.4193 43.6665 43.5031 43.5977C43.587 43.5289 43.6895 43.4867 43.7975 43.4766C43.9141 43.485 44.0262 43.5255 44.1213 43.5937C44.2163 43.6619 44.2906 43.755 44.336 43.8628Z" fill="#263238"/>
<path d="M44.1756 48.082L45.6144 48.5254C45.5232 48.6947 45.3795 48.8297 45.2048 48.9102C45.0301 48.9907 44.8341 49.0122 44.6461 48.9715C44.2925 48.8735 44.132 48.4465 44.1756 48.082Z" fill="#9C5C5C"/>
<path d="M44.1756 48.082L45.6144 48.5254C45.5232 48.6947 45.3795 48.8297 45.2048 48.9102C45.0301 48.9907 44.8341 49.0122 44.6461 48.9715C44.2925 48.8735 44.132 48.4465 44.1756 48.082Z" fill="#FF514F"/>
<path d="M45.1166 48.9414C44.9661 48.9975 44.8024 49.0079 44.6461 48.9713C44.5125 48.9214 44.3968 48.833 44.3135 48.7173C44.2303 48.6015 44.1832 48.4637 44.1782 48.3213C44.3843 48.2845 44.5967 48.3284 44.7713 48.4438C44.946 48.5593 45.0696 48.7374 45.1166 48.9414Z" fill="#9C5C5C"/>
<path d="M45.1166 48.9414C44.9661 48.9975 44.8024 49.0079 44.6461 48.9713C44.5125 48.9214 44.3968 48.833 44.3135 48.7173C44.2303 48.6015 44.1832 48.4637 44.1782 48.3213C44.3843 48.2845 44.5967 48.3284 44.7713 48.4438C44.946 48.5593 45.0696 48.7374 45.1166 48.9414Z" fill="#FF8F8D"/>
<path d="M44.9969 54.1982C43.6859 54.1764 43.4955 56.2953 42.2987 56.6462L39.2468 52.9334L40.1934 51.5272C40.3828 51.2468 40.6282 51.0088 40.9142 50.8281V51.3368C40.9178 51.4859 40.9594 51.6316 41.0351 51.7601C41.1108 51.8886 41.218 51.9957 41.3467 52.0712L44.9969 54.1982Z" fill="#FAFAFA"/>
<path d="M44.9969 54.2006C45.7232 53.9748 46.8112 54.8833 46.8112 54.8833C46.4304 52.778 45.2771 50.8359 44.9969 50.8359V54.2006Z" fill="#FAFAFA"/>
<path d="M43.9416 27.6706C44.336 27.4422 44.5808 27.5346 44.5835 27.91C44.5713 28.114 44.5062 28.3113 44.3946 28.4825C44.283 28.6537 44.1288 28.7929 43.9471 28.8865L43.6968 29.0306V29.4631L43.2888 29.697V28.0487L43.9416 27.6706ZM43.9226 28.5329C43.9952 28.4978 44.057 28.4435 44.1011 28.3759C44.1452 28.3083 44.17 28.23 44.1728 28.1494C44.1728 27.997 44.0885 27.9535 43.9199 28.0514L43.6941 28.182V28.6634L43.9199 28.5329" fill="white"/>
<path d="M45.794 27.741L46.1068 28.081L45.6716 28.3313L45.3996 28.0429L45.1792 28.1708V28.6087L44.7712 28.8453V27.1943L45.424 26.8053C45.8157 26.5796 46.0605 26.6721 46.0632 27.0474C46.0627 27.304 45.9667 27.5513 45.794 27.741ZM45.4132 27.6812C45.4859 27.6454 45.5475 27.5906 45.5916 27.5226C45.6356 27.4546 45.6604 27.3759 45.6634 27.2949C45.6634 27.1426 45.5791 27.1018 45.4104 27.197L45.1847 27.3276V27.8117L45.4104 27.6812" fill="white"/>
<path d="M47.0179 25.8581C47.4776 25.5861 47.8176 25.7629 47.8203 26.2552C47.8064 26.5237 47.7264 26.7847 47.5873 27.0148C47.4483 27.245 47.2545 27.4372 47.0233 27.5744C46.5664 27.8464 46.2264 27.6723 46.2236 27.1773C46.2384 26.9093 46.3185 26.649 46.4569 26.4191C46.5954 26.1891 46.7879 25.9965 47.0179 25.8581ZM47.0179 27.1882C47.135 27.1133 47.2316 27.0104 47.299 26.8888C47.3664 26.7673 47.4026 26.6308 47.4041 26.4919C47.4041 26.2199 47.2328 26.1192 47.0152 26.247C46.901 26.3207 46.8066 26.4212 46.7402 26.5397C46.6739 26.6583 46.6375 26.7912 46.6344 26.927C46.6344 27.2154 46.8057 27.3024 47.0233 27.1773" fill="white"/>
<path d="M49.1558 24.6562L49.1586 25.0153L48.4378 25.4314L48.4405 25.7932L49.0742 25.4287V25.7905L48.4405 26.155L48.4432 26.7207L48.0352 26.9546L48.0325 25.3063L49.1558 24.6562Z" fill="white"/>
<path d="M49.7543 24.3125L49.7597 25.9608L49.3517 26.1975L49.349 24.5464L49.7543 24.3125Z" fill="white"/>
<path d="M50.4479 23.9141L50.4533 25.1925L51.136 24.7981L51.1388 25.168L50.048 25.7963L50.0426 24.148L50.4479 23.9141Z" fill="white"/>
<path d="M52.4199 22.7734V23.1352L51.6964 23.5514L51.6991 23.8288L52.3356 23.4616V23.8098L51.6991 24.177V24.4789L52.4498 24.0491V24.4082L51.2993 25.0746L51.2938 23.4235L52.4199 22.7734Z" fill="white"/>
<path d="M53.9485 21.8935C54.4245 21.6216 54.7482 21.7494 54.7509 22.2553C54.7398 22.5205 54.6604 22.7783 54.5202 23.0037C54.3801 23.2292 54.1841 23.4145 53.9512 23.5419L53.2739 23.9363V22.288L53.9485 21.8935ZM53.9349 23.1801C54.0563 23.1101 54.1575 23.01 54.229 22.8895C54.3005 22.7689 54.3397 22.632 54.3429 22.492C54.3429 22.22 54.177 22.1356 53.9322 22.2771L53.6765 22.424V23.327L53.9322 23.1801" fill="white"/>
<path d="M55.8036 20.8203L56.4428 22.1014L56.0212 22.3462L55.9069 22.0906L55.3004 22.4414L55.1888 22.8277L54.7754 23.067L55.4037 21.0515L55.8036 20.8203ZM55.42 22.0307L55.7872 21.8186L55.6023 21.397L55.42 22.0307Z" fill="white"/>
<path d="M58.5752 19.2227L59.2144 20.5038L58.7928 20.7486L58.6785 20.4929L58.072 20.8438L57.9604 21.23L57.547 21.4667L58.1753 19.4539L58.5752 19.2227ZM58.1889 20.4303L58.5588 20.2182L58.3712 19.7966L58.1889 20.4303Z" fill="white"/>
<path d="M57.6314 19.7656L57.6341 20.1355L57.1962 20.3885L57.1989 21.6669L56.7936 21.9008L56.7882 20.6224L56.3503 20.8754L56.3475 20.5055L57.6314 19.7656Z" fill="white"/>
<path d="M45.7205 29.3243V30.4613L57.2233 23.8217V22.6875L45.7205 29.3243Z" fill="#064DD6"/>
<g opacity="0.6">
<path opacity="0.6" d="M45.7205 29.3243V30.4613L57.2233 23.8217V22.6875L45.7205 29.3243Z" fill="white"/>
</g>
<path d="M48.5956 29.6967V30.8309L55.2868 26.9467V25.8125L48.5956 29.6967Z" fill="#064DD6"/>
<g opacity="0.6">
<path opacity="0.6" d="M48.5956 29.6967V30.8309L55.2868 26.9467V25.8125L48.5956 29.6967Z" fill="white"/>
</g>
<path d="M52.1206 36.9832V38.1175L67.8803 29.0327V27.8984L52.1206 36.9832Z" fill="#064DD6"/>
<path d="M52.1206 38.9283V40.0625L64.3769 33.0014V31.8672L52.1206 38.9283Z" fill="#064DD6"/>
<path d="M52.1206 42.375V43.5093L67.8803 34.4272V33.293L52.1206 42.375Z" fill="#064DD6"/>
<path d="M52.1206 44.3239V45.4582L67.8803 36.3842V35.25L52.1206 44.3239Z" fill="#064DD6"/>
<path d="M52.1206 46.2022V47.3364L64.007 40.5092V39.375L52.1206 46.2022Z" fill="#064DD6"/>
<path d="M52.1206 30.4649V32.407L63.6235 25.7702V23.8281L52.1206 30.4649Z" fill="#064DD6"/>
<path d="M52.1206 33.4018V34.6231L59.7638 30.233V29.0117L52.1206 33.4018Z" fill="#064DD6"/>
<g opacity="0.6">
<path opacity="0.6" d="M52.1206 36.9832V38.1175L67.8803 29.0327V27.8984L52.1206 36.9832Z" fill="white"/>
<path opacity="0.6" d="M52.1206 38.9283V40.0625L64.3769 33.0014V31.8672L52.1206 38.9283Z" fill="white"/>
<path opacity="0.6" d="M52.1206 42.375V43.5093L67.8803 34.4272V33.293L52.1206 42.375Z" fill="white"/>
<path opacity="0.6" d="M52.1206 44.3239V45.4582L67.8803 36.3842V35.25L52.1206 44.3239Z" fill="white"/>
<path opacity="0.6" d="M52.1206 46.2022V47.3364L64.007 40.5092V39.375L52.1206 46.2022Z" fill="white"/>
<path opacity="0.6" d="M52.1206 30.4649V32.407L63.6235 25.7702V23.8281L52.1206 30.4649Z" fill="white"/>
<path opacity="0.6" d="M52.1206 33.4018V34.6231L59.7638 30.233V29.0117L52.1206 33.4018Z" fill="white"/>
</g>
<path d="M53.2033 48.543L53.5596 49.1658L54.3538 48.8394L53.7826 49.8159L53.9186 50.6455L53.2087 50.6265L52.4988 51.467L52.6321 50.4796L52.0554 50.1668L52.8497 49.5766L53.2033 48.543Z" fill="#064DD6"/>
<path d="M56.6494 46.5547L57.0058 47.1776L57.8 46.8512L57.2261 47.8276L57.3648 48.6573L56.6549 48.6382L55.9449 49.476L56.0782 48.4886L55.5016 48.1785L56.2931 47.5883L56.6494 46.5547Z" fill="#064DD6"/>
<path d="M60.0929 44.5625L60.4519 45.1854L61.2435 44.859L60.6723 45.8355L60.811 46.6651L60.1011 46.646L59.3884 47.4865L59.5244 46.4991L58.9451 46.1863L59.7393 45.5961L60.0929 44.5625Z" fill="#064DD6"/>
<path d="M63.5392 42.5742L63.8955 43.1971L64.6898 42.8707L64.1186 43.8472L64.2573 44.6768L63.5446 44.6578L62.8347 45.4982L62.968 44.5109L62.3914 44.1981L63.1883 43.6078L63.5392 42.5742Z" fill="#064DD6"/>
<path d="M66.9855 40.5859L67.3418 41.2088L68.136 40.8824L67.5648 41.8589L67.7036 42.6858L66.9909 42.6695L66.281 43.5072L66.4143 42.5199L65.8376 42.2098L66.6319 41.6168L66.9855 40.5859Z" fill="#064DD6"/>
<path d="M53.2033 51.5469L53.5596 52.1698L54.3538 51.8406L53.7826 52.8171L53.9186 53.6494L53.2087 53.6304L52.4988 54.4682L52.6321 53.4835L52.0554 53.1707L52.8497 52.5805L53.2033 51.5469Z" fill="#064DD6"/>
<path d="M56.6494 49.5586L57.0058 50.1815L57.8 49.8551L57.2261 50.8316L57.3648 51.6639L56.6549 51.6421L55.9449 52.4826L56.0782 51.4952L55.5016 51.1824L56.2931 50.5922L56.6494 49.5586Z" fill="#064DD6"/>
<path d="M60.0929 47.5703L60.4519 48.1932L61.2435 47.8668L60.6723 48.8433L60.811 49.6729L60.1011 49.6538L59.3884 50.4916L59.5244 49.507L58.9451 49.1942L59.7393 48.6039L60.0929 47.5703Z" fill="#064DD6"/>
<path d="M63.5392 45.582L63.8955 46.2049L64.6898 45.8785L64.1186 46.855L64.2573 47.6819L63.5446 47.6656L62.8347 48.5033L62.968 47.516L62.3914 47.2031L63.1883 46.6129L63.5392 45.582Z" fill="#064DD6"/>
<path d="M66.9855 43.5898L67.3418 44.2127L68.136 43.8863L67.5648 44.8628L67.7036 45.6924L66.9909 45.6734L66.281 46.5138L66.4143 45.5265L65.8376 45.2137L66.6319 44.6234L66.9855 43.5898Z" fill="#064DD6"/>
<path d="M53.2033 54.5508L53.5596 55.1737L54.3538 54.8473L53.7826 55.8237L53.9186 56.6533L53.2087 56.6343L52.4988 57.4748L52.6321 56.4874L52.0554 56.1746L52.8497 55.5844L53.2033 54.5508Z" fill="#064DD6"/>
<path d="M56.6494 52.5625L57.0058 53.1854L57.8 52.859L57.2261 53.8355L57.3648 54.6651L56.6549 54.646L55.9449 55.4838L56.0782 54.4991L55.5016 54.1863L56.2931 53.5961L56.6494 52.5625Z" fill="#064DD6"/>
<path d="M60.0929 50.5742L60.4519 51.1971L61.2435 50.8707L60.6723 51.8472L60.811 52.6741L60.1011 52.6577L59.3884 53.4955L59.5244 52.5081L58.9451 52.1953L59.7393 51.6078L60.0929 50.5742Z" fill="#064DD6"/>
<path d="M63.5392 48.582L63.8955 49.2049L64.6898 48.8785L64.1186 49.855L64.2573 50.6846L63.5446 50.6655L62.8347 51.506L62.968 50.5187L62.3914 50.2059L63.1883 49.6156L63.5392 48.582Z" fill="#064DD6"/>
<path d="M66.9855 46.5938L67.3418 47.2166L68.136 46.8902L67.5648 47.8667L67.7036 48.6963L66.9909 48.6773L66.281 49.5178L66.4143 48.5304L65.8376 48.2176L66.6319 47.6246L66.9855 46.5938Z" fill="#064DD6"/>
<g opacity="0.8">
<path opacity="0.8" d="M53.2033 48.543L53.5596 49.1658L54.3538 48.8394L53.7826 49.8159L53.9186 50.6455L53.2087 50.6265L52.4988 51.467L52.6321 50.4796L52.0554 50.1668L52.8497 49.5766L53.2033 48.543Z" fill="white"/>
<path opacity="0.8" d="M56.6496 46.5547L57.0059 47.1776L57.8001 46.8512L57.2262 47.8276L57.3649 48.6572L56.655 48.6382L55.9451 49.476L56.0783 48.4886L55.5017 48.1785L56.2932 47.5883L56.6496 46.5547Z" fill="white"/>
<path opacity="0.8" d="M60.093 44.5625L60.4521 45.1854L61.2436 44.859L60.6724 45.8355L60.8111 46.6651L60.1012 46.646L59.3885 47.4865L59.5245 46.4991L58.9452 46.1863L59.7394 45.5961L60.093 44.5625Z" fill="white"/>
</g>
<g opacity="0.8">
<path opacity="0.8" d="M53.2033 51.5508L53.5596 52.1737L54.3538 51.8445L53.7826 52.821L53.9186 53.6533L53.2087 53.6343L52.4988 54.4721L52.6321 53.4874L52.0554 53.1746L52.8497 52.5844L53.2033 51.5508Z" fill="white"/>
<path opacity="0.8" d="M56.6496 49.5586L57.0059 50.1815L57.8001 49.8551L57.2262 50.8316L57.3649 51.6639L56.655 51.6421L55.9451 52.4826L56.0783 51.4952L55.5017 51.1824L56.2932 50.5922L56.6496 49.5586Z" fill="white"/>
<path opacity="0.8" d="M60.093 47.5703L60.4521 48.1932L61.2436 47.8668L60.6724 48.8433L60.8111 49.6729L60.1012 49.6538L59.3885 50.4916L59.5245 49.507L58.9452 49.1942L59.7394 48.6039L60.093 47.5703Z" fill="white"/>
<path opacity="0.8" d="M63.5393 45.582L63.8956 46.2049L64.6899 45.8785L64.1187 46.855L64.2574 47.6819L63.5448 47.6655L62.8348 48.5033L62.9681 47.5159L62.3915 47.2031L63.1884 46.6129L63.5393 45.582Z" fill="white"/>
</g>
<g opacity="0.8">
<path opacity="0.8" d="M53.2033 54.5508L53.5596 55.1737L54.3538 54.8473L53.7826 55.8237L53.9186 56.6533L53.2087 56.6343L52.4988 57.4748L52.6321 56.4874L52.0554 56.1746L52.8497 55.5844L53.2033 54.5508Z" fill="white"/>
<path opacity="0.8" d="M56.6496 52.5625L57.0059 53.1854L57.8001 52.859L57.2262 53.8355L57.3649 54.6651L56.655 54.646L55.9451 55.4838L56.0783 54.4991L55.5017 54.1863L56.2932 53.5961L56.6496 52.5625Z" fill="white"/>
<path opacity="0.8" d="M60.093 50.5742L60.4521 51.1971L61.2436 50.8707L60.6724 51.8472L60.8111 52.6741L60.1012 52.6577L59.3885 53.4955L59.5245 52.5081L58.9452 52.1953L59.7394 51.6078L60.093 50.5742Z" fill="white"/>
</g>
<path d="M38.7137 67.1211L34.65 69.4793V74.1822L38.0065 72.2401L38.7137 70.7795V67.1211Z" fill="#064DD6"/>
<path opacity="0.1" d="M38.7137 67.1211L34.65 69.4793V74.1822L38.0065 72.2401L38.7137 70.7795V67.1211Z" fill="black"/>
<path d="M38.0066 72.238L38.7138 70.7773L38.0066 71.1853V72.238Z" fill="#064DD6"/>
<path opacity="0.3" d="M38.0066 72.238L38.7138 70.7773L38.0066 71.1853V72.238Z" fill="black"/>
<path d="M39.5433 66.6474V67.6402L50.6355 61.2428V60.25L39.5433 66.6474Z" fill="#064DD6"/>
<path d="M39.5433 68.3502V69.343L50.6355 62.9537V61.9609L39.5433 68.3502Z" fill="#064DD6"/>
<path d="M39.5433 69.993V70.9858L47.2491 66.5631V65.5703L39.5433 69.993Z" fill="#064DD6"/>
<g opacity="0.6">
<path opacity="0.6" d="M39.5433 66.6474V67.6402L50.6355 61.2428V60.25L39.5433 66.6474Z" fill="white"/>
<path opacity="0.6" d="M39.5433 68.3502V69.343L50.6355 62.9537V61.9609L39.5433 68.3502Z" fill="white"/>
<path opacity="0.6" d="M39.5433 69.993V70.9858L47.2491 66.5631V65.5703L39.5433 69.993Z" fill="white"/>
</g>
<path d="M38.7137 73.4336L34.65 75.7891V80.4947L38.0065 78.5499L38.7137 77.0893V73.4336Z" fill="#064DD6"/>
<path opacity="0.1" d="M38.7137 73.4336L34.65 75.7891V80.4947L38.0065 78.5499L38.7137 77.0893V73.4336Z" fill="black"/>
<path d="M38.0066 78.5505L38.7138 77.0898L38.0066 77.5006V78.5505Z" fill="#064DD6"/>
<path opacity="0.3" d="M38.0066 78.5505L38.7138 77.0898L38.0066 77.5006V78.5505Z" fill="black"/>
<path d="M39.5433 72.9615V73.9543L50.7579 67.4889V66.4961L39.5433 72.9615Z" fill="#064DD6"/>
<path d="M39.5433 74.6643V75.6544L50.7579 69.1998V68.207L39.5433 74.6643Z" fill="#064DD6"/>
<path d="M39.5433 76.3057V77.2985L41.9723 75.9303V74.9375L39.5433 76.3057Z" fill="#064DD6"/>
<g opacity="0.6">
<path opacity="0.6" d="M39.5433 72.9615V73.9543L50.7579 67.4889V66.4961L39.5433 72.9615Z" fill="white"/>
<path opacity="0.6" d="M39.5433 74.6643V75.6544L50.7579 69.1998V68.207L39.5433 74.6643Z" fill="white"/>
<path opacity="0.6" d="M39.5433 76.3057V77.2985L41.9723 75.9303V74.9375L39.5433 76.3057Z" fill="white"/>
</g>
<path d="M38.7137 79.7461L34.65 82.1016V86.8045L38.0065 84.8624L38.7137 83.4018V79.7461Z" fill="#064DD6"/>
<path opacity="0.1" d="M38.7137 79.7461L34.65 82.1016V86.8045L38.0065 84.8624L38.7137 83.4018V79.7461Z" fill="black"/>
<path d="M38.0066 84.863L38.7138 83.4023L38.0066 83.8103V84.863Z" fill="#064DD6"/>
<path opacity="0.3" d="M38.0066 84.863L38.7138 83.4023L38.0066 83.8103V84.863Z" fill="black"/>
<path d="M39.5433 79.2735V80.2635L50.864 73.692V72.6992L39.5433 79.2735Z" fill="#064DD6"/>
<path d="M39.5433 80.9735V81.9663L50.864 75.403V74.4102L39.5433 80.9735Z" fill="#064DD6"/>
<path d="M39.5433 82.6161V83.6089L50.864 77.0592V76.0664L39.5433 82.6161Z" fill="#064DD6"/>
<g opacity="0.6">
<path opacity="0.6" d="M39.5433 79.2735V80.2635L50.864 73.692V72.6992L39.5433 79.2735Z" fill="white"/>
<path opacity="0.6" d="M39.5433 80.9735V81.9663L50.864 75.403V74.4102L39.5433 80.9735Z" fill="white"/>
<path opacity="0.6" d="M39.5433 82.6162V83.609L50.864 77.0592V76.0664L39.5433 82.6162Z" fill="white"/>
</g>
<path d="M67.6926 68.8129L52.583 77.5169C52.5382 77.5435 52.4871 77.5576 52.4351 77.5579C52.383 77.5582 52.3318 77.5446 52.2867 77.5186C52.2415 77.4926 52.2042 77.455 52.1783 77.4098C52.1525 77.3646 52.1392 77.3133 52.1397 77.2612V60.2204C52.1393 60.0645 52.1802 59.9112 52.258 59.776C52.3358 59.6409 52.448 59.5287 52.583 59.4507L67.6926 50.7303C67.7378 50.7046 67.7889 50.6912 67.8409 50.6914C67.8929 50.6917 67.9439 50.7056 67.9888 50.7317C68.0337 50.7579 68.071 50.7954 68.0968 50.8405C68.1226 50.8857 68.1361 50.9368 68.136 50.9887V68.035C68.1378 68.1923 68.0976 68.3473 68.0197 68.484C67.9418 68.6207 67.8289 68.7343 67.6926 68.8129Z" fill="#064DD6"/>
<path d="M57.5008 58.0664L53.4371 60.4246V65.1275L56.7963 63.1854L57.5008 61.7248V58.0664Z" fill="#064DD6"/>
<path opacity="0.3" d="M57.5008 58.0664L53.4371 60.4246V65.1275L56.7963 63.1854L57.5008 61.7248V58.0664Z" fill="black"/>
<path d="M56.7963 63.1833L57.5007 61.7227L56.7963 62.1307V63.1833Z" fill="#064DD6"/>
<path opacity="0.5" d="M56.7963 63.1833L57.5007 61.7227L56.7963 62.1307V63.1833Z" fill="black"/>
<path d="M58.4609 58.1665V58.8275L67.252 53.7547V53.0938L58.4609 58.1665Z" fill="#064DD6"/>
<path d="M58.4609 59.9588L67.252 54.8914V54.2305L58.4609 59.2978V59.9588Z" fill="#064DD6"/>
<path d="M58.4609 61.1256L67.252 56.0528V55.3945L58.4609 60.4673V61.1256Z" fill="#064DD6"/>
<path d="M63.259 58.8281L58.4609 61.5998V62.2608L63.259 59.4864V58.8281Z" fill="#064DD6"/>
<path d="M53.4371 66.8038L67.252 58.8614V58.2031L53.4371 66.1428V66.8038Z" fill="#064DD6"/>
<path d="M63.6861 61.3906L53.4371 67.274V67.9322L63.6861 62.0516V61.3906Z" fill="#064DD6"/>
<path d="M53.4371 72.1475L67.252 64.2051V63.5469L53.4371 71.4866V72.1475Z" fill="#064DD6"/>
<path d="M61.113 68.2148L53.4371 72.6185V73.2795L61.113 68.8731V68.2148Z" fill="#064DD6"/>
<path d="M53.4371 74.4444L67.252 66.5047V65.8438L53.4371 73.7861V74.4444Z" fill="#064DD6"/>
<path d="M53.4371 75.5787L60.3459 71.6102V70.9492L53.4371 74.9177V75.5787Z" fill="#064DD6"/>
<path d="M61.298 71.0603L63.4631 69.8172V69.1562L61.298 70.402V71.0603Z" fill="#064DD6"/>
<path d="M53.4371 69.1045L67.252 61.1621V60.5039L53.4371 68.4436V69.1045Z" fill="#064DD6"/>
<path d="M58.257 66.8047L53.4371 69.5736V70.2346L58.257 67.4656V66.8047Z" fill="#064DD6"/>
<g opacity="0.3">
<path opacity="0.3" d="M58.4609 58.1665V58.8275L67.252 53.7547V53.0938L58.4609 58.1665Z" fill="white"/>
<path opacity="0.3" d="M58.4609 59.9588L67.252 54.8914V54.2305L58.4609 59.2978V59.9588Z" fill="white"/>
<path opacity="0.3" d="M58.4609 61.1256L67.252 56.0528V55.3945L58.4609 60.4673V61.1256Z" fill="white"/>
<path opacity="0.3" d="M63.259 58.8281L58.4609 61.5998V62.2608L63.259 59.4864V58.8281Z" fill="white"/>
<path opacity="0.3" d="M53.4371 66.8038L67.252 58.8614V58.2031L53.4371 66.1428V66.8038Z" fill="white"/>
<path opacity="0.3" d="M63.6861 61.3906L53.4371 67.274V67.9322L63.6861 62.0516V61.3906Z" fill="white"/>
<path opacity="0.3" d="M53.4371 72.1475L67.252 64.2051V63.5469L53.4371 71.4866V72.1475Z" fill="white"/>
<path opacity="0.3" d="M61.113 68.2148L53.4371 72.6185V73.2795L61.113 68.8731V68.2148Z" fill="white"/>
<path opacity="0.3" d="M53.4371 74.4444L67.252 66.5047V65.8438L53.4371 73.7861V74.4444Z" fill="white"/>
<path opacity="0.3" d="M53.4371 75.5787L60.3459 71.6102V70.9492L53.4371 74.9177V75.5787Z" fill="white"/>
<path opacity="0.3" d="M61.298 71.0603L63.4631 69.8172V69.1562L61.298 70.402V71.0603Z" fill="white"/>
<path opacity="0.3" d="M53.4371 69.1045L67.252 61.1621V60.5039L53.4371 68.4436V69.1045Z" fill="white"/>
<path opacity="0.3" d="M58.257 66.8047L53.4371 69.5736V70.2346L58.257 67.4656V66.8047Z" fill="white"/>
</g>
<path d="M72.5043 109.935C72.812 110.23 73.1774 110.458 73.5776 110.606C73.9778 110.753 74.4042 110.817 74.8299 110.791C75.6813 110.736 76.5155 110.526 77.2915 110.171C78.0776 109.848 79.065 108.942 79.9163 108.958C80.752 108.956 81.5868 108.904 82.416 108.8C82.4448 107.666 82.3259 106.534 82.0624 105.43L78.0912 105.324C77.0195 106.793 74.9333 108.014 73.3557 108.474C73.1129 108.543 72.8935 108.676 72.7209 108.86C72.5484 109.044 72.4293 109.272 72.3765 109.518C72.3752 109.527 72.3752 109.535 72.3765 109.543C72.4024 109.678 72.4453 109.81 72.5043 109.935Z" fill="#37474F"/>
<path d="M79.9163 108.956C79.065 108.939 78.0776 109.845 77.2916 110.169C76.5156 110.524 75.6814 110.734 74.83 110.789C74.4042 110.814 73.9779 110.751 73.5777 110.603C73.1775 110.456 72.8121 110.227 72.5044 109.932C72.4417 109.804 72.396 109.669 72.3684 109.53C72.367 109.521 72.367 109.513 72.3684 109.505C72.3303 109.679 72.3303 109.859 72.3684 110.033C72.3957 110.173 72.4415 110.31 72.5044 110.438C72.8126 110.733 73.1781 110.96 73.5782 111.107C73.9784 111.254 74.4044 111.317 74.83 111.292C75.6814 111.237 76.5156 111.027 77.2916 110.672C78.0776 110.348 79.065 109.443 79.9163 109.459C80.7346 109.468 81.5525 109.42 82.3643 109.317C82.3861 109.141 82.397 108.964 82.4051 108.773C81.58 108.885 80.7489 108.945 79.9163 108.956Z" fill="#263238"/>
<path d="M92.151 112.147C92.1548 112.581 92.1119 113.014 92.0231 113.439C91.8885 114.195 91.4677 114.871 90.8481 115.326C90.2752 115.652 89.6276 115.824 88.9686 115.824C88.3904 115.886 87.8057 115.826 87.2523 115.647C86.8337 115.498 86.4787 115.21 86.2458 114.831C86.2458 114.831 86.2458 114.848 86.2458 114.853C86.3265 115.132 86.4739 115.388 86.6752 115.598C86.8766 115.808 87.126 115.966 87.4018 116.058C87.9562 116.236 88.5418 116.297 89.1209 116.235C89.7791 116.235 90.426 116.063 90.9977 115.737C91.6188 115.284 92.0415 114.609 92.1782 113.852C92.267 113.427 92.3098 112.994 92.306 112.56C92.3085 112.263 92.3713 111.97 92.4905 111.699C92.6098 111.427 92.783 111.182 92.9996 110.98C93.1057 110.881 93.2065 110.776 93.3015 110.667C93.3685 110.59 93.4195 110.501 93.4512 110.404C93.483 110.307 93.495 110.205 93.4865 110.104C93.4865 110.026 93.4783 109.947 93.462 109.867C93.3042 110.052 92.937 110.487 92.8446 110.574C92.6289 110.776 92.4563 111.019 92.3371 111.29C92.2179 111.56 92.1546 111.851 92.151 112.147Z" fill="#263238"/>
<path d="M88.8924 107.645C89.0323 108.531 88.9173 109.44 88.5606 110.264C88.2023 111.083 87.7357 111.851 87.1734 112.546C86.8986 112.875 86.6554 113.229 86.4471 113.604C86.244 113.977 86.1713 114.407 86.2404 114.825C86.4732 115.204 86.8283 115.492 87.2468 115.641C87.8002 115.82 88.3849 115.88 88.9631 115.818C89.6233 115.821 90.2728 115.652 90.8481 115.329C91.4692 114.875 91.8919 114.2 92.0286 113.444C92.1174 113.019 92.1602 112.586 92.1564 112.152C92.1589 111.855 92.2217 111.562 92.3409 111.29C92.4602 111.019 92.6333 110.774 92.85 110.571C92.9425 110.484 93.3097 110.049 93.4674 109.864C93.3807 109.218 93.1632 108.596 92.8282 108.036L88.8924 107.645Z" fill="#37474F"/>
<path d="M77.5608 70.4975C77.5608 70.4975 76.5054 83.6895 76.5979 87.3615C76.6904 91.0335 77.0766 105.531 77.0766 105.531C79.2336 106.733 82.3507 105.838 82.3507 105.838C82.6037 94.2621 83.7488 91.7733 82.9709 87.5356C83.5149 84.3912 84.2792 77.0608 84.2792 77.0608C85.3536 85.8764 86.1342 90.4188 86.1342 90.4188L88.7019 108.066C90.8099 109.113 93.4701 108.066 93.4701 108.066C93.4701 98.0021 93.6985 93.7508 92.5969 87.1221C92.5881 81.2575 92.2248 75.3989 91.5089 69.5781L77.5608 70.4975Z" fill="#455A64"/>
<path opacity="0.2" d="M80.1095 73.9023C80.8466 75.6187 83.1532 75.6187 83.1532 75.6187L83.5666 77.5743L83.4116 84.5212C83.8549 81.143 84.2793 77.0548 84.2793 77.0548L83.9937 74.9659C82.6176 75.0443 81.2537 74.6708 80.1095 73.9023Z" fill="black"/>
<path d="M81.0805 50.0469C77.4765 50.0469 76.8863 51.4477 75.9751 53.7706C75.0639 56.0934 74.3594 60.2414 74.3594 60.2414L77.8437 59.4907L79.2037 51.6435L81.0805 50.0469Z" fill="#455A64"/>
<path d="M77.8438 58.9229C76.9326 58.8607 76.0203 59.0262 75.189 59.4044C74.8596 59.5359 74.5673 59.746 74.3377 60.0164C74.2259 60.1538 74.1533 60.3188 74.1275 60.494C74.1016 60.6692 74.1235 60.8481 74.1908 61.0119C73.859 61.6212 73.8889 62.5269 73.9569 63.2722C73.9637 63.4161 73.995 63.5577 74.0494 63.6911C74.0778 63.7565 74.1204 63.8148 74.174 63.8618C74.2276 63.9088 74.2909 63.9434 74.3594 63.9631L77.8438 60.8297V58.9229Z" fill="#37474F"/>
<path opacity="0.2" d="M76.6497 59.6927C75.4121 59.5948 74.5172 60.3075 74.1146 60.6719C74.1156 60.7885 74.1416 60.9035 74.1908 61.0092C74.4764 60.5767 75.6922 59.7907 76.6497 59.6927Z" fill="black"/>
<path opacity="0.2" d="M75.2979 60.8754C76.0717 60.4296 76.9507 60.1986 77.8438 60.2063V59.918C76.9106 59.9365 76.012 60.2745 75.2979 60.8754Z" fill="black"/>
<path d="M91.0683 50.2757L89.3765 50.0962L81.0805 50.0391C78.1728 50.0391 77.8002 53.6159 77.6342 56.7819C77.4683 59.948 78.0014 66.3155 77.2806 70.5696L80.7432 72.8055L81.7142 71.7583L83.2646 73.2026C88.5278 73.2026 91.6286 70.2813 92.023 69.7781L91.0683 50.2757Z" fill="#064DD6"/>
<path opacity="0.2" d="M91.0683 50.2757L89.3765 50.0962L81.0805 50.0391C78.1728 50.0391 77.8002 53.6159 77.6342 56.7819C77.4683 59.948 78.0014 66.3155 77.2806 70.5696L80.7432 72.8055L81.7142 71.7583L83.2646 73.2026C88.5278 73.2026 91.6286 70.2813 92.023 69.7781L91.0683 50.2757Z" fill="white"/>
<path d="M82.4351 51.1357C81.6599 53.6054 82.1468 57.049 82.4351 58.5966C84.4017 55.8957 86.2431 53.1838 86.817 52.123L84.0753 50.793L82.4351 51.1357Z" fill="#455A64"/>
<path opacity="0.2" d="M82.174 58.7852L81.2818 59.982C81.0376 60.3098 80.9171 60.7135 80.9418 61.1216L81.5402 71.0741L80.5121 61.1978C80.4826 60.9201 80.521 60.6395 80.6238 60.3799C80.7266 60.1203 80.8908 59.8895 81.1023 59.7072L82.174 58.7852Z" fill="black"/>
<path d="M91.0684 50.2734L92.1945 50.453C92.8592 50.5599 93.4756 50.8668 93.9615 51.3328C94.4474 51.7988 94.7798 52.4018 94.9145 53.0614C95.5443 56.2034 95.79 59.4102 95.6461 62.6114L90.5108 60.245C89.9613 56.2302 88.906 52.9146 91.0684 50.2734Z" fill="#455A64"/>
<path d="M90.3313 60.4009C90.3313 60.3529 90.3408 60.3054 90.3593 60.2612C90.3779 60.2169 90.405 60.1768 90.4392 60.1431C90.4733 60.1095 90.5139 60.0829 90.5584 60.0651C90.6029 60.0472 90.6505 60.0384 90.6985 60.0391C93.0241 60.069 95.2817 61.1761 95.8991 62.4871C96.0399 62.8942 96.0399 63.3367 95.8991 63.7437C96.3126 64.2877 96.0977 64.5597 95.8801 64.9487C95.6625 65.3377 95.9889 66.2189 95.2871 66.1781L95.4503 65.8436C94.0604 63.1481 90.5543 62.0356 90.5543 62.0356L90.5353 61.5895C90.533 61.549 90.5227 61.5094 90.505 61.473C90.4872 61.4366 90.4624 61.4041 90.4319 61.3773C90.4001 61.3484 90.3747 61.3131 90.3574 61.2738C90.34 61.2344 90.3312 61.1919 90.3313 61.1489V60.4009Z" fill="#37474F"/>
<path opacity="0.2" d="M92.9614 61.5117C94.1017 62.0112 95.1081 62.7726 95.899 63.734C95.9439 63.5967 95.9757 63.4556 95.9942 63.3124C95.608 62.8309 94.773 61.9442 92.9614 61.5117Z" fill="black"/>
<path opacity="0.2" d="M90.3448 61.2344C90.3615 61.2873 90.3915 61.3351 90.4319 61.3731C90.4624 61.3998 90.4872 61.4323 90.5049 61.4688C90.5227 61.5052 90.533 61.5448 90.5353 61.5853V61.6206C92.1608 61.8715 93.6642 62.6337 94.8274 63.7966C93.753 62.2381 91.392 61.4384 90.3448 61.2344Z" fill="black"/>
<path d="M90.5543 62.0315L90.5353 61.6207C86.5967 60.2607 79.6553 60.5327 77.6207 60.5055C76.1247 60.5055 74.033 62.8964 74.1881 63.843C74.3431 64.7895 74.3594 65.6028 76.1873 65.747C77.4793 65.8286 79.9681 65.3335 79.9681 65.3335C86.8306 67.4415 93.4511 67.0689 94.4765 66.8812C94.9661 66.8105 95.2925 66.1577 95.2925 66.1577L95.4557 65.8231C94.0604 63.1385 90.5543 62.0315 90.5543 62.0315Z" fill="#FFBBBA"/>
<path d="M93.16 63.9832C93.0556 63.6411 92.8907 63.3205 92.6731 63.0366C92.0065 62.6233 91.2958 62.2858 90.5543 62.0302L90.5352 61.6195L90.2795 61.5352L90.3312 62.0438C89.2106 62.12 82.6418 64.8073 79.968 65.3432C80.493 65.5036 81.0125 65.6478 81.5293 65.7811C84.5213 64.7448 88.6339 62.7048 90.5352 62.411C91.8599 62.751 92.5399 63.1019 93.16 63.9832Z" fill="#FF8F8D"/>
<path d="M89.877 42.8932C90.2877 41.5169 90.198 39.9339 89.3738 38.7561C88.8314 38.0083 88.0715 37.446 87.1978 37.1459C86.3237 36.8483 85.3988 36.729 84.4778 36.795C83.7514 36.8087 83.0368 36.9804 82.3834 37.2982C81.9921 37.507 81.6459 37.7909 81.3645 38.1337C81.0831 38.4765 80.872 38.8714 80.7434 39.2959C80.6148 39.7203 80.5712 40.1659 80.615 40.6073C80.6589 41.0486 80.7893 41.477 80.9989 41.8678C81.3513 42.469 81.8125 42.9993 82.3589 43.4318C83.4148 44.335 84.5744 45.1093 85.8133 45.7384C86.1234 45.8961 86.4389 46.043 86.7572 46.1817C86.9721 46.2769 87.3828 46.5435 87.6249 46.4945C87.8669 46.4456 88.1226 45.9913 88.2695 45.8064C88.4789 45.5344 88.6829 45.2624 88.8679 44.9904C89.3047 44.3443 89.6447 43.6377 89.877 42.8932Z" fill="#263238"/>
<path d="M83.5802 53.4105L82.9056 53.25C82.5789 54.1135 82.3064 54.9965 82.0896 55.8938C82.1606 56.8061 82.2796 57.714 82.4459 58.6138C82.8322 58.0834 83.213 57.5557 83.5802 57.0362C83.4582 55.8307 83.4582 54.616 83.5802 53.4105Z" fill="#064DD6"/>
<path opacity="0.2" d="M83.5667 53.5546C83.5667 53.5057 83.5667 53.4567 83.5667 53.4105L82.8921 53.25C82.8921 53.25 82.8758 53.2881 82.854 53.3506C82.9625 53.4495 83.0946 53.5188 83.2375 53.5519C83.3461 53.5735 83.4578 53.5745 83.5667 53.5546Z" fill="black"/>
<path d="M83.9447 51.6396L84.4887 51.2969L85.729 51.9714C85.3055 52.2989 84.7984 52.5006 84.2657 52.5535L83.9447 51.6396Z" fill="#064DD6"/>
<path d="M83.1233 51.5066L82.9601 51.1367L82.3345 51.5284C82.4021 51.766 82.5454 51.9751 82.7425 52.1241L83.1233 51.5066Z" fill="#064DD6"/>
<path opacity="0.2" d="M83.9447 51.6396L84.4887 51.2969L85.729 51.9714C85.3055 52.2989 84.7984 52.5006 84.2657 52.5535L83.9447 51.6396Z" fill="black"/>
<path opacity="0.2" d="M83.1233 51.5066L82.9601 51.1367L82.3345 51.5284C82.4021 51.766 82.5454 51.9751 82.7425 52.1241L83.1233 51.5066Z" fill="black"/>
<path d="M84.2547 52.5511C84.2015 52.2317 84.0968 51.923 83.9446 51.6372L83.1286 51.5039C82.9782 51.6963 82.8505 51.9052 82.7478 52.1268C82.7294 52.5074 82.7849 52.8879 82.911 53.2474C83.1193 53.3554 83.351 53.4105 83.5856 53.4079C83.8927 53.1993 84.1267 52.8996 84.2547 52.5511Z" fill="#064DD6"/>
<path d="M87.7282 45.2852V49.0415C86.9802 50.0724 83.8386 51.3807 83.6482 51.348C83.4197 51.31 83.6482 49.2863 83.6482 49.1095V47.5999C84.2575 47.5074 84.8586 47.4013 85.3971 47.2871C85.9234 47.178 86.4133 46.9371 86.821 46.587C87.2288 46.2368 87.5409 45.7889 87.7282 45.2852Z" fill="#FFBBBA"/>
<path d="M85.0245 48.1658C84.5781 48.2814 84.1234 48.3624 83.6646 48.4079V47.5919C84.2738 47.4994 84.8749 47.3933 85.4135 47.2791C85.9046 47.1763 86.3642 46.9582 86.7544 46.6427C87.1446 46.3273 87.4542 45.9235 87.6575 45.4648C87.5577 46.0975 87.2739 46.6869 86.8415 47.1594C86.3373 47.6521 85.7096 47.9997 85.0245 48.1658Z" fill="#FF8F8D"/>
<path d="M81.309 39.3672C81.9248 39.9605 82.7392 40.3037 83.5938 40.3301C84.4098 40.3301 85.1769 40.0717 85.9521 39.8595C86.025 40.2369 86.2155 40.5815 86.4961 40.8441C86.8046 41.106 87.1826 41.2723 87.5841 41.3229C87.4713 42.0438 87.4713 42.7779 87.5841 43.4989C87.5935 43.5748 87.6239 43.6467 87.672 43.7063C87.7201 43.7659 87.7838 43.8109 87.8561 43.8361C88.1281 43.9123 88.2913 43.6457 88.4164 43.4281C88.5517 43.1747 88.7469 42.9581 88.9849 42.7971C89.1034 42.7168 89.2399 42.6671 89.3823 42.6524C89.5247 42.6377 89.6685 42.6584 89.8009 42.7128C89.9052 42.7659 89.9974 42.8399 90.0718 42.9302C90.1462 43.0205 90.2012 43.1252 90.2334 43.2377C90.2968 43.4643 90.3088 43.7022 90.2687 43.9341C90.2197 44.3228 90.0634 44.6901 89.8172 44.9949C89.693 45.1454 89.5395 45.269 89.366 45.3583C89.1926 45.4476 89.0027 45.5007 88.8081 45.5144C88.6183 45.531 88.4276 45.4952 88.2568 45.4107C88.0861 45.3263 87.9418 45.1966 87.8398 45.0357L87.8207 45.1064C87.794 45.2213 87.7585 45.3341 87.7146 45.4437C87.5432 45.8998 87.2593 46.3052 86.8894 46.6223C86.5194 46.9395 86.0754 47.1581 85.5985 47.2579C85.1062 47.3613 84.5594 47.4592 84.0046 47.5299C83.7326 47.5707 83.4606 47.6115 83.1886 47.6441C82.684 47.7045 82.1755 47.5688 81.768 47.2652C81.3606 46.9615 81.0853 46.5129 80.999 46.0121C80.629 43.9313 80.5121 41.4643 81.309 39.3672Z" fill="#FFBBBA"/>
<path d="M79.8267 41.7057V42.2062L79.9491 42.2769C80.0174 42.6018 80.0556 42.9323 80.0633 43.2643C80.0714 43.5873 80.1927 43.8973 80.406 44.1401C80.6697 44.335 80.9963 44.4251 81.3227 44.3931C81.5831 44.4165 81.8454 44.3764 82.087 44.2761C82.3682 44.1089 82.5761 43.8418 82.6691 43.5281C82.7806 43.2153 82.7615 43.0331 82.8975 42.655C82.9147 42.6038 82.9477 42.5595 82.9917 42.5282C83.0357 42.4969 83.0884 42.4804 83.1423 42.4809C83.2003 42.477 83.258 42.4919 83.307 42.5232C83.3559 42.5545 83.3935 42.6007 83.4143 42.655C83.5585 43.0331 83.5395 43.2153 83.6564 43.5281C83.7613 43.8476 83.9841 44.1151 84.2793 44.2761C84.5391 44.3759 84.818 44.4159 85.0953 44.3931C85.4412 44.4259 85.7877 44.3364 86.0745 44.1401C86.3008 43.9037 86.4308 43.5914 86.439 43.2643C86.448 42.932 86.489 42.6013 86.5614 42.2769L86.6947 42.2062V41.7057C86.1604 41.4841 85.5795 41.3987 85.0041 41.4571C84.4287 41.5155 83.8768 41.7159 83.398 42.0403H82.9193C82.4794 41.716 81.9614 41.5142 81.4181 41.4554C80.8748 41.3967 80.3257 41.483 79.8267 41.7057ZM83.6347 42.198C84.1394 41.8813 84.7225 41.7118 85.3183 41.7084C85.6006 41.7086 85.8815 41.747 86.1534 41.8227C86.1751 42.2035 86.1887 42.7311 86.1724 42.9705C86.1724 43.0575 86.1724 43.1446 86.1534 43.2289C86.1529 43.4876 86.0559 43.7369 85.8814 43.9279C85.6397 44.0844 85.3517 44.1535 85.0654 44.1238H84.9566C84.757 44.1354 84.5573 44.1029 84.3718 44.0286C84.1372 43.8974 83.9605 43.6828 83.8767 43.4275C83.761 43.1212 83.6807 42.8027 83.6374 42.4782L83.6183 42.2987C83.6183 42.2987 83.6211 42.2143 83.6483 42.198H83.6347ZM80.2972 41.8227C80.5515 41.7471 80.8153 41.7086 81.0806 41.7084C81.6415 41.7128 82.1885 41.8831 82.6527 42.198C82.6799 42.2143 82.6718 42.2987 82.6718 42.2987L82.6555 42.4782C82.6147 42.8018 82.539 43.1201 82.4297 43.4275C82.3554 43.6782 82.1906 43.8924 81.9673 44.0286C81.7959 44.1025 81.6096 44.1351 81.4233 44.1238H81.3281C81.0598 44.1517 80.7905 44.0822 80.5692 43.9279C80.3969 43.7356 80.3002 43.4872 80.2972 43.2289C80.2972 43.1446 80.2972 43.0575 80.2782 42.9705C80.2782 42.7311 80.2918 42.2035 80.3108 41.8227H80.2972Z" fill="#37474F"/>
<path d="M86.6864 41.707L89.371 42.6726C89.1779 42.7075 88.997 42.7919 88.8461 42.9174C88.8162 42.9419 86.6864 42.2075 86.6864 42.2075V41.707Z" fill="#37474F"/>
<path d="M83.1531 42.5234L81.7986 44.1636L83.0416 44.6015L83.1531 42.5234Z" fill="#FFBBBA"/>
<path d="M83.1531 42.5234L81.7986 44.1636L83.0416 44.6015L83.1531 42.5234Z" fill="#FF8F8D"/>
<path d="M85.0653 42.7254C85.0659 42.7992 85.0445 42.8715 85.0039 42.9332C84.9632 42.9948 84.9052 43.043 84.8372 43.0716C84.7692 43.1002 84.6941 43.108 84.6217 43.0939C84.5492 43.0799 84.4826 43.0446 84.4302 42.9926C84.3778 42.9406 84.342 42.8742 84.3274 42.8018C84.3128 42.7295 84.3201 42.6544 84.3482 42.5862C84.3763 42.5179 84.4241 42.4595 84.4854 42.4185C84.5467 42.3774 84.6189 42.3555 84.6927 42.3555C84.7415 42.3551 84.7899 42.3644 84.8351 42.3829C84.8803 42.4013 84.9214 42.4285 84.956 42.4629C84.9907 42.4972 85.0182 42.5381 85.0369 42.5832C85.0557 42.6283 85.0653 42.6766 85.0653 42.7254Z" fill="#263238"/>
<path d="M81.9428 42.6277C81.9433 42.7014 81.922 42.7736 81.8815 42.8352C81.841 42.8968 81.7832 42.945 81.7153 42.9737C81.6474 43.0024 81.5725 43.0103 81.5001 42.9965C81.4277 42.9826 81.3611 42.9476 81.3086 42.8959C81.2561 42.8441 81.2201 42.778 81.2052 42.7058C81.1903 42.6336 81.1971 42.5587 81.2248 42.4904C81.2525 42.4221 81.2999 42.3635 81.3609 42.3221C81.4218 42.2807 81.4937 42.2584 81.5674 42.2578C81.6164 42.2575 81.6649 42.2667 81.7102 42.2851C81.7556 42.3035 81.7969 42.3307 81.8317 42.365C81.8666 42.3994 81.8943 42.4403 81.9134 42.4853C81.9324 42.5304 81.9424 42.5788 81.9428 42.6277Z" fill="#263238"/>
<path d="M82.1441 40.9754L81.1486 41.0897C81.1666 40.9829 81.2161 40.8839 81.2907 40.8054C81.3653 40.7269 81.4617 40.6724 81.5674 40.649C81.6845 40.644 81.8006 40.6719 81.9025 40.7296C82.0045 40.7873 82.0882 40.8725 82.1441 40.9754Z" fill="#263238"/>
<path d="M84.3201 41.071H85.321C85.2921 40.9666 85.2317 40.8738 85.1479 40.8051C85.0642 40.7364 84.9612 40.6954 84.8532 40.6875C84.7375 40.6957 84.6264 40.736 84.5323 40.8037C84.4381 40.8714 84.3647 40.964 84.3201 41.071Z" fill="#263238"/>
<path d="M84.4723 45.2578L83.0416 45.693C83.1323 45.8614 83.2753 45.9957 83.449 46.0757C83.6226 46.1556 83.8176 46.1769 84.0045 46.1364C84.3554 46.0466 84.5159 45.6196 84.4723 45.2578Z" fill="#FFBBBA"/>
<path d="M84.4723 45.2578L83.0416 45.693C83.1323 45.8614 83.2753 45.9957 83.449 46.0757C83.6226 46.1556 83.8176 46.1769 84.0045 46.1364C84.3554 46.0466 84.5159 45.6196 84.4723 45.2578Z" fill="#FF4644"/>
<path d="M83.5366 46.1171C83.6866 46.1717 83.8492 46.1812 84.0045 46.1443C84.1373 46.0944 84.2523 46.0063 84.3351 45.8911C84.4179 45.7759 84.4647 45.6387 84.4696 45.497C84.2821 45.4702 84.0911 45.5056 83.9256 45.5976C83.7322 45.7124 83.5923 45.8992 83.5366 46.1171Z" fill="#FFBBBA"/>
<path d="M83.5366 46.1171C83.6866 46.1717 83.8492 46.1812 84.0045 46.1443C84.1373 46.0944 84.2523 46.0063 84.3351 45.8911C84.4179 45.7759 84.4647 45.6387 84.4696 45.497C84.2821 45.4702 84.0911 45.5056 83.9256 45.5976C83.7322 45.7124 83.5923 45.8992 83.5366 46.1171Z" fill="#FF8F8D"/>
<path d="M83.6564 51.3459C84.9593 51.3242 85.7562 52.3632 86.9476 52.7059L89.3765 50.0839L88.4354 48.6858C88.2467 48.4073 88.0022 48.1711 87.7173 47.9922V48.4981C87.7144 48.6463 87.6733 48.7912 87.598 48.9189C87.5228 49.0466 87.4158 49.1528 87.2876 49.2271L83.6564 51.3459Z" fill="#37474F"/>
<path d="M83.6564 51.3479C82.9329 51.1249 81.8503 52.0306 81.8503 52.0306C82.2284 49.9335 83.3735 49.1094 83.6537 49.1094L83.6564 51.3479Z" fill="#37474F"/>
</svg>
