<svg width="32" height="32" viewBox="0 0 134 160" fill="currentColor" xmlns="http://www.w3.org/2000/svg">
<g clip-path="url(#clip0_1221:3995)">
<path d="M54.6152 117.522H1.21818C0.406061 117.522 0 116.915 0 116.106V1.41593C0 0.606827 0.609091 0 1.21818 0H96.6424C97.4545 0 98.0636 0.606827 98.0636 1.41593V84.7535C98.0636 85.158 97.8606 85.7649 97.4545 85.9671C97.0485 86.1694 96.4394 86.1694 96.0333 85.9671C91.7697 83.3376 86.897 81.9216 82.0242 81.9216C67.203 81.9216 55.0212 94.0582 55.0212 108.824C55.0212 111.252 55.4273 113.477 56.0364 115.702C56.2394 115.904 56.2394 116.106 56.2394 116.308C56.0364 116.915 55.4273 117.522 54.6152 117.522ZM2.63939 114.893H52.9909C52.5849 112.87 52.3818 110.645 52.3818 108.622C52.3818 92.2377 65.7818 79.0898 82.0242 79.0898C86.6939 79.0898 91.3636 80.3034 95.4242 82.3262V2.62958H2.63939V114.893Z" />
<path d="M76.1364 67.3573H21.9273C21.1152 67.3573 20.7091 66.7504 20.7091 65.9413C20.7091 65.1322 21.3182 64.5254 21.9273 64.5254H76.1364C76.9485 64.5254 77.5576 65.1322 77.5576 65.9413C77.3546 66.7504 76.7455 67.3573 76.1364 67.3573Z" />
<path d="M67 81.7186H31.0636C30.2515 81.7186 29.8455 81.1118 29.8455 80.3027C29.8455 79.4935 30.4546 78.8867 31.0636 78.8867H67C67.8121 78.8867 68.4212 79.4935 68.4212 80.3027C68.4212 81.1118 67.6091 81.7186 67 81.7186Z" />
<path d="M57.2546 95.8787H26.8C25.9879 95.8787 25.5818 95.2719 25.5818 94.4628C25.5818 93.6537 26.1909 93.0469 26.8 93.0469H57.2546C58.0667 93.0469 58.6758 93.6537 58.6758 94.4628C58.6758 95.4742 58.0667 95.8787 57.2546 95.8787Z" />
<path d="M76.1364 24.2733H21.9273C21.1152 24.2733 20.7091 23.6664 20.7091 22.8573C20.7091 22.0482 21.3182 21.4414 21.9273 21.4414H76.1364C76.9485 21.4414 77.5576 22.0482 77.5576 22.8573C77.3546 23.6664 76.7455 24.2733 76.1364 24.2733Z" />
<path d="M67 38.4315H31.0636C30.2515 38.4315 29.8455 37.8246 29.8455 37.0155C29.8455 36.2064 30.4546 35.5996 31.0636 35.5996H67C67.8121 35.5996 68.4212 36.2064 68.4212 37.0155C68.2182 37.8246 67.6091 38.4315 67 38.4315Z" />
<path d="M71.2636 52.7928H26.597C25.7848 52.7928 25.3788 52.186 25.3788 51.3769C25.3788 50.5678 25.9879 49.9609 26.597 49.9609H71.2636C72.0757 49.9609 72.6848 50.5678 72.6848 51.3769C72.6848 52.186 72.0757 52.7928 71.2636 52.7928Z" />
<path d="M81.8212 138.154C65.3758 138.154 52.1788 125.006 52.1788 108.622C52.1788 92.2378 65.5788 79.0898 81.8212 79.0898C98.0636 79.0898 111.464 92.44 111.464 108.622C111.464 124.804 98.2667 138.154 81.8212 138.154ZM81.8212 81.7194C67 81.7194 54.8182 93.856 54.8182 108.622C54.8182 123.388 67 135.525 81.8212 135.525C96.6424 135.525 108.824 123.388 108.824 108.622C108.824 93.856 96.8455 81.7194 81.8212 81.7194Z" />
<path d="M123.442 160.001C123.036 160.001 122.833 159.799 122.427 159.597L96.0334 133.301C95.4243 132.694 95.4243 131.885 96.0334 131.481C96.6424 131.076 97.4546 130.874 97.8606 131.481L123.442 156.967L130.955 149.483L105.17 123.996C104.561 123.389 104.561 122.58 105.17 122.176C105.779 121.569 106.591 121.569 106.997 122.176L133.594 148.472C133.797 148.674 134 149.078 134 149.483C134 149.888 133.797 150.09 133.594 150.494L124.458 159.799C124.052 160.001 123.849 160.001 123.442 160.001Z" />
<path d="M93.5969 96.8905H70.0454C69.2333 96.8905 68.6242 96.2836 68.6242 95.4745C68.6242 94.6654 69.2333 94.0586 70.0454 94.0586H93.5969C94.4091 94.0586 95.0182 94.6654 95.0182 95.4745C95.0182 96.2836 94.4091 96.8905 93.5969 96.8905Z" />
<path d="M97.4545 109.836H66.1879C65.3758 109.836 64.7667 109.229 64.7667 108.42C64.7667 107.611 65.3758 107.004 66.1879 107.004H97.4545C98.2667 107.004 98.8757 107.611 98.8757 108.42C98.8757 109.431 98.2667 109.836 97.4545 109.836Z" />
<path d="M93.5969 122.984H70.0454C69.2333 122.984 68.6242 122.377 68.6242 121.568C68.6242 120.759 69.2333 120.152 70.0454 120.152H93.5969C94.4091 120.152 95.0182 120.759 95.0182 121.568C95.0182 122.377 94.4091 122.984 93.5969 122.984Z" />
</g>
<defs>
<clipPath id="clip0_1221:3995">
<rect width="134" height="160" fill="currentColor"/>
</clipPath>
</defs>
</svg>
