<svg width="12" height="16" viewBox="0 0 12 16" fill="none" xmlns="http://www.w3.org/2000/svg">
<path d="M11.7607 9.1251C11.6065 8.96588 11.3979 8.87651 11.1805 8.87651C10.9631 8.87651 10.7545 8.96588 10.6003 9.1251L6.78181 13.0232L6.78181 0.854853C6.78181 0.628132 6.6951 0.410696 6.54077 0.25038C6.38644 0.0900645 6.17711 0 5.95885 0C5.74059 0 5.53127 0.0900645 5.37693 0.25038C5.2226 0.410696 5.1359 0.628132 5.1359 0.854853L5.1359 12.9976L1.40791 9.1251C1.3314 9.04497 1.24038 8.98138 1.1401 8.93798C1.03981 8.89458 0.932248 8.87223 0.823608 8.87223C0.714968 8.87223 0.607403 8.89458 0.507118 8.93798C0.406833 8.98138 0.315814 9.04497 0.239309 9.1251C0.086033 9.28526 0 9.50193 0 9.72777C0 9.95361 0.086033 10.1703 0.239309 10.3304L5.48154 15.7758C5.62034 15.9194 5.80824 16 6.00411 16C6.19999 16 6.38789 15.9194 6.52669 15.7758L11.7607 10.3304C11.914 10.1703 12 9.95361 12 9.72777C12 9.50193 11.914 9.28526 11.7607 9.1251Z" fill="white"/>
</svg>
