<svg width="36" height="36" viewBox="0 0 36 36" fill="none" xmlns="http://www.w3.org/2000/svg">
<path d="M25.229 14.4543C23.3795 14.4543 21.6367 14.9226 20.1132 15.7525C19.8643 15.5392 19.5975 15.3494 19.3248 15.1835C18.0859 14.4366 16.7462 13.8734 15.3413 13.4881C14.9027 13.3695 14.4344 13.5592 14.2092 13.9564L11.1681 19.2915L8.13305 13.9564C7.90775 13.5592 7.44542 13.3695 7.00087 13.4881C5.59598 13.8734 4.25629 14.4365 3.01738 15.1835C1.15593 16.2979 0 18.3371 0 20.5066V25.4861C0 26.0373 0.444546 26.4878 1.00179 26.4878H14.5411C15.1635 31.8348 19.7221 35.9962 25.2291 35.9962C31.1688 35.9962 36.0001 31.1649 36.0001 25.2252C36.0001 19.2854 31.1688 14.4543 25.229 14.4543ZM14.5055 24.4843H2.00367V20.5066C2.00367 19.0424 2.79208 17.6553 4.06061 16.8907C4.92604 16.375 5.84494 15.9481 6.80519 15.634L10.3204 21.8049C10.7057 22.4807 11.6719 22.4807 12.0572 21.8049L15.5724 15.634C16.5268 15.9541 17.4516 16.369 18.317 16.8907C18.3407 16.9025 18.3585 16.9203 18.3762 16.9322C16.1594 18.7639 14.7071 21.4552 14.5055 24.4843ZM25.229 33.9985C20.3918 33.9985 16.4617 30.0682 16.4617 25.2252C16.4617 20.394 20.3919 16.4519 25.235 16.4519C30.078 16.4519 34.0023 20.394 34.0023 25.2252C34.0023 30.0564 30.0722 33.9985 25.229 33.9985Z" fill="white"/>
<path d="M25.229 22.3008C25.7625 22.3008 26.1952 22.7335 26.1952 23.267C26.1952 23.8182 26.6398 24.2688 27.197 24.2688C27.7542 24.2688 28.1988 23.8242 28.1988 23.267C28.1988 21.9865 27.3748 20.8958 26.2367 20.4808V20.0955C26.2367 19.5443 25.7921 19.0938 25.2349 19.0938C24.6836 19.0938 24.2331 19.5383 24.2331 20.0955V20.4808C23.0949 20.8899 22.2709 21.9806 22.2709 23.267C22.2709 24.8972 23.5988 26.2309 25.2349 26.2309C25.7684 26.2309 26.2011 26.6636 26.2011 27.1971C26.2011 27.7306 25.7684 28.1633 25.2349 28.1633C24.7014 28.1633 24.2687 27.7306 24.2687 27.1971C24.2687 26.6458 23.8241 26.1953 23.2669 26.1953C22.7156 26.1953 22.2651 26.6398 22.2651 27.1971C22.2651 28.4775 23.0891 29.5683 24.2272 29.9832V30.3685C24.2272 30.9198 24.6718 31.3703 25.229 31.3703C25.7862 31.3703 26.2308 30.9258 26.2308 30.3685V29.9714C27.3689 29.5623 28.1929 28.4716 28.1929 27.1853C28.1929 25.5551 26.8651 24.2213 25.229 24.2213C24.6955 24.2213 24.2628 23.7886 24.2628 23.2551C24.2628 22.7216 24.7015 22.3008 25.229 22.3008Z" fill="#D76A25"/>
<path d="M11.1681 11.7094C14.3929 11.7094 17.019 9.08342 17.019 5.85862C17.0249 2.63383 14.3988 0.0078125 11.1681 0.0078125C7.94335 0.0078125 5.31733 2.63383 5.31733 5.85862C5.31137 9.08333 7.94335 11.7094 11.1681 11.7094ZM11.1681 2.00552C13.2962 2.00552 15.0212 3.73648 15.0212 5.85862C15.0212 7.98076 13.2903 9.71173 11.1681 9.71173C9.046 9.71173 7.31504 7.98076 7.31504 5.85862C7.31504 3.73648 9.04004 2.00552 11.1681 2.00552Z" fill="white"/>
</svg>
