<svg width="64" height="64" viewBox="0 0 64 64" fill="none" xmlns="http://www.w3.org/2000/svg">
<g clip-path="url(#clip_2574_7462)">
<path d="M44.8516 25.6939C41.5635 25.6939 38.4652 26.5264 35.7569 28.0019C35.3143 27.6226 34.8401 27.2853 34.3553 26.9902C32.1527 25.6624 29.7711 24.6612 27.2735 23.9762C26.4936 23.7654 25.6611 24.1027 25.2607 24.8087L19.8544 34.2934L14.4588 24.8087C14.0582 24.1027 13.2363 23.7654 12.446 23.9762C9.94841 24.6612 7.56674 25.6623 5.36422 26.9902C2.05499 28.9714 0 32.5967 0 36.4537V45.3059C0 46.286 0.790304 47.0869 1.78096 47.0869H25.8508C26.9574 56.5926 35.0614 63.9906 44.8517 63.9906C55.4113 63.9906 64.0001 55.4017 64.0001 44.8422C64.0001 34.2826 55.4111 25.6939 44.8516 25.6939ZM25.7876 43.525H3.56208V36.4537C3.56208 33.8506 4.96369 31.3847 7.21886 30.0253C8.75741 29.1085 10.391 28.3496 12.0981 27.7911L18.3474 38.7616C19.0323 39.9631 20.7501 39.9631 21.4351 38.7616L27.6843 27.7911C29.381 28.3602 31.025 29.0979 32.5635 30.0253C32.6058 30.0463 32.6374 30.0779 32.6688 30.0991C28.7278 33.3554 26.1459 38.1399 25.7876 43.525ZM44.8516 60.4391C36.2521 60.4391 29.2652 53.4521 29.2652 44.8422C29.2652 36.2533 36.2523 29.2452 44.8622 29.2452C53.472 29.2452 60.4485 36.2533 60.4485 44.8422C60.4485 53.431 53.4616 60.4391 44.8516 60.4391Z" fill="white"/>
<path d="M44.8516 39.6467C45.8 39.6467 46.5693 40.4159 46.5693 41.3644C46.5693 42.3444 47.3596 43.1453 48.3503 43.1453C49.3409 43.1453 50.1312 42.355 50.1312 41.3644C50.1312 39.088 48.6663 37.1489 46.643 36.4113V35.7263C46.643 34.7462 45.8527 33.9453 44.862 33.9453C43.882 33.9453 43.0811 34.7356 43.0811 35.7263V36.4113C41.0577 37.1385 39.5928 39.0776 39.5928 41.3644C39.5928 44.2625 41.9535 46.6335 44.862 46.6335C45.8105 46.6335 46.5797 47.4028 46.5797 48.3512C46.5797 49.2997 45.8105 50.069 44.862 50.069C43.9136 50.069 43.1443 49.2997 43.1443 48.3512C43.1443 47.3712 42.354 46.5703 41.3634 46.5703C40.3833 46.5703 39.5824 47.3606 39.5824 48.3512C39.5824 50.6276 41.0473 52.5667 43.0706 53.3043V53.9893C43.0706 54.9694 43.8609 55.7703 44.8516 55.7703C45.8422 55.7703 46.6325 54.98 46.6325 53.9893V53.2833C48.6559 52.5561 50.1208 50.617 50.1208 48.3302C50.1208 45.4321 47.7601 43.061 44.8516 43.061C43.9032 43.061 43.1339 42.2918 43.1339 41.3433C43.1339 40.3949 43.9138 39.6467 44.8516 39.6467Z" fill="#FF6C0E"/>
<path d="M19.8545 20.8146C25.5874 20.8146 30.2559 16.1461 30.2559 10.4132C30.2665 4.68019 25.5979 0.0117188 19.8545 0.0117188C14.1215 0.0117188 9.45302 4.68019 9.45302 10.4132C9.44242 16.146 14.1215 20.8146 19.8545 20.8146ZM19.8545 3.5632C23.6378 3.5632 26.7044 6.64047 26.7044 10.4132C26.7044 14.1859 23.6272 17.2631 19.8545 17.2631C16.0818 17.2631 13.0045 14.1859 13.0045 10.4132C13.0045 6.64047 16.0712 3.5632 19.8545 3.5632Z" fill="white"/>
</g>
<defs>
<clipPath id="clip_2574_7462">
<rect width="64" height="64" fill="white"/>
</clipPath>
</defs>
</svg>
