<?xml version="1.0" standalone="no"?>
<svg version="1.0" xmlns="http://www.w3.org/2000/svg"
     width="1280.000000pt" height="960.000000pt" viewBox="0 0 1280.000000 960.000000"
     preserveAspectRatio="xMidYMid meet">
  <metadata>
    Created by potrace 1.15, written by Peter Selinger 2001-2017
  </metadata>
  <g transform="translate(0.000000,960.000000) scale(0.100000,-0.100000)"
     fill="current" stroke="none">
    <path d="M9680 8852 c-5885 -506 -7201 -620 -7205 -623 -4 -5 -163 -4252 -159
-4258 2 -1 520 -29 1153 -60 633 -32 1153 -59 1155 -62 2 -2 -216 -627 -485
-1389 -269 -762 -490 -1392 -491 -1400 -3 -13 26 -16 183 -24 l186 -8 73 49
73 49 278 773 c153 426 280 775 282 778 4 3 1559 -126 1563 -130 1 -1 50 -272
109 -602 59 -330 108 -601 109 -602 1 -1 73 -16 161 -33 l158 -31 38 38 38 38
-85 573 c-48 315 -84 575 -82 578 5 5 750 -56 756 -61 2 -2 168 -448 368 -992
201 -543 368 -991 372 -995 7 -7 483 -111 487 -106 16 23 46 124 42 141 -2 12
-272 740 -600 1617 -328 877 -595 1595 -594 1596 1 1 697 -33 1547 -76 850
-42 1547 -76 1549 -74 2 2 14 506 26 1121 13 615 26 1235 29 1378 22 936 56
2725 54 2800 l-3 91 -1085 -94z m-4002 -5052 c211 -10 385 -20 387 -22 7 -7
148 -818 143 -823 -6 -6 -1337 91 -1345 98 -4 5 221 644 262 744 l14 32 78 -5
c43 -3 251 -14 461 -24z m1144 -56 c97 -4 181 -10 186 -13 12 -7 325 -852 318
-858 -5 -5 -575 33 -631 42 l-30 5 -59 393 c-32 216 -60 406 -63 421 l-6 29
54 -6 c30 -4 133 -10 231 -13z"/>
  </g>
</svg>
