<svg width="48" height="48" viewBox="0 0 48 48" fill="none" xmlns="http://www.w3.org/2000/svg">
<g clip-path="url(#clip0_162_96)">
<path d="M47.2485 6.01245H0.751688C0.336563 6.01245 9.375e-05 6.34883 9.375e-05 6.76395V30.814C9.375e-05 31.2291 0.336563 31.5656 0.751688 31.5656C1.16672 31.5656 1.50328 31.2292 1.50328 30.814V7.51554H46.497V33.5698H40.3342C39.919 33.5698 39.5826 33.9062 39.5826 34.3214V40.4842H1.50319V35.6241C1.50319 35.209 1.16672 34.8725 0.751594 34.8725C0.336563 34.8725 0 35.2089 0 35.6241V41.2358C0 41.651 0.336469 41.9874 0.751594 41.9874H40.3342C40.531 41.9874 40.7264 41.9065 40.8656 41.7674L47.7801 34.853C47.9193 34.7136 48.0001 34.5184 48.0001 34.3215V6.76395C48.0001 6.34883 47.6637 6.01245 47.2485 6.01245ZM41.0857 39.4214V35.0729H45.4342L41.0857 39.4214Z" fill="#064DD6"/>
<path d="M26.2542 20.0166L24.9586 17.7726V15.1816C24.9585 14.913 24.8153 14.6651 24.5828 14.5308L22.3388 13.2352L21.0431 10.9912C20.9089 10.7587 20.6608 10.6155 20.3922 10.6155H17.8012L15.5573 9.31993C15.3248 9.18568 15.0382 9.18568 14.8057 9.31993L12.5617 10.6156H9.97061C9.70202 10.6156 9.45405 10.7589 9.31971 10.9913L8.02408 13.2353L5.78008 14.5309C5.54758 14.6652 5.40433 14.9132 5.40433 15.1817V17.7728L4.10899 20.0167C3.97474 20.2492 3.97474 20.5358 4.10899 20.7683L5.40461 23.0123V25.6034C5.40461 25.872 5.54796 26.1199 5.78036 26.2542L8.02436 27.5498L9.31999 29.7938C9.45424 30.0263 9.7023 30.1695 9.9708 30.1695H11.2233V38.0293C11.2233 38.6358 11.9395 38.9952 12.4258 38.6305L15.1816 36.5637L17.9374 38.6305C18.4241 38.9955 19.1399 38.6351 19.1399 38.0293V30.1695H20.3925C20.6611 30.1695 20.9091 30.0261 21.0433 29.7937L22.339 27.5497L24.583 26.2541C24.8155 26.1198 24.9587 25.8718 24.9587 25.6033V23.0122L26.2543 20.7682C26.3885 20.5357 26.3885 20.2491 26.2542 20.0166ZM17.6366 36.5262L15.6325 35.0231C15.3652 34.8226 14.9979 34.8226 14.7306 35.0231L12.7264 36.5262V30.2646L14.8058 31.4651C15.036 31.598 15.327 31.598 15.5574 31.4651L17.6367 30.2646V36.5262H17.6366ZM23.5561 22.4351C23.4902 22.5494 23.4554 22.679 23.4554 22.8108V25.1695L21.4129 26.3489C21.2986 26.4148 21.2037 26.5096 21.1378 26.6239L19.9585 28.6665H17.5998C17.4679 28.6665 17.3382 28.7012 17.2241 28.7671L15.1816 29.9464L13.1391 28.767C13.0248 28.7011 12.8951 28.6664 12.7633 28.6664H10.4047L9.2253 26.6238C9.15939 26.5095 9.06443 26.4147 8.95024 26.3488L6.9078 25.1695V22.8108C6.9078 22.6789 6.87302 22.5493 6.80711 22.4351L5.62774 20.3925L6.80711 18.35C6.87302 18.2357 6.9078 18.1061 6.9078 17.9743V15.6156L8.95033 14.4362C9.06461 14.3703 9.15949 14.2755 9.22539 14.1612L10.4048 12.1186H12.7634C12.8953 12.1186 13.025 12.0839 13.1392 12.018L15.1816 10.8387L17.2241 12.0181C17.3384 12.084 17.4681 12.1187 17.5999 12.1187H19.9586L21.1379 14.1613C21.2038 14.2756 21.2988 14.3704 21.413 14.4363L23.4555 15.6157V17.9744C23.4555 18.1063 23.4903 18.2359 23.5562 18.3501L24.7355 20.3925L23.5561 22.4351Z" fill="#064DD6"/>
<path d="M15.1814 12.426C10.7887 12.426 7.21484 15.9998 7.21484 20.3926C7.21484 24.7855 10.7887 28.3592 15.1814 28.3592C19.5742 28.3592 23.148 24.7855 23.148 20.3926C23.148 15.9998 19.5742 12.426 15.1814 12.426ZM15.1814 26.8561C11.6175 26.8561 8.71794 23.9566 8.71794 20.3926C8.71794 16.8286 11.6174 13.9291 15.1814 13.9291C18.7454 13.9291 21.6449 16.8286 21.6449 20.3926C21.6449 23.9566 18.7454 26.8561 15.1814 26.8561Z" fill="#FF6C0E"/>
<path d="M36.7467 16.4343H28.8102C28.3951 16.4343 28.0586 16.7707 28.0586 17.1859C28.0586 17.6011 28.395 17.9375 28.8102 17.9375H36.7467C37.1618 17.9375 37.4983 17.6011 37.4983 17.1859C37.4983 16.7707 37.1619 16.4343 36.7467 16.4343Z" fill="#064DD6"/>
<path d="M43.24 16.4343H39.6325C39.2173 16.4343 38.8809 16.7707 38.8809 17.1859C38.8809 17.6011 39.2172 17.9375 39.6325 17.9375H43.24C43.6551 17.9375 43.9916 17.6011 43.9916 17.1859C43.9916 16.7707 43.6551 16.4343 43.24 16.4343Z" fill="#064DD6"/>
<path d="M43.2403 20.4426H28.8102C28.3951 20.4426 28.0586 20.779 28.0586 21.1942C28.0586 21.6094 28.395 21.9458 28.8102 21.9458H43.2403C43.6554 21.9458 43.9919 21.6094 43.9919 21.1942C43.9919 20.779 43.6554 20.4426 43.2403 20.4426Z" fill="#064DD6"/>
<path d="M33.8607 24.4509H28.8102C28.3951 24.4509 28.0586 24.7873 28.0586 25.2025C28.0586 25.6176 28.395 25.9541 28.8102 25.9541H33.8607C34.2758 25.9541 34.6123 25.6177 34.6123 25.2025C34.6123 24.7873 34.2759 24.4509 33.8607 24.4509Z" fill="#064DD6"/>
<path d="M43.2402 24.4509H36.7467C36.3316 24.4509 35.9951 24.7873 35.9951 25.2025C35.9951 25.6176 36.3315 25.9541 36.7467 25.9541H43.2402C43.6553 25.9541 43.9918 25.6177 43.9918 25.2025C43.9917 24.7873 43.6553 24.4509 43.2402 24.4509Z" fill="#064DD6"/>
<path d="M39.6326 30.0627H32.4176C32.0025 30.0627 31.666 30.3991 31.666 30.8143C31.666 31.2295 32.0024 31.5659 32.4176 31.5659H39.6326C40.0477 31.5659 40.3842 31.2296 40.3842 30.8143C40.3842 30.3991 40.0478 30.0627 39.6326 30.0627Z" fill="#064DD6"/>
<path d="M18.24 18.1055C17.8573 17.8362 17.276 17.8603 16.943 18.1755L14.673 20.3321L13.7725 19.4866C13.4386 19.1737 12.8554 19.1398 12.4746 19.4136C12.092 19.6867 12.0533 20.205 12.3872 20.5179L13.9859 22.0562C14.1606 22.2201 14.4136 22.3999 14.6785 22.3999C14.6794 22.3999 14.6812 22.3999 14.6822 22.3999C14.9498 22.3999 15.2018 22.2171 15.3766 22.0516L18.3384 19.188C18.6686 18.8728 18.6254 18.3763 18.24 18.1055Z" fill="#FF6C0E"/>
</g>
<defs>
<clipPath id="clip0_162_96">
<rect width="48" height="48" fill="white"/>
</clipPath>
</defs>
</svg>
