<svg xmlns="http://www.w3.org/2000/svg" viewBox="0 0 61.15 61.15"><defs><style>.cls-1{fill:none;stroke:#064dd6;stroke-miterlimit:10;stroke-width:2px;}.cls-2{fill:#064dd6;}</style></defs><g id="Layer_2" data-name="Layer 2"><g id="OBJECTS"><circle class="cls-1" cx="30.58" cy="30.58" r="29.58" transform="translate(-7.6 50.89) rotate(-73.02)"/><path class="cls-2" d="M45,36.54a5.67,5.67,0,0,0-1.3-.81c-.45-.22-3.76-1.84-4.38-2.07s-1.14-.4-1.68.4c-.41.61-1.61,2-2,2.46s-.53.41-1.14.11a22,22,0,0,1-5.08-3.11,18.85,18.85,0,0,1-3.51-4.34c-.28-.47-.09-.69.25-1s1.14-1.34,1.22-1.45a8.3,8.3,0,0,0,.41-.77,1.38,1.38,0,0,0-.05-1.3c-.1-.21-1.8-4.29-2-4.68-.49-1.15-1-1.21-1.5-1.18-.24,0-2.48,0-3.2.81l-.12.13A7.13,7.13,0,0,0,18.8,25a7.93,7.93,0,0,0,.34,2.21,14.43,14.43,0,0,0,2.31,4.46s1.67,2.32,2.49,3.26a22.57,22.57,0,0,0,8.49,6.36c3.79,1.48,5.4,1.82,6.32,1.82.4,0,1.25-.21,1.43-.22,1.15-.11,3.9-1.54,4.48-3.15A5.14,5.14,0,0,0,45,36.54Z"/></g></g></svg>