<svg width="27" height="26" viewBox="0 0 27 26" fill="none" xmlns="http://www.w3.org/2000/svg">
    <path d="M9.29455 10.8523C11.1167 13.6227 13.3858 15.8919 16.1766 17.6869C16.7252 17.0502 17.2942 16.4405 17.8022 15.7903C18.8047 14.5033 20.1121 13.9885 21.7039 14.212C22.8215 14.3746 23.9324 14.571 25.0297 14.8149C26.2422 15.0858 26.9738 16.0409 26.9873 17.2872C27.0009 18.8994 27.0076 20.5183 26.9873 22.1304C26.9534 24.3386 25.0433 26.1404 22.8351 25.9914C20.9588 25.8627 19.1434 25.3885 17.3823 24.7247C10.8322 22.2659 6.07029 17.863 3.06957 11.5567C1.99933 9.30788 1.33551 6.93033 1.01715 4.46472C0.725884 2.25651 2.47349 0.143136 4.70202 0.0483049C6.38188 -0.0194316 8.06174 -0.00588432 9.74838 0.0279839C11.0421 0.0550785 11.9905 0.847595 12.2479 2.10072C12.4917 3.29288 12.7085 4.49182 12.8372 5.7043C12.9862 7.07935 12.4172 8.21055 11.3741 9.0979C10.6831 9.68043 9.99223 10.263 9.29455 10.8523Z" fill="#064DD6"/>
</svg>
