<svg width="36" height="36" viewBox="0 0 36 36" fill="none" xmlns="http://www.w3.org/2000/svg">
<path d="M5.43543 12.3359C2.4378 12.3359 0 14.7737 0 17.7714V22.4698C0 23.8092 0.87874 24.943 2.09055 25.3257V34.9918C2.09055 35.5446 2.53701 35.9911 3.08976 35.9911C3.64252 35.9911 4.08898 35.5446 4.08898 34.9918V25.4674H6.7748V34.9989C6.7748 35.5517 7.22126 35.9981 7.77402 35.9981C8.32677 35.9981 8.77323 35.5517 8.77323 34.9989V25.3257C9.98504 24.943 10.8638 23.8021 10.8638 22.4698V17.7714C10.8709 14.7737 8.43307 12.3359 5.43543 12.3359ZM8.87244 22.4698C8.87244 23.0226 8.42598 23.469 7.87323 23.469H2.99764C2.44488 23.469 1.99843 23.0226 1.99843 22.4698V17.7714C1.99843 15.8792 3.53622 14.3344 5.43543 14.3344C7.33465 14.3344 8.87244 15.8722 8.87244 17.7714V22.4698Z" fill="white"/>
<path d="M5.43544 2.82812C3.36614 2.82812 1.68661 4.50765 1.68661 6.57694C1.68661 8.64624 3.36614 10.3258 5.43544 10.3258C7.50473 10.3258 9.18426 8.64624 9.18426 6.57694C9.18426 4.50765 7.50473 2.82812 5.43544 2.82812ZM5.43544 8.32025C4.47166 8.32025 3.68504 7.53364 3.68504 6.56986C3.68504 5.60608 4.47166 4.81946 5.43544 4.81946C6.39922 4.81946 7.18583 5.60608 7.18583 6.56986C7.18583 7.54072 6.39922 8.32025 5.43544 8.32025Z" fill="white"/>
<path d="M31.2661 3.62159L28.2472 6.66884L24.378 5.03183C24.1087 4.91844 23.8039 4.92553 23.5417 5.06018C23.2795 5.19482 23.0882 5.43577 23.0173 5.71923L21.8622 10.5027L19.9276 8.92947C19.6866 8.73104 19.3677 8.66018 19.063 8.73104C18.7583 8.80191 18.5102 9.01451 18.3827 9.30506L15.7819 15.2366C15.5622 15.7397 15.789 16.335 16.2992 16.5547C16.8661 16.7814 17.4118 16.4838 17.6173 16.0373L19.6866 11.3035L21.8268 13.0468C22.0961 13.2665 22.4504 13.3303 22.7764 13.2169C23.1024 13.1106 23.3504 12.8413 23.4283 12.5011L24.6827 7.32081L28.0913 8.75939C28.4669 8.91529 28.8992 8.83025 29.1898 8.5397L32.6835 5.01057C33.0732 4.6208 33.0661 3.98301 32.6764 3.59325C32.2866 3.22474 31.6559 3.22474 31.2661 3.62159Z" fill="#FF6C0E"/>
<path d="M33.0024 0H15.6756C14.0244 0 12.6779 1.34646 12.6779 2.99764V16.9583C12.6779 18.6094 14.0244 19.9559 15.6756 19.9559H17.9575L14.4779 34.7669C14.3504 35.3055 14.6835 35.8441 15.222 35.9717C15.7606 36.0992 16.2992 35.7661 16.4268 35.2276L17.6811 29.8984H30.9968L32.2512 35.2276C32.3787 35.7661 32.9173 36.0992 33.4559 35.9717C33.9945 35.8441 34.3276 35.3055 34.2 34.7669L30.7205 19.9559H33.0024C34.6535 19.9559 36 18.6094 36 16.9583V2.99764C36 1.34646 34.6535 0 33.0024 0ZM18.1488 27.9L20.0126 19.963H28.6583L30.522 27.9H18.1488ZM34.0016 16.9583C34.0016 17.511 33.5551 17.9575 33.0024 17.9575H15.6756C15.1228 17.9575 14.6764 17.511 14.6764 16.9583V2.99764C14.6764 2.44488 15.1228 1.99843 15.6756 1.99843H33.0024C33.5551 1.99843 34.0016 2.44488 34.0016 2.99764V16.9583Z" fill="white"/>
</svg>
