<svg width="64" height="64" viewBox="0 0 64 64" fill="none" xmlns="http://www.w3.org/2000/svg">
<g clip-path="url(#clip0_2574_7449)">
<path d="M9.66299 21.9336C4.33386 21.9336 0 26.2675 0 31.5966V39.9493C0 42.3304 1.5622 44.3462 3.71654 45.0265V62.2108C3.71654 63.1934 4.51024 63.9871 5.49291 63.9871C6.47559 63.9871 7.26929 63.1934 7.26929 62.2108V45.2785H12.0441V62.2234C12.0441 63.206 12.8378 63.9997 13.8205 63.9997C14.8031 63.9997 15.5969 63.206 15.5969 62.2234V45.0265C17.7512 44.3462 19.3134 42.3178 19.3134 39.9493V31.5966C19.326 26.2675 14.9921 21.9336 9.66299 21.9336ZM15.7732 39.9493C15.7732 40.932 14.9795 41.7257 13.9969 41.7257H5.32913C4.34646 41.7257 3.55276 40.932 3.55276 39.9493V31.5966C3.55276 28.2328 6.28661 25.4863 9.66299 25.4863C13.0394 25.4863 15.7732 28.2202 15.7732 31.5966V39.9493Z" fill="white"/>
<path d="M9.66298 5.02734C5.98424 5.02734 2.99841 8.01317 2.99841 11.6919C2.99841 15.3707 5.98424 18.3565 9.66298 18.3565C13.3417 18.3565 16.3276 15.3707 16.3276 11.6919C16.3276 8.01317 13.3417 5.02734 9.66298 5.02734ZM9.66298 14.7911C7.9496 14.7911 6.55117 13.3927 6.55117 11.6793C6.55117 9.96593 7.9496 8.5675 9.66298 8.5675C11.3764 8.5675 12.7748 9.96593 12.7748 11.6793C12.7748 13.4053 11.3764 14.7911 9.66298 14.7911Z" fill="white"/>
<path d="M55.5843 6.43795L50.2174 11.8553L43.3386 8.94504C42.8599 8.74346 42.3181 8.75606 41.852 8.99543C41.3859 9.2348 41.0457 9.66315 40.9197 10.1671L38.8662 18.671L35.4268 15.8742C34.9985 15.5214 34.4315 15.3954 33.8898 15.5214C33.3481 15.6474 32.9071 16.0254 32.6803 16.5419L28.0567 27.0868C27.6662 27.9813 28.0693 29.0395 28.9764 29.4301C29.9843 29.8332 30.9544 29.3041 31.3197 28.5104L34.9985 20.0946L38.8032 23.1939C39.2819 23.5844 39.9118 23.6978 40.4914 23.4962C41.0709 23.3072 41.5118 22.8285 41.6504 22.2238L43.8803 13.0143L49.9402 15.5718C50.6079 15.849 51.3764 15.6978 51.8929 15.1813L58.104 8.90724C58.7969 8.21433 58.7843 7.08047 58.0914 6.38756C57.3985 5.73244 56.2772 5.73244 55.5843 6.43795Z" fill="#FF6C0E"/>
<path d="M58.6709 0H27.8677C24.9323 0 22.5386 2.3937 22.5386 5.32913V30.148C22.5386 33.0835 24.9323 35.4772 27.8677 35.4772H31.9244L25.7386 61.8079C25.5118 62.7654 26.1039 63.7228 27.0614 63.9496C28.0189 64.1764 28.9764 63.5843 29.2031 62.6268L31.4331 53.1528H55.1055L57.3354 62.6268C57.5622 63.5843 58.5197 64.1764 59.4772 63.9496C60.4346 63.7228 61.0268 62.7654 60.8 61.8079L54.6142 35.4772H58.6709C61.6063 35.4772 64 33.0835 64 30.148V5.32913C64 2.3937 61.6063 0 58.6709 0ZM32.2646 49.6L35.5779 35.4898H50.948L54.2614 49.6H32.2646ZM60.4472 30.148C60.4472 31.1307 59.6535 31.9244 58.6709 31.9244H27.8677C26.885 31.9244 26.0913 31.1307 26.0913 30.148V5.32913C26.0913 4.34646 26.885 3.55276 27.8677 3.55276H58.6709C59.6535 3.55276 60.4472 4.34646 60.4472 5.32913V30.148Z" fill="white"/>
</g>
<defs>
<clipPath id="clip0_2574_7449">
<rect width="64" height="64" fill="white"/>
</clipPath>
</defs>
</svg>
