<svg width="163" height="55" viewBox="0 0 163 55" fill="none" xmlns="http://www.w3.org/2000/svg">
  <path d="M12 0.5H151C157.351 0.5 162.5 5.64873 162.5 12V43C162.5 49.3513 157.351 54.5 151 54.5H12C5.64873 54.5 0.5 49.3513 0.5 43V12C0.5 5.64873 5.64873 0.5 12 0.5Z" fill="white" stroke="#064DD6"/>
  <path d="M150.999 0.0507812H11.9988C5.39902 0.0507812 0.0488281 5.40098 0.0488281 12.0008V43.0008C0.0488281 49.6006 5.39902 54.9508 11.9988 54.9508H150.999C157.599 54.9508 162.949 49.6006 162.949 43.0008V12.0008C162.949 5.40098 157.599 0.0507812 150.999 0.0507812Z" stroke="#5D7795" stroke-opacity="0.5" stroke-width="0.1"/>
  <path fill-rule="evenodd" clip-rule="evenodd" d="M56.5227 31.6094V33.8086H61.7368C61.6551 34.8444 61.2297 35.8218 60.5299 36.582C59.4749 37.6697 58.0152 38.2555 56.5106 38.1948C53.311 38.1948 50.7171 35.5691 50.7171 32.3302C50.7171 29.0913 53.311 26.4657 56.5106 26.4657C57.9805 26.4414 59.3999 27.0082 60.4575 28.0418L61.9903 26.4901C60.5479 25.0116 58.5754 24.1873 56.5227 24.2054C53.6005 24.0902 50.8504 25.6027 49.3555 28.1469C47.8607 30.6911 47.8607 33.8594 49.3555 36.4036C50.8504 38.9478 53.6005 40.4603 56.5227 40.3451C58.6129 40.4408 60.6418 39.6166 62.0869 38.0848C63.3514 36.6785 64.0265 34.8297 63.9698 32.9289C63.9736 32.4658 63.9332 32.0035 63.8491 31.5483L56.5227 31.6094ZM69.9065 30.0088C67.0752 30.0155 64.7846 32.3433 64.789 35.2095C64.7935 38.0757 67.0912 40.3962 69.9226 40.3939C72.7541 40.3917 75.0483 38.0675 75.0483 35.2013C75.0682 33.8139 74.5308 32.4776 73.5592 31.4987C72.5876 30.5198 71.2651 29.9821 69.8945 30.0088H69.9065ZM76.0377 35.2176C76.0288 32.353 78.3134 30.0222 81.1432 30.0088C82.5137 29.9821 83.8363 30.5198 84.8079 31.4987C85.7795 32.4776 86.3169 33.8139 86.297 35.2013C86.2969 38.066 84.0052 40.3894 81.1754 40.3939C78.3455 40.3983 76.0466 38.0821 76.0377 35.2176ZM78.1174 36.5696C78.6686 37.7375 79.869 38.4456 81.1445 38.3553C81.9451 38.3365 82.7042 37.9912 83.2496 37.3977C83.795 36.8041 84.0805 36.0128 84.0412 35.2031C84.0381 33.9088 83.2538 32.748 82.0633 32.2758C80.8728 31.8037 79.5181 32.1161 78.6472 33.0638C77.7764 34.0115 77.5662 35.4017 78.1174 36.5696ZM66.8724 36.5781C67.4274 37.7452 68.6313 38.4498 69.9074 38.3544H69.8954C70.6959 38.3356 71.4551 37.9903 72.0005 37.3968C72.546 36.8033 72.8314 36.0119 72.7921 35.2022C72.7887 33.9069 72.0027 32.7456 70.8107 32.2745C69.6187 31.8033 68.2633 32.1184 67.3937 33.0686C66.5241 34.0189 66.3173 35.4109 66.8724 36.5781ZM106.815 30.0104C108.816 30.085 110.564 31.4022 111.208 33.3214L111.462 33.8712L104.594 36.7424C105.025 37.7347 106.011 38.3598 107.08 38.3185C108.114 38.3212 109.072 37.7735 109.602 36.8768L111.353 38.0986C110.401 39.5421 108.795 40.4049 107.08 40.3955C105.717 40.4158 104.404 39.874 103.444 38.8947C102.483 37.9153 101.957 36.5827 101.987 35.2029C101.904 33.8547 102.375 32.5317 103.29 31.548C104.205 30.5643 105.48 30.0077 106.815 30.0104ZM104.206 35.0569C104.156 34.2935 104.412 33.542 104.917 32.972C105.421 32.402 106.13 32.0613 106.885 32.0268C107.681 31.9738 108.432 32.4064 108.792 33.1265L104.206 35.0569ZM100.888 40.0902H98.6318V24.8179H100.888V40.0902ZM94.9397 31.1706H94.8552C94.1671 30.3919 93.1836 29.9475 92.1516 29.9488C89.4119 30.0833 87.2589 32.371 87.2589 35.1475C87.2589 37.9241 89.4119 40.2117 92.1516 40.3462C93.187 40.3639 94.1769 39.9165 94.8552 39.1244H94.9276V39.8697C94.9276 41.8612 93.8775 42.9242 92.1877 42.9242C91.0367 42.8969 90.0161 42.168 89.6048 41.0793L87.6375 41.9101C88.3951 43.7756 90.1954 44.9888 92.1877 44.9768C94.8311 44.9768 97.0157 43.4007 97.0157 39.5643V30.3154H94.9397V31.1706ZM92.3522 38.3547L92.356 38.3551H92.3438L92.3522 38.3547ZM94.3861 37.3749C93.868 37.9683 93.1335 38.322 92.3522 38.3547C90.7402 38.209 89.5043 36.8416 89.5043 35.2028C89.5043 33.5628 90.7421 32.1946 92.356 32.0506C93.1358 32.0911 93.8664 32.4487 94.3823 33.0421C94.8981 33.6356 95.1553 34.4147 95.0957 35.2028C95.1623 35.9946 94.9059 36.7795 94.3861 37.3749ZM121.782 24.8156H116.387V40.088H118.643V34.2967H121.794C123.547 34.4242 125.225 33.5496 126.14 32.0302C127.054 30.5109 127.054 28.6014 126.14 27.0821C125.225 25.5627 123.547 24.6881 121.794 24.8156H121.782ZM118.633 32.1469H121.783L121.83 32.1835C123.261 32.1835 124.42 31.0102 124.42 29.5628C124.42 28.1154 123.261 26.9421 121.83 26.9421H118.633V32.1469ZM135.699 29.9498C134.02 29.8482 132.441 30.7648 131.68 32.2834L133.683 33.1264C134.087 32.3734 134.892 31.9326 135.736 32.0024C136.314 31.9339 136.896 32.1037 137.35 32.4736C137.803 32.8435 138.092 33.3825 138.149 33.9694V34.1283C137.424 33.7398 136.616 33.5383 135.796 33.5418C133.636 33.5418 131.45 34.7636 131.45 36.975C131.494 37.9277 131.916 38.8222 132.62 39.455C133.325 40.0879 134.253 40.4052 135.192 40.335C136.35 40.4191 137.461 39.8569 138.089 38.8688H138.161V40.0906H140.334V34.2138C140.334 31.5381 138.33 29.9864 135.759 29.9864L135.699 29.9498ZM133.662 37.0227C133.662 37.939 134.689 38.3178 135.425 38.3178L135.485 38.3544C136.844 38.3209 137.972 37.2786 138.128 35.9109C137.502 35.557 136.793 35.3798 136.077 35.3977C134.942 35.3977 133.662 35.8009 133.662 37.0227ZM148.253 30.3164L145.67 36.9385H145.598L142.918 30.3164H140.504L144.523 39.5775L142.23 44.7213H144.584L150.763 30.3164H148.253ZM130.22 40.0902H127.963V24.8179H130.22V40.0902Z" fill="black"/>
  <path d="M11.4952 12.648C11.1017 13.1259 10.9032 13.7376 10.9399 14.3585V41.3844C10.9032 42.0054 11.1017 42.6171 11.4952 43.0949L11.5797 43.1805L26.5341 28.0548V27.7004L11.5797 12.5625L11.4952 12.648Z" fill="url(#paint0_linear_834_13867)"/>
  <path d="M31.4838 33.1011L26.5352 28.0551V27.7008L31.4838 22.6426L31.5925 22.7037L37.5187 26.1125C39.2085 27.0777 39.2085 28.666 37.5187 29.6434L31.6166 33.04L31.4838 33.1011Z" fill="url(#paint1_linear_834_13867)"/>
  <path d="M31.6285 33.027L26.535 27.8711L11.4961 43.0946C12.2066 43.7269 13.2612 43.7576 14.0066 43.1679L31.6406 33.027" fill="url(#paint2_linear_834_13867)"/>
  <path d="M31.6289 22.7156L13.995 12.5748C13.2496 11.985 12.195 12.0158 11.4844 12.6481L26.5354 27.8716L31.6289 22.7156Z" fill="url(#paint3_linear_834_13867)"/>
  <path opacity="0.2" d="M31.4836 32.918L13.9946 42.9978C13.2789 43.5394 12.2963 43.5394 11.5806 42.9978L11.4961 43.0833L11.5806 43.1688C12.2949 43.7146 13.2803 43.7146 13.9946 43.1688L31.6285 33.028L31.4836 32.918Z" fill="black"/>
  <path opacity="0.12" fill-rule="evenodd" clip-rule="evenodd" d="M31.4801 32.9171L37.515 29.4594C38.1386 29.1478 38.5844 28.5612 38.722 27.8711C38.6597 28.634 38.1994 29.305 37.515 29.6305L31.5887 33.027L31.4801 32.9171ZM10.9373 41.4502C10.9572 41.9878 11.1521 42.5062 11.4952 42.9229L11.5796 43.0206L11.4952 43.1062C11.1133 42.6423 10.915 42.0523 10.9373 41.4502ZM10.9373 41.4502C10.938 41.432 10.9388 41.4138 10.9399 41.3956V41.2124C10.9352 41.2919 10.9343 41.3713 10.9373 41.4502Z" fill="black"/>
  <path opacity="0.25" d="M13.9954 12.747L37.5194 26.2844C38.143 26.596 38.5888 27.1826 38.7264 27.8727C38.6641 27.1099 38.2038 26.4388 37.5194 26.1134L13.9954 12.576C12.3057 11.6108 10.9297 12.4171 10.9297 14.372V14.5553C10.9659 12.5882 12.3177 11.7818 13.9954 12.747Z" fill="white"/>
  <path d="M51.0088 19.3984H52.3054V12.0801H54.9333V10.9434H48.3809V12.0801H51.0088V19.3984Z" fill="black"/>
  <path d="M56.9295 19.5039C57.2074 19.5039 57.464 19.4648 57.6994 19.3867C57.9348 19.3086 58.1451 19.1953 58.3303 19.0469C58.5156 18.8945 58.6699 18.7109 58.7934 18.4961H58.886V19.3984H60.1363V15.0449C60.1363 14.5996 60.0398 14.2188 59.8469 13.9023C59.6578 13.582 59.378 13.3379 59.0076 13.1699C58.641 12.998 58.1933 12.9121 57.6647 12.9121C57.19 12.9121 56.7675 12.9844 56.397 13.1289C56.0304 13.2734 55.7333 13.4766 55.5056 13.7383C55.2818 13.9961 55.1448 14.3008 55.0946 14.6523L55.0888 14.6934H56.2986L56.3102 14.6758C56.3835 14.4492 56.5301 14.2734 56.7501 14.1484C56.9739 14.0234 57.2614 13.9609 57.6126 13.9609C58.0332 13.9609 58.3496 14.0547 58.5619 14.2422C58.778 14.4258 58.886 14.6934 58.886 15.0449V17.0488C58.886 17.3223 58.8165 17.5684 58.6776 17.7871C58.5387 18.002 58.3458 18.1738 58.0988 18.3027C57.8557 18.4277 57.5778 18.4902 57.2653 18.4902C56.9295 18.4902 56.6517 18.4082 56.4317 18.2441C56.2118 18.0762 56.1018 17.8477 56.1018 17.5586V17.5469C56.1018 17.2617 56.2041 17.041 56.4086 16.8848C56.6131 16.7246 56.9315 16.6309 57.3637 16.6035L59.5111 16.4629V15.5664L57.19 15.707C56.4414 15.7539 55.8626 15.9395 55.4535 16.2637C55.0483 16.584 54.8457 17.0293 54.8457 17.5996V17.6113C54.8457 17.9941 54.9364 18.3281 55.1178 18.6133C55.2992 18.8984 55.5461 19.1191 55.8587 19.2754C56.1751 19.4277 56.5321 19.5039 56.9295 19.5039ZM57.1611 12.1562H58.0178C58.2454 12 58.4191 11.8398 58.5387 11.6758C58.6583 11.5117 58.7181 11.3281 58.7181 11.125C58.7181 10.8047 58.5696 10.5371 58.2724 10.3223C57.9792 10.1074 57.6184 10 57.19 10C57.0241 10 56.8678 10.0137 56.7212 10.041C56.5784 10.0645 56.4723 10.0898 56.4028 10.1172V10.8672C56.4607 10.8555 56.5301 10.8457 56.6112 10.8379C56.6922 10.8262 56.7887 10.8203 56.9006 10.8203C57.1514 10.8203 57.3598 10.8633 57.5257 10.9492C57.6917 11.0312 57.7746 11.1484 57.7746 11.3008C57.7746 11.4219 57.7225 11.5469 57.6184 11.6758C57.518 11.8047 57.3656 11.9434 57.1611 12.0918V12.1562Z" fill="black"/>
  <path d="M61.9239 19.3984H63.1857V13.0352H61.9239V19.3984ZM62.5606 11.8984C62.7767 11.8984 62.9619 11.8203 63.1163 11.6641C63.2706 11.5078 63.3478 11.3203 63.3478 11.1016C63.3478 10.8828 63.2706 10.6973 63.1163 10.5449C62.9619 10.3887 62.7767 10.3105 62.5606 10.3105C62.3445 10.3105 62.1593 10.3887 62.0049 10.5449C61.8506 10.6973 61.7734 10.8828 61.7734 11.1016C61.7734 11.3203 61.8506 11.5078 62.0049 11.6641C62.1593 11.8203 62.3445 11.8984 62.5606 11.8984Z" fill="black"/>
  <path d="M70.3349 19.5215C70.7941 19.5215 71.18 19.4258 71.4925 19.2344C71.8051 19.043 72.0366 18.7773 72.1871 18.4375H72.2797V19.3984H73.5416V13.0352H72.2797V16.7676C72.2797 17.1074 72.2219 17.4023 72.1061 17.6523C71.9903 17.8984 71.8167 18.0898 71.5851 18.2266C71.3575 18.3594 71.0777 18.4258 70.7458 18.4258C70.2828 18.4258 69.949 18.2949 69.7444 18.0332C69.5399 17.7715 69.4377 17.3789 69.4377 16.8555V13.0352H68.1816V17.1543C68.1816 17.6543 68.2607 18.082 68.4189 18.4375C68.581 18.7891 68.8222 19.0586 69.1425 19.2461C69.4666 19.4297 69.8641 19.5215 70.3349 19.5215ZM74.0626 11.1719C74.0626 11.5781 74.0143 11.916 73.9178 12.1855C73.8252 12.4512 73.6516 12.6543 73.3969 12.7949C73.1422 12.9316 72.7698 13.0117 72.2797 13.0352V13.832L72.8238 13.75C73.4065 13.668 73.8677 13.5391 74.2073 13.3633C74.5507 13.1875 74.7957 12.9258 74.9424 12.5781C75.0929 12.2266 75.1681 11.7578 75.1681 11.1719H74.0626ZM71.2784 12.1562L72.6444 10.1406H71.3015L70.2828 12.1562H71.2784Z" fill="black"/>
  <path d="M75.7871 19.3984H77.0431V15.666C77.0431 15.3223 77.103 15.0273 77.2226 14.7812C77.3461 14.5312 77.5197 14.3398 77.7435 14.207C77.9674 14.0703 78.2317 14.002 78.5365 14.002C78.9996 14.002 79.3392 14.1328 79.5553 14.3945C79.7752 14.6523 79.8852 15.0469 79.8852 15.5781V19.3984H81.1471V15.2793C81.1471 14.5215 80.9599 13.9375 80.5856 13.5273C80.2113 13.1172 79.6711 12.9121 78.9649 12.9121C78.5057 12.9121 78.1256 13.0078 77.8246 13.1992C77.5236 13.3906 77.2959 13.6562 77.1416 13.9961H77.0431V13.0352H75.7871V19.3984Z" fill="black"/>
  <path d="M85.5533 21.6426C86.1514 21.6426 86.6685 21.5449 87.1046 21.3496C87.5407 21.1543 87.8764 20.8789 88.1118 20.5234C88.351 20.168 88.4706 19.75 88.4706 19.2695V13.0352H87.2146V14.0781H87.1393C87.0158 13.8398 86.8596 13.6348 86.6705 13.4629C86.4814 13.291 86.2634 13.1582 86.0164 13.0645C85.7733 12.9707 85.5051 12.9238 85.2118 12.9238C84.6677 12.9238 84.1988 13.0566 83.8052 13.3223C83.4116 13.584 83.1087 13.9492 82.8965 14.418C82.6842 14.8828 82.5781 15.418 82.5781 16.0234V16.0352C82.5781 16.6328 82.6823 17.1621 82.8907 17.623C83.1029 18.0801 83.4039 18.4395 83.7937 18.7012C84.1873 18.959 84.6503 19.0879 85.1829 19.0879C85.4723 19.0879 85.7405 19.0469 85.9874 18.9648C86.2344 18.8828 86.4544 18.7617 86.6473 18.6016C86.8403 18.4375 86.9985 18.2422 87.122 18.0156H87.2204V19.2637C87.2204 19.6934 87.0737 20.0273 86.7804 20.2656C86.491 20.5039 86.0878 20.623 85.5707 20.623C85.1501 20.623 84.8143 20.5527 84.5635 20.4121C84.3127 20.2715 84.1603 20.0918 84.1062 19.873L84.1004 19.8613H82.827L82.8212 19.873C82.8714 20.2246 83.0103 20.5332 83.238 20.7988C83.4657 21.0645 83.7744 21.2715 84.1641 21.4199C84.5577 21.5684 85.0208 21.6426 85.5533 21.6426ZM85.536 18.0332C85.1809 18.0332 84.878 17.9492 84.6272 17.7812C84.3802 17.6094 84.1911 17.373 84.0599 17.0723C83.9287 16.7715 83.8631 16.4238 83.8631 16.0293V16.0176C83.8631 15.623 83.9287 15.2754 84.0599 14.9746C84.1911 14.6699 84.3802 14.4316 84.6272 14.2598C84.878 14.0879 85.1809 14.002 85.536 14.002C85.891 14.002 86.1958 14.0879 86.4505 14.2598C86.7052 14.4316 86.9001 14.6699 87.0351 14.9746C87.1741 15.2793 87.2435 15.627 87.2435 16.0176V16.0293C87.2435 16.4238 87.1741 16.7715 87.0351 17.0723C86.9001 17.373 86.7052 17.6094 86.4505 17.7812C86.1958 17.9492 85.891 18.0332 85.536 18.0332Z" fill="black"/>
  <path d="M95.804 19.5039C96.2478 19.5039 96.6356 19.4062 96.9674 19.2109C97.2993 19.0156 97.5559 18.7441 97.7373 18.3965H97.8299V19.3984H99.0915V10.5391H97.8299V14.043H97.7373C97.5714 13.6992 97.3147 13.4277 96.9674 13.2285C96.624 13.0254 96.2362 12.9238 95.804 12.9238C95.2715 12.9238 94.8103 13.0586 94.4206 13.3281C94.0308 13.5938 93.7298 13.9727 93.5176 14.4648C93.3053 14.957 93.1992 15.5391 93.1992 16.2109V16.2227C93.1992 16.8906 93.3053 17.4707 93.5176 17.9629C93.7337 18.4551 94.0366 18.8359 94.4264 19.1055C94.82 19.3711 95.2792 19.5039 95.804 19.5039ZM96.1629 18.4141C95.8156 18.4141 95.5146 18.3262 95.2599 18.1504C95.009 17.9746 94.8161 17.7227 94.681 17.3945C94.5498 17.0664 94.4842 16.6758 94.4842 16.2227V16.2109C94.4842 15.7539 94.5498 15.3633 94.681 15.0391C94.8161 14.7109 95.009 14.459 95.2599 14.2832C95.5146 14.1035 95.8156 14.0137 96.1629 14.0137C96.5102 14.0137 96.8092 14.1035 97.0601 14.2832C97.3147 14.459 97.5096 14.7109 97.6447 15.0391C97.7836 15.3672 97.8531 15.7578 97.8531 16.2109V16.2227C97.8531 16.6719 97.7855 17.0625 97.6505 17.3945C97.5154 17.7227 97.3205 17.9746 97.0658 18.1504C96.8112 18.3262 96.5102 18.4141 96.1629 18.4141Z" fill="black"/>
  <path d="M103.049 19.5215C103.509 19.5215 103.895 19.4258 104.207 19.2344C104.52 19.043 104.751 18.7773 104.902 18.4375H104.994V19.3984H106.256V13.0352H104.994V16.7676C104.994 17.1074 104.936 17.4023 104.821 17.6523C104.705 17.8984 104.531 18.0898 104.3 18.2266C104.072 18.3594 103.792 18.4258 103.46 18.4258C102.997 18.4258 102.664 18.2949 102.459 18.0332C102.255 17.7715 102.152 17.3789 102.152 16.8555V13.0352H100.896V17.1543C100.896 17.6543 100.975 18.082 101.134 18.4375C101.296 18.7891 101.537 19.0586 101.857 19.2461C102.181 19.4297 102.579 19.5215 103.049 19.5215ZM103.559 22.0703C103.775 22.0703 103.958 21.9941 104.109 21.8418C104.259 21.6895 104.335 21.5059 104.335 21.291C104.335 21.0723 104.259 20.8867 104.109 20.7344C103.958 20.582 103.775 20.5059 103.559 20.5059C103.347 20.5059 103.163 20.582 103.009 20.7344C102.858 20.8867 102.783 21.0723 102.783 21.291C102.783 21.5059 102.858 21.6895 103.009 21.8418C103.163 21.9941 103.347 22.0703 103.559 22.0703Z" fill="black"/>
  <path d="M108.062 19.3984H109.318V15.666C109.318 15.3223 109.378 15.0273 109.498 14.7812C109.621 14.5312 109.795 14.3398 110.019 14.207C110.242 14.0703 110.507 14.002 110.812 14.002C111.276 14.002 111.614 14.1328 111.83 14.3945C112.05 14.6523 112.16 15.0469 112.16 15.5781V19.3984H113.422V15.2793C113.422 14.5215 113.235 13.9375 112.861 13.5273C112.486 13.1172 111.946 12.9121 111.24 12.9121C110.781 12.9121 110.401 13.0078 110.1 13.1992C109.799 13.3906 109.571 13.6562 109.417 13.9961H109.318V13.0352H108.062V19.3984Z" fill="black"/>
  <path d="M117.829 21.6426C118.427 21.6426 118.944 21.5449 119.38 21.3496C119.816 21.1543 120.152 20.8789 120.388 20.5234C120.627 20.168 120.746 19.75 120.746 19.2695V13.0352H119.49V14.0781H119.415C119.292 13.8398 119.135 13.6348 118.946 13.4629C118.757 13.291 118.539 13.1582 118.292 13.0645C118.049 12.9707 117.781 12.9238 117.488 12.9238C116.944 12.9238 116.475 13.0566 116.081 13.3223C115.687 13.584 115.385 13.9492 115.172 14.418C114.96 14.8828 114.854 15.418 114.854 16.0234V16.0352C114.854 16.6328 114.958 17.1621 115.167 17.623C115.379 18.0801 115.68 18.4395 116.069 18.7012C116.463 18.959 116.926 19.0879 117.459 19.0879C117.748 19.0879 118.016 19.0469 118.263 18.9648C118.51 18.8828 118.73 18.7617 118.923 18.6016C119.116 18.4375 119.274 18.2422 119.398 18.0156H119.496V19.2637C119.496 19.6934 119.35 20.0273 119.056 20.2656C118.767 20.5039 118.364 20.623 117.847 20.623C117.426 20.623 117.09 20.5527 116.839 20.4121C116.589 20.2715 116.436 20.0918 116.382 19.873L116.376 19.8613H115.103L115.097 19.873C115.147 20.2246 115.286 20.5332 115.514 20.7988C115.741 21.0645 116.05 21.2715 116.44 21.4199C116.834 21.5684 117.297 21.6426 117.829 21.6426ZM117.812 18.0332C117.457 18.0332 117.154 17.9492 116.903 17.7812C116.656 17.6094 116.467 17.373 116.336 17.0723C116.205 16.7715 116.139 16.4238 116.139 16.0293V16.0176C116.139 15.623 116.205 15.2754 116.336 14.9746C116.467 14.6699 116.656 14.4316 116.903 14.2598C117.154 14.0879 117.457 14.002 117.812 14.002C118.167 14.002 118.472 14.0879 118.726 14.2598C118.981 14.4316 119.176 14.6699 119.311 14.9746C119.45 15.2793 119.519 15.627 119.519 16.0176V16.0293C119.519 16.4238 119.45 16.7715 119.311 17.0723C119.176 17.373 118.981 17.6094 118.726 17.7812C118.472 17.9492 118.167 18.0332 117.812 18.0332Z" fill="black"/>
  <path d="M128.161 19.4395C128.285 19.4395 128.404 19.4316 128.52 19.416C128.636 19.4043 128.744 19.3906 128.844 19.375V18.3555C128.756 18.3633 128.677 18.3691 128.607 18.373C128.541 18.377 128.462 18.3789 128.37 18.3789C128.057 18.3789 127.833 18.3047 127.698 18.1562C127.563 18.0039 127.496 17.7559 127.496 17.4121V14.0371H128.844V13.0352H127.496V11.4297H126.211V13.0352H125.227V14.0371H126.211V17.7227C126.211 18.332 126.363 18.7715 126.668 19.041C126.977 19.3066 127.474 19.4395 128.161 19.4395Z" fill="black"/>
  <path d="M130.314 19.3984H131.57V15.5957C131.57 15.2871 131.637 15.0215 131.772 14.7988C131.911 14.5723 132.1 14.3965 132.34 14.2715C132.583 14.1465 132.864 14.084 133.185 14.084C133.304 14.084 133.418 14.0898 133.526 14.1016C133.638 14.1133 133.75 14.1309 133.862 14.1543V12.9824C133.8 12.9668 133.719 12.9531 133.619 12.9414C133.518 12.9297 133.416 12.9238 133.312 12.9238C132.895 12.9238 132.544 13.0176 132.258 13.2051C131.977 13.3926 131.78 13.6562 131.668 13.9961H131.57V13.0352H130.314V19.3984Z" fill="black"/>
  <path d="M137.55 19.5215C137.955 19.5215 138.312 19.4688 138.621 19.3633C138.933 19.2578 139.2 19.1191 139.42 18.9473C139.643 18.7754 139.823 18.5859 139.958 18.3789C140.093 18.168 140.188 17.957 140.242 17.7461L140.253 17.6934H139.038L139.014 17.7402C138.968 17.8496 138.881 17.9609 138.754 18.0742C138.631 18.1875 138.47 18.2832 138.274 18.3613C138.081 18.4355 137.849 18.4727 137.579 18.4727C137.228 18.4727 136.923 18.3945 136.664 18.2383C136.41 18.082 136.213 17.8555 136.074 17.5586C135.935 17.2617 135.866 16.9043 135.866 16.4863V15.9766C135.866 15.5391 135.935 15.1699 136.074 14.8691C136.217 14.5684 136.41 14.3418 136.653 14.1895C136.9 14.0332 137.18 13.9551 137.492 13.9551C137.805 13.9551 138.081 14.0293 138.32 14.1777C138.559 14.3262 138.746 14.5508 138.881 14.8516C139.02 15.1484 139.09 15.5234 139.09 15.9766V16.4863L139.692 15.6426H135.235V16.5508H140.317V16.1055C140.317 15.4648 140.203 14.9062 139.975 14.4297C139.748 13.9492 139.422 13.5762 138.997 13.3105C138.577 13.0449 138.073 12.9121 137.486 12.9121C136.904 12.9121 136.394 13.0508 135.958 13.3281C135.526 13.6055 135.19 13.9922 134.951 14.4883C134.716 14.9844 134.598 15.5645 134.598 16.2285V16.2344C134.598 16.9062 134.716 17.4883 134.951 17.9805C135.19 18.4727 135.53 18.8535 135.97 19.123C136.41 19.3887 136.936 19.5215 137.55 19.5215ZM135.374 12.1562H136.578L137.463 10.8613H137.556L138.441 12.1562H139.645L138.21 10.1406H136.809L135.374 12.1562Z" fill="black"/>
  <path d="M141.809 19.3984H143.065V15.666C143.065 15.3223 143.125 15.0273 143.245 14.7812C143.368 14.5312 143.542 14.3398 143.766 14.207C143.99 14.0703 144.254 14.002 144.559 14.002C145.022 14.002 145.361 14.1328 145.577 14.3945C145.797 14.6523 145.907 15.0469 145.907 15.5781V19.3984H147.169V15.2793C147.169 14.5215 146.982 13.9375 146.608 13.5273C146.233 13.1172 145.693 12.9121 144.987 12.9121C144.528 12.9121 144.148 13.0078 143.847 13.1992C143.546 13.3906 143.318 13.6562 143.164 13.9961H143.065V13.0352H141.809V19.3984Z" fill="black"/>
  <defs>
    <linearGradient id="paint0_linear_834_13867" x1="19.9841" y1="-5.79969" x2="-3.99983" y2="0.501561" gradientUnits="userSpaceOnUse">
      <stop stop-color="#00A0FF"/>
      <stop offset="0.01" stop-color="#00A1FF"/>
      <stop offset="0.26" stop-color="#00BEFF"/>
      <stop offset="0.51" stop-color="#00D2FF"/>
      <stop offset="0.76" stop-color="#00DFFF"/>
      <stop offset="1" stop-color="#00E3FF"/>
    </linearGradient>
    <linearGradient id="paint1_linear_834_13867" x1="39.7274" y1="15.4092" x2="10.5307" y2="15.4092" gradientUnits="userSpaceOnUse">
      <stop stop-color="#FFE000"/>
      <stop offset="0.41" stop-color="#FFBD00"/>
      <stop offset="0.78" stop-color="#FFA500"/>
      <stop offset="1" stop-color="#FF9C00"/>
    </linearGradient>
    <linearGradient id="paint2_linear_834_13867" x1="11.0543" y1="19.9631" x2="-8.52937" y2="52.5052" gradientUnits="userSpaceOnUse">
      <stop stop-color="#FF3A44"/>
      <stop offset="1" stop-color="#C31162"/>
    </linearGradient>
    <linearGradient id="paint3_linear_834_13867" x1="-0.247337" y1="8.44031" x2="8.49389" y2="22.972" gradientUnits="userSpaceOnUse">
      <stop stop-color="#32A071"/>
      <stop offset="0.07" stop-color="#2DA771"/>
      <stop offset="0.48" stop-color="#15CF74"/>
      <stop offset="0.8" stop-color="#06E775"/>
      <stop offset="1" stop-color="#00F076"/>
    </linearGradient>
  </defs>
</svg>
