<svg width="50" height="40" viewBox="0 0 50 40" fill="none" xmlns="http://www.w3.org/2000/svg">
<path d="M37.5047 0H20.711C17.1873 0 13.8386 1.4303 11.4645 3.97576L2.64276 13.3818C-0.88092 17.1394 -0.88092 22.8606 2.64276 26.6182L11.4645 36.0242C13.8386 38.5455 17.1873 40 20.711 40H37.5047C44.4021 40 50 34.5697 50 27.8788V12.1212C50 5.4303 44.4021 0 37.5047 0ZM36.3301 24.703C37.0549 25.4061 37.0549 26.5697 36.3301 27.2727C35.9553 27.6364 35.4804 27.8061 35.0056 27.8061C34.5308 27.8061 34.056 27.6364 33.6811 27.2727L28.8329 22.5697L23.9848 27.2727C23.6099 27.6364 23.1351 27.8061 22.6603 27.8061C22.1854 27.8061 21.7106 27.6364 21.3357 27.2727C20.611 26.5697 20.611 25.4061 21.3357 24.703L26.1839 20L21.3357 15.297C20.611 14.5939 20.611 13.4303 21.3357 12.7273C22.0605 12.0242 23.26 12.0242 23.9848 12.7273L28.8329 17.4303L33.6811 12.7273C34.4058 12.0242 35.6054 12.0242 36.3301 12.7273C37.0549 13.4303 37.0549 14.5939 36.3301 15.297L31.4819 20L36.3301 24.703Z" fill="#D5DAE7"/>
<path d="M36.3301 24.703C37.0549 25.4061 37.0549 26.5697 36.3301 27.2727C35.9553 27.6364 35.4804 27.8061 35.0056 27.8061C34.5308 27.8061 34.056 27.6364 33.6811 27.2727L28.8329 22.5697L23.9848 27.2727C23.6099 27.6364 23.1351 27.8061 22.6603 27.8061C22.1854 27.8061 21.7106 27.6364 21.3357 27.2727C20.611 26.5697 20.611 25.4061 21.3357 24.703L26.1839 20L21.3357 15.297C20.611 14.5939 20.611 13.4303 21.3357 12.7273C22.0605 12.0242 23.26 12.0242 23.9848 12.7273L28.8329 17.4303L33.6811 12.7273C34.4058 12.0242 35.6054 12.0242 36.3301 12.7273C37.0549 13.4303 37.0549 14.5939 36.3301 15.297L31.4819 20L36.3301 24.703Z" fill="#011232"/>
</svg>
