<?xml version="1.0" encoding="UTF-8"?>
<svg width="160" height="160" fill="none" viewBox="0 0 80 80" xmlns="http://www.w3.org/2000/svg">
<path d="m80 46.25c0-1.7511-0.8353-5.0295-6.4291-7.3128-0.5621-0.2294-1.1562-0.4397-1.7743-0.633 0.0514-0.7878 0.0784-1.5783 0.0784-2.3667 0-9.5992-3.7381-18.624-10.526-25.412-6.7878-6.7877-15.812-10.526-25.412-10.526s-18.624 3.7381-25.412 10.526c-6.7877 6.7878-10.526 15.812-10.526 25.412s3.7381 18.624 10.526 25.412c6.7878 6.7877 15.812 10.526 25.412 10.526 2.4341 0 4.8489-0.2439 7.2123-0.7255 0.1711 1.826 1.3291 4.7166 6.4043 6.7882 3.2582 1.3298 7.5228 2.0623 12.008 2.0623s8.7502-0.7323 12.008-2.0623c5.5938-2.2832 6.4291-5.5616 6.4291-7.3127v-23.906h-0.0205c0.0139-0.1657 0.0205-0.323 0.0205-0.4688zm-6.3134-0.0014c-6e-3 0.0081-0.0111 0.0159-0.0174 0.0242-0.0117 0.0153-0.0245 0.031-0.0378 0.0467-0.0152 0.0182-0.0312 0.0364-0.0484 0.0552-0.015 0.0162-0.0308 0.0328-0.0474 0.0495-0.0189 0.0192-0.039 0.0388-0.0601 0.0586-0.0183 0.0172-0.0369 0.0344-0.0566 0.0519-0.023 0.0203-0.0472 0.0409-0.0722 0.0617-0.0212 0.0178-0.0428 0.0356-0.0656 0.0538-0.0269 0.0214-0.0555 0.0431-0.0844 0.0648-0.0244 0.0184-0.0486 0.0367-0.0744 0.0553-0.0311 0.0224-0.0639 0.0452-0.097 0.0678-0.0272 0.0186-0.0539 0.0372-0.0825 0.0561-0.0355 0.0233-0.0731 0.047-0.1106 0.0708-0.0297 0.0187-0.0588 0.0375-0.0899 0.0564-0.0401 0.0244-0.0826 0.0491-0.1248 0.0738-0.0322 0.0187-0.0633 0.0373-0.0966 0.0561-0.0453 0.0254-0.0932 0.0512-0.1407 0.077-0.0336 0.0183-0.0663 0.0364-0.1011 0.0547-0.0525 0.0276-0.108 0.0553-0.1632 0.0829-0.0332 0.0168-0.065 0.0333-0.0992 0.05-0.0689 0.0338-0.1412 0.0677-0.2142 0.1014-0.0231 0.0108-0.0447 0.0214-0.0681 0.0322-0.0981 0.0447-0.1996 0.0896-0.3044 0.1341-0.02 0.0084-0.0416 0.0169-0.0619 0.0255-0.0854 0.0359-0.172 0.0718-0.262 0.1075-0.0389 0.0154-0.08 0.0306-0.1195 0.0459-0.0739 0.0286-0.1475 0.0573-0.2243 0.0856-0.0471 0.0175-0.0968 0.0347-0.1451 0.0521-0.0725 0.0259-0.1447 0.052-0.2197 0.0778-0.0522 0.0179-0.1066 0.0356-0.16 0.0534-0.0741 0.0247-0.148 0.0494-0.2244 0.0738-0.0567 0.0181-0.1156 0.0359-0.1737 0.0539-0.0761 0.0236-0.1522 0.047-0.2305 0.0701-0.0612 0.0181-0.1242 0.0358-0.1867 0.0536-0.0786 0.0224-0.1572 0.0447-0.2378 0.0666-0.0652 0.0178-0.1319 0.0351-0.1983 0.0525-0.0813 0.0212-0.1628 0.0425-0.2461 0.0633-0.0688 0.0171-0.1389 0.034-0.2089 0.0507-0.0844 0.0203-0.1694 0.0403-0.2558 0.06-0.0722 0.0164-0.1455 0.0327-0.2189 0.0486-0.0875 0.0191-0.1758 0.0378-0.2651 0.0563-0.0757 0.0156-0.1519 0.0309-0.229 0.0461-0.0907 0.0178-0.1826 0.0353-0.2754 0.0525-0.0786 0.0145-0.1577 0.0289-0.2377 0.0429-0.0944 0.0166-0.1901 0.0327-0.2865 0.0486-0.0816 0.0135-0.1635 0.0269-0.2464 0.0397-0.098 0.0152-0.1977 0.0299-0.2977 0.0442-0.0842 0.0122-0.1684 0.0244-0.2541 0.036-0.1023 0.0137-0.2065 0.0269-0.3109 0.0398-0.0866 0.0108-0.1728 0.0216-0.2606 0.0317-0.1066 0.0124-0.2152 0.0236-0.3238 0.035-0.0887 0.0093-0.177 0.0188-0.2672 0.0274-0.1115 0.0106-0.2254 0.0201-0.339 0.0298-0.09 0.0077-0.1792 0.0157-0.2705 0.0227-0.1186 9e-3 -0.2395 0.0167-0.3602 0.0245-0.0893 0.0058-0.1779 0.0122-0.2685 0.0174-0.1283 0.0073-0.2593 0.0129-0.3897 0.0189-0.0861 0.0039-0.1711 0.0086-0.2583 0.0118-0.1461 0.0055-0.2952 0.0091-0.4439 0.0129-0.0747 0.0018-0.1478 0.0046-0.2233 6e-3 -0.2255 0.0043-0.4539 0.0066-0.6858 0.0066s-0.4603-0.0023-0.6858-0.0066c-0.0753-0.0014-0.1486-0.0042-0.2233-6e-3 -0.1489-0.0038-0.2979-0.0074-0.4439-0.0129-0.0871-0.0032-0.172-0.0079-0.2582-0.0118-0.1307-6e-3 -0.2616-0.0116-0.3897-0.0189-0.0906-0.0052-0.1791-0.0116-0.2686-0.0174-0.1206-0.0078-0.2417-0.0155-0.3602-0.0245-0.0912-7e-3 -0.1804-0.015-0.2704-0.0227-0.1136-0.0097-0.2275-0.0192-0.3391-0.0298-0.0902-0.0086-0.1784-0.0181-0.2672-0.0274-0.1086-0.0114-0.2172-0.0226-0.3237-0.035-0.0879-0.0101-0.1741-0.0209-0.2607-0.0317-0.1043-0.0129-0.2084-0.0259-0.3109-0.0398-0.0856-0.0116-0.1699-0.0238-0.2541-0.036-0.1-0.0143-0.1995-0.0289-0.2976-0.0442-0.083-0.0129-0.1649-0.0262-0.2464-0.0397-0.0964-0.0159-0.1921-0.032-0.2866-0.0486-0.08-0.014-0.1591-0.0284-0.2376-0.0429-0.0929-0.0172-0.1847-0.0347-0.2755-0.0525-0.0769-0.0152-0.1533-0.0305-0.2289-0.0461-0.0894-0.0185-0.1777-0.0372-0.2652-0.0563-0.0736-0.0161-0.1467-0.0322-0.2189-0.0486-0.0864-0.0197-0.1714-0.0398-0.2558-0.06-0.0701-0.0168-0.1401-0.0336-0.2089-0.0507-0.0833-0.0208-0.1648-0.0421-0.2461-0.0633-0.0664-0.0175-0.1331-0.0349-0.1983-0.0525-0.0806-0.0219-0.1592-0.0442-0.2378-0.0666-0.0625-0.0178-0.1254-0.0355-0.1867-0.0536-0.0783-0.0231-0.1544-0.0467-0.2304-0.0701-0.0582-0.018-0.1169-0.0358-0.1738-0.0539-0.0764-0.0244-0.1503-0.0491-0.2244-0.0738-0.0534-0.0178-0.1078-0.0355-0.16-0.0534-0.075-0.0257-0.1472-0.0518-0.2197-0.0778-0.0482-0.0174-0.0979-0.0346-0.1451-0.0521-0.0767-0.0284-0.1503-0.057-0.2242-0.0856-0.0397-0.0153-0.0808-0.0306-0.1196-0.0459-0.09-0.0358-0.1765-0.0716-0.262-0.1075-0.0202-0.0085-0.0419-0.0169-0.0619-0.0255-0.105-0.0447-0.2064-0.0894-0.3043-0.1341-0.0235-0.0108-0.0451-0.0214-0.0682-0.0322-0.0728-0.0339-0.1453-0.0676-0.2142-0.1014-0.0342-0.0167-0.0659-0.0332-0.0992-0.05-0.0552-0.0278-0.1106-0.0554-0.1631-0.0829-0.0349-0.0183-0.0674-0.0364-0.1011-0.0547-0.0477-0.0258-0.0957-0.0516-0.1408-0.077-0.0334-0.0188-0.0645-0.0374-0.0966-0.0561-0.0423-0.0247-0.0848-0.0494-0.1248-0.0738-0.0311-0.0191-0.0602-0.0377-0.0899-0.0564-0.0375-0.0236-0.0751-0.0473-0.1106-0.0708-0.0286-0.0189-0.0553-0.0375-0.0825-0.0561-0.0331-0.0228-0.0661-0.0454-0.097-0.0678-0.0258-0.0187-0.05-0.037-0.0744-0.0553-0.0289-0.0219-0.0575-0.0434-0.0844-0.0648-0.0228-0.0182-0.0442-0.036-0.0656-0.0538-0.025-0.0208-0.0494-0.0414-0.0722-0.0617-0.0197-0.0175-0.0384-0.0349-0.0565-0.0519-0.021-0.0198-0.0411-0.0394-0.0602-0.0586-0.0166-0.0167-0.0323-0.0333-0.0473-0.0495-0.0172-0.0188-0.0333-0.037-0.0485-0.0552-0.0133-0.0157-0.0261-0.0314-0.0378-0.0467-0.0064-0.0083-0.0116-0.0161-0.0173-0.0242 0.7359-1.0089 4.9025-3.1236 12.123-3.1236s11.388 2.1147 12.124 3.1236zm-30.562 0.0014c0 0.1458 0.0066 0.3031 0.0205 0.4688h-0.0205v18.03c-2.3392 0.5813-4.7508 0.8766-7.1875 0.8766-16.37 0-29.688-13.318-29.688-29.688s13.318-29.688 29.688-29.688 29.688 13.318 29.688 29.688c0 0.38-0.0078 0.7606-0.0222 1.1408-1.3111-0.1338-2.6651-0.2033-4.0403-0.2033-4.4856 0-8.7502 0.7325-12.008 2.0623-5.5938 2.2832-6.4291 5.5616-6.4291 7.3127zm30.625 24.276c-0.5163 0.961-4.7177 3.2241-12.188 3.2241s-11.671-2.2633-12.188-3.2241v-5.0081c0.0602 0.0253 0.1178 0.0511 0.1791 0.0761 3.2582 1.3299 7.5228 2.0623 12.008 2.0623s8.7502-0.7323 12.008-2.0623c0.0614-0.0252 0.1189-0.0508 0.1791-0.0761v5.0081zm0-12.348c-0.5036 0.9578-4.7039 3.2282-12.188 3.2282s-11.684-2.2704-12.188-3.2282v-4.6914c0.0602 0.0253 0.1178 0.0511 0.1791 0.0761 3.2582 1.3298 7.5228 2.0623 12.008 2.0623s8.7502-0.7323 12.008-2.0622c0.0614-0.0251 0.1189-0.0508 0.1791-0.0761v4.6913z" fill="url(#b)"/>
<path d="m32.812 32.812h-14.062v6.25h20.312v-26.562h-6.25v20.312z" fill="url(#a)"/>
<defs>
<linearGradient id="b" x1="3.8931e-7" x2="92.616" y1="100" y2="77.465" gradientUnits="userSpaceOnUse">
<stop stop-color="#0A3ECA" offset="0"/>
<stop stop-color="#4B7CFF" offset=".96152"/>
</linearGradient>
<linearGradient id="a" x1="18.75" x2="42.824" y1="45.703" y2="41.224" gradientUnits="userSpaceOnUse">
<stop stop-color="#0A3ECA" offset="0"/>
<stop stop-color="#4B7CFF" offset=".96152"/>
</linearGradient>
</defs>
</svg>
