<?xml version="1.0" encoding="UTF-8"?>
<svg fill="none" viewBox="0 0 160 160" xmlns="http://www.w3.org/2000/svg">
<path d="m68.764 26.856-0.0016 0.0027-0.8628 1.4705c-1.5054 3.5357-1.3306 7.6682 0.7946 11.089l0.0368 0.0591 11.269 19.208 11.238-19.155c2.885-4.9017 1.9067-11.239-2.0108-15.233-2.4477-2.3883-5.8158-3.7247-9.2272-3.7624-4.4843 0.0496-8.894 2.3432-11.236 6.3206zm-63.022 85.682 52.395-89.307c2.0369-4.3247 5.4127-8.0841 9.9107-10.589 3.7396-2.1343 7.8661-3.1324 11.952-3.1063 4.0975-0.0261 8.236 0.97783 11.984 3.1249 1.7942 1.0277 3.4058 2.2633 4.8211 3.6599 1.4961 1.4425 2.8183 3.1005 3.9129 4.9597l4e-3 0.0066 53.536 91.252 1e-3 3e-3c6.625 11.258 2.565 25.975-8.735 32.448-2.394 1.371-4.947 2.276-7.546 2.744-1.53 0.31-3.108 0.472-4.719 0.472h-106.8c-3.5596 0-6.962-0.794-10.028-2.214-0.6618-0.301-1.3145-0.635-1.9557-1.002-2.1202-1.215-3.9856-2.719-5.5733-4.437-3.9816-4.24-6.4434-9.902-6.4434-16.098 0-3.815 0.93338-7.428 2.5802-10.631 0.21873-0.432 0.45234-0.859 0.70101-1.282l0.0017-3e-3zm11.151 20.452c-3.3462-3.692-4.3212-9.167-2.2645-13.726 2.0585-4.39 6.6099-7.562 11.832-7.562h22.437l-11.198 19.088-0.0013 2e-3c-3.3481 5.686-10.921 7.931-16.898 5.099-1.478-0.722-2.8027-1.713-3.9064-2.901zm29.769 4.215h66.676c-0.177-0.274-0.349-0.552-0.516-0.836l-14.472-24.667h-36.7l-14.472 24.667c-0.1668 0.284-0.3389 0.562-0.5161 0.836zm21.442-36.503h23.793l-11.897-20.278-11.897 20.278zm43 11 11.199 19.088 2e-3 4e-3c2.765 4.693 8.409 7.041 13.656 6.124 5.85-1.261 10.3-6.505 10.3-12.464v-0.078l2e-3 -0.077c0.189-6.696-5.564-12.597-12.722-12.597h-22.437zm23.471-10.977c-0.344-0.015-0.688-0.023-1.034-0.023h-28.89l-18.274-31.147 14.342-24.444 2e-3 -0.0032c0.208-0.3546 0.406-0.7127 0.594-1.0739l33.26 56.691zm-79.224-0.023h-28.89c-0.346 0-0.6906 8e-3 -1.0335 0.022l33.245-56.666c0.2017 0.3708 0.4148 0.7384 0.6394 1.1024l14.312 24.395-18.273 31.147z" clip-rule="evenodd" fill="#fff" fill-rule="evenodd"/>
</svg>
