<?xml version="1.0" encoding="UTF-8"?>
<svg fill="none" viewBox="0 0 36 16" xmlns="http://www.w3.org/2000/svg">
<rect width="36" height="16" rx="8" fill="#0068FF"/>
<g clip-path="url(#a)">
<path d="m19.09 5.8005v-0.50718h1.5191v7.1316h-0.8691c-0.3578 0-0.6482-0.2889-0.65-0.6462-3e-4 1e-4 -5e-4 3e-4 -8e-4 5e-4 -0.6118 0.4475-1.3682 0.7131-2.1852 0.7131-2.0462 0-3.7052-1.6579-3.7052-3.7027 0-2.0448 1.659-3.7027 3.7052-3.7027 0.817 0 1.5734 0.26562 2.1852 0.71308 3e-4 1.7e-4 5e-4 3.5e-4 8e-4 5.2e-4zm-6.2848-2.8005v0.23122c0 0.43124-0.0576 0.78332-0.3379 1.1964l-0.0339 0.03868c-0.0612 0.06935-0.2048 0.23229-0.2731 0.32071l-4.877 6.1213h5.5219v0.8666c0 0.359-0.2913 0.6499-0.6506 0.6499h-7.1545v-0.4086c0-0.5004 0.12434-0.7236 0.2815-0.9562l5.199-6.4351h-5.2638v-1.6249h7.5884zm9.6465 9.4249c-0.2988 0-0.5418-0.2428-0.5418-0.5413v-8.8836h1.6262v9.4249h-1.0844zm5.8924-7.3827c2.0604 0 3.7301 1.6704 3.7301 3.7276 0 2.059-1.6697 3.7294-3.7301 3.7294s-3.7301-1.6704-3.7301-3.7294c0-2.0572 1.6697-3.7276 3.7301-3.7276zm-11.44 5.9259c1.2041 0 2.1799-0.97518 2.1799-2.1785 0-1.2016-0.9758-2.1767-2.1799-2.1767-1.2042 0-2.1799 0.97514-2.1799 2.1767 0 1.2033 0.9757 2.1785 2.1799 2.1785zm11.44-0.0037c1.2113 0 2.1942-0.98227 2.1942-2.1945 0-1.2105-0.9829-2.1926-2.1942-2.1926-1.213 0-2.1942 0.9821-2.1942 2.1926 0 1.2122 0.9812 2.1945 2.1942 2.1945z" clip-rule="evenodd" fill="#fff" fill-rule="evenodd"/>
</g>
<defs>
<clipPath id="a">
<rect x="5" y="3" width="27.778" height="10" fill="#fff"/>
</clipPath>
</defs>
</svg>
