<svg width="48" height="48" viewBox="0 0 48 48" fill="none" xmlns="http://www.w3.org/2000/svg">
<path d="M37.9995 14.4009L37.9996 45.7597H48L47.9999 14.4009H37.9995ZM41.565 20.1731H44.3775V22.9856H41.565V20.1731ZM44.3775 35.6813H41.565V32.8688H44.3775V35.6813ZM44.4164 29.3334H41.6039V26.5209H44.4164V29.3334Z" fill="url(#paint0_linear_1:22250)"/>
<path d="M38.0203 7.07959H48V11.5888H38.0203V7.07959Z" fill="url(#paint1_linear_1:22250)"/>
<path d="M0.0001875 4.44971L0 45.7599L10.047 45.7597L10.0472 7.30758L0.0001875 4.44971ZM3.61444 13.8342H6.42694V16.6467H3.61444V13.8342ZM6.42984 35.6902H3.61734V32.8777H6.42984V35.6902ZM6.42984 29.3424H3.61734V26.5299H6.42984V29.3424ZM6.44775 22.9945H3.63525V20.182H6.44775V22.9945Z" fill="url(#paint2_linear_1:22250)"/>
<path d="M19.7812 38.0254H22.5938V45.7598H19.7812V38.0254Z" fill="url(#paint3_linear_1:22250)"/>
<path d="M25.4062 38.0254H28.2188V45.7598H25.4062V38.0254Z" fill="url(#paint4_linear_1:22250)"/>
<path d="M13.1221 2.24023V45.7599H16.9686V35.2131H31.0311V45.7599H35.1843V2.24023H13.1221ZM19.7811 30.9943H16.9686V25.0177H19.7811V30.9943ZM19.7811 22.2052H16.9686V16.2287H19.7811V22.2052ZM19.7811 13.4162H16.9686V7.43961H19.7811V13.4162ZM25.4061 30.9943H22.5936V25.0177H25.4061V30.9943ZM25.4061 22.2052H22.5936V16.2287H25.4061V22.2052ZM25.4061 13.4162H22.5936V7.43961H25.4061V13.4162ZM31.0311 30.9943H28.2186V25.0177H31.0311V30.9943ZM31.0311 22.2052H28.2186V16.2287H31.0311V22.2052ZM31.0311 13.4162H28.2186V7.43961H31.0311V13.4162Z" fill="url(#paint5_linear_1:22250)"/>
<defs>
<linearGradient id="paint0_linear_1:22250" x1="37.9995" y1="53.5994" x2="50.1892" y2="52.6535" gradientUnits="userSpaceOnUse">
<stop stop-color="#0A3ECA"/>
<stop offset="0.961522" stop-color="#4B7CFF"/>
</linearGradient>
<linearGradient id="paint1_linear_1:22250" x1="38.0203" y1="12.7161" x2="47.5068" y2="7.60739" gradientUnits="userSpaceOnUse">
<stop stop-color="#0A3ECA"/>
<stop offset="0.961522" stop-color="#4B7CFF"/>
</linearGradient>
<linearGradient id="paint2_linear_1:22250" x1="4.8893e-08" y1="56.0874" x2="12.2773" y2="55.3609" gradientUnits="userSpaceOnUse">
<stop stop-color="#0A3ECA"/>
<stop offset="0.961522" stop-color="#4B7CFF"/>
</linearGradient>
<linearGradient id="paint3_linear_1:22250" x1="19.7813" y1="47.6934" x2="23.2033" y2="47.3906" gradientUnits="userSpaceOnUse">
<stop stop-color="#0A3ECA"/>
<stop offset="0.961522" stop-color="#4B7CFF"/>
</linearGradient>
<linearGradient id="paint4_linear_1:22250" x1="25.4063" y1="47.6934" x2="28.8283" y2="47.3906" gradientUnits="userSpaceOnUse">
<stop stop-color="#0A3ECA"/>
<stop offset="0.961522" stop-color="#4B7CFF"/>
</linearGradient>
<linearGradient id="paint5_linear_1:22250" x1="13.1221" y1="56.6398" x2="39.7702" y2="53.3528" gradientUnits="userSpaceOnUse">
<stop stop-color="#0A3ECA"/>
<stop offset="0.961522" stop-color="#4B7CFF"/>
</linearGradient>
</defs>
</svg>
