<svg width="40" height="40" viewBox="0 0 40 40" fill="none" xmlns="http://www.w3.org/2000/svg">
<path fill-rule="evenodd" clip-rule="evenodd" d="M20 40C31.0457 40 40 31.0457 40 20C40 8.9543 31.0457 0 20 0C8.9543 0 0 8.9543 0 20C0 31.0457 8.9543 40 20 40ZM20 30.6061C26.4433 30.6061 31.6667 25.6201 31.6667 19.4697C31.6667 13.3193 26.4433 8.33333 20 8.33333C13.5567 8.33333 8.33333 13.3193 8.33333 19.4697C8.33333 22.6387 9.72002 25.4985 11.9458 27.5265L11.8333 31.6667L15.6136 29.7922C16.9677 30.317 18.4485 30.6061 20 30.6061ZM23.6401 20.1021L23.6401 20.1035C23.6414 20.7363 23.6427 21.3691 23.6388 22.0018C23.6446 22.4366 23.3202 22.7979 22.9089 22.8102C22.8394 22.8102 22.7641 22.804 22.6946 22.7857C22.405 22.7061 22.1848 22.3815 22.1848 21.9957V17.1275C22.1848 17.0316 22.1842 16.9362 22.1835 16.8412V16.8404V16.8404V16.8403V16.8403C22.1823 16.6506 22.181 16.4617 22.1848 16.2702C22.1906 15.7987 22.4745 15.4925 22.9031 15.4925C23.3434 15.4864 23.6388 15.7926 23.6388 16.2825C23.6427 16.9195 23.6414 17.5593 23.6401 18.1982V18.2009V18.2016V18.2023V18.203C23.6394 18.5205 23.6388 18.8378 23.6388 19.1544C23.6388 19.4694 23.6394 19.7843 23.6401 20.0993L23.6401 20.1021ZM20.9148 17.6847C20.6773 17.7337 20.5325 17.9113 20.3935 18.1011C19.6694 17.4337 18.87 17.3908 18.0822 17.8868C17.1322 18.4747 16.7788 19.43 16.9005 20.5506C17.0163 21.5854 17.4392 22.4366 18.4703 22.7918C19.1133 23.0122 19.7099 22.9326 20.2371 22.4795C20.3761 22.3631 20.4166 22.3876 20.5151 22.5162C20.7063 22.7795 21.0365 22.8714 21.3261 22.755C21.6099 22.6632 21.8069 22.3815 21.8069 22.0631C21.8185 20.8384 21.8243 19.6137 21.8069 18.389C21.8011 17.8991 21.3724 17.5868 20.9148 17.6847ZM26.2122 17.5806C24.8219 17.6235 23.843 18.7992 23.8893 20.373C23.8661 21.9039 25.0652 23.0612 26.5771 22.902C27.9616 22.755 28.8594 21.6589 28.8131 20.1097C28.7668 18.5788 27.6893 17.5317 26.2122 17.5806ZM16.188 21.3221C15.6474 21.3181 15.1042 21.3194 14.5451 21.3207C14.2595 21.3214 13.9696 21.3221 13.6739 21.3221C13.7666 21.1874 13.8245 21.1078 13.8883 21.0282C14.6471 20.0178 15.4059 19.0013 16.1648 17.9787C16.3849 17.6786 16.605 17.3786 16.7441 17.0295C16.9005 16.6254 16.7325 16.2396 16.3386 16.0987C16.159 16.0498 15.9794 16.0253 15.7941 16.0314C14.7629 16.0253 13.7261 16.0253 12.695 16.0314C12.5501 16.0314 12.4053 16.0498 12.2663 16.0865C12.0462 16.1416 11.8724 16.3314 11.8203 16.5641C11.7449 16.9071 11.9477 17.2561 12.2779 17.3357C12.4169 17.3663 12.5617 17.3847 12.7065 17.3847C13.0193 17.3878 13.3336 17.3878 13.6479 17.3878H13.6482C13.9623 17.3878 14.2765 17.3878 14.5892 17.3908C14.6075 17.3924 14.6266 17.3902 14.6459 17.388C14.6998 17.3818 14.755 17.3754 14.7977 17.4521C14.7456 17.5194 14.6935 17.5929 14.6413 17.6663L14.6413 17.6663L14.6413 17.6663L14.6413 17.6664C13.7434 18.8666 12.8456 20.0729 11.9535 21.2731C11.7334 21.5732 11.6175 21.9039 11.7797 22.2713C11.9419 22.6387 12.2721 22.7122 12.6081 22.7306C12.8023 22.7437 12.9936 22.7412 13.1862 22.7387L13.1867 22.7387C13.2639 22.7377 13.3412 22.7367 13.419 22.7367C13.6538 22.7367 13.8882 22.7371 14.1225 22.7374H14.1229C14.8248 22.7386 15.525 22.7397 16.2285 22.7306C16.7267 22.7244 16.9931 22.3999 16.941 21.9161C16.8947 21.5303 16.6456 21.3283 16.188 21.3221ZM18.3428 20.3362C18.3544 20.6057 18.4355 20.8629 18.5861 21.0772C18.8989 21.5181 19.4956 21.6099 19.9185 21.2793C19.988 21.2242 20.0517 21.1568 20.1096 21.0772C20.434 20.6118 20.434 19.8464 20.1096 19.381C19.9474 19.1422 19.6926 19.0013 19.4203 18.9952C18.7831 18.9523 18.3371 19.4728 18.3428 20.3362ZM25.3433 20.226C25.3317 20.5322 25.4186 20.8323 25.5924 21.0833C25.911 21.5242 26.5076 21.6099 26.9247 21.267C26.9884 21.218 27.0405 21.1568 27.0927 21.0956C27.4286 20.6302 27.4286 19.8464 27.0985 19.381C26.9363 19.1483 26.6814 19.0013 26.4091 18.9952C25.7835 18.9584 25.3433 19.4606 25.3433 20.226Z" fill="white"/>
</svg>
