<svg width="40" height="40" viewBox="0 0 40 40" fill="none" xmlns="http://www.w3.org/2000/svg">
<path fill-rule="evenodd" clip-rule="evenodd" d="M20 0C8.95433 0 0 8.95433 0 20C0 31.0457 8.95433 40 20 40C31.0457 40 40 31.0457 40 20C40 8.95433 31.0457 0 20 0ZM19.97 21.6827L12.499 16.2596V27.6917H11.2508C10.5554 27.6917 10.0026 27.1389 10.0026 26.4435V13.8017C10.0026 13.7487 10.0059 13.6991 10.0121 13.6526C10.0347 13.4542 10.1071 13.2602 10.2345 13.0884C10.6446 12.5357 11.447 12.4108 12.0176 12.8209L19.9878 18.6159L28.0116 12.7497C28.5643 12.3395 29.3489 12.4643 29.759 13.0349C29.977 13.3287 30.0438 13.688 29.9729 14.0217V26.4613C29.9729 27.1389 29.4201 27.6917 28.7248 27.6917H27.4766V16.2323L19.97 21.6827Z" fill="white"/>
</svg>
