<svg xmlns="http://www.w3.org/2000/svg" width="64" height="64" viewBox="0 0 64 64" fill="none">
  <path d="M41.887 39.087L37.323 44.787C30.2554 40.6336 24.3649 34.7451 20.209 27.679L25.914 23.115C26.5825 22.5797 27.055 21.838 27.2576 21.0058C27.4602 20.1736 27.3816 19.2978 27.034 18.515L21.834 6.805C21.4611 5.96494 20.8019 5.28462 19.9741 4.88534C19.1463 4.48607 18.2035 4.39381 17.314 4.625L7.41395 7.193C6.4904 7.43441 5.68746 8.00616 5.15723 8.79994C4.627 9.59372 4.4063 10.5544 4.53695 11.5C6.27424 23.8713 11.9919 35.3407 20.8256 44.1744C29.6592 53.0081 41.1286 58.7257 53.5 60.463C54.4456 60.5937 55.4062 60.373 56.2 59.8427C56.9938 59.3125 57.5655 58.5096 57.807 57.586L60.375 47.686C60.6056 46.7966 60.5132 45.8542 60.1142 45.0265C59.7152 44.1988 59.0354 43.5395 58.196 43.166L46.487 37.966C45.7042 37.6179 44.8281 37.5392 43.9958 37.742C43.1635 37.9448 42.4218 38.4178 41.887 39.087V39.087Z" stroke="#FC7513" stroke-width="4" stroke-miterlimit="10" stroke-linecap="square"></path>
  <path d="M35.5 5.5C41.8652 5.5 47.9697 8.02856 52.4706 12.5294C56.9714 17.0303 59.5 23.1348 59.5 29.5" stroke="#FC7513" stroke-width="4" stroke-miterlimit="10" stroke-linecap="square"></path>
  <path d="M47.5 29.5C47.5 26.3174 46.2357 23.2652 43.9853 21.0147C41.7348 18.7643 38.6826 17.5 35.5 17.5" stroke="#FC7513" stroke-width="4" stroke-miterlimit="10" stroke-linecap="square"></path>
  <rect width="64" height="64" stroke="white"></rect>
</svg>