<?xml version="1.0" encoding="UTF-8"?>
<svg fill="none" viewBox="0 0 80 80" xmlns="http://www.w3.org/2000/svg">
<g clip-path="url(#b)">
<path d="m70.625 61.25c-1.5369 0-2.9877 0.3741-4.2688 1.0327l-6.9898-6.9897c3.3301-4.2078 5.3211-9.5221 5.3211-15.293 0-5.6823-1.9306-10.922-5.1697-15.098l7.0679-7.0679c1.2237 0.5866 2.5939 0.9162 4.0393 0.9162 5.1696 0 9.3749-4.2054 9.3749-9.375 0-5.1691-4.2053-9.375-9.3749-9.375-5.1697 0-9.375 4.2059-9.375 9.375 0 1.4453 0.3296 2.8155 0.9161 4.0393l-7.0672 7.0678c-4.1773-3.2385-9.4165-5.1696-15.099-5.1696-5.7708 0-11.085 1.9909-15.293 5.321l-6.9898-6.9891c0.6586-1.2818 1.0328-2.7319 1.0328-4.2694 0-5.1691-4.2054-9.375-9.375-9.375-5.1697 0-9.375 4.2059-9.375 9.375 0 5.1696 4.2053 9.375 9.375 9.375 1.3525 0 2.6385-0.2906 3.8012-0.8081l7.1552 7.1557c-3.1476 4.1443-5.0189 9.3085-5.0189 14.902 0 5.6824 1.9305 10.922 5.1696 15.098l-7.0678 7.0678c-1.2238-0.5865-2.594-0.9161-4.0393-0.9161-5.1697 0-9.375 4.2059-9.375 9.375 0 5.1696 4.2053 9.3749 9.375 9.3749 5.1696 0 9.375-4.2053 9.375-9.3749 0-1.4454-0.3296-2.8156-0.9162-4.0393l7.0679-7.0679c4.1766 3.2385 9.4159 5.1697 15.098 5.1697 5.5939 0 10.759-1.8714 14.903-5.0189l7.1552 7.1551c-0.5176 1.1627-0.8081 2.4487-0.8081 3.8013 0 5.1696 4.2053 9.3749 9.375 9.3749 5.1696 0 9.3749-4.2053 9.3749-9.3749 0-5.1691-4.2053-9.375-9.3749-9.375zm0-55c1.723 0 3.125 1.402 3.125 3.125s-1.402 3.125-3.125 3.125c-1.7231 0-3.125-1.402-3.125-3.125s1.4019-3.125 3.125-3.125zm-12.188 33.75c0 4.5673-1.6699 8.7512-4.4305 11.976-1.2854-2.7563-3.3612-5.0732-5.9345-6.6571 1.4008-1.7608 2.24-3.9862 2.24-6.4056 0-5.6866-4.6258-10.312-10.312-10.312-5.6866 0-10.312 4.6259-10.312 10.312 0 2.4194 0.8393 4.6448 2.24 6.4056-2.5732 1.5839-4.6484 3.9002-5.9344 6.6565-2.7606-3.2239-4.4305-7.4078-4.4305-11.975 0-10.167 8.2708-18.437 18.437-18.437s18.438 8.2708 18.438 18.437zm-18.438 2.9755c-2.24 0-4.0625-1.8225-4.0625-4.0625s1.8225-4.0625 4.0625-4.0625 4.0625 1.8225 4.0625 4.0625-1.8225 4.0625-4.0625 4.0625zm-30.625-30.475c-1.723 0-3.125-1.402-3.125-3.125s1.402-3.125 3.125-3.125 3.125 1.402 3.125 3.125-1.402 3.125-3.125 3.125zm0 61.25c-1.723 0-3.125-1.402-3.125-3.125 0-1.7231 1.402-3.125 3.125-3.125s3.125 1.4019 3.125 3.125c0 1.723-1.402 3.125-3.125 3.125zm21.73-17.604c1.037-3.9428 4.6313-6.8597 8.8946-6.8597s7.8583 2.9169 8.8947 6.8597c-2.6392 1.4594-5.6714 2.2919-8.8947 2.2919-3.2232 0-6.2555-0.8325-8.8946-2.2919zm39.52 17.604c-1.7231 0-3.125-1.402-3.125-3.125 0-1.7231 1.4019-3.125 3.125-3.125 1.723 0 3.125 1.4019 3.125 3.125 0 1.723-1.402 3.125-3.125 3.125z" fill="url(#a)"/>
</g>
<defs>
<linearGradient id="a" x1="3.8931e-7" x2="92.616" y1="100" y2="77.464" gradientUnits="userSpaceOnUse">
<stop stop-color="#0A3ECA" offset="0"/>
<stop stop-color="#4B7CFF" offset=".96152"/>
</linearGradient>
<clipPath id="b">
<rect width="80" height="80" fill="#fff"/>
</clipPath>
</defs>
</svg>
