<?xml version="1.0" encoding="UTF-8"?>
<svg fill="none" viewBox="0 0 80 80" xmlns="http://www.w3.org/2000/svg">
<path d="m70.625 3.125h-61.25c-5.1697 0-9.375 4.2053-9.375 9.375v55c0 5.1697 4.2053 9.375 9.375 9.375h61.25c5.1697 0 9.375-4.2053 9.375-9.375v-55c0-5.1697-4.2053-9.375-9.375-9.375zm-61.25 6.25h61.25c1.723 0 3.125 1.402 3.125 3.125v9.375h-67.5v-9.375c0-1.723 1.402-3.125 3.125-3.125zm61.25 61.25h-61.25c-1.723 0-3.125-1.402-3.125-3.125v-39.375h67.5v39.375c0 1.723-1.402 3.125-3.125 3.125zm-59.688-55c0-1.7261 1.3989-3.125 3.125-3.125s3.125 1.3989 3.125 3.125-1.3989 3.125-3.125 3.125-3.125-1.3989-3.125-3.125zm10.938 0c0-1.7261 1.3989-3.125 3.125-3.125s3.125 1.3989 3.125 3.125-1.3989 3.125-3.125 3.125-3.125-1.3989-3.125-3.125zm31.599 28.332 11.584 11.585-11.584 11.584-4.4195-4.4196 3.9569-3.9569h-18.949v-6.25h19.116l-4.1235-4.1235 4.4195-4.4196zm-27.992 2.2931 3.9673 3.9673-4.4196 4.4195-11.584-11.585 11.584-11.584 4.4196 4.4195-4.1132 4.1132h19.039v6.25h-18.893z" fill="url(#a)"/>
<defs>
<linearGradient id="a" x1="3.8931e-7" x2="91.71" y1="95.312" y2="71.106" gradientUnits="userSpaceOnUse">
<stop stop-color="#0A3ECA" offset="0"/>
<stop stop-color="#4B7CFF" offset=".96152"/>
</linearGradient>
</defs>
</svg>
