<?xml version="1.0" encoding="UTF-8"?>
<svg fill="none" viewBox="0 0 160 160" xmlns="http://www.w3.org/2000/svg">
<path d="m94.394 0c-36.176 0-65.607 29.431-65.607 65.607 0 15.843 5.645 30.392 15.029 41.741l-43.815 43.816 8.8366 8.836 43.815-43.815c11.35 9.384 25.899 15.029 41.742 15.029 36.176 0 65.607-29.432 65.607-65.607 0-36.175-29.431-65.607-65.606-65.607zm0 118.72c-29.285 0-53.11-23.825-53.11-53.11 0-29.285 23.825-53.11 53.11-53.11 29.285 0 53.11 23.825 53.11 53.11s-23.825 53.11-53.11 53.11zm19.057-40.499c0 5.0381-1.994 9.824-5.614 13.476-2.079 2.0979-4.533 3.6547-7.195 4.6063v9.6075h-12.497v-9.6225c-7.3688-2.6734-12.809-9.8994-12.809-18.14h12.497c0 3.594 3.0515 6.7469 6.5303 6.7469 3.5109 0 6.591-3.1191 6.591-6.6747 0-2.7132-2.9813-4.5638-9.3101-7.8622l-0.1693-0.0882c-5.4516-2.8415-14.577-7.5981-14.577-19.246 0-6.9685 4.5922-13.114 10.934-15.686v-10.342h12.497v10.106c6.559 2.3832 11.247 8.5766 11.247 15.824h-12.497c0-2.3709-2.1597-4.3737-4.7166-4.3737-2.6003 0-4.9685 2.1315-4.9685 4.4719 0 3.4809 1.9616 5.0912 7.8566 8.1644l0.1685 0.0878c3.4717 1.8093 7.0617 3.6806 9.9937 6.2634 4.006 3.5291 6.038 7.7953 6.038 12.68z" fill="url(#a)"/>
<defs>
<linearGradient id="a" x1="7.7861e-7" x2="185.23" y1="200" y2="154.93" gradientUnits="userSpaceOnUse">
<stop stop-color="#0A3ECA" offset="0"/>
<stop stop-color="#4B7CFF" offset=".96152"/>
</linearGradient>
</defs>
</svg>
