<svg width="32" height="32" viewBox="0 0 32 32" fill="none" xmlns="http://www.w3.org/2000/svg">
<path d="M31 0H1C0.448 0 0 0.448 0 1V23C0 23.552 0.448 24 1 24H16V20H7.953V19C7.953 17.29 6.663 16 4.953 16H3.953V8H4.953C6.663 8 7.953 6.71 7.953 5V4H23.953V5C23.953 6.71 25.243 8 26.953 8H27.953V14.239C29.591 14.516 30.974 15.023 32 15.713V1C32 0.448 31.552 0 31 0Z" fill="#0A3ECA"/>
<path d="M22.049 6H9.857C9.469 7.986 7.939 9.516 5.953 9.904V14.095C7.939 14.484 9.469 16.014 9.857 18H16.07C16.6 15.716 20.344 14 24.999 14C25.324 14 25.64 14.011 25.952 14.026V9.904C23.967 9.516 22.437 7.986 22.049 6ZM16 14C14.895 14 14 13.105 14 12C14 10.895 14.895 10 16 10C17.105 10 18 10.895 18 12C18 13.105 17.105 14 16 14Z" fill="#0A3ECA"/>
<path d="M25 24C22.049 24 19.597 23.361 18 22.288V24C18 25.657 21.134 27 25 27C28.866 27 32 25.657 32 24V22.288C30.403 23.361 27.951 24 25 24Z" fill="#0A3ECA"/>
<path d="M25 29C22.049 29 19.597 28.361 18 27.288V29C18 30.657 21.134 32 25 32C28.866 32 32 30.657 32 29V27.288C30.403 28.361 27.951 29 25 29Z" fill="#0A3ECA"/>
<path d="M25 22C28.866 22 32 20.6569 32 19C32 17.3431 28.866 16 25 16C21.134 16 18 17.3431 18 19C18 20.6569 21.134 22 25 22Z" fill="#0A3ECA"/>
</svg>
