<svg width="20" height="20" viewBox="0 0 20 20" fill="none"
  xmlns="http://www.w3.org/2000/svg">
  <g clip-path="url(#reg2)">
    <path d="M17.9567 13.8017L14.0334 11.4375C15.0509 10.24 15.6942 8.5425 15.8134 6.52167C16.0017 3.32917 13.6725 0.278336 10.485 0.0200031C7.05087 -0.259164 4.16671 2.45667 4.16671 5.83334C4.16671 8.1575 4.83587 10.1067 5.96671 11.4383L2.04671 13.8C1.29337 14.2533 0.833374 15.0683 0.833374 15.9475V19.1667C0.833374 19.6267 1.20671 20 1.66671 20H7.50004L9.16671 14.1667H10.8334L12.5 20H18.3334C18.7934 20 19.1667 19.6267 19.1667 19.1667V15.9442C19.1667 15.0675 18.7075 14.2542 17.9567 13.8017ZM10 11.6667C7.75837 11.6667 6.13837 9.66 5.87504 6.69334C6.13754 6.7275 6.39837 6.75417 6.65421 6.75417C8.18921 6.75417 9.64254 6.23917 10.8209 5.29C11.7742 6.05667 12.9109 6.535 14.1242 6.69167C13.8617 9.65917 12.2425 11.6667 10 11.6667Z" fill="#76809A"></path>
  </g>
  <defs>
    <clipPath id="reg2">
      <rect width="20" height="20" fill="white"></rect>
    </clipPath>
  </defs>
</svg>