<?xml version="1.0" encoding="UTF-8"?>
<svg fill="none" viewBox="0 0 12 12" xmlns="http://www.w3.org/2000/svg">
<g clip-path="url(#a)">
<path d="m10.293 3.293-4.293 4.293-4.293-4.293c-0.1886-0.18216-0.44121-0.28295-0.7034-0.28067-0.2622 0.00227-0.51301 0.10744-0.69842 0.29285s-0.29058 0.43622-0.29286 0.69842c-0.0022784 0.26219 0.098516 0.5148 0.28067 0.7034l5 5c0.18753 0.18747 0.44184 0.29278 0.707 0.29278s0.51947-0.10531 0.707-0.29278l5-5c0.0955-0.09225 0.1717-0.20259 0.2241-0.3246 0.0524-0.122 0.08-0.25322 0.0812-0.386 0.0011-0.13278-0.0242-0.26446-0.0745-0.38736-0.0502-0.12289-0.1245-0.23454-0.2184-0.32844-0.0939-0.09389-0.2055-0.16814-0.3284-0.21842s-0.2546-0.07559-0.3874-0.07443c-0.1328 0.00115-0.264 0.02874-0.386 0.08115s-0.2323 0.12859-0.3246 0.2241z" fill="#FC7513"/>
</g>
<defs>
<clipPath id="a">
<path d="M0 0H12V12H0V0Z" fill="#fff"/>
</clipPath>
</defs>
</svg>
