<?xml version="1.0" encoding="UTF-8"?>
<svg fill="none" viewBox="0 0 160 160" xmlns="http://www.w3.org/2000/svg">
<path d="m136.54 103.37c-8.708-8.7084-19.074-15.155-30.383-19.058 12.113-8.3425 20.07-22.304 20.07-38.092 0-25.488-20.736-46.224-46.224-46.224-25.488 0-46.224 20.736-46.224 46.224 0 15.788 7.9579 29.749 20.071 38.092-11.309 3.9021-21.675 10.349-30.384 19.058-15.102 15.102-23.419 35.18-23.419 56.537h12.493c0-34.645 26.252-63.269 59.907-67.037l-11.852 47.717 19.407 19.409 19.405-19.41-11.851-47.716c33.655 3.7684 59.907 32.392 59.907 67.037h12.493c0-21.357-8.317-41.436-23.418-56.537zm-90.268-57.15c0-18.599 15.131-33.731 33.731-33.731s33.731 15.132 33.731 33.731-15.131 33.731-33.731 33.731-33.731-15.132-33.731-33.731zm33.731 96.107-5.58-5.581 5.58-22.466 5.5794 22.466-5.5794 5.581z" fill="url(#a)"/>
<defs>
<linearGradient id="a" x1=".044678" x2="185.18" y1="200" y2="154.98" gradientUnits="userSpaceOnUse">
<stop stop-color="#0A3ECA" offset="0"/>
<stop stop-color="#4B7CFF" offset=".96152"/>
</linearGradient>
</defs>
</svg>
