<?xml version="1.0" encoding="UTF-8"?>
<svg viewBox="0 0 16 16" xmlns="http://www.w3.org/2000/svg">
<path d="m15.285 12.305-2.578-2.594c-0.39-0.393-1.025-0.393-1.416-2e-3l-2.291 2.291-5-5 2.294-2.294c0.39-0.39 0.391-1.023 1e-3 -1.414l-2.58-2.584c-0.391-0.391-1.024-0.391-1.415 0l-2.296 2.295-4e-3 -3e-3c0 7.18 5.82 13 13 13l2.283-2.283c0.39-0.39 0.391-1.021 2e-3 -1.412z" fill="#FC7513"/>
<path d="m16 8h-2c0-3.309-2.691-6-6-6v-2c4.411 0 8 3.589 8 8z" fill="#FC7513"/>
<path d="m12 8h-2c0-1.103-0.897-2-2-2v-2c2.206 0 4 1.794 4 4z" fill="#FC7513"/>
</svg>
