<?xml version="1.0" encoding="UTF-8"?>
<svg fill="none" viewBox="0 0 160 160" xmlns="http://www.w3.org/2000/svg">
<g clip-path="url(#b)">
<path d="m62.162 106.28c0 1.655 0.8191 3.202 2.19 4.137 1.6613 1.131 3.0676 1.711 3.6059 1.826 2.4268 0.355 30.234 3.328 48.468 5.254l-1.313 12.43c-14.204-1.5-47.449-5.028-49.375-5.382-3.396-0.625-6.7359-2.649-8.4241-3.799-1.6089-1.097-2.9944-2.439-4.1321-3.952l-0.0574 0.058-29.995-29.434c-1.1914-1.1707-2.7673-1.803-4.436-1.7896-1.6687 0.0159-3.2324 0.6799-4.4019 1.8713-1.1694 1.1927-1.8042 2.7674-1.7895 4.4373 0.0158 1.6687 0.6811 3.2324 1.8725 4.4018l46.387 45.522c3.7061 3.64 8.6097 5.643 13.804 5.643h85.437v12.5h-85.437c-8.49 0-16.502-3.275-22.56-9.221l-46.385-45.521c-3.5754-3.509-5.5701-8.1987-5.6165-13.207-0.047608-5.0073 1.8591-9.7339 5.3662-13.308 3.5083-3.5755 8.1982-5.5701 13.207-5.6165 5-0.0451 9.7339 1.8579 13.309 5.3662l19.867 19.498c1.6088-2.9785 4.0539-5.4394 7.0202-7.0666-12.157-9.2554-20.021-23.876-20.021-40.299 0-27.915 22.71-50.625 50.625-50.625 10.15 0 19.61 3.0054 27.543 8.169l-8.766 9.2858c-5.546-3.1518-11.955-4.9548-18.777-4.9548-21.022 0-38.125 17.103-38.125 38.125s17.103 38.125 38.125 38.125c20.696 0 37.593-16.576 38.113-37.15l11.305-11.975c0.788 3.5425 1.207 7.2229 1.207 11 0 15.664-7.152 29.689-18.362 38.982 11.469 1.742 22.346 6.1499 31.906 12.991l6.456 4.619v15.371l-13.731-9.824c-10.297-7.37-22.432-11.346-35.094-11.498-0.257-4e-3 -0.511-6e-3 -0.774-5e-3l-43.238 0.017c-2.7601-1e-3 -5.0025 2.243-5.0025 4.999zm9.9585-68.964-8.6133 9.0589 27.262 25.917 50.652-53.656-9.09-8.5803-42.041 44.534-18.17-17.273z" fill="url(#a)"/>
</g>
<defs>
<linearGradient id="a" x1=".0012215" x2="185.23" y1="200" y2="154.93" gradientUnits="userSpaceOnUse">
<stop stop-color="#0A3ECA" offset="0"/>
<stop stop-color="#4B7CFF" offset=".96152"/>
</linearGradient>
<clipPath id="b">
<rect width="160" height="160" fill="#fff"/>
</clipPath>
</defs>
</svg>
