<svg width="20" height="20" viewBox="0 0 20 20" fill="none"
  xmlns="http://www.w3.org/2000/svg">
  <path d="M10 0C4.48583 0 0 4.48583 0 10C0 15.5142 4.48583 20 10 20C15.5142 20 20 15.5142 20 10C20 4.48583 15.5142 0 10 0ZM6.66667 8.33333C6.66667 6.4925 8.20333 5 10 5C11.7967 5 13.3333 6.4925 13.3333 8.33333V9.16667C13.3333 11.0075 11.7967 12.5 10 12.5C8.20333 12.5 6.66667 11.0075 6.66667 9.16667V8.33333ZM10 18.3333C7.9725 18.3333 6.1125 17.6033 4.66583 16.395C5.365 15.0758 6.73583 14.1667 8.33333 14.1667H11.6667C13.2642 14.1667 14.635 15.0758 15.3342 16.395C13.8875 17.6033 12.0275 18.3333 10 18.3333Z" fill="#76809A"></path>
</svg>