<svg width="20" height="20" viewBox="0 0 20 20" fill="none"
  xmlns="http://www.w3.org/2000/svg">
  <path d="M7.50004 10C5.20004 10 3.33337 7.30083 3.33337 5V4.16667C3.33337 3.0616 3.77236 2.00179 4.55376 1.22039C5.33516 0.438987 6.39497 0 7.50004 0V0C8.04721 0 8.58903 0.107774 9.09455 0.317169C9.60008 0.526563 10.0594 0.833478 10.4463 1.22039C10.8332 1.6073 11.1401 2.06663 11.3495 2.57215C11.5589 3.07768 11.6667 3.61949 11.6667 4.16667V5C11.6667 7.30083 9.80171 10 7.50004 10Z" fill="#76809A"></path>
  <path d="M10 15.8333C9.99805 14.4738 10.4731 13.1568 11.3425 12.1116C10.082 11.8223 8.79332 11.6731 7.50001 11.6666C5.52215 11.6858 3.5601 12.0214 1.68834 12.6608C1.19477 12.8286 0.766324 13.1472 0.463418 13.5715C0.160512 13.9958 -0.00157461 14.5045 1.1531e-05 15.0258V18.3333H10.5692C10.1954 17.5528 10.0009 16.6986 10 15.8333Z" fill="#76809A"></path>
  <path d="M15.8333 12.5V15H12.5V16.6667H15.8333V19.1667L20 15.8333L15.8333 12.5Z" fill="#76809A"></path>
</svg>