<svg width="43" height="42" viewBox="0 0 43 42" fill="none" xmlns="http://www.w3.org/2000/svg">
<path d="M21.5 3.5C11.8575 3.5 4 11.3575 4 21C4 30.6425 11.8575 38.5 21.5 38.5C31.1425 38.5 39 30.6425 39 21C39 11.3575 31.1425 3.5 21.5 3.5ZM29.1125 27.2475C28.8675 27.6675 28.43 27.895 27.975 27.895C27.7475 27.895 27.52 27.8425 27.31 27.7025L21.885 24.465C20.5375 23.66 19.54 21.8925 19.54 20.335V13.16C19.54 12.4425 20.135 11.8475 20.8525 11.8475C21.57 11.8475 22.165 12.4425 22.165 13.16V20.335C22.165 20.965 22.69 21.8925 23.2325 22.2075L28.6575 25.445C29.2875 25.8125 29.4975 26.6175 29.1125 27.2475Z" fill="#AEB8D0"/>
</svg>
