<svg width="24" height="24" viewBox="0 0 24 24" fill="none" xmlns="http://www.w3.org/2000/svg">
<path d="M24 12C24 18.6275 18.6275 24 12 24C5.3725 24 0 18.6275 0 12C0 5.3725 5.3725 0 12 0C18.6275 0 24 5.3725 24 12Z" fill="#FF6C0E"/>
<path d="M13.641 17.6248H5.71561C5.46549 17.6248 5.31479 17.4853 5.24705 17.4022C5.13004 17.2584 5.08481 17.0709 5.1229 16.8882C5.78538 13.7056 8.59385 11.3815 11.8361 11.3053C11.8905 11.3073 11.945 11.3088 12 11.3088C12.0536 11.3088 12.1069 11.3073 12.16 11.3055C13.1568 11.3275 14.1156 11.5536 15.0119 11.9797C15.3625 12.1465 15.782 11.9973 15.9486 11.6466C16.1155 11.296 15.9662 10.8765 15.6156 10.7098C15.3308 10.5743 15.0408 10.4559 14.7462 10.3541C15.7745 9.54089 16.4357 8.28278 16.4357 6.87305C16.4357 4.42731 14.4459 2.4375 12 2.4375C9.55424 2.4375 7.56443 4.42731 7.56443 6.87305C7.56443 8.28442 8.22709 9.54401 9.2576 10.357C8.31315 10.6818 7.42673 11.1729 6.64744 11.8138C5.16556 13.0329 4.13523 14.7332 3.74613 16.6016C3.62144 17.2006 3.77085 17.8158 4.1561 18.2895C4.53934 18.7608 5.10789 19.0312 5.71561 19.0312H13.641C14.0293 19.0312 14.3441 18.7163 14.3441 18.3281C14.3441 17.9398 14.0293 17.6248 13.641 17.6248ZM8.9705 6.87305C8.9705 5.20258 10.3295 3.84357 12 3.84357C13.6704 3.84357 15.0295 5.20258 15.0295 6.87305C15.0295 8.49719 13.7444 9.82672 12.1377 9.89905C12.0917 9.89832 12.0459 9.89703 12 9.89703C11.9507 9.89703 11.9015 9.89777 11.8524 9.89868C10.2502 9.82141 8.9705 8.4939 8.9705 6.87305Z" fill="white"/>
<path d="M19.5941 15.2102H17.8839V13.5C17.8839 13.1118 17.5691 12.7969 17.1807 12.7969C16.7925 12.7969 16.4776 13.1118 16.4776 13.5V15.2102H14.7676C14.3792 15.2102 14.0645 15.525 14.0645 15.9133C14.0645 16.3017 14.3792 16.6165 14.7676 16.6165H16.4776V18.3265C16.4776 18.7148 16.7925 19.0296 17.1807 19.0296C17.5691 19.0296 17.8839 18.7148 17.8839 18.3265V16.6165H19.5941C19.9824 16.6165 20.2972 16.3017 20.2972 15.9133C20.2972 15.525 19.9824 15.2102 19.5941 15.2102Z" fill="white"/>
</svg>
