<svg width="28" height="29" viewBox="0 0 28 29" fill="none" xmlns="http://www.w3.org/2000/svg">
<path d="M4.30763 0.460938C2.03037 0.460938 0.153809 2.3375 0.153809 4.61476V18.4608C0.153809 20.7381 2.03037 22.6147 4.30763 22.6147H9.15376L12.8911 27.5987C13.0201 27.7711 13.1874 27.911 13.3799 28.0074C13.5724 28.1037 13.7846 28.1539 13.9999 28.1539C14.2151 28.1539 14.4274 28.1037 14.6199 28.0074C14.8124 27.911 14.9797 27.7711 15.1087 27.5987L18.846 22.6147H23.6922C25.9694 22.6147 27.846 20.7381 27.846 18.4608V4.61476C27.846 2.3375 25.9694 0.460938 23.6922 0.460938H4.30763ZM4.30763 3.23015H23.6922C24.4832 3.23015 25.0768 3.82374 25.0768 4.61476V18.4608C25.0768 19.2519 24.4832 19.8455 23.6922 19.8455H18.1537C17.9385 19.8454 17.7263 19.8954 17.5338 19.9917C17.3414 20.0879 17.174 20.2276 17.045 20.3998L13.9999 24.459L10.9548 20.3998C10.8258 20.2276 10.6584 20.0879 10.466 19.9917C10.2735 19.8954 10.0612 19.8454 9.84607 19.8455H4.30763C3.51661 19.8455 2.92303 19.2519 2.92303 18.4608V4.61476C2.92303 3.82374 3.51661 3.23015 4.30763 3.23015Z" fill="white"/>
<path d="M9.84586 11.537C9.84586 11.7188 9.81005 11.8988 9.74047 12.0668C9.67089 12.2348 9.5689 12.3874 9.44033 12.516C9.31176 12.6446 9.15912 12.7466 8.99113 12.8162C8.82315 12.8858 8.6431 12.9216 8.46127 12.9216C8.27944 12.9216 8.09939 12.8858 7.9314 12.8162C7.76341 12.7466 7.61077 12.6446 7.4822 12.516C7.35363 12.3874 7.25164 12.2348 7.18206 12.0668C7.11247 11.8988 7.07666 11.7188 7.07666 11.537C7.07666 11.3551 7.11248 11.1751 7.18206 11.0071C7.25164 10.8391 7.35363 10.6865 7.4822 10.5579C7.61078 10.4293 7.76342 10.3273 7.9314 10.2577C8.09939 10.1881 8.27944 10.1523 8.46127 10.1523C8.82848 10.1523 9.18066 10.2982 9.44032 10.5579C9.69998 10.8176 9.84586 11.1697 9.84586 11.537Z" fill="white"/>
<path d="M15.3844 11.537C15.3844 11.7188 15.3486 11.8988 15.279 12.0668C15.2095 12.2348 15.1075 12.3874 14.9789 12.516C14.8503 12.6446 14.6977 12.7466 14.5297 12.8162C14.3617 12.8858 14.1817 12.9216 13.9998 12.9216C13.818 12.9216 13.638 12.8858 13.47 12.8162C13.302 12.7466 13.1493 12.6446 13.0208 12.516C12.8922 12.3874 12.7902 12.2348 12.7206 12.0668C12.651 11.8988 12.6152 11.7188 12.6152 11.537C12.6152 11.3551 12.6511 11.1751 12.7206 11.0071C12.7902 10.8391 12.8922 10.6865 13.0208 10.5579C13.1494 10.4293 13.302 10.3273 13.47 10.2577C13.638 10.1881 13.818 10.1523 13.9998 10.1523C14.3671 10.1523 14.7192 10.2982 14.9789 10.5579C15.2386 10.8176 15.3844 11.1697 15.3844 11.537Z" fill="white"/>
<path d="M20.923 11.537C20.923 11.7188 20.8872 11.8988 20.8176 12.0668C20.748 12.2348 20.646 12.3874 20.5175 12.516C20.3889 12.6446 20.2363 12.7466 20.0683 12.8162C19.9003 12.8858 19.7202 12.9216 19.5384 12.9216C19.3566 12.9216 19.1765 12.8858 19.0085 12.8162C18.8406 12.7466 18.6879 12.6446 18.5593 12.516C18.4308 12.3874 18.3288 12.2348 18.2592 12.0668C18.1896 11.8988 18.1538 11.7188 18.1538 11.537C18.1538 11.1697 18.2997 10.8176 18.5593 10.5579C18.819 10.2982 19.1712 10.1523 19.5384 10.1523C19.7202 10.1523 19.9003 10.1881 20.0683 10.2577C20.2363 10.3273 20.3889 10.4293 20.5175 10.5579C20.646 10.6865 20.748 10.8391 20.8176 11.0071C20.8872 11.1751 20.923 11.3551 20.923 11.537Z" fill="white"/>
</svg>
