<svg width="48" height="48" viewBox="0 0 48 48" fill="none" xmlns="http://www.w3.org/2000/svg">
<path d="M40.0333 10.4216C39.6182 10.4216 39.2818 10.7581 39.2818 11.1732V45.7452C39.2818 46.1597 38.9446 46.4968 38.5302 46.4968H9.46963C9.05516 46.4968 8.71803 46.1597 8.71803 45.7452V39.2317C8.71803 38.8166 8.38156 38.4801 7.96644 38.4801C7.55131 38.4801 7.21484 38.8165 7.21484 39.2317V45.7452C7.21484 46.9885 8.22622 47.9999 9.46953 47.9999H38.5303C39.7735 47.9999 40.7849 46.9885 40.7849 45.7452V11.1732C40.7849 10.7581 40.4485 10.4216 40.0333 10.4216Z" fill="#064DD6"/>
<path d="M38.5302 0H9.46953C8.22631 0 7.21484 1.01137 7.21484 2.25469V34.4217C7.21484 34.8368 7.55131 35.1733 7.96644 35.1733C8.38156 35.1733 8.71803 34.8368 8.71803 34.4217V2.25469C8.71803 1.84022 9.05516 1.50309 9.46962 1.50309H38.5302C38.9446 1.50309 39.2817 1.84022 39.2817 2.25469V7.16494C39.2817 7.57997 39.6181 7.91653 40.0333 7.91653C40.4485 7.91653 40.7849 7.58006 40.7849 7.16494V2.25469C40.7848 1.01137 39.7733 0 38.5302 0Z" fill="#064DD6"/>
<path d="M36.8268 3.20679H11.1735C10.7584 3.20679 10.4219 3.54326 10.4219 3.95838V19.1901C10.4219 19.6052 10.7583 19.9417 11.1735 19.9417H36.8269C37.2421 19.9417 37.5785 19.6053 37.5785 19.1901V3.95829C37.5784 3.54326 37.2421 3.20679 36.8268 3.20679ZM36.0753 18.4384H11.925V4.70988H36.0752V18.4384H36.0753Z" fill="#064DD6"/>
<path d="M36.8265 21.645H25.6032C25.188 21.645 24.8516 21.9815 24.8516 22.3966V32.0167C24.8516 32.4317 25.1879 32.7683 25.6032 32.7683H36.8265C37.2417 32.7683 37.5781 32.4318 37.5781 32.0167V22.3966C37.5781 21.9815 37.2417 21.645 36.8265 21.645ZM36.075 31.2651H26.3547V23.1482H36.075V31.2651Z" fill="#064DD6"/>
<path d="M22.3968 21.645H11.1735C10.7584 21.645 10.4219 21.9815 10.4219 22.3966V32.0167C10.4219 32.4317 10.7583 32.7683 11.1735 32.7683H22.3968C22.8119 32.7683 23.1484 32.4318 23.1484 32.0167V22.3966C23.1483 21.9815 22.8119 21.645 22.3968 21.645ZM21.6452 31.2651H11.925V23.1482H21.6452V31.2651Z" fill="#FF6C0E"/>
<path d="M36.8265 33.6702H25.6032C25.188 33.6702 24.8516 34.0066 24.8516 34.4218V44.0418C24.8516 44.4569 25.1879 44.7934 25.6032 44.7934H36.8265C37.2417 44.7934 37.5781 44.4569 37.5781 44.0418V34.4218C37.5781 34.0067 37.2417 33.6702 36.8265 33.6702ZM36.075 43.2902H26.3547V35.1734H36.075V43.2902Z" fill="#FF6C0E"/>
<path d="M22.3968 33.6702H11.1735C10.7584 33.6702 10.4219 34.0066 10.4219 34.4218V44.0418C10.4219 44.4569 10.7583 44.7934 11.1735 44.7934H22.3968C22.8119 44.7934 23.1484 44.4569 23.1484 44.0418V34.4218C23.1483 34.0067 22.8119 33.6702 22.3968 33.6702ZM21.6452 43.2902H11.925V35.1734H21.6452V43.2902Z" fill="#064DD6"/>
<path d="M19.1901 26.4551H17.5367V24.8016C17.5367 24.3866 17.2002 24.05 16.7851 24.05C16.3699 24.05 16.0335 24.3865 16.0335 24.8016V26.4551H14.38C13.965 26.4551 13.6284 26.7916 13.6284 27.2067C13.6284 27.6218 13.9649 27.9583 14.38 27.9583H16.0335V29.6118C16.0335 30.0268 16.3699 30.3634 16.7851 30.3634C17.2002 30.3634 17.5367 30.0269 17.5367 29.6118V27.9583H19.1901C19.6052 27.9583 19.9417 27.6218 19.9417 27.2067C19.9417 26.7916 19.6052 26.4551 19.1901 26.4551Z" fill="#FF6C0E"/>
<path d="M33.6202 26.4551H28.8102C28.3951 26.4551 28.0586 26.7915 28.0586 27.2067C28.0586 27.6218 28.395 27.9583 28.8102 27.9583H33.6202C34.0353 27.9583 34.3718 27.6218 34.3718 27.2067C34.3718 26.7915 34.0353 26.4551 33.6202 26.4551Z" fill="#064DD6"/>
<path d="M17.8478 39.2318L19.7214 37.3582C20.015 37.0648 20.015 36.5888 19.7214 36.2953C19.4279 36.0018 18.952 36.0018 18.6586 36.2953L16.785 38.1689L14.9114 36.2953C14.6179 36.0018 14.142 36.0018 13.8486 36.2953C13.555 36.5889 13.555 37.0648 13.8486 37.3582L15.7222 39.2318L13.8486 41.1054C13.5749 41.3789 13.5567 41.831 13.8085 42.1251C14.0896 42.4533 14.6056 42.4739 14.9113 42.1682L16.7849 40.2946L18.6585 42.1682C18.9642 42.4739 19.4802 42.4533 19.7613 42.1251C20.0132 41.831 19.995 41.3789 19.7213 41.1054L17.8478 39.2318Z" fill="#064DD6"/>
<path d="M34.1514 36.2953C33.8577 36.0018 33.382 36.0018 33.0884 36.2953L28.2784 41.1054C27.8154 41.5683 28.1525 42.3883 28.8098 42.3883C29.0021 42.3883 29.1944 42.315 29.3412 42.1682L34.1513 37.3582C34.4449 37.0647 34.4449 36.5888 34.1514 36.2953Z" fill="#FF6C0E"/>
<path d="M30.1433 37.097L29.3417 36.2953C29.0481 36.0018 28.5723 36.0018 28.2787 36.2953C27.9852 36.5889 27.9852 37.0647 28.2787 37.3582L29.0803 38.1598C29.386 38.4655 29.9021 38.4449 30.1832 38.1167C30.4351 37.8226 30.417 37.3706 30.1433 37.097Z" fill="#064DD6"/>
<path d="M34.1517 41.1053L33.35 40.3036C33.0564 40.0101 32.5806 40.0101 32.287 40.3036C31.9935 40.5972 31.9935 41.0731 32.287 41.3665L33.0887 42.1681C33.3944 42.4738 33.9105 42.4532 34.1916 42.125C34.4435 41.8309 34.4253 41.3789 34.1517 41.1053Z" fill="#064DD6"/>
<path d="M34.1517 10.6418L29.3416 5.83172C29.048 5.53819 28.5722 5.53819 28.2787 5.83172L23.4687 10.6418C23.3277 10.7827 23.2485 10.9738 23.2485 11.1731V16.7848C23.2485 17.1998 23.585 17.5364 24.0001 17.5364H27.2068C27.622 17.5364 27.9584 17.1999 27.9584 16.7848V14.3297H29.662V16.7848C29.662 17.1998 29.9983 17.5364 30.4136 17.5364H33.6203C34.0354 17.5364 34.3719 17.1999 34.3719 16.7848V11.1731C34.3717 10.9739 34.2926 10.7827 34.1517 10.6418ZM32.8686 16.0333H31.1651V13.5782C31.1651 13.1632 30.8287 12.8266 30.4135 12.8266H27.2068C26.7916 12.8266 26.4552 13.1631 26.4552 13.5782V16.0333H24.7516V11.4845L28.8101 7.42603L32.8685 11.4845V16.0333H32.8686Z" fill="#064DD6"/>
<path d="M20.5232 6.63348C20.2297 6.33995 19.7538 6.33995 19.4604 6.63348L13.4478 12.646C12.9848 13.1089 13.3219 13.929 13.9792 13.929C14.1715 13.929 14.3639 13.8557 14.5106 13.7089L20.5231 7.69632C20.8167 7.4027 20.8167 6.92682 20.5232 6.63348Z" fill="#064DD6"/>
<path d="M21.3246 11.4435C21.0311 11.15 20.5552 11.15 20.2618 11.4435L17.8568 13.8485C17.5832 14.1221 17.565 14.5741 17.8168 14.8682C18.0979 15.1964 18.6139 15.2171 18.9196 14.9114L21.3245 12.5064C21.6182 12.2128 21.6182 11.737 21.3246 11.4435Z" fill="#064DD6"/>
</svg>
