<svg width="136" height="136" viewBox="0 0 136 136" fill="none" xmlns="http://www.w3.org/2000/svg">
<path d="M26.1473 120.647C49.5556 132.887 87.5105 132.887 110.919 120.647C134.327 108.407 134.327 88.5886 110.919 76.3595C87.5105 64.1304 49.5556 64.1195 26.1473 76.3595C2.73899 88.5995 2.73899 108.417 26.1473 120.647Z" fill="#F5F5F5"/>
<path d="M89.6213 111.098C95.7638 111.098 100.743 108.223 100.743 104.676C100.743 101.129 95.7638 98.2539 89.6213 98.2539C83.4787 98.2539 78.4992 101.129 78.4992 104.676C78.4992 108.223 83.4787 111.098 89.6213 111.098Z" fill="#E0E0E0"/>
<path d="M109.945 100.015C115.379 100.015 119.783 97.4722 119.783 94.3356C119.783 91.199 115.379 88.6562 109.945 88.6562C104.512 88.6562 100.107 91.199 100.107 94.3356C100.107 97.4722 104.512 100.015 109.945 100.015Z" fill="#E0E0E0"/>
<path d="M101.206 21.4453L102.947 22.449C102.936 22.3724 102.93 22.2951 102.93 22.2178V21.7146C102.93 20.817 103.561 20.4552 104.336 20.8986C104.673 21.1053 104.959 21.384 105.174 21.7146C105.302 20.5858 106.186 20.1669 107.261 20.787C107.873 21.1862 108.382 21.7239 108.747 22.3567C109.113 22.9895 109.324 23.6995 109.363 24.4291V25.1826C109.371 25.4841 109.311 25.7836 109.186 26.0584L110.631 26.8907C110.859 27.0399 111.048 27.2409 111.184 27.4772C111.32 27.7135 111.397 27.9786 111.411 28.2507C111.411 28.7485 111.06 28.9498 110.631 28.6995L101.206 23.2595C100.978 23.1102 100.789 22.9092 100.654 22.6728C100.519 22.4365 100.441 22.1715 100.428 21.8995C100.428 21.3963 100.776 21.195 101.206 21.4453Z" fill="#EBEBEB"/>
<path d="M93.7638 26.514L95.0776 27.2702C95.069 27.2125 95.0645 27.1544 95.064 27.0961V26.718C95.064 26.0407 95.54 25.766 96.1275 26.1033C96.3785 26.2596 96.5936 26.4672 96.7586 26.7126C96.8538 25.8612 97.5229 25.5457 98.3334 26.0135C98.7954 26.3149 99.1798 26.7209 99.4554 27.1988C99.7309 27.6766 99.8898 28.2127 99.9192 28.7635V29.3319C99.9256 29.5586 99.88 29.7838 99.7859 29.9902L100.874 30.6185C101.045 30.7306 101.187 30.8814 101.289 31.0585C101.391 31.2357 101.45 31.4343 101.461 31.6385C101.461 32.0139 101.189 32.1662 100.874 31.9785L93.7611 27.8713C93.5898 27.7602 93.4472 27.6101 93.345 27.4333C93.2429 27.2565 93.1842 27.0579 93.1736 26.854C93.1763 26.4787 93.4374 26.3263 93.7638 26.514Z" fill="#EBEBEB"/>
<path d="M21.3465 107.652C21.1752 107.745 17.971 108.656 16.7851 107.087C15.5992 105.517 17.5684 103.077 16.4532 102.177C15.338 101.277 12.2236 102.177 11.4729 100.287C10.7222 98.3962 12.9472 97.5666 11.696 95.6626C10.9072 94.4604 8.70397 93.7967 8.80461 92.6706C8.95149 91.0386 11.9625 90.5925 14.5955 92.3469C17.2284 94.1013 18.4524 92.6625 19.2902 92.5455C20.128 92.4285 21.9259 92.6869 21.866 95.6191C21.8062 98.5513 21.3465 107.652 21.3465 107.652Z" fill="#455A64"/>
<path d="M21.5586 103.484C21.5173 103.484 21.4773 103.469 21.4459 103.442C21.4145 103.415 21.3937 103.378 21.3873 103.337C20.4706 97.7716 14.0025 93.2428 10.6378 92.2718C10.5937 92.2579 10.5566 92.2276 10.5343 92.187C10.512 92.1465 10.5062 92.0989 10.5182 92.0542C10.5247 92.0322 10.5355 92.0117 10.55 91.9939C10.5645 91.9761 10.5824 91.9613 10.6026 91.9504C10.6228 91.9396 10.645 91.9328 10.6679 91.9305C10.6907 91.9283 10.7138 91.9306 10.7358 91.9372C14.1738 92.93 20.7998 97.5704 21.7327 103.28C21.7398 103.325 21.7287 103.372 21.7018 103.41C21.6748 103.447 21.6342 103.473 21.5886 103.481L21.5586 103.484Z" fill="white"/>
<path d="M13.9318 98.8225C13.9017 98.8225 13.8721 98.8148 13.8459 98.8C13.8197 98.7853 13.7977 98.7639 13.7822 98.7382C13.759 98.6983 13.7523 98.651 13.7635 98.6063C13.7746 98.5616 13.8028 98.523 13.842 98.4988C13.9481 98.4362 16.4369 96.981 18.8876 97.661C18.9098 97.667 18.9306 97.6773 18.9488 97.6914C18.967 97.7055 18.9822 97.723 18.9936 97.743C19.005 97.7629 19.0123 97.785 19.0151 97.8078C19.0179 97.8306 19.0162 97.8538 19.01 97.8759C19.0044 97.8983 18.9943 97.9193 18.9803 97.9377C18.9663 97.9561 18.9488 97.9715 18.9287 97.9829C18.9086 97.9944 18.8864 98.0016 18.8635 98.0043C18.8405 98.0069 18.8173 98.0049 18.7952 97.9983C16.4886 97.3591 14.046 98.7844 14.0216 98.798C13.9945 98.8143 13.9634 98.8227 13.9318 98.8225Z" fill="white"/>
<path d="M115.083 92.8766L114.24 92.4795C114.24 92.4795 113.968 89.4358 114.24 87.404C114.784 83.6204 117.425 80.3592 119.778 79.9756C122.808 79.4833 122.269 82.2713 120.537 83.4763C117.776 85.4075 115.627 88.326 115.083 92.8766Z" fill="#064DD6"/>
<g opacity="0.1">
<path opacity="0.1" d="M115.083 92.8766L114.24 92.4795C114.24 92.4795 113.968 89.4358 114.24 87.404C114.784 83.6204 117.425 80.3592 119.778 79.9756C122.808 79.4833 122.269 82.2713 120.537 83.4763C117.776 85.4075 115.627 88.326 115.083 92.8766Z" fill="black"/>
</g>
<path d="M114.762 91.663H114.784C114.822 91.6558 114.856 91.6336 114.878 91.6015C114.9 91.5694 114.908 91.5299 114.901 91.4917C114.313 88.3827 116.873 82.619 120.297 80.9816C120.333 80.9646 120.361 80.934 120.375 80.8966C120.388 80.8591 120.386 80.8177 120.369 80.7817C120.353 80.7456 120.322 80.7177 120.284 80.7042C120.247 80.6907 120.206 80.6926 120.17 80.7096C116.634 82.396 114.006 88.3256 114.61 91.5406C114.616 91.5761 114.635 91.6083 114.663 91.6308C114.691 91.6534 114.726 91.6648 114.762 91.663Z" fill="white"/>
<path d="M114.24 92.4813C114.177 92.0298 114.15 91.3715 114.142 91.2083C114.107 90.6351 114.191 90.0609 114.39 89.5219C114.65 88.8098 115.146 88.2081 115.796 87.8165C116.149 87.6125 116.563 87.4656 116.791 87.1283C116.957 86.8175 117.046 86.4714 117.05 86.1192C117.12 85.5507 117.297 84.9496 117.754 84.6015C118.211 84.2533 118.842 84.2451 119.386 84.305C120.202 84.392 120.967 84.5008 121.728 84.1282C122.337 83.8051 122.965 83.5216 123.61 83.2795C124.426 83.0075 126.252 82.5995 126.635 83.7447C126.679 83.9027 126.686 84.0685 126.658 84.2299C126.629 84.3913 126.564 84.5443 126.469 84.6776C126.276 84.943 126.045 85.1786 125.784 85.3767L124.508 86.4375C124.356 86.5491 124.224 86.6862 124.119 86.8427C123.872 87.2671 124.048 87.8029 123.994 88.2898C123.959 88.5375 123.871 88.7748 123.736 88.9852C123.601 89.1956 123.422 89.3741 123.211 89.5083C122.785 89.7746 122.285 89.8958 121.785 89.8538C121.119 89.8075 120.031 89.2962 119.623 90.0823C119.51 90.3501 119.444 90.6353 119.427 90.9255C119.411 91.2169 119.317 91.4987 119.155 91.7415C118.883 92.0733 118.429 92.1685 118.004 92.212C117.41 92.2227 116.82 92.3142 116.25 92.484C116.022 92.5738 115.877 92.8648 115.744 93.0579C115.328 92.9192 114.871 92.7533 114.24 92.4813Z" fill="#064DD6"/>
<path d="M114.613 92.2496C114.592 92.2548 114.571 92.2548 114.55 92.2496C114.516 92.2357 114.489 92.2091 114.475 92.1755C114.461 92.1419 114.46 92.104 114.474 92.0701C116.187 87.8133 121.655 84.7641 124.913 83.7523C124.931 83.7469 124.949 83.745 124.967 83.7467C124.985 83.7485 125.002 83.7538 125.018 83.7624C125.034 83.771 125.048 83.7828 125.06 83.7969C125.071 83.811 125.08 83.8273 125.085 83.8448C125.095 83.8794 125.091 83.9167 125.075 83.9487C125.058 83.9807 125.029 84.0049 124.995 84.0161C121.788 85.0117 116.408 88.0037 114.73 92.1761C114.718 92.1974 114.701 92.2153 114.681 92.2281C114.66 92.241 114.637 92.2484 114.613 92.2496Z" fill="white"/>
<path d="M75.8444 84.6462C75.873 85.1755 76.0261 85.6905 76.2912 86.1495C76.5564 86.6084 76.9261 86.9983 77.3704 87.2874C77.6286 87.4571 77.9414 87.5232 78.2462 87.4723C78.1972 87.5233 78.1414 87.5672 78.0803 87.6029L78.4475 87.3934L78.4665 87.3798L78.5209 87.3445C78.5454 87.3267 78.5682 87.3067 78.5889 87.2846L78.6297 87.2438C78.6297 87.2302 78.6542 87.2166 78.6651 87.2003C78.7158 87.1294 78.7578 87.0527 78.7902 86.9718L78.8174 86.8984C78.8186 86.8857 78.8186 86.873 78.8174 86.8603C78.8241 86.8389 78.8296 86.8171 78.8337 86.795C78.8621 86.6701 78.8758 86.5423 78.8745 86.4142C78.8459 85.8857 78.693 85.3713 78.4284 84.9129C78.1637 84.4545 77.7947 84.065 77.3513 83.7758C77.1465 83.6465 76.9108 83.5742 76.6686 83.5664H76.5734L76.4864 83.5827L76.4347 83.5963H76.402C76.3803 83.6021 76.3593 83.6103 76.3395 83.6208L76.2824 83.6507L75.9641 83.833C76.0157 83.8067 76.0706 83.7875 76.1273 83.7758C75.923 84.0179 75.8215 84.3303 75.8444 84.6462ZM78.355 87.437H78.3822H78.355Z" fill="#FF6C0E"/>
<path d="M44.1809 102.198L46.3324 105.935L46.6969 105.723L78.0803 87.6048C78.1413 87.5692 78.1972 87.5252 78.2462 87.4743C78.4432 87.234 78.5406 86.9274 78.5182 86.6175C78.4888 86.0884 78.3354 85.5737 78.0703 85.1149C77.8052 84.6561 77.4359 84.2661 76.9923 83.9763C76.7868 83.8488 76.5513 83.7775 76.3095 83.7696C76.2445 83.7686 76.1796 83.7759 76.1164 83.7914C76.0597 83.803 76.0048 83.8222 75.9532 83.8485L75.926 83.8621L44.1809 102.198Z" fill="#EBEBEB"/>
<path d="M45.2608 102.302C44.4176 101.816 43.7349 102.21 43.7349 103.181C43.7634 103.71 43.9165 104.225 44.1816 104.684C44.4468 105.143 44.8165 105.533 45.2608 105.822C46.1013 106.309 46.784 105.915 46.784 104.941C46.7553 104.412 46.6025 103.898 46.3378 103.44C46.0732 102.981 45.7042 102.592 45.2608 102.302Z" fill="#FF6C0E"/>
<path d="M41.9831 104.568C41.9936 104.552 42.0065 104.537 42.0212 104.525L43.966 102.384L43.9823 102.368L44.0177 102.33L44.0367 102.308C44.3087 102.036 44.7548 102.02 45.2553 102.308C45.6987 102.597 46.0677 102.986 46.3323 103.445C46.597 103.903 46.7498 104.418 46.7785 104.946C46.7785 105.512 46.5473 105.879 46.191 105.996H46.1692C46.1327 106.007 46.0954 106.015 46.0577 106.021H46.0332L43.2153 106.635C43.0437 106.664 42.8676 106.626 42.723 106.529C42.4691 106.365 42.2578 106.142 42.1061 105.88C41.9543 105.618 41.8666 105.325 41.8499 105.022C41.8408 104.86 41.8879 104.7 41.9831 104.568Z" fill="#E0E0E0"/>
<path d="M66.9119 90.6834L66.9636 90.6535C67.0225 90.6336 67.0852 90.628 67.1466 90.637C67.2081 90.6459 67.2665 90.6693 67.3172 90.7051C67.4754 90.8077 67.6071 90.9461 67.7016 91.1092C67.7962 91.2723 67.8509 91.4553 67.8612 91.6435C67.8661 91.7041 67.8571 91.7649 67.835 91.8215C67.8128 91.8781 67.7781 91.9288 67.7334 91.9699L67.6654 92.008L44.4992 105.382L42.976 104.501L66.9119 90.6834Z" fill="#455A64"/>
<path d="M46.648 104.138L44.4965 105.381L42.9733 104.5L45.8864 102.816C46.2295 103.199 46.4889 103.649 46.648 104.138Z" fill="#37474F"/>
<path d="M41.2161 105.581L42.976 103.631L43.0222 103.579C43.2181 103.383 43.5336 103.367 43.8926 103.579C44.2084 103.782 44.4717 104.057 44.6608 104.381C44.8499 104.705 44.9595 105.07 44.9806 105.445C44.9806 105.842 44.8201 106.1 44.5699 106.185H44.5536L44.4829 106.201L41.888 106.772C41.7931 106.784 41.6971 106.763 41.616 106.712C41.4733 106.619 41.3547 106.493 41.2697 106.345C41.1846 106.197 41.1355 106.031 41.1264 105.861C41.1182 105.759 41.1504 105.659 41.2161 105.581Z" fill="#FF6C0E"/>
<path opacity="0.1" d="M41.2161 105.581L42.976 103.631L43.0222 103.579C43.2181 103.383 43.5336 103.367 43.8926 103.579C44.2084 103.782 44.4717 104.057 44.6608 104.381C44.8499 104.705 44.9595 105.07 44.9806 105.445C44.9806 105.842 44.8201 106.1 44.5699 106.185H44.5536L44.4829 106.201L41.888 106.772C41.7931 106.784 41.6971 106.763 41.616 106.712C41.4733 106.619 41.3547 106.493 41.2697 106.345C41.1846 106.197 41.1355 106.031 41.1264 105.861C41.1182 105.759 41.1504 105.659 41.2161 105.581Z" fill="black"/>
<path d="M41.1182 105.864C41.1274 106.034 41.1764 106.2 41.2615 106.348C41.3465 106.496 41.4652 106.622 41.6078 106.715C41.6885 106.767 41.7852 106.787 41.8798 106.772L43.1854 106.487C43.3921 106.443 43.5281 106.25 43.5281 105.943C43.5138 105.67 43.4354 105.405 43.2993 105.169C43.1631 104.933 42.9732 104.732 42.7448 104.583C42.6556 104.511 42.5448 104.473 42.4306 104.473C42.3164 104.473 42.2056 104.511 42.1165 104.583L42.0811 104.621L41.2053 105.584C41.1727 105.622 41.1482 105.667 41.1332 105.715C41.1183 105.763 41.1132 105.814 41.1182 105.864Z" fill="#FF6C0E"/>
<path opacity="0.1" d="M41.6159 105.578C41.3439 105.423 41.1263 105.549 41.1263 105.85C41.1355 106.021 41.1846 106.187 41.2696 106.335C41.3547 106.482 41.4733 106.608 41.6159 106.702C41.8879 106.857 42.1055 106.729 42.1055 106.416C42.0943 106.248 42.0443 106.085 41.9593 105.94C41.8743 105.794 41.7568 105.671 41.6159 105.578Z" fill="black"/>
<path d="M72.6702 87.3518C72.7317 87.3231 72.7997 87.3116 72.8672 87.3183C72.9347 87.325 72.9991 87.3497 73.0537 87.3898C73.2113 87.4917 73.3427 87.6292 73.4372 87.7913C73.5317 87.9534 73.5867 88.1355 73.5977 88.3228C73.6053 88.3897 73.5947 88.4573 73.5669 88.5186C73.5391 88.5799 73.4953 88.6326 73.44 88.671L67.728 91.9622C67.7727 91.921 67.8074 91.8703 67.8296 91.8137C67.8517 91.7572 67.8607 91.6963 67.8558 91.6358C67.8454 91.4476 67.7907 91.2645 67.6962 91.1014C67.6017 90.9383 67.47 90.7999 67.3118 90.6974C67.2611 90.6615 67.2026 90.6381 67.1412 90.6292C67.0797 90.6202 67.017 90.6258 66.9582 90.6457L72.6702 87.3518Z" fill="#FAFAFA"/>
<path d="M72.5125 87.7007C72.5235 87.8884 72.5785 88.0708 72.673 88.2334C72.7674 88.3959 72.8988 88.5339 73.0565 88.6364C73.108 88.6836 73.1733 88.7132 73.2428 88.7209C73.3122 88.7286 73.3824 88.714 73.443 88.6791C73.5036 88.6443 73.5516 88.591 73.5799 88.5271C73.6082 88.4632 73.6154 88.3919 73.6005 88.3236C73.5895 88.1362 73.5345 87.9542 73.44 87.7921C73.3455 87.63 73.2141 87.4924 73.0565 87.3906C73.0051 87.3437 72.9402 87.3144 72.8711 87.3067C72.8019 87.299 72.7322 87.3134 72.6718 87.3479C72.6113 87.3823 72.5634 87.435 72.5348 87.4984C72.5062 87.5618 72.4983 87.6326 72.5125 87.7007Z" fill="#F5F5F5"/>
<path d="M73.7119 85.408H73.731L73.7527 85.3944L76.0022 84.097L76.0566 84.067C76.2091 84.0077 76.3741 83.9873 76.5365 84.0077C76.6989 84.0281 76.8537 84.0887 76.9868 84.184C77.3842 84.4451 77.7144 84.7961 77.9507 85.2087C78.187 85.6213 78.3227 86.0837 78.3468 86.5586C78.365 86.7299 78.337 86.903 78.2658 87.0599C78.1945 87.2167 78.0825 87.3517 77.9415 87.4507L75.6649 88.7645H75.6513C75.4967 88.8293 75.3281 88.8536 75.1615 88.835C74.9949 88.8164 74.8358 88.7557 74.6993 88.6584C74.3022 88.3964 73.9722 88.0448 73.736 87.6319C73.4997 87.2189 73.3639 86.7562 73.3393 86.2811C73.3225 86.1159 73.3479 85.9492 73.4131 85.7965C73.4783 85.6438 73.5811 85.5102 73.7119 85.408Z" fill="#FF6C0E"/>
<path opacity="0.05" d="M73.7119 85.408H73.731L73.7527 85.3944L76.0022 84.097L76.0566 84.067C76.2091 84.0077 76.3741 83.9873 76.5365 84.0077C76.6989 84.0281 76.8537 84.0887 76.9868 84.184C77.3842 84.4451 77.7144 84.7961 77.9507 85.2087C78.187 85.6213 78.3227 86.0837 78.3468 86.5586C78.365 86.7299 78.337 86.903 78.2658 87.0599C78.1945 87.2167 78.0825 87.3517 77.9415 87.4507L75.6649 88.7645H75.6513C75.4967 88.8293 75.3281 88.8536 75.1615 88.835C74.9949 88.8164 74.8358 88.7557 74.6993 88.6584C74.3022 88.3964 73.9722 88.0448 73.736 87.6319C73.4997 87.2189 73.3639 86.7562 73.3393 86.2811C73.3225 86.1159 73.3479 85.9492 73.4131 85.7965C73.4783 85.6438 73.5811 85.5102 73.7119 85.408Z" fill="black"/>
<path opacity="0.1" d="M74.7156 85.4686C73.9595 85.0307 73.3557 85.387 73.3557 86.2601C73.3802 86.7352 73.5161 87.1979 73.7523 87.6109C73.9885 88.0238 74.3185 88.3755 74.7156 88.6374C75.4745 89.0753 76.0892 88.719 76.0892 87.8459C76.0634 87.3695 75.9255 86.906 75.6869 86.4929C75.4482 86.0799 75.1154 85.7289 74.7156 85.4686Z" fill="black"/>
<path d="M40.4954 106.401L41.4256 105.841C41.4541 105.825 41.4864 105.818 41.5187 105.821C41.5511 105.823 41.582 105.835 41.6079 105.854C41.682 105.901 41.7437 105.965 41.7877 106.041C41.8317 106.117 41.8568 106.202 41.8608 106.29C41.8634 106.321 41.858 106.352 41.8451 106.381C41.8323 106.409 41.8124 106.434 41.7874 106.453L40.8599 107.013C40.8062 107.041 40.7465 107.056 40.6858 107.057C40.5913 107.057 40.5007 107.019 40.4338 106.952C40.367 106.885 40.3295 106.795 40.3295 106.7C40.3295 106.64 40.3448 106.582 40.3738 106.529C40.4028 106.477 40.4447 106.433 40.4954 106.401Z" fill="#455A64"/>
<path d="M40.4409 106.443L40.4899 106.402C40.5174 106.394 40.5464 106.392 40.5747 106.397C40.6029 106.402 40.6298 106.413 40.6531 106.43C40.7267 106.477 40.7879 106.541 40.8314 106.617C40.875 106.692 40.8996 106.778 40.9033 106.865C40.9065 106.895 40.9017 106.926 40.8893 106.954C40.8769 106.983 40.8573 107.007 40.8326 107.025H40.8136H40.7945C40.7583 107.04 40.7193 107.046 40.6803 107.044C40.5858 107.044 40.4952 107.007 40.4283 106.94C40.3615 106.873 40.324 106.783 40.324 106.688C40.3297 106.594 40.3717 106.507 40.4409 106.443Z" fill="#263238"/>
<path d="M22.4862 108.885L21.5369 108.341C21.3789 108.239 21.2473 108.1 21.1528 107.937C21.0583 107.774 21.0035 107.591 20.9929 107.403V37.0719C21.0033 36.8837 21.058 36.7006 21.1525 36.5376C21.247 36.3745 21.3788 36.2361 21.5369 36.1335L65.1657 10.9436C65.3341 10.8574 65.5206 10.8125 65.7097 10.8125C65.8989 10.8125 66.0853 10.8574 66.2537 10.9436L67.203 11.4876C67.361 11.5903 67.4926 11.7288 67.5871 11.8918C67.6816 12.0549 67.7364 12.2379 67.747 12.426V82.757C67.7368 82.9453 67.6823 83.1285 67.5877 83.2916C67.4931 83.4547 67.3613 83.5931 67.203 83.6955L23.5688 108.885C23.4012 108.971 23.2157 109.016 23.0275 109.016C22.8393 109.016 22.6538 108.971 22.4862 108.885Z" fill="#064DD6"/>
<path opacity="0.4" d="M67.7279 12.3424C67.6926 12.0704 67.4559 11.9589 67.1839 12.1166L23.5687 37.3065C23.4096 37.407 23.2778 37.5453 23.1852 37.7091L21.1506 36.5368C21.2433 36.373 21.375 36.2347 21.5342 36.1342L65.1657 10.9443C65.3339 10.8577 65.5204 10.8125 65.7097 10.8125C65.8989 10.8125 66.0854 10.8577 66.2537 10.9443L67.2057 11.4883C67.3489 11.5849 67.4696 11.7112 67.5597 11.8585C67.6498 12.0059 67.7072 12.1709 67.7279 12.3424Z" fill="white"/>
<path opacity="0.15" d="M23.4735 108.928C23.4628 108.93 23.4517 108.93 23.4409 108.928L23.3865 108.947H23.3647C23.3321 108.947 23.2995 108.964 23.2641 108.972C23.0485 109.013 22.8259 108.995 22.6195 108.92C22.5784 108.905 22.5384 108.887 22.4998 108.866L21.5478 108.322C21.3902 108.219 21.259 108.08 21.1645 107.917C21.07 107.754 21.015 107.571 21.0038 107.383V37.0713C21.01 36.8797 21.0642 36.6926 21.1615 36.5273L23.1961 37.6997C23.0955 37.8636 23.0401 38.0513 23.0356 38.2437V108.575C23.0297 108.677 23.0595 108.778 23.1199 108.86C23.1534 108.903 23.1987 108.934 23.25 108.95C23.3014 108.967 23.3565 108.968 23.4083 108.953C23.4308 108.947 23.4526 108.939 23.4735 108.928Z" fill="black"/>
<path d="M54.1116 23.894L54.0328 23.845L53.1324 23.3282C52.805 23.1457 52.4492 23.0197 52.0798 22.9556C51.9248 22.9202 51.786 22.8794 51.6636 22.8386C51.5278 22.7942 51.3951 22.7406 51.2665 22.6782L51.3318 22.5938L50.32 22.0036C50.2346 21.956 50.1431 21.9203 50.048 21.8975C49.6644 21.8023 49.0905 22.0254 48.5193 21.9601C48.3114 21.9398 48.1105 21.8739 47.931 21.7672C47.7514 21.6605 47.5975 21.5155 47.4803 21.3426C47.1321 20.8748 46.9227 20.0561 46.6153 19.3761L46.8873 18.9817C46.8601 18.9647 46.832 18.9492 46.803 18.9354L45.87 18.3914C45.7126 18.2987 45.5332 18.2499 45.3505 18.25C45.0019 18.2684 44.6642 18.3781 44.3713 18.5682C42.1382 19.8602 42.062 22.9202 41.2569 24.9385C40.4518 26.9567 39.3121 27.585 38.692 28.4527C38.0718 29.3204 38.0283 29.9623 36.6547 31.8554C35.2811 33.7486 35.2267 34.211 35.2267 34.5754V37.3961L36.244 37.9836L54.5278 27.4218L54.1116 23.894ZM37.3456 34.774C37.1089 34.9073 36.9131 34.725 36.9131 34.3578C36.9108 34.1822 36.9486 34.0084 37.0235 33.8496C37.0984 33.6908 37.2086 33.5511 37.3456 33.4412C37.5822 33.3052 37.7753 33.4929 37.7753 33.8601C37.7773 34.0342 37.7396 34.2065 37.6652 34.3639C37.5907 34.5213 37.4814 34.6596 37.3456 34.7686V34.774ZM45.3777 26.8561C45.2625 26.9401 45.1292 26.9962 44.9886 27.0199C44.8479 27.0436 44.7037 27.0342 44.5672 26.9925C44.4308 26.9509 44.306 26.878 44.2026 26.7797C44.0992 26.6814 44.0201 26.5605 43.9715 26.4263C43.2616 26.5623 42.7339 25.8823 42.7339 24.7018C42.7339 23.3146 43.4656 21.7724 44.3659 21.2502C44.4813 21.1661 44.6147 21.1102 44.7555 21.0867C44.8963 21.0632 45.0407 21.0728 45.1772 21.1147C45.3136 21.1567 45.4384 21.2299 45.5417 21.3284C45.645 21.427 45.7239 21.5483 45.7721 21.6826C46.482 21.5412 47.007 22.2266 47.007 23.4044C47.007 24.7862 46.2808 26.3284 45.3777 26.8506V26.8561ZM51.4515 26.6276C51.2121 26.7663 51.019 26.5814 51.019 26.2142C51.0147 26.0382 51.0515 25.8637 51.1266 25.7046C51.2017 25.5454 51.3129 25.406 51.4515 25.2975C51.6908 25.1588 51.884 25.3438 51.884 25.711C51.8873 25.8859 51.8499 26.0593 51.7749 26.2174C51.6998 26.3755 51.5891 26.5141 51.4515 26.6222V26.6276Z" fill="#455A64"/>
<path opacity="0.5" d="M37.264 35.271L35.2974 34.1367C35.2526 34.2783 35.2306 34.4261 35.2321 34.5746V37.3953L36.2494 37.9828L37.264 37.3953V35.271Z" fill="#37474F"/>
<path opacity="0.5" d="M39.2849 31.751L40.3021 29.4036L38.6865 28.457C38.2132 29.1126 38.0745 29.643 37.438 30.6847L39.2849 31.751Z" fill="#37474F"/>
<path opacity="0.5" d="M43.3513 27.0611L43.4818 26.3757C43.033 26.188 42.7338 25.5814 42.7338 24.6974C42.7338 23.5197 43.2615 22.2331 43.9714 21.5504L42.5625 20.7344C41.9641 22.0944 41.7465 23.7264 41.2514 24.9422C41.1481 25.2142 41.0366 25.44 40.925 25.6576L43.3513 27.0611Z" fill="#37474F"/>
<path d="M54.1116 23.8957L54.0328 23.8467C53.7334 23.7078 53.4183 23.6055 53.0944 23.5421C52.5627 23.4487 52.0674 23.2095 51.6636 22.8512C51.5614 22.7588 51.4503 22.6768 51.3318 22.6064C51.2473 22.5562 51.1556 22.5195 51.0598 22.4976C50.4451 22.348 49.3244 23.0198 48.5193 21.9753C48.5097 21.9657 48.5014 21.9547 48.4948 21.9427C47.9318 21.1866 47.7251 19.4947 46.8819 18.997C46.8547 18.9799 46.8265 18.9645 46.7976 18.9507C46.4494 18.7875 45.9979 18.8174 45.3777 19.171C43.1446 20.463 43.0684 23.523 42.2633 25.5413C41.4582 27.5595 40.3212 28.1878 39.7011 29.0555C39.0809 29.9232 39.0401 30.5651 37.6638 32.4582C36.2875 34.3513 36.2385 34.8165 36.2385 35.1782V38.0016L54.5224 27.4398V24.6056C54.5362 24.4592 54.504 24.3122 54.4304 24.185C54.3568 24.0578 54.2454 23.9566 54.1116 23.8957ZM38.352 35.3632C38.1126 35.5019 37.9195 35.3169 37.9195 34.947C37.9162 34.7717 37.9535 34.5979 38.0285 34.4394C38.1036 34.2808 38.2143 34.1418 38.352 34.0331C38.5913 33.8944 38.7817 34.0821 38.7817 34.4493C38.7853 34.6244 38.7484 34.798 38.6739 34.9566C38.5993 35.1151 38.4892 35.2543 38.352 35.3632ZM45.3696 26.8605C45.2543 26.9445 45.1211 27.0006 44.9804 27.0243C44.8397 27.048 44.6955 27.0386 44.5591 26.9969C44.4226 26.9552 44.2978 26.8824 44.1944 26.7841C44.091 26.6858 44.0119 26.5648 43.9633 26.4307C43.8037 26.0726 43.7274 25.6829 43.7403 25.291C43.7403 23.9066 44.4692 22.3616 45.3723 21.8421C45.4943 21.769 45.6276 21.7166 45.7667 21.687C46.4766 21.5456 47.0016 22.231 47.0016 23.4088C47.007 24.7878 46.2808 26.3301 45.3777 26.8523L45.3696 26.8605ZM52.466 27.2032C52.2267 27.3419 52.0336 27.1569 52.0336 26.7925C52.0296 26.617 52.0667 26.443 52.1418 26.2844C52.2168 26.1257 52.3279 25.9868 52.466 25.8785C52.7027 25.7398 52.8958 25.9248 52.8958 26.292C52.8992 26.4667 52.8622 26.6399 52.7876 26.7979C52.7131 26.956 52.603 27.0947 52.466 27.2032Z" fill="#37474F"/>
<path d="M47.007 23.3951C47.007 24.7823 46.2808 26.3246 45.375 26.8468C45.2597 26.9309 45.1265 26.987 44.9858 27.0107C44.8452 27.0344 44.7009 27.025 44.5645 26.9833C44.4281 26.9416 44.3032 26.8687 44.1998 26.7705C44.0964 26.6722 44.0173 26.5512 43.9688 26.4171C44.1075 26.3863 44.2406 26.334 44.3632 26.262C45.2635 25.7398 45.9952 24.1975 45.9952 22.8103C46.007 22.4194 45.9308 22.0309 45.7721 21.6734C46.482 21.5374 47.007 22.2201 47.007 23.3951Z" fill="#263238"/>
<path d="M38.352 35.3599C38.1126 35.4959 37.9195 35.3109 37.9195 34.9464C37.9162 34.7707 37.9535 34.5965 38.0285 34.4375C38.1035 34.2785 38.2142 34.139 38.352 34.0298C38.5886 33.8911 38.7817 34.0815 38.7817 34.446C38.7847 34.621 38.7476 34.7944 38.6731 34.9529C38.5986 35.1113 38.4887 35.2505 38.352 35.3599Z" fill="#263238"/>
<path d="M52.466 27.2025C52.2266 27.3385 52.0335 27.1563 52.0335 26.7891C52.0302 26.6133 52.0675 26.4391 52.1425 26.2802C52.2176 26.1212 52.3283 25.9816 52.466 25.8724C52.7026 25.7364 52.8958 25.9241 52.8958 26.2913C52.8986 26.4659 52.8613 26.6389 52.7868 26.7968C52.7123 26.9548 52.6025 27.0936 52.466 27.2025Z" fill="#263238"/>
<path d="M26.4003 43.8846L64.366 21.9642C64.4668 21.9132 64.5781 21.8867 64.6911 21.8867C64.804 21.8867 64.9153 21.9132 65.0161 21.9642L65.3833 22.1763C65.4777 22.2381 65.5562 22.3213 65.6124 22.4192C65.6687 22.517 65.7011 22.6267 65.707 22.7394V80.659C65.7015 80.7718 65.6693 80.8817 65.613 80.9796C65.5567 81.0775 65.478 81.1606 65.3833 81.2221L27.4175 103.143C27.3167 103.193 27.2054 103.22 27.0925 103.22C26.9796 103.22 26.8682 103.193 26.7675 103.143L26.4003 102.93C26.3052 102.869 26.2261 102.786 26.1693 102.688C26.1126 102.59 26.0799 102.48 26.0739 102.367V44.4477C26.0803 44.3348 26.1132 44.225 26.1699 44.1272C26.2266 44.0294 26.3055 43.9463 26.4003 43.8846Z" fill="#F5F5F5"/>
<path d="M65.6961 22.6414C65.6553 22.5082 65.5302 22.4646 65.3833 22.5517L27.4175 44.4722C27.3197 44.5301 27.2398 44.6139 27.1863 44.7142L26.1691 44.1294C26.224 44.0295 26.3036 43.9452 26.4003 43.8846L64.366 21.9642C64.4668 21.9132 64.5782 21.8867 64.6911 21.8867C64.804 21.8867 64.9153 21.9132 65.0161 21.9642L65.3833 22.1763C65.4639 22.229 65.5331 22.2974 65.5868 22.3772C65.6405 22.4571 65.6777 22.547 65.6961 22.6414Z" fill="#FAFAFA"/>
<path d="M27.3387 103.181C27.2998 103.195 27.2598 103.206 27.2191 103.214H27.1565C27.0905 103.221 27.024 103.221 26.9579 103.214C26.9173 103.206 26.8773 103.195 26.8383 103.181L26.7648 103.146L26.4003 102.936C26.3061 102.875 26.2277 102.791 26.1715 102.693C26.1153 102.596 26.0828 102.486 26.0767 102.373V44.4511C26.0786 44.3386 26.1105 44.2288 26.1691 44.1328L27.1864 44.7176C27.1285 44.815 27.0958 44.9253 27.0912 45.0386V102.958C27.0912 103.135 27.2 103.222 27.3387 103.181Z" fill="#E0E0E0"/>
<path d="M57.1553 30.1682L56.1434 29.5834C55.9846 29.5055 55.8092 29.4676 55.6325 29.4728C55.4557 29.478 55.2828 29.5262 55.1289 29.6133C53.9484 30.1328 53.437 30.3695 52.8278 30.6251L52.3871 30.8019C52.1478 30.8971 51.6718 30.8155 51.8186 29.9859L53.3881 25.7618H53.3636L52.3708 25.1879C52.3204 25.1562 52.2638 25.1358 52.2049 25.128C52.1749 25.128 52.1369 25.128 52.0961 25.128C51.4542 25.1117 51.2801 20.9691 51.2665 20.8413L51.2202 20.8168L50.2383 20.2511C50.0677 20.1543 49.8741 20.1054 49.678 20.1096C49.3498 20.1248 49.0299 20.218 48.745 20.3816C47.2028 21.1976 45.6442 23.5939 45.2634 25.7509C45.0241 27.1109 43.6559 29.2053 42.8644 29.9778C42.0729 30.7503 42.0185 31.3922 42.0185 31.3922L41.4038 34.8792L41.2052 35.9971C41.061 36.8295 40.207 37.6291 40.207 37.6291L37.0218 39.9847C35.0281 41.6384 34.465 43.3112 34.0842 45.3784V45.3947C34.0842 45.4682 34.0842 45.5171 34.1196 45.5362C34.1249 45.5396 34.131 45.5414 34.1373 45.5414C34.1435 45.5414 34.1497 45.5396 34.1549 45.5362L34.5629 45.305L56.4753 32.6679C56.5268 32.6327 56.5709 32.5877 56.605 32.5354C56.6391 32.4831 56.6625 32.4246 56.6738 32.3632C56.799 31.6098 57.1634 30.1872 57.1634 30.1872L57.1553 30.1682ZM50.8204 23.768C50.5838 25.0927 49.629 26.5723 48.6798 27.0701C48.0242 27.4128 47.5455 27.2007 47.385 26.5968C47.2672 26.643 47.1397 26.6587 47.0142 26.6425C46.8887 26.6263 46.7693 26.5788 46.667 26.5043C46.3623 26.265 49.153 21.4723 49.387 21.5784C49.4957 21.6357 49.5901 21.7169 49.6631 21.8158C49.7361 21.9147 49.7858 22.0288 49.8086 22.1496C50.5919 21.913 51.0298 22.5767 50.8204 23.768Z" fill="#455A64"/>
<path opacity="0.5" d="M37.264 42.3127L35.6674 41.3906C34.7426 42.6092 34.3699 43.8903 34.0952 45.3781V45.3945C34.0952 45.4679 34.0952 45.5169 34.1306 45.5359C34.1358 45.5393 34.142 45.5411 34.1483 45.5411C34.1545 45.5411 34.1607 45.5393 34.1659 45.5359L35.4253 44.5404L37.264 42.3127Z" fill="#37474F"/>
<path opacity="0.5" d="M41.0991 36.32L43.3513 37.6175L44.3658 31.7504L42.3367 30.5781C42.1752 30.8101 42.0665 31.0747 42.0185 31.3533L41.4038 34.8404L41.2052 35.9583C41.1828 36.0823 41.1473 36.2036 41.0991 36.32Z" fill="#37474F"/>
<path opacity="0.5" d="M46.3297 22.9141C45.8165 23.78 45.4559 24.7276 45.2635 25.7157C45.1018 26.4159 44.8339 27.0874 44.4692 27.7067L46.3977 28.8219L47.3579 26.6051C47.2435 26.6464 47.1207 26.6591 47.0003 26.642C46.8798 26.6249 46.7654 26.5786 46.667 26.5072C46.5092 26.3821 47.1729 25.0574 47.8828 23.8117L46.3297 22.9141Z" fill="#37474F"/>
<path d="M57.1689 30.1771H57.1553C56.9962 30.1019 56.8214 30.0656 56.6455 30.0713C56.4695 30.077 56.2975 30.1244 56.1435 30.2097C54.6965 30.8489 54.2585 31.0584 53.399 31.3984C53.1705 31.4909 52.7054 31.4174 52.8278 30.6341C52.8265 30.616 52.8265 30.5978 52.8278 30.5797L53.0264 29.4645L53.5704 26.4262C53.5704 26.4262 53.6955 25.9475 53.38 25.768H53.3555C53.2762 25.7314 53.1898 25.7128 53.1025 25.7136C52.9177 25.6914 52.7403 25.6277 52.5835 25.5274C52.4266 25.4271 52.2945 25.2927 52.1968 25.1342C52.0273 24.8817 51.9099 24.5979 51.8515 24.2995C51.7931 24.001 51.7949 23.6939 51.8568 23.3961C52.088 22.0933 51.835 21.1793 51.2584 20.8393L51.2121 20.8121C50.8395 20.6136 50.339 20.6462 49.7542 20.9536C48.2093 21.7696 46.6507 24.1659 46.2726 26.3229C46.0305 27.6829 44.6624 29.78 43.8709 30.5497C43.0793 31.3195 43.0277 31.9641 43.0277 31.9641L42.432 35.4321L42.2361 36.5473C42.0893 37.3797 41.2352 38.1793 41.2352 38.1793L38.0528 40.5675C36.7827 41.5784 35.8657 42.9659 35.4334 44.5306C35.4334 44.5306 34.2393 45.4581 34.1659 45.5315L34.5739 45.3003L56.5488 32.6686C56.5488 32.6686 56.799 32.5299 56.8561 32.4945C56.9133 32.4592 57.7973 31.6241 57.7973 31.6241C57.7483 30.9115 57.5361 30.3974 57.1689 30.1771ZM50.8205 23.7688C50.5838 25.0934 49.6291 26.5731 48.6798 27.0709C48.0243 27.4136 47.5456 27.2014 47.3851 26.5976C47.3135 26.2586 47.3135 25.9084 47.3851 25.5694C47.6217 24.2421 48.5792 22.7651 49.5285 22.2701C49.6155 22.2223 49.7065 22.1823 49.8005 22.1504C50.592 21.9137 51.0299 22.5774 50.8205 23.7688Z" fill="#37474F"/>
<path d="M50.8205 23.7675C50.5838 25.0921 49.6291 26.5718 48.6798 27.0696C48.0243 27.4123 47.5456 27.2001 47.3851 26.5963C47.4787 26.5654 47.5696 26.5272 47.6571 26.4821C48.6091 25.9843 49.5611 24.5046 49.7978 23.1773C49.8692 22.8383 49.8692 22.4881 49.7978 22.1491C50.592 21.9125 51.0299 22.5761 50.8205 23.7675Z" fill="#263238"/>
<path d="M49.9038 22.209C49.9927 22.2036 50.0815 22.2213 50.1616 22.2604C50.2416 22.2995 50.3102 22.3586 50.3607 22.432C50.7551 22.9923 50.377 24.4176 50.2138 24.88C49.9881 25.5138 48.5138 27.0043 48.1085 27.0043C47.9743 26.9822 47.8459 26.9329 47.7313 26.8595C47.6168 26.7861 47.5184 26.69 47.4421 26.5773C47.3752 26.2507 47.3752 25.9138 47.4421 25.5872C47.6733 24.2762 48.6199 22.8183 49.5529 22.3232C49.636 22.2794 49.7224 22.2421 49.8113 22.2117H49.901L49.9038 22.209ZM49.901 22.1491H49.8004C49.7064 22.181 49.6154 22.2211 49.5284 22.2688C48.5791 22.7639 47.6244 24.2408 47.385 25.5682C47.3134 25.9071 47.3134 26.2574 47.385 26.5963C47.4669 26.7188 47.5732 26.8231 47.6972 26.9027C47.8213 26.9822 47.9604 27.0354 48.1058 27.0587C48.5465 27.0587 50.0289 25.5546 50.2655 24.8827C50.5022 24.2109 51.0162 22.1328 49.8956 22.1328L49.901 22.1491Z" fill="#263238"/>
<path d="M34.155 45.539L56.5352 32.6734L56.8453 32.502C56.8997 32.4694 57.7837 31.6289 57.7837 31.6289L35.4198 44.538C35.4198 44.538 34.0653 45.5879 34.155 45.539Z" fill="#263238"/>
<path d="M31.1548 54.5623V55.071C31.1548 55.343 31.3506 55.4599 31.59 55.3212L61.1999 38.2233C61.3261 38.141 61.4313 38.0301 61.5069 37.8997C61.5825 37.7694 61.6264 37.623 61.6351 37.4726V36.9612C61.6351 36.6892 61.4393 36.5723 61.1999 36.711L31.59 53.8116C31.4636 53.8938 31.3583 54.0046 31.2827 54.135C31.2071 54.2654 31.1633 54.4118 31.1548 54.5623Z" fill="#E0E0E0"/>
<path d="M31.1548 57.6381V58.1467C31.1548 58.4187 31.3506 58.5357 31.59 58.397L61.1999 41.2963C61.3263 41.2141 61.4315 41.1034 61.5071 40.9729C61.5828 40.8425 61.6266 40.6961 61.6351 40.5456V40.0342C61.6351 39.7622 61.4393 39.648 61.1999 39.784L31.59 56.8874C31.4636 56.9695 31.3583 57.0803 31.2827 57.2108C31.2071 57.3412 31.1633 57.4876 31.1548 57.6381Z" fill="#E0E0E0"/>
<path d="M31.1548 60.6952V61.2011C31.1548 61.4731 31.3506 61.59 31.59 61.4513L61.1999 44.3561C61.3261 44.2738 61.4313 44.1629 61.5069 44.0326C61.5825 43.9022 61.6264 43.7559 61.6351 43.6054V43.094C61.6351 42.822 61.4393 42.7051 61.1999 42.8438L31.59 59.9444C31.4636 60.0266 31.3583 60.1374 31.2827 60.2678C31.2071 60.3982 31.1633 60.5446 31.1548 60.6952Z" fill="#E0E0E0"/>
<path d="M31.1548 67.4698V67.9784C31.1548 68.2504 31.3506 68.3674 31.59 68.2287L61.1999 51.1362C61.3263 51.054 61.4315 50.9432 61.5071 50.8128C61.5828 50.6824 61.6266 50.536 61.6351 50.3855V49.8741C61.6351 49.6021 61.4393 49.4879 61.1999 49.6239L31.59 66.7191C31.4636 66.8012 31.3583 66.912 31.2827 67.0424C31.2071 67.1729 31.1633 67.3193 31.1548 67.4698Z" fill="#E0E0E0"/>
<path d="M31.1548 70.5467V71.0581C31.1548 71.3301 31.3506 71.4443 31.59 71.3083L61.1999 54.2077C61.3263 54.1255 61.4315 54.0147 61.5071 53.8843C61.5828 53.7539 61.6266 53.6075 61.6351 53.457V52.9456C61.6351 52.6736 61.4393 52.5566 61.1999 52.6954L31.59 69.796C31.4638 69.8783 31.3586 69.9892 31.283 70.1195C31.2074 70.2499 31.1635 70.3963 31.1548 70.5467Z" fill="#E0E0E0"/>
<path d="M31.1548 73.6068V74.1155C31.1548 74.3875 31.3506 74.5044 31.59 74.3657L61.1999 57.2651C61.3263 57.1829 61.4315 57.0721 61.5071 56.9417C61.5828 56.8113 61.6266 56.6649 61.6351 56.5144V56.003C61.6351 55.731 61.4393 55.6168 61.1999 55.7528L31.59 72.8561C31.4636 72.9383 31.3583 73.0491 31.2827 73.1795C31.2071 73.3099 31.1633 73.4563 31.1548 73.6068Z" fill="#E0E0E0"/>
<path d="M31.1548 80.3787V80.8901C31.1548 81.1621 31.3506 81.2763 31.59 81.1403L61.1999 64.0397C61.3263 63.9575 61.4315 63.8467 61.5071 63.7163C61.5828 63.5859 61.6266 63.4395 61.6351 63.289V62.7776C61.6351 62.5056 61.4393 62.3887 61.1999 62.5274L31.59 79.628C31.4638 79.7104 31.3586 79.8212 31.283 79.9516C31.2074 80.082 31.1635 80.2283 31.1548 80.3787Z" fill="#E0E0E0"/>
<path d="M31.1548 83.453V83.9616C31.1548 84.2336 31.3506 84.3506 31.59 84.2119L61.1999 67.1112C61.3262 67.0296 61.4315 66.9193 61.5071 66.7893C61.5827 66.6594 61.6266 66.5134 61.6351 66.3632V65.8518C61.6351 65.5798 61.4393 65.4629 61.1999 65.6016L31.59 82.7023C31.4636 82.7844 31.3583 82.8952 31.2827 83.0257C31.2071 83.1561 31.1633 83.3025 31.1548 83.453Z" fill="#E0E0E0"/>
<path d="M31.1548 86.51V87.0214C31.1548 87.2934 31.3506 87.4076 31.59 87.2716L61.1999 70.1764C61.3263 70.0942 61.4315 69.9835 61.5071 69.853C61.5828 69.7226 61.6266 69.5762 61.6351 69.4257V68.9143C61.6351 68.6423 61.4393 68.5254 61.1999 68.6641L31.59 85.7593C31.4638 85.8417 31.3586 85.9525 31.283 86.0829C31.2074 86.2133 31.1635 86.3596 31.1548 86.51Z" fill="#E0E0E0"/>
<path d="M46.3977 86.9203L61.6433 78.1211V78.4149L46.3977 87.2141V86.9203Z" fill="#E0E0E0"/>
<path d="M49.9446 82.3534C50.5783 81.929 51.2855 81.2137 51.1713 80.3678C51.1033 79.8537 50.6844 79.6551 50.2111 79.8374C49.2836 80.1937 48.6988 81.589 48.3751 82.4322C48.1031 83.1694 47.7305 84.5593 48.8375 84.7959C50.135 85.0679 51.1386 83.1639 51.4324 82.1738C51.4732 82.0351 51.2474 81.959 51.1822 82.0841C51.0679 82.3098 50.3036 83.8004 51.1441 83.6127C51.4433 83.5474 51.6146 83.0823 51.7234 82.8457C51.9138 82.4214 52.009 81.8311 52.3082 81.4666L52.0879 81.366C52.1015 81.7577 52.0879 82.0242 52.3599 82.3289C52.3806 82.3572 52.4116 82.3762 52.4463 82.3818C52.4809 82.3874 52.5163 82.3791 52.5449 82.3588C52.9746 81.959 53.0046 81.3089 53.4778 80.9471L53.2847 80.8546C53.2847 80.9798 53.2276 81.3361 53.2194 81.502C53.2194 81.5809 53.3255 81.6326 53.3881 81.6081C53.4495 81.5954 53.5068 81.5672 53.5543 81.5263C53.6019 81.4854 53.6383 81.433 53.6601 81.3742L53.4534 81.298C53.6329 82.2582 54.4516 81.298 54.7318 80.9335C55.5478 79.8455 56.1298 78.6786 56.1516 77.286C56.1516 77.1745 55.9422 77.1174 55.9394 77.2506C55.9204 78.3223 55.4526 79.3042 55.1506 80.3161C54.827 81.4041 54.5577 82.5166 54.3346 83.6372L54.5278 83.7079C54.5891 82.9149 54.7917 82.1393 55.1262 81.4177C55.3371 80.7749 55.6893 80.1875 56.157 79.6986L55.9775 79.6306C56.025 79.9103 56.0106 80.1969 55.9354 80.4704C55.8602 80.7439 55.7261 80.9976 55.5423 81.2137C55.4852 81.2871 55.613 81.4258 55.6702 81.3524C55.9694 80.977 56.4617 80.8574 56.7826 80.4929C57.0843 80.0834 57.3526 79.6505 57.585 79.1982L57.4382 79.1247C57.4191 80.0386 58.2814 78.6134 58.3983 78.461L58.2569 78.4066C58.314 78.5943 58.3902 78.7194 58.6023 78.7222C59.0239 78.7222 59.1817 78.1074 59.4999 78.0367C59.4999 78.0367 59.6386 78.1537 59.6876 78.1591C59.863 78.1848 60.042 78.1513 60.1962 78.0639C60.5519 77.8339 60.8394 77.5127 61.0286 77.1337C61.0775 77.0466 60.9116 76.9378 60.8572 77.033C60.6478 77.3866 59.995 78.325 59.5217 77.8654C59.4918 77.8382 59.4292 77.811 59.3966 77.849C59.2687 78.0068 58.537 78.8446 58.401 78.393C58.3847 78.3386 58.3058 78.2788 58.2623 78.3386C58.1508 78.4855 58.061 78.6487 57.9577 78.8038C57.9006 78.8881 57.5823 79.4239 57.5932 79.1519C57.5932 79.0866 57.4926 79.0105 57.4463 79.0785C57.1498 79.5327 56.9322 80.1284 56.5188 80.4983C56.2114 80.7703 55.8089 80.8737 55.5423 81.2028L55.6702 81.3415C55.8756 81.11 56.0269 80.8355 56.113 80.5382C56.1991 80.2408 56.2179 79.928 56.1679 79.6225C56.1639 79.6038 56.1553 79.5864 56.1429 79.572C56.1304 79.5575 56.1145 79.5463 56.0967 79.5396C56.0788 79.5328 56.0596 79.5306 56.0406 79.5332C56.0217 79.5358 56.0038 79.5431 55.9884 79.5545C55.4798 80.0223 55.1942 80.6806 54.9412 81.3116C54.6018 82.0484 54.3955 82.8394 54.3319 83.6481C54.3319 83.7324 54.5033 83.8276 54.525 83.7188C54.7549 82.5096 55.0537 81.3144 55.4199 80.1393C55.7191 79.1927 56.1244 78.2815 56.1434 77.2751L55.9313 77.2398C55.9112 78.2818 55.5827 79.2946 54.9874 80.1502C54.8351 80.3868 54.6746 80.6234 54.5006 80.8465C54.4244 80.9471 53.7498 81.8284 53.6628 81.317C53.6492 81.2436 53.505 81.1402 53.4561 81.2409L53.2602 81.415L53.4289 81.5183C53.4425 81.298 53.486 81.0913 53.4969 80.8682C53.4969 80.7839 53.3663 80.7295 53.3038 80.7785C52.8223 81.1457 52.787 81.7958 52.3545 82.1956L52.5394 82.2255C52.3925 81.9795 52.3207 81.6958 52.3327 81.4095C52.3327 81.3143 52.1858 81.2218 52.1124 81.3089C51.7806 81.706 51.6772 82.3398 51.4596 82.8022C51.3399 83.0551 50.9156 83.7297 51.0516 83.0116C51.1417 82.714 51.2706 82.4296 51.4351 82.1657L51.1849 82.0759C50.9292 82.9409 50.2465 84.2519 49.3135 84.5239C48.1222 84.8802 48.3289 83.4033 48.5465 82.745C48.8054 81.9781 49.1896 81.2593 49.6834 80.618C49.774 80.4903 49.8769 80.3718 49.9908 80.2644C50.2329 80.0468 50.3036 79.9924 50.6409 80.1855C50.9782 80.3786 50.9945 80.4847 50.9129 80.8492C50.863 81.0302 50.7879 81.2032 50.6898 81.3633C50.4744 81.6919 50.2039 81.9808 49.8902 82.2174C49.8466 82.2527 49.9092 82.3697 49.9582 82.3343L49.9446 82.3534Z" fill="#455A64"/>
<path d="M86.496 65.3839C85.5114 65.15 84.4261 65.8517 83.7923 67.3967C83.1586 68.9416 81.8883 72.8911 81.6163 73.9247C81.4967 74.3871 85.0109 78.4834 84.8803 78.4236C84.8422 78.4045 86.0254 76.4244 86.0254 76.4244L84.32 73.7996L85.408 70.9517L86.496 65.3839Z" fill="#FFBBBA"/>
<path d="M84.2166 102.048C84.0833 102.099 84.048 102.352 84.0289 102.864C84.0126 103.247 83.931 103.914 84.3798 104.047C84.8286 104.18 85.4842 104.112 85.7725 103.753C86.1196 103.27 86.4909 102.804 86.885 102.358C87.3283 101.879 87.8071 101.436 87.9866 100.767C88.1498 100.163 88.0138 99.9017 87.6031 99.7249C87.0346 99.4855 86.1451 100.269 85.699 100.397C85.321 100.5 84.3499 101.999 84.2166 102.048Z" fill="#263238"/>
<path d="M84.2167 101.581V102.201C84.4497 102.35 84.7189 102.433 84.9954 102.441C85.2719 102.449 85.5452 102.381 85.7861 102.245C85.8133 102.185 85.9493 101.355 85.9493 101.355L84.2167 101.581Z" fill="#FFBBBA"/>
<path d="M88.8353 105.348C88.7277 105.68 88.6369 106.018 88.5633 106.359C88.4844 106.735 88.3756 107.363 88.5088 107.643C88.6421 107.923 89.1508 108.108 89.9477 108.103C90.4618 108.103 91.2642 108.448 91.8136 108.756C92.3658 109.027 92.9902 109.113 93.5952 109.003C94.3024 108.919 95.0368 108.508 95.1511 108.217C95.2653 107.926 95.1184 107.782 93.4511 107.072C93.4348 107.072 91.694 106.278 90.8861 105.388L88.8353 105.348Z" fill="#263238"/>
<path d="M88.8352 104.676C88.8352 104.676 88.8352 105.135 88.8352 105.399C88.8352 105.663 89.1453 106.055 89.9504 106.028C90.5162 106.006 90.9106 105.854 90.8861 105.388V104.719L88.8352 104.676Z" fill="#FFBBBA"/>
<path d="M83.6047 92.9746C83.738 91.8853 83.9925 90.8142 84.3635 89.7814C84.3635 89.7814 84.0127 87.0342 83.8195 84.3958C83.4578 79.6657 83.7488 78.1207 84.6791 75.9991C84.6791 75.9991 92.6133 75.1831 92.8554 78.4934C93.1573 82.6006 92.7575 90.5375 92.6487 91.9873C92.5399 93.437 92.4039 94.0926 91.8925 97.1226C91.5008 99.4292 90.897 104.72 90.897 104.72C90.5779 104.882 90.2238 104.962 89.8661 104.955C89.5084 104.947 89.158 104.851 88.8461 104.676C88.8461 104.676 88.1987 98.0719 88.2667 96.3991C88.3146 95.1613 88.524 93.9351 88.8896 92.7516C88.8896 92.7516 88.3973 86.0577 88.2559 84.9915C88.2559 84.9915 88.0056 87.1158 87.8968 88.5655C87.788 90.0153 87.3528 91.4025 86.9394 94.098C86.5749 96.4345 85.8976 101.66 85.8976 101.66C84.845 102.231 84.2167 101.586 84.2167 101.586C84.2167 101.586 83.3218 95.001 83.6047 92.9746Z" fill="#064DD6"/>
<g opacity="0.35">
<path opacity="0.35" d="M83.6047 92.9746C83.738 91.8853 83.9925 90.8142 84.3635 89.7814C84.3635 89.7814 84.0127 87.0342 83.8195 84.3958C83.4578 79.6657 83.7488 78.1207 84.6791 75.9991C84.6791 75.9991 92.6133 75.1831 92.8554 78.4934C93.1573 82.6006 92.7575 90.5375 92.6487 91.9873C92.5399 93.437 92.4039 94.0926 91.8925 97.1226C91.5008 99.4292 90.897 104.72 90.897 104.72C90.5779 104.882 90.2238 104.962 89.8661 104.955C89.5084 104.947 89.158 104.851 88.8461 104.676C88.8461 104.676 88.1987 98.0719 88.2667 96.3991C88.3146 95.1613 88.524 93.9351 88.8896 92.7516C88.8896 92.7516 88.3973 86.0577 88.2559 84.9915C88.2559 84.9915 88.0056 87.1158 87.8968 88.5655C87.788 90.0153 87.3528 91.4025 86.9394 94.098C86.5749 96.4345 85.8976 101.66 85.8976 101.66C84.845 102.231 84.2167 101.586 84.2167 101.586C84.2167 101.586 83.3218 95.001 83.6047 92.9746Z" fill="black"/>
</g>
<path d="M90.5516 64.3137L90.1789 67.3792L87.4834 67.1371L87.7908 63.7344L90.5516 64.3137Z" fill="#FFBBBA"/>
<path d="M84.524 66.9101C84.8205 66.0941 85.8296 65.2047 86.8659 65.3978L87.6275 65.5365C87.6493 66.2437 88.9875 66.6082 90.3095 66.1812C90.7066 66.2954 91.0738 66.4124 91.3975 66.5293C92.3467 66.8693 92.7275 68.4333 92.7575 71.0826C92.7874 73.7319 93.0594 80.2953 93.0594 80.2953L91.936 80.6516L91.4192 78.7285L91.2098 81.0324C89.9485 81.3266 88.6356 81.32 87.3773 81.0133C84.5267 80.3905 83.64 78.8537 83.64 78.8537C83.9887 77.0747 84.6817 75.381 85.68 73.8679C84.2547 70.0681 84.0861 68.1151 84.524 66.9101Z" fill="#EBEBEB"/>
<path d="M92.5562 60.4196C92.7174 60.0534 92.7833 59.6523 92.7476 59.2537C92.712 58.8551 92.5759 58.472 92.3522 58.1403C91.4464 56.7204 89.7029 56.4783 87.6357 57.0332C86.9141 57.2542 86.2784 57.6926 85.8155 58.2885C85.3525 58.8844 85.0848 59.6087 85.0489 60.3625C84.9483 61.8775 89.1779 62.9955 89.08 64.0345L92.5562 60.4196Z" fill="#263238"/>
<path d="M92.6459 60.9961C92.6459 60.9961 93.2199 61.9155 93.1383 62.0107C92.9961 62.0988 92.8396 62.1614 92.6759 62.1956L92.6459 60.9961Z" fill="#FFBBBA"/>
<path d="M90.897 58.0804C91.4682 58.3959 92.4582 58.978 92.6595 61.1268C92.8662 63.33 92.3549 64.0808 92.0475 64.3609C91.8408 64.5513 90.7936 64.5921 90.255 64.4099C89.5805 64.1787 88.1226 63.4116 87.4616 62.2583C86.6837 60.8983 86.564 59.1167 87.5214 58.4503C88.0067 58.1078 88.571 57.8942 89.1614 57.8295C89.7519 57.7648 90.349 57.8511 90.897 58.0804Z" fill="#FFBBBA"/>
<path d="M91.0656 58.1781C91.0656 58.1781 91.5171 60.1963 90.8752 61.4421C90.8752 61.4421 90.5434 60.6506 89.8634 60.8573C89.1834 61.064 89.2187 61.9698 89.7383 62.4458C89.871 62.5818 90.0395 62.6776 90.2243 62.7219C90.4092 62.7661 90.6028 62.7572 90.7827 62.696C90.5536 63.2672 90.2102 63.7855 89.7736 64.2192C89.7736 64.2192 87.7635 65.1141 86.0255 63.1502C84.4451 61.3686 84.7389 58.2542 87.157 57.528C89.5751 56.8018 91.0656 58.1781 91.0656 58.1781Z" fill="#263238"/>
<path d="M85.3346 58.3851C85.4297 58.4667 85.4885 58.5827 85.4982 58.7076C85.5079 58.8326 85.4676 58.9562 85.3863 59.0515L84.6682 58.4341C84.7086 58.3869 84.7579 58.3482 84.8134 58.3201C84.8688 58.2921 84.9293 58.2753 84.9912 58.2708C85.0532 58.2662 85.1154 58.274 85.1743 58.2936C85.2333 58.3133 85.2878 58.3444 85.3346 58.3851Z" fill="#263238"/>
<path d="M98.2274 71.3951C98.619 70.949 98.7714 69.9535 99.2882 69.2735C99.805 68.5935 100.001 68.0957 100.208 68.3922C100.48 68.7866 99.8648 69.5727 100.001 69.6515C100.137 69.7304 100.648 70.7667 100.7 71.3434C100.752 71.92 99.2256 73.3671 99.2256 73.3671L98.2274 71.3951Z" fill="#FFBBBA"/>
<path d="M99.9573 69.5623C99.9573 69.5623 101.801 69.4045 102.071 69.5623C102.34 69.7201 102.258 70.5197 102.071 71.0093C101.883 71.4989 100.942 71.8253 100.069 72.4074C100.069 72.3204 99.9573 69.5623 99.9573 69.5623Z" fill="#FFBBBA"/>
<path d="M91.169 66.457C91.9605 66.729 92.6541 67.0527 93.394 68.4426C94.3432 70.2297 96.0732 73.7276 96.0732 73.7276L98.2274 71.3965C98.2274 71.3965 98.5402 70.9559 99.1223 71.9188C99.7044 72.8817 99.4487 73.1482 99.4487 73.1482C99.4487 73.1482 96.9436 76.5047 96.4839 76.9318C96.0242 77.3588 95.268 77.027 94.773 76.3551C94.278 75.6833 91.169 71.791 91.169 71.791C91.169 71.791 89.469 69.5551 91.169 66.457Z" fill="#FFBBBA"/>
<path opacity="0.2" d="M88.2559 84.9875L88.1035 83.3854C87.2402 83.2569 86.4146 82.9443 85.6827 82.4688C85.6827 82.4688 86.1995 83.2847 87.6139 83.671L87.7608 85.711L87.8479 89.0566L88.2559 84.9875Z" fill="black"/>
<path d="M82.6064 66.0338C82.9737 66.0348 83.3376 65.9635 83.6773 65.8237C84.017 65.684 84.3258 65.4787 84.586 65.2194C84.8462 64.9602 85.0528 64.6522 85.1939 64.3131C85.3349 63.974 85.4077 63.6103 85.4081 63.2431V59.0026C85.088 58.8987 84.7478 58.872 84.4155 58.9248C84.0831 58.9776 83.7679 59.1083 83.4957 59.3062C83.2236 59.5041 83.0021 59.7636 82.8494 60.0635C82.6967 60.3634 82.6172 60.6952 82.6173 61.0317L82.6064 66.0338Z" fill="#263238"/>
<path d="M92.8173 73.8614C92.8173 73.8614 91.2696 71.8649 90.7746 71.0625L92.8717 75.4907L92.8173 73.8614Z" fill="#E0E0E0"/>
<path d="M106.387 57.4659C105.8 59.1985 104.546 64.3665 104.546 64.3665C104.546 64.3665 102.155 67.5462 101.497 68.1527C101.132 68.49 100.308 69.0966 100.308 69.0966L100.994 69.6025C100.994 69.6025 102.136 69.2543 102.231 69.8745C103.422 68.9161 104.549 67.8803 105.604 66.7737C105.87 66.4958 106.058 66.1523 106.148 65.7782L107.168 61.3908C107.168 61.3908 107.168 57.8548 107.712 57.3924C108.256 56.93 108.041 55.8828 108.041 55.8828C107.668 55.8937 106.85 56.1086 106.387 57.4659Z" fill="#FFCFCE"/>
<path d="M108.06 55.707C108.227 56.175 108.429 56.6296 108.664 57.067C108.903 57.4778 107.073 64.8626 106.95 65.412C106.828 65.9614 103.278 69.1629 103.278 69.1629C102.637 68.8915 102.128 68.3799 101.859 67.7376L104.421 64.4029C104.421 64.4029 105.218 60.905 105.637 59.3002C106.056 57.6954 106.502 55.8811 108.06 55.707Z" fill="#064DD6"/>
<path opacity="0.1" d="M108.06 55.707C108.227 56.175 108.429 56.6296 108.664 57.067C108.903 57.4778 107.073 64.8626 106.95 65.412C106.828 65.9614 103.278 69.1629 103.278 69.1629C102.637 68.8915 102.128 68.3799 101.859 67.7376L104.421 64.4029C104.421 64.4029 105.218 60.905 105.637 59.3002C106.056 57.6954 106.502 55.8811 108.06 55.707Z" fill="black"/>
<path d="M115.557 90.4141H113.789V93.4442H115.557V90.4141Z" fill="#FFCFCE"/>
<path d="M108.321 91.1456L106.553 91.2081L106.466 88.0012L108.321 87.9414V91.1456Z" fill="#FFCFCE"/>
<path d="M115.309 68.7891C115.309 70.4782 115.426 80.3028 115.426 80.3028C115.467 80.787 115.935 81.6628 115.97 83.4036C116.022 85.9441 115.63 91.9254 115.63 91.9254C115.324 92.0753 114.99 92.1563 114.65 92.1629C114.309 92.1695 113.972 92.1014 113.661 91.9635C113.661 91.9635 112.271 83.5043 111.955 80.9883C111.683 78.796 110.723 72.9398 110.723 72.9398L109.363 80.3545C109.568 81.277 109.642 82.2238 109.583 83.167C109.499 84.3284 108.422 90.1519 108.422 90.1519C108.114 90.3263 107.771 90.4309 107.418 90.4581C107.065 90.4854 106.71 90.4347 106.379 90.3097C106.379 90.3097 106.273 81.1678 106.254 80.1015C106.23 78.8857 106.76 68.4219 106.76 68.4219L115.309 68.7891Z" fill="#37474F"/>
<path d="M113.788 92.5673V92.3143C113.693 92.3143 113.636 92.4068 113.598 92.6326C113.573 92.8012 113.538 92.9683 113.495 93.133C113.417 93.4427 113.314 93.7456 113.187 94.0388C112.937 94.6562 112.728 94.8847 112.154 95.6055C111.959 95.8052 111.778 96.0169 111.61 96.2393C111.504 96.4297 111.466 96.9574 111.648 97.0798C112.314 97.5258 113.329 97.5367 114.047 97.3273C114.314 97.2523 114.554 97.1022 114.739 96.8949C114.924 96.6876 115.045 96.4318 115.089 96.1577C115.116 95.9945 115.105 95.8258 115.124 95.6626C115.187 95.2893 115.339 94.9367 115.567 94.6345C115.7 94.46 115.814 94.2722 115.907 94.0742C116.054 93.7124 115.937 93.3017 115.842 92.9399C115.76 92.6271 115.671 92.2844 115.57 92.3143V92.5047C115.318 92.7042 115.005 92.8099 114.683 92.8039C114.414 92.8148 113.786 92.7631 113.788 92.5673Z" fill="#263238"/>
<path d="M106.534 90.6623C106.442 90.6623 106.368 90.7956 106.164 91.0159C105.861 91.3206 105.51 91.5733 105.125 91.7639C104.462 92.0957 103.175 92.6044 102.59 92.8682C102.226 93.0314 102.245 93.472 102.62 93.7223C102.996 93.9725 103.907 94.1521 104.997 93.91C105.59 93.7767 106.357 93.2272 106.855 93.2572C107.353 93.2871 108.261 93.2789 108.623 93.0287C108.985 92.7784 108.841 92.248 108.737 91.7911C108.626 91.2933 108.487 90.5127 108.321 90.548V90.7194C108.109 91.0431 107.01 91.1736 106.545 90.937L106.534 90.6623Z" fill="#263238"/>
<path d="M110.726 72.9414C109.81 72.6585 108.967 72.1785 108.256 71.5352C108.256 71.5352 108.732 72.4273 110.16 73.2542L109.475 79.8502L110.726 72.9414Z" fill="#263238"/>
<path d="M112.241 55.8289C112.845 55.9758 114.058 56.1743 114.33 57.3738C114.656 58.8127 114.762 61.9489 114.762 61.9489L114.874 68.9284C113.655 69.8151 109.181 70.2884 106.616 68.4252C106.616 68.4252 106.931 60.0476 106.931 58.742C106.931 57.4364 107.655 55.8697 109.651 55.75L112.241 55.8289Z" fill="#F5F5F5"/>
<path d="M109.684 55.6194C109.134 56.0802 108.736 56.6965 108.542 57.3874C108.297 58.4428 108.27 70.2285 108.27 70.2285C108.27 70.2285 107.018 69.9973 106.434 69.5376C106.434 69.5376 106.507 60.2352 106.627 58.6957C106.809 56.3647 106.79 55.7037 109.692 55.4453L109.684 55.6194Z" fill="#064DD6"/>
<path d="M112.768 55.4453C112.768 55.4453 111.101 56.4708 111.082 60.5535C111.066 64.0895 110.949 70.2285 110.949 70.2285C110.949 70.2285 113.71 70.6338 115.459 69.5893C115.459 69.5893 115.668 61.0322 115.633 59.7076C115.595 58.1898 115.241 56.2287 114.754 56.0328C114.108 55.7879 113.444 55.5915 112.768 55.4453Z" fill="#064DD6"/>
<path d="M118.97 64.8166C117.311 58.033 116.084 55.7699 114.074 55.7971C113.484 56.4989 113.647 58.6259 114.577 59.9152C114.577 59.9152 116.653 64.289 116.982 65.8448C117.273 67.2048 117.602 68.932 117.583 70.107C117.576 70.3148 117.494 70.513 117.352 70.6646C116.974 71.0754 116.971 71.4072 116.726 71.8614C116.533 72.215 116.324 72.3483 116.383 72.4299C116.463 72.5141 116.571 72.5655 116.686 72.5741C116.801 72.5827 116.915 72.5477 117.006 72.4762C117.183 72.3471 117.342 72.1943 117.477 72.0219C117.412 72.457 117.286 72.8808 117.104 73.2813C116.677 74.2414 116.78 74.731 118.078 74.3883C118.894 74.1734 119.4 73.4989 119.52 71.5459C119.579 70.8275 119.587 70.1057 119.541 69.3862C119.364 67.5366 119.239 65.9101 118.97 64.8166Z" fill="#FFCFCE"/>
<path d="M113.723 55.6848C113.723 55.6848 115.059 55.6249 115.782 56.3566C116.506 57.0883 117.482 58.6278 118.429 61.9925C119.375 65.3571 119.666 67.816 119.713 69.7091C119.713 69.7091 118.527 70.2531 117.433 69.633C117.433 69.633 116.949 66.7035 116.519 65.1449C116.09 63.5864 114.488 60.3033 114.488 60.3033C114.488 60.3033 112.956 58.0267 113.723 55.6848Z" fill="#064DD6"/>
<path opacity="0.1" d="M113.723 55.6848C113.723 55.6848 115.059 55.6249 115.782 56.3566C116.506 57.0883 117.482 58.6278 118.429 61.9925C119.375 65.3571 119.666 67.816 119.713 69.7091C119.713 69.7091 118.527 70.2531 117.433 69.633C117.433 69.633 116.949 66.7035 116.519 65.1449C116.09 63.5864 114.488 60.3033 114.488 60.3033C114.488 60.3033 112.956 58.0267 113.723 55.6848Z" fill="black"/>
<path opacity="0.1" d="M112.956 57.6758L112.192 58.6196L112.575 59.6967L111.572 62.2699L112.779 59.6967L112.358 58.6795L112.956 57.6758Z" fill="black"/>
<path opacity="0.1" d="M107.571 57.3711L107.737 58.3476L107.076 59.2098L107.995 62.1039L107.282 59.2425L107.892 58.4373L107.571 57.3711Z" fill="black"/>
<path d="M111.781 50.4063C111.996 49.0807 111.096 47.8316 109.771 47.6164C108.445 47.4012 107.196 48.3014 106.981 49.6271C106.766 50.9527 107.666 52.2018 108.991 52.417C110.317 52.6321 111.566 51.7319 111.781 50.4063Z" fill="#263238"/>
<path d="M113.582 51.7422C113.582 51.7422 113.187 53.5945 113.038 53.8992C112.932 54.0859 112.759 54.225 112.554 54.2881L112.581 52.9852L113.582 51.7422Z" fill="#263238"/>
<path d="M113.087 49.0916C113.225 49.0761 113.365 49.0926 113.496 49.1397C113.628 49.1869 113.746 49.2635 113.843 49.3636C114.167 49.6954 113.987 50.7236 113.571 51.749L112.828 51.8333L113.087 49.0916Z" fill="#263238"/>
<path d="M112.608 51.8276C112.758 51.9146 112.97 51.629 113.152 51.4386C113.224 51.3543 113.316 51.2898 113.42 51.2515C113.524 51.2131 113.636 51.2022 113.745 51.2197C113.854 51.2372 113.957 51.2825 114.044 51.3514C114.131 51.4202 114.198 51.5102 114.24 51.6127C114.545 52.2546 113.968 53.1033 113.506 53.2447C112.69 53.5004 112.57 52.9727 112.57 52.9727L112.51 55.9946C111.947 56.7154 110.685 57.5641 110.005 57.4417C109.461 57.3465 109.344 56.4298 109.864 55.8287V54.942C109.504 54.9992 109.139 55.0175 108.776 54.9964C108.177 54.9039 107.802 54.4334 107.62 53.786C107.328 52.747 107.217 51.9092 107.464 49.8638C107.736 47.6225 110.342 47.6007 111.748 48.4847C113.155 49.3687 112.608 51.8276 112.608 51.8276Z" fill="#FFCFCE"/>
<path d="M112.608 52.0787C112.684 52.0787 112.97 51.6081 113.152 51.4395C113.408 51.2056 113.076 49.0894 113.076 49.0894C113.165 48.9033 113.195 48.6947 113.164 48.4909C113.132 48.2871 113.04 48.0976 112.899 47.947C112.548 47.5608 112.059 47.0875 110.451 47.2779C109.314 47.4112 108.076 47.7648 107.076 47.2779C106.983 47.6041 106.99 47.9506 107.096 48.2729C107.201 48.5951 107.401 48.8785 107.668 49.0867C108.078 49.2902 108.525 49.4086 108.982 49.4348C109.861 49.5013 110.745 49.4849 111.621 49.3859C111.893 49.3478 111.955 49.6144 112.105 50.346C112.257 50.9852 112.366 52.0732 112.608 52.0787Z" fill="#263238"/>
<path d="M113.087 49.2563L113.987 48.7721C113.958 48.7114 113.917 48.6572 113.867 48.6128C113.817 48.5683 113.758 48.5345 113.694 48.5134C113.63 48.4924 113.563 48.4844 113.496 48.49C113.429 48.4957 113.364 48.5148 113.304 48.5463C113.185 48.6151 113.096 48.7266 113.056 48.8584C113.015 48.9902 113.026 49.1324 113.087 49.2563Z" fill="#263238"/>
<path d="M109.869 54.9451C110.484 54.8278 111.086 54.6548 111.67 54.4283C111.944 54.2851 112.169 54.0623 112.314 53.7891C112.244 54.0625 112.119 54.3188 111.947 54.5425C111.607 54.9777 109.869 55.2987 109.869 55.2987V54.9451Z" fill="#FFA9A8"/>
<path d="M110.19 51.4947C110.19 51.5668 110.219 51.636 110.27 51.687C110.321 51.738 110.39 51.7667 110.462 51.7667C110.534 51.7667 110.603 51.738 110.654 51.687C110.705 51.636 110.734 51.5668 110.734 51.4947C110.734 51.4225 110.705 51.3533 110.654 51.3023C110.603 51.2513 110.534 51.2227 110.462 51.2227C110.39 51.2227 110.321 51.2513 110.27 51.3023C110.219 51.3533 110.19 51.4225 110.19 51.4947Z" fill="#263238"/>
<path d="M110.473 50.4844L111.044 50.8C111.085 50.7212 111.093 50.6299 111.069 50.5449C111.044 50.4598 110.987 50.3876 110.911 50.343C110.873 50.3225 110.831 50.31 110.788 50.306C110.746 50.3021 110.702 50.3069 110.661 50.3201C110.621 50.3333 110.583 50.3547 110.55 50.3829C110.518 50.4112 110.491 50.4457 110.473 50.4844Z" fill="#263238"/>
<path d="M109.989 53.3398L109.379 53.5683C109.392 53.6095 109.413 53.6476 109.441 53.6804C109.469 53.7131 109.504 53.7399 109.542 53.759C109.581 53.778 109.623 53.7891 109.666 53.7914C109.709 53.7937 109.752 53.7872 109.793 53.7723C109.875 53.7395 109.941 53.6761 109.978 53.5955C110.014 53.5149 110.018 53.4233 109.989 53.3398Z" fill="#FFA9A8"/>
<path d="M107.804 50.7066L108.327 50.3041C108.302 50.2689 108.271 50.239 108.234 50.2162C108.198 50.1935 108.157 50.1784 108.115 50.1718C108.072 50.1651 108.029 50.1672 107.987 50.1778C107.946 50.1884 107.907 50.2073 107.872 50.2334C107.803 50.2887 107.757 50.3685 107.744 50.4565C107.732 50.5445 107.753 50.634 107.804 50.7066Z" fill="#263238"/>
<path d="M107.965 51.4087C107.965 51.4809 107.994 51.55 108.045 51.6011C108.096 51.6521 108.165 51.6807 108.237 51.6807C108.309 51.6807 108.378 51.6521 108.429 51.6011C108.48 51.55 108.509 51.4809 108.509 51.4087C108.509 51.3366 108.48 51.2674 108.429 51.2164C108.378 51.1654 108.309 51.1367 108.237 51.1367C108.165 51.1367 108.096 51.1654 108.045 51.2164C107.994 51.2674 107.965 51.3366 107.965 51.4087Z" fill="#263238"/>
<path d="M109.328 51.1641L109.241 52.7716L108.4 52.486L109.328 51.1641Z" fill="#FFA9A8"/>
<path d="M109.037 57.2675C109.2 57.6592 109.504 57.8115 110.051 57.8795C110.328 57.8965 110.605 57.8571 110.866 57.7636C111.127 57.67 111.366 57.5244 111.569 57.3355L110.889 56.6582L110.021 57.3083L109.948 56.582L109.037 57.2675Z" fill="#064DD6"/>
<path opacity="0.1" d="M109.037 57.2675C109.2 57.6592 109.504 57.8115 110.051 57.8795C110.328 57.8965 110.605 57.8571 110.866 57.7636C111.127 57.67 111.366 57.5244 111.569 57.3355L110.889 56.6582L110.021 57.3083L109.948 56.582L109.037 57.2675Z" fill="black"/>
<path d="M109.466 57.0586C109.386 57.2937 109.356 57.5428 109.377 57.7903C109.403 58.0107 109.487 58.2201 109.621 58.3968C109.708 58.4524 109.806 58.4872 109.908 58.4985C110.01 58.5098 110.113 58.4974 110.209 58.4621C110.385 58.3109 110.526 58.1236 110.624 57.9128C110.721 57.7021 110.771 57.4729 110.772 57.2408L110.021 57.3252L109.466 57.0586Z" fill="#064DD6"/>
<path d="M109.616 58.3945C109.616 58.3945 108.727 63.2905 108.691 63.6931C108.656 64.0957 109.2 65.4937 109.54 65.5046C109.88 65.5155 110.544 64.2453 110.552 63.8726C110.56 63.5 110.204 58.4462 110.204 58.4462L109.616 58.3945Z" fill="#064DD6"/>
<path opacity="0.1" d="M110.209 58.4598C110.114 58.5018 110.01 58.5179 109.906 58.5064C109.803 58.495 109.705 58.4564 109.621 58.3945V58.4734C109.706 58.5411 109.806 58.5874 109.913 58.6082C110.019 58.6291 110.129 58.6239 110.233 58.5931L110.209 58.4598Z" fill="black"/>
<path d="M110.021 57.3252L112.524 55.4212V54.8555C112.524 54.8555 113.106 55.0758 113.236 56.1012C112.835 56.9905 112.149 57.7207 111.286 58.1766L110.761 57.2409L110.021 57.3252Z" fill="#E0E0E0"/>
<path d="M109.869 55.1133C109.542 55.165 109.249 55.3439 109.053 55.611C108.803 56.0218 108.86 57.6021 108.86 57.6021L109.458 57.0581L110.002 57.3301C109.951 56.8051 109.847 55.8477 109.847 55.8477L109.869 55.1133Z" fill="#E0E0E0"/>
<path d="M100.096 72.4247C100.33 72.0964 100.466 71.7091 100.49 71.3068C100.561 70.7927 101.97 70.2406 102.016 70.6241C102.063 71.0076 102.19 71.3259 101.744 71.791C101.298 72.2561 100.752 72.7702 100.096 72.4247Z" fill="#FFCFCE"/>
<path d="M100.169 69.1036C99.8322 69.5388 99.6255 70.3847 99.4459 70.6703C99.2664 70.9559 99.0543 71.2143 99.4459 71.2551C99.8376 71.2959 100.406 70.5452 100.618 70.0828C100.701 69.8999 100.826 69.7394 100.983 69.6149C101.045 69.5653 101.113 69.525 101.187 69.4953C101.005 69.4327 101.1 68.6983 100.972 68.5977C100.972 68.5977 100.308 68.8697 100.169 69.1036Z" fill="#FFCFCE"/>
</svg>
