<svg width="24" height="24" viewBox="0 0 24 24" fill="none" xmlns="http://www.w3.org/2000/svg">
<circle cx="12" cy="12" r="12" fill="#FF6C0E"/>
<path d="M18.8536 5.1466C18.7842 5.07708 18.6958 5.02957 18.5994 5.01001C18.5031 4.99044 18.4032 4.99969 18.3121 5.0366L5.23062 10.3401C5.14303 10.3751 5.06711 10.4341 5.01164 10.5104C4.95616 10.5867 4.9234 10.6771 4.91712 10.7712C4.91085 10.8653 4.93132 10.9593 4.97618 11.0423C5.02103 11.1252 5.08844 11.1938 5.17062 11.2401L9.55012 13.7411L12.8436 10.4501C12.9386 10.3627 13.0636 10.3154 13.1926 10.3181C13.3216 10.3208 13.4446 10.3732 13.5358 10.4644C13.627 10.5557 13.6795 10.6786 13.6821 10.8076C13.6848 10.9366 13.6375 11.0617 13.5501 11.1566L10.2586 14.4501L12.7626 18.8311C12.8066 18.9073 12.87 18.9706 12.9463 19.0145C13.0226 19.0584 13.1091 19.0814 13.1971 19.0811H13.2306C13.3242 19.0748 13.4141 19.0422 13.49 18.9872C13.5659 18.9322 13.6249 18.857 13.6601 18.7701L18.9636 5.6876C19.0004 5.59659 19.0096 5.49675 18.9901 5.40055C18.9705 5.30434 18.923 5.21602 18.8536 5.1466Z" fill="white"/>
</svg>

