<svg width="48" height="48" viewBox="0 0 48 48" fill="none" xmlns="http://www.w3.org/2000/svg">
<g clip-path="url(#clip0_162_279)">
<path d="M38.4 0H4C1.7944 0 0 1.7944 0 4V23.2C0 25.0256 1.2336 26.6192 3 27.0736C3.0672 27.0904 3.1336 27.0992 3.2 27.0992C3.556 27.0992 3.8816 26.86 3.9744 26.4992C4.0848 26.0712 3.8272 25.6352 3.3992 25.5248C2.34 25.2512 1.6 24.296 1.6 23.2V8H35.2C35.6424 8 36 7.6416 36 7.2C36 6.7584 35.6424 6.4 35.2 6.4H1.6V4C1.6 2.6768 2.6768 1.6 4 1.6H38.4C39.7232 1.6 40.8 2.6768 40.8 4V11.2H7.2C6.7584 11.2 6.4 11.5584 6.4 12C6.4 12.4416 6.7584 12.8 7.2 12.8H40.8V18.4C40.8 18.8416 41.1576 19.2 41.6 19.2C42.0424 19.2 42.4 18.8416 42.4 18.4V4C42.4 1.7944 40.6056 0 38.4 0Z" fill="#064DD6"/>
<path d="M36.8001 15.2H30.4001C29.9577 15.2 29.6001 15.5584 29.6001 16C29.6001 16.4416 29.9577 16.8 30.4001 16.8H36.8001C37.2425 16.8 37.6001 16.4416 37.6001 16C37.6001 15.5584 37.2425 15.2 36.8001 15.2Z" fill="#064DD6"/>
<path d="M25.6 15.2H21.6C21.1584 15.2 20.8 15.5584 20.8 16C20.8 16.4416 21.1584 16.8 21.6 16.8H25.6C26.0424 16.8 26.4 16.4416 26.4 16C26.4 15.5584 26.0424 15.2 25.6 15.2Z" fill="#064DD6"/>
<path d="M44.0001 20.8H9.6001C7.3945 20.8 5.6001 22.5944 5.6001 24.8V44C5.6001 46.2056 7.3945 48 9.6001 48H44.0001C46.2057 48 48.0001 46.2056 48.0001 44V24.8C48.0001 22.5944 46.2057 20.8 44.0001 20.8ZM46.4001 44C46.4001 45.3232 45.3233 46.4 44.0001 46.4H9.6001C8.2769 46.4 7.2001 45.3232 7.2001 44V24.8C7.2001 23.4768 8.2769 22.4 9.6001 22.4H44.0001C45.3233 22.4 46.4001 23.4768 46.4001 24.8V44Z" fill="#064DD6"/>
<path d="M37.16 28.3464C35.3544 28.3464 33.6496 29.036 32.36 30.264C31.0704 29.036 29.3656 28.3464 27.56 28.3464C23.7144 28.3464 20.5864 31.4752 20.5864 35.32C20.5864 39.1648 23.7152 42.2936 27.56 42.2936C29.3648 42.2936 31.0704 41.604 32.36 40.3768C33.6496 41.6048 35.3552 42.2936 37.16 42.2936C41.0056 42.2936 44.1336 39.1656 44.1336 35.32C44.1336 31.4744 41.0056 28.3464 37.16 28.3464ZM37.16 40.6936C35.5328 40.6936 34.0096 39.9656 32.9816 38.6952C32.8304 38.5072 32.6008 38.3984 32.36 38.3984C32.1192 38.3984 31.8896 38.5072 31.7384 38.6952C30.7112 39.9648 29.188 40.6936 27.56 40.6936C24.5968 40.6936 22.1864 38.2832 22.1864 35.32C22.1864 32.3568 24.5968 29.9464 27.56 29.9464C29.1872 29.9464 30.7104 30.6752 31.7384 31.9448C32.0416 32.3208 32.6792 32.3208 32.9824 31.9448C34.0096 30.6752 35.5328 29.9464 37.1608 29.9464C40.124 29.9464 42.5344 32.3568 42.5344 35.32C42.5336 38.2832 40.1232 40.6936 37.16 40.6936Z" fill="#FF6C0E"/>
<path d="M37.3657 34.6344L35.7657 33.0344C35.4529 32.7216 34.9473 32.7216 34.6345 33.0344C34.3217 33.3472 34.3217 33.8528 34.6345 34.1656L34.8689 34.4H28.8001C28.5225 34.4 28.2657 34.544 28.1193 34.7792C27.9729 35.0152 27.9601 35.3096 28.0841 35.5576L28.8841 37.1576C29.0249 37.4384 29.3073 37.6 29.6009 37.6C29.7209 37.6 29.8433 37.5728 29.9577 37.516C30.3529 37.3184 30.5129 36.8376 30.3153 36.4424L30.0945 36H36.8001C37.1233 36 37.4161 35.8048 37.5393 35.5064C37.6633 35.2072 37.5945 34.8632 37.3657 34.6344Z" fill="#FF6C0E"/>
<path d="M16.0001 31.2H12.0001C10.6769 31.2 9.6001 32.2768 9.6001 33.6V37.6C9.6001 38.9232 10.6769 40 12.0001 40H16.0001C17.3233 40 18.4001 38.9232 18.4001 37.6V33.6C18.4001 32.2768 17.3233 31.2 16.0001 31.2ZM12.8001 38.4H12.0001C11.5593 38.4 11.2001 38.0408 11.2001 37.6V36.8H12.8001V38.4ZM12.8001 35.2H11.2001V33.6C11.2001 33.1592 11.5593 32.8 12.0001 32.8H12.8001V35.2ZM16.8001 37.6C16.8001 38.0408 16.4409 38.4 16.0001 38.4H14.4001V36H16.8001V37.6ZM16.8001 34.4H14.4001V32.8H16.0001C16.4409 32.8 16.8001 33.1592 16.8001 33.6V34.4Z" fill="#FF6C0E"/>
<path d="M17.5999 24H11.1999C10.7583 24 10.3999 24.3584 10.3999 24.8C10.3999 25.2416 10.7583 25.6 11.1999 25.6H17.5999C18.0415 25.6 18.3999 25.2416 18.3999 24.8C18.3999 24.3584 18.0415 24 17.5999 24Z" fill="#064DD6"/>
<path d="M22.4 24H20.8C20.3584 24 20 24.3584 20 24.8C20 25.2416 20.3584 25.6 20.8 25.6H22.4C22.8416 25.6 23.2 25.2416 23.2 24.8C23.2 24.3584 22.8416 24 22.4 24Z" fill="#064DD6"/>
</g>
<defs>
<clipPath id="clip0_162_279">
<rect width="48" height="48" fill="white"/>
</clipPath>
</defs>
</svg>
