<svg width="9" height="12" viewBox="0 0 9 12" fill="none" xmlns="http://www.w3.org/2000/svg">
<path d="M8.29275 6.00915L4.56308 9.52482C4.38552 9.69168 4.01218 9.69168 3.83462 9.52482L0.104949 6.00915C-0.0557682 5.85739 -0.0229781 5.6363 0.177802 5.51476C0.37995 5.39253 0.672698 5.41861 0.833416 5.56969L4.19885 8.74238L7.56429 5.56969C7.72656 5.41779 8.0194 5.39398 8.2199 5.51476C8.42071 5.6363 8.45347 5.85739 8.29275 6.00915Z" fill="url(#paint0_linear_848_21907)"/>
<path d="M8.29034 3.7354L4.56067 7.25107C4.38311 7.41793 4.00977 7.41793 3.83224 7.25107L0.10257 3.7354C-0.140947 3.50548 0.0765861 3.1641 0.466803 3.1641H1.86543L1.86543 0.351567C1.86543 0.157244 2.07395 0 2.33164 0H6.06131C6.319 0 6.52752 0.157244 6.52752 0.351567L6.52752 3.1641L7.92614 3.1641C8.31636 3.1641 8.53386 3.50548 8.29034 3.7354ZM0.175423 7.86479C0.377571 7.74291 0.670319 7.76832 0.831036 7.91973L4.19647 11.0924L7.56191 7.91973C7.72418 7.76783 8.01705 7.74402 8.21752 7.86479C8.4183 7.98634 8.45109 8.20743 8.29037 8.35919L4.56071 11.8749C4.38314 12.0417 4.0098 12.0417 3.83227 11.8749L0.102601 8.35919C-0.058148 8.20743 -0.0253579 7.98632 0.175423 7.86479Z" fill="url(#paint1_linear_848_21907)"/>
<defs>
<linearGradient id="paint0_linear_848_21907" x1="4.19888" y1="5.4375" x2="4.19888" y2="9.64996" gradientUnits="userSpaceOnUse">
<stop stop-color="#FFC3C3"/>
<stop offset="0.9973" stop-color="#FFF0F0"/>
</linearGradient>
<linearGradient id="paint1_linear_848_21907" x1="4.19647" y1="0" x2="4.19647" y2="12" gradientUnits="userSpaceOnUse">
<stop stop-color="#B50000"/>
<stop offset="1" stop-color="#FF9C9C"/>
</linearGradient>
</defs>
</svg>
