<svg width="96" height="96" viewBox="0 0 96 96" fill="none" xmlns="http://www.w3.org/2000/svg">
<path d="M17.8053 62.4694C9.66221 62.3032 4.10471 46.8631 8.3392 36.2143C14.1147 21.6914 41.0195 13.2246 57.7114 13.2461C66.4717 13.2461 80.373 13.2461 88.1427 30.6287C92.2585 39.8336 91.6931 66.3046 78.586 69.8139C57.8538 75.3671 57.884 54.6457 49.6654 53.709C37.9439 52.3731 36.1094 62.832 17.8053 62.4694Z" fill="#064DD6"/>
<path opacity="0.9" d="M17.8053 62.4694C9.66221 62.3032 4.10471 46.8631 8.3392 36.2143C14.1147 21.6914 41.0195 13.2246 57.7114 13.2461C66.4717 13.2461 80.373 13.2461 88.1427 30.6287C92.2585 39.8336 91.6931 66.3046 78.586 69.8139C57.8538 75.3671 57.884 54.6457 49.6654 53.709C37.9439 52.3731 36.1094 62.832 17.8053 62.4694Z" fill="white"/>
<path d="M47.6063 82.6949C70.7175 82.6949 89.4527 81.601 89.4527 80.2517C89.4527 78.9024 70.7175 77.8086 47.6063 77.8086C24.4953 77.8086 5.76001 78.9024 5.76001 80.2517C5.76001 81.601 24.4953 82.6949 47.6063 82.6949Z" fill="#F5F5F5"/>
<path d="M59.0558 59.5194C59.0558 59.3381 59.045 59.159 59.0299 58.982L60.0831 58.3971C60.0047 57.8977 59.8738 57.4079 59.6925 56.936L58.4882 56.9576C58.3371 56.6314 58.1573 56.3194 57.9508 56.0252L58.5702 54.9936C58.2488 54.6007 57.8871 54.2427 57.4911 53.9252L56.4594 54.5447C56.166 54.3375 55.8547 54.157 55.5292 54.0051L55.5486 52.803C55.0774 52.6212 54.5884 52.4896 54.0897 52.4102L53.5048 53.4634C53.3256 53.4483 53.1487 53.4396 52.9674 53.4396C52.7861 53.4396 52.6069 53.4396 52.43 53.4634L51.8451 52.4102C51.3456 52.4893 50.8558 52.6209 50.3839 52.803L50.4034 54.0051C50.0781 54.1574 49.7668 54.3379 49.4732 54.5447L48.4415 53.9252C48.0449 54.242 47.6831 54.6001 47.3624 54.9936L47.9796 56.0252C47.7731 56.3194 47.5933 56.6314 47.4422 56.9576L46.2401 56.936C46.0581 57.4079 45.9264 57.8976 45.8473 58.3971L46.9005 58.982C46.8854 59.159 46.8768 59.3381 46.8768 59.5194C46.8768 59.7007 46.8768 59.8799 46.9005 60.0568L45.8473 60.6417C45.9264 61.1405 46.0581 61.6296 46.2401 62.1007L47.4422 62.0813C47.5928 62.407 47.7727 62.7183 47.9796 63.0115L47.3624 64.0431C47.6832 64.4397 48.0449 64.8015 48.4415 65.1223L49.4732 64.5028C49.7673 64.7088 50.0785 64.8893 50.4034 65.0424L50.3839 66.2445C50.8555 66.4268 51.3454 66.5578 51.8451 66.6352L52.43 65.582C52.6069 65.5992 52.7861 65.6079 52.9674 65.6079C53.1487 65.6079 53.3256 65.6079 53.5048 65.582L54.0897 66.6352C54.5886 66.5575 55.0777 66.4266 55.5486 66.2445L55.5292 65.0424C55.8543 64.8898 56.1655 64.7092 56.4594 64.5028L57.4911 65.1223C57.8871 64.8008 58.2487 64.4392 58.5702 64.0431L57.9508 63.0115C58.1577 62.7183 58.3376 62.407 58.4882 62.0813L59.6925 62.1007C59.8738 61.6295 60.0047 61.1405 60.0831 60.6417L59.0299 60.0568C59.045 59.8799 59.0558 59.7007 59.0558 59.5194ZM52.976 63.646C52.1592 63.6464 51.3607 63.4046 50.6814 62.9511C50.0021 62.4976 49.4726 61.8528 49.1598 61.0983C48.847 60.3438 48.7651 59.5134 48.9243 58.7123C49.0836 57.9112 49.4768 57.1754 50.0544 56.5978C50.6319 56.0203 51.3678 55.627 52.1689 55.4678C52.97 55.3085 53.8003 55.3905 54.5548 55.7032C55.3094 56.016 55.9542 56.5455 56.4077 57.2248C56.8612 57.9041 57.103 58.7027 57.1026 59.5194C57.1026 60.6139 56.6678 61.6635 55.8939 62.4374C55.12 63.2112 54.0704 63.646 52.976 63.646Z" fill="#064DD6"/>
<path opacity="0.5" d="M59.0558 59.5194C59.0558 59.3381 59.045 59.159 59.0299 58.982L60.0831 58.3971C60.0047 57.8977 59.8738 57.4079 59.6925 56.936L58.4882 56.9576C58.3371 56.6314 58.1573 56.3194 57.9508 56.0252L58.5702 54.9936C58.2488 54.6007 57.8871 54.2427 57.4911 53.9252L56.4594 54.5447C56.166 54.3375 55.8547 54.157 55.5292 54.0051L55.5486 52.803C55.0774 52.6212 54.5884 52.4896 54.0897 52.4102L53.5048 53.4634C53.3256 53.4483 53.1487 53.4396 52.9674 53.4396C52.7861 53.4396 52.6069 53.4396 52.43 53.4634L51.8451 52.4102C51.3456 52.4893 50.8558 52.6209 50.3839 52.803L50.4034 54.0051C50.0781 54.1574 49.7668 54.3379 49.4732 54.5447L48.4415 53.9252C48.0449 54.242 47.6831 54.6001 47.3624 54.9936L47.9796 56.0252C47.7731 56.3194 47.5933 56.6314 47.4422 56.9576L46.2401 56.936C46.0581 57.4079 45.9264 57.8976 45.8473 58.3971L46.9005 58.982C46.8854 59.159 46.8768 59.3381 46.8768 59.5194C46.8768 59.7007 46.8768 59.8799 46.9005 60.0568L45.8473 60.6417C45.9264 61.1405 46.0581 61.6296 46.2401 62.1007L47.4422 62.0813C47.5928 62.407 47.7727 62.7183 47.9796 63.0115L47.3624 64.0431C47.6832 64.4397 48.0449 64.8015 48.4415 65.1223L49.4732 64.5028C49.7673 64.7088 50.0785 64.8893 50.4034 65.0424L50.3839 66.2445C50.8555 66.4268 51.3454 66.5578 51.8451 66.6352L52.43 65.582C52.6069 65.5992 52.7861 65.6079 52.9674 65.6079C53.1487 65.6079 53.3256 65.6079 53.5048 65.582L54.0897 66.6352C54.5886 66.5575 55.0777 66.4266 55.5486 66.2445L55.5292 65.0424C55.8543 64.8898 56.1655 64.7092 56.4594 64.5028L57.4911 65.1223C57.8871 64.8008 58.2487 64.4392 58.5702 64.0431L57.9508 63.0115C58.1577 62.7183 58.3376 62.407 58.4882 62.0813L59.6925 62.1007C59.8738 61.6295 60.0047 61.1405 60.0831 60.6417L59.0299 60.0568C59.045 59.8799 59.0558 59.7007 59.0558 59.5194ZM52.976 63.646C52.1592 63.6464 51.3607 63.4046 50.6814 62.9511C50.0021 62.4976 49.4726 61.8528 49.1598 61.0983C48.847 60.3438 48.7651 59.5134 48.9243 58.7123C49.0836 57.9112 49.4768 57.1754 50.0544 56.5978C50.6319 56.0203 51.3678 55.627 52.1689 55.4678C52.97 55.3085 53.8003 55.3905 54.5548 55.7032C55.3094 56.016 55.9542 56.5455 56.4077 57.2248C56.8612 57.9041 57.103 58.7027 57.1026 59.5194C57.1026 60.6139 56.6678 61.6635 55.8939 62.4374C55.12 63.2112 54.0704 63.646 52.976 63.646Z" fill="white"/>
<path d="M26.7209 27.768C26.7209 27.6364 26.7209 27.5069 26.7015 27.3774L27.4677 26.9457C27.4097 26.5829 27.3142 26.227 27.1828 25.8839L26.3087 25.899C26.199 25.6621 26.0675 25.4359 25.9159 25.2234L26.367 24.4724C26.1357 24.1871 25.8753 23.9267 25.59 23.6954L24.8389 24.1443C24.6259 23.9942 24.3998 23.8634 24.1634 23.7537L24.1763 22.8904C23.8347 22.7567 23.4793 22.6611 23.1166 22.6055L22.685 23.3695C22.5555 23.3587 22.426 23.3522 22.2943 23.3522C22.1627 23.3522 22.031 23.3522 21.9037 23.3695L21.472 22.6055C21.1087 22.6611 20.7526 22.7567 20.4102 22.8904L20.4253 23.7537C20.1882 23.8634 19.9614 23.9942 19.7476 24.1443L18.9987 23.6954C18.7127 23.9267 18.4516 24.1871 18.2196 24.4724L18.6706 25.2234C18.5198 25.4364 18.3884 25.6625 18.2778 25.899L17.4145 25.8839C17.2831 26.227 17.1876 26.5829 17.1296 26.9457L17.8958 27.3774C17.8958 27.5069 17.8786 27.6364 17.8786 27.768C17.8786 27.8997 17.8786 28.0292 17.8958 28.1586L17.1361 28.586C17.1938 28.9489 17.2893 29.3048 17.421 29.6478L18.2843 29.6327C18.3953 29.8696 18.5267 30.0964 18.6771 30.3104L18.226 31.0593C18.4581 31.3446 18.7192 31.605 19.0052 31.8363L19.7541 31.3874C19.9679 31.5375 20.1947 31.6683 20.4318 31.778L20.4167 32.6521C20.7591 32.7858 21.1152 32.8814 21.4785 32.937L21.9102 32.173C22.0375 32.173 22.1692 32.1903 22.3008 32.1903C22.4325 32.1903 22.562 32.1903 22.6915 32.173L23.1231 32.937C23.4858 32.8814 23.8411 32.7858 24.1828 32.6521L24.1699 31.778C24.4062 31.6683 24.6323 31.5375 24.8454 31.3874L25.5965 31.8363C25.8817 31.605 26.1421 31.3446 26.3734 31.0593L25.9159 30.3126C26.0671 30.0991 26.1986 29.8722 26.3087 29.6349L27.1828 29.65C27.3145 29.3069 27.41 28.9511 27.4677 28.5881L26.7015 28.1565C26.7123 28.0292 26.7209 27.8997 26.7209 27.768ZM22.3008 29.5097C21.9563 29.5097 21.6196 29.4076 21.3332 29.2162C21.0467 29.0248 20.8235 28.7528 20.6917 28.4345C20.5599 28.1163 20.5254 27.7661 20.5926 27.4282C20.6598 27.0904 20.8257 26.78 21.0692 26.5364C21.3128 26.2928 21.6232 26.127 21.961 26.0598C22.2989 25.9926 22.6491 26.0271 22.9673 26.1589C23.2856 26.2907 23.5576 26.5139 23.749 26.8004C23.9404 27.0868 24.0425 27.4235 24.0425 27.768C24.0425 28.2299 23.859 28.6729 23.5324 28.9996C23.2058 29.3262 22.7627 29.5097 22.3008 29.5097Z" fill="#064DD6"/>
<path opacity="0.6" d="M26.7209 27.768C26.7209 27.6364 26.7209 27.5069 26.7015 27.3774L27.4677 26.9457C27.4097 26.5829 27.3142 26.227 27.1828 25.8839L26.3087 25.899C26.199 25.6621 26.0675 25.4359 25.9159 25.2234L26.367 24.4724C26.1357 24.1871 25.8753 23.9267 25.59 23.6954L24.8389 24.1443C24.6259 23.9942 24.3998 23.8634 24.1634 23.7537L24.1763 22.8904C23.8347 22.7567 23.4793 22.6611 23.1166 22.6055L22.685 23.3695C22.5555 23.3587 22.426 23.3522 22.2943 23.3522C22.1627 23.3522 22.031 23.3522 21.9037 23.3695L21.472 22.6055C21.1087 22.6611 20.7526 22.7567 20.4102 22.8904L20.4253 23.7537C20.1882 23.8634 19.9614 23.9942 19.7476 24.1443L18.9987 23.6954C18.7127 23.9267 18.4516 24.1871 18.2196 24.4724L18.6706 25.2234C18.5198 25.4364 18.3884 25.6625 18.2778 25.899L17.4145 25.8839C17.2831 26.227 17.1876 26.5829 17.1296 26.9457L17.8958 27.3774C17.8958 27.5069 17.8786 27.6364 17.8786 27.768C17.8786 27.8997 17.8786 28.0292 17.8958 28.1586L17.1361 28.586C17.1938 28.9489 17.2893 29.3048 17.421 29.6478L18.2843 29.6327C18.3953 29.8696 18.5267 30.0964 18.6771 30.3104L18.226 31.0593C18.4581 31.3446 18.7192 31.605 19.0052 31.8363L19.7541 31.3874C19.9679 31.5375 20.1947 31.6683 20.4318 31.778L20.4167 32.6521C20.7591 32.7858 21.1152 32.8814 21.4785 32.937L21.9102 32.173C22.0375 32.173 22.1692 32.1903 22.3008 32.1903C22.4325 32.1903 22.562 32.1903 22.6915 32.173L23.1231 32.937C23.4858 32.8814 23.8411 32.7858 24.1828 32.6521L24.1699 31.778C24.4062 31.6683 24.6323 31.5375 24.8454 31.3874L25.5965 31.8363C25.8817 31.605 26.1421 31.3446 26.3734 31.0593L25.9159 30.3126C26.0671 30.0991 26.1986 29.8722 26.3087 29.6349L27.1828 29.65C27.3145 29.3069 27.41 28.9511 27.4677 28.5881L26.7015 28.1565C26.7123 28.0292 26.7209 27.8997 26.7209 27.768ZM22.3008 29.5097C21.9563 29.5097 21.6196 29.4076 21.3332 29.2162C21.0467 29.0248 20.8235 28.7528 20.6917 28.4345C20.5599 28.1163 20.5254 27.7661 20.5926 27.4282C20.6598 27.0904 20.8257 26.78 21.0692 26.5364C21.3128 26.2928 21.6232 26.127 21.961 26.0598C22.2989 25.9926 22.6491 26.0271 22.9673 26.1589C23.2856 26.2907 23.5576 26.5139 23.749 26.8004C23.9404 27.0868 24.0425 27.4235 24.0425 27.768C24.0425 28.2299 23.859 28.6729 23.5324 28.9996C23.2058 29.3262 22.7627 29.5097 22.3008 29.5097Z" fill="white"/>
<path d="M52.8357 14.5124H47.2243L41.5804 79.1111H47.1919C48.4719 79.0877 49.699 78.5963 50.6415 77.7299C51.5839 76.8634 52.1764 75.6818 52.307 74.4082L57.1285 19.2153C57.1942 18.6164 57.1316 18.0104 56.9448 17.4376C56.758 16.8649 56.4513 16.3385 56.0451 15.8935C55.6389 15.4486 55.1426 15.0953 54.5893 14.8571C54.0359 14.619 53.4381 14.5015 52.8357 14.5124Z" fill="#263238"/>
<path d="M46.0373 79.1112H22.944C22.3413 79.1227 21.743 79.0057 21.1891 78.7678C20.6352 78.53 20.1383 78.1767 19.7317 77.7317C19.3251 77.2867 19.018 76.7601 18.8309 76.187C18.6439 75.6139 18.5811 75.0076 18.6469 74.4083L23.4771 19.2154C23.6072 17.9417 24.1996 16.7598 25.1421 15.8932C26.0846 15.0266 27.312 14.5355 28.5921 14.5125H51.6854C52.2883 14.5007 52.8868 14.6175 53.441 14.8552C53.9952 15.0929 54.4922 15.4461 54.8991 15.8912C55.306 16.3363 55.6133 16.863 55.8005 17.4362C55.9876 18.0094 56.0504 18.616 55.9847 19.2154L51.1523 74.4083C51.0222 75.6821 50.4298 76.8639 49.4873 77.7305C48.5448 78.5971 47.3174 79.0883 46.0373 79.1112Z" fill="#064DD6"/>
<path d="M51.5948 15.5904H45.5927C45.396 15.594 45.2064 15.6646 45.0553 15.7905C44.9042 15.9165 44.8006 16.0904 44.7618 16.2832L44.7229 16.471C44.6191 16.9368 44.3618 17.3543 43.9923 17.6564C43.6229 17.9585 43.1627 18.1278 42.6856 18.1372H36.9748C36.5229 18.1459 36.0858 17.9757 35.7587 17.6636C35.4317 17.3515 35.2412 16.9229 35.2288 16.471V16.2832C35.2243 16.0981 35.1465 15.9224 35.0126 15.7946C34.8787 15.6667 34.6995 15.5972 34.5144 15.6012H28.5037C27.5173 15.6188 26.5716 15.9973 25.8454 16.665C25.1192 17.3328 24.6628 18.2435 24.5627 19.2249L19.7261 74.4071C19.6754 74.8687 19.7236 75.3357 19.8676 75.7771C20.0116 76.2185 20.248 76.6242 20.5611 76.967C20.8741 77.3099 21.2567 77.5821 21.6832 77.7656C22.1097 77.949 22.5704 78.0394 23.0347 78.0308H46.128C47.1142 78.0128 48.0597 77.6341 48.7858 76.9665C49.5119 76.2988 49.9683 75.3884 50.0689 74.4071L54.9056 19.2142C54.9563 18.7524 54.908 18.2852 54.7639 17.8437C54.6198 17.4021 54.3832 16.9963 54.0699 16.6534C53.7566 16.3105 53.3738 16.0383 52.947 15.855C52.5202 15.6717 52.0592 15.5815 51.5948 15.5904Z" fill="#064DD6"/>
<path opacity="0.7" d="M51.5948 15.5904H45.5927C45.396 15.594 45.2064 15.6646 45.0553 15.7905C44.9042 15.9165 44.8006 16.0904 44.7618 16.2832L44.7229 16.471C44.6191 16.9368 44.3618 17.3543 43.9923 17.6564C43.6229 17.9585 43.1627 18.1278 42.6856 18.1372H36.9748C36.5229 18.1459 36.0858 17.9757 35.7587 17.6636C35.4317 17.3515 35.2412 16.9229 35.2288 16.471V16.2832C35.2243 16.0981 35.1465 15.9224 35.0126 15.7946C34.8787 15.6667 34.6995 15.5972 34.5144 15.6012H28.5037C27.5173 15.6188 26.5716 15.9973 25.8454 16.665C25.1192 17.3328 24.6628 18.2435 24.5627 19.2249L19.7261 74.4071C19.6754 74.8687 19.7236 75.3357 19.8676 75.7771C20.0116 76.2185 20.248 76.6242 20.5611 76.967C20.8741 77.3099 21.2567 77.5821 21.6832 77.7656C22.1097 77.949 22.5704 78.0394 23.0347 78.0308H46.128C47.1142 78.0128 48.0597 77.6341 48.7858 76.9665C49.5119 76.2988 49.9683 75.3884 50.0689 74.4071L54.9056 19.2142C54.9563 18.7524 54.908 18.2852 54.7639 17.8437C54.6198 17.4021 54.3832 16.9963 54.0699 16.6534C53.7566 16.3105 53.3738 16.0383 52.947 15.855C52.5202 15.6717 52.0592 15.5815 51.5948 15.5904Z" fill="white"/>
<g opacity="0.2">
<path opacity="0.2" d="M38.5999 16.2037C38.5873 16.3283 38.5293 16.444 38.437 16.5288C38.3447 16.6135 38.2245 16.6614 38.0992 16.6634C38.0405 16.6644 37.9822 16.6529 37.9283 16.6295C37.8744 16.6062 37.8261 16.5716 37.7867 16.528C37.7472 16.4845 37.7176 16.433 37.6996 16.3771C37.6817 16.3212 37.6759 16.262 37.6827 16.2037C37.6953 16.0796 37.7531 15.9645 37.845 15.8802C37.9369 15.7958 38.0565 15.7481 38.1812 15.7461C38.2398 15.7452 38.298 15.7567 38.3518 15.7799C38.4056 15.8031 38.4539 15.8375 38.4935 15.8807C38.5331 15.924 38.563 15.9751 38.5814 16.0308C38.5997 16.0865 38.606 16.1454 38.5999 16.2037Z" fill="black"/>
<path opacity="0.2" d="M41.8913 15.7461H40.3179C40.1932 15.7481 40.0736 15.7958 39.9817 15.8802C39.8898 15.9645 39.8321 16.0796 39.8194 16.2037C39.8129 16.2622 39.819 16.3213 39.8372 16.3773C39.8554 16.4332 39.8853 16.4846 39.9249 16.5281C39.9645 16.5716 40.0129 16.6061 40.0669 16.6295C40.1209 16.6528 40.1793 16.6644 40.2381 16.6634H41.8115C41.9364 16.6609 42.056 16.6127 42.1479 16.528C42.2397 16.4434 42.2974 16.328 42.31 16.2037C42.3161 16.1454 42.3098 16.0865 42.2915 16.0308C42.2731 15.9751 42.2432 15.924 42.2036 15.8807C42.164 15.8375 42.1157 15.8031 42.0619 15.7799C42.0081 15.7567 41.9499 15.7452 41.8913 15.7461Z" fill="black"/>
</g>
<path d="M27.172 18.1184H27.6576L27.6986 17.6328H27.213L27.172 18.1184Z" fill="#064DD6"/>
<path d="M28.1842 17.634L28.1432 18.1197H28.6288L28.6698 17.634L28.713 17.1484H28.2274L28.1842 17.634Z" fill="#064DD6"/>
<path d="M29.2417 16.6641L29.1986 17.1497L29.1554 17.6353L29.1144 18.1209H29.6L29.641 17.6353L29.6842 17.1497L29.7273 16.6641H29.2417Z" fill="#064DD6"/>
<path d="M50.1206 16.6953L50.0904 17.0514H49.853L49.7904 17.7636H50.0278L49.9954 18.1198H52.1321L52.2573 16.6953H50.1206ZM50.9839 17.7636H50.2717L50.3343 17.0514H51.0465L50.9839 17.7636Z" fill="#064DD6"/>
<g opacity="0.4">
<path opacity="0.4" d="M36.992 18.125L21.0511 77.3971C21.6301 77.8145 22.3273 78.0361 23.0411 78.0294H24.2864L40.3977 18.125H36.992Z" fill="white"/>
<path opacity="0.4" d="M51.5947 15.5905H45.5926C45.3959 15.594 45.2063 15.6646 45.0552 15.7906C44.9041 15.9166 44.8005 16.0904 44.7617 16.2833L44.7229 16.471C44.6212 16.9244 44.3744 17.3321 44.0199 17.6324C43.6655 17.9327 43.2227 18.1092 42.7589 18.1351L26.6432 78.0309H38.9344L54.9055 18.6423C54.8539 17.8047 54.4806 17.0196 53.8636 16.4508C53.2466 15.8821 52.4337 15.5739 51.5947 15.5905Z" fill="white"/>
</g>
<path d="M32.8678 32.471H25.8405C25.73 32.4733 25.6202 32.4519 25.5186 32.4082C25.417 32.3645 25.326 32.2996 25.2516 32.2178C25.1771 32.1361 25.1211 32.0393 25.0872 31.9341C25.0532 31.8288 25.0422 31.7175 25.0549 31.6077L25.7261 23.9416C25.7488 23.7081 25.8566 23.4911 26.0289 23.3319C26.2013 23.1728 26.4261 23.0825 26.6606 23.0783H33.6901C33.8005 23.076 33.9102 23.0974 34.0117 23.1411C34.1132 23.1848 34.2041 23.2497 34.2784 23.3315C34.3526 23.4134 34.4085 23.5102 34.4421 23.6154C34.4758 23.7206 34.4865 23.8319 34.4735 23.9416L33.8045 31.6077C33.7808 31.8412 33.6724 32.0579 33.4998 32.217C33.3273 32.376 33.1024 32.4664 32.8678 32.471Z" fill="white"/>
<path d="M50.7768 39.2012H35.4252C35.3147 39.2035 35.2049 39.1821 35.1033 39.1384C35.0018 39.0947 34.9107 39.0298 34.8363 38.948C34.7619 38.8663 34.7058 38.7695 34.6719 38.6643C34.638 38.559 34.627 38.4477 34.6396 38.3379L35.9 23.9337C35.9228 23.7002 36.0305 23.4833 36.2029 23.3241C36.3752 23.1649 36.6 23.0746 36.8346 23.0704H52.1862C52.2966 23.0685 52.4062 23.0902 52.5076 23.134C52.609 23.1777 52.7 23.2427 52.7743 23.3244C52.8486 23.406 52.9047 23.5027 52.9388 23.6077C52.9728 23.7128 52.9841 23.824 52.9718 23.9337L51.7114 38.3379C51.6886 38.5714 51.5809 38.7884 51.4085 38.9476C51.2362 39.1067 51.0114 39.197 50.7768 39.2012Z" fill="white"/>
<path d="M49.6222 52.3861H24.0966C23.9861 52.388 23.8766 52.3664 23.7751 52.3226C23.6737 52.2788 23.5828 52.2139 23.5085 52.1322C23.4341 52.0505 23.3781 51.9539 23.344 51.8488C23.3099 51.7437 23.2987 51.6326 23.311 51.5228L24.198 41.379C24.2217 41.1456 24.3301 40.9288 24.5026 40.7698C24.6752 40.6107 24.9001 40.5203 25.1347 40.5157H50.6603C50.7708 40.5138 50.8804 40.5355 50.9818 40.5793C51.0832 40.6231 51.1741 40.688 51.2485 40.7697C51.3228 40.8514 51.3789 40.948 51.4129 41.0531C51.447 41.1581 51.4582 41.2693 51.446 41.379L50.5589 51.5228C50.5352 51.7563 50.4269 51.9731 50.2543 52.1321C50.0817 52.2912 49.8569 52.3815 49.6222 52.3861Z" fill="white"/>
<path d="M47.8136 73.0607H22.288C22.1775 73.0626 22.068 73.0409 21.9665 72.9971C21.8651 72.9533 21.7742 72.8884 21.6999 72.8067C21.6255 72.725 21.5695 72.6284 21.5354 72.5233C21.5014 72.4183 21.4901 72.3071 21.5024 72.1974L23.0455 54.5666C23.0683 54.3327 23.1764 54.1155 23.3492 53.9562C23.5219 53.797 23.7473 53.707 23.9822 53.7033H49.51C49.6205 53.701 49.7302 53.7224 49.8317 53.7661C49.9331 53.8098 50.0241 53.8747 50.0983 53.9565C50.1726 54.0384 50.2284 54.1352 50.2621 54.2404C50.2958 54.3456 50.3065 54.4569 50.2935 54.5666L48.7525 72.1974C48.7287 72.4312 48.6201 72.6482 48.447 72.8073C48.274 72.9664 48.0487 73.0566 47.8136 73.0607Z" fill="white"/>
<path d="M30.1159 30.4653H23.0887C22.9781 30.4676 22.8684 30.4461 22.7668 30.4025C22.6652 30.3588 22.5741 30.2939 22.4997 30.2121C22.4253 30.1304 22.3693 30.0336 22.3353 29.9284C22.3014 29.8231 22.2904 29.7118 22.3031 29.602L22.9743 21.9337C22.9975 21.7001 23.1057 21.4831 23.2784 21.3239C23.4511 21.1648 23.6762 21.0746 23.911 21.0704H30.949C31.0595 21.0685 31.169 21.0902 31.2705 21.134C31.3719 21.1777 31.4628 21.2427 31.5371 21.3244C31.6115 21.406 31.6675 21.5027 31.7016 21.6077C31.7357 21.7128 31.7469 21.824 31.7346 21.9337L31.0634 29.602C31.04 29.8375 30.9302 30.056 30.7553 30.2154C30.5803 30.3748 30.3526 30.4638 30.1159 30.4653Z" fill="#064DD6"/>
<path opacity="0.4" d="M30.1159 30.4653H23.0887C22.9781 30.4676 22.8684 30.4461 22.7668 30.4025C22.6652 30.3588 22.5741 30.2939 22.4997 30.2121C22.4253 30.1304 22.3693 30.0336 22.3353 29.9284C22.3014 29.8231 22.2904 29.7118 22.3031 29.602L22.9743 21.9337C22.9975 21.7001 23.1057 21.4831 23.2784 21.3239C23.4511 21.1648 23.6762 21.0746 23.911 21.0704H30.949C31.0595 21.0685 31.169 21.0902 31.2705 21.134C31.3719 21.1777 31.4628 21.2427 31.5371 21.3244C31.6115 21.406 31.6675 21.5027 31.7016 21.6077C31.7357 21.7128 31.7469 21.824 31.7346 21.9337L31.0634 29.602C31.04 29.8375 30.9302 30.056 30.7553 30.2154C30.5803 30.3748 30.3526 30.4638 30.1159 30.4653Z" fill="white"/>
<path opacity="0.8" d="M31.0764 21.9385C31.0794 21.9112 31.0767 21.8836 31.0683 21.8575C31.0599 21.8314 31.0461 21.8073 31.0277 21.787C31.0094 21.7666 30.9869 21.7503 30.9618 21.7392C30.9367 21.7281 30.9096 21.7225 30.8822 21.7227H23.8527C23.7944 21.724 23.7387 21.7468 23.6961 21.7866C23.6535 21.8264 23.6271 21.8804 23.6218 21.9385L22.9506 29.6068C22.9472 29.6341 22.9497 29.6618 22.9579 29.6881C22.9662 29.7144 22.98 29.7386 22.9984 29.759C23.0168 29.7795 23.0394 29.7958 23.0647 29.8067C23.09 29.8177 23.1173 29.8231 23.1448 29.8226H30.1742C30.2325 29.8212 30.2883 29.7985 30.3309 29.7587C30.3734 29.7189 30.3999 29.6648 30.4052 29.6068L31.0764 21.9385Z" fill="white"/>
<path d="M28.3937 25.4461C28.316 26.3245 27.7807 27.0367 26.9023 27.0367C26.0239 27.0367 25.6074 26.3245 25.6915 25.4461C25.7757 24.5677 26.3023 23.8555 27.1807 23.8555C28.0592 23.8555 28.4692 24.5677 28.3937 25.4461Z" fill="#064DD6"/>
<path d="M29.9864 28.5239C29.8788 28.1391 29.6463 27.8009 29.3256 27.5626C29.0048 27.3243 28.614 27.1993 28.2145 27.2074H25.5533C25.1294 27.2148 24.7163 27.3425 24.3621 27.5755C24.0079 27.8086 23.7272 28.1375 23.5526 28.5239L22.9937 29.7541C23.012 29.7742 23.0343 29.7901 23.0592 29.8009C23.0842 29.8117 23.1111 29.8171 23.1383 29.8167H30.1677C30.2254 29.8158 30.2808 29.7935 30.3231 29.7541L29.9864 28.5239Z" fill="#064DD6"/>
<path d="M44.0237 70.9005H18.4981C18.3876 70.9024 18.278 70.8807 18.1766 70.8369C18.0752 70.7931 17.9843 70.7282 17.91 70.6465C17.8356 70.5648 17.7795 70.4682 17.7455 70.3632C17.7114 70.2581 17.7002 70.1469 17.7125 70.0372L19.2556 52.4064C19.2783 52.1729 19.3861 51.9559 19.5584 51.7967C19.7308 51.6376 19.9556 51.5473 20.1901 51.5431H45.7158C45.8262 51.5412 45.9358 51.5628 46.0372 51.6066C46.1386 51.6504 46.2295 51.7153 46.3039 51.797C46.3782 51.8787 46.4343 51.9753 46.4684 52.0804C46.5024 52.1855 46.5137 52.2966 46.5014 52.4064L44.9582 70.0372C44.9351 70.2705 44.8271 70.4872 44.6549 70.6463C44.4827 70.8054 44.2581 70.8958 44.0237 70.9005Z" fill="#064DD6"/>
<path opacity="0.4" d="M44.0237 70.9005H18.4981C18.3876 70.9024 18.278 70.8807 18.1766 70.8369C18.0752 70.7931 17.9843 70.7282 17.91 70.6465C17.8356 70.5648 17.7795 70.4682 17.7455 70.3632C17.7114 70.2581 17.7002 70.1469 17.7125 70.0372L19.2556 52.4064C19.2783 52.1729 19.3861 51.9559 19.5584 51.7967C19.7308 51.6376 19.9556 51.5473 20.1901 51.5431H45.7158C45.8262 51.5412 45.9358 51.5628 46.0372 51.6066C46.1386 51.6504 46.2295 51.7153 46.3039 51.797C46.3782 51.8787 46.4343 51.9753 46.4684 52.0804C46.5024 52.1855 46.5137 52.2966 46.5014 52.4064L44.9582 70.0372C44.9351 70.2705 44.8271 70.4872 44.6549 70.6463C44.4827 70.8054 44.2581 70.8958 44.0237 70.9005Z" fill="white"/>
<path d="M45.6597 52.1953H20.1341C20.0755 52.1957 20.0192 52.2181 19.9764 52.2581C19.9337 52.2981 19.9075 52.3528 19.9031 52.4112L18.36 70.0419C18.3566 70.0693 18.3591 70.097 18.3673 70.1233C18.3756 70.1495 18.3894 70.1737 18.4078 70.1942C18.4263 70.2147 18.4489 70.2309 18.4741 70.2419C18.4994 70.2529 18.5267 70.2583 18.5542 70.2578H44.0799C44.138 70.2559 44.1935 70.233 44.236 70.1933C44.2785 70.1536 44.3051 70.0998 44.3108 70.0419L45.854 52.4112C45.8574 52.3838 45.8549 52.3561 45.8466 52.3298C45.8384 52.3036 45.8246 52.2794 45.8061 52.2589C45.7877 52.2384 45.7651 52.2222 45.7398 52.2112C45.7146 52.2002 45.6873 52.1948 45.6597 52.1953Z" fill="#263238"/>
<path d="M34.3179 63.5319C35.7102 62.1991 35.8486 60.0842 34.6271 58.8081C33.4055 57.532 31.2866 57.5781 29.8943 58.9109C28.502 60.2437 28.3636 62.3587 29.5851 63.6347C30.8067 64.9108 32.9256 64.8648 34.3179 63.5319Z" fill="#064DD6"/>
<path opacity="0.9" d="M33.854 61.2224L31.072 62.9274L31.372 59.5195L33.854 61.2224Z" fill="white"/>
<path opacity="0.8" d="M41.2309 67.644H19.8362L19.8513 67.4648H41.246L41.2309 67.644Z" fill="white"/>
<path d="M28.0483 67.5542C28.0425 67.6203 28.0123 67.6818 27.9636 67.7269C27.915 67.7719 27.8513 67.7973 27.785 67.7981H19.6333C19.6024 67.7984 19.5719 67.792 19.5437 67.7795C19.5155 67.7669 19.4903 67.7484 19.4698 67.7253C19.4494 67.7022 19.4341 67.675 19.4251 67.6455C19.4161 67.6159 19.4135 67.5848 19.4175 67.5542C19.4239 67.4886 19.4543 67.4276 19.5029 67.383C19.5515 67.3384 19.6148 67.3133 19.6808 67.3125H27.8325C27.8632 67.3123 27.8935 67.3186 27.9216 67.331C27.9496 67.3435 27.9746 67.3617 27.9951 67.3846C28.0155 67.4075 28.0308 67.4344 28.04 67.4637C28.0492 67.4929 28.052 67.5238 28.0483 67.5542Z" fill="#064DD6"/>
<g opacity="0.8">
<path opacity="0.8" d="M43.2317 67.0274H43.5058L43.4864 67.2648H43.7173L43.7518 66.8828H43.2446L43.2317 67.0274Z" fill="white"/>
<path opacity="0.8" d="M41.792 67.2648L41.8136 67.0274H42.0877L42.1007 66.8828H41.5935L41.559 67.2648H41.792Z" fill="white"/>
<path opacity="0.8" d="M41.9972 68.0851H41.7209L41.7425 67.8477H41.5094L41.4749 68.2297H41.9842L41.9972 68.0851Z" fill="white"/>
<path opacity="0.8" d="M43.4346 67.8477L43.413 68.0851H43.1389L43.126 68.2297H43.6332L43.6677 67.8477H43.4346Z" fill="white"/>
</g>
<g opacity="0.8">
<path opacity="0.9" d="M30.8757 69.4736L31.7045 68.9664L30.9642 68.457L30.8757 69.4736Z" fill="white"/>
<path opacity="0.9" d="M31.7455 68.5117L31.7045 68.9671L31.6656 69.4204H31.8772L31.957 68.5117H31.7455Z" fill="white"/>
</g>
<g opacity="0.8">
<path opacity="0.9" d="M32.6908 69.4203H32.967L33.0469 68.5117H32.7706L32.6908 69.4203Z" fill="white"/>
<path opacity="0.9" d="M33.2584 68.5117L33.1786 69.4203H33.4527L33.5325 68.5117H33.2584Z" fill="white"/>
</g>
<path opacity="0.8" d="M30.1504 68.9664L29.3217 69.4736L29.4101 68.457L30.1504 68.9664Z" fill="white"/>
<path d="M45.6899 50.0112H20.1577C20.0473 50.0131 19.9377 49.9914 19.8363 49.9477C19.7349 49.9039 19.644 49.839 19.5696 49.7573C19.4953 49.6756 19.4392 49.579 19.4052 49.4739C19.3711 49.3688 19.3598 49.2577 19.3721 49.1479L20.2592 39.0041C20.2829 38.7706 20.3912 38.5539 20.5638 38.3948C20.7364 38.2358 20.9612 38.1454 21.1959 38.1408H46.728C46.8385 38.1385 46.9483 38.1599 47.0499 38.2036C47.1514 38.2473 47.2425 38.3122 47.3169 38.394C47.3913 38.4757 47.4474 38.5725 47.4813 38.6777C47.5152 38.783 47.5262 38.8942 47.5136 39.0041L46.6265 49.1479C46.6029 49.3814 46.4945 49.5981 46.3219 49.7572C46.1494 49.9162 45.9245 50.0066 45.6899 50.0112Z" fill="#FF6C0E"/>
<path opacity="0.05" d="M45.6899 50.0112H20.1577C20.0473 50.0131 19.9377 49.9914 19.8363 49.9477C19.7349 49.9039 19.644 49.839 19.5696 49.7573C19.4953 49.6756 19.4392 49.579 19.4052 49.4739C19.3711 49.3688 19.3598 49.2577 19.3721 49.1479L20.2592 39.0041C20.2829 38.7706 20.3912 38.5539 20.5638 38.3948C20.7364 38.2358 20.9612 38.1454 21.1959 38.1408H46.728C46.8385 38.1385 46.9483 38.1599 47.0499 38.2036C47.1514 38.2473 47.2425 38.3122 47.3169 38.394C47.3913 38.4757 47.4474 38.5725 47.4813 38.6777C47.5152 38.783 47.5262 38.8942 47.5136 39.0041L46.6265 49.1479C46.6029 49.3814 46.4945 49.5981 46.3219 49.7572C46.1494 49.9162 45.9245 50.0066 45.6899 50.0112Z" fill="white"/>
<path opacity="0.1" d="M46.6805 38.6876H21.1549C21.0676 38.6887 20.9837 38.7218 20.9193 38.7807C20.8548 38.8396 20.8142 38.9201 20.8052 39.007L19.9182 49.1508C19.9139 49.1917 19.9184 49.233 19.9312 49.2721C19.9441 49.3112 19.9651 49.3471 19.9928 49.3775C20.0205 49.4078 20.0544 49.432 20.0921 49.4484C20.1298 49.4647 20.1706 49.4729 20.2117 49.4724H45.7374C45.8247 49.4703 45.9083 49.4365 45.9727 49.3773C46.037 49.3182 46.0776 49.2377 46.087 49.1508L46.974 39.007C46.9783 38.9662 46.9739 38.9249 46.961 38.886C46.9482 38.847 46.9271 38.8112 46.8994 38.781C46.8716 38.7508 46.8377 38.7268 46.8 38.7107C46.7623 38.6946 46.7215 38.6867 46.6805 38.6876Z" fill="white"/>
<path opacity="0.4" d="M26.3692 44.0788H38.6712L38.0669 41.1134L37.2576 38.6875H24.8455L26.3692 44.0788Z" fill="white"/>
<path opacity="0.4" d="M26.3692 44.0781L20.3434 44.294L19.9117 49.1479C19.9075 49.1888 19.9119 49.2301 19.9248 49.2692C19.9376 49.3083 19.9586 49.3442 19.9863 49.3745C20.014 49.4049 20.0479 49.4291 20.0856 49.4454C20.1234 49.4618 20.1641 49.47 20.2053 49.4695H27.8973L26.3692 44.0781Z" fill="white"/>
<path d="M46.2251 47.5536L46.3266 46.3989L39.282 43.6018L38.6 41.6249L40.7604 38.6875H39.7309L38.3216 40.604L37.8338 38.6875H36.9123L37.631 41.5429L38.3216 43.5393H26.667L25.3915 38.6875H24.4764L25.7519 43.5393H20.4103L20.3153 44.6184H26.0368L27.3124 49.4701H28.2253L26.9498 44.6184H33.3533L36.7094 49.4701H37.8036L34.4475 44.6184H38.8288L46.2251 47.5536Z" fill="white"/>
<path opacity="0.2" d="M33.9632 43.0699C34.7081 43.0666 35.3115 42.9316 35.3108 42.7683C35.3101 42.605 34.7056 42.4752 33.9606 42.4785C33.2156 42.4817 32.6123 42.6168 32.613 42.7801C32.6137 42.9434 33.2182 43.0731 33.9632 43.0699Z" fill="black"/>
<path d="M34.2662 39.3361C33.8996 39.3445 33.5484 39.486 33.2784 39.7342C33.0084 39.9824 32.8378 40.3203 32.7986 40.685C32.7339 41.4296 33.9554 42.8972 33.9554 42.8972C33.9554 42.8972 35.4317 41.4296 35.4964 40.685C35.5151 40.5134 35.4971 40.3397 35.4435 40.1755C35.39 40.0114 35.3021 39.8605 35.1857 39.7329C35.0694 39.6054 34.9272 39.504 34.7687 39.4356C34.6102 39.3672 34.4389 39.3333 34.2662 39.3361ZM34.0936 41.3001C34.0148 41.3015 33.9367 41.2861 33.8643 41.2549C33.792 41.2238 33.7271 41.1775 33.674 41.1194C33.6209 41.0612 33.5808 40.9923 33.5564 40.9174C33.532 40.8425 33.5238 40.7633 33.5324 40.685C33.5498 40.5185 33.6273 40.3641 33.7506 40.2508C33.8738 40.1376 34.0341 40.0732 34.2015 40.0699C34.2803 40.0685 34.3584 40.0839 34.4307 40.1151C34.5031 40.1463 34.568 40.1925 34.6211 40.2507C34.6741 40.3089 34.7142 40.3777 34.7386 40.4526C34.763 40.5275 34.7712 40.6067 34.7626 40.685C34.7462 40.8518 34.6689 41.0068 34.5455 41.1202C34.4221 41.2337 34.2612 41.2977 34.0936 41.3001Z" fill="#FF6C0E"/>
<path d="M67.0911 73.4766L66.7523 77.3528H64.9955L64.8142 73.4766H67.0911Z" fill="#FFC3BD"/>
<path d="M64.2055 77.2599C64.0131 77.278 63.8209 77.2242 63.6659 77.1088C63.6465 77.081 63.6361 77.0478 63.6361 77.0139C63.6361 76.9799 63.6465 76.9468 63.6659 76.9189C63.681 76.8938 63.701 76.8721 63.7248 76.8551C63.7485 76.838 63.7755 76.8259 63.804 76.8196C64.1127 76.7398 64.7493 77.1196 64.7774 77.1347C64.785 77.1399 64.7911 77.147 64.7949 77.1554C64.7987 77.1638 64.8001 77.1731 64.799 77.1822C64.7965 77.1907 64.7918 77.1984 64.7853 77.2045C64.7789 77.2105 64.7709 77.2148 64.7623 77.2167C64.5782 77.2469 64.392 77.2613 64.2055 77.2599ZM63.9184 76.8952C63.8907 76.8943 63.863 76.898 63.8364 76.9059C63.8182 76.9083 63.8008 76.9148 63.7854 76.9249C63.7701 76.935 63.7573 76.9484 63.7479 76.9642C63.7156 77.0182 63.7263 77.0441 63.7479 77.0592C63.8299 77.1822 64.2961 77.193 64.6393 77.1563C64.4181 77.0235 64.1733 76.9348 63.9184 76.8952Z" fill="#064DD6"/>
<path d="M64.7645 77.2157H64.7451C64.5292 77.1142 64.0976 76.7063 64.1343 76.4991C64.1343 76.4495 64.1774 76.3891 64.2983 76.3804C64.3418 76.3762 64.3856 76.3809 64.4272 76.3942C64.4688 76.4076 64.5072 76.4293 64.54 76.4581C64.771 76.6545 64.812 77.1531 64.8141 77.1768C64.8148 77.1845 64.8134 77.1922 64.81 77.199C64.8065 77.2059 64.8012 77.2117 64.7947 77.2157C64.7849 77.2188 64.7743 77.2188 64.7645 77.2157ZM64.3328 76.4603H64.3069C64.2292 76.4603 64.2228 76.497 64.2206 76.5078C64.2077 76.6329 64.4925 76.9502 64.717 77.0905C64.6996 76.8808 64.6174 76.6816 64.4817 76.5207C64.4414 76.4829 64.3881 76.4621 64.3328 76.4624V76.4603Z" fill="#064DD6"/>
<path d="M64.9631 76.959L66.9746 76.9935C67.0114 76.9938 67.047 77.0069 67.0754 77.0305C67.1037 77.0541 67.123 77.0868 67.1299 77.123L67.4666 78.7654C67.4735 78.8006 67.4734 78.8368 67.4663 78.8719C67.4591 78.907 67.4452 78.9403 67.4251 78.97C67.405 78.9997 67.3793 79.0251 67.3494 79.0448C67.3195 79.0645 67.286 79.0781 67.2508 79.0849C67.2314 79.087 67.2119 79.087 67.1925 79.0849C66.4695 79.0611 65.8242 79.0093 64.9221 78.9964C63.8559 78.9791 64.1257 79.1107 62.8717 79.1064C62.1163 79.1064 61.9933 78.2431 62.3149 78.2064C63.7825 78.0467 63.9422 77.6086 64.5163 77.0928C64.6434 76.9942 64.8027 76.9465 64.9631 76.959Z" fill="#263238"/>
<path d="M61.812 39.677L64.6889 74.9169H67.0846C67.0846 74.9169 68.481 65.1487 67.5163 59.0063C67.4159 58.3548 67.4029 57.6929 67.4774 57.038C67.7752 54.392 68.5047 47.6064 68.4076 45.3122C68.4076 45.3122 69.627 42.554 68.658 38.7188H61.812V39.677Z" fill="#263238"/>
<path d="M67.432 74.2578L67.3328 74.9182L67.5508 75.4578H64.5141L64.594 74.9182L64.335 74.2578H67.432Z" fill="#263238"/>
<path opacity="0.3" d="M67.432 74.2578L67.3328 74.9182L67.5508 75.4578H64.5141L64.594 74.9182L64.335 74.2578H67.432Z" fill="white"/>
<path opacity="0.5" d="M67.3695 42.9844L68.6299 44.6743C68.5719 44.8945 68.4998 45.1108 68.4141 45.3218C68.4745 46.757 68.2652 49.3534 68.0429 51.598C65.5976 45.8656 66.2947 43.6405 66.2947 43.6405L67.3695 42.9844Z" fill="black"/>
<path d="M54.7955 25.9771L53.9452 24.5397L54.4739 23.6246C54.5077 23.5651 54.5281 23.4989 54.5337 23.4307C54.5393 23.3625 54.53 23.2938 54.5063 23.2296L54.4653 23.126C54.4328 23.0413 54.3758 22.9682 54.3017 22.9159C54.2275 22.8636 54.1395 22.8346 54.0488 22.8325L53.2157 22.8088C53.1312 22.8065 53.0478 22.8277 52.9747 22.87C52.9015 22.9123 52.8415 22.974 52.8013 23.0483L52.6308 23.3569C52.5901 23.4313 52.5676 23.5143 52.565 23.599C52.5623 23.6838 52.5797 23.7679 52.6157 23.8447L52.974 24.6195L53.6387 26.4022L54.7955 25.9771Z" fill="#FFC3BD"/>
<path d="M61.5616 25.7221L56.7077 29.2551L54.4264 24.9883L53.1315 25.5494C53.1315 25.5494 55.1279 32.0242 56.289 31.7544C57.4501 31.4846 60.7328 29.881 61.7926 28.7609C62.33 28.2019 62.7379 27.1724 62.2069 25.8991C62.181 25.8405 62.1424 25.7884 62.0939 25.7466C62.0453 25.7047 61.9881 25.6743 61.9263 25.6573C61.8645 25.6404 61.7997 25.6374 61.7367 25.6486C61.6736 25.6598 61.6138 25.6849 61.5616 25.7221Z" fill="#064DD6"/>
<path d="M63.3767 17.3125C63.3767 17.3125 61.6609 17.7614 62.4551 19.829C62.4551 19.829 63.3076 19.6132 63.4479 19.0521C63.5882 18.4909 63.7177 17.7247 63.7177 17.7247L63.3767 17.3125Z" fill="#263238"/>
<path opacity="0.3" d="M63.3767 17.3125C63.3767 17.3125 61.6609 17.7614 62.4551 19.829C62.4551 19.829 63.3076 19.6132 63.4479 19.0521C63.5882 18.4909 63.7177 17.7247 63.7177 17.7247L63.3767 17.3125Z" fill="black"/>
<path d="M67.4256 25.5194L64.294 25.418L62.999 25.6036L62.8242 27.9647L65.3472 28.8043L68.0385 28.2669L68.1788 25.9921L67.9867 25.5388L67.4256 25.5194Z" fill="#FFC3BD"/>
<path d="M75.7197 73.3765L76.8787 77.352H78.3873L78.083 73.2578L75.7197 73.3765Z" fill="#FFC3BD"/>
<path d="M75.8407 77.2599C75.6119 77.2599 75.3788 77.2102 75.3097 77.1088C75.2928 77.0792 75.2853 77.0451 75.2884 77.0111C75.2915 76.9771 75.305 76.9449 75.327 76.9189C75.3605 76.8693 75.4113 76.8339 75.4694 76.8196C75.7845 76.7398 76.3997 77.1196 76.4277 77.1347C76.4352 77.1398 76.4409 77.1471 76.444 77.1557C76.4471 77.1642 76.4475 77.1735 76.445 77.1822C76.4425 77.1907 76.4378 77.1984 76.4313 77.2045C76.4249 77.2105 76.4169 77.2148 76.4083 77.2167C76.2207 77.2473 76.0308 77.2617 75.8407 77.2599ZM75.573 76.8951C75.5446 76.8945 75.5162 76.8981 75.4889 76.9059C75.4704 76.9084 75.4527 76.9149 75.4371 76.925C75.4214 76.9351 75.4081 76.9485 75.3982 76.9642C75.3637 77.0182 75.3723 77.0441 75.3831 77.0592C75.4608 77.1822 75.9248 77.193 76.2702 77.1563C76.0561 77.0234 75.8176 76.9346 75.5687 76.8951H75.573Z" fill="#064DD6"/>
<path d="M76.3974 77.2159H76.378C76.1622 77.1144 75.7499 76.7065 75.8039 76.4993C75.8039 76.4497 75.8535 76.3893 75.9744 76.3806C76.0172 76.3761 76.0605 76.3806 76.1015 76.394C76.1424 76.4074 76.18 76.4293 76.2118 76.4583C76.4276 76.6547 76.4492 77.1533 76.4492 77.177C76.4491 77.1848 76.447 77.1924 76.4433 77.1991C76.4395 77.2059 76.4341 77.2117 76.4276 77.2159C76.4178 77.219 76.4073 77.219 76.3974 77.2159ZM75.9981 76.4605H75.9744C75.8945 76.4605 75.8881 76.4972 75.8838 76.508C75.8643 76.6332 76.132 76.9504 76.3499 77.0907C76.3444 76.8837 76.2725 76.684 76.1449 76.5209C76.1051 76.4837 76.0527 76.4628 75.9981 76.4627V76.4605Z" fill="#064DD6"/>
<path d="M76.6089 76.9616L78.6183 76.9961C78.6547 76.9962 78.69 77.0093 78.7177 77.033C78.7454 77.0568 78.7637 77.0896 78.7694 77.1256L79.0175 78.7681C79.0276 78.8386 79.0111 78.9104 78.9712 78.9694C78.9313 79.0284 78.8709 79.0705 78.8017 79.0875C78.7831 79.0896 78.7643 79.0896 78.7456 79.0875C78.0204 79.0638 77.3794 79.012 76.4773 78.999C75.4133 78.9817 75.6744 79.1134 74.4226 79.1091C73.6673 79.1091 73.5896 78.2458 73.9111 78.2091C75.3874 78.0494 75.5708 77.6112 76.1708 77.0954C76.2972 77.0019 76.4519 76.9547 76.6089 76.9616Z" fill="#263238"/>
<path d="M64.5314 38.7188L75.9377 74.9169H78.3442C78.3442 74.9169 77.1938 63.2797 75.1068 58.7301C74.8498 58.1676 74.6864 57.5669 74.6234 56.9517C74.4075 54.7179 73.8291 49.4345 73.1795 46.5251C73.0976 46.1582 73.0477 45.7849 73.0306 45.4093C72.9745 44.1619 72.6637 41.0497 71.0407 38.7188H64.5314Z" fill="#263238"/>
<path d="M78.7694 74.2578L78.6356 74.9182L78.8255 75.4578H75.7889L75.6572 74.9182L75.4327 74.2578H78.7694Z" fill="#263238"/>
<path opacity="0.3" d="M78.7694 74.2578L78.6356 74.9182L78.8255 75.4578H75.7889L75.6572 74.9182L75.4327 74.2578H78.7694Z" fill="white"/>
<path d="M67.8183 25.9096C67.8183 25.9096 66.8147 27.442 65.1594 27.3664C63.5925 27.2952 63.3227 25.7305 63.3227 25.7305L63.1241 28.1218L62.9277 33.9124L63.1781 36.3685L63.1608 39.0749C64.6344 39.1955 66.1163 39.1716 67.5852 39.0037C67.5852 39.0037 67.8723 29.0758 67.8183 29.1297C67.7644 29.1837 68.2867 27.4031 68.2867 27.4031V26.6823L67.8183 25.9096Z" fill="#064DD6"/>
<path opacity="0.6" d="M67.8183 25.9096C67.8183 25.9096 66.8147 27.442 65.1594 27.3664C63.5925 27.2952 63.3227 25.7305 63.3227 25.7305L63.1241 28.1218L62.9277 33.9124L63.1781 36.3685L63.1608 39.0749C64.6344 39.1955 66.1163 39.1716 67.5852 39.0037C67.5852 39.0037 67.8723 29.0758 67.8183 29.1297C67.7644 29.1837 68.2867 27.4031 68.2867 27.4031V26.6823L67.8183 25.9096Z" fill="white"/>
<path d="M66.2235 25.3355C66.2235 25.3355 71.4033 25.0161 71.6191 26.5786C71.835 28.1412 70.3242 31.3419 70.5745 33.5347C70.8249 35.7275 72.0508 39.0188 72.0508 39.0188C72.0508 39.0188 68.1292 41.6281 66.7631 40.7648C65.3969 39.9015 65.7595 30.0103 65.7595 30.0103C65.7595 30.0103 68.6688 25.8729 67.0328 25.6571C65.3969 25.4412 63.5257 25.2686 63.6681 26.5786C63.8287 27.6984 64.0528 28.8081 64.3393 29.9024C64.3393 29.9024 64.2185 40.8749 63.0573 40.7303C61.8962 40.5857 61.3092 39.3274 61.3092 39.3274C61.5576 37.9943 61.5576 36.6268 61.3092 35.2937C60.8991 33.0318 60.148 31.2534 60.5559 29.4664C60.9638 27.6794 61.3092 25.3959 62.1725 25.3657C62.9084 25.3139 66.2235 25.3355 66.2235 25.3355Z" fill="#064DD6"/>
<path opacity="0.2" d="M66.2235 25.3355C66.2235 25.3355 71.4033 25.0161 71.6191 26.5786C71.835 28.1412 70.3242 31.3419 70.5745 33.5347C70.8249 35.7275 72.0508 39.0188 72.0508 39.0188C72.0508 39.0188 68.1292 41.6281 66.7631 40.7648C65.3969 39.9015 65.7595 30.0103 65.7595 30.0103C65.7595 30.0103 68.6688 25.8729 67.0328 25.6571C65.3969 25.4412 63.5257 25.2686 63.6681 26.5786C63.8287 27.6984 64.0528 28.8081 64.3393 29.9024C64.3393 29.9024 64.2185 40.8749 63.0573 40.7303C61.8962 40.5857 61.3092 39.3274 61.3092 39.3274C61.5576 37.9943 61.5576 36.6268 61.3092 35.2937C60.8991 33.0318 60.148 31.2534 60.5559 29.4664C60.9638 27.6794 61.3092 25.3959 62.1725 25.3657C62.9084 25.3139 66.2235 25.3355 66.2235 25.3355Z" fill="black"/>
<path d="M64.035 25.3276C65.1142 25.3276 66.2235 25.3276 66.2235 25.3276C66.2235 25.3276 66.8861 25.2866 67.7451 25.306C68.0861 25.5413 68.5393 26.083 68.1767 27.2333L67.4235 27.529L67.5595 28.2671C67.5595 28.2671 66.6962 29.6355 65.7444 30.1534C65.7444 30.0628 65.7444 30.011 65.7444 30.011C65.7444 30.011 68.6537 25.8736 67.0177 25.6578C65.3818 25.442 63.5106 25.2693 63.653 26.5794C63.8137 27.6991 64.0378 28.8088 64.3242 29.9031V29.9635C63.8624 29.5534 63.4609 28.824 63.1847 27.9607L63.4912 27.1103L62.8135 26.7369C62.8705 26.4135 63.0143 26.1116 63.2294 25.8634C63.4445 25.6152 63.723 25.43 64.035 25.3276Z" fill="#064DD6"/>
<path opacity="0.2" d="M64.035 25.3276C65.1142 25.3276 66.2235 25.3276 66.2235 25.3276C66.2235 25.3276 66.8861 25.2866 67.7451 25.306C68.0861 25.5413 68.5393 26.083 68.1767 27.2333L67.4235 27.529L67.5595 28.2671C67.5595 28.2671 66.6962 29.6355 65.7444 30.1534C65.7444 30.0628 65.7444 30.011 65.7444 30.011C65.7444 30.011 68.6537 25.8736 67.0177 25.6578C65.3818 25.442 63.5106 25.2693 63.653 26.5794C63.8137 27.6991 64.0378 28.8088 64.3242 29.9031V29.9635C63.8624 29.5534 63.4609 28.824 63.1847 27.9607L63.4912 27.1103L62.8135 26.7369C62.8705 26.4135 63.0143 26.1116 63.2294 25.8634C63.4445 25.6152 63.723 25.43 64.035 25.3276Z" fill="white"/>
<path d="M64.3329 27.077C63.6423 26.3497 64.0675 25.8253 64.0675 25.8253C65.2977 25.4066 65.1854 24.4828 64.9027 23.626L66.8861 21.6016C66.7674 22.6807 66.7242 25.1584 67.43 26.0217V26.2137C66.7914 26.4633 66.1687 26.7516 65.5653 27.077H64.3329Z" fill="#FFC3BD"/>
<path opacity="0.1" d="M64.9026 23.6235L66.4781 22.0156L66.8428 22.1473C66.8299 22.3415 66.8234 22.553 66.8191 22.7753C66.6206 23.1832 66.1414 23.7573 65.0213 24.0465C64.9889 23.9019 64.9479 23.7595 64.9026 23.6235Z" fill="black"/>
<path d="M67.8961 19.8113C67.4148 21.6458 67.2487 22.4314 66.1285 23.1997C64.4364 24.3544 62.2911 23.3659 62.2113 21.4257C62.1401 19.6796 62.9343 16.9753 64.8962 16.5955C65.328 16.5106 65.7744 16.5372 66.1931 16.6727C66.6119 16.8083 66.9892 17.0483 67.2894 17.3701C67.5896 17.6919 67.8029 18.0849 67.909 18.5121C68.0152 18.9392 68.0108 19.3863 67.8961 19.8113Z" fill="#FFC3BD"/>
<path d="M63.5386 20.2852C63.3366 20.6047 63.0919 20.8952 62.8113 21.1485C62.8757 21.2207 62.9554 21.2776 63.0447 21.3149C63.134 21.3523 63.2305 21.3691 63.3271 21.3643L63.5386 20.2852Z" fill="#ED847E"/>
<path d="M65.494 19.6064C65.5068 19.6058 65.5193 19.602 65.5303 19.5952C65.5412 19.5884 65.5503 19.579 65.5566 19.5677C65.5628 19.5565 65.5661 19.5438 65.5661 19.5309C65.5661 19.5181 65.5628 19.5054 65.5566 19.4942C65.4856 19.3734 65.3869 19.2713 65.2687 19.1963C65.1505 19.1212 65.0161 19.0754 64.8767 19.0625C64.8568 19.0625 64.8377 19.0701 64.8232 19.0837C64.8088 19.0974 64.8001 19.116 64.799 19.1359C64.7984 19.1556 64.8055 19.1747 64.8188 19.1892C64.8321 19.2037 64.8506 19.2125 64.8702 19.2136C64.986 19.2261 65.0972 19.2662 65.1944 19.3304C65.2917 19.3946 65.3722 19.4811 65.4292 19.5826C65.4374 19.5915 65.4475 19.5982 65.4587 19.6023C65.47 19.6065 65.4821 19.6079 65.494 19.6064Z" fill="#263238"/>
<path d="M62.4595 19.0522C62.4715 19.0553 62.4841 19.0553 62.4962 19.0522C62.5957 18.9929 62.7078 18.9581 62.8234 18.9506C62.9389 18.9431 63.0546 18.9631 63.1609 19.009C63.1784 19.0183 63.1989 19.0203 63.2178 19.0146C63.2368 19.009 63.2528 18.9961 63.2624 18.9788C63.2707 18.9607 63.2718 18.9401 63.2654 18.9212C63.259 18.9023 63.2455 18.8866 63.2278 18.8774C63.099 18.8201 62.9584 18.7943 62.8177 18.8022C62.6769 18.8101 62.5401 18.8514 62.4185 18.9227C62.4008 18.9319 62.3874 18.9477 62.3814 18.9667C62.3753 18.9857 62.377 19.0064 62.3861 19.0241C62.3928 19.0371 62.403 19.0479 62.4157 19.0552C62.4283 19.0624 62.4428 19.0659 62.4573 19.0651L62.4595 19.0522Z" fill="#263238"/>
<path d="M64.0954 21.8557C64.0072 21.856 63.9191 21.8488 63.8321 21.8341C63.8202 21.8315 63.8098 21.8245 63.803 21.8144C63.7962 21.8044 63.7935 21.7921 63.7954 21.7801C63.7962 21.7742 63.7982 21.7684 63.8012 21.7632C63.8043 21.758 63.8083 21.7535 63.8131 21.7498C63.818 21.7462 63.8235 21.7436 63.8293 21.7421C63.8352 21.7407 63.8412 21.7404 63.8472 21.7413C64.0382 21.7777 64.235 21.7694 64.4223 21.717C64.6095 21.6646 64.7821 21.5695 64.9264 21.4391C64.9352 21.4325 64.946 21.4292 64.957 21.4297C64.968 21.4303 64.9785 21.4346 64.9867 21.442C64.9948 21.4494 65.0002 21.4594 65.0018 21.4703C65.0034 21.4812 65.0011 21.4923 64.9954 21.5017C64.7524 21.7315 64.4299 21.8583 64.0954 21.8557Z" fill="#263238"/>
<path d="M67.2788 21.2497C67.057 20.998 66.8923 20.7011 66.7962 20.3795C66.7 20.058 66.6747 19.7194 66.722 19.3872C66.722 19.3872 65.9839 18.6318 66.0206 17.8224C66.0206 17.8224 65.8048 18.4699 66.0206 18.9275C66.0206 18.9275 64.1062 18.7872 64.1515 17.8224C64.1515 17.8224 64.0264 18.308 64.3134 18.5606C64.3134 18.5606 62.6127 18.6318 62.8415 17.7512C63.0703 16.8706 64.4062 16.4368 64.4062 16.4368C64.4062 16.4368 65.6753 15.3577 67.4278 17.2656C67.4278 17.2656 69.4954 18.5606 68.0299 20.7188L67.2788 21.2497Z" fill="#263238"/>
<path d="M68.0449 21.3626C67.9606 21.5234 67.8453 21.6658 67.7057 21.7818C67.566 21.8977 67.4048 21.9848 67.2313 22.0382C66.7672 22.1784 66.5255 21.7662 66.6464 21.3216C66.7543 20.9223 67.1277 20.3677 67.6003 20.4216C67.7027 20.4358 67.7999 20.4752 67.8831 20.5363C67.9664 20.5975 68.0331 20.6784 68.0773 20.7718C68.1214 20.8652 68.1416 20.9682 68.1359 21.0713C68.1303 21.1745 68.099 21.2746 68.0449 21.3626Z" fill="#FFC3BD"/>
<path d="M64.9156 20.022C64.9005 20.1795 64.8034 20.2983 64.6998 20.2896C64.5962 20.281 64.5271 20.1429 64.5444 19.9831C64.5617 19.8234 64.6588 19.7047 64.7602 19.7155C64.8617 19.7263 64.9329 19.8623 64.9156 20.022Z" fill="#2E353A"/>
<path d="M63.1242 19.8345C63.1091 19.992 63.012 20.1107 62.9084 20.1021C62.8048 20.0935 62.7336 19.9553 62.7509 19.7956C62.7681 19.6359 62.8653 19.5172 62.9667 19.528C63.0681 19.5388 63.1437 19.6748 63.1242 19.8345Z" fill="#2E353A"/>
<path d="M63.012 19.5395L62.6429 19.3906C62.6429 19.3906 62.807 19.7079 63.012 19.5395Z" fill="#2E353A"/>
<path d="M64.8034 19.7388L64.4343 19.5898C64.4343 19.5898 64.6005 19.8963 64.8034 19.7388Z" fill="#2E353A"/>
<path d="M67.1191 22.8978C67.2381 22.8976 67.3544 22.8629 67.4539 22.7979C67.5535 22.7328 67.632 22.6401 67.6798 22.5312C67.7276 22.4223 67.7427 22.3019 67.7232 22.1845C67.7038 22.0672 67.6506 21.9581 67.5702 21.8704L67.4903 21.9417C67.5691 22.0268 67.6163 22.1364 67.6238 22.2521C67.6313 22.3679 67.5987 22.4826 67.5316 22.5772C67.4644 22.6718 67.3668 22.7404 67.255 22.7714C67.1433 22.8025 67.0243 22.7941 66.9179 22.7478C66.8116 22.7014 66.7245 22.6199 66.6712 22.5168C66.6179 22.4138 66.6017 22.2956 66.6253 22.182C66.6489 22.0685 66.7109 21.9665 66.8008 21.8933C66.8907 21.82 67.0031 21.7799 67.1191 21.7798C67.1934 21.7772 67.2673 21.792 67.3349 21.823L67.3803 21.7237C67.3013 21.6894 67.216 21.6717 67.1299 21.6719C66.9674 21.6719 66.8114 21.7365 66.6965 21.8514C66.5815 21.9664 66.517 22.1223 66.517 22.2848C66.517 22.4474 66.5815 22.6033 66.6965 22.7182C66.8114 22.8332 66.9674 22.8978 67.1299 22.8978H67.1191Z" fill="#064DD6"/>
<g opacity="0.6">
<path opacity="0.6" d="M67.1191 22.8978C67.2381 22.8976 67.3544 22.8629 67.4539 22.7979C67.5535 22.7328 67.632 22.6401 67.6798 22.5312C67.7276 22.4223 67.7427 22.3019 67.7232 22.1845C67.7038 22.0672 67.6506 21.9581 67.5702 21.8704L67.4903 21.9417C67.5691 22.0268 67.6163 22.1364 67.6238 22.2521C67.6313 22.3679 67.5987 22.4826 67.5316 22.5772C67.4644 22.6718 67.3668 22.7404 67.255 22.7714C67.1433 22.8025 67.0243 22.7941 66.9179 22.7478C66.8116 22.7014 66.7245 22.6199 66.6712 22.5168C66.6179 22.4138 66.6017 22.2956 66.6253 22.182C66.6489 22.0685 66.7109 21.9665 66.8008 21.8933C66.8907 21.82 67.0031 21.7799 67.1191 21.7798C67.1934 21.7772 67.2673 21.792 67.3349 21.823L67.3803 21.7237C67.3013 21.6894 67.216 21.6717 67.1299 21.6719C66.9674 21.6719 66.8114 21.7365 66.6965 21.8514C66.5815 21.9664 66.517 22.1223 66.517 22.2848C66.517 22.4474 66.5815 22.6033 66.6965 22.7182C66.8114 22.8332 66.9674 22.8978 67.1299 22.8978H67.1191Z" fill="white"/>
</g>
<path d="M60.5171 36.3672L58.7646 37.3362L56.9106 37.1075C56.8425 37.0981 56.7733 37.1142 56.7164 37.1528L56.0193 37.6168C55.9824 37.6404 55.9514 37.6722 55.9286 37.7096L55.7279 38.0528C55.704 38.0942 55.6908 38.1409 55.6893 38.1887C55.6879 38.2365 55.6984 38.2839 55.7197 38.3267C55.7411 38.3694 55.7728 38.4062 55.8119 38.4338C55.851 38.4613 55.8963 38.4787 55.9437 38.4844C56.4687 38.5985 57.0009 38.6764 57.5365 38.7175C58.0047 38.6511 58.4677 38.5523 58.9221 38.4218L61.3804 37.5413L60.5171 36.3672Z" fill="#FFC3BD"/>
<path d="M70.9845 26.1475C69.9787 25.5001 68.7874 27.0108 67.8097 29.113L65.9709 33.0777L59.0774 37.0445L59.5501 38.3093C59.5501 38.3093 66.1824 36.4489 67.8011 34.4525C69.4198 32.4561 72.3615 27.0432 70.9845 26.1475Z" fill="#064DD6"/>
<path d="M42.2345 37.7784H56.6322C56.9179 37.7726 57.1916 37.6625 57.4019 37.4689C57.6122 37.2754 57.7445 37.0116 57.7739 36.7274L58.8228 24.7426C58.8372 24.6089 58.823 24.4737 58.7812 24.3459C58.7394 24.2181 58.6709 24.1006 58.5804 24.0012C58.4898 23.9019 58.3791 23.8229 58.2557 23.7695C58.1323 23.7161 57.999 23.6895 57.8645 23.6915H43.4668C43.1808 23.6964 42.9065 23.8062 42.6961 23.9999C42.4856 24.1937 42.3536 24.4579 42.3251 24.7426L41.2762 36.7274C41.2615 36.8611 41.2754 36.9965 41.3171 37.1244C41.3587 37.2524 41.4272 37.37 41.5178 37.4694C41.6085 37.5689 41.7193 37.6479 41.8429 37.7011C41.9664 37.7544 42.0999 37.7808 42.2345 37.7784Z" fill="#064DD6"/>
<g opacity="0.4">
<path opacity="0.4" d="M42.2345 37.7784H56.6322C56.9179 37.7726 57.1916 37.6625 57.4019 37.4689C57.6122 37.2754 57.7445 37.0116 57.7739 36.7274L58.8228 24.7426C58.8372 24.6089 58.823 24.4737 58.7812 24.3459C58.7394 24.2181 58.6709 24.1006 58.5803 24.0012C58.4898 23.9019 58.3791 23.8229 58.2557 23.7695C58.1323 23.7161 57.999 23.6895 57.8645 23.6915H43.4668C43.1808 23.6964 42.9065 23.8062 42.6961 23.9999C42.4856 24.1937 42.3536 24.4579 42.3251 24.7426L41.2762 36.7274C41.2615 36.8611 41.2754 36.9965 41.3171 37.1244C41.3587 37.2524 41.4272 37.37 41.5178 37.4694C41.6085 37.5689 41.7193 37.6479 41.8429 37.7011C41.9664 37.7544 42.0999 37.7808 42.2345 37.7784Z" fill="white"/>
</g>
<path d="M43.3848 24.3243C43.2768 24.3238 43.1725 24.3639 43.0926 24.4367C43.0127 24.5094 42.9629 24.6095 42.9532 24.7171L41.9 36.7537C41.8948 36.8036 41.9002 36.8541 41.9159 36.9017C41.9316 36.9494 41.9572 36.9933 41.9911 37.0303C42.0249 37.0674 42.0662 37.097 42.1122 37.117C42.1583 37.137 42.208 37.147 42.2582 37.1465H56.7185C56.8266 37.1469 56.9309 37.1068 57.0108 37.0341C57.0907 36.9613 57.1404 36.8613 57.1502 36.7537L58.2034 24.7171C58.2089 24.6671 58.2037 24.6165 58.1882 24.5686C58.1726 24.5208 58.147 24.4768 58.1131 24.4396C58.0792 24.4025 58.0378 24.373 57.9916 24.3531C57.9454 24.3332 57.8954 24.3234 57.8451 24.3243H43.3848Z" fill="#064DD6"/>
<path opacity="0.8" d="M43.3848 24.3243C43.2768 24.3238 43.1725 24.3639 43.0926 24.4367C43.0127 24.5094 42.9629 24.6095 42.9532 24.7171L41.9 36.7537C41.8948 36.8036 41.9002 36.8541 41.9159 36.9017C41.9316 36.9494 41.9572 36.9933 41.9911 37.0303C42.0249 37.0674 42.0662 37.097 42.1122 37.117C42.1583 37.137 42.208 37.147 42.2582 37.1465H56.7185C56.8266 37.1469 56.9309 37.1068 57.0108 37.0341C57.0907 36.9613 57.1404 36.8613 57.1502 36.7537L58.2034 24.7171C58.2089 24.6671 58.2037 24.6165 58.1882 24.5686C58.1726 24.5208 58.147 24.4768 58.1131 24.4396C58.0792 24.4025 58.0378 24.373 57.9916 24.3531C57.9454 24.3332 57.8954 24.3234 57.8451 24.3243H43.3848Z" fill="white"/>
<path d="M46.4452 30.3398L41.9301 36.4714L41.9042 36.752C41.8991 36.8019 41.9045 36.8524 41.9202 36.9001C41.9359 36.9478 41.9615 36.9916 41.9953 37.0287C42.0292 37.0658 42.0705 37.0953 42.1165 37.1153C42.1626 37.1353 42.2123 37.1454 42.2625 37.1448H50.2653L46.4452 30.3398Z" fill="#064DD6"/>
<path d="M57.2538 35.4933L53.7747 28.3711L47.9474 37.1552H56.7099C56.8179 37.1556 56.9222 37.1155 57.0022 37.0428C57.0821 36.97 57.1318 36.87 57.1415 36.7624L57.2538 35.4933Z" fill="#064DD6"/>
<path opacity="0.2" d="M57.2538 35.4933L53.7747 28.3711L47.9474 37.1552H56.7099C56.8179 37.1556 56.9222 37.1155 57.0022 37.0428C57.0821 36.97 57.1318 36.87 57.1415 36.7624L57.2538 35.4933Z" fill="white"/>
<path d="M51.3768 27.3322C51.3484 27.6105 51.2189 27.8687 51.0129 28.058C50.8069 28.2474 50.5386 28.3546 50.2589 28.3595C50.1273 28.3618 49.9967 28.336 49.8758 28.284C49.7549 28.232 49.6465 28.1548 49.5577 28.0576C49.4689 27.9605 49.4018 27.8455 49.3608 27.7205C49.3198 27.5954 49.3059 27.463 49.32 27.3322C49.3485 27.0538 49.478 26.7956 49.684 26.6063C49.89 26.417 50.1583 26.3097 50.438 26.3048C50.5696 26.3025 50.7002 26.3283 50.8211 26.3803C50.942 26.4324 51.0504 26.5095 51.1392 26.6067C51.228 26.7038 51.2951 26.8188 51.3361 26.9438C51.377 27.0689 51.3909 27.2013 51.3768 27.3322Z" fill="#064DD6"/>
</svg>
