<svg width="32" height="32" viewBox="0 0 158 143" fill="currentColor" xmlns="http://www.w3.org/2000/svg">
<g clip-path="url(#clip0_1217:3523)">
<path fill-rule="evenodd" clip-rule="evenodd" d="M30.5655 116.469C30.2993 113.396 27.6458 111.49 25.0473 111.763C22.3959 112.041 20.3097 114.535 20.5696 117.535L20.5707 117.547C20.8346 120.317 23.204 122.517 26.0769 122.243L26.0878 122.242C28.7392 121.963 30.8254 119.47 30.5655 116.469ZM25.2888 114.274C26.6853 114.127 28.0267 115.157 28.16 116.697C28.2994 118.307 27.1928 119.586 25.8518 119.73C24.3347 119.872 23.1127 118.721 22.9746 117.302C22.8381 115.693 23.9468 114.415 25.2888 114.274Z" />
<path fill-rule="evenodd" clip-rule="evenodd" d="M62.9202 65.627C59.3115 65.627 56.2278 65.8352 54.1122 66.2767C52.8261 66.504 51.5586 66.9475 50.3958 67.3544L50.3636 67.3657C41.2241 70.3532 29.1236 77.5587 22.1697 81.73C22.0463 81.804 21.9377 81.8994 21.8477 82.0108L0.844005 88.7477C0.295279 88.9237 -0.0590537 89.4789 -0.00357602 90.0759L4.79036 141.657C4.82793 142.061 5.04954 142.422 5.38574 142.626C5.72194 142.83 6.1316 142.852 6.48639 142.686L43.6394 125.283C44.1235 125.056 44.4092 124.526 44.3437 123.976L43.4381 116.371C50.0737 113.777 55.3344 112.734 59.8086 112.588C64.4681 112.437 68.337 113.256 72.0989 114.388C73.5273 114.817 74.9476 115.296 76.393 115.784C82.5482 117.861 89.1569 120.09 98.7663 119.308C102.39 119.028 107.926 117.055 114.06 114.203C120.242 111.328 127.18 107.489 133.661 103.348C140.137 99.2119 146.197 94.7504 150.604 90.6243C152.804 88.5637 154.63 86.5531 155.888 84.678C157.117 82.8457 157.936 80.9525 157.806 79.1721C157.69 77.2499 157.078 75.698 156.081 74.4979C155.094 73.31 153.795 72.5439 152.416 72.0612C149.715 71.1162 146.492 71.1835 143.946 71.4979H143.818C143.754 71.4979 143.689 71.5033 143.626 71.5139C138.509 72.3734 132.024 74.5064 125.78 77.2541C122.753 78.5256 119.725 80.0085 117.092 81.4957C115.051 82.5682 113.417 83.6403 111.829 84.6818L111.815 84.6911C111.805 84.6977 111.795 84.7045 111.785 84.7114C111.399 84.9821 110.99 85.2749 110.58 85.5763C110.562 85.0901 110.516 84.6056 110.46 84.1362L110.457 84.1143C109.992 80.7002 107.706 77.7019 104.342 75.4861C102.877 74.3918 101.022 73.3125 98.972 72.4472C96.4846 71.1495 93.6162 70.2892 90.8798 69.4685L90.8185 69.4501C90.7953 69.4432 90.7719 69.437 90.7484 69.4315L85.3552 68.1734L85.3463 68.1713C82.5088 67.5331 79.6777 67.1085 76.8942 66.6911L76.8743 66.6881C76.8618 66.6863 76.8493 66.6846 76.8367 66.6831L71.4435 66.0541C71.4258 66.052 71.408 66.0504 71.3902 66.0491L70.7803 66.0063C68.0216 65.8123 65.3855 65.627 62.9202 65.627ZM54.5689 68.7548C56.4477 68.3604 59.3488 68.1505 62.9202 68.1505C65.3006 68.1505 67.8581 68.3302 70.6413 68.5258L71.2021 68.5651L76.5499 69.1889C79.3449 69.608 82.0923 70.021 84.8334 70.6373L84.8379 70.6383L90.1868 71.8861C92.9956 72.7286 95.6648 73.5354 97.9331 74.7259C97.9631 74.7416 97.9937 74.7561 98.0248 74.7692C99.937 75.572 101.649 76.5725 102.964 77.559C102.985 77.5741 103.005 77.5886 103.026 77.6024C106.033 79.5753 107.728 82.0164 108.064 84.459C108.263 86.1321 108.192 87.1968 107.825 87.8386C107.525 88.363 107.628 89.0364 108.069 89.4374C108.51 89.8383 109.163 89.8516 109.619 89.469C110.578 88.6636 111.938 87.6423 113.115 86.8183C114.709 85.7722 116.259 84.757 118.193 83.742C118.204 83.7363 118.215 83.7304 118.226 83.7243C120.78 82.2806 123.734 80.8329 126.69 79.5917L126.709 79.5838C132.807 76.8993 139.061 74.8496 143.915 74.0215H144.017C144.066 74.0215 144.114 74.0184 144.162 74.0124C146.599 73.7054 149.432 73.6783 151.649 74.4541C152.741 74.8364 153.627 75.3938 154.257 76.152C154.875 76.8961 155.311 77.9097 155.396 79.338L155.398 79.3579C155.464 80.2478 155.047 81.5351 153.91 83.2293C152.8 84.8844 151.123 86.7495 148.992 88.7449C144.735 92.7306 138.81 97.1019 132.401 101.195C125.999 105.285 119.154 109.072 113.078 111.898C106.953 114.746 101.753 116.547 98.5859 116.792L98.581 116.792C89.4847 117.533 83.3751 115.477 77.261 113.42C75.7776 112.921 74.294 112.422 72.7673 111.963C68.8639 110.788 64.7304 109.903 59.7334 110.066C54.9594 110.222 49.4542 111.331 42.649 113.985L24.4551 83.2697C31.5697 79.0138 42.6988 72.5127 51.0959 69.7704L51.1191 69.7626C52.3355 69.337 53.4424 68.9526 54.5305 68.7622C54.5433 68.7599 54.5562 68.7575 54.5689 68.7548ZM7.0319 139.665L2.49573 90.8577L22.2346 84.5265L40.9808 116.174L41.8367 123.362L7.0319 139.665Z" />
<path fill-rule="evenodd" clip-rule="evenodd" d="M25.0471 111.762C27.644 111.489 30.2959 113.392 30.5648 116.462C30.82 119.172 29.0176 121.958 26.0821 122.241C23.4854 122.511 20.8354 120.606 20.5694 117.534C20.3096 114.533 22.3957 112.04 25.0471 111.762ZM25.2886 114.273C26.6851 114.126 28.0265 115.156 28.1598 116.695L28.1609 116.707C28.3019 118.188 27.3108 119.59 25.857 119.728L25.8461 119.73C24.4496 119.876 23.1082 118.846 22.9749 117.307C22.8353 115.695 23.9451 114.414 25.2886 114.273Z" />
<path fill-rule="evenodd" clip-rule="evenodd" d="M59.815 112.471C55.3454 112.641 50.0899 113.718 43.4614 116.356L44.3437 123.765C44.409 124.313 44.1256 124.842 43.6443 125.07L6.49133 142.683C6.13639 142.851 5.72554 142.83 5.38808 142.626C5.05062 142.422 4.82803 142.061 4.79035 141.656L-0.0035769 90.075C-0.0587987 89.4809 0.292063 88.9276 0.837269 88.7491L22.4848 81.6609C29.4565 77.4797 41.4743 70.3368 50.5636 67.3657L50.5958 67.3544C51.7586 66.9475 53.0261 66.504 54.3122 66.2767C56.4278 65.8352 59.5114 65.627 63.1202 65.627C65.5855 65.627 68.2215 65.8123 70.9803 66.0063L71.5902 66.0491C71.608 66.0504 71.6258 66.052 71.6435 66.0541L77.0367 66.6831C77.0492 66.6846 77.0618 66.6863 77.0743 66.6881L77.0942 66.6911C79.8777 67.1085 82.7088 67.5331 85.5463 68.1713L85.5552 68.1734L90.9484 69.4315C90.9719 69.437 90.9953 69.4432 91.0185 69.4501L91.0795 69.4684C93.8161 70.2891 96.6846 71.1494 99.172 72.4472C101.222 73.3125 103.077 74.3918 104.542 75.4861C107.906 77.7019 110.192 80.7002 110.657 84.1143L110.66 84.1362C110.708 84.5412 110.749 84.9574 110.771 85.3763C111.112 85.1357 111.467 84.9005 111.835 84.6787C113.455 83.6174 115.267 82.5604 117.046 81.523L117.062 81.5134C117.072 81.5077 117.082 81.5021 117.092 81.4967L117.109 81.4877L117.129 81.4769C119.905 80.02 122.732 78.5365 125.765 77.2612C132.025 74.2963 138.725 72.1568 143.667 71.5084C143.717 71.5018 143.768 71.4986 143.818 71.4986H143.943C146.4 71.1833 149.618 71.1185 152.338 72.0606C153.726 72.5416 155.042 73.3049 156.045 74.4895C157.06 75.6878 157.69 77.2419 157.806 79.1721C157.936 80.9526 157.118 82.8462 155.888 84.6787C154.63 86.5537 152.805 88.5643 150.604 90.6249C146.197 94.7511 140.137 99.2125 133.661 103.349C127.18 107.489 120.242 111.329 114.06 114.204C107.925 117.057 102.388 119.029 98.764 119.309L98.7585 119.309C89.2311 119.999 82.6504 117.761 76.5418 115.684C75.0446 115.175 73.5758 114.675 72.099 114.231C68.3398 113.1 64.4728 112.294 59.815 112.471ZM54.7689 68.7548C56.6477 68.3604 59.5488 68.1505 63.1202 68.1505C65.5006 68.1505 68.0581 68.3302 70.8413 68.5258L71.4021 68.5651L76.7499 69.1889C79.5449 69.608 82.2923 70.021 85.0334 70.6373L85.0379 70.6383L90.3868 71.8861C93.1956 72.7286 95.8648 73.5354 98.133 74.7259C98.1631 74.7416 98.1937 74.7561 98.2248 74.7692C100.137 75.572 101.849 76.5725 103.164 77.559C103.185 77.5741 103.205 77.5886 103.226 77.6024C106.233 79.5753 107.928 82.0164 108.264 84.4589C108.425 85.81 108.409 86.7643 108.204 87.4196L108.106 87.5027C107.783 87.7737 107.628 88.1827 107.658 88.5839C106.806 90.0133 105.092 90.96 102.519 91.4295C99.6413 91.9545 96.0103 91.8146 92.233 91.3222C85.6211 90.4602 78.8533 88.5631 75.4414 87.6066C74.9619 87.4722 74.5481 87.3562 74.2109 87.2645C73.5655 87.0888 72.906 87.4931 72.7379 88.1675C72.5697 88.8418 72.9567 89.5309 73.6021 89.7065C73.9255 89.7945 74.327 89.9072 74.7968 90.039L74.7984 90.0394C78.19 90.991 85.1378 92.9403 91.934 93.8263C95.797 94.3298 99.7065 94.5044 102.934 93.9154C106.099 93.3379 108.935 91.9568 110.143 89.0528L110.153 89.0343L110.168 89.0072C111.042 88.2718 111.989 87.4965 113.059 86.8546L113.08 86.8418L113.1 86.8289C114.66 85.8054 116.42 84.7778 118.217 83.7303C121.011 82.2634 123.757 80.8242 126.69 79.5924C126.7 79.5882 126.71 79.5838 126.72 79.5793L126.739 79.5706C132.824 76.6859 139.26 74.6429 143.894 74.0221H144.018C144.068 74.0221 144.118 74.0188 144.168 74.0122C146.495 73.7069 149.332 73.6779 151.577 74.456C152.686 74.8399 153.592 75.4002 154.237 76.1617C154.868 76.9074 155.312 77.9186 155.396 79.3387L155.398 79.3585C155.464 80.2485 155.047 81.5357 153.91 83.23C152.8 84.885 151.123 86.7501 148.992 88.7455C144.735 92.7313 138.81 97.1025 132.402 101.196C125.999 105.286 119.154 109.073 113.078 111.898C106.955 114.745 101.756 116.547 98.5884 116.792C89.5704 117.444 83.4909 115.382 77.4278 113.326C75.8894 112.804 74.3515 112.283 72.7674 111.806C68.8613 110.631 64.726 109.759 59.7272 109.949C54.9541 110.13 49.4513 111.277 42.6507 113.978L24.6501 83.2727C31.7645 79.0168 42.8969 72.5134 51.2959 69.7704L51.3191 69.7626C52.5355 69.337 53.6424 68.9526 54.7305 68.7622C54.7433 68.7599 54.7561 68.7575 54.7689 68.7548ZM2.49517 90.8508L7.03112 139.656L41.8372 123.155L40.9804 115.96L22.4331 84.3224L2.49517 90.8508Z" />
<path d="M98.8511 24.1325C98.8511 25.2391 99.1981 26.2426 101.871 26.9299C104.543 27.6171 106.902 28.4425 106.902 31.7508C106.902 34.1388 105.172 35.4364 102.877 35.8674V38.3789H101.348V35.8674C99.0876 35.3898 97.4829 33.9408 97.3417 31.3897L98.8511 31.3897C98.9806 32.7642 99.7213 34.1731 102.146 34.1731C104.748 34.1731 105.393 32.5545 105.393 31.7508C105.393 30.6674 104.644 29.0889 101.701 28.3899C98.4166 27.6095 97.3417 26.8234 97.3417 24.1325C97.3417 21.8843 99.0641 20.4515 101.348 19.9623V17.4666H102.877V19.9623C105.337 20.5563 106.82 22.3968 106.902 24.4004H105.393C105.322 22.9443 104.242 21.5555 102.146 21.5555C100.157 21.5555 98.8511 22.8628 98.8511 24.1325Z" />
<path fill-rule="evenodd" clip-rule="evenodd" d="M84.8849 28.3037C84.8849 18.3239 92.3524 10.478 101.871 10.478C111.399 10.478 118.857 18.5885 118.857 28.3037C118.857 38.2939 111.138 46.1294 101.871 46.1294C92.3425 46.1294 84.8849 38.0189 84.8849 28.3037ZM101.871 12.581C93.4729 12.581 86.8976 19.4761 86.8976 28.3037C86.8976 36.8876 93.4828 44.0264 101.871 44.0264C110.037 44.0264 116.844 37.121 116.844 28.3037C116.844 19.7198 110.259 12.581 101.871 12.581Z" />
<path fill-rule="evenodd" clip-rule="evenodd" d="M150.817 43.0074C150.817 42.9987 150.817 42.9899 150.817 42.9811V15.7231C150.817 15.7143 150.817 15.7056 150.817 15.6968V1.04561C150.817 0.4649 150.366 -0.00585938 149.81 -0.00585938H53.9317C53.3759 -0.00585938 52.9253 0.4649 52.9253 1.04561V55.5619C52.9253 56.1426 53.3759 56.6133 53.9317 56.6133H65.907L65.9167 56.6134H135.828L135.838 56.6133H149.81C150.366 56.6133 150.817 56.1426 150.817 55.5619V43.0074ZM54.938 2.09708V18.8342C63.4986 18.3067 70.3733 11.0939 70.8734 2.09708H54.938ZM72.8892 2.09708C72.3846 12.2481 64.6175 20.4085 54.938 20.9405V37.761C64.4841 38.2335 72.3205 45.3866 72.883 54.5104H130.859C131.421 45.3865 139.258 38.2333 148.804 37.761V20.9405C139.124 20.4087 131.357 12.2482 130.853 2.09708H72.8892ZM54.938 39.8662C63.5457 40.331 70.3028 46.7199 70.8647 54.5104H54.938V39.8662ZM148.804 18.8342C140.243 18.3067 133.368 11.0939 132.868 2.09708H148.804V18.8342ZM148.804 54.5104H132.877C133.439 46.7199 140.196 40.331 148.804 39.8662V54.5104Z" />
</g>
<defs>
<clipPath id="clip0_1217:3523">
<rect width="158" height="143" fill="currentColor"/>
</clipPath>
</defs>
</svg>
