<svg width="32" height="32" viewBox="0 0 129 160" fill="currentColor" xmlns="http://www.w3.org/2000/svg">
<g clip-path="url(#clip0_1218:3630)">
<path fill-rule="evenodd" clip-rule="evenodd" d="M127.787 159.999H21.837C21.0282 159.999 20.4216 159.393 20.4216 158.585V110.973C9.04856 110.411 0.00012207 101.012 0.00012207 89.4995C0.00012207 78.1238 8.83482 68.8116 20.0172 68.0499V26.6661C20.0172 25.858 20.6238 25.252 21.4326 25.252H47.1113C47.5156 25.252 47.92 25.454 48.1222 25.858C48.3244 26.2621 48.3244 26.6661 48.1222 27.0701C47.7178 27.8782 47.5156 28.6863 47.5156 29.4944V35.353H100.491V29.4944C100.491 28.6863 100.288 27.8782 99.884 27.0701C99.6818 26.6661 99.6818 26.2621 99.884 25.858C100.086 25.454 100.491 25.252 100.895 25.252H126.776C128 25.252 129 26.2015 129 27.2015V158.5C129 159 129 160 127.787 159.999ZM23.2003 68.0658V54.9995H23.2523V28.0802H45.6959C45.4937 28.6863 45.4937 29.2924 45.4937 29.8984V36.9691C45.4937 37.7772 46.1003 38.3833 46.9091 38.3833H102.513C103.321 38.3833 103.928 37.7772 103.928 36.9691V29.8984C103.928 29.2924 103.928 28.6863 103.726 28.0802H126.371V157.373H23.2523V121H23.2003V110.933C34.2797 110.067 43.0001 100.801 43.0001 89.4995C43.0001 78.1976 34.2797 68.9325 23.2003 68.0658ZM21.7458 70.001C22.5001 69.999 22.4112 70.0045 23.2003 70.0726C33.1737 70.934 41.0001 79.3028 41.0001 89.4995C41.0001 99.6962 33.1737 108.065 23.2003 108.926C22.604 108.978 22.6311 108.995 21.5877 108.999C21.5585 108.999 21.5293 109 21.5001 109C10.7306 109 2.00012 100.269 2.00012 89.4995C2.00012 78.73 10.7306 69.9995 21.5001 69.9995C21.5821 69.9995 21.664 70 21.7458 70.001Z" />
<path d="M90.3808 59.3947H35.5861C34.7774 59.3947 34.1708 58.7886 34.1708 57.9805C34.1708 57.1725 34.7774 56.5664 35.5861 56.5664H90.3808C91.1896 56.5664 91.7962 57.1725 91.7962 57.9805C91.594 58.7886 90.9874 59.3947 90.3808 59.3947Z" />
<path d="M114.037 59.3947H100.895C100.086 59.3947 99.4794 58.7886 99.4794 57.9805C99.4794 57.1725 100.086 56.5664 100.895 56.5664H114.037C114.846 56.5664 115.453 57.1725 115.453 57.9805C115.453 58.7886 114.846 59.3947 114.037 59.3947Z" />
<path d="M90.3806 70.9084H41.2474C40.4386 70.9084 39.832 70.3023 39.832 69.4942C39.832 68.6861 40.4386 68.0801 41.2474 68.0801H90.3806C91.1894 68.0801 91.796 68.6861 91.796 69.4942C91.5938 70.5043 90.9872 70.9084 90.3806 70.9084Z" />
<path d="M114.037 70.9084H100.895C100.086 70.9084 99.4794 70.3023 99.4794 69.4942C99.4794 68.6861 100.086 68.0801 100.895 68.0801H114.037C114.846 68.0801 115.453 68.6861 115.453 69.4942C115.453 70.5043 114.846 70.9084 114.037 70.9084Z" />
<path d="M90.3806 82.6271H41.2474C40.4386 82.6271 39.832 82.0211 39.832 81.213C39.832 80.4049 40.4386 79.7988 41.2474 79.7988H90.1784C90.9872 79.7988 91.5938 80.4049 91.5938 81.213C91.5938 82.0211 90.9872 82.6271 90.3806 82.6271Z" />
<path d="M114.037 82.6271H100.895C100.086 82.6271 99.4794 82.0211 99.4794 81.213C99.4794 80.4049 100.086 79.7988 100.895 79.7988H114.037C114.846 79.7988 115.453 80.4049 115.453 81.213C115.453 82.0211 114.846 82.6271 114.037 82.6271Z" />
<path d="M90.6477 94H42.3522C41.5795 94 40.9999 93.3571 40.9999 92.5C40.9999 91.6429 41.5795 91 42.3522 91H90.6477C91.4204 91 91.9999 91.6429 91.9999 92.5C91.8068 93.3571 91.2272 94 90.6477 94Z" />
<path d="M114.037 94.1408H100.895C100.086 94.1408 99.4794 93.5347 99.4794 92.7266C99.4794 91.9186 100.086 91.3125 100.895 91.3125H114.037C114.846 91.3125 115.453 91.9186 115.453 92.7266C115.453 93.5347 114.846 94.1408 114.037 94.1408Z" />
<path d="M90.4014 105.656H36.3951C35.5979 105.656 35.0001 105.05 35.0001 104.242C35.0001 103.434 35.5979 102.828 36.3951 102.828H90.4014C91.1985 102.828 91.7963 103.434 91.7963 104.242C91.5971 105.252 90.9992 105.656 90.4014 105.656Z" />
<path d="M114.037 105.656H100.895C100.086 105.656 99.4794 105.05 99.4794 104.242C99.4794 103.434 100.086 102.828 100.895 102.828H114.037C114.846 102.828 115.453 103.434 115.453 104.242C115.453 105.252 114.846 105.656 114.037 105.656Z" />
<path d="M90.3808 117.373H35.5861C34.7774 117.373 34.1708 116.767 34.1708 115.959C34.1708 115.151 34.7774 114.545 35.5861 114.545H90.3808C91.1896 114.545 91.7962 115.151 91.7962 115.959C91.594 116.767 90.9874 117.373 90.3808 117.373Z" />
<path d="M114.037 117.373H100.895C100.086 117.373 99.4794 116.767 99.4794 115.959C99.4794 115.151 100.086 114.545 100.895 114.545H114.037C114.846 114.545 115.453 115.151 115.453 115.959C115.453 116.767 114.846 117.373 114.037 117.373Z" />
<path d="M90.3808 128.889H35.5861C34.7774 128.889 34.1708 128.283 34.1708 127.475C34.1708 126.667 34.7774 126.061 35.5861 126.061H90.3808C91.1896 126.061 91.7962 126.667 91.7962 127.475C91.594 128.283 90.9874 128.889 90.3808 128.889Z" />
<path d="M114.037 128.889H100.895C100.086 128.889 99.4794 128.283 99.4794 127.475C99.4794 126.667 100.086 126.061 100.895 126.061H114.037C114.846 126.061 115.453 126.667 115.453 127.475C115.453 128.283 114.846 128.889 114.037 128.889Z" />
<path d="M90.3808 140.404H35.5861C34.7774 140.404 34.1708 139.798 34.1708 138.99C34.1708 138.182 34.7774 137.576 35.5861 137.576H90.3808C91.1896 137.576 91.7962 138.182 91.7962 138.99C91.594 139.798 90.9874 140.404 90.3808 140.404Z" />
<path d="M114.037 140.404H100.895C100.086 140.404 99.4794 139.798 99.4794 138.99C99.4794 138.182 100.086 137.576 100.895 137.576H114.037C114.846 137.576 115.453 138.182 115.453 138.99C115.453 139.798 114.846 140.404 114.037 140.404Z" />
<path d="M102.513 38.1826H46.9091C46.1004 38.1826 45.4938 37.5765 45.4938 36.7684V29.6977C45.4938 25.0513 49.3355 21.2129 53.9859 21.2129H95.2336C99.8841 21.2129 103.726 25.0513 103.726 29.6977V36.7684C103.928 37.5765 103.321 38.1826 102.513 38.1826ZM48.3245 35.5563H101.299V29.6977C101.299 26.4654 98.6709 23.8392 95.4358 23.8392H53.9859C50.7508 23.8392 48.1223 26.4654 48.1223 29.6977V35.5563H48.3245Z" />
<path d="M87.348 23.8383H62.0737C61.2649 23.8383 60.6583 23.2323 60.6583 22.4242V12.1212C60.6583 11.3131 61.2649 10.707 62.0737 10.707H68.3417C68.7461 10.707 69.3527 10.9091 69.5549 11.3131C70.5659 13.1313 72.5878 14.3434 74.8119 14.3434C77.0361 14.3434 79.058 13.1313 80.069 11.3131C80.2712 10.9091 80.6756 10.707 81.2822 10.707H87.5502C88.3589 10.707 88.9655 11.3131 88.9655 12.1212V22.4242C88.5611 23.2323 88.1568 23.8383 87.348 23.8383ZM63.489 21.2121H86.1348V13.5353H81.8887C80.2712 15.7575 77.6427 17.1717 74.8119 17.1717C71.9812 17.1717 69.3527 15.7575 67.7351 13.5353H63.489V21.2121Z" />
<path d="M74.8116 17.1717C70.1611 17.1717 66.1172 13.3333 66.1172 8.48485C66.1172 3.83838 69.9589 0 74.8116 0C79.6643 0 83.506 3.83838 83.506 8.68687C83.3038 13.3333 79.4621 17.1717 74.8116 17.1717ZM74.8116 2.62626C71.5765 2.62626 68.7458 5.25253 68.7458 8.68687C68.7458 11.9192 71.3743 14.7475 74.8116 14.7475C78.0467 14.7475 80.8774 12.1212 80.8774 8.68687C80.6752 5.25253 78.0467 2.62626 74.8116 2.62626Z" />
<path d="M33.7014 84.0872C34.2393 83.4571 34.1645 82.5103 33.5344 81.9724C32.9043 81.4346 31.9575 81.5094 31.4197 82.1394L19.8929 95.6428L13.0727 89.9593C12.4363 89.429 11.4905 89.515 10.9601 90.1514C10.4298 90.7878 10.5158 91.7336 11.1522 92.264L18.8344 98.6658C18.9557 98.7669 19.0882 98.8456 19.227 98.9023C19.8546 99.3642 20.7418 99.2691 21.2557 98.6671L33.7014 84.0872Z" />
</g>
<defs>
<clipPath id="clip0_1218:3630">
<rect width="129" height="160" fill="currentColor"/>
</clipPath>
</defs>
</svg>
