<svg width="37" height="36" viewBox="0 0 37 36" fill="none" xmlns="http://www.w3.org/2000/svg">
<path d="M24.2 3.31499C23.585 2.69999 22.52 3.11999 22.52 3.97499V9.20999C22.52 11.4 24.38 13.215 26.645 13.215C28.07 13.23 30.05 13.23 31.745 13.23C32.6 13.23 33.05 12.225 32.45 11.625C30.29 9.44999 26.42 5.53499 24.2 3.31499Z" fill="white"/>
<path d="M31.25 15.285H26.915C23.36 15.285 20.465 12.39 20.465 8.835V4.5C20.465 3.675 19.79 3 18.965 3H12.605C7.985 3 4.25 6 4.25 11.355V24.645C4.25 30 7.985 33 12.605 33H24.395C29.015 33 32.75 30 32.75 24.645V16.785C32.75 15.96 32.075 15.285 31.25 15.285ZM20 23.625H13.715L14.795 24.705C15.23 25.14 15.23 25.86 14.795 26.295C14.57 26.52 14.285 26.625 14 26.625C13.715 26.625 13.43 26.52 13.205 26.295L10.205 23.295C10.1 23.19 10.04 23.085 9.98 22.965C9.965 22.935 9.95 22.89 9.935 22.86C9.905 22.77 9.89 22.68 9.875 22.59C9.875 22.545 9.875 22.515 9.875 22.47C9.875 22.35 9.905 22.23 9.95 22.11C9.95 22.095 9.95 22.095 9.965 22.08C10.01 21.96 10.1 21.84 10.19 21.75C10.205 21.735 10.205 21.72 10.22 21.72L13.22 18.72C13.655 18.285 14.375 18.285 14.81 18.72C15.245 19.155 15.245 19.875 14.81 20.31L13.73 21.39H20C20.615 21.39 21.125 21.9 21.125 22.515C21.125 23.13 20.615 23.625 20 23.625Z" fill="white"/>
</svg>
