<svg width="20" height="20" viewBox="0 0 20 20" fill="none" xmlns="http://www.w3.org/2000/svg">
<path d="M9.99996 1.6665C5.39996 1.6665 1.66663 5.39984 1.66663 9.99984C1.66663 14.5998 5.39996 18.3332 9.99996 18.3332C14.6 18.3332 18.3333 14.5998 18.3333 9.99984C18.3333 5.39984 14.6 1.6665 9.99996 1.6665ZM9.99996 16.6665C6.32496 16.6665 3.33329 13.6748 3.33329 9.99984C3.33329 6.32484 6.32496 3.33317 9.99996 3.33317C13.675 3.33317 16.6666 6.32484 16.6666 9.99984C16.6666 13.6748 13.675 16.6665 9.99996 16.6665ZM10.2583 9.28317C8.78329 8.90817 8.30829 8.49984 8.30829 7.8915C8.30829 7.1915 8.96663 6.69984 10.0583 6.69984C11.2083 6.69984 11.6416 7.24984 11.675 8.0665H13.1C13.0583 6.94984 12.375 5.92484 11.025 5.5915V4.1665H9.08329V5.57484C7.82496 5.8415 6.81663 6.65817 6.81663 7.9165C6.81663 9.40817 8.05829 10.1582 9.86663 10.5915C11.4916 10.9748 11.8166 11.5498 11.8166 12.1498C11.8166 12.5915 11.4916 13.3082 10.0666 13.3082C8.73329 13.3082 8.20829 12.7082 8.13329 11.9415H6.69996C6.78329 13.3582 7.83329 14.1582 9.08329 14.4165V15.8332H11.0333V14.4415C12.3 14.1998 13.3 13.4748 13.3083 12.1332C13.3 10.2998 11.725 9.6665 10.2583 9.28317Z" fill="#777777"/>
</svg>
