<svg width="56" height="56" viewBox="0 0 56 56" fill="none" xmlns="http://www.w3.org/2000/svg">
<g opacity="0.4">
<path d="M10.6937 40.417C8.29039 37.8643 7.00006 35.0013 7.00006 30.3603C7.00006 22.1936 12.7331 14.874 21.0701 11.255L23.1537 14.4703C15.3721 18.6796 13.8507 24.142 13.2441 27.586C14.4971 26.9373 16.1374 26.711 17.7451 26.8603C21.9544 27.25 25.2724 30.7056 25.2724 35.0013C25.2724 37.1672 24.412 39.2445 22.8804 40.776C21.3489 42.3076 19.2717 43.168 17.1057 43.168C14.6021 43.168 12.2081 42.0246 10.6937 40.417ZM34.0271 40.417C31.6237 37.8643 30.3334 35.0013 30.3334 30.3603C30.3334 22.1936 36.0664 14.874 44.4034 11.255L46.4871 14.4703C38.7054 18.6796 37.1841 24.142 36.5774 27.586C37.8304 26.9373 39.4707 26.711 41.0784 26.8603C45.2877 27.25 48.6034 30.7056 48.6034 35.0013C48.6034 37.1672 47.743 39.2445 46.2114 40.776C44.6799 42.3076 42.6027 43.168 40.4367 43.168C37.9331 43.168 35.5391 42.0246 34.0247 40.417H34.0271Z" fill="#064DD6"/>
</g>
</svg>
