<svg width="22" height="17" viewBox="0 0 22 17" fill="none" xmlns="http://www.w3.org/2000/svg">
<path d="M22 15.159C21.9313 15.3793 21.8854 15.6185 21.7881 15.82C21.4444 16.5628 20.8773 16.9468 20.1212 16.9972C20.0639 17.0035 20.0066 16.9972 19.9494 16.9972C13.975 16.9972 7.99492 16.9972 2.02057 16.9972C1.06399 16.9972 0.302155 16.3866 0.0730333 15.4171C0.0272089 15.2219 0.00429604 15.0142 0.00429604 14.8127C-0.00143201 10.6012 -0.00143201 6.39598 0.00429604 2.18445C0.00429604 0.919108 0.84632 0 2.00339 0C8.00065 0 13.9979 0 19.9952 0C21.0033 0 21.7365 0.648412 21.9656 1.7312C21.9714 1.76897 21.9885 1.80674 22 1.83822C22 6.28267 22 10.7208 22 15.159ZM2.24969 1.42902C2.32416 1.51086 2.36425 1.56122 2.41008 1.61159C5.06216 4.53888 7.72571 7.45359 10.3663 10.3935C10.7444 10.8153 11.2714 10.8027 11.638 10.3998C14.2786 7.45988 16.9364 4.54518 19.5942 1.61788C19.64 1.56752 19.6859 1.50457 19.7546 1.42902C13.9063 1.42902 8.09803 1.42902 2.24969 1.42902ZM2.24396 15.5619C8.10376 15.5619 13.912 15.5619 19.7661 15.5619C17.9044 13.5348 16.0772 11.5455 14.2385 9.53732C14.1984 9.58139 14.1411 9.63804 14.0838 9.70099C13.5454 10.2927 13.0127 10.8845 12.4743 11.47C11.6322 12.3891 10.3778 12.3891 9.53577 11.47C9.20927 11.1174 8.8885 10.7586 8.56773 10.3998C8.29851 10.1039 8.03502 9.81431 7.77726 9.53102C5.93283 11.5392 4.10558 13.5348 2.24396 15.5619ZM1.30456 2.49292C1.30456 6.48412 1.30456 10.5194 1.30456 14.5043C3.13181 12.515 4.97624 10.5131 6.82067 8.4986C4.97624 6.48412 3.13181 4.48222 1.30456 2.49292ZM20.694 14.5106C20.694 10.5194 20.694 6.47782 20.694 2.5181C18.8782 4.49482 17.0338 6.49671 15.1836 8.51119C17.0281 10.5194 18.8668 12.5213 20.694 14.5106Z" fill="#7F7F7F"/>
</svg>
