<svg width="96" height="96" viewBox="0 0 96 96" fill="none" xmlns="http://www.w3.org/2000/svg">
<path d="M6.03257 48.0917C8.79367 51.2354 15.6964 54.2605 20.0999 53.9585C25.7228 53.5759 26.5059 49.7542 30.8691 48.3915C42.6765 44.713 51.9241 51.618 61.984 57.1179C84.2765 69.2922 105.132 50.1994 85.346 30.0439C73.4536 17.9322 45.4711 4.11099 36.3443 25.7299C32.3995 35.0738 37.4071 37.1525 24.783 36.1568C19.8112 35.7652 -6.48637 33.8499 6.03257 48.0917Z" fill="#064DD6"/>
<path opacity="0.9" d="M6.03257 48.0917C8.79367 51.2354 15.6964 54.2605 20.0999 53.9585C25.7228 53.5759 26.5059 49.7542 30.8691 48.3915C42.6765 44.713 51.9241 51.618 61.984 57.1179C84.2765 69.2922 105.132 50.1994 85.346 30.0439C73.4536 17.9322 45.4711 4.11099 36.3443 25.7299C32.3995 35.0738 37.4071 37.1525 24.783 36.1568C19.8112 35.7652 -6.48637 33.8499 6.03257 48.0917Z" fill="white"/>
<path d="M48.9929 81.515C72.9529 81.515 92.3762 80.3809 92.3762 78.9821C92.3762 77.5832 72.9529 76.4492 48.9929 76.4492C25.033 76.4492 5.60962 77.5832 5.60962 78.9821C5.60962 80.3809 25.033 81.515 48.9929 81.515Z" fill="#F5F5F5"/>
<path d="M59.9144 76.6093L56.7506 76.2423V58.0938H54.0387V76.2423L50.8748 76.6093L50.5996 77.5087H60.1896L59.9144 76.6093Z" fill="#263238"/>
<path opacity="0.4" d="M59.9144 76.6093L56.7506 76.2423V58.0938H54.0387V76.2423L50.8748 76.6093L50.5996 77.5087H60.1896L59.9144 76.6093Z" fill="#064DD6"/>
<path d="M54.5869 33.6758H68.6833C66.2964 41.1353 65.0694 48.9171 65.0451 56.7491H50.9487C50.973 48.9171 52.2 41.1353 54.5869 33.6758V33.6758Z" fill="#064DD6"/>
<path opacity="0.3" d="M54.5869 33.6758H68.6833C66.2964 41.1353 65.0694 48.9171 65.0451 56.7491H50.9487C50.973 48.9171 52.2 41.1353 54.5869 33.6758V33.6758Z" fill="black"/>
<path d="M53.7298 33.6758H67.8262C65.4385 41.1351 64.2107 48.917 64.1857 56.7491H50.0894C50.1132 48.9169 51.3411 41.1349 53.7298 33.6758V33.6758Z" fill="#064DD6"/>
<path d="M61.8074 58.9133H41.8531C42.6922 57.0875 44.2182 55.9688 45.865 55.9688H60.4559L61.8074 58.9133Z" fill="#064DD6"/>
<path d="M65.8617 58.9133H56.2269C57.0638 57.0875 58.5898 55.9688 60.2388 55.9688H63.6488C65.2956 55.9688 66.1101 56.9197 65.8617 58.9133Z" fill="#064DD6"/>
<path opacity="0.3" d="M65.8617 58.9133H56.2269C57.0638 57.0875 58.5898 55.9688 60.2388 55.9688H63.6488C65.2956 55.9688 66.1101 56.9197 65.8617 58.9133Z" fill="black"/>
<path d="M46.185 75.641L44.3793 75.8781L43.2046 71.788L45.0103 71.5508L46.185 75.641Z" fill="#FFC3BD"/>
<path d="M44.1533 75.4085L46.1671 75.1422C46.2008 75.1369 46.2353 75.145 46.2633 75.1646C46.2912 75.1842 46.3105 75.2139 46.317 75.2474L46.6258 76.8383C46.6373 76.9225 46.6151 77.0078 46.5639 77.0757C46.5128 77.1436 46.4369 77.1885 46.3528 77.2007C45.6458 77.2813 45.3034 77.2835 44.4129 77.4021C43.8647 77.4737 41.9785 77.7355 41.2155 77.74C40.4525 77.7445 40.4905 76.9904 40.8038 76.9166C42.2515 76.6033 43.3993 76.0216 43.8558 75.5584C43.9357 75.4769 44.0403 75.4242 44.1533 75.4085V75.4085Z" fill="#263238"/>
<path opacity="0.2" d="M45.0103 71.5547L43.2046 71.7919L43.811 73.8996L45.6166 73.6624L45.0103 71.5547Z" fill="black"/>
<path d="M52.1077 49.418C52.1077 49.418 37.9554 50.4316 38.526 55.6159C39.3471 63.0691 42.5535 72.856 42.5535 72.856L45.8359 72.2922C45.8359 72.2922 44.4621 63.2682 43.7327 57.4507C47.2635 55.9873 56.8401 57.3903 57.9633 54.3405C58.5142 52.761 58.6596 51.0683 58.3862 49.418H52.1077Z" fill="#263238"/>
<path opacity="0.3" d="M45.2117 53.7344C45.2117 53.7344 45.5562 55.276 45.7912 56.9497H45.7599L45.3974 57.0056L45.2117 57.0414L45.0036 57.0795C44.7194 57.1391 44.4386 57.2138 44.1623 57.3032L43.9721 57.3659C43.8893 57.3927 43.8088 57.4263 43.7327 57.4576C43.8155 58.1288 44.1019 59.0037 44.1041 59.7689C40.9559 56.0457 43.5514 53.7344 45.2117 53.7344Z" fill="black"/>
<path d="M46.3506 73.036L42.4998 73.5417L41.9807 72.1567L45.836 71.293L46.3506 73.036Z" fill="#064DD6"/>
<path d="M43.5536 75.794C43.7151 75.7685 43.8734 75.7257 44.0257 75.6665C44.0334 75.6637 44.0401 75.6589 44.0453 75.6526C44.0504 75.6463 44.0537 75.6387 44.0548 75.6307C44.0552 75.6223 44.053 75.614 44.0486 75.6068C44.0443 75.5996 44.0378 75.5939 44.0302 75.5904C43.9676 75.5568 43.4127 75.2749 43.2024 75.3913C43.1788 75.4048 43.1589 75.4239 43.1445 75.4469C43.13 75.4699 43.1215 75.4962 43.1196 75.5233C43.1109 75.5646 43.114 75.6075 43.1286 75.6471C43.1433 75.6867 43.1688 75.7213 43.2024 75.747C43.3096 75.8058 43.4348 75.8225 43.5536 75.794V75.794ZM43.9027 75.6217C43.5894 75.7269 43.35 75.7493 43.2538 75.6754C43.2333 75.6579 43.2178 75.6351 43.2092 75.6095C43.2005 75.5839 43.1989 75.5564 43.2046 75.53C43.2048 75.5168 43.2084 75.5039 43.215 75.4925C43.2217 75.4811 43.2312 75.4717 43.2426 75.4651C43.3567 75.4114 43.6767 75.5233 43.9027 75.6307V75.6217Z" fill="#064DD6"/>
<path d="M44.0167 75.6805C44.0225 75.6827 44.0289 75.6827 44.0346 75.6805C44.0409 75.6763 44.046 75.6707 44.0496 75.664C44.0531 75.6574 44.0549 75.6499 44.0548 75.6424C44.0548 75.6223 44.0257 75.0965 43.8198 74.9466C43.794 74.9262 43.7636 74.9123 43.7313 74.9061C43.699 74.8998 43.6657 74.9014 43.6341 74.9108C43.5982 74.9166 43.5652 74.9343 43.5404 74.9611C43.5157 74.9879 43.5006 75.0221 43.4976 75.0584C43.482 75.2598 43.8019 75.6022 43.9944 75.6849C44.0021 75.6858 44.0099 75.6842 44.0167 75.6805ZM43.6744 74.9824C43.7084 74.978 43.7429 74.9868 43.7706 75.007C43.8921 75.1676 43.9595 75.3627 43.963 75.5641C43.7885 75.4522 43.5715 75.1904 43.5827 75.0584C43.5827 75.0316 43.5938 75.0003 43.6542 74.9868L43.6744 74.9824Z" fill="#064DD6"/>
<path d="M54.0677 35.4207C53.9111 36.1232 53.7209 36.7766 53.5307 37.4478C53.3405 38.1191 53.1257 38.7747 52.893 39.4303C52.6603 40.0859 52.4164 40.7415 52.1502 41.3926C51.8839 42.0437 51.5863 42.6859 51.2663 43.3236L51.2082 43.4377L51.1858 43.4713C50.9919 43.7466 50.7528 43.9871 50.4787 44.1828C50.2685 44.3358 50.0479 44.4741 49.8187 44.5967C49.4082 44.8097 48.9827 44.9921 48.5455 45.1427C48.1226 45.2904 47.6997 45.4134 47.2768 45.5186C46.8511 45.6244 46.4202 45.7081 45.9858 45.7692L45.5674 44.4714L46.6302 43.8763C46.9815 43.6749 47.3283 43.4757 47.6595 43.2699C47.9793 43.077 48.2885 42.8672 48.5858 42.6411C48.7128 42.5467 48.8318 42.4419 48.9416 42.3279C49.0333 42.2317 49.1004 42.1377 49.087 42.1287L49.0064 42.2764C49.2503 41.6812 49.4741 41.0704 49.6911 40.4528C49.9082 39.8353 50.1051 39.2088 50.2997 38.5756C50.4944 37.9423 50.6801 37.3091 50.8613 36.6714C51.0426 36.0337 51.2194 35.3849 51.3872 34.7695L54.0677 35.4207Z" fill="#FFC3BD"/>
<path d="M51.1097 34.9368C49.6307 36.6351 48.6484 39.0113 48.6484 39.0113L52.5194 41.3406C53.6381 39.9779 55.0299 36.3778 55.0858 35.1628C55.1731 33.2967 52.7028 33.1088 51.1097 34.9368Z" fill="#064DD6"/>
<path opacity="0.5" d="M51.1097 34.9368C49.6307 36.6351 48.6484 39.0113 48.6484 39.0113L52.5194 41.3406C53.6381 39.9779 55.0299 36.3778 55.0858 35.1628C55.1731 33.2967 52.7028 33.1088 51.1097 34.9368Z" fill="white"/>
<path opacity="0.5" d="M52.4724 36.6664C51.6289 37.3757 51.0292 38.8502 50.7675 40.2823L52.5194 41.3361C53.0721 40.6649 53.6919 39.4454 54.1842 38.2327C53.7903 37.0311 53.2175 36.0399 52.4724 36.6664Z" fill="#064DD6"/>
<path d="M51.9264 76.7328H50.1073L49.2727 72.5195H51.0918L51.9264 76.7328Z" fill="#FFC3BD"/>
<path d="M50.0492 76.2891H52.0942C52.1283 76.2879 52.1615 76.3001 52.1866 76.3232C52.2117 76.3462 52.2268 76.3782 52.2285 76.4122L52.3269 78.0299C52.3275 78.115 52.2945 78.1969 52.235 78.2576C52.1754 78.3184 52.0943 78.3532 52.0092 78.3544C51.2977 78.3409 50.9576 78.3007 50.0581 78.3007C49.5054 78.3007 47.6304 78.3566 46.8674 78.3566C46.1044 78.3566 46.1245 77.6026 46.449 77.5332C47.8989 77.2267 49.2235 76.8038 49.7359 76.401C49.825 76.3299 49.9352 76.2906 50.0492 76.2891V76.2891Z" fill="#263238"/>
<path opacity="0.2" d="M51.0918 72.5195H49.2727L49.7045 74.6922H51.5237L51.0918 72.5195Z" fill="black"/>
<path d="M55.672 49.418C55.672 49.418 43.6789 50.4316 43.9742 55.6405C44.2964 61.344 48.9147 74.1694 48.9147 74.1694H52.2464C52.2464 74.1694 50.7383 62.5656 50.0088 56.757C53.3897 56.757 60.4044 57.3947 61.5276 54.345C62.0764 52.794 62.1871 51.1217 61.8476 49.5119L55.672 49.418Z" fill="#263238"/>
<path d="M52.4366 74.2185L48.4404 74.3998L48.1316 72.6836L52.3135 72.697L52.4366 74.2185Z" fill="#064DD6"/>
<path d="M49.4048 76.6058C49.5685 76.6009 49.7312 76.5792 49.8904 76.5409C49.8983 76.5389 49.9054 76.5347 49.911 76.5287C49.9165 76.5228 49.9202 76.5154 49.9217 76.5074C49.9234 76.4993 49.9226 76.4909 49.9194 76.4833C49.9162 76.4757 49.9108 76.4693 49.9038 76.4649C49.8456 76.4246 49.331 76.0711 49.1095 76.1583C49.0842 76.1685 49.0619 76.1849 49.0447 76.206C49.0274 76.2272 49.0159 76.2523 49.011 76.2792C48.9989 76.3178 48.9975 76.3591 49.0069 76.3985C49.0164 76.4379 49.0364 76.474 49.0647 76.5029C49.161 76.5789 49.2825 76.6157 49.4048 76.6058V76.6058ZM49.774 76.4783C49.4473 76.5432 49.2079 76.5342 49.1229 76.4492C49.1053 76.4285 49.0933 76.4037 49.0882 76.377C49.0831 76.3503 49.0851 76.3228 49.0938 76.2971C49.0958 76.2838 49.1012 76.2713 49.1094 76.2607C49.1177 76.2501 49.1285 76.2419 49.1408 76.2366C49.2594 76.1919 49.5615 76.344 49.774 76.4783Z" fill="#064DD6"/>
<path d="M49.888 76.5407H49.9059C49.9123 76.5376 49.9177 76.5328 49.9216 76.5269C49.9256 76.521 49.9279 76.5142 49.9283 76.5071C49.9283 76.4848 49.9708 75.9612 49.7873 75.7844C49.7637 75.7619 49.7355 75.7448 49.7045 75.7344C49.6736 75.724 49.6408 75.7204 49.6083 75.724C49.5719 75.7256 49.537 75.7392 49.5091 75.7627C49.4812 75.7862 49.4618 75.8182 49.4539 75.8538C49.4137 76.0507 49.6777 76.4311 49.8657 76.5385C49.8727 76.5415 49.8805 76.5422 49.888 76.5407V76.5407ZM49.6374 75.8023C49.6545 75.8022 49.6714 75.8055 49.6872 75.8121C49.7029 75.8186 49.7172 75.8282 49.7292 75.8404C49.8301 76.015 49.8724 76.2173 49.85 76.4176C49.6911 76.2856 49.5099 75.997 49.5367 75.8672C49.5367 75.8426 49.5569 75.8113 49.6195 75.8046L49.6374 75.8023Z" fill="#064DD6"/>
<path d="M46.4289 44.5219L44.395 44.0117L44.5382 46.1866C44.5382 46.1866 46.552 46.1866 46.722 45.5936L46.4289 44.5219Z" fill="#FFC3BD"/>
<path d="M42.8489 45.0723L43.3277 46.4372L44.5382 46.1866L44.395 44.0117L42.8489 45.0723Z" fill="#FFC3BD"/>
<path d="M52.1257 49.511H61.8544C61.9238 48.6429 61.7224 45.8146 61.8723 42.2145C61.9646 39.5467 62.288 36.8921 62.8389 34.2802C62.8837 34.0833 62.9284 33.8909 62.9754 33.694C62.9754 33.694 62.4809 33.5933 61.7739 33.4904C61.1876 33.4031 60.4515 33.3158 59.731 33.2823C58.3538 33.2028 56.9732 33.2028 55.5961 33.2823C54.9606 33.3404 54.3386 33.4456 53.8441 33.5418C53.2109 33.6694 52.8372 33.779 52.8372 33.779C52.8372 33.779 50.4341 39.2811 52.1257 49.511Z" fill="#064DD6"/>
<path opacity="0.5" d="M52.1257 49.511H61.8544C61.9238 48.6429 61.7224 45.8146 61.8723 42.2145C61.9646 39.5467 62.288 36.8921 62.8389 34.2802C62.8837 34.0833 62.9284 33.8909 62.9754 33.694C62.9754 33.694 62.4809 33.5933 61.7739 33.4904C61.1876 33.4031 60.4515 33.3158 59.731 33.2823C58.3538 33.2028 56.9732 33.2028 55.5961 33.2823C54.9606 33.3404 54.3386 33.4456 53.8441 33.5418C53.2109 33.6694 52.8372 33.779 52.8372 33.779C52.8372 33.779 50.4341 39.2811 52.1257 49.511Z" fill="white"/>
<path opacity="0.5" d="M61.8655 42.2167C61.9579 39.5483 62.2813 36.8929 62.8321 34.2803C62.1832 34.2243 61.0712 34.2803 60.8877 35.3386C60.6885 36.4663 60.6729 39.1021 61.8655 42.2167Z" fill="#064DD6"/>
<path d="M63.5861 34.9531C63.6801 35.1254 63.745 35.2552 63.8099 35.4006C63.8748 35.5461 63.9464 35.6915 64.0113 35.8481C64.141 36.139 64.2641 36.4321 64.3805 36.7275C64.6135 37.3226 64.8144 37.9299 64.9824 38.5466C65.1553 39.1716 65.2891 39.8068 65.3829 40.4485C65.4805 41.1105 65.5194 41.7799 65.4992 42.4488V42.5137V42.6412C65.492 42.7307 65.4793 42.8196 65.4612 42.9075C65.4268 43.0744 65.3727 43.2367 65.3001 43.3908C65.1779 43.6479 65.0122 43.8818 64.8101 44.0822C64.5095 44.3749 64.1643 44.6181 63.7875 44.8027C63.1792 45.099 62.5388 45.3242 61.8789 45.4739C61.2666 45.62 60.6466 45.7313 60.0218 45.8073C59.404 45.8848 58.7826 45.9296 58.1602 45.9416L57.9767 44.5879C59.084 44.2774 60.1751 43.9114 61.2457 43.4915C61.7318 43.3035 62.1987 43.0689 62.6397 42.7912C62.7931 42.6962 62.9293 42.5759 63.0424 42.4354C63.0715 42.3929 63.0715 42.3705 63.0559 42.3906C63.0434 42.4082 63.0343 42.428 63.029 42.4488C63.024 42.4634 63.0202 42.4783 63.0178 42.4936C63.0178 42.4936 63.0178 42.5159 63.0178 42.507V42.46C62.933 41.3883 62.7173 40.3311 62.3756 39.3118C62.2056 38.7867 62.0162 38.2647 61.8073 37.7455C61.7066 37.486 61.5992 37.2264 61.4874 36.9714L61.3151 36.5932L61.1517 36.2419L63.5861 34.9531Z" fill="#FFC3BD"/>
<path d="M62.9687 33.6919C61.1966 33.1325 60.0599 34.5489 60.5521 37.0034C61.0444 39.458 61.6709 40.3731 61.6709 40.3731L65.8148 39.7869C65.4769 37.3793 64.7811 34.2647 62.9687 33.6919Z" fill="#064DD6"/>
<path opacity="0.5" d="M62.9687 33.6919C61.1966 33.1325 60.0599 34.5489 60.5521 37.0034C61.0444 39.458 61.6709 40.3731 61.6709 40.3731L65.8148 39.7869C65.4769 37.3793 64.7811 34.2647 62.9687 33.6919Z" fill="white"/>
<path d="M59.6347 28.6445L58.5294 29.5619L57.0213 30.8239C57.0659 31.0246 57.098 31.2278 57.1175 31.4325C57.1981 32.2514 56.9877 32.9988 55.7862 33.2784C55.7862 33.2784 54.6025 34.3838 56.9676 34.4173C59.3326 34.4509 59.8764 33.2986 59.8764 33.2986C58.9836 32.4036 59.3282 29.9759 59.6347 28.6445Z" fill="#FFC3BD"/>
<path d="M59.7153 32.6289C59.7153 32.6289 58.4802 33.9199 56.8513 34.4055C57.1437 34.4637 57.4079 34.6188 57.6012 34.8458C57.7944 35.0728 57.9055 35.3583 57.9164 35.6563C59.0866 35.3072 60.4761 33.5485 60.438 33.2218C60.1852 33.0393 59.9438 32.8413 59.7153 32.6289Z" fill="white"/>
<path d="M56.3254 32.9922C56.3254 32.9922 55.2201 33.9185 56.8513 34.4041C56.5516 34.4401 56.27 34.5664 56.0438 34.7662C55.8176 34.966 55.6575 35.2299 55.5848 35.5228C55.2952 35.2011 55.1205 34.7924 55.0881 34.3608C55.0557 33.9291 55.1675 33.499 55.4058 33.1376C55.7152 33.109 56.0223 33.0604 56.3254 32.9922V32.9922Z" fill="white"/>
<path opacity="0.2" d="M57.0212 30.8211C57.0659 31.0218 57.098 31.225 57.1175 31.4297C57.6791 31.3178 58.4309 30.7182 58.5092 30.1454C58.5361 29.9549 58.5429 29.7622 58.5293 29.5703L57.0212 30.8211Z" fill="black"/>
<path d="M55.5781 24.559C54.8353 25.1743 54.9695 27.555 55.6833 27.3357C56.3971 27.1165 56.8043 23.5476 55.5781 24.559Z" fill="#263238"/>
<path d="M60.0911 26.7256C59.7062 28.4933 59.572 29.5449 58.5248 30.3527C58.1881 30.6175 57.7854 30.7854 57.3603 30.8383C56.9351 30.8912 56.5036 30.827 56.1122 30.6527C55.7208 30.4785 55.3844 30.2007 55.1393 29.8493C54.8941 29.4979 54.7495 29.0863 54.721 28.6588C54.5846 27.012 55.2379 24.3964 57.0973 23.8952C57.4974 23.7765 57.9216 23.7651 58.3275 23.862C58.7334 23.959 59.1066 24.1609 59.4099 24.4476C59.7131 24.7343 59.9357 25.0957 60.0552 25.4955C60.1748 25.8953 60.1872 26.3195 60.0911 26.7256V26.7256Z" fill="#FFC3BD"/>
<path d="M59.5094 27.9402C59.223 27.5867 59.2029 26.6872 59.4065 26.4008C59.1 26.1569 58.7934 25.3693 59.0306 25.0583C58.431 25.018 55.3275 25.7631 54.71 23.5345C55.0313 23.5893 55.3597 23.5893 55.6811 23.5345C55.6811 23.5345 55.0501 22.4851 56.1688 22.1719C56.3322 22.7022 57.6814 22.7559 58.3504 22.7313C59.722 22.6753 61.286 23.2459 60.6528 24.3109C61.6552 24.7517 61.8186 26.6984 59.5094 27.9402Z" fill="#263238"/>
<path d="M60.4045 24.2451C60.4045 24.2451 61.0892 24.3883 60.9572 23.5156C61.5233 23.9945 61.1608 24.8693 60.4045 24.2451Z" fill="#263238"/>
<path d="M60.38 28.3603C60.1403 28.672 59.7949 28.8853 59.4089 28.96C58.9077 29.0495 58.7556 28.5885 58.9771 28.1433C59.1762 27.7405 59.6774 27.2102 60.1383 27.3243C60.5992 27.4384 60.6776 27.9755 60.38 28.3603Z" fill="#FFC3BD"/>
<path d="M59.3484 27.3164C59.1622 27.9677 58.8589 28.5796 58.4533 29.1221C58.2423 29.4017 57.9648 29.6241 57.6459 29.7691C57.327 29.9141 56.9769 29.977 56.6275 29.9522C55.9854 29.941 56.0838 29.0572 56.0838 29.0572L55.7683 28.9856C55.7683 28.9856 55.8019 30.0797 55.1754 29.6166C55.0084 29.4227 54.8883 29.193 54.8241 28.9453C54.7587 28.7517 54.7211 28.5498 54.7122 28.3457C54.5601 28.5873 54.5041 29.6591 54.7368 30.1692C54.9569 30.5521 55.3158 30.8357 55.7392 30.9613C56.5124 31.1807 57.335 31.1517 58.0909 30.8785C59.232 30.431 59.3976 29.3302 59.4334 28.7037C59.4763 28.2396 59.551 27.7791 59.6571 27.3254L59.3484 27.3164Z" fill="#263238"/>
<path d="M57.0615 26.8865C57.0391 27.0319 56.9452 27.1393 56.849 27.1282C56.7527 27.117 56.6946 26.9894 56.7169 26.8462C56.7393 26.703 56.8355 26.5911 56.9407 26.6023C57.0459 26.6135 57.0839 26.7411 57.0615 26.8865Z" fill="#263238"/>
<path d="M55.4148 26.6929C55.3924 26.8383 55.2984 26.948 55.2022 26.9368C55.106 26.9256 55.0478 26.7981 55.0702 26.6526C55.0926 26.5072 55.1888 26.3998 55.2828 26.411C55.3767 26.4221 55.4372 26.5474 55.4148 26.6929Z" fill="#263238"/>
<path d="M55.9292 26.75C55.7465 27.1243 55.5147 27.4727 55.2401 27.786C55.3214 27.8512 55.4161 27.8977 55.5174 27.9221C55.6188 27.9464 55.7243 27.9481 55.8263 27.9269L55.9292 26.75Z" fill="#ED847E"/>
<path d="M55.8175 28.644C55.9859 28.6698 56.1579 28.6611 56.3229 28.6184C56.4879 28.5757 56.6426 28.4999 56.7774 28.3956C56.7816 28.3919 56.7851 28.3874 56.7876 28.3824C56.7902 28.3774 56.7917 28.3719 56.7921 28.3663C56.7925 28.3607 56.7918 28.3551 56.7901 28.3497C56.7883 28.3444 56.7855 28.3394 56.7818 28.3352C56.7782 28.3309 56.7737 28.3274 56.7687 28.3249C56.7636 28.3224 56.7582 28.3208 56.7526 28.3204C56.7469 28.32 56.7413 28.3207 56.736 28.3225C56.7306 28.3242 56.7257 28.327 56.7214 28.3307C56.5733 28.4417 56.4016 28.5172 56.2197 28.5514C56.0377 28.5855 55.8503 28.5774 55.672 28.5276C55.6666 28.5263 55.6609 28.526 55.6554 28.5269C55.6499 28.5277 55.6446 28.5297 55.6398 28.5326C55.635 28.5355 55.6308 28.5393 55.6275 28.5438C55.6243 28.5484 55.6219 28.5535 55.6206 28.5589C55.6189 28.5642 55.6183 28.5698 55.6189 28.5753C55.6194 28.5808 55.6211 28.5862 55.6239 28.591C55.6266 28.5959 55.6303 28.6001 55.6347 28.6034C55.6392 28.6067 55.6443 28.6091 55.6497 28.6104C55.7047 28.6254 55.7608 28.6367 55.8175 28.644V28.644Z" fill="#263238"/>
<path d="M57.9968 25.9894C58.0112 25.9868 58.0245 25.9797 58.0348 25.9693C58.0428 25.9614 58.0491 25.952 58.0535 25.9416C58.0578 25.9312 58.06 25.9201 58.06 25.9089C58.06 25.8976 58.0578 25.8865 58.0535 25.8761C58.0491 25.8658 58.0428 25.8564 58.0348 25.8485C57.9471 25.7451 57.8353 25.6651 57.7092 25.6155C57.5831 25.566 57.4466 25.5484 57.3121 25.5643C57.3008 25.5659 57.2901 25.5698 57.2803 25.5756C57.2706 25.5815 57.2622 25.5893 57.2555 25.5984C57.2489 25.6076 57.2441 25.618 57.2415 25.6291C57.2389 25.6401 57.2386 25.6516 57.2405 25.6627C57.2448 25.6852 57.2578 25.705 57.2766 25.718C57.2955 25.731 57.3186 25.736 57.3412 25.7321C57.4465 25.7222 57.5527 25.7372 57.651 25.7761C57.7494 25.815 57.8372 25.8766 57.9073 25.9558C57.9169 25.97 57.9307 25.9808 57.9467 25.9868C57.9627 25.9929 57.9802 25.9938 57.9968 25.9894Z" fill="#263238"/>
<path d="M54.8733 25.6373C54.8866 25.6419 54.9008 25.6429 54.9146 25.6402C54.9284 25.6374 54.9412 25.631 54.9516 25.6216C55.034 25.5484 55.1323 25.4954 55.2387 25.4666C55.3451 25.4379 55.4567 25.4343 55.5647 25.456C55.587 25.4616 55.6105 25.4585 55.6305 25.4473C55.6505 25.436 55.6654 25.4175 55.6721 25.3956C55.6783 25.3734 55.6754 25.3496 55.6641 25.3294C55.6528 25.3093 55.6339 25.2945 55.6117 25.2882V25.2882C55.4766 25.2602 55.3368 25.2637 55.2032 25.2987C55.0697 25.3336 54.9461 25.399 54.842 25.4896C54.833 25.4965 54.8255 25.5053 54.82 25.5152C54.8145 25.5252 54.8111 25.5362 54.81 25.5476C54.809 25.5589 54.8103 25.5703 54.8139 25.5812C54.8174 25.592 54.8232 25.6019 54.8308 25.6104C54.842 25.6233 54.8568 25.6327 54.8733 25.6373V25.6373Z" fill="#263238"/>
<path d="M58.319 44.5078H56.6387L57.4531 46.2978C57.4531 46.2978 59.1044 46.2732 59.0194 45.423L58.319 44.5078Z" fill="#FFC3BD"/>
<path d="M55.0366 45.6585L55.8981 46.8197L57.4531 46.2939L56.6387 44.5039L55.0366 45.6585Z" fill="#FFC3BD"/>
<path d="M70.7754 78.6797H71.592V47.52H70.7754V78.6797Z" fill="#064DD6"/>
<path d="M75.5994 78.6797H76.4161V47.52H75.5994V78.6797Z" fill="#064DD6"/>
<path opacity="0.2" d="M75.5994 78.6797H76.4161V47.52H75.5994V78.6797Z" fill="black"/>
<path d="M24.3691 78.6797H25.1858L25.1858 47.52H24.3691L24.3691 78.6797Z" fill="#064DD6"/>
<path opacity="0.2" d="M24.369 47.5195H25.1857V68.4561L24.369 66.628V47.5195Z" fill="black"/>
<path d="M19.5472 78.6797H20.3639L20.3639 47.52H19.5472L19.5472 78.6797Z" fill="#064DD6"/>
<path d="M19.5471 65.7461H71.5941V47.5192L19.5471 47.5192V65.7461Z" fill="#064DD6"/>
<path d="M19.0258 47.5195L71.5941 47.5195V46.1882L19.0258 46.1882V47.5195Z" fill="#064DD6"/>
<path d="M76.4139 47.5195H71.592V65.7464H76.4139V47.5195Z" fill="#064DD6"/>
<path opacity="0.2" d="M76.4139 47.5195H71.592V65.7464H76.4139V47.5195Z" fill="black"/>
<path d="M76.9353 46.1914H71.592V47.5227H76.9353V46.1914Z" fill="#064DD6"/>
<path opacity="0.2" d="M76.9353 46.1914H71.592V47.5227H76.9353V46.1914Z" fill="black"/>
<path opacity="0.2" d="M19.5473 48.4492L76.4161 48.4492V47.5229L19.5473 47.5229V48.4492Z" fill="black"/>
<path d="M52.0986 42.6139H32.7553C32.3951 42.6093 32.0501 42.4681 31.7901 42.2189C31.5301 41.9697 31.3744 41.631 31.3546 41.2713L30.8444 30.03C30.835 29.8567 30.861 29.6833 30.9211 29.5204C30.9811 29.3576 31.0738 29.2087 31.1934 29.083C31.3131 28.9572 31.4572 28.8573 31.6169 28.7893C31.7766 28.7213 31.9485 28.6866 32.122 28.6875H51.4654C51.8252 28.6926 52.1696 28.8341 52.4292 29.0832C52.6887 29.3324 52.8441 29.6708 52.8639 30.03L53.3763 41.2713C53.386 41.4447 53.3602 41.6183 53.3003 41.7813C53.2404 41.9443 53.1477 42.0933 53.028 42.2191C52.9083 42.3449 52.7641 42.4449 52.6042 42.5127C52.4444 42.5806 52.2723 42.615 52.0986 42.6139V42.6139Z" fill="#FF6C0E"/>
<path d="M51.8393 42.6139H32.4959C32.1357 42.6093 31.7907 42.4681 31.5307 42.2189C31.2707 41.9697 31.115 41.631 31.0952 41.2713L30.585 30.03C30.5756 29.8567 30.6016 29.6833 30.6617 29.5204C30.7217 29.3576 30.8144 29.2087 30.934 29.083C31.0537 28.9572 31.1978 28.8573 31.3575 28.7893C31.5172 28.7213 31.6891 28.6866 31.8626 28.6875H51.2061C51.5658 28.6926 51.9102 28.8341 52.1698 29.0832C52.4294 29.3324 52.5847 29.6708 52.6045 30.03L53.1169 41.2713C53.1267 41.4447 53.1008 41.6183 53.0409 41.7813C52.981 41.9443 52.8884 42.0933 52.7686 42.2191C52.6489 42.3449 52.5047 42.4449 52.3448 42.5127C52.185 42.5806 52.0129 42.615 51.8393 42.6139V42.6139Z" fill="#FF6C0E"/>
<path opacity="0.2" d="M51.8393 42.6139H32.4959C32.1357 42.6093 31.7907 42.4681 31.5307 42.2189C31.2707 41.9697 31.115 41.631 31.0952 41.2713L30.585 30.03C30.5756 29.8567 30.6016 29.6833 30.6617 29.5204C30.7217 29.3576 30.8144 29.2087 30.934 29.083C31.0537 28.9572 31.1978 28.8573 31.3575 28.7893C31.5172 28.7213 31.6891 28.6866 31.8626 28.6875H51.2061C51.5658 28.6926 51.9102 28.8341 52.1698 29.0832C52.4294 29.3324 52.5847 29.6708 52.6045 30.03L53.1169 41.2713C53.1267 41.4447 53.1008 41.6183 53.0409 41.7813C52.981 41.9443 52.8884 42.0933 52.7686 42.2191C52.6489 42.3449 52.5047 42.4449 52.3448 42.5127C52.185 42.5806 52.0129 42.615 51.8393 42.6139Z" fill="white"/>
<path d="M43.905 35.8203H40.2108V42.6134H43.905V35.8203Z" fill="#FF6C0E"/>
<path d="M40.0944 35.0977L38.4633 46.1891H42.4595L44.0906 35.0977H40.0944ZM42.4416 38.6218L42.1775 40.4118C42.1582 40.5446 42.0917 40.6661 41.9903 40.754C41.8888 40.8419 41.7591 40.8904 41.6249 40.8906H41.023C40.9425 40.8905 40.863 40.873 40.7898 40.8395C40.7167 40.806 40.6516 40.7571 40.5989 40.6962C40.5463 40.6353 40.5074 40.5638 40.4848 40.4865C40.4622 40.4093 40.4565 40.3281 40.4681 40.2484L40.7321 38.4584C40.7514 38.3256 40.8179 38.2041 40.9194 38.1162C41.0208 38.0283 41.1505 37.9798 41.2848 37.9796H41.8867C41.9672 37.9797 42.0467 37.9971 42.1198 38.0307C42.193 38.0642 42.2581 38.1131 42.3107 38.174C42.3633 38.2349 42.4022 38.3064 42.4248 38.3836C42.4474 38.4609 42.4531 38.5421 42.4416 38.6218V38.6218Z" fill="#FF6C0E"/>
<path opacity="0.2" d="M40.0944 35.0977L38.4633 46.1891H42.4595L44.0906 35.0977H40.0944ZM42.4416 38.6218L42.1775 40.4118C42.1582 40.5446 42.0917 40.6661 41.9903 40.754C41.8888 40.8419 41.7591 40.8904 41.6249 40.8906H41.023C40.9425 40.8905 40.863 40.873 40.7898 40.8395C40.7167 40.806 40.6516 40.7571 40.5989 40.6962C40.5463 40.6353 40.5074 40.5638 40.4848 40.4865C40.4622 40.4093 40.4565 40.3281 40.4681 40.2484L40.7321 38.4584C40.7514 38.3256 40.8179 38.2041 40.9194 38.1162C41.0208 38.0283 41.1505 37.9798 41.2848 37.9796H41.8867C41.9672 37.9797 42.0467 37.9971 42.1198 38.0307C42.193 38.0642 42.2581 38.1131 42.3107 38.174C42.3633 38.2349 42.4022 38.3064 42.4248 38.3836C42.4474 38.4609 42.4531 38.5421 42.4416 38.6218V38.6218Z" fill="white"/>
<path d="M44.7372 45.3789H37.7428L36.8835 46.1934H46.5966L44.7372 45.3789Z" fill="#FF6C0E"/>
<path opacity="0.2" d="M44.7372 45.3789H37.7428L36.8835 46.1934H46.5966L44.7372 45.3789Z" fill="white"/>
<path d="M24.0805 43.7039C23.6867 43.4801 23.8209 41.3276 23.9932 40.097C24.2036 38.609 24.8301 35.9755 26.8215 34.5166C27.7702 33.8207 28.6764 33.23 28.8352 32.4805C29.1261 33.1517 30.7796 37.9042 28.4213 40.041C26.4254 41.8467 24.9464 41.444 24.0805 43.7039Z" fill="#064DD6"/>
<g opacity="0.2">
<path opacity="0.2" d="M24.0805 43.7039C23.6867 43.4801 23.8209 41.3276 23.9932 40.097C24.2036 38.609 24.8301 35.9755 26.8215 34.5166C27.7702 33.8207 28.6764 33.23 28.8352 32.4805C29.1261 33.1517 30.7796 37.9042 28.4213 40.0411C26.4254 41.8467 24.9464 41.444 24.0805 43.7039Z" fill="black"/>
</g>
<path d="M24.604 42.4821C25.0627 42.2248 24.5369 39.7165 24.1163 38.289C23.6083 36.5616 22.3867 33.5096 19.6412 31.8404C18.339 31.0461 17.1016 30.3749 16.7727 29.5C16.5176 30.2764 15.6987 36.3916 19.0102 38.8439C21.8228 40.9181 23.1385 39.8687 24.604 42.4821Z" fill="#064DD6"/>
<path d="M24.3802 41.923C24.3668 41.9227 24.3537 41.9183 24.3429 41.9103C24.3321 41.9022 24.324 41.8911 24.3198 41.8782C23.6407 39.7641 22.7813 37.7123 21.7512 35.7452C20.073 32.4448 17.8154 31.9078 17.793 31.9034C17.7852 31.9015 17.7778 31.8982 17.7713 31.8934C17.7648 31.8887 17.7593 31.8827 17.7551 31.8759C17.7509 31.869 17.7482 31.8613 17.747 31.8534C17.7458 31.8454 17.7462 31.8373 17.7482 31.8295C17.7498 31.8217 17.753 31.8143 17.7574 31.8077C17.7619 31.8012 17.7676 31.7955 17.7743 31.7912C17.7809 31.7868 17.7884 31.7838 17.7962 31.7823C17.804 31.7808 17.812 31.7809 17.8198 31.7825C17.8444 31.7825 20.1536 32.333 21.8608 35.6915C22.8911 37.6659 23.7498 39.7253 24.4272 41.8469C24.4314 41.8626 24.4293 41.8794 24.4214 41.8936C24.4134 41.9078 24.4003 41.9183 24.3847 41.923H24.3802Z" fill="white"/>
<path d="M17.2427 34.0699C17.2349 34.0702 17.2272 34.069 17.2199 34.0663C17.2126 34.0637 17.2059 34.0595 17.2002 34.0542C17.1888 34.0425 17.1825 34.0269 17.1825 34.0106C17.1825 33.9943 17.1888 33.9786 17.2002 33.9669C17.6143 33.5709 18.1417 33.3138 18.7088 33.2316C19.2759 33.1494 19.8545 33.2461 20.3641 33.5083C20.3713 33.5116 20.3778 33.5164 20.3831 33.5223C20.3884 33.5282 20.3924 33.5352 20.3949 33.5427C20.3974 33.5503 20.3984 33.5583 20.3977 33.5662C20.397 33.5741 20.3947 33.5818 20.3909 33.5888C20.3878 33.5962 20.3832 33.6029 20.3773 33.6085C20.3715 33.614 20.3646 33.6183 20.357 33.621C20.3494 33.6238 20.3414 33.6249 20.3333 33.6244C20.3253 33.6238 20.3175 33.6216 20.3103 33.6179C19.8226 33.3686 19.2692 33.2777 18.7273 33.3579C18.1854 33.4381 17.682 33.6854 17.2875 34.0654C17.2735 34.072 17.2577 34.0736 17.2427 34.0699V34.0699Z" fill="white"/>
<path d="M19.6076 38.1541C19.5974 38.1571 19.5865 38.1571 19.5763 38.1541C19.5694 38.1501 19.5633 38.1449 19.5584 38.1385C19.5535 38.1322 19.5499 38.125 19.5479 38.1173C19.5458 38.1096 19.5453 38.1016 19.5463 38.0937C19.5473 38.0858 19.5499 38.0782 19.5539 38.0713C19.5539 38.0511 20.6727 36.2052 22.3128 36.6572C22.3284 36.6619 22.3415 36.6724 22.3494 36.6866C22.3574 36.7008 22.3595 36.7175 22.3553 36.7332C22.3506 36.7488 22.3401 36.762 22.3259 36.7699C22.3117 36.7778 22.2949 36.7799 22.2792 36.7758C20.7331 36.3484 19.6703 38.1183 19.6613 38.1339C19.6545 38.1412 19.6461 38.1468 19.6368 38.1503C19.6275 38.1538 19.6175 38.1551 19.6076 38.1541V38.1541Z" fill="white"/>
<path d="M21.382 35.0156C21.3686 35.0154 21.3555 35.0109 21.3447 35.0029C21.3339 34.9949 21.3258 34.9837 21.3216 34.9709C21.265 34.7589 21.2856 34.5336 21.3798 34.3354C21.4155 34.2793 21.4627 34.2313 21.5182 34.1947C21.5737 34.1581 21.6364 34.1336 21.702 34.1229C21.7098 34.1209 21.718 34.1206 21.7259 34.1219C21.7338 34.1232 21.7414 34.1262 21.7481 34.1306C21.7549 34.1351 21.7606 34.1408 21.765 34.1476C21.7694 34.1543 21.7723 34.1619 21.7736 34.1698C21.777 34.1858 21.7739 34.2025 21.7652 34.2163C21.7564 34.2301 21.7425 34.2399 21.7266 34.2437C21.6772 34.2501 21.6298 34.2675 21.588 34.2946C21.5462 34.3217 21.511 34.3578 21.485 34.4003C21.4092 34.5697 21.3934 34.7599 21.4402 34.9396C21.4426 34.9472 21.4433 34.9552 21.4424 34.9632C21.4416 34.9711 21.439 34.9788 21.4351 34.9857C21.4311 34.9927 21.4257 34.9987 21.4193 35.0035C21.4128 35.0082 21.4055 35.0116 21.3977 35.0134L21.382 35.0156Z" fill="white"/>
<path d="M27.6091 41.3359H21.9459L22.4673 46.1847H27.0878L27.6091 41.3359Z" fill="#064DD6"/>
<path opacity="0.7" d="M27.6091 41.3359H21.9459L22.4673 46.1847H27.0878L27.6091 41.3359Z" fill="white"/>
<path d="M72.487 41.7881V41.4861C72.487 41.4214 72.4613 41.3594 72.4156 41.3136C72.3698 41.2679 72.3078 41.2422 72.2431 41.2422H69.2336C69.169 41.2422 69.1069 41.2679 69.0612 41.3136C69.0154 41.3594 68.9897 41.4214 68.9897 41.4861V46.1849H72.487V45.6389C73.2477 45.6389 73.8452 44.7931 73.8452 43.7124C73.8452 42.6317 73.25 41.7881 72.487 41.7881ZM72.487 45.1444V42.2849C72.9569 42.2849 73.3552 42.9427 73.3552 43.7214C73.3552 44.5 72.9591 45.1579 72.487 45.1579V45.1444Z" fill="#064DD6"/>
<path opacity="0.2" d="M72.487 41.7881V41.4861C72.487 41.4214 72.4613 41.3594 72.4156 41.3136C72.3698 41.2679 72.3078 41.2422 72.2431 41.2422H69.2336C69.169 41.2422 69.1069 41.2679 69.0612 41.3136C69.0154 41.3594 68.9897 41.4214 68.9897 41.4861V46.1849H72.487V45.6389C73.2477 45.6389 73.8452 44.7931 73.8452 43.7124C73.8452 42.6317 73.25 41.7881 72.487 41.7881ZM72.487 45.1444V42.2849C72.9569 42.2849 73.3552 42.9427 73.3552 43.7214C73.3552 44.5 72.9591 45.1579 72.487 45.1579V45.1444Z" fill="white"/>
<path opacity="0.3" d="M72.4892 42.2852H72.0909L72.4892 43.3882V42.2852Z" fill="black"/>
<path opacity="0.3" d="M72.4892 45.6445H72.0909L72.4892 45.828V45.6445Z" fill="black"/>
</svg>
