<svg width="22" height="22" viewBox="0 0 22 22" fill="none" xmlns="http://www.w3.org/2000/svg">
<g filter="url(#filter0_d_7_2144)">
<circle cx="11" cy="11" r="7" fill="white"/>
<path d="M10.1667 14.3333H8.08333C7.83333 14.3333 7.66666 14.1666 7.66666 13.9166V11.8333C7.66666 11.5833 7.83333 11.4166 8.08333 11.4166C8.33333 11.4166 8.5 11.5833 8.5 11.8333V13.5H10.1667C10.4167 13.5 10.5833 13.6666 10.5833 13.9166C10.5833 14.1666 10.4167 14.3333 10.1667 14.3333Z" fill="black"/>
<path d="M13.9167 10.5833C13.6667 10.5833 13.5 10.4166 13.5 10.1666V8.49996H11.8333C11.5833 8.49996 11.4167 8.33329 11.4167 8.08329C11.4167 7.83329 11.5833 7.66663 11.8333 7.66663H13.9167C14.1667 7.66663 14.3333 7.83329 14.3333 8.08329V10.1666C14.3333 10.4166 14.1667 10.5833 13.9167 10.5833Z" fill="black"/>
</g>
<defs>
<filter id="filter0_d_7_2144" x="0" y="0" width="22" height="22" filterUnits="userSpaceOnUse" color-interpolation-filters="sRGB">
<feFlood flood-opacity="0" result="BackgroundImageFix"/>
<feColorMatrix in="SourceAlpha" type="matrix" values="0 0 0 0 0 0 0 0 0 0 0 0 0 0 0 0 0 0 127 0" result="hardAlpha"/>
<feOffset/>
<feGaussianBlur stdDeviation="2"/>
<feComposite in2="hardAlpha" operator="out"/>
<feColorMatrix type="matrix" values="0 0 0 0 0 0 0 0 0 0 0 0 0 0 0 0 0 0 0.1 0"/>
<feBlend mode="normal" in2="BackgroundImageFix" result="effect1_dropShadow_7_2144"/>
<feBlend mode="normal" in="SourceGraphic" in2="effect1_dropShadow_7_2144" result="shape"/>
</filter>
</defs>
</svg>
