<svg xmlns="http://www.w3.org/2000/svg" width="20" height="20" viewBox="0 0 20 20" fill="currentColor">
  <path d="M9.60229 4.16933L10 4.69131L10.3977 4.16933C10.754 3.70166 11.3669 2.98104 12.1466 2.38145C12.9305 1.77861 13.8371 1.33325 14.7917 1.33325C17.3318 1.33325 19.5 3.69058 19.5 6.71868C19.5 8.0869 19.0456 9.38456 18.2289 10.3848L18.1974 10.4233L18.1811 10.454L18.1807 10.4544L18.171 10.4652C18.1121 10.5304 18.059 10.5821 17.9975 10.6401L17.9975 10.6401L17.9924 10.645L17.9102 10.7247L17.9102 10.7247L17.905 10.7299L9.99997 18.6321L2.35951 11.0074L2.32729 10.9517L2.2709 10.8999C1.15042 9.87135 0.5 8.35802 0.5 6.71868C0.5 3.69058 2.66828 1.33325 5.20832 1.33325C6.16287 1.33325 7.06946 1.77861 7.85342 2.38145C8.63315 2.98104 9.24596 3.70166 9.60229 4.16933Z" stroke="rgba(255, 255, 255, .5)" fill="none"></path>
</svg>