<svg width="48" height="48" viewBox="0 0 48 48" fill="none" xmlns="http://www.w3.org/2000/svg">
<path d="M44 26V18C44 8 40 4 30 4H18C8 4 4 8 4 18V30C4 40 8 44 18 44H26" stroke="#064DD6" stroke-width="2.5" stroke-linecap="round" stroke-linejoin="round"/>
<path d="M14.6599 28.98L19.4199 22.8C20.0999 21.92 21.3599 21.76 22.2399 22.44L25.9 25.32C26.78 26 28.0399 25.84 28.7199 24.98L33.34 19.02" stroke="#FF6C0E" stroke-width="2.5" stroke-linecap="round" stroke-linejoin="round"/>
<path d="M38.9599 31.6399L39.5199 32.7799C39.7999 33.3399 40.4999 33.8599 41.1199 33.9799L41.8799 34.0999C44.1599 34.4799 44.6999 36.1599 43.0599 37.8199L42.3599 38.5199C41.8999 38.9999 41.64 39.9199 41.78 40.5599L41.8799 40.9799C42.4999 43.7399 41.0399 44.7999 38.6399 43.3599L38.1199 43.0599C37.4999 42.6999 36.4999 42.6999 35.8799 43.0599L35.3599 43.3599C32.9399 44.8199 31.4799 43.7399 32.1199 40.9799L32.2199 40.5599C32.3599 39.9199 32.0999 38.9999 31.6399 38.5199L30.9399 37.8199C29.2999 36.1599 29.8399 34.4799 32.1199 34.0999L32.8799 33.9799C33.4799 33.8799 34.1999 33.3399 34.4799 32.7799L35.0399 31.6399C36.1199 29.4599 37.8799 29.4599 38.9599 31.6399Z" stroke="#064DD6" stroke-width="2.5" stroke-linecap="round" stroke-linejoin="round"/>
</svg>
