<svg width="35" height="34" viewBox="0 0 35 34" fill="none" xmlns="http://www.w3.org/2000/svg">
<path d="M32.435 13.897H2.565C2.275 13.897 1.985 13.839 1.724 13.723C1.202 13.491 0.767 13.085 0.535 12.534C0.303 12.012 0.303 11.403 0.535 10.881C0.651 10.62 0.796 10.388 0.999001 10.185L9.815 1.369C10.656 0.528001 12.048 0.528001 12.889 1.369C13.73 2.21 13.73 3.602 12.889 4.443L7.814 9.547H32.464C33.653 9.547 34.639 10.533 34.639 11.722C34.639 12.911 33.653 13.897 32.435 13.897Z" fill="white"/>
<path d="M34.465 23.09C34.349 23.351 34.204 23.583 34.001 23.786L25.185 32.602C24.75 33.037 24.199 33.24 23.648 33.24C23.097 33.24 22.546 33.037 22.111 32.602C21.27 31.761 21.27 30.369 22.111 29.528L27.215 24.424H2.565C1.376 24.424 0.389999 23.438 0.389999 22.249C0.389999 21.06 1.376 20.074 2.565 20.074H32.464C32.754 20.074 33.015 20.132 33.305 20.248C33.827 20.48 34.262 20.886 34.494 21.437C34.668 21.959 34.668 22.568 34.465 23.09Z" fill="white"/>
</svg>
