<svg width="12" height="12" viewBox="0 0 12 12" fill="none" xmlns="http://www.w3.org/2000/svg">
<path d="M5.2 0H0.4C0.1792 0 0 0.1792 0 0.4V5.2C0 5.4208 0.1792 5.6 0.4 5.6H5.2C5.4208 5.6 5.6 5.4208 5.6 5.2V0.4C5.6 0.1792 5.4208 0 5.2 0ZM4.8 4.8H0.8V0.8H4.8V4.8Z" fill="white"/>
<path d="M11.6004 0H6.80039C6.57959 0 6.40039 0.1792 6.40039 0.4V5.2C6.40039 5.4208 6.57959 5.6 6.80039 5.6H11.6004C11.8212 5.6 12.0004 5.4208 12.0004 5.2V0.4C12.0004 0.1792 11.8212 0 11.6004 0ZM11.2004 4.8H7.20039V0.8H11.2004V4.8Z" fill="white"/>
<path d="M5.2 6.39844H0.4C0.1792 6.39844 0 6.57764 0 6.79844V11.5984C0 11.8192 0.1792 11.9984 0.4 11.9984H5.2C5.4208 11.9984 5.6 11.8192 5.6 11.5984V6.79844C5.6 6.57764 5.4208 6.39844 5.2 6.39844ZM4.8 11.1984H0.8V7.19844H4.8V11.1984Z" fill="white"/>
<path d="M11.6004 6.39844H6.80039C6.57959 6.39844 6.40039 6.57764 6.40039 6.79844V11.5984C6.40039 11.8192 6.57959 11.9984 6.80039 11.9984H11.6004C11.8212 11.9984 12.0004 11.8192 12.0004 11.5984V6.79844C12.0004 6.57764 11.8212 6.39844 11.6004 6.39844ZM11.2004 11.1984H7.20039V7.19844H11.2004V11.1984Z" fill="white"/>
</svg>
