<svg width="64" height="64" viewBox="0 0 64 64" fill="none" xmlns="http://www.w3.org/2000/svg">
<path d="M44.9652 54.5887H35.6719C34.692 54.5887 33.8912 53.7983 33.8912 52.808C33.8912 51.8281 34.6814 51.0273 35.6719 51.0273H44.9548C45.9347 51.0273 46.7355 51.8175 46.7355 52.808C46.7355 53.7985 45.9347 54.5887 44.9652 54.5887Z" fill="white"/>
<path d="M44.9653 45.6551H39.0753C38.0954 45.6551 37.2947 44.8649 37.2947 43.8744C37.2947 42.8945 38.0849 42.0938 39.0753 42.0938H44.9653C45.9452 42.0938 46.746 42.8839 46.746 43.8744C46.7355 44.8543 45.9348 45.6551 44.9653 45.6551Z" fill="white"/>
<path d="M44.9653 36.7098H39.0331C38.0532 36.7098 37.2524 35.9196 37.2524 34.9291C37.2524 33.9492 38.0426 33.1484 39.0331 33.1484H44.9653C45.9452 33.1484 46.7459 33.9386 46.7459 34.9291C46.7461 35.9196 45.9347 36.7098 44.9653 36.7098Z" fill="white"/>
<path d="M44.9549 27.7645H31.0043C30.0244 27.7645 29.2236 26.9743 29.2236 25.9838C29.2236 25.0039 30.0138 24.2031 31.0043 24.2031H44.9549C45.9348 24.2031 46.7356 24.9933 46.7356 25.9838C46.7356 26.9743 45.9348 27.7645 44.9549 27.7645Z" fill="white"/>
<path d="M52.5412 54.5887H51.4558C50.4759 54.5887 49.6752 53.7983 49.6752 52.808C49.6752 51.8281 50.4653 51.0273 51.4558 51.0273H52.5412C53.5211 51.0273 54.3218 51.8175 54.3218 52.808C54.3218 53.7985 53.5317 54.5887 52.5412 54.5887Z" fill="white"/>
<path d="M52.5412 45.6551H51.4558C50.4759 45.6551 49.6752 44.8649 49.6752 43.8744C49.6752 42.8945 50.4653 42.0938 51.4558 42.0938H52.5412C53.5211 42.0938 54.3218 42.8839 54.3218 43.8744C54.322 44.8543 53.5317 45.6551 52.5412 45.6551Z" fill="white"/>
<path d="M52.5412 36.7098H51.4558C50.4759 36.7098 49.6752 35.9196 49.6752 34.9291C49.6752 33.9492 50.4653 33.1484 51.4558 33.1484H52.5412C53.5211 33.1484 54.3218 33.9386 54.3218 34.9291C54.322 35.9196 53.5317 36.7098 52.5412 36.7098Z" fill="white"/>
<path d="M52.5412 27.7645H51.4558C50.4759 27.7645 49.6752 26.9743 49.6752 25.9838C49.6752 25.0039 50.4653 24.2031 51.4558 24.2031H52.5412C53.5211 24.2031 54.3218 24.9933 54.3218 25.9838C54.3218 26.9743 53.5317 27.7645 52.5412 27.7645Z" fill="white"/>
<path d="M62.235 10.7263H54.4483V7.78667C54.4483 6.80677 53.6582 6.00601 52.6677 6.00601H48.3582L47.0621 1.30669C46.8304 0.526783 46.1349 0 45.3341 0H39.3597C38.5696 0 37.8635 0.526783 37.6423 1.30652L36.3462 6.00584H32.0262C31.0463 6.00584 30.2455 6.79602 30.2455 7.7865V10.7368H22.4589C21.479 10.7368 20.6782 11.527 20.6782 12.5174V30.9672C19.182 31.5995 17.8648 32.5793 16.8745 33.8648C15.1359 31.6205 12.428 30.2297 9.43566 30.2297C4.23059 30.2297 0.00524902 34.4655 0.00524902 39.6601C0.00524902 52.7045 15.2414 63.2413 15.884 63.6732C16.5479 64.0841 17.2222 64.0841 17.886 63.6732C18.0546 63.5573 19.1505 62.8092 20.6994 61.5343V62.2192C20.6994 63.1991 21.4896 63.9998 22.4801 63.9998H62.214C63.1939 63.9998 63.9946 63.2097 63.9946 62.2192V12.5176C64.0052 11.5377 63.2149 10.7263 62.235 10.7263ZM40.7297 3.56132H43.996L44.6809 6.01644H40.0762L40.7297 3.56132ZM33.828 9.56733H50.8764V15.4257H33.828V9.56733ZM3.57717 39.6601C3.57717 36.4254 6.2114 33.7806 9.45669 33.7806C12.2068 33.7806 14.5459 35.6455 15.1781 38.3114C15.8104 40.3766 18.3285 39.8603 18.6447 38.3114C19.277 35.6455 21.616 33.7806 24.3662 33.7806C27.6009 33.7806 30.2457 36.4148 30.2457 39.6601C30.2457 41.9677 29.6451 44.2119 28.6862 46.3194H25.325C24.5663 46.3194 23.9026 45.8558 23.6497 45.1393L22.6276 42.2943C22.0692 40.7455 19.8986 40.7244 19.298 42.2521L16.706 48.943L15.8736 47.3099C15.568 46.7092 14.9569 46.33 14.2825 46.33H5.13665C4.17778 44.2015 3.57717 41.9571 3.57717 39.6601ZM16.9061 60.0066C14.9147 58.4787 10.3523 54.7277 7.12806 49.8809H12.0908C12.7546 49.8809 13.3763 50.2601 13.6819 50.8608L15.315 54.106C16.0105 55.4758 18.0019 55.3809 18.5603 53.9375L20.8679 47.9843L21.1209 48.7008C21.3738 49.4067 22.0375 49.8809 22.7963 49.8809H26.6632C23.4494 54.7171 18.9081 58.4893 16.9061 60.0066ZM60.4543 60.4385H24.2713V58.31C28.6968 53.9162 33.7964 47.2148 33.7964 39.6601C33.7964 34.455 29.5606 30.2297 24.366 30.2297C24.345 30.2297 24.3028 30.2297 24.2817 30.2297V14.2877H30.2876V17.2063C30.2876 18.1862 31.0778 18.987 32.0682 18.987H52.6675C53.6474 18.987 54.4482 18.1968 54.4482 17.2063V14.2878H60.454L60.4543 60.4385Z" fill="white"/>
<path d="M28.6862 46.3211H25.325C24.5663 46.3211 23.9026 45.8575 23.6496 45.141L22.6275 42.296C22.0691 40.7472 19.8986 40.7261 19.2979 42.2538L16.7059 48.9447L15.8735 47.3116C15.5679 46.7109 14.9569 46.3317 14.2824 46.3317H5.1366C5.84907 47.723 6.27802 48.6283 7.128 49.8826H12.0907C12.7546 49.8826 13.3762 50.2618 13.6818 50.8625L15.315 54.1077C16.0104 55.4775 18.0019 55.3826 18.5603 53.9392L20.8679 47.986L21.1208 48.7025C21.3738 49.4084 22.0375 49.8826 22.7962 49.8826H26.6631C27.5416 48.5269 27.9792 47.7455 28.6862 46.3211Z" fill="#FF6C0E"/>
</svg>
