<svg width="36" height="36" viewBox="0 0 36 36" fill="none" xmlns="http://www.w3.org/2000/svg">
<path d="M25.293 30.7064H20.0655C19.5143 30.7064 19.0638 30.2618 19.0638 29.7047C19.0638 29.1536 19.5083 28.7031 20.0655 28.7031H25.2871C25.8383 28.7031 26.2887 29.1476 26.2887 29.7047C26.2887 30.2619 25.8383 30.7064 25.293 30.7064Z" fill="white"/>
<path d="M25.293 25.6829H21.9799C21.4287 25.6829 20.9782 25.2385 20.9782 24.6813C20.9782 24.1301 21.4227 23.6797 21.9799 23.6797H25.293C25.8442 23.6797 26.2946 24.1242 26.2946 24.6813C26.2887 25.2325 25.8383 25.6829 25.293 25.6829Z" fill="white"/>
<path d="M25.2929 20.6478H21.9561C21.4049 20.6478 20.9545 20.2033 20.9545 19.6461C20.9545 19.095 21.3989 18.6445 21.9561 18.6445H25.2929C25.8441 18.6445 26.2946 19.089 26.2946 19.6461C26.2947 20.2033 25.8383 20.6478 25.2929 20.6478Z" fill="white"/>
<path d="M25.2871 15.6165H17.4399C16.8887 15.6165 16.4382 15.1721 16.4382 14.6149C16.4382 14.0637 16.8827 13.6133 17.4399 13.6133H25.2871C25.8383 13.6133 26.2887 14.0578 26.2887 14.6149C26.2887 15.1721 25.8383 15.6165 25.2871 15.6165Z" fill="white"/>
<path d="M29.5544 30.7064H28.9439C28.3927 30.7064 27.9423 30.2618 27.9423 29.7047C27.9423 29.1536 28.3868 28.7031 28.9439 28.7031H29.5544C30.1056 28.7031 30.556 29.1476 30.556 29.7047C30.556 30.2619 30.1116 30.7064 29.5544 30.7064Z" fill="white"/>
<path d="M29.5544 25.6829H28.9439C28.3927 25.6829 27.9423 25.2385 27.9423 24.6813C27.9423 24.1301 28.3868 23.6797 28.9439 23.6797H29.5544C30.1056 23.6797 30.556 24.1242 30.556 24.6813C30.5561 25.2325 30.1116 25.6829 29.5544 25.6829Z" fill="white"/>
<path d="M29.5544 20.6478H28.9439C28.3927 20.6478 27.9423 20.2033 27.9423 19.6461C27.9423 19.095 28.3868 18.6445 28.9439 18.6445H29.5544C30.1056 18.6445 30.556 19.089 30.556 19.6461C30.5561 20.2033 30.1116 20.6478 29.5544 20.6478Z" fill="white"/>
<path d="M29.5544 15.6165H28.9439C28.3927 15.6165 27.9423 15.1721 27.9423 14.6149C27.9423 14.0637 28.3868 13.6133 28.9439 13.6133H29.5544C30.1056 13.6133 30.556 14.0578 30.556 14.6149C30.556 15.1721 30.1116 15.6165 29.5544 15.6165Z" fill="white"/>
<path d="M35.0072 6.03357H30.6272V4.38C30.6272 3.82881 30.1827 3.37838 29.6255 3.37838H27.2015L26.4724 0.735012C26.3421 0.296315 25.9509 0 25.5004 0H22.1398C21.6954 0 21.2982 0.296315 21.1738 0.73492L20.4447 3.37829H18.0147C17.4635 3.37829 17.0131 3.82276 17.0131 4.37991V6.03944H12.6331C12.0819 6.03944 11.6315 6.48391 11.6315 7.04106V17.4191C10.7898 17.7747 10.0489 18.3259 9.49189 19.049C8.51392 17.7865 6.99072 17.0042 5.30754 17.0042C2.37968 17.0042 0.00292969 19.3868 0.00292969 22.3088C0.00292969 29.6463 8.57324 35.5732 8.93474 35.8162C9.30816 36.0473 9.68745 36.0473 10.0609 35.8162C10.1557 35.751 10.7721 35.3302 11.6434 34.613V34.9983C11.6434 35.5495 12.0879 35.9999 12.645 35.9999H34.9953C35.5465 35.9999 35.997 35.5554 35.997 34.9983V7.04115C36.0029 6.48996 35.5584 6.03357 35.0072 6.03357ZM22.9104 2.00324H24.7477L25.133 3.38425H22.5429L22.9104 2.00324ZM19.0282 5.38162H28.618V8.67694H19.0282V5.38162ZM2.01213 22.3088C2.01213 20.4893 3.49389 19.0016 5.31937 19.0016C6.86631 19.0016 8.18203 20.0506 8.53767 21.5501C8.8933 22.7118 10.3098 22.4214 10.4876 21.5501C10.8433 20.0506 12.159 19.0016 13.7059 19.0016C15.5255 19.0016 17.0132 20.4833 17.0132 22.3088C17.0132 23.6068 16.6753 24.8692 16.136 26.0546H14.2453C13.8185 26.0546 13.4452 25.7939 13.3029 25.3909L12.728 23.7906C12.4139 22.9193 11.193 22.9075 10.8551 23.7668L9.39709 27.5304L8.92887 26.6118C8.75697 26.274 8.41325 26.0606 8.03388 26.0606H2.88934C2.34998 24.8633 2.01213 23.6009 2.01213 22.3088ZM9.50968 33.7537C8.38951 32.8943 5.82316 30.7843 4.00951 28.058H6.80103C7.17445 28.058 7.52413 28.2713 7.69603 28.6092L8.61468 30.4347C9.00589 31.2051 10.1261 31.1518 10.4402 30.3398L11.7382 26.9912L11.8805 27.3942C12.0228 27.7913 12.3961 28.058 12.8229 28.058H14.998C13.1902 30.7784 10.6358 32.9002 9.50968 33.7537ZM34.0055 33.9967H13.6526V32.7994C16.1419 30.3278 19.0105 26.5583 19.0105 22.3088C19.0105 19.381 16.6278 17.0042 13.7059 17.0042C13.694 17.0042 13.6703 17.0042 13.6585 17.0042V8.03682H17.0367V9.67856C17.0367 10.2297 17.4812 10.6802 18.0384 10.6802H29.6255C30.1766 10.6802 30.6271 10.2357 30.6271 9.67856V8.03691H34.0054L34.0055 33.9967Z" fill="white"/>
<path d="M16.136 26.0539H14.2453C13.8185 26.0539 13.4452 25.7932 13.3029 25.3901L12.728 23.7898C12.4139 22.9186 11.193 22.9067 10.8551 23.7661L9.39709 27.5297L8.92887 26.611C8.75697 26.2732 8.41326 26.0599 8.03388 26.0599H2.88934C3.29011 26.8425 3.5314 27.3517 4.00951 28.0572H6.80103C7.17445 28.0572 7.52413 28.2706 7.69603 28.6084L8.61468 30.4339C9.00589 31.2044 10.1261 31.151 10.4402 30.3391L11.7382 26.9904L11.8805 27.3935C12.0228 27.7905 12.3961 28.0572 12.8229 28.0572H14.998C15.4922 27.2947 15.7383 26.8551 16.136 26.0539Z" fill="#FF6C0E"/>
</svg>
