<svg width="30" height="31" viewBox="0 0 30 31" fill="none" xmlns="http://www.w3.org/2000/svg">
<circle cx="15" cy="15.5" r="13.5" fill="#FEF4D7" stroke="white"/>
<circle cx="15" cy="15.5" r="14.5" stroke="#FABF15"/>
<path d="M11.5581 15.0325C12.5404 16.5655 13.8055 17.7934 15.3273 18.7905C15.6361 18.4296 15.9561 18.0761 16.2575 17.7078C16.8156 17.0194 17.5337 16.7515 18.4006 16.8855C18.9811 16.9748 19.5615 17.0752 20.1382 17.1906C20.8154 17.3283 21.247 17.812 21.2656 18.5487C21.2954 19.4975 21.3028 20.4463 21.2433 21.3913C21.1652 22.6341 19.9819 23.5271 18.7504 23.3447C16.5886 23.0248 14.5943 22.2657 12.8083 21.0007C10.1442 19.1105 8.32106 16.6064 7.41319 13.4549C7.20483 12.7331 7.01135 12.0038 7.00019 11.2485C6.98531 10.1621 7.84852 9.19094 8.93499 9.1128C9.72379 9.05699 10.52 9.08303 11.3126 9.07931C11.573 9.07931 11.8372 9.07187 12.0902 9.12396C12.6967 9.25419 13.0576 9.65231 13.1729 10.2588C13.2883 10.8541 13.3999 11.4532 13.4818 12.0522C13.5897 12.8484 13.3218 13.5145 12.7153 14.0391C12.3321 14.374 11.9451 14.7014 11.5581 15.0325Z" fill="#FABF15"/>
<path d="M21.9064 12.1264L16.1975 12.1136L17.4026 13.9999" stroke="#FABF15" stroke-linecap="round" stroke-linejoin="round"/>
<path d="M16.2474 9.96144L21.9562 9.97369L20.7511 8.08757" stroke="#FABF15" stroke-linecap="round" stroke-linejoin="round"/>
</svg>
