<svg width="30" height="30" viewBox="0 0 30 30" fill="none" xmlns="http://www.w3.org/2000/svg">
<circle cx="15" cy="15" r="13.5" fill="#D2E1FE" stroke="white"/>
<circle cx="15" cy="15" r="14.5" stroke="#064DD6"/>
<path d="M11.5379 14.7111C12.5158 16.2372 13.7753 17.4596 15.2903 18.4524C15.5978 18.0931 15.9164 17.7412 16.2164 17.3745C16.772 16.6892 17.487 16.4225 18.3501 16.5558C18.9279 16.6447 19.5058 16.7447 20.08 16.8596C20.7541 16.9966 21.1838 17.4782 21.2023 18.2116C21.232 19.1562 21.2394 20.1008 21.1801 21.0417C21.1023 22.2789 19.9244 23.1679 18.6983 22.9864C16.5461 22.6678 14.5606 21.9122 12.7825 20.6527C10.1303 18.771 8.3152 16.278 7.41136 13.1405C7.20392 12.4218 7.0113 11.6958 7.00019 10.9438C6.98537 9.8622 7.84476 8.89538 8.92641 8.81759C9.71171 8.76203 10.5044 8.78796 11.2934 8.78426C11.5527 8.78426 11.8157 8.77685 12.0676 8.82871C12.6714 8.95836 13.0307 9.35471 13.1456 9.95851C13.2604 10.5512 13.3715 11.1476 13.453 11.744C13.5604 12.5367 13.2937 13.1997 12.6899 13.722C12.3084 14.0554 11.9232 14.3814 11.5379 14.7111Z" fill="#064DD6"/>
<path d="M18.5499 12.3415C18.6091 12.3415 18.6684 12.3415 18.7277 12.3415C19.35 12.3415 19.976 12.3378 20.5983 12.3415C20.9576 12.3415 21.2244 12.6045 21.2206 12.9342C21.2169 13.2601 20.9539 13.5194 20.6057 13.5194C19.4389 13.5231 18.2721 13.5231 17.1052 13.5194C16.7311 13.5194 16.4866 13.2675 16.4866 12.886C16.4829 11.7303 16.4866 10.5783 16.4866 9.42252C16.4866 9.0595 16.7348 8.78909 17.0645 8.78539C17.4053 8.77798 17.6608 9.04468 17.6646 9.42252C17.6683 10.0337 17.6646 10.6449 17.6646 11.2561C17.6646 11.3228 17.6646 11.3895 17.6646 11.4969C17.7386 11.4302 17.7868 11.3895 17.8312 11.345C18.8647 10.3115 19.8982 9.27435 20.928 8.23715C21.0688 8.09639 21.2206 7.99638 21.4281 8.00008C21.8615 8.01119 22.1356 8.46311 21.9319 8.84465C21.8837 8.93356 21.8096 9.01505 21.7392 9.08914C20.7206 10.1115 19.6982 11.1302 18.6758 12.1526C18.6277 12.2007 18.5684 12.2378 18.5165 12.2785C18.5276 12.3007 18.5388 12.323 18.5499 12.3415Z" fill="#064DD6"/>
</svg>
