<svg width="30" height="30" viewBox="0 0 30 30" fill="none" xmlns="http://www.w3.org/2000/svg">
<circle cx="15" cy="15" r="14" fill="#FED2D2" stroke="white" stroke-width="2"/>
<circle cx="15" cy="15" r="14.5" stroke="#FD4747"/>
<g clip-path="url(#clip0_455_1672)">
<path d="M12.7918 17.7038C12.8257 18.1695 12.8559 18.6003 12.886 19.0311C12.9425 19.8034 12.6335 20.4011 12.0495 20.8552C11.6538 21.1618 11.2393 21.4451 10.8286 21.7284C10.2671 22.1165 9.65663 22.0738 9.16299 21.5848C8.61659 21.0415 8.07396 20.4942 7.55018 19.9276C6.72493 19.0311 6.84174 17.6495 7.79511 16.9082C9.38531 15.6702 11.1715 14.8785 13.1423 14.5796C16.2435 14.11 19.1149 14.762 21.7301 16.5589C21.9864 16.7336 22.2388 16.9199 22.4536 17.145C23.1583 17.8901 23.1884 19.1087 22.4988 19.8733C21.9524 20.4787 21.3759 21.0609 20.7956 21.6275C20.3208 22.0893 19.7103 22.1165 19.1752 21.7362C18.7683 21.4451 18.3613 21.154 17.9581 20.8591C17.2911 20.3662 17.0499 19.687 17.1291 18.8642C17.1592 18.5499 17.1705 18.2316 17.1969 17.9173C17.212 17.7737 17.1668 17.7193 17.0236 17.6922C15.9873 17.4904 14.9435 17.4477 13.8959 17.5447C13.5304 17.5757 13.1762 17.6495 12.7918 17.7038Z" fill="#FD4747"/>
<path d="M14.9471 11.3041C15.9646 10.2562 16.9443 9.24713 17.9278 8.23419C17.8939 8.23031 17.8412 8.22255 17.7884 8.22255C17.3626 8.22255 16.933 8.22255 16.5072 8.22255C16.1191 8.22255 15.8402 7.96641 15.8364 7.61712C15.8327 7.26783 16.1153 7.00392 16.4997 7.00392C17.453 7.00392 18.4102 7.00004 19.3635 7.00392C19.7479 7.00392 20.0004 7.25231 20.0041 7.63652C20.0117 8.66498 20.0079 9.69344 20.0041 10.7219C20.0041 11.0518 19.7969 11.2885 19.5067 11.3312C19.2203 11.3739 18.9716 11.2187 18.8737 10.9315C18.8435 10.8422 18.8435 10.7413 18.8397 10.6443C18.836 10.1398 18.8397 9.63911 18.8397 9.08413C18.7606 9.15787 18.7116 9.20056 18.6664 9.24713C17.6038 10.3377 16.5449 11.4321 15.4822 12.5266C15.1619 12.8564 14.8341 12.8603 14.5138 12.5343C13.3456 11.3312 12.1775 10.1281 11.0093 8.92501C10.8435 8.75425 10.7568 8.5602 10.8096 8.31569C10.9076 7.88102 11.3786 7.69862 11.7253 7.96641C11.7893 8.01686 11.8459 8.07895 11.9062 8.13717C12.8784 9.13846 13.8506 10.1398 14.819 11.1449C14.8755 11.1876 14.9095 11.2536 14.9471 11.3041Z" fill="#FD4747"/>
</g>
<defs>
<clipPath id="clip0_455_1672">
<rect width="16" height="15" fill="white" transform="translate(7 7)"/>
</clipPath>
</defs>
</svg>
