<svg width="14" height="13" viewBox="0 0 14 13" fill="none" xmlns="http://www.w3.org/2000/svg">
<path d="M11.084 12.2506H2.91732C2.76261 12.2506 2.61424 12.1891 2.50484 12.0798C2.39544 11.9704 2.33398 11.822 2.33398 11.6673V6.41727H0.583984L6.60807 0.940938C6.71547 0.843216 6.85545 0.789062 7.00065 0.789062C7.14585 0.789063 7.28584 0.843216 7.39324 0.940938L13.4173 6.41727H11.6673V11.6673C11.6673 11.822 11.6059 11.9704 11.4965 12.0798C11.3871 12.1891 11.2387 12.2506 11.084 12.2506ZM3.50065 11.0839H10.5007V5.34219L7.00065 2.16069L3.50065 5.34219V11.0839ZM5.25065 5.83394H8.75065V9.33394H5.25065V5.83394ZM6.41732 7.0006V8.16727H7.58398V7.0006H6.41732Z" fill="black"/>
</svg>
