<svg width="60" height="52" viewBox="0 0 60 52" fill="none" xmlns="http://www.w3.org/2000/svg">
<path d="M0.0615234 17.5V47.9435C0.0615234 50.1838 2.02816 51.9997 4.45409 51.9997H55.545C57.9709 51.9997 59.9375 50.1838 59.9375 47.9435V17.5H0.0615234Z" fill="#0F50CE"/>
<path d="M44.9995 8.43571L32.0133 0.57358C30.75 -0.191193 29.2496 -0.191193 27.9862 0.57358L15 8.43372L0 17.5127L15 26.5689L30 35.6251L45 26.559L60 17.5127L45 8.43621L44.9995 8.43571Z" fill="#0F50CE"/>
<g style="mix-blend-mode:soft-light">
<g style="mix-blend-mode:soft-light">
<path d="M1.23498 50.6852C1.21018 50.6852 1.18538 50.6763 1.16504 50.6584C1.12189 50.6197 1.11792 50.5532 1.15611 50.51L19.8647 29.4492C19.9034 29.4061 19.9699 29.4021 20.013 29.4403C20.0562 29.479 20.0601 29.5455 20.0219 29.5887L1.31335 50.6495C1.29251 50.6728 1.26375 50.6847 1.23498 50.6847V50.6852Z" fill="white"/>
</g>
<g style="mix-blend-mode:soft-light">
<path d="M58.7647 50.6851C58.736 50.6851 58.7067 50.6732 58.6864 50.6499L39.9778 29.5891C39.9391 29.5459 39.9431 29.4794 39.9867 29.4407C40.0299 29.402 40.0963 29.4059 40.135 29.4496L58.8436 50.5104C58.8823 50.5536 58.8783 50.6201 58.8347 50.6588C58.8148 50.6767 58.7895 50.6856 58.7647 50.6856V50.6851Z" fill="white"/>
</g>
</g>
<path d="M48.6243 2.77003H6.71341C5.97437 2.77003 5.3623 3.41172 5.3623 4.15119V38.1829H54.6368V8.88077L48.6243 2.76953V2.77003Z" fill="#BDD0FB"/>
<path d="M54.613 8.88156L49.1134 8.9292C48.9676 8.93069 48.8535 8.87362 48.7498 8.77089C48.6462 8.66766 48.6357 8.52771 48.6357 8.38229V2.8125L54.6125 8.88156H54.613Z" fill="#91B3FA"/>
<path d="M40.8697 18.7782C40.8697 20.0577 40.6653 21.2284 40.2571 22.29C39.8489 23.3515 39.2716 24.1848 38.5256 24.7887C37.7796 25.3927 36.9141 25.695 35.9285 25.695C35.2713 25.695 34.69 25.5371 34.1836 25.222C33.6777 24.9064 33.3136 24.4915 33.0914 23.9758H32.8782C31.9194 25.1217 30.6982 25.695 29.2152 25.695C27.6434 25.695 26.4049 25.222 25.4992 24.2756C24.5935 23.3292 24.1406 22.0344 24.1406 20.3907C24.1406 18.5162 24.7353 17.0055 25.9252 15.8596C27.1151 14.7137 28.6691 14.1405 30.5871 14.1405C31.351 14.1405 32.1922 14.2139 33.1113 14.3603C34.0304 14.5067 34.7873 14.6824 35.382 14.8869L35.0754 21.4036C35.0754 22.6383 35.4127 23.2562 36.0878 23.2562C36.6562 23.2562 37.109 22.8408 37.4463 22.01C37.7836 21.1793 37.9522 20.0934 37.9522 18.7515C37.9522 17.3212 37.6546 16.0571 37.0599 14.9598C36.4652 13.8626 35.628 13.0253 34.5492 12.4477C33.4704 11.87 32.2383 11.5816 30.853 11.5816C29.0595 11.5816 27.501 11.9504 26.1782 12.6879C24.8554 13.4253 23.8406 14.4894 23.1347 15.8795C22.4289 17.27 22.0758 18.8755 22.0758 20.6969C22.0758 23.149 22.7305 25.0304 24.0404 26.3406C25.3504 27.6513 27.2481 28.3064 29.7345 28.3064C30.6759 28.3064 31.7101 28.2022 32.838 27.9932C33.9659 27.7843 35.0754 27.4801 36.1676 27.0806V29.6394C34.2674 30.4479 32.1585 30.8523 29.8412 30.8523C26.4669 30.8523 23.8366 29.964 21.9493 28.1868C20.0625 26.4101 19.1191 23.9401 19.1191 20.7773C19.1191 18.5827 19.6008 16.5906 20.5645 14.8C21.5277 13.0099 22.8996 11.606 24.6803 10.5886C26.4604 9.57119 28.5094 9.0625 30.8272 9.0625C32.7804 9.0625 34.5254 9.46251 36.0615 10.262C37.5976 11.0615 38.783 12.199 39.6178 13.6735C40.4526 15.1484 40.8697 16.8497 40.8697 18.7778V18.7782ZM27.2307 20.4443C27.2307 22.3187 27.9945 23.2562 29.5217 23.2562C30.3208 23.2562 30.9289 22.9743 31.3465 22.4101C31.7636 21.8458 32.0171 20.9286 32.1059 19.6582L32.279 16.7127C31.8261 16.6149 31.3158 16.5663 30.7473 16.5663C29.6373 16.5663 28.7738 16.9127 28.1567 17.606C27.5397 18.2988 27.2312 19.2453 27.2312 20.4448L27.2307 20.4443Z" fill="#FF6C0E"/>
</svg>
