<svg width="33" height="40" viewBox="0 0 33 40" fill="none" xmlns="http://www.w3.org/2000/svg">
<path d="M22.8433 30.5403C18.9398 29.198 19.0023 29.2362 18.6104 29.036C17.028 28.2277 16.0847 26.5825 16.0847 25.0051C19.1762 23.7671 21.3624 20.741 21.3644 17.2017V16.8769C22.5848 16.8769 23.6081 15.8896 23.6081 14.6722V6.75465C23.6081 3.02418 20.5839 0 16.8535 0H11.0129C8.22285 0 5.7518 1.7033 4.73431 4.24068C3.46318 4.24068 2.43886 5.2689 2.43886 6.53028V14.7521C2.43886 15.9048 3.36279 16.8769 4.5792 16.8769V17.1861C4.58212 20.7244 6.76051 23.7593 9.8481 25.0022C9.8481 26.8248 8.66916 28.6243 6.75075 29.2868L3.10613 30.5403C1.24772 31.1793 0 32.9275 0 34.8932V35.9117C7.7741 41.3592 18.1669 41.3651 25.9494 35.9117C25.9494 35.3158 25.9494 35.4864 25.9494 34.8932C25.9494 32.9275 24.7016 31.1794 22.8433 30.5403Z" fill="#FFEBD2"/>
<path d="M25.9494 34.8942V35.9127C18.1755 41.3602 7.78249 41.3662 0 35.9127C0 35.3167 0 35.4878 0 34.8942C0 32.9285 1.24772 31.1805 3.10613 30.5414C7.13082 29.1574 6.97435 29.2282 7.36827 29.0234C9.56617 33.8894 16.4037 33.8894 18.6094 29.0381C18.6193 29.0282 18.7647 29.1384 19.1987 29.2878L22.8433 30.5414C24.7017 31.1804 25.9494 32.9285 25.9494 34.8942Z" fill="#064DD6"/>
<path d="M23.6077 6.75465V14.6722C23.6077 15.8896 22.5844 16.8769 21.364 16.8769V11.6909C21.3659 9.43934 19.5475 7.61118 17.3009 7.60923H8.65561C6.40893 7.60728 4.58077 9.42861 4.57882 11.6802V16.8769C3.36251 16.8769 2.43848 15.9047 2.43848 14.7521C2.43848 13.6009 2.43848 7.38115 2.43848 6.53028C2.43848 5.2689 3.4628 4.24068 4.73393 4.24068C5.75142 1.7033 8.22247 2.36004e-09 11.0125 2.36004e-09H16.8531C20.5836 -9.75518e-05 23.6077 3.02418 23.6077 6.75465Z" fill="#42434D"/>
<path d="M11.9331 22.6514C13.4482 23.4707 12.57 25.7711 10.9008 25.3462C7.24223 24.4149 4.58066 21.0896 4.5791 17.1858C4.5791 17.1708 4.58222 11.6603 4.58856 11.5093C4.6671 9.63798 7.48163 9.72032 7.49041 11.5933C7.4947 12.5058 7.50582 13.6807 7.50563 15.2348C7.50534 18.533 9.35223 21.256 11.9331 22.6514Z" fill="#FFF3E4"/>
<path d="M17.0692 0.00359709C18.3424 0.0435943 18.304 1.95614 17.0302 1.96571C16.1989 1.97195 15.1909 1.9618 13.9391 1.95136C11.2945 1.92912 8.93656 3.48199 7.83127 5.80183C7.72494 6.0262 7.51325 6.18327 7.26839 6.22521C6.18553 6.41154 5.3651 7.35294 5.3651 8.48164V9.28354C4.87441 9.95569 4.57979 10.7839 4.57882 11.6804V16.8772C3.36251 16.8772 2.43848 15.9051 2.43848 14.7524V6.53056C2.43848 5.26918 3.4628 4.24096 4.73393 4.24096C5.75142 1.70358 8.22247 0.000280203 11.0125 0.000280203C17.4037 0.000182649 16.9148 -0.00128063 17.0692 0.00359709Z" fill="#585966"/>
<path d="M15.7568 27.0802C14.0134 27.695 12.0234 27.73 10.1883 27.0822C9.79978 26.945 9.58702 26.5328 9.69325 26.1347C9.85548 25.5264 9.83919 25.0803 9.84826 25.002C11.844 25.8059 14.0924 25.8027 16.0849 25.0049C16.0885 25.0338 16.0739 25.5003 16.2467 26.1311C16.3555 26.528 16.145 26.9434 15.7568 27.0802Z" fill="#FFDFBA"/>
<path d="M8.61316 30.8587C8.8669 31.1176 8.77061 31.5506 8.4278 31.6685L6.03275 32.4926C4.17435 33.1315 2.92663 34.8797 2.92663 36.8454C2.92663 37.2175 2.52851 37.452 2.20131 37.2746C1.44019 36.8619 0.705122 36.407 0 35.9127V34.8942C0 32.9285 1.24899 31.184 3.10613 30.5414C6.73885 29.2844 6.85816 29.2885 7.36827 29.0234C7.69215 29.7409 8.1171 30.3526 8.61316 30.8587Z" fill="url(#paint0_linear_1361_16419)"/>
<path d="M29.4661 34.3788C28.5756 34.3788 27.7908 34.8169 27.2979 35.4831L23.0364 33.301C23.1072 33.0598 23.1569 32.8099 23.1569 32.5462C23.1569 32.1885 23.0836 31.8484 22.9569 31.5356L27.4167 28.8519C27.913 29.4343 28.6426 29.8122 29.4661 29.8122C30.9571 29.8122 32.17 28.5993 32.17 27.1082C32.17 25.6172 30.9571 24.4043 29.4661 24.4043C27.9751 24.4043 26.7622 25.6172 26.7622 27.1082C26.7622 27.4518 26.8329 27.7778 26.9503 28.0804L22.4772 30.772C21.9813 30.2068 21.2623 29.8422 20.453 29.8422C18.9619 29.8422 17.749 31.0551 17.749 32.5462C17.749 34.0372 18.9619 35.2501 20.453 35.2501C21.3582 35.2501 22.1562 34.7992 22.6472 34.1143L26.8947 36.2893C26.8164 36.5418 26.7622 36.8049 26.7622 37.0828C26.7622 38.5738 27.9751 39.7867 29.4661 39.7867C30.9571 39.7867 32.17 38.5738 32.17 37.0828C32.17 35.5917 30.9571 34.3788 29.4661 34.3788Z" fill="#FFCC00"/>
<defs>
<linearGradient id="paint0_linear_1361_16419" x1="7.45205e-08" y1="39.4129" x2="10.0755" y2="36.8301" gradientUnits="userSpaceOnUse">
<stop stop-color="#0A3ECA"/>
<stop offset="0.961522" stop-color="#4B7CFF"/>
</linearGradient>
</defs>
</svg>
