<svg width="47" height="40" viewBox="0 0 47 40" fill="none" xmlns="http://www.w3.org/2000/svg">
<path d="M34.5448 33.166V36.7917C34.5448 38.0231 31.2612 39.0492 27.225 39.0492C23.1889 39.0492 19.9737 38.0573 19.9737 36.826V36.4155L19.9053 33.5423H19.9394C20.4867 34.6027 23.4967 35.4236 27.1224 35.4236C30.748 35.4236 34.4764 34.3975 34.4764 33.1661H34.5448V33.166Z" fill="#E2A63B"/>
<path d="M27.0205 19.6895V23.2809H26.9521C26.9521 24.5465 23.5659 25.5384 19.5639 25.5384C18.0247 25.5726 16.4513 25.4016 14.9463 25.0254L14.8779 25.0938C14.1253 24.4781 13.2702 23.9992 12.3467 23.6914V23.623L12.2441 19.8263C12.4836 20.9892 15.6646 21.9127 19.5297 21.9127C23.3949 21.9127 26.9521 20.9208 26.9521 19.6895H27.0205Z" fill="#F4B844"/>
<path d="M27.0204 19.7584C27.0204 20.9897 23.6342 21.9816 19.5981 21.9816C15.5619 21.9816 12.5177 21.0581 12.2783 19.8952C12.2783 19.861 12.2441 19.7926 12.2441 19.7584C12.2441 18.527 15.5278 17.5008 19.5981 17.5008C23.6684 17.4667 27.0204 18.4928 27.0204 19.7584Z" fill="#FEDB41"/>
<path d="M19.9405 33.5429L19.9063 32.7904L19.8379 29.712C20.0773 30.875 23.2583 31.7985 27.1235 31.7985C30.9886 31.7985 34.4091 30.8066 34.5117 29.6094H34.5458V33.1667H34.4774C34.4774 34.398 31.1595 35.4242 27.1234 35.4242C23.0873 35.4241 20.4878 34.6033 19.9405 33.5429Z" fill="#F4B844"/>
<path d="M15.0488 35.8343C15.9723 34.9792 16.6907 33.8846 17.0669 32.6875H17.2379C17.9904 32.7559 18.7429 32.7901 19.5638 32.7901H19.9058V33.5426L19.9742 36.4158H19.598C18.093 36.45 16.6222 36.279 15.1514 35.937L15.0488 35.8343Z" fill="#E2A63B"/>
<path d="M19.9405 29.4387V29.6098L20.0089 32.7908H19.6669C18.8118 32.7908 18.025 32.7566 17.2726 32.6882H17.1016C17.341 31.9699 17.4436 31.2174 17.4436 30.4649C17.4436 29.9518 17.3752 29.473 17.2726 28.9941H17.4436C18.1618 29.0626 18.8802 29.0967 19.6669 29.0967L19.9747 29.2677C19.9405 29.3361 19.9405 29.4045 19.9405 29.4387Z" fill="#F4B844"/>
<path d="M14.9463 25.0257C16.4513 25.4019 18.0247 25.5729 19.5639 25.5388C23.5658 25.5388 26.9521 24.5468 26.9521 23.2812H27.0205V27.3174C23.2922 27.3174 20.248 28.2067 19.8718 29.3354L19.5639 29.1644C18.8114 29.1644 18.0931 29.1302 17.409 29.0618H17.238C16.9302 27.4884 16.1093 26.086 14.8779 25.0599L14.9463 25.0257Z" fill="#E2A63B"/>
<path d="M34.5126 29.5416V29.61C34.41 30.8072 31.0922 31.7991 27.1245 31.7991C23.1567 31.7991 20.0783 30.8756 19.8389 29.7126V29.5416C19.8389 29.4732 19.8389 29.4048 19.873 29.3364C20.2493 28.2076 23.2935 27.3184 27.0218 27.3184H27.1244C31.1606 27.3183 34.5126 28.3102 34.5126 29.5416Z" fill="#FEDB41"/>
<path d="M9.18511 39.2648C14.2579 39.2648 18.3702 35.1524 18.3702 30.0796C18.3702 25.0068 14.2579 20.8945 9.18511 20.8945C4.11232 20.8945 0 25.0068 0 30.0796C0 35.1524 4.11232 39.2648 9.18511 39.2648Z" fill="#FFD54F"/>
<path d="M18.3707 30.0796C18.3698 32.5154 17.4018 34.8512 15.6795 36.5735C13.9571 38.2959 11.6214 39.2639 9.18562 39.2648C8.77591 39.2643 8.36672 39.2356 7.96094 39.179C10.1647 38.8834 12.1863 37.7981 13.6503 36.1246C15.1143 34.4511 15.9212 32.3031 15.9212 30.0796C15.9212 27.8562 15.1143 25.7082 13.6503 24.0347C12.1863 22.3612 10.1647 21.2759 7.96094 20.9803C8.36672 20.9237 8.77591 20.895 9.18562 20.8945C11.6214 20.8954 13.9571 21.8634 15.6795 23.5858C17.4018 25.3081 18.3698 27.6439 18.3707 30.0796Z" fill="#FFCA28"/>
<path d="M9.18595 36.8153C12.906 36.8153 15.9217 33.7996 15.9217 30.0795C15.9217 26.3594 12.906 23.3438 9.18595 23.3438C5.46589 23.3438 2.4502 26.3594 2.4502 30.0795C2.4502 33.7996 5.46589 36.8153 9.18595 36.8153Z" fill="#FFB74D"/>
<path d="M10.4093 36.705C9.43808 36.8829 8.43966 36.8451 7.4847 36.5943C6.52975 36.3435 5.64161 35.8858 4.88316 35.2537C4.12472 34.6215 3.51452 33.8304 3.09577 32.9363C2.67702 32.0421 2.45996 31.0668 2.45996 30.0795C2.45996 29.0922 2.67702 28.1169 3.09577 27.2227C3.51452 26.3286 4.12472 25.5375 4.88316 24.9053C5.64161 24.2732 6.52975 23.8155 7.4847 23.5647C8.43966 23.3139 9.43808 23.2761 10.4093 23.454C8.86137 23.7406 7.4627 24.5602 6.456 25.7705C5.44931 26.9808 4.89813 28.5053 4.89813 30.0795C4.89813 31.6537 5.44931 33.1783 6.456 34.3885C7.4627 35.5988 8.86137 36.4184 10.4093 36.705Z" fill="#FFA726"/>
<path d="M9.491 29.468H8.87866C8.63505 29.468 8.40143 29.3713 8.22917 29.199C8.05692 29.0267 7.96015 28.7931 7.96015 28.5495C7.96015 28.3059 8.05692 28.0723 8.22917 27.9C8.40143 27.7278 8.63505 27.631 8.87866 27.631H11.0219C11.1843 27.631 11.34 27.5665 11.4548 27.4517C11.5697 27.3368 11.6342 27.1811 11.6342 27.0187C11.6342 26.8563 11.5697 26.7005 11.4548 26.5857C11.34 26.4708 11.1843 26.4063 11.0219 26.4063H9.79717V25.794C9.79717 25.6316 9.73266 25.4758 9.61782 25.361C9.50298 25.2462 9.34723 25.1816 9.18483 25.1816C9.02243 25.1816 8.86667 25.2462 8.75184 25.361C8.637 25.4758 8.57249 25.6316 8.57249 25.794V26.4369C8.03606 26.5128 7.54841 26.7894 7.20806 27.2109C6.86771 27.6324 6.70004 28.1674 6.73891 28.7077C6.77779 29.2481 7.02032 29.7536 7.4175 30.122C7.81468 30.4905 8.3369 30.6944 8.87866 30.6927H9.491C9.7346 30.6927 9.96823 30.7895 10.1405 30.9617C10.3127 31.134 10.4095 31.3676 10.4095 31.6112C10.4095 31.8548 10.3127 32.0885 10.1405 32.2607C9.96823 32.433 9.7346 32.5297 9.491 32.5297H7.34781C7.1854 32.5297 7.02965 32.5942 6.91482 32.7091C6.79998 32.8239 6.73546 32.9797 6.73546 33.1421C6.73546 33.3045 6.79998 33.4602 6.91482 33.5751C7.02965 33.6899 7.1854 33.7544 7.34781 33.7544H8.57249V34.3668C8.57249 34.5292 8.637 34.6849 8.75184 34.7997C8.86667 34.9146 9.02243 34.9791 9.18483 34.9791C9.34723 34.9791 9.50298 34.9146 9.61782 34.7997C9.73266 34.6849 9.79717 34.5292 9.79717 34.3668V33.7238C10.3336 33.648 10.8212 33.3713 11.1616 32.9498C11.5019 32.5283 11.6696 31.9934 11.6307 31.453C11.5919 30.9126 11.3493 30.4072 10.9522 30.0387C10.555 29.6703 10.0328 29.4663 9.491 29.468Z" fill="#E8EFFF"/>
<path d="M41.5106 33.3721C44.143 31.0944 45.1904 27.9923 43.8501 26.4433C42.5099 24.8943 39.2894 25.485 36.657 27.7626C34.0246 30.0403 32.9771 33.1424 34.3174 34.6915C35.6577 36.2405 38.8782 35.6498 41.5106 33.3721Z" fill="#659FF2"/>
<path d="M43.122 25.8867C41.5496 25.1122 38.892 25.8293 36.6574 27.7627C34.0249 30.0404 32.9775 33.1426 34.3177 34.6917C34.9946 35.474 36.1513 35.7098 37.4695 35.4589C33.8995 33.6995 38.0564 26.8512 43.122 25.8867Z" fill="#99C4FA"/>
<path d="M34.0097 8.6636C34.0111 8.66289 34.0124 8.66227 34.0139 8.66164C34.8125 7.80516 35.8462 7.00813 36.7209 6.53305C35.7865 1.41547 28.626 0.703125 28.626 0.703125C28.626 0.703125 25.124 1.17039 25.124 3.31469C25.124 3.31461 25.4113 8.6636 34.0097 8.6636Z" fill="#C84316"/>
<path d="M33.7264 39.9994C33.399 39.9994 33.1338 39.7341 33.1338 39.4068V21.9871C33.1338 21.6598 33.3991 21.3945 33.7264 21.3945C34.0536 21.3945 34.3189 21.6598 34.3189 21.9871V39.4067C34.3189 39.734 34.0536 39.9994 33.7264 39.9994Z" fill="#064DD6"/>
<path d="M31.7021 18.9863V19.7666C31.7021 20.8845 32.6083 21.7909 33.7262 21.7909C34.8439 21.7909 35.7504 20.8845 35.7504 19.7666V18.9883C34.4319 19.3062 33.0459 19.3113 31.7021 18.9863Z" fill="#3E7DE6"/>
<path d="M33.5682 19.7666V19.2259C32.9264 19.2141 32.3021 19.1314 31.7021 18.9863V19.7666C31.7021 21.2889 33.3204 22.26 34.6593 21.5627C34.0111 21.2252 33.5682 20.5478 33.5682 19.7666Z" fill="#064DD6"/>
<path d="M36.6574 27.7615C34.0249 30.0391 32.9775 33.1414 34.3177 34.6905L43.851 26.442C42.5105 24.8929 39.2899 25.4837 36.6574 27.7615Z" fill="#99C4FA"/>
<path d="M28.1601 31.2356C30.0472 32.8684 32.3559 33.2919 33.3167 32.1814C34.2776 31.0709 33.5267 28.8471 31.6396 27.2143C29.7525 25.5815 27.4438 25.158 26.4829 26.2685C25.5221 27.3789 26.273 29.6028 28.1601 31.2356Z" fill="#99C4FA"/>
<path d="M28.9033 25.754C25.5341 24.9821 25.0258 28.5262 28.1596 31.2377C29.9216 32.7624 32.051 33.2322 33.1077 32.3839C29.7493 31.6145 26.9642 27.3113 28.9033 25.754Z" fill="#064DD6"/>
<path d="M31.6394 27.2156C33.5266 28.8485 34.2776 31.0725 33.3167 32.183L26.4824 26.2697C27.4434 25.1591 29.7521 25.5827 31.6394 27.2156Z" fill="#659FF2"/>
<path d="M28.9035 25.7538C28.8245 25.7538 27.4259 25.3507 26.58 26.1673C26.5461 26.2 26.5135 26.2342 26.4824 26.2701L28.3666 27.9004C28.1731 27.0959 28.267 26.2649 28.9035 25.7538Z" fill="#99C4FA"/>
<path d="M34.1701 8.50547C34.1693 8.50547 34.1686 8.50547 34.1679 8.50547C25.5693 8.50547 25.124 3.31445 25.124 3.31445V10.7844C25.124 14.4685 27.4493 17.6138 30.7036 18.8394C30.7042 13.7233 32.2984 10.5134 34.1701 8.50547Z" fill="#FA6532"/>
<path d="M36.5624 6.53391C35.9178 3.00289 32.3845 1.56922 30.2555 1.01961L30.255 1.01953C30.255 1.01953 27.2487 5.85508 34.0093 8.50641C34.0106 8.50571 34.0119 8.50508 34.0135 8.50446C34.8121 7.64797 35.6878 7.00899 36.5624 6.53391Z" fill="#E14C19"/>
<path d="M41.7542 5.16603C39.4093 5.22111 30.6949 6.2708 30.6943 18.8358C36.3162 20.9531 42.3296 16.7902 42.3296 10.7843V5.92884C42.3295 5.17923 41.8078 5.16548 41.7542 5.16603Z" fill="#FA541C"/>
<path d="M36.2051 19.0228C39.7476 17.9588 42.3291 14.6734 42.3291 10.7832V6.33984C39.4527 7.67055 35.1535 11.0257 36.2051 19.0228Z" fill="#FB7649"/>
<path d="M27.5463 2.92227C27.5463 1.90406 28.2246 1.21508 29.0207 0.756797C28.7705 0.717578 28.626 0.703125 28.626 0.703125C28.626 0.703125 25.124 1.17039 25.124 3.31469C25.124 3.31469 25.2412 5.4836 27.5463 7.05922V2.92227Z" fill="#FF6C0E"/>
<path d="M27.5463 11.5077V6.87524C25.2993 5.35313 25.124 3.31445 25.124 3.31445V10.7844C25.124 14.4685 27.4493 17.6138 30.7036 18.8394C30.7036 18.8213 30.7041 18.8038 30.7042 18.7858C28.7636 16.9797 27.5463 14.3888 27.5463 11.5077Z" fill="#E14C19"/>
<path d="M43.122 25.8867C41.5496 25.1122 38.892 25.8293 36.6574 27.7627C34.0249 30.0404 32.9775 33.1426 34.3177 34.6917L36.1592 33.0984C36.2293 30.1535 39.708 26.5367 43.122 25.8867Z" fill="#064DD6"/>
<path d="M36.5628 6.53293C38.5951 5.64371 40.586 5.33778 41.6097 5.18442C40.9022 3.62481 37.6784 -1.94387 28.626 0.702932C28.6258 0.702932 35.6284 1.41528 36.5628 6.53293Z" fill="#FF6C0E"/>
</svg>
