<svg width="41" height="41" viewBox="0 0 41 41" fill="none" xmlns="http://www.w3.org/2000/svg">
<path d="M9.29165 15.4093L3.17065 21.5305C3.17049 21.5308 3.17018 21.5309 3.16994 21.531C1.12583 23.5752 0 26.293 0 29.1836C0 32.0743 1.12583 34.7921 3.16987 36.8362C5.27978 38.9458 8.05095 40.0008 10.8223 40.0008C13.5934 40.0008 16.3648 38.9458 18.4744 36.8361C18.4744 36.8359 18.4744 36.8359 18.4746 36.8359L18.4748 36.8357L24.5965 30.7139C25.4418 29.8686 25.4418 28.4982 24.5965 27.6529C23.7513 26.8076 22.3808 26.8076 21.5355 27.6529L15.4138 33.7748C15.4138 33.775 15.4138 33.775 15.4137 33.775L15.4135 33.7751C12.8819 36.3068 8.76261 36.3068 6.23072 33.7751C5.00447 32.5487 4.32891 30.9181 4.32891 29.1836C4.32891 27.4491 5.00439 25.8186 6.23088 24.5923C6.23119 24.592 6.23134 24.5918 6.23142 24.5915L12.3526 18.4703C13.1979 17.625 13.1979 16.2547 12.3526 15.4094C11.5073 14.5641 10.1368 14.5641 9.29165 15.4093Z" fill="#FFCC00"/>
<path d="M33.7788 15.4093L27.6576 21.5305C26.8123 22.3758 26.8123 23.7461 27.6576 24.5914C28.0802 25.014 28.6342 25.2255 29.188 25.2255C29.742 25.2255 30.2959 25.0141 30.7184 24.5914L36.8394 18.4702C36.8396 18.4699 36.8399 18.4698 36.8401 18.4697C38.8842 16.4256 40.01 13.7078 40.01 10.8171C40.01 7.92633 38.8842 5.2086 36.8402 3.16449C32.6204 -1.0547 25.7548 -1.05501 21.5356 3.16465C21.5356 3.16481 21.5356 3.16481 21.5354 3.16481C21.5354 3.16481 21.5353 3.16481 21.5353 3.16496L15.4133 9.28683C14.568 10.132 14.568 11.5023 15.4133 12.3478C15.8359 12.7705 16.3898 12.9817 16.9437 12.9817C17.4975 12.9817 18.0516 12.7703 18.474 12.3478L24.5961 6.22589C24.5961 6.22574 24.5961 6.22574 24.5962 6.22574C24.5962 6.22574 24.5964 6.22574 24.5964 6.22558C27.128 3.69392 31.2473 3.69392 33.7792 6.22558C35.0056 7.45206 35.6811 9.08279 35.6811 10.8171C35.6811 12.5516 35.0057 14.1821 33.7792 15.4084C33.7791 15.4087 33.7789 15.409 33.7788 15.4093Z" fill="#064DD6"/>
<path d="M12.3527 27.6534C12.7753 28.076 13.3293 28.2875 13.8831 28.2875C14.4371 28.2875 14.991 28.0761 15.4135 27.6534L27.6573 15.4097C28.5026 14.5646 28.5026 13.1941 27.6573 12.3488C26.8122 11.5035 25.4417 11.5035 24.5964 12.3488L12.3527 24.5926C11.5074 25.4376 11.5074 26.8081 12.3527 27.6534Z" fill="#064DD6"/>
<path d="M10.8225 40.0013C13.5936 40.0013 16.365 38.9464 18.4746 36.8366C18.4746 36.8365 18.4746 36.8365 18.4748 36.8365L18.4749 36.8363L24.5967 30.7144C25.4419 29.8691 25.4419 28.4988 24.5967 27.6535C23.7515 26.8082 22.381 26.8082 21.5357 27.6535L15.414 33.7754C15.414 33.7755 15.414 33.7755 15.4139 33.7755L15.4137 33.7757C12.8821 36.3073 8.7628 36.3073 6.23091 33.7757C6.20583 33.7506 6.1823 33.7242 6.15761 33.6986L3.09668 36.7596C3.12161 36.785 3.1449 36.8115 3.17014 36.8366C5.27989 38.9465 8.05106 40.0013 10.8225 40.0013Z" fill="#CCA300"/>
<path d="M35.6821 10.8173C35.6821 12.5519 35.0066 14.1823 33.7801 15.4087C33.7798 15.409 33.7796 15.4092 33.7795 15.4095L27.6584 21.5307C26.8131 22.376 26.8131 23.7463 27.6584 24.5916C28.081 25.0142 28.635 25.2257 29.1888 25.2257C29.7427 25.2257 30.2967 25.0143 30.7193 24.5916L36.8403 18.4705C36.8405 18.4701 36.8408 18.47 36.841 18.4699C38.8851 16.4259 40.0109 13.7081 40.0109 10.8173C40.0109 7.92662 38.8851 5.2089 36.841 3.16478C36.8159 3.1397 36.7895 3.11657 36.7641 3.0918L33.7032 6.15273C33.7287 6.17742 33.755 6.20079 33.7801 6.22587C35.0066 7.45243 35.6821 9.08293 35.6821 10.8173Z" fill="#043BB8"/>
</svg>
