<svg width="15" height="19" viewBox="0 0 15 19" fill="none" xmlns="http://www.w3.org/2000/svg">
<path d="M7.53029 18.0925C6.12389 18.1272 3.36057 17.9078 2.45756 17.694C1.84189 17.5643 1.26315 17.2061 0.82734 16.7075C0.391532 16.2089 0.116013 15.5925 0.0517499 14.9694L0.0495339 14.9502C0.00312472 14.4851 -0.0106972 14.0172 0.00816906 13.5501C0.00816906 13.5501 -0.0265478 13.1376 0.0517499 12.3897C0.0517499 12.3834 0.0517499 12.3768 0.0517499 12.3705C0.117704 11.7563 0.392544 11.1834 0.830295 10.7476C1.27031 10.3072 1.84701 10.0296 2.46568 9.96023C3.37165 9.86458 6.12832 9.8125 7.52955 9.8125C8.93078 9.8125 11.1793 9.86458 12.0852 9.96023C12.7039 10.0296 13.2806 10.3073 13.7206 10.7476C14.1589 11.1839 14.4336 11.7577 14.4988 12.3727V12.3915C14.5771 13.1398 14.5667 13.5501 14.5667 13.5505C14.5689 14.0192 14.5464 14.4876 14.4992 14.9539C14.4992 14.9602 14.4992 14.9665 14.4973 14.9728C14.433 15.5958 14.1579 16.2115 13.7217 16.7112C13.2855 17.2109 12.7068 17.5677 12.0911 17.6973C11.1896 17.9004 8.93633 18.1021 7.53029 18.0925Z" fill="#064DD6"/>
<path d="M11.6648 9.92417C10.6041 9.8503 8.7471 9.81152 7.52832 9.81152C6.12709 9.81152 3.37042 9.86397 2.46445 9.95925C1.84625 10.029 1.27012 10.3068 0.830541 10.747C0.392925 11.1829 0.118219 11.7558 0.0523649 12.3699V12.3891C-0.0285181 13.137 0.00841485 13.5491 0.00841485 13.5495C-0.00983796 14.0166 0.00460103 14.4845 0.0516263 14.9496L0.0538423 14.9688C0.0914171 15.3188 0.18978 15.6595 0.344504 15.9756C1.04673 16.1308 1.76376 16.2089 2.48292 16.2087C6.66335 16.2087 10.2362 13.6016 11.6648 9.92417Z" fill="#659FF2"/>
<path d="M7.19286 8.75974C9.61179 8.75974 11.5727 6.79881 11.5727 4.37987C11.5727 1.96093 9.61179 0 7.19286 0C4.77392 0 2.81299 1.96093 2.81299 4.37987C2.81299 6.79881 4.77392 8.75974 7.19286 8.75974Z" fill="#064DD6"/>
</svg>
