<svg width="16" height="16" viewBox="0 0 16 16" fill="none" xmlns="http://www.w3.org/2000/svg">
<path d="M4.99905 2.9584C5.35018 2.9584 5.63482 2.66406 5.63482 2.30098V0.657422C5.63482 0.294338 5.35018 0 4.99905 0C4.64792 0 4.36328 0.294338 4.36328 0.657422V2.30098C4.36328 2.66406 4.64792 2.9584 4.99905 2.9584Z" fill="#064DD6"/>
<path d="M3.40976 4.60276C3.40976 4.23966 3.12512 3.94531 2.774 3.94531H1.18459C0.833469 3.94531 0.548828 4.23966 0.548828 4.60276C0.548828 4.96586 0.833469 5.26021 1.18459 5.26021H2.774C3.12512 5.26021 3.40976 4.96586 3.40976 4.60276Z" fill="#064DD6"/>
<path d="M2.774 10.5195H1.18459C0.833469 10.5195 0.548828 10.8139 0.548828 11.1769C0.548828 11.54 0.833469 11.8343 1.18459 11.8343H2.774C3.12512 11.8343 3.40976 11.54 3.40976 11.1769C3.40976 10.8139 3.12512 10.5195 2.774 10.5195Z" fill="#064DD6"/>
<path d="M11.3565 0C11.0053 0 10.7207 0.294338 10.7207 0.657422V2.30098C10.7207 2.66406 11.0053 2.9584 11.3565 2.9584C11.7076 2.9584 11.9922 2.66406 11.9922 2.30098V0.657422C11.9922 0.294338 11.7076 0 11.3565 0Z" fill="#064DD6"/>
<path d="M4.99905 12.8203C4.64792 12.8203 4.36328 13.1146 4.36328 13.4777V15.1213C4.36328 15.4844 4.64792 15.7787 4.99905 15.7787C5.35018 15.7787 5.63482 15.4844 5.63482 15.1213V13.4777C5.63482 13.1146 5.35018 12.8203 4.99905 12.8203Z" fill="#064DD6"/>
<path d="M11.3565 12.8203C11.0053 12.8203 10.7207 13.1146 10.7207 13.4777V15.1213C10.7207 15.4844 11.0053 15.7787 11.3565 15.7787C11.7076 15.7787 11.9922 15.4844 11.9922 15.1213V13.4777C11.9922 13.1146 11.7076 12.8203 11.3565 12.8203Z" fill="#064DD6"/>
<path d="M13.5811 5.26021H15.1705C15.5216 5.26021 15.8062 4.96586 15.8062 4.60276C15.8062 4.23966 15.5216 3.94531 15.1705 3.94531H13.5811C13.23 3.94531 12.9453 4.23966 12.9453 4.60276C12.9453 4.96586 13.23 5.26021 13.5811 5.26021Z" fill="#064DD6"/>
<path d="M15.1705 10.5195H13.5811C13.23 10.5195 12.9453 10.8139 12.9453 11.1769C12.9453 11.54 13.23 11.8343 13.5811 11.8343H15.1705C15.5216 11.8343 15.8062 11.54 15.8062 11.1769C15.8062 10.8139 15.5216 10.5195 15.1705 10.5195Z" fill="#064DD6"/>
<path fill-rule="evenodd" clip-rule="evenodd" d="M11.3567 3.94531C11.7078 3.94531 11.9925 4.23965 11.9925 4.60273V11.1769C11.9925 11.54 11.7078 11.8343 11.3567 11.8343H4.99905C4.64792 11.8343 4.36328 11.54 4.36328 11.1769V4.60273C4.36328 4.23965 4.64792 3.94531 4.99905 3.94531H11.3567ZM10.4033 10.5192C10.5789 10.5192 10.7212 10.372 10.7212 10.1905V5.58854C10.7212 5.40699 10.5789 5.25983 10.4033 5.25983H5.95301C5.77745 5.25983 5.63513 5.40699 5.63513 5.58854V10.1905C5.63513 10.372 5.77745 10.5192 5.95301 10.5192H10.4033Z" fill="#064DD6"/>
</svg>
