<svg width="206" height="174" viewBox="0 0 206 174" fill="none" xmlns="http://www.w3.org/2000/svg">
<g filter="url(#filter0_d_531_7010)">
<circle cx="83.8474" cy="104.456" r="8.48709" fill="#FF6C0E"/>
</g>
<path d="M88.5171 107.99C88.5272 107.978 88.5371 107.966 88.547 107.954C88.5651 107.932 88.5824 107.909 88.5991 107.885C88.6116 107.868 88.6234 107.85 88.635 107.832C88.6472 107.814 88.6588 107.794 88.67 107.775C88.6843 107.751 88.6979 107.726 88.7107 107.701C88.7177 107.687 88.7242 107.673 88.7308 107.659C88.7456 107.628 88.7594 107.596 88.772 107.564C88.7753 107.555 88.7782 107.546 88.7816 107.537C88.7951 107.5 88.8071 107.463 88.8176 107.425C88.8193 107.419 88.8208 107.413 88.8223 107.407C88.8327 107.367 88.8415 107.327 88.8485 107.287C88.8496 107.281 88.8505 107.274 88.8516 107.267C88.8579 107.228 88.8628 107.188 88.8658 107.148C88.8666 107.139 88.8668 107.129 88.8674 107.12C88.8687 107.092 88.8715 107.065 88.8715 107.037C88.8715 107.027 88.8701 107.016 88.8699 107.006C88.8697 106.996 88.8687 106.985 88.8682 106.974C88.8667 106.936 88.8643 106.899 88.8599 106.861C88.8589 106.853 88.8571 106.845 88.856 106.836C88.8505 106.796 88.8441 106.757 88.8354 106.718C88.8341 106.712 88.8324 106.707 88.8309 106.701C88.821 106.659 88.81 106.618 88.7966 106.578C88.7949 106.573 88.7928 106.568 88.7911 106.563C88.777 106.522 88.7614 106.481 88.7438 106.442C88.741 106.436 88.7375 106.429 88.7348 106.423C88.7172 106.385 88.6983 106.348 88.6776 106.311C88.6761 106.309 88.6749 106.306 88.6735 106.304L85.1496 100.219C85.1449 100.211 85.1395 100.204 85.1348 100.196C85.1257 100.181 85.1161 100.167 85.1061 100.152C85.0893 100.127 85.0726 100.101 85.0544 100.077C85.0438 100.062 85.0321 100.049 85.0208 100.035C85.0017 100.011 84.9828 99.9873 84.9626 99.9652C84.9501 99.9519 84.9372 99.9394 84.9244 99.9265C84.9033 99.9049 84.8822 99.8834 84.86 99.8634C84.8463 99.8509 84.8314 99.8396 84.817 99.8277C84.7941 99.8086 84.7713 99.7895 84.7473 99.772C84.7315 99.7604 84.7146 99.7498 84.6983 99.7387C84.6745 99.7228 84.6507 99.7067 84.6262 99.6922C84.6206 99.689 84.6157 99.6851 84.6101 99.6819C84.5952 99.6733 84.5798 99.6667 84.5648 99.6588C84.5436 99.6475 84.5226 99.6362 84.5008 99.6261C84.4748 99.6136 84.4483 99.603 84.4219 99.5924C84.4054 99.5858 84.3889 99.579 84.3719 99.5729C84.3418 99.5622 84.3114 99.5528 84.2809 99.544C84.2663 99.5397 84.2516 99.5354 84.2372 99.5315C84.206 99.5236 84.1748 99.517 84.1435 99.5112C84.1274 99.5082 84.1114 99.505 84.0953 99.5028C84.0663 99.4985 84.0374 99.4951 84.0083 99.4926C83.9882 99.4907 83.968 99.4891 83.9479 99.488C83.9235 99.4868 83.8989 99.4863 83.8744 99.4863C83.85 99.4863 83.8235 99.4868 83.7981 99.4881C83.7789 99.4892 83.7599 99.4906 83.7409 99.4924C83.7107 99.495 83.6806 99.4986 83.6505 99.5031C83.6356 99.5054 83.6206 99.5081 83.6056 99.5109C83.5734 99.5171 83.5413 99.5236 83.5092 99.5317C83.4952 99.5353 83.4816 99.5394 83.4677 99.5432C83.4365 99.5522 83.4052 99.5619 83.3748 99.5729C83.3584 99.5788 83.3424 99.5853 83.3263 99.5915C83.2994 99.6024 83.2726 99.6133 83.2461 99.6258C83.2248 99.6358 83.204 99.6469 83.1832 99.658C83.1679 99.6661 83.152 99.6727 83.1371 99.6815C83.1314 99.6847 83.1265 99.6887 83.1209 99.692C83.0965 99.7063 83.0731 99.7222 83.0495 99.738C83.0329 99.7492 83.0159 99.7599 82.9996 99.7716C82.9757 99.7891 82.9529 99.8082 82.93 99.8272C82.9157 99.8392 82.9008 99.8506 82.8869 99.863C82.8647 99.8829 82.8436 99.9045 82.8226 99.926C82.8101 99.939 82.7965 99.9515 82.7844 99.9649C82.7641 99.9869 82.7453 100.011 82.7264 100.034C82.7151 100.048 82.7032 100.062 82.6925 100.076C82.6743 100.101 82.6577 100.126 82.641 100.152C82.6312 100.167 82.6213 100.181 82.6122 100.196C82.6075 100.204 82.602 100.211 82.5974 100.219L79.0735 106.303C79.069 106.311 79.0656 106.319 79.0611 106.327C79.0539 106.34 79.0474 106.354 79.0406 106.367C79.0253 106.397 79.0104 106.426 78.9972 106.457C78.992 106.469 78.9877 106.481 78.9827 106.493C78.9695 106.526 78.9569 106.559 78.9462 106.593C78.9429 106.603 78.94 106.614 78.937 106.625C78.9265 106.66 78.9169 106.696 78.909 106.733C78.9069 106.743 78.9054 106.753 78.9035 106.764C78.8964 106.801 78.8903 106.838 78.8861 106.876C78.8849 106.888 78.8843 106.9 78.8832 106.912C78.8803 106.948 78.8781 106.984 78.8777 107.02C78.8777 107.026 78.877 107.031 78.877 107.037C78.877 107.049 78.8784 107.06 78.8787 107.072C78.8795 107.101 78.8807 107.131 78.8832 107.16C78.8853 107.185 78.8885 107.21 78.8919 107.235C78.8948 107.255 78.8976 107.276 78.9014 107.297C78.907 107.327 78.9139 107.357 78.9211 107.387C78.9235 107.397 78.9249 107.407 78.9274 107.417C78.9291 107.424 78.9318 107.43 78.9336 107.437C78.9418 107.466 78.9512 107.494 78.9611 107.522C78.9679 107.542 78.9751 107.561 78.9826 107.581C78.9909 107.602 78.9999 107.622 79.0095 107.643C79.0216 107.67 79.0345 107.696 79.0479 107.722C79.0537 107.733 79.0598 107.744 79.0659 107.754C79.085 107.789 79.1053 107.822 79.1271 107.855L79.1309 107.86C79.2549 108.045 79.4196 108.198 79.6122 108.309C79.6214 108.314 79.631 108.318 79.6406 108.323C79.6678 108.338 79.6964 108.351 79.7248 108.365C79.7664 108.384 79.8086 108.402 79.8515 108.417C79.8781 108.426 79.9046 108.436 79.9319 108.444C79.9593 108.452 79.9881 108.459 80.0167 108.466C80.0441 108.472 80.0719 108.478 80.0998 108.482C80.1278 108.487 80.1547 108.492 80.1824 108.495C80.2212 108.499 80.2607 108.501 80.3004 108.503C80.315 108.503 80.3294 108.505 80.3441 108.505C80.3459 108.505 80.3478 108.505 80.3496 108.505H87.3971C87.3989 108.505 87.4007 108.505 87.4025 108.505C87.415 108.505 87.4278 108.503 87.4404 108.503C87.4831 108.502 87.5254 108.499 87.567 108.495C87.5919 108.492 87.6165 108.487 87.641 108.483C87.6734 108.478 87.7054 108.472 87.7369 108.465C87.7613 108.459 87.7854 108.453 87.8095 108.446C87.846 108.435 87.8818 108.423 87.9172 108.41C87.9346 108.403 87.9524 108.398 87.9696 108.39C88.0192 108.369 88.0676 108.345 88.1145 108.319C88.1208 108.315 88.1279 108.313 88.1342 108.309C88.1545 108.298 88.173 108.284 88.1925 108.272C88.2058 108.263 88.2194 108.255 88.2325 108.246C88.2608 108.227 88.288 108.206 88.3147 108.185C88.3247 108.177 88.335 108.169 88.3447 108.161C88.3718 108.138 88.3977 108.114 88.4228 108.09C88.4318 108.081 88.4408 108.073 88.4496 108.064C88.4731 108.04 88.4955 108.015 88.5171 107.99V107.99ZM88.3552 107.158C88.3513 107.194 88.3452 107.23 88.337 107.266C88.3308 107.291 88.3225 107.314 88.3146 107.338C88.3038 107.373 88.291 107.407 88.2763 107.44C88.2644 107.466 88.2497 107.49 88.2354 107.515C88.2196 107.543 88.2042 107.57 88.1855 107.597C88.1659 107.624 88.1437 107.649 88.1215 107.674C88.1028 107.695 88.0849 107.716 88.0643 107.735C88.039 107.759 88.0123 107.781 87.9845 107.801C87.9615 107.819 87.9385 107.836 87.9135 107.852C87.8836 107.871 87.8528 107.887 87.8211 107.902C87.7961 107.914 87.7711 107.926 87.7461 107.936C87.7121 107.949 87.6774 107.96 87.6422 107.968C87.6164 107.975 87.5904 107.982 87.564 107.986C87.5274 107.992 87.4905 107.996 87.4535 107.998C87.3518 108.003 87.249 107.997 87.1475 107.97C87.0244 107.937 86.909 107.881 86.8079 107.804C86.7068 107.727 86.6221 107.631 86.5585 107.521L85.7186 106.07H87.3985C87.7725 106.07 88.094 106.285 88.2555 106.595C88.2745 106.631 88.2912 106.668 88.3055 106.705C88.3142 106.729 88.3211 106.753 88.328 106.778C88.3384 106.813 88.3468 106.85 88.353 106.887C88.3572 106.914 88.3592 106.942 88.3613 106.97C88.3642 107.005 88.3651 107.041 88.364 107.077C88.363 107.104 88.3593 107.131 88.3558 107.158L88.3552 107.158ZM80.1825 107.986C80.1588 107.981 80.1356 107.975 80.1122 107.969C80.0735 107.96 80.0354 107.948 79.9982 107.934C79.9772 107.926 79.9569 107.916 79.9364 107.906C79.8992 107.889 79.8631 107.869 79.8284 107.848C79.8113 107.837 79.7953 107.824 79.779 107.812C79.7443 107.787 79.7113 107.76 79.6801 107.731C79.6664 107.718 79.6541 107.703 79.6412 107.69C79.6125 107.659 79.5858 107.627 79.5613 107.593C79.5472 107.573 79.535 107.552 79.5224 107.53C79.5038 107.5 79.487 107.469 79.4718 107.438C79.4584 107.408 79.4474 107.376 79.4368 107.344C79.4276 107.317 79.4181 107.29 79.411 107.262C79.4038 107.229 79.3984 107.196 79.3946 107.163C79.3896 107.131 79.3863 107.098 79.3847 107.066C79.3837 107.038 79.3858 107.009 79.3873 106.981C79.3889 106.945 79.3926 106.908 79.3984 106.872C79.403 106.845 79.41 106.819 79.4168 106.793C79.4255 106.758 79.4361 106.724 79.4486 106.691C79.4588 106.664 79.4713 106.639 79.4841 106.613C79.6422 106.293 79.9696 106.07 80.351 106.07H82.0294L81.1895 107.521C81.1259 107.631 81.0411 107.727 80.94 107.804C80.8389 107.881 80.7235 107.937 80.6004 107.969C80.4998 107.996 80.3977 108.003 80.2967 107.997C80.2585 107.996 80.2203 107.992 80.1825 107.986V107.986ZM83.1028 100.368C83.1377 100.323 83.1765 100.281 83.219 100.243C83.2283 100.234 83.2381 100.226 83.2479 100.218C83.2886 100.183 83.3321 100.152 83.3781 100.125C83.3831 100.122 83.3877 100.118 83.3927 100.115C83.4416 100.088 83.4927 100.065 83.5456 100.047C83.5612 100.041 83.5768 100.036 83.5925 100.031C83.6441 100.015 83.6969 100.003 83.7504 99.9956C83.7561 99.9949 83.762 99.9951 83.7676 99.9945C83.8189 99.9891 83.8706 99.9878 83.9221 99.9906C83.9338 99.9911 83.9454 99.9918 83.9572 99.9928C84.0696 100.003 84.1795 100.032 84.2819 100.079C84.2932 100.085 84.3045 100.09 84.3158 100.096C84.3465 100.113 84.3763 100.131 84.4051 100.15C84.4336 100.169 84.4611 100.189 84.4875 100.21C84.511 100.229 84.533 100.25 84.5548 100.272C84.5782 100.295 84.601 100.319 84.6217 100.344C84.6415 100.368 84.6592 100.394 84.677 100.42C84.874 100.717 84.9029 101.109 84.713 101.437L83.8735 102.886L83.0343 101.437C82.8357 101.094 82.8734 100.679 83.0955 100.379C83.0981 100.376 83.1001 100.372 83.1028 100.368ZM82.5978 101.688L83.5826 103.388L82.3198 105.569H80.3505C80.2547 105.569 80.1592 105.578 80.0652 105.597L82.4797 101.428C82.5105 101.518 82.5501 101.606 82.5978 101.688V101.688ZM83.8735 103.891L84.8453 105.569H82.9018L83.8735 103.891ZM81.6253 107.773L82.6108 106.071H85.1364L86.1218 107.773C86.1694 107.855 86.2249 107.932 86.2875 108.003H81.4597C81.5222 107.932 81.5776 107.855 81.6252 107.773L81.6253 107.773ZM87.3983 105.569H85.4274L84.1646 103.388L85.1492 101.688C85.1971 101.605 85.2366 101.518 85.2674 101.428L87.6819 105.596C87.5885 105.578 87.4935 105.569 87.3983 105.568" fill="white"/>
<g filter="url(#filter1_d_531_7010)">
<circle cx="83.8474" cy="104.456" r="8.48709" fill="#FF6C0E"/>
</g>
<path d="M88.5171 107.99C88.5272 107.978 88.5371 107.966 88.547 107.954C88.5651 107.932 88.5824 107.909 88.5991 107.885C88.6116 107.868 88.6234 107.85 88.635 107.832C88.6472 107.814 88.6588 107.794 88.67 107.775C88.6843 107.751 88.6979 107.726 88.7107 107.701C88.7177 107.687 88.7242 107.673 88.7308 107.659C88.7456 107.628 88.7594 107.596 88.772 107.564C88.7753 107.555 88.7782 107.546 88.7816 107.537C88.7951 107.5 88.8071 107.463 88.8176 107.425C88.8193 107.419 88.8208 107.413 88.8223 107.407C88.8327 107.367 88.8415 107.327 88.8485 107.287C88.8496 107.281 88.8505 107.274 88.8516 107.267C88.8579 107.228 88.8628 107.188 88.8658 107.148C88.8666 107.139 88.8668 107.129 88.8674 107.12C88.8687 107.092 88.8715 107.065 88.8715 107.037C88.8715 107.027 88.8701 107.016 88.8699 107.006C88.8697 106.996 88.8687 106.985 88.8682 106.974C88.8667 106.936 88.8643 106.899 88.8599 106.861C88.8589 106.853 88.8571 106.845 88.856 106.836C88.8505 106.796 88.8441 106.757 88.8354 106.718C88.8341 106.712 88.8324 106.707 88.8309 106.701C88.821 106.659 88.81 106.618 88.7966 106.578C88.7949 106.573 88.7928 106.568 88.7911 106.563C88.777 106.522 88.7614 106.481 88.7438 106.442C88.741 106.436 88.7375 106.429 88.7348 106.423C88.7172 106.385 88.6983 106.348 88.6776 106.311C88.6761 106.309 88.6749 106.306 88.6735 106.304L85.1496 100.219C85.1449 100.211 85.1395 100.204 85.1348 100.196C85.1257 100.181 85.1161 100.167 85.1061 100.152C85.0893 100.127 85.0726 100.101 85.0544 100.077C85.0438 100.062 85.0321 100.049 85.0208 100.035C85.0017 100.011 84.9828 99.9873 84.9626 99.9652C84.9501 99.9519 84.9372 99.9394 84.9244 99.9265C84.9033 99.9049 84.8822 99.8834 84.86 99.8634C84.8463 99.8509 84.8314 99.8396 84.817 99.8277C84.7941 99.8086 84.7713 99.7895 84.7473 99.772C84.7315 99.7604 84.7146 99.7498 84.6983 99.7387C84.6745 99.7228 84.6507 99.7067 84.6262 99.6922C84.6206 99.689 84.6157 99.6851 84.6101 99.6819C84.5952 99.6733 84.5798 99.6667 84.5648 99.6588C84.5436 99.6475 84.5226 99.6362 84.5008 99.6261C84.4748 99.6136 84.4483 99.603 84.4219 99.5924C84.4054 99.5858 84.3889 99.579 84.3719 99.5729C84.3418 99.5622 84.3114 99.5528 84.2809 99.544C84.2663 99.5397 84.2516 99.5354 84.2372 99.5315C84.206 99.5236 84.1748 99.517 84.1435 99.5112C84.1274 99.5082 84.1114 99.505 84.0953 99.5028C84.0663 99.4985 84.0374 99.4951 84.0083 99.4926C83.9882 99.4907 83.968 99.4891 83.9479 99.488C83.9235 99.4868 83.8989 99.4863 83.8744 99.4863C83.85 99.4863 83.8235 99.4868 83.7981 99.4881C83.7789 99.4892 83.7599 99.4906 83.7409 99.4924C83.7107 99.495 83.6806 99.4986 83.6505 99.5031C83.6356 99.5054 83.6206 99.5081 83.6056 99.5109C83.5734 99.5171 83.5413 99.5236 83.5092 99.5317C83.4952 99.5353 83.4816 99.5394 83.4677 99.5432C83.4365 99.5522 83.4052 99.5619 83.3748 99.5729C83.3584 99.5788 83.3424 99.5853 83.3263 99.5915C83.2994 99.6024 83.2726 99.6133 83.2461 99.6258C83.2248 99.6358 83.204 99.6469 83.1832 99.658C83.1679 99.6661 83.152 99.6727 83.1371 99.6815C83.1314 99.6847 83.1265 99.6887 83.1209 99.692C83.0965 99.7063 83.0731 99.7222 83.0495 99.738C83.0329 99.7492 83.0159 99.7599 82.9996 99.7716C82.9757 99.7891 82.9529 99.8082 82.93 99.8272C82.9157 99.8392 82.9008 99.8506 82.8869 99.863C82.8647 99.8829 82.8436 99.9045 82.8226 99.926C82.8101 99.939 82.7965 99.9515 82.7844 99.9649C82.7641 99.9869 82.7453 100.011 82.7264 100.034C82.7151 100.048 82.7032 100.062 82.6925 100.076C82.6743 100.101 82.6577 100.126 82.641 100.152C82.6312 100.167 82.6213 100.181 82.6122 100.196C82.6075 100.204 82.602 100.211 82.5974 100.219L79.0735 106.303C79.069 106.311 79.0656 106.319 79.0611 106.327C79.0539 106.34 79.0474 106.354 79.0406 106.367C79.0253 106.397 79.0104 106.426 78.9972 106.457C78.992 106.469 78.9877 106.481 78.9827 106.493C78.9695 106.526 78.9569 106.559 78.9462 106.593C78.9429 106.603 78.94 106.614 78.937 106.625C78.9265 106.66 78.9169 106.696 78.909 106.733C78.9069 106.743 78.9054 106.753 78.9035 106.764C78.8964 106.801 78.8903 106.838 78.8861 106.876C78.8849 106.888 78.8843 106.9 78.8832 106.912C78.8803 106.948 78.8781 106.984 78.8777 107.02C78.8777 107.026 78.877 107.031 78.877 107.037C78.877 107.049 78.8784 107.06 78.8787 107.072C78.8795 107.101 78.8807 107.131 78.8832 107.16C78.8853 107.185 78.8885 107.21 78.8919 107.235C78.8948 107.255 78.8976 107.276 78.9014 107.297C78.907 107.327 78.9139 107.357 78.9211 107.387C78.9235 107.397 78.9249 107.407 78.9274 107.417C78.9291 107.424 78.9318 107.43 78.9336 107.437C78.9418 107.466 78.9512 107.494 78.9611 107.522C78.9679 107.542 78.9751 107.561 78.9826 107.581C78.9909 107.602 78.9999 107.622 79.0095 107.643C79.0216 107.67 79.0345 107.696 79.0479 107.722C79.0537 107.733 79.0598 107.744 79.0659 107.754C79.085 107.789 79.1053 107.822 79.1271 107.855L79.1309 107.86C79.2549 108.045 79.4196 108.198 79.6122 108.309C79.6214 108.314 79.631 108.318 79.6406 108.323C79.6678 108.338 79.6964 108.351 79.7248 108.365C79.7664 108.384 79.8086 108.402 79.8515 108.417C79.8781 108.426 79.9046 108.436 79.9319 108.444C79.9593 108.452 79.9881 108.459 80.0167 108.466C80.0441 108.472 80.0719 108.478 80.0998 108.482C80.1278 108.487 80.1547 108.492 80.1824 108.495C80.2212 108.499 80.2607 108.501 80.3004 108.503C80.315 108.503 80.3294 108.505 80.3441 108.505C80.3459 108.505 80.3478 108.505 80.3496 108.505H87.3971C87.3989 108.505 87.4007 108.505 87.4025 108.505C87.415 108.505 87.4278 108.503 87.4404 108.503C87.4831 108.502 87.5254 108.499 87.567 108.495C87.5919 108.492 87.6165 108.487 87.641 108.483C87.6734 108.478 87.7054 108.472 87.7369 108.465C87.7613 108.459 87.7854 108.453 87.8095 108.446C87.846 108.435 87.8818 108.423 87.9172 108.41C87.9346 108.403 87.9524 108.398 87.9696 108.39C88.0192 108.369 88.0676 108.345 88.1145 108.319C88.1208 108.315 88.1279 108.313 88.1342 108.309C88.1545 108.298 88.173 108.284 88.1925 108.272C88.2058 108.263 88.2194 108.255 88.2325 108.246C88.2608 108.227 88.288 108.206 88.3147 108.185C88.3247 108.177 88.335 108.169 88.3447 108.161C88.3718 108.138 88.3977 108.114 88.4228 108.09C88.4318 108.081 88.4408 108.073 88.4496 108.064C88.4731 108.04 88.4955 108.015 88.5171 107.99V107.99ZM88.3552 107.158C88.3513 107.194 88.3452 107.23 88.337 107.266C88.3308 107.291 88.3225 107.314 88.3146 107.338C88.3038 107.373 88.291 107.407 88.2763 107.44C88.2644 107.466 88.2497 107.49 88.2354 107.515C88.2196 107.543 88.2042 107.57 88.1855 107.597C88.1659 107.624 88.1437 107.649 88.1215 107.674C88.1028 107.695 88.0849 107.716 88.0643 107.735C88.039 107.759 88.0123 107.781 87.9845 107.801C87.9615 107.819 87.9385 107.836 87.9135 107.852C87.8836 107.871 87.8528 107.887 87.8211 107.902C87.7961 107.914 87.7711 107.926 87.7461 107.936C87.7121 107.949 87.6774 107.96 87.6422 107.968C87.6164 107.975 87.5904 107.982 87.564 107.986C87.5274 107.992 87.4905 107.996 87.4535 107.998C87.3518 108.003 87.249 107.997 87.1475 107.97C87.0244 107.937 86.909 107.881 86.8079 107.804C86.7068 107.727 86.6221 107.631 86.5585 107.521L85.7186 106.07H87.3985C87.7725 106.07 88.094 106.285 88.2555 106.595C88.2745 106.631 88.2912 106.668 88.3055 106.705C88.3142 106.729 88.3211 106.753 88.328 106.778C88.3384 106.813 88.3468 106.85 88.353 106.887C88.3572 106.914 88.3592 106.942 88.3613 106.97C88.3642 107.005 88.3651 107.041 88.364 107.077C88.363 107.104 88.3593 107.131 88.3558 107.158L88.3552 107.158ZM80.1825 107.986C80.1588 107.981 80.1356 107.975 80.1122 107.969C80.0735 107.96 80.0354 107.948 79.9982 107.934C79.9772 107.926 79.9569 107.916 79.9364 107.906C79.8992 107.889 79.8631 107.869 79.8284 107.848C79.8113 107.837 79.7953 107.824 79.779 107.812C79.7443 107.787 79.7113 107.76 79.6801 107.731C79.6664 107.718 79.6541 107.703 79.6412 107.69C79.6125 107.659 79.5858 107.627 79.5613 107.593C79.5472 107.573 79.535 107.552 79.5224 107.53C79.5038 107.5 79.487 107.469 79.4718 107.438C79.4584 107.408 79.4474 107.376 79.4368 107.344C79.4276 107.317 79.4181 107.29 79.411 107.262C79.4038 107.229 79.3984 107.196 79.3946 107.163C79.3896 107.131 79.3863 107.098 79.3847 107.066C79.3837 107.038 79.3858 107.009 79.3873 106.981C79.3889 106.945 79.3926 106.908 79.3984 106.872C79.403 106.845 79.41 106.819 79.4168 106.793C79.4255 106.758 79.4361 106.724 79.4486 106.691C79.4588 106.664 79.4713 106.639 79.4841 106.613C79.6422 106.293 79.9696 106.07 80.351 106.07H82.0294L81.1895 107.521C81.1259 107.631 81.0411 107.727 80.94 107.804C80.8389 107.881 80.7235 107.937 80.6004 107.969C80.4998 107.996 80.3977 108.003 80.2967 107.997C80.2585 107.996 80.2203 107.992 80.1825 107.986V107.986ZM83.1028 100.368C83.1377 100.323 83.1765 100.281 83.219 100.243C83.2283 100.234 83.2381 100.226 83.2479 100.218C83.2886 100.183 83.3321 100.152 83.3781 100.125C83.3831 100.122 83.3877 100.118 83.3927 100.115C83.4416 100.088 83.4927 100.065 83.5456 100.047C83.5612 100.041 83.5768 100.036 83.5925 100.031C83.6441 100.015 83.6969 100.003 83.7504 99.9956C83.7561 99.9949 83.762 99.9951 83.7676 99.9945C83.8189 99.9891 83.8706 99.9878 83.9221 99.9906C83.9338 99.9911 83.9454 99.9918 83.9572 99.9928C84.0696 100.003 84.1795 100.032 84.2819 100.079C84.2932 100.085 84.3045 100.09 84.3158 100.096C84.3465 100.113 84.3763 100.131 84.4051 100.15C84.4336 100.169 84.4611 100.189 84.4875 100.21C84.511 100.229 84.533 100.25 84.5548 100.272C84.5782 100.295 84.601 100.319 84.6217 100.344C84.6415 100.368 84.6592 100.394 84.677 100.42C84.874 100.717 84.9029 101.109 84.713 101.437L83.8735 102.886L83.0343 101.437C82.8357 101.094 82.8734 100.679 83.0955 100.379C83.0981 100.376 83.1001 100.372 83.1028 100.368ZM82.5978 101.688L83.5826 103.388L82.3198 105.569H80.3505C80.2547 105.569 80.1592 105.578 80.0652 105.597L82.4797 101.428C82.5105 101.518 82.5501 101.606 82.5978 101.688V101.688ZM83.8735 103.891L84.8453 105.569H82.9018L83.8735 103.891ZM81.6253 107.773L82.6108 106.071H85.1364L86.1218 107.773C86.1694 107.855 86.2249 107.932 86.2875 108.003H81.4597C81.5222 107.932 81.5776 107.855 81.6252 107.773L81.6253 107.773ZM87.3983 105.569H85.4274L84.1646 103.388L85.1492 101.688C85.1971 101.605 85.2366 101.518 85.2674 101.428L87.6819 105.596C87.5885 105.578 87.4935 105.569 87.3983 105.568" fill="white"/>
<path d="M93.358 156.685C136.625 156.685 171.7 121.61 171.7 78.3424C171.7 35.0751 136.625 0 93.358 0C50.0907 0 15.0156 35.0751 15.0156 78.3424C15.0156 121.61 50.0907 156.685 93.358 156.685Z" fill="#E8EFFF"/>
<g filter="url(#filter2_d_531_7010)">
<rect x="53.5322" y="22.5605" width="81.3045" height="101.211" rx="16" fill="#064DD6"/>
</g>
<rect x="60.7148" y="38" width="50" height="4" rx="2" fill="#659FF2"/>
<rect x="60.7148" y="54" width="65.2853" height="4" rx="2" fill="white"/>
<rect x="60.7148" y="70" width="65.2853" height="4" rx="2" fill="white"/>
<rect x="60.7148" y="86" width="65.2853" height="4" rx="2" fill="white"/>
<rect x="60.7148" y="102" width="65.2853" height="4" rx="2" fill="white"/>
<g filter="url(#filter3_d_531_7010)">
<path d="M183.548 11.375H144.324C142.496 11.375 141.015 12.9343 141.015 14.8579V34.2601C141.015 36.1837 142.496 37.743 144.324 37.743H183.548C185.376 37.743 186.857 36.1837 186.857 34.2601V14.8579C186.857 12.9343 185.376 11.375 183.548 11.375Z" fill="#99C4FA"/>
</g>
<path d="M150.809 28.7249C152.972 28.7249 154.726 26.9711 154.726 24.8077C154.726 22.6444 152.972 20.8906 150.809 20.8906C148.645 20.8906 146.892 22.6444 146.892 24.8077C146.892 26.9711 148.645 28.7249 150.809 28.7249Z" fill="white"/>
<rect x="159.949" y="20.8906" width="20.8913" height="7.83424" rx="3.91712" fill="white"/>
<path fill-rule="evenodd" clip-rule="evenodd" d="M32.1951 40.5884C32.1828 39.6574 32.066 38.7184 31.8324 37.773C31.0133 34.4551 27.3587 32.3251 23.469 31.8243C19.5808 31.3235 15.5375 32.4631 13.9791 35.3492C13.0877 36.9993 12.9648 38.4215 13.329 39.6205C13.6917 40.8131 14.5523 41.8019 15.7203 42.5724C18.9768 44.7185 24.68 45.1567 27.2819 44.2594C28.4852 43.8436 29.6609 43.3429 30.8058 42.7698C30.1511 46.5211 27.7122 50.0749 24.4572 53.2772C17.3831 60.2371 6.40559 65.5196 0.427333 67.4619C0.106136 67.5662 -0.0721509 67.9225 0.0277429 68.258C0.127637 68.5935 0.468807 68.7813 0.790003 68.677C6.8866 66.6962 18.0778 61.3013 25.2917 54.2033C29.0185 50.5372 31.6741 46.4103 32.1275 42.0716C40.5524 37.3701 47.4712 28.8403 53.3864 21.6621C53.6062 21.3972 53.577 20.9943 53.3219 20.7648C53.0668 20.5368 52.6825 20.5657 52.4628 20.8322C46.7888 27.7167 40.2035 35.9062 32.1951 40.5884ZM30.9703 41.2706C31.0164 40.224 30.918 39.1614 30.6521 38.0892C29.9436 35.2176 26.6871 33.5193 23.3199 33.0859C21.256 32.8211 19.1336 33.0394 17.4692 33.8163C16.4227 34.3043 15.5605 35.0121 15.041 35.9752C14.3587 37.2385 14.2111 38.3187 14.4908 39.2353C14.7705 40.1582 15.4652 40.8998 16.3704 41.4953C19.338 43.452 24.5309 43.8678 26.8992 43.0507C28.2962 42.5692 29.6517 41.9688 30.9703 41.2706Z" fill="#064DD6"/>
<path fill-rule="evenodd" clip-rule="evenodd" d="M33.5469 128.215C34.246 127.953 34.9816 127.605 35.5489 127.1C36.2226 126.501 36.4966 125.729 36.6806 124.917C36.9169 123.874 37.0113 122.762 37.2977 121.717C37.4038 121.329 37.6079 121.182 37.6955 121.117C37.9169 120.953 38.1406 120.909 38.3511 120.925C38.6006 120.944 38.9433 121.043 39.1687 121.484C39.2009 121.547 39.2426 121.643 39.2708 121.774C39.2912 121.871 39.3045 122.172 39.3262 122.296C39.3804 122.602 39.4258 122.909 39.4684 123.216C39.6102 124.241 39.6918 125.111 40.1398 126.052C40.7476 127.33 41.3567 128.112 42.1827 128.458C42.9814 128.793 43.9364 128.73 45.1565 128.467C45.2726 128.438 45.3875 128.412 45.5012 128.391C46.0391 128.293 46.5534 128.664 46.659 129.228C46.7647 129.792 46.4228 130.341 45.8897 130.465C45.7784 130.491 45.6687 130.515 45.5603 130.538C43.9114 130.967 42.0027 132.5 40.8934 133.843C40.5516 134.257 40.051 135.414 39.5403 136.152C39.1635 136.697 38.74 137.056 38.3845 137.183C38.1462 137.268 37.9454 137.255 37.7794 137.212C37.5384 137.149 37.3383 137.012 37.1849 136.793C37.1013 136.673 37.0237 136.513 36.9868 136.309C36.9691 136.21 36.9671 135.96 36.9675 135.846C36.8634 135.47 36.7361 135.102 36.6433 134.722C36.4219 133.815 35.9876 133.241 35.4718 132.482C34.9892 131.772 34.471 131.326 33.7113 130.97C33.6124 130.945 32.815 130.739 32.5333 130.621C32.1219 130.448 31.9259 130.159 31.8547 130.003C31.7338 129.738 31.7214 129.507 31.7455 129.314C31.7812 129.03 31.9026 128.786 32.1179 128.589C32.2513 128.467 32.4506 128.348 32.7173 128.29C32.9234 128.245 33.4702 128.219 33.5469 128.215ZM38.2254 126.737C38.2623 126.824 38.3017 126.911 38.3435 126.999C39.2338 128.87 40.2293 129.915 41.4394 130.422L41.48 130.438C40.6705 131.071 39.9377 131.778 39.3776 132.456C39.147 132.735 38.8417 133.314 38.5118 133.909C38.2121 132.883 37.722 132.159 37.1057 131.252C36.6348 130.56 36.1415 130.039 35.5352 129.614C36.0057 129.36 36.4544 129.062 36.8454 128.715C37.4962 128.136 37.9265 127.466 38.2254 126.737Z" fill="#064DD6"/>
<path d="M140.81 120.777C136.073 120.777 131.443 122.182 127.504 124.814C123.566 127.445 120.496 131.186 118.683 135.562C116.871 139.938 116.396 144.753 117.321 149.399C118.245 154.045 120.526 158.312 123.875 161.662C127.224 165.011 131.492 167.292 136.137 168.216C140.783 169.14 145.599 168.666 149.975 166.853C154.351 165.04 158.091 161.971 160.723 158.032C163.355 154.094 164.759 149.463 164.759 144.727C164.751 138.378 162.225 132.291 157.735 127.801C153.246 123.312 147.159 120.786 140.81 120.777ZM154.191 138.151L139.223 153.119C139.039 153.306 138.82 153.454 138.579 153.555C138.337 153.656 138.078 153.708 137.816 153.708C137.554 153.708 137.295 153.656 137.053 153.555C136.812 153.454 136.593 153.306 136.409 153.119L129.424 146.134C129.051 145.761 128.841 145.254 128.841 144.727C128.841 144.199 129.051 143.693 129.424 143.32C129.797 142.947 130.303 142.737 130.831 142.737C131.359 142.737 131.865 142.947 132.238 143.32L137.816 148.888L151.377 135.337C151.751 134.963 152.257 134.754 152.784 134.754C153.312 134.754 153.818 134.963 154.191 135.337C154.565 135.71 154.774 136.216 154.774 136.744C154.774 137.271 154.565 137.777 154.191 138.151Z" fill="#2FB350"/>
<path d="M154.191 138.153L139.223 153.121C139.039 153.308 138.82 153.456 138.579 153.557C138.337 153.658 138.078 153.71 137.816 153.71C137.554 153.71 137.295 153.658 137.053 153.557C136.812 153.456 136.593 153.308 136.409 153.121L129.424 146.136C129.05 145.763 128.841 145.257 128.841 144.729C128.841 144.201 129.05 143.695 129.424 143.322C129.797 142.949 130.303 142.739 130.831 142.739C131.358 142.739 131.865 142.949 132.238 143.322L137.816 148.89L151.377 135.339C151.75 134.966 152.257 134.756 152.784 134.756C153.312 134.756 153.818 134.966 154.191 135.339C154.564 135.712 154.774 136.218 154.774 136.746C154.774 137.273 154.564 137.78 154.191 138.153Z" fill="white"/>
<defs>
<filter id="filter0_d_531_7010" x="71.3604" y="91.9688" width="24.9746" height="24.9746" filterUnits="userSpaceOnUse" color-interpolation-filters="sRGB">
<feFlood flood-opacity="0" result="BackgroundImageFix"/>
<feColorMatrix in="SourceAlpha" type="matrix" values="0 0 0 0 0 0 0 0 0 0 0 0 0 0 0 0 0 0 127 0" result="hardAlpha"/>
<feOffset/>
<feGaussianBlur stdDeviation="2"/>
<feComposite in2="hardAlpha" operator="out"/>
<feColorMatrix type="matrix" values="0 0 0 0 0 0 0 0 0 0 0 0 0 0 0 0 0 0 0.15 0"/>
<feBlend mode="normal" in2="BackgroundImageFix" result="effect1_dropShadow_531_7010"/>
<feBlend mode="normal" in="SourceGraphic" in2="effect1_dropShadow_531_7010" result="shape"/>
</filter>
<filter id="filter1_d_531_7010" x="71.3604" y="91.9688" width="24.9746" height="24.9746" filterUnits="userSpaceOnUse" color-interpolation-filters="sRGB">
<feFlood flood-opacity="0" result="BackgroundImageFix"/>
<feColorMatrix in="SourceAlpha" type="matrix" values="0 0 0 0 0 0 0 0 0 0 0 0 0 0 0 0 0 0 127 0" result="hardAlpha"/>
<feOffset/>
<feGaussianBlur stdDeviation="2"/>
<feComposite in2="hardAlpha" operator="out"/>
<feColorMatrix type="matrix" values="0 0 0 0 0 0 0 0 0 0 0 0 0 0 0 0 0 0 0.15 0"/>
<feBlend mode="normal" in2="BackgroundImageFix" result="effect1_dropShadow_531_7010"/>
<feBlend mode="normal" in="SourceGraphic" in2="effect1_dropShadow_531_7010" result="shape"/>
</filter>
<filter id="filter2_d_531_7010" x="23.5322" y="12.5605" width="141.305" height="161.211" filterUnits="userSpaceOnUse" color-interpolation-filters="sRGB">
<feFlood flood-opacity="0" result="BackgroundImageFix"/>
<feColorMatrix in="SourceAlpha" type="matrix" values="0 0 0 0 0 0 0 0 0 0 0 0 0 0 0 0 0 0 127 0" result="hardAlpha"/>
<feOffset dy="20"/>
<feGaussianBlur stdDeviation="15"/>
<feComposite in2="hardAlpha" operator="out"/>
<feColorMatrix type="matrix" values="0 0 0 0 0.570833 0 0 0 0 0.570833 0 0 0 0 0.570833 0 0 0 0.19 0"/>
<feBlend mode="normal" in2="BackgroundImageFix" result="effect1_dropShadow_531_7010"/>
<feBlend mode="normal" in="SourceGraphic" in2="effect1_dropShadow_531_7010" result="shape"/>
</filter>
<filter id="filter3_d_531_7010" x="134.015" y="2.375" width="71.8428" height="52.3672" filterUnits="userSpaceOnUse" color-interpolation-filters="sRGB">
<feFlood flood-opacity="0" result="BackgroundImageFix"/>
<feColorMatrix in="SourceAlpha" type="matrix" values="0 0 0 0 0 0 0 0 0 0 0 0 0 0 0 0 0 0 127 0" result="hardAlpha"/>
<feOffset dx="6" dy="4"/>
<feGaussianBlur stdDeviation="6.5"/>
<feComposite in2="hardAlpha" operator="out"/>
<feColorMatrix type="matrix" values="0 0 0 0 0.104618 0 0 0 0 0.465612 0 0 0 0 0.545833 0 0 0 0.09 0"/>
<feBlend mode="normal" in2="BackgroundImageFix" result="effect1_dropShadow_531_7010"/>
<feBlend mode="normal" in="SourceGraphic" in2="effect1_dropShadow_531_7010" result="shape"/>
</filter>
</defs>
</svg>
