<svg width="16" height="16" viewBox="0 0 16 16" fill="none" xmlns="http://www.w3.org/2000/svg">
<path d="M14 8C14 11.3137 11.3137 14 8 14C4.68629 14 2 11.3137 2 8C2 4.68629 4.68629 2 8 2C11.3137 2 14 4.68629 14 8Z" fill="#FFCA28"/>
<path d="M7.53653 8.85154C7.53987 9.10441 7.74581 9.30764 7.9987 9.30764C8.25159 9.30764 8.45753 9.10441 8.46087 8.85154L8.51806 4.52627C8.52188 4.23675 8.28824 4 7.9987 4C7.70915 4 7.47551 4.23675 7.47934 4.52627L7.53653 8.85154ZM7.9987 12C8.37881 12 8.66536 11.7247 8.66536 11.3723C8.66536 11.0145 8.37881 10.7447 7.9987 10.7447C7.62443 10.7447 7.33203 11.0145 7.33203 11.3723C7.33203 11.7247 7.62443 12 7.9987 12Z" fill="black"/>
</svg>
