<svg width="37" height="37" viewBox="0 0 37 37" fill="none" xmlns="http://www.w3.org/2000/svg">
<path d="M29.8615 24.4596H8.00098V2.19821C8.00098 1.33582 8.70008 0.636719 9.56247 0.636719H32.516L29.8615 3.43536V24.4596Z" fill="white"/>
<path d="M16.0522 14.6528C14.8093 14.6528 14.2738 13.7513 14.03 13.1637C12.965 13.6853 12.0493 13.901 11.9691 13.9194C11.7632 13.9663 11.5585 13.8376 11.5116 13.6319C11.4646 13.4262 11.5934 13.2214 11.7991 13.1745C11.8247 13.1685 12.7248 12.9542 13.75 12.443C13.1478 10.8379 13.7966 9.02868 15.3032 8.23055C16.3682 7.59257 17.7217 8.77051 17.2776 9.9165C16.8185 11.2427 15.7598 12.1714 14.7072 12.798C14.971 13.4741 15.3974 14.0876 16.5642 13.8271C17.0203 13.7253 17.3621 13.3448 17.3955 12.9017C17.397 12.8815 17.3979 12.861 17.3982 12.8401C17.4008 12.6665 17.5198 12.5165 17.6882 12.4747C17.8568 12.4332 18.0321 12.51 18.1153 12.6621C18.2783 12.9579 18.8603 13.7937 19.3738 13.7562C19.7387 13.7288 20.1208 13.223 20.4496 12.3321C20.5 12.1956 20.6235 12.0995 20.7682 12.0844C20.9131 12.0691 21.0537 12.1377 21.1312 12.2609C21.2889 12.5097 21.8464 13.2112 22.3191 13.1704C22.6137 13.1445 22.9169 12.7868 23.1726 12.1633C23.2221 12.0425 23.3299 11.9554 23.4582 11.9324C23.5866 11.909 23.718 11.9531 23.8066 12.049C23.8086 12.0512 24.1611 12.4194 24.5656 12.4043C24.7893 12.3964 25.0076 12.2643 25.2147 12.0118C25.3485 11.8486 25.5891 11.8247 25.7524 11.9584C25.9156 12.0921 25.9394 12.3329 25.8057 12.4961C25.4513 12.9285 25.0405 13.1546 24.5848 13.1681C24.2178 13.1798 23.9006 13.0477 23.6666 12.9045C23.3178 13.5432 22.8877 13.8883 22.3842 13.9317C21.7795 13.9837 21.2533 13.5767 20.9076 13.2085C20.4988 14.0454 20.0121 14.4754 19.4292 14.5183C18.8059 14.5635 18.2761 14.1249 17.9202 13.7094C17.6689 14.136 17.2414 14.4589 16.7306 14.5729C16.4839 14.6279 16.2582 14.6527 16.0522 14.6528ZM15.66 8.90605C14.538 9.52042 14.0263 10.8465 14.4275 12.0671C15.3203 11.5164 16.2223 10.7465 16.5556 9.66651C16.8228 8.80038 16.0133 8.71259 15.66 8.90605Z" fill="#3E7DE6"/>
<path d="M25.958 5.70155H11.9875C11.7765 5.70155 11.6055 5.53048 11.6055 5.31952C11.6055 5.10857 11.7765 4.9375 11.9875 4.9375H25.958C26.1689 4.9375 26.34 5.10857 26.34 5.31952C26.34 5.53048 26.1689 5.70155 25.958 5.70155Z" fill="#3E7DE6"/>
<path d="M35.1346 3.2639C35.1346 1.81297 33.9542 0.636719 32.498 0.636719C31.0418 0.636719 29.8613 1.8129 29.8613 3.2639V6.87075H35.1347V3.2639H35.1346Z" fill="#3E7DE6"/>
<path d="M28.1891 29.1682L25.9211 27.2584L25.4393 26.0265L23.7211 21.6697L17.6383 20.6787L16.7494 20.0056C16.7494 20.0056 14.7362 18.5193 12.7828 18.2974C11.9863 18.207 11.2142 17.9523 10.5291 17.536C9.7975 17.0916 9.1139 16.4449 9.16402 15.5938L8.28231 15.851L1.69238 23.038L2.24937 23.3529C3.2324 23.9087 4.06422 24.6969 4.67699 25.656L4.70083 25.6933C5.32529 26.67 6.19187 27.4686 7.21623 28.0113L8.08488 28.4715L14.5577 33.532L17.9792 36.1465C18.5525 36.601 19.3836 36.463 19.8624 35.8717C20.3901 35.22 20.2902 34.2641 19.6395 33.7354C18.9889 33.2067 19.6395 33.7354 19.6395 33.7353L20.7459 34.6313C21.3816 35.1461 22.3143 35.0481 22.8291 34.4124C23.3439 33.7768 23.2458 32.8441 22.6101 32.3292L23.8218 33.3105C24.4575 33.8253 25.3902 33.7273 25.905 33.0916C26.4199 32.4559 26.3217 31.5233 25.686 31.0084L26.2749 31.4853C26.9198 32.0076 27.8661 31.9083 28.3886 31.2635L28.3887 31.2633C28.9041 30.6272 28.8154 29.6955 28.1891 29.1682Z" fill="#FFDECF"/>
<path d="M27.0555 30.7043L26.4665 30.2274L23.4699 27.8008L22.667 28.5635L25.6858 31.0082L26.2747 31.4851C26.9196 32.0074 27.8659 31.9081 28.3884 31.2633L28.3885 31.2631C28.4764 31.1546 28.5454 31.0371 28.5985 30.9149C28.1014 31.1296 27.5053 31.0687 27.0555 30.7043Z" fill="#FFC7B3"/>
<path d="M20.4209 32.9531H20.4199L20.4209 32.9541V32.9531Z" fill="#FFDECF"/>
<path d="M18.7598 35.365L16.4596 33.6073L14.5576 33.5312L17.9792 36.1458C18.5525 36.6002 19.3835 36.4622 19.8623 35.8709C19.9504 35.7623 20.0193 35.6446 20.0728 35.5224C19.6412 35.7067 19.1431 35.6688 18.7598 35.365Z" fill="#FFC7B3"/>
<path d="M21.5258 33.8502L20.4194 32.9542L18.2437 31.168L17.4678 31.9526L19.6387 33.7349L20.7451 34.6309C21.3809 35.1457 22.3135 35.0477 22.8283 34.412C22.9167 34.3029 22.9857 34.1846 23.0384 34.0616C22.5502 34.2689 21.9667 34.2072 21.5258 33.8502Z" fill="#FFC7B3"/>
<path d="M24.6021 32.5306L23.3904 31.5493L20.9316 29.6387L20.0146 30.3091L22.6096 32.33L23.8213 33.3113C24.4571 33.8261 25.3897 33.7282 25.9046 33.0925C25.993 32.9834 26.0619 32.865 26.1146 32.742C25.6265 32.9494 25.043 32.8876 24.6021 32.5306Z" fill="#FFC7B3"/>
<path d="M8.12397 14.5428L10.397 16.0758C10.8367 16.3724 10.9519 16.9701 10.6538 17.409L4.84092 25.9692C4.54447 26.4057 3.95119 26.5202 3.51392 26.2252L1.24111 24.6924C0.801395 24.3959 0.68587 23.7987 0.98385 23.3597C2.27188 21.4627 5.51329 16.6891 6.7972 14.7983C7.09365 14.3618 7.68663 14.2478 8.12397 14.5428Z" fill="#FFCC00"/>
<path d="M4.12038 22.8993C4.46802 23.1337 4.55986 23.6051 4.32537 23.9523C4.09096 24.2996 3.61901 24.3912 3.27137 24.1569C2.92372 23.9225 2.83188 23.4511 3.06637 23.1038C3.30086 22.7566 3.77274 22.6651 4.12038 22.8993Z" fill="white"/>
<path d="M13.4552 19.5813L17.4703 17.129C18.2767 16.6364 19.263 16.5362 20.1521 16.8562L22.9743 17.8724C23.5584 18.0827 24.192 18.1139 24.7939 17.9619L29.327 16.8176L33.267 25.0012C33.267 25.0012 31.7446 28.3249 27.8823 28.9105L18.7707 21.0767L16.5991 21.7261L15.1874 23.4653C14.1799 24.7065 12.4428 25.0763 11.017 24.3534C10.5926 24.1382 10.4584 23.5962 10.7332 23.2078L12.9951 20.0112C13.1176 19.8382 13.2742 19.6919 13.4552 19.5813Z" fill="#FFC7B3"/>
<path d="M29.9376 14.5874L27.5633 15.9581C27.1039 16.2232 26.9474 16.8115 27.2141 17.2702L32.4162 26.2153C32.6815 26.6714 33.2654 26.8271 33.7222 26.5633L36.0962 25.1929C36.5556 24.9278 36.7125 24.3401 36.4457 23.8815C35.2931 21.8992 32.3923 16.9108 31.2432 14.935C30.978 14.4789 30.3944 14.3238 29.9376 14.5874Z" fill="#064DD6"/>
<path d="M33.3485 23.2033C32.9854 23.4127 32.8609 23.8767 33.0706 24.2395C33.2804 24.6024 33.7447 24.7266 34.1078 24.5172C34.471 24.3077 34.5954 23.8438 34.3857 23.481C34.176 23.1181 33.7117 22.9939 33.3485 23.2033Z" fill="white"/>
<path d="M12.8315 28.995L10.3555 32.531C9.90416 33.1755 10.0709 34.065 10.7251 34.5024L10.7475 34.5174C11.3835 34.9425 12.2429 34.78 12.6796 34.1518L15.1434 30.608C15.5847 29.9732 15.4295 29.101 14.7961 28.6576L14.7859 28.6504C14.151 28.2058 13.276 28.3602 12.8315 28.995Z" fill="#FFC7B3"/>
<path d="M11.8952 34.5034C11.2411 34.0661 11.0743 33.1766 11.5256 32.532L14.0016 28.996C14.1499 28.7842 14.3466 28.6273 14.5658 28.5269C13.9613 28.2481 13.2258 28.4314 12.8305 28.996L10.3545 32.532C9.90318 33.1766 10.07 34.0661 10.7241 34.5034L10.7465 34.5184C11.1665 34.7992 11.6833 34.8222 12.1121 34.6255C12.0457 34.5949 11.9803 34.5603 11.9176 34.5184L11.8952 34.5034Z" fill="#F9AD95"/>
<path d="M12.0388 27.6797C12.6737 28.1242 12.8279 28.9992 12.3834 29.634L10.337 32.5564C9.89251 33.1913 9.01752 33.3456 8.38267 32.901C7.74782 32.4565 7.59356 31.5815 8.03809 30.9467L10.0844 28.0243C10.529 27.3895 11.404 27.2351 12.0388 27.6797Z" fill="#FFC7B3"/>
<path d="M9.20922 30.9458L11.2556 28.0233C11.4039 27.8115 11.6005 27.6546 11.8197 27.5542C11.2152 27.2755 10.4798 27.4588 10.0844 28.0233L8.03809 30.9458C7.59356 31.5807 7.74782 32.4557 8.38267 32.9001C8.80573 33.1963 9.33491 33.2253 9.77286 33.0246C9.6976 32.99 9.62402 32.9493 9.55381 32.9001C8.91904 32.4557 8.76477 31.5807 9.20922 30.9458Z" fill="#F9AD95"/>
<path d="M14.2644 31.8251L13.1123 33.4704C12.6678 34.1052 12.822 34.9801 13.4569 35.4246C14.0917 35.8692 14.9667 35.7149 15.4113 35.0801L16.5634 33.4348C17.0079 32.7999 16.8536 31.925 16.2188 31.4805C15.5839 31.0359 14.7089 31.1902 14.2644 31.8251Z" fill="#FFC7B3"/>
<path d="M14.628 35.4257C13.9932 34.9811 13.8389 34.1061 14.2834 33.4714L15.4356 31.8261C15.5839 31.6143 15.7805 31.4573 15.9997 31.3569C15.3952 31.0782 14.6597 31.2615 14.2644 31.8261L13.1123 33.4714C12.6678 34.1062 12.822 34.9811 13.4569 35.4257C13.8799 35.7219 14.4091 35.7508 14.8471 35.5502C14.7718 35.5155 14.6982 35.4749 14.628 35.4257Z" fill="#F9AD95"/>
<path d="M8.8165 27.4395C8.18165 26.9949 7.30666 27.1492 6.86214 27.784L6.15723 28.7908C5.7127 29.4256 5.86696 30.3005 6.50181 30.745C7.13666 31.1896 8.01165 31.0353 8.45618 30.4005L9.16109 29.3937C9.60561 28.759 9.45135 27.884 8.8165 27.4395Z" fill="#FFC7B3"/>
<path d="M7.67295 30.746C7.0381 30.3015 6.88384 29.4265 7.32836 28.7918L8.03327 27.785C8.18158 27.5733 8.37824 27.4163 8.59745 27.3159C7.99293 27.0372 7.25746 27.2205 6.86214 27.785L6.15723 28.7918C5.7127 29.4266 5.86696 30.3015 6.50181 30.746C6.92487 31.0423 7.45405 31.0712 7.892 30.8706C7.81674 30.8358 7.74324 30.7952 7.67295 30.746Z" fill="#F9AD95"/>
</svg>
