<svg width="40" height="40" viewBox="0 0 40 40" fill="none" xmlns="http://www.w3.org/2000/svg">
<path d="M9.5413 31.0156H3.94059C3.46137 31.0156 3.03051 31.3073 2.85255 31.7523L0.196296 38.3929C-0.111595 39.1627 0.45528 40 1.28434 40H12.1975C13.0266 40 13.5935 39.1627 13.2856 38.3929L10.6293 31.7523C10.4514 31.3073 10.0204 31.0156 9.5413 31.0156Z" fill="#FFDE55"/>
<path d="M22.8011 31.0156H17.2004C16.7211 31.0156 16.2903 31.3073 16.1123 31.7523L13.4561 38.3929C13.1482 39.1627 13.715 40 14.5441 40H25.4573C26.2864 40 26.8532 39.1627 26.5454 38.3929L23.8891 31.7523C23.7111 31.3073 23.2802 31.0156 22.8011 31.0156Z" fill="#FFDE55"/>
<path d="M36.0599 31.0156H30.4591C29.9799 31.0156 29.5491 31.3073 29.3711 31.7523L26.7149 38.3929C26.407 39.1627 26.9738 40 27.8029 40H38.7161C39.5452 40 40.112 39.1627 39.8041 38.3929L37.1479 31.7523C36.9699 31.3073 36.5391 31.0156 36.0599 31.0156Z" fill="#FFDE55"/>
<path d="M26.5447 38.3929L23.8884 31.7523C23.7105 31.3073 23.2795 31.0156 22.8004 31.0156H20V40H25.4566C26.2856 40 26.8526 39.1627 26.5447 38.3929Z" fill="#FFCD00"/>
<path d="M39.8045 38.3929L37.1482 31.7523C36.9702 31.3073 36.5393 31.0156 36.0602 31.0156H33.2598V40H38.7164C39.5455 40 40.1123 39.1627 39.8045 38.3929Z" fill="#FFCD00"/>
<path d="M13.2859 38.3929L10.6296 31.7523C10.4517 31.3073 10.0207 31.0156 9.5416 31.0156H6.74121V40H12.1979C13.0269 40 13.5938 39.1627 13.2859 38.3929Z" fill="#FFCD00"/>
<path d="M16.1702 22.0312H10.5695C10.0903 22.0312 9.65942 22.323 9.48145 22.7679L6.8252 29.4085C6.51731 30.1783 7.08419 31.0156 7.91325 31.0156H18.8265C19.6555 31.0156 20.2224 30.1783 19.9145 29.4085L17.2582 22.7679C17.0803 22.323 16.6494 22.0312 16.1702 22.0312Z" fill="#FFDE55"/>
<path d="M29.429 22.0312H23.8283C23.3491 22.0312 22.9182 22.323 22.7402 22.7679L20.084 29.4085C19.7761 30.1783 20.343 31.0156 21.172 31.0156H32.0852C32.9143 31.0156 33.4812 30.1783 33.1733 29.4085L30.517 22.7679C30.3391 22.323 29.9081 22.0312 29.429 22.0312Z" fill="#FFDE55"/>
<path d="M19.9148 29.4085L17.2586 22.7679C17.0806 22.323 16.6496 22.0312 16.1705 22.0312H13.3701V31.0156H18.8268C19.6558 31.0156 20.2228 30.1783 19.9148 29.4085Z" fill="#FFCD00"/>
<path d="M33.1746 29.4085L30.5183 22.7679C30.3404 22.323 29.9094 22.0312 29.4303 22.0312H26.6299V31.0156H32.0865C32.9156 31.0156 33.4825 30.1783 33.1746 29.4085Z" fill="#FFCD00"/>
<path d="M22.8001 13.0469H17.1994C16.7202 13.0469 16.2893 13.3386 16.1113 13.7835L13.4551 20.4241C13.1472 21.1939 13.7141 22.0313 14.5431 22.0313H25.4563C26.2854 22.0313 26.8523 21.1939 26.5444 20.4241L23.8881 13.7835C23.7102 13.3386 23.2792 13.0469 22.8001 13.0469Z" fill="#FFDE55"/>
<path d="M26.5447 20.4241L23.8884 13.7835C23.7105 13.3386 23.2795 13.0469 22.8004 13.0469H20V22.0313H25.4566C26.2856 22.0313 26.8526 21.1939 26.5447 20.4241Z" fill="#FFCD00"/>
<path d="M31.874 15.8802C31.5504 15.3198 31.7424 14.6031 32.3029 14.2795L38.2419 10.8506C38.8024 10.527 39.5191 10.719 39.8427 11.2795C40.1663 11.8399 39.9742 12.5566 39.4138 12.8802L33.4748 16.3091C32.9143 16.6327 32.1976 16.4407 31.874 15.8802Z" fill="url(#paint0_linear_1361_16490)"/>
<path d="M27.1291 12.3661C26.5686 12.0425 26.3766 11.3258 26.7002 10.7653L30.1291 4.82633C30.4527 4.26587 31.1694 4.07383 31.7299 4.39743C32.2903 4.72102 32.4823 5.43774 32.1588 5.99821L28.7299 11.9372C28.4063 12.4977 27.6895 12.6897 27.1291 12.3661Z" fill="url(#paint1_linear_1361_16490)"/>
<path d="M6.52508 16.3091L0.5861 12.8802C0.0256309 12.5566 -0.1664 11.8399 0.157193 11.2795C0.480787 10.719 1.19751 10.527 1.75797 10.8506L7.69696 14.2795C8.25743 14.6031 8.44946 15.3198 8.12587 15.8802C7.80227 16.4407 7.08555 16.6327 6.52508 16.3091Z" fill="url(#paint2_linear_1361_16490)"/>
<path d="M20 9.20148C19.3528 9.20148 18.8281 8.6768 18.8281 8.02961V1.17188C18.8281 0.524687 19.3528 0 20 0C20.6472 0 21.1719 0.524687 21.1719 1.17188V8.02969C21.1719 8.67688 20.6472 9.20148 20 9.20148Z" fill="url(#paint3_linear_1361_16490)"/>
<path d="M11.2697 11.9372L7.84079 5.99821C7.51719 5.43774 7.70922 4.72102 8.26969 4.39743C8.83016 4.07383 9.54688 4.26587 9.87047 4.82633L13.2994 10.7653C13.623 11.3258 13.4309 12.0425 12.8705 12.3661C12.31 12.6897 11.5933 12.4977 11.2697 11.9372Z" fill="url(#paint4_linear_1361_16490)"/>
<path d="M20 0V9.20148C20.6472 9.20148 21.1719 8.6768 21.1719 8.02961V1.17188C21.1719 0.524687 20.6472 0 20 0Z" fill="url(#paint5_linear_1361_16490)"/>
<defs>
<linearGradient id="paint0_linear_1361_16490" x1="35.8583" y1="10.6934" x2="35.8583" y2="16.4663" gradientUnits="userSpaceOnUse">
<stop stop-color="#0A257C"/>
<stop offset="1" stop-color="#0D36C1"/>
</linearGradient>
<linearGradient id="paint1_linear_1361_16490" x1="29.4295" y1="4.24023" x2="29.4295" y2="12.5233" gradientUnits="userSpaceOnUse">
<stop stop-color="#0A257C"/>
<stop offset="1" stop-color="#0D36C1"/>
</linearGradient>
<linearGradient id="paint2_linear_1361_16490" x1="7.04914e-08" y1="17.9096" x2="9.05356" y2="14.7488" gradientUnits="userSpaceOnUse">
<stop stop-color="#0A3ECA"/>
<stop offset="0.961522" stop-color="#4B7CFF"/>
</linearGradient>
<linearGradient id="paint3_linear_1361_16490" x1="18.8281" y1="11.5019" x2="21.6911" y2="11.3244" gradientUnits="userSpaceOnUse">
<stop stop-color="#0A3ECA"/>
<stop offset="0.961522" stop-color="#4B7CFF"/>
</linearGradient>
<linearGradient id="paint4_linear_1361_16490" x1="7.68359" y1="14.5941" x2="14.5648" y2="13.4271" gradientUnits="userSpaceOnUse">
<stop stop-color="#0A3ECA"/>
<stop offset="0.961522" stop-color="#4B7CFF"/>
</linearGradient>
<linearGradient id="paint5_linear_1361_16490" x1="20.5859" y1="0" x2="20.5859" y2="9.20148" gradientUnits="userSpaceOnUse">
<stop stop-color="#0A257C"/>
<stop offset="1" stop-color="#0D36C1"/>
</linearGradient>
</defs>
</svg>
