<svg width="19" height="18" viewBox="0 0 19 18" fill="none" xmlns="http://www.w3.org/2000/svg">
<path d="M4.51577 1.9054L6.06839 3.60355C6.30554 3.86311 6.2877 4.26608 6.02772 4.50323C5.90579 4.61514 5.75202 4.6699 5.59817 4.6699C5.42573 4.6699 5.25362 4.60028 5.12804 4.46264L3.57543 2.7645C3.33828 2.50494 3.35611 2.10197 3.6161 1.86482C3.87438 1.62682 4.27778 1.64423 4.51577 1.90549V1.9054ZM14.6848 4.48328L16.3829 2.78513C16.6317 2.53635 16.6317 2.13338 16.3829 1.88469C16.1342 1.63599 15.7312 1.63591 15.4825 1.88469L13.7843 3.58283C13.5356 3.83161 13.5356 4.23458 13.7843 4.48328C13.9087 4.60766 14.0717 4.66982 14.2346 4.66982C14.3975 4.66982 14.5605 4.60766 14.6849 4.48328H14.6848ZM9.35235 0.636805V3.18402C9.35235 3.53562 9.63755 3.82083 9.98915 3.82083C10.3408 3.82083 10.626 3.53562 10.626 3.18402V0.636805C10.626 0.285204 10.3408 0 9.98915 0C9.63755 0 9.35235 0.285204 9.35235 0.636805Z" fill="#659FF2"/>
<path d="M18.9563 16.5009C19.1395 17.0507 18.7304 17.6185 18.1508 17.6185H12.0161C11.4365 17.6185 11.0273 17.0507 11.2105 16.5009L12.1491 13.6852C12.3802 12.9918 13.0292 12.524 13.7601 12.524H16.4066C17.1376 12.524 17.7865 12.9917 18.0176 13.6852L18.9563 16.5009ZM7.9619 17.6185C8.54148 17.6185 8.95065 17.0507 8.76742 16.5009L7.82885 13.6852C7.59774 12.9918 6.94879 12.524 6.21782 12.524H3.57135C2.84038 12.524 2.19143 12.9917 1.96032 13.6852L1.02175 16.5009C0.83852 17.0507 1.24769 17.6185 1.82727 17.6185H7.9619ZM6.92162 10.8259H13.0563C13.6359 10.8259 14.0451 10.2581 13.8619 9.70833L12.9233 6.89264C12.6922 6.1992 12.0432 5.73145 11.3123 5.73145H8.66579C7.93482 5.73145 7.28587 6.19912 7.05475 6.89264L6.11619 9.70833C5.93296 10.2581 6.34204 10.8259 6.92162 10.8259Z" fill="#064DD6"/>
</svg>
