<svg width="40" height="40" viewBox="0 0 40 40" fill="none" xmlns="http://www.w3.org/2000/svg">
<path d="M16.5362 25.8147C16.516 25.7253 16.4781 25.6409 16.4248 25.5663C16.3715 25.4917 16.3039 25.4285 16.2259 25.3803L8.6129 20.7877C8.51188 20.7235 8.39468 20.6895 8.27501 20.6895C8.15533 20.6895 8.03813 20.7235 7.93711 20.7877L0.324104 25.3803C0.246101 25.4285 0.178481 25.4917 0.125199 25.5663C0.0719177 25.6409 0.0340435 25.7253 0.0137917 25.8147C0.00543072 25.8579 0.000816359 25.9018 0 25.9458V34.7449C0.000726127 34.859 0.0309472 34.9711 0.0877325 35.0702C0.144518 35.1693 0.22594 35.252 0.324104 35.3103L7.93711 39.9029C8.03853 39.966 8.15558 39.9994 8.27501 39.9994C8.39443 39.9994 8.51148 39.966 8.6129 39.9029L16.2259 35.3103C16.3241 35.252 16.4055 35.1693 16.4623 35.0702C16.5191 34.9711 16.5493 34.859 16.55 34.7449V25.9458C16.5492 25.9018 16.5446 25.8579 16.5362 25.8147Z" fill="#3560D8"/>
<path d="M8.27501 30.676V39.9992C8.15527 40.0014 8.0376 39.9678 7.93711 39.9026L0.324104 35.31C0.22594 35.2517 0.144518 35.169 0.0877325 35.0699C0.0309472 34.9708 0.000726127 34.8588 0 34.7446V25.9455C0.000816359 25.9015 0.00543072 25.8576 0.0137917 25.8145L7.90953 30.5795C8.02037 30.6441 8.14669 30.6775 8.27501 30.676Z" fill="#2751AF"/>
<path d="M16.5494 25.9455V34.7446C16.5487 34.8588 16.5185 34.9708 16.4617 35.0699C16.4049 35.169 16.3235 35.2517 16.2253 35.31L8.61231 39.9026C8.51182 39.9678 8.39415 40.0014 8.27441 39.9992V30.676C8.40273 30.6775 8.52905 30.6441 8.63989 30.5795L16.5356 25.8145C16.544 25.8576 16.5486 25.9015 16.5494 25.9455Z" fill="#1A4187"/>
<path d="M39.9825 25.8147C39.9623 25.7253 39.9244 25.6409 39.8711 25.5663C39.8178 25.4917 39.7502 25.4285 39.6722 25.3803L32.0592 20.7877C31.9582 20.7235 31.841 20.6895 31.7213 20.6895C31.6016 20.6895 31.4844 20.7235 31.3834 20.7877L23.7704 25.3803C23.6924 25.4285 23.6248 25.4917 23.5715 25.5663C23.5182 25.6409 23.4803 25.7253 23.4601 25.8147C23.4517 25.8579 23.4471 25.9018 23.4463 25.9458V34.7449C23.447 34.859 23.4772 34.9711 23.534 35.0702C23.5908 35.1693 23.6722 35.252 23.7704 35.3103L31.3834 39.9029C31.4848 39.966 31.6019 39.9994 31.7213 39.9994C31.8407 39.9994 31.9578 39.966 32.0592 39.9029L39.6722 35.3103C39.7704 35.252 39.8518 35.1693 39.9086 35.0702C39.9654 34.9711 39.9956 34.859 39.9963 34.7449V25.9458C39.9955 25.9018 39.9909 25.8579 39.9825 25.8147Z" fill="#3560D8"/>
<path d="M31.7213 30.676V39.9992C31.6016 40.0014 31.4839 39.9678 31.3834 39.9026L23.7704 35.31C23.6722 35.2517 23.5908 35.169 23.534 35.0699C23.4772 34.9708 23.447 34.8588 23.4463 34.7446V25.9455C23.4471 25.9015 23.4517 25.8576 23.4601 25.8145L31.3558 30.5795C31.4667 30.6441 31.593 30.6775 31.7213 30.676Z" fill="#2751AF"/>
<path d="M39.9957 25.9455V34.7446C39.995 34.8588 39.9648 34.9708 39.908 35.0699C39.8512 35.169 39.7698 35.2517 39.6716 35.31L32.0586 39.9026C31.9581 39.9678 31.8404 40.0014 31.7207 39.9992V30.676C31.849 30.6775 31.9753 30.6441 32.0862 30.5795L39.9819 25.8145C39.9903 25.8576 39.9949 25.9015 39.9957 25.9455Z" fill="#1A4187"/>
<path d="M28.6866 2.2176L26.0731 0.16954C25.9633 0.0812627 25.8314 0.0248727 25.6917 0.006536C25.552 -0.0118007 25.41 0.00862223 25.2811 0.0655712C25.1523 0.12252 25.0416 0.213802 24.9611 0.329435C24.8807 0.445068 24.8336 0.580599 24.8249 0.721207V1.38321H16.5499C16.367 1.38321 16.1916 1.45586 16.0623 1.58518C15.933 1.7145 15.8604 1.8899 15.8604 2.07279V3.45196C15.8604 3.63485 15.933 3.81025 16.0623 3.93957C16.1916 4.06889 16.367 4.14154 16.5499 4.14154H24.8249V4.80354C24.8333 4.94427 24.8803 5.07996 24.9607 5.19575C25.0411 5.31153 25.1519 5.40293 25.2808 5.45992C25.4098 5.51691 25.5519 5.53729 25.6917 5.51882C25.8314 5.50035 25.9634 5.44374 26.0731 5.35521L28.6866 3.30715C28.7717 3.2441 28.8409 3.16199 28.8886 3.06738C28.9363 2.97277 28.9611 2.86831 28.9611 2.76237C28.9611 2.65644 28.9363 2.55198 28.8886 2.45737C28.8409 2.36276 28.7717 2.28064 28.6866 2.2176Z" fill="#3560D8"/>
<path d="M11.3096 8.82346L13.9232 10.8715C14.0329 10.9598 14.1649 11.0162 14.3046 11.0345C14.4442 11.0529 14.5862 11.0324 14.7151 10.9755C14.8439 10.9185 14.9547 10.8273 15.0351 10.7116C15.1156 10.596 15.1627 10.4605 15.1713 10.3199V9.65785H23.4463C23.6292 9.65785 23.8046 9.5852 23.9339 9.45588C24.0632 9.32656 24.1359 9.15116 24.1359 8.96827V7.5891C24.1359 7.40621 24.0632 7.23081 23.9339 7.10149C23.8046 6.97217 23.6292 6.89952 23.4463 6.89952H15.1713V6.23752C15.1629 6.09679 15.116 5.9611 15.0355 5.84531C14.9551 5.72953 14.8444 5.63813 14.7154 5.58114C14.5865 5.52415 14.4443 5.50377 14.3046 5.52224C14.1648 5.54071 14.0329 5.59732 13.9232 5.68585L11.3096 7.73391C11.2245 7.79695 11.1553 7.87907 11.1077 7.97368C11.06 8.06829 11.0352 8.17275 11.0352 8.27868C11.0352 8.38462 11.06 8.48908 11.1077 8.58369C11.1553 8.6783 11.2245 8.76041 11.3096 8.82346Z" fill="#3560D8"/>
<path d="M19.9979 33.7927C25.3298 33.7927 29.6521 29.4704 29.6521 24.1385C29.6521 18.8067 25.3298 14.4844 19.9979 14.4844C14.6661 14.4844 10.3438 18.8067 10.3438 24.1385C10.3438 29.4704 14.6661 33.7927 19.9979 33.7927Z" fill="#FFCC00"/>
<path d="M17.1704 29.6473C16.9925 29.6496 16.8158 29.6164 16.6508 29.5495C16.4859 29.4825 16.336 29.3834 16.2099 29.2577L13.9715 27.02C13.844 26.8925 13.7725 26.7196 13.7725 26.5394C13.7725 26.3591 13.844 26.1862 13.9715 26.0587L14.9327 25.0975C15.0602 24.97 15.2331 24.8985 15.4134 24.8985C15.5936 24.8985 15.7665 24.97 15.894 25.0975L16.9974 26.2008L22.4664 18.5464C22.5182 18.4738 22.5838 18.412 22.6595 18.3648C22.7352 18.3175 22.8194 18.2856 22.9074 18.271C22.9954 18.2563 23.0855 18.2591 23.1724 18.2793C23.2593 18.2995 23.3414 18.3366 23.4139 18.3885L24.5173 19.1781C24.5899 19.2299 24.6517 19.2956 24.699 19.3713C24.7462 19.4471 24.7781 19.5314 24.7928 19.6194C24.8075 19.7075 24.8046 19.7976 24.7844 19.8845C24.7643 19.9715 24.7271 20.0536 24.6752 20.1262L18.2738 29.0908C18.1468 29.2641 17.9807 29.4049 17.7889 29.5016C17.5972 29.5983 17.3852 29.6482 17.1704 29.6473Z" fill="white"/>
</svg>
