<svg width="25" height="24" viewBox="0 0 25 24" fill="none" xmlns="http://www.w3.org/2000/svg">
<path d="M12.5 24C19.1274 24 24.5 18.6274 24.5 12C24.5 5.37258 19.1274 0 12.5 0C5.87258 0 0.5 5.37258 0.5 12C0.5 18.6274 5.87258 24 12.5 24Z" fill="#E8EFFF"/>
<path d="M17.3004 9.2002H16.1004V13.6002C16.1004 14.1306 15.8897 14.6393 15.5147 15.0144C15.1396 15.3895 14.6309 15.6002 14.1004 15.6002H9.70044V16.8002C9.70044 17.1185 9.82687 17.4237 10.0519 17.6487C10.277 17.8738 10.5822 18.0002 10.9004 18.0002H17.3004C17.6187 18.0002 17.9239 17.8738 18.149 17.6487C18.374 17.4237 18.5004 17.1185 18.5004 16.8002V10.4002C18.5004 10.0819 18.374 9.77671 18.149 9.55167C17.9239 9.32662 17.6187 9.2002 17.3004 9.2002Z" fill="#064DD6"/>
<path d="M14.1 6H7.7C7.03726 6 6.5 6.53726 6.5 7.2V13.6C6.5 14.2627 7.03726 14.8 7.7 14.8H14.1C14.7627 14.8 15.3 14.2627 15.3 13.6V7.2C15.3 6.53726 14.7627 6 14.1 6Z" fill="#064DD6"/>
</svg>
