<svg width="320" height="153" viewBox="0 0 320 153" fill="none" xmlns="http://www.w3.org/2000/svg">
<path d="M82.2163 153C127.623 153 164.433 151.971 164.433 150.7C164.433 149.43 127.623 148.4 82.2163 148.4C36.8095 148.4 0 149.43 0 150.7C0 151.971 36.8095 153 82.2163 153Z" fill="url(#paint0_linear_1361_16044)"/>
<path d="M33.4258 101.484C31.523 89.5547 36.7363 73.9088 43.3454 75.06C48.8212 76.0144 34.5591 97.8399 33.4258 101.484Z" fill="url(#paint1_linear_1361_16044)"/>
<path d="M31.3443 107.568C37.5657 98.7342 33.7243 80.5771 27.1569 80.1595C20.6433 79.7539 30.8075 103.124 31.3443 107.568Z" fill="url(#paint2_linear_1361_16044)"/>
<path d="M31.6541 112.74C30.9443 93.6703 42.5699 84.0549 47.7713 86.3335C53.0979 88.6657 35.7162 102.176 31.6541 112.74Z" fill="url(#paint3_linear_1361_16044)"/>
<path d="M30.0919 124.628C36.3073 111.189 30.9807 90.1807 21.0968 92.4534C12.9011 94.3442 28.6245 118.973 30.0919 124.628Z" fill="url(#paint4_linear_1361_16044)"/>
<path d="M30.5211 128.625C29.8351 115.741 25.9341 99.3078 17.9053 100.829C10.2166 102.29 28.1232 117.381 30.5211 128.625Z" fill="url(#paint5_linear_1361_16044)"/>
<path d="M28.5469 134.954C30.5034 115.944 46.7875 105.332 46.6205 112.526C46.4475 120.245 34.0167 125.261 28.5469 134.954Z" fill="url(#paint6_linear_1361_16044)"/>
<path d="M30.1272 130.927C32.4058 124.127 27.0433 114.893 21.4065 116.861C16.736 118.502 28.6598 128.445 30.1272 130.927Z" fill="url(#paint7_linear_1361_16044)"/>
<path d="M30.2769 128.386C27.8194 113.802 40.3815 88.7138 51.7207 94.1061C62.7379 99.3552 35.6453 111.637 30.2769 128.386Z" fill="url(#paint8_linear_1361_16044)"/>
<path d="M35.8721 150.39H25.028C23.0834 150.39 21.3596 149.126 20.7929 147.265C19.4448 142.851 18.6276 138.276 18.8722 133.814C18.9497 132.376 19.1347 130.945 19.4508 129.543C19.582 128.964 20.089 128.547 20.6796 128.547H40.2265C40.817 128.547 41.324 128.964 41.4553 129.543C41.7714 130.951 41.9623 132.376 42.0339 133.814C42.2784 138.276 41.4612 142.851 40.1132 147.265C39.5465 149.126 37.8167 150.39 35.8721 150.39Z" fill="url(#paint9_linear_1361_16044)"/>
<path opacity="0.5" d="M42.0278 133.814H18.8721C18.9496 132.376 19.1345 130.945 19.4507 129.543C19.5819 128.964 20.0889 128.547 20.6794 128.547H40.2264C40.8169 128.547 41.3239 128.964 41.4551 129.543C41.7653 130.945 41.9562 132.376 42.0278 133.814Z" fill="white"/>
<path d="M308.02 133H167.09C163.576 133 160.836 130.13 161.008 126.625L166.272 19.3753C166.443 15.8702 169.46 13 172.98 13H313.91C317.424 13 320.164 15.8702 319.992 19.3753L314.728 126.625C314.557 130.13 311.534 133 308.02 133Z" fill="url(#paint10_linear_1361_16044)"/>
<path opacity="0.7" d="M308.02 133H167.09C163.576 133 160.836 130.13 161.008 126.625L166.272 19.3753C166.443 15.8702 169.46 13 172.98 13H313.91C317.424 13 320.164 15.8702 319.992 19.3753L314.728 126.625C314.557 130.13 311.534 133 308.02 133Z" fill="white"/>
<path d="M319.621 14C318.903 13.3047 317.995 12.7585 317 12.4199L317.185 12C318.256 12.3612 319.231 12.9481 320 13.6975L319.621 14Z" fill="url(#paint11_linear_1361_16044)"/>
<path d="M314 11H303V12H314V11Z" fill="url(#paint12_linear_1361_16044)"/>
<path d="M313.943 13H173.677C170.179 13 167.17 15.7013 167 19H319.992C320.168 15.6962 317.441 13 313.943 13Z" fill="url(#paint13_linear_1361_16044)"/>
<path d="M166.004 125.998L170.864 26.0018C170.945 24.3449 172.346 23 173.998 23H313.157C314.804 23 316.077 24.3449 315.996 26.0018L311.136 125.998C311.055 127.655 309.654 129 308.002 129H168.843C167.196 129.005 165.923 127.66 166.004 125.998Z" fill="white"/>
<path opacity="0.3" d="M185.336 57H179.02C178.429 57 177.975 56.5285 178.001 55.9482L178.545 45.0518C178.571 44.4715 179.078 44 179.67 44H185.98C186.571 44 187.025 44.4715 186.999 45.0518L186.455 55.9482C186.429 56.5285 185.927 57 185.336 57Z" fill="url(#paint14_linear_1361_16044)"/>
<path opacity="0.3" d="M198.255 57H192.009C191.424 57 190.975 56.527 191.001 55.9449L191.633 43.0551C191.659 42.473 192.16 42 192.745 42H198.991C199.576 42 200.025 42.473 199.999 43.0551L199.367 55.9449C199.336 56.527 198.84 57 198.255 57Z" fill="url(#paint15_linear_1361_16044)"/>
<path opacity="0.3" d="M211.2 57H205.001C204.421 57 203.975 56.537 204.001 55.9672L204.696 42.0327C204.722 41.463 205.219 41 205.8 41H211.999C212.579 41 213.025 41.463 212.999 42.0327L212.304 55.9672C212.273 56.537 211.781 57 211.2 57Z" fill="url(#paint16_linear_1361_16044)"/>
<path opacity="0.3" d="M223.946 57H217.105C216.464 57 215.973 56.5155 216.001 55.9193L216.836 40.0807C216.865 39.4845 217.414 39 218.054 39H224.895C225.536 39 226.027 39.4845 225.999 40.0807L225.164 55.9193C225.129 56.5155 224.586 57 223.946 57Z" fill="url(#paint17_linear_1361_16044)"/>
<path d="M236.75 57H230.078C229.453 57 228.973 56.533 229.001 55.9582L230.061 36.0418C230.089 35.467 230.625 35 231.25 35H237.922C238.547 35 239.027 35.467 238.999 36.0418L237.939 55.9582C237.905 56.533 237.375 57 236.75 57Z" fill="#064DD6"/>
<path d="M235.272 32.8031L235.941 31.6353C236.1 31.3593 235.918 31 235.619 31H234.38C234.092 31 233.91 31.3337 234.045 31.6096L234.609 32.7775C234.75 33.0598 235.114 33.0791 235.272 32.8031Z" fill="#263238"/>
<path opacity="0.3" d="M249.882 57H243.096C242.461 57 241.973 56.5295 242.001 55.9505L242.909 39.0495C242.937 38.4705 243.482 38 244.118 38H250.904C251.539 38 252.027 38.4705 251.999 39.0495L251.091 55.9505C251.063 56.5295 250.518 57 249.882 57Z" fill="url(#paint18_linear_1361_16044)"/>
<path opacity="0.1" d="M250.629 61H178.338C178.14 61 177.99 60.7727 178.001 60.5C178.011 60.2197 178.177 60 178.376 60H250.662C250.86 60 251.01 60.2273 250.999 60.5C250.994 60.7803 250.822 61 250.629 61Z" fill="#263238"/>
<path opacity="0.1" d="M255.001 123.661L260.207 28.3387C260.219 28.1505 260.399 28 260.603 28H260.639C260.849 28 261.011 28.1505 260.999 28.3387L255.793 123.661C255.781 123.849 255.601 124 255.397 124H255.361C255.157 124.005 254.989 123.849 255.001 123.661Z" fill="#263238"/>
<path d="M278.843 46.4759C278.346 49.2217 278.859 51.8706 280.127 54.0295L276.95 56C275.217 53.0281 274.612 49.4855 275.244 45.9913C276.543 38.8146 282.796 33.3069 290 33L289.979 36.6718C284.619 36.8926 279.843 40.9466 278.843 46.4759Z" fill="url(#paint19_linear_1361_16044)"/>
<path opacity="0.3" d="M304 42.5566L300.546 44C299.237 40.2806 296.056 37.4604 291.952 36.8942C291.298 36.8054 290.644 36.7721 290 36.7998L290.021 33.0137C290.896 32.9749 291.759 33.0193 292.612 33.1359C297.864 33.8631 302.214 37.4604 304 42.5566Z" fill="url(#paint20_linear_1361_16044)"/>
<path d="M304.755 49.801C303.272 58.0719 295.401 63.9664 287.316 62.8684C282.967 62.2784 279.183 59.7436 277 55.9468L280.193 53.9474C281.79 56.7116 284.564 58.7056 287.977 59.17C294.117 60.0058 300.009 55.5917 301.137 49.3094C301.508 47.2335 301.315 45.2177 300.664 43.4204L304.126 42C305.013 44.4638 305.228 47.157 304.755 49.801Z" fill="#FF6C0E"/>
<path d="M278.745 35C278.677 35 278.609 34.9743 278.557 34.9177L276.232 32.5146H268.262C268.115 32.5146 268 32.4014 268 32.2573C268 32.1132 268.115 32 268.262 32H276.342C276.415 32 276.483 32.0309 276.53 32.0823L278.929 34.5626C279.028 34.6655 279.023 34.8302 278.918 34.928C278.871 34.9794 278.808 35 278.745 35Z" fill="#FF6C0E"/>
<path opacity="0.3" d="M294.625 77.4598C292.405 75.988 289.837 75.5103 287.379 75.9324L287 72.189C290.377 71.6225 293.78 72.339 296.601 74.2107C302.406 78.0596 304.6 86.0241 301.773 93L298.526 91.6393C300.637 86.4518 299.096 80.4256 294.625 77.4598Z" fill="url(#paint21_linear_1361_16044)"/>
<path d="M287 101.998L287.252 98.2937C291.223 98.3588 295.221 96.3849 297.596 92.7787C297.974 92.2039 298.303 91.6074 298.567 91L302 92.3286C301.638 93.1529 301.21 93.9392 300.717 94.693C297.673 99.3024 292.435 102.095 287 101.998Z" fill="#FF6C0E"/>
<path d="M279.519 99.9132C272.79 95.7868 270.968 86.7424 275.477 79.8843C277.903 76.1931 281.813 73.6659 286.152 73L286.539 76.5339C283.381 77.0268 280.388 78.8304 278.486 81.7299C275.063 86.9416 276.43 93.7105 281.538 96.846C283.228 97.8789 285.109 98.3927 287 98.4189L286.756 102C284.166 101.953 281.67 101.234 279.519 99.9132Z" fill="url(#paint22_linear_1361_16044)"/>
<path d="M276.745 75C276.677 75 276.609 74.9743 276.557 74.9177L274.232 72.5146H266.262C266.115 72.5146 266 72.4014 266 72.2573C266 72.1132 266.115 72 266.262 72H274.342C274.415 72 274.483 72.0309 274.53 72.0823L276.929 74.5626C277.028 74.6655 277.023 74.8302 276.918 74.928C276.876 74.9743 276.808 75 276.745 75Z" fill="#FF6C0E"/>
<path d="M269.837 115H267.403C266.731 115 266.155 115.678 266.122 116.504L266.002 119.496C265.968 120.322 266.491 121 267.163 121H269.597C270.269 121 270.85 120.322 270.878 119.496L270.998 116.504C271.032 115.678 270.509 115 269.837 115Z" fill="url(#paint23_linear_1361_16044)"/>
<path d="M284.836 115H282.403C281.731 115 281.15 115.678 281.122 116.504L281.002 119.496C280.968 120.322 281.491 121 282.163 121H284.597C285.268 121 285.849 120.322 285.878 119.496L285.998 116.504C286.036 115.678 285.513 115 284.836 115Z" fill="#FF6C0E"/>
<path opacity="0.3" d="M300.604 115H297.684C296.877 115 296.186 115.678 296.146 116.504L296.002 119.496C295.962 120.322 296.589 121 297.396 121H300.316C301.123 121 301.82 120.322 301.854 119.496L301.998 116.504C302.038 115.678 301.411 115 300.604 115Z" fill="url(#paint24_linear_1361_16044)"/>
<path d="M185.114 82.1513L185.078 82.8834H182.312C182.355 82.6067 182.458 82.3449 182.62 82.098C182.782 81.8493 183.094 81.5202 183.556 81.1107C183.928 80.7797 184.157 80.5553 184.243 80.4375C184.36 80.2748 184.422 80.114 184.429 79.955C184.438 79.7792 184.397 79.6446 184.306 79.5511C184.217 79.4557 184.089 79.408 183.923 79.408C183.758 79.408 183.624 79.4576 183.522 79.5567C183.42 79.6558 183.356 79.8204 183.33 80.0504L182.547 79.9718C182.615 79.538 182.777 79.2266 183.034 79.0378C183.29 78.8489 183.604 78.7545 183.974 78.7545C184.381 78.7545 184.694 78.8639 184.916 79.0827C185.137 79.3014 185.24 79.5735 185.224 79.8989C185.215 80.084 185.173 80.2607 185.097 80.429C185.023 80.5955 184.91 80.7703 184.757 80.9536C184.655 81.0751 184.475 81.25 184.214 81.4781C183.954 81.7063 183.789 81.8577 183.718 81.9325C183.648 82.0073 183.592 82.0803 183.547 82.1513H185.114Z" fill="#263238"/>
<path d="M185.677 81.8259L186.468 81.7446C186.482 81.9222 186.541 82.0634 186.646 82.1681C186.752 82.271 186.877 82.3224 187.021 82.3224C187.186 82.3224 187.328 82.256 187.449 82.1233C187.57 81.9886 187.637 81.7867 187.65 81.5174C187.662 81.2649 187.614 81.0761 187.506 80.9508C187.4 80.8236 187.256 80.76 187.075 80.76C186.848 80.76 186.64 80.8601 186.451 81.0602L185.815 80.9676L186.324 78.8274H188.411L188.375 79.5651H186.886L186.728 80.2636C186.909 80.1757 187.091 80.1317 187.274 80.1317C187.624 80.1317 187.915 80.2589 188.146 80.5132C188.377 80.7675 188.482 81.0976 188.462 81.5034C188.446 81.8418 188.333 82.1438 188.123 82.4094C187.838 82.7721 187.457 82.9535 186.982 82.9535C186.601 82.9535 186.297 82.8516 186.067 82.6478C185.837 82.444 185.707 82.17 185.677 81.8259Z" fill="#263238"/>
<path d="M188.984 82.8834L189.023 82.0952H189.812L189.774 82.8834H188.984Z" fill="#263238"/>
<path d="M190.48 81.8259L191.27 81.7446C191.284 81.9222 191.343 82.0634 191.449 82.1681C191.554 82.271 191.679 82.3224 191.823 82.3224C191.988 82.3224 192.131 82.256 192.251 82.1233C192.372 81.9886 192.439 81.7867 192.452 81.5174C192.465 81.2649 192.417 81.0761 192.309 80.9508C192.203 80.8236 192.059 80.76 191.877 80.76C191.651 80.76 191.443 80.8601 191.253 81.0602L190.617 80.9676L191.126 78.8274H193.213L193.177 79.5651H191.688L191.531 80.2636C191.711 80.1757 191.893 80.1317 192.076 80.1317C192.427 80.1317 192.717 80.2589 192.948 80.5132C193.179 80.7675 193.284 81.0976 193.265 81.5034C193.248 81.8418 193.135 82.1438 192.925 82.4094C192.64 82.7721 192.259 82.9535 191.784 82.9535C191.404 82.9535 191.099 82.8516 190.869 82.6478C190.64 82.444 190.51 82.17 190.48 81.8259Z" fill="#263238"/>
<path d="M195.166 82.8834L195.206 82.0559H193.521L193.555 81.3659L195.469 78.7545H196.132L196.004 81.3631H196.515L196.481 82.0559H195.97L195.93 82.8834H195.166ZM195.24 81.3631L195.309 79.9578L194.294 81.3631H195.24Z" fill="#263238"/>
<path d="M196.977 79.7867C196.995 79.4183 197.089 79.1453 197.259 78.9676C197.43 78.79 197.655 78.7012 197.932 78.7012C198.218 78.7012 198.437 78.79 198.59 78.9676C198.744 79.1434 198.812 79.4164 198.794 79.7867C198.776 80.1551 198.681 80.4281 198.51 80.6058C198.34 80.7834 198.116 80.8722 197.839 80.8722C197.553 80.8722 197.333 80.7843 197.178 80.6086C197.026 80.4309 196.959 80.157 196.977 79.7867ZM197.592 79.7811C197.579 80.0485 197.601 80.228 197.659 80.3197C197.702 80.387 197.765 80.4206 197.847 80.4206C197.932 80.4206 197.999 80.387 198.049 80.3197C198.113 80.228 198.152 80.0485 198.165 79.7811C198.178 79.5137 198.157 79.3351 198.102 79.2453C198.058 79.1762 197.994 79.1416 197.91 79.1416C197.828 79.1416 197.761 79.1752 197.711 79.2425C197.645 79.3342 197.605 79.5137 197.592 79.7811ZM198.32 83.0405H197.736L200.142 78.7012H200.709L198.32 83.0405ZM199.648 81.9606C199.666 81.5922 199.76 81.3192 199.93 81.1415C200.101 80.9639 200.327 80.875 200.608 80.875C200.891 80.875 201.108 80.9639 201.261 81.1415C201.415 81.3192 201.483 81.5922 201.465 81.9606C201.447 82.3308 201.352 82.6048 201.18 82.7824C201.011 82.9601 200.787 83.0489 200.51 83.0489C200.224 83.0489 200.004 82.9601 199.849 82.7824C199.697 82.6048 199.63 82.3308 199.648 81.9606ZM200.263 81.9578C200.25 82.2252 200.272 82.4038 200.33 82.4935C200.373 82.5627 200.436 82.5973 200.518 82.5973C200.603 82.5973 200.669 82.5636 200.717 82.4963C200.783 82.4047 200.823 82.2252 200.836 81.9578C200.849 81.6904 200.828 81.5108 200.773 81.4192C200.729 81.3519 200.665 81.3182 200.581 81.3182C200.497 81.3182 200.43 81.3519 200.382 81.4192C200.316 81.5108 200.276 81.6904 200.263 81.9578Z" fill="#263238"/>
<path d="M205.275 91C205.253 91 205.231 91 205.209 90.9948C205.062 90.9634 204.974 90.8224 205.007 90.6813C206.856 83.2518 210.779 75.6499 215.375 75.4043C218.46 75.2423 220.222 77.7032 222.268 80.5506C223.74 82.6039 225.409 84.9289 227.854 86.6792C229.54 87.8861 231.263 88.1996 232.964 87.6144C236.767 86.303 240.405 80.3991 242.462 72.2016C242.495 72.0605 242.643 71.9717 242.791 72.0082C242.938 72.0396 243.026 72.1807 242.993 72.3217C240.865 80.8171 237.183 86.7158 233.145 88.1055C231.257 88.7586 229.364 88.419 227.521 87.0972C225.004 85.2946 223.308 82.9279 221.809 80.8432C219.774 78.0114 218.176 75.7805 215.397 75.9215C211.08 76.1514 207.332 83.56 205.527 90.8015C205.51 90.9164 205.395 91 205.275 91Z" fill="url(#paint25_linear_1361_16044)"/>
<path opacity="0.1" d="M244.618 95H180.066C178.931 95 177.881 94.5575 177.114 93.7619C176.341 92.9612 175.947 91.9022 176.006 90.7801L176.928 72.1988C177.039 69.886 179.038 68 181.382 68H245.934C247.069 68 248.119 68.4425 248.886 69.238C249.659 70.0388 250.053 71.0978 249.994 72.2199L249.072 90.8012C248.955 93.1192 246.957 95 244.618 95ZM181.377 68.5268C179.315 68.5268 177.556 70.1863 177.455 72.2199L176.533 90.8012C176.485 91.7811 176.826 92.703 177.498 93.3932C178.164 94.0886 179.075 94.4679 180.066 94.4679H244.618C246.68 94.4679 248.438 92.8084 248.54 90.7748L249.461 72.1936C249.509 71.2137 249.168 70.297 248.497 69.6016C247.831 68.9061 246.92 68.5268 245.929 68.5268H181.377Z" fill="#263238"/>
<path opacity="0.1" d="M193.722 73H183.186C182.858 73 182.551 72.895 182.325 72.7024C182.098 72.5098 181.985 72.256 182.002 71.9891C182.034 71.442 182.61 71 183.278 71H193.814C194.142 71 194.449 71.105 194.675 71.2976C194.902 71.4902 195.015 71.744 194.998 72.0109C194.966 72.5536 194.39 73 193.722 73ZM183.278 71.4333C182.895 71.4333 182.556 71.6958 182.54 72.0066C182.529 72.1554 182.594 72.291 182.718 72.3961C182.841 72.5011 183.008 72.558 183.186 72.558H193.722C194.105 72.558 194.444 72.2954 194.46 71.9847C194.471 71.8359 194.406 71.7002 194.282 71.5952C194.159 71.4902 193.992 71.4333 193.814 71.4333H183.278Z" fill="#263238"/>
<path d="M185 89H182.141L182 92H184.859L185 89Z" fill="url(#paint26_linear_1361_16044)"/>
<path opacity="0.3" d="M187.67 124H181.853C180.782 124 179.952 123.189 180.002 122.196L180.288 116.804C180.339 115.811 181.259 115 182.33 115H188.147C189.218 115 190.048 115.811 189.998 116.804L189.712 122.196C189.656 123.189 188.741 124 187.67 124Z" fill="url(#paint27_linear_1361_16044)"/>
<path opacity="0.1" d="M208.381 121H194.489C194.073 121 193.688 120.845 193.407 120.554C193.127 120.269 192.981 119.888 193.002 119.487C193.044 118.666 193.771 118 194.619 118H208.511C208.927 118 209.312 118.155 209.593 118.446C209.873 118.731 210.019 119.112 209.998 119.513C209.956 120.334 209.229 121 208.381 121ZM194.614 118.506C194.037 118.506 193.543 118.957 193.517 119.518C193.501 119.778 193.6 120.028 193.782 120.214C193.964 120.399 194.219 120.504 194.489 120.504H208.381C208.958 120.504 209.452 120.053 209.478 119.498C209.494 119.232 209.4 118.987 209.213 118.801C209.031 118.616 208.776 118.511 208.506 118.511H194.614V118.506Z" fill="#263238"/>
<path d="M184.195 119C184.144 119 184.093 118.984 184.054 118.948C183.979 118.882 183.983 118.777 184.062 118.715L184.904 118.046C184.943 118.016 184.99 118 185.045 118C185.096 118 185.148 118.02 185.183 118.052L185.946 118.721C186.021 118.787 186.017 118.892 185.938 118.954C185.86 119.016 185.734 119.013 185.659 118.948L185.03 118.397L184.329 118.954C184.294 118.984 184.243 119 184.195 119Z" fill="url(#paint28_linear_1361_16044)"/>
<path d="M182.355 107.123L182.413 105.948C182.051 105.843 181.789 105.685 181.627 105.474C181.467 105.261 181.395 105.003 181.409 104.7C181.424 104.393 181.533 104.136 181.736 103.929C181.941 103.719 182.206 103.599 182.529 103.567L182.543 103.289H182.95L182.937 103.567C183.232 103.602 183.464 103.704 183.632 103.873C183.8 104.039 183.901 104.262 183.936 104.543L183.221 104.635C183.189 104.415 183.084 104.265 182.906 104.187L182.852 105.283C183.296 105.405 183.594 105.563 183.748 105.757C183.901 105.95 183.97 106.198 183.956 106.501C183.939 106.839 183.822 107.124 183.605 107.356C183.389 107.588 183.098 107.73 182.73 107.783L182.704 108.307H182.297L182.322 107.797C182 107.757 181.743 107.637 181.551 107.435C181.358 107.233 181.243 106.948 181.205 106.579L181.942 106.501C181.965 106.65 182.014 106.779 182.091 106.888C182.169 106.996 182.256 107.075 182.355 107.123ZM182.499 104.178C182.387 104.216 182.296 104.279 182.226 104.369C182.156 104.459 182.119 104.558 182.113 104.666C182.108 104.765 182.134 104.858 182.189 104.944C182.245 105.028 182.333 105.096 182.452 105.149L182.499 104.178ZM182.76 107.163C182.902 107.137 183.02 107.072 183.113 106.969C183.206 106.864 183.256 106.742 183.263 106.602C183.269 106.476 183.236 106.369 183.166 106.279C183.097 106.188 182.98 106.117 182.814 106.069L182.76 107.163Z" fill="#263238"/>
<path d="M184.423 106.641L185.192 106.548C185.207 106.743 185.265 106.892 185.366 106.994C185.468 107.097 185.595 107.149 185.746 107.149C185.909 107.149 186.049 107.087 186.166 106.964C186.284 106.84 186.348 106.674 186.358 106.464C186.368 106.266 186.322 106.109 186.221 105.993C186.12 105.877 185.993 105.819 185.84 105.819C185.739 105.819 185.617 105.839 185.474 105.878L185.593 105.236C185.806 105.241 185.971 105.196 186.088 105.098C186.206 104.999 186.268 104.868 186.276 104.706C186.283 104.567 186.247 104.457 186.169 104.375C186.09 104.292 185.983 104.251 185.846 104.251C185.711 104.251 185.594 104.298 185.494 104.391C185.394 104.485 185.329 104.621 185.3 104.801L184.578 104.678C184.641 104.429 184.727 104.231 184.835 104.083C184.945 103.933 185.093 103.816 185.279 103.732C185.467 103.646 185.674 103.603 185.9 103.603C186.288 103.603 186.593 103.727 186.815 103.973C186.998 104.175 187.083 104.404 187.07 104.658C187.053 105.019 186.841 105.307 186.435 105.522C186.669 105.572 186.852 105.685 186.983 105.861C187.117 106.037 187.178 106.249 187.166 106.498C187.148 106.859 187.001 107.166 186.724 107.421C186.448 107.675 186.113 107.802 185.72 107.802C185.347 107.802 185.044 107.696 184.809 107.483C184.574 107.267 184.446 106.987 184.423 106.641Z" fill="#263238"/>
<path d="M190.3 107L190.265 107.732H187.498C187.542 107.455 187.645 107.194 187.806 106.947C187.968 106.698 188.28 106.369 188.742 105.959C189.114 105.628 189.343 105.404 189.429 105.286C189.546 105.124 189.608 104.963 189.616 104.804C189.625 104.628 189.583 104.493 189.493 104.4C189.404 104.304 189.276 104.257 189.109 104.257C188.944 104.257 188.811 104.306 188.709 104.405C188.607 104.505 188.542 104.669 188.516 104.899L187.734 104.821C187.802 104.387 187.964 104.075 188.22 103.887C188.477 103.698 188.79 103.603 189.161 103.603C189.567 103.603 189.881 103.713 190.102 103.931C190.324 104.15 190.427 104.422 190.411 104.748C190.402 104.933 190.359 105.11 190.284 105.278C190.21 105.444 190.097 105.619 189.943 105.802C189.842 105.924 189.661 106.099 189.401 106.327C189.141 106.555 188.975 106.706 188.904 106.781C188.835 106.856 188.778 106.929 188.733 107H190.3Z" fill="#263238"/>
<path d="M190.826 106.641L191.595 106.548C191.61 106.743 191.668 106.892 191.769 106.994C191.871 107.097 191.998 107.149 192.149 107.149C192.312 107.149 192.452 107.087 192.569 106.964C192.687 106.84 192.751 106.674 192.761 106.464C192.771 106.266 192.726 106.109 192.624 105.993C192.523 105.877 192.396 105.819 192.243 105.819C192.142 105.819 192.02 105.839 191.877 105.878L191.996 105.236C192.209 105.241 192.374 105.196 192.491 105.098C192.609 104.999 192.671 104.868 192.679 104.706C192.686 104.567 192.65 104.457 192.572 104.375C192.493 104.292 192.386 104.251 192.249 104.251C192.114 104.251 191.997 104.298 191.897 104.391C191.797 104.485 191.732 104.621 191.703 104.801L190.981 104.678C191.044 104.429 191.13 104.231 191.238 104.083C191.348 103.933 191.496 103.816 191.682 103.732C191.87 103.646 192.077 103.603 192.303 103.603C192.691 103.603 192.996 103.727 193.218 103.973C193.401 104.175 193.486 104.404 193.473 104.658C193.456 105.019 193.244 105.307 192.839 105.522C193.072 105.572 193.255 105.685 193.386 105.861C193.52 106.037 193.581 106.249 193.569 106.498C193.551 106.859 193.404 107.166 193.127 107.421C192.851 107.675 192.516 107.802 192.123 107.802C191.751 107.802 191.447 107.696 191.212 107.483C190.977 107.267 190.849 106.987 190.826 106.641Z" fill="#263238"/>
<path d="M194.19 106.944H194.979L194.951 107.508C194.94 107.736 194.912 107.915 194.866 108.046C194.82 108.179 194.74 108.298 194.624 108.403C194.51 108.507 194.368 108.59 194.196 108.649L194.058 108.324C194.219 108.272 194.336 108.2 194.408 108.108C194.48 108.016 194.522 107.891 194.533 107.732H194.151L194.19 106.944Z" fill="#263238"/>
<path d="M197.139 103.603C197.538 103.603 197.843 103.745 198.054 104.03C198.305 104.366 198.411 104.924 198.373 105.704C198.335 106.482 198.173 107.041 197.887 107.382C197.65 107.662 197.333 107.802 196.934 107.802C196.533 107.802 196.218 107.649 195.987 107.342C195.757 107.034 195.662 106.485 195.7 105.696C195.738 104.922 195.9 104.364 196.186 104.024C196.423 103.743 196.741 103.603 197.139 103.603ZM197.107 104.257C197.012 104.257 196.925 104.288 196.847 104.349C196.769 104.409 196.706 104.518 196.657 104.675C196.593 104.879 196.549 105.222 196.525 105.704C196.502 106.187 196.51 106.519 196.55 106.7C196.59 106.879 196.645 106.999 196.715 107.059C196.787 107.119 196.87 107.149 196.966 107.149C197.061 107.149 197.148 107.119 197.226 107.059C197.304 106.997 197.367 106.888 197.416 106.731C197.48 106.529 197.524 106.187 197.548 105.704C197.571 105.222 197.563 104.891 197.523 104.711C197.483 104.53 197.428 104.409 197.356 104.349C197.286 104.288 197.203 104.257 197.107 104.257Z" fill="#263238"/>
<path d="M198.968 104.408L199.003 103.676H201.702L201.674 104.248C201.441 104.467 201.199 104.781 200.948 105.191C200.698 105.6 200.501 106.036 200.356 106.498C200.214 106.958 200.135 107.369 200.119 107.732H199.358C199.399 107.164 199.544 106.584 199.794 105.993C200.046 105.402 200.369 104.874 200.762 104.408H198.968Z" fill="#263238"/>
<path d="M202.792 105.513C202.592 105.427 202.449 105.31 202.363 105.16C202.278 105.009 202.24 104.843 202.249 104.664C202.264 104.357 202.383 104.103 202.607 103.903C202.832 103.703 203.142 103.603 203.537 103.603C203.928 103.603 204.226 103.703 204.432 103.903C204.639 104.103 204.736 104.357 204.721 104.664C204.711 104.854 204.653 105.024 204.547 105.174C204.44 105.322 204.295 105.435 204.112 105.513C204.336 105.605 204.502 105.739 204.612 105.915C204.723 106.09 204.773 106.293 204.761 106.523C204.743 106.903 204.606 107.211 204.351 107.449C204.098 107.686 203.77 107.805 203.368 107.805C202.993 107.805 202.686 107.707 202.447 107.511C202.164 107.279 202.033 106.961 202.053 106.557C202.063 106.334 202.129 106.131 202.248 105.945C202.368 105.758 202.549 105.614 202.792 105.513ZM202.993 104.72C202.986 104.877 203.024 104.999 203.107 105.087C203.193 105.175 203.31 105.219 203.458 105.219C203.607 105.219 203.729 105.175 203.824 105.087C203.918 104.997 203.969 104.874 203.977 104.717C203.984 104.569 203.945 104.451 203.859 104.363C203.775 104.274 203.661 104.229 203.515 104.229C203.363 104.229 203.24 104.274 203.146 104.363C203.051 104.453 203.001 104.572 202.993 104.72ZM202.834 106.481C202.824 106.698 202.871 106.867 202.975 106.989C203.081 107.11 203.218 107.171 203.385 107.171C203.547 107.171 203.685 107.113 203.797 106.997C203.91 106.879 203.972 106.71 203.982 106.49C203.992 106.297 203.945 106.143 203.842 106.027C203.739 105.909 203.605 105.85 203.438 105.85C203.245 105.85 203.098 105.916 202.996 106.049C202.896 106.182 202.842 106.326 202.834 106.481Z" fill="#263238"/>
<path d="M205.376 107.732L205.415 106.944H206.204L206.165 107.732H205.376Z" fill="#263238"/>
<path d="M208.345 103.603C208.743 103.603 209.048 103.745 209.259 104.03C209.51 104.366 209.617 104.924 209.579 105.704C209.541 106.482 209.378 107.041 209.092 107.382C208.856 107.662 208.538 107.802 208.139 107.802C207.738 107.802 207.423 107.649 207.193 107.342C206.963 107.034 206.867 106.485 206.905 105.696C206.943 104.922 207.105 104.364 207.392 104.024C207.628 103.743 207.946 103.603 208.345 103.603ZM208.313 104.257C208.217 104.257 208.131 104.288 208.053 104.349C207.975 104.409 207.911 104.518 207.863 104.675C207.798 104.879 207.754 105.222 207.731 105.704C207.707 106.187 207.715 106.519 207.755 106.7C207.795 106.879 207.85 106.999 207.92 107.059C207.992 107.119 208.076 107.149 208.171 107.149C208.267 107.149 208.353 107.119 208.431 107.059C208.509 106.997 208.572 106.888 208.621 106.731C208.685 106.529 208.729 106.187 208.753 105.704C208.777 105.222 208.768 104.891 208.729 104.711C208.689 104.53 208.633 104.409 208.561 104.349C208.491 104.288 208.408 104.257 208.313 104.257Z" fill="#263238"/>
<path d="M211.546 103.603C211.945 103.603 212.25 103.745 212.461 104.03C212.712 104.366 212.818 104.924 212.78 105.704C212.742 106.482 212.58 107.041 212.294 107.382C212.057 107.662 211.739 107.802 211.341 107.802C210.94 107.802 210.625 107.649 210.394 107.342C210.164 107.034 210.068 106.485 210.107 105.696C210.145 104.922 210.307 104.364 210.593 104.024C210.83 103.743 211.147 103.603 211.546 103.603ZM211.514 104.257C211.419 104.257 211.332 104.288 211.254 104.349C211.176 104.409 211.113 104.518 211.064 104.675C211 104.879 210.956 105.222 210.932 105.704C210.909 106.187 210.917 106.519 210.956 106.7C210.996 106.879 211.051 106.999 211.121 107.059C211.193 107.119 211.277 107.149 211.373 107.149C211.468 107.149 211.555 107.119 211.633 107.059C211.71 106.997 211.774 106.888 211.823 106.731C211.887 106.529 211.931 106.187 211.954 105.704C211.978 105.222 211.97 104.891 211.93 104.711C211.89 104.53 211.834 104.409 211.762 104.349C211.692 104.288 211.61 104.257 211.514 104.257Z" fill="#263238"/>
<path opacity="0.4" d="M224.147 115H218.33C217.259 115 216.344 115.811 216.288 116.804L216.002 122.196C215.952 123.189 216.782 124 217.853 124H223.67C224.741 124 225.656 123.189 225.712 122.196L225.998 116.804C226.048 115.811 225.218 115 224.147 115Z" fill="#263238"/>
<path opacity="0.1" d="M245.286 121H230.577C230.136 121 229.729 120.845 229.432 120.554C229.129 120.269 228.98 119.888 229.002 119.487C229.046 118.666 229.817 118 230.714 118H245.424C245.864 118 246.271 118.155 246.569 118.446C246.866 118.731 247.02 119.112 246.998 119.513C246.959 120.334 246.189 121 245.286 121ZM230.709 118.506C230.098 118.506 229.575 118.957 229.547 119.518C229.531 119.778 229.635 120.028 229.828 120.214C230.021 120.399 230.29 120.504 230.577 120.504H245.286C245.897 120.504 246.42 120.053 246.447 119.498C246.464 119.232 246.359 118.987 246.167 118.801C245.974 118.616 245.704 118.511 245.418 118.511H230.709V118.506Z" fill="#263238"/>
<path d="M220.957 121H220.953C220.902 121 220.851 120.961 220.815 120.895L220.054 119.556C219.979 119.424 219.983 119.214 220.061 119.09C220.14 118.965 220.266 118.971 220.34 119.103L220.969 120.206L221.668 119.09C221.746 118.965 221.872 118.971 221.946 119.103C222.021 119.234 222.017 119.444 221.939 119.569L221.098 120.908C221.055 120.967 221.004 121 220.957 121Z" fill="white"/>
<path d="M127.831 70.2637H166.028C168.454 70.2637 170.595 68.2792 170.794 65.8579L172.707 42.3706C172.906 39.9451 171.083 37.9648 168.657 37.9648H130.46C128.035 37.9648 125.893 39.9493 125.694 42.3706L123.782 65.8579C123.586 68.2792 125.41 70.2637 127.831 70.2637Z" fill="white"/>
<path d="M127.831 70.4451H166.028C168.552 70.4451 170.773 68.3927 170.977 65.8697L172.889 42.3824C172.991 41.1569 172.601 39.9993 171.795 39.1258C170.994 38.2565 169.879 37.7773 168.658 37.7773H130.46C127.937 37.7773 125.715 39.8297 125.512 42.3527L123.599 65.84C123.498 67.0655 123.888 68.2231 124.693 69.0966C125.499 69.9659 126.61 70.4451 127.831 70.4451ZM168.658 38.1463C169.777 38.1463 170.795 38.583 171.524 39.376C172.258 40.1731 172.614 41.2332 172.52 42.3527L170.608 65.84C170.417 68.1765 168.361 70.0804 166.024 70.0804H127.827C126.708 70.0804 125.69 69.6436 124.961 68.8507C124.227 68.0535 123.871 66.9934 123.964 65.874L125.877 42.3866C126.067 40.0502 128.124 38.1463 130.46 38.1463H168.658Z" fill="#407BFF"/>
<path d="M138.199 63.4058C139.696 65.0383 141.634 66.2087 143.814 66.8066L144.445 64.9959C139.743 63.7111 136.558 59.3266 136.982 54.1152C137.237 51.0028 138.725 48.1872 140.93 46.1475L139.713 44.8203C134.201 49.9172 133.518 58.3047 138.199 63.4058Z" fill="#E0E0E0"/>
<path d="M139.713 44.8209L140.93 46.1482C143.135 44.1086 146.052 42.8492 149.164 42.8492C152.277 42.8492 154.991 44.1128 156.856 46.1524L158.294 44.8209C156.03 42.3573 152.798 40.9707 149.317 40.9707C145.832 40.9707 142.376 42.3573 139.713 44.8209Z" fill="#FF6C0E"/>
<path d="M143.813 66.8066C148.244 68.0193 153.197 66.7175 156.785 63.4058C162.293 58.3089 162.975 49.9215 158.298 44.8203L156.861 46.1518C158.735 48.1914 159.766 51.0028 159.511 54.1152C159.006 60.3315 153.553 65.3733 147.333 65.3733C146.328 65.3733 145.357 65.2419 144.449 64.9959L143.813 66.8066Z" fill="#407BFF"/>
<path d="M179.859 0H182.921V0.368909H179.859V0Z" fill="#407BFF"/>
<path d="M185.894 0H192.865V0.368909H185.894V0Z" fill="#407BFF"/>
<path d="M153.464 33.7519H191.657C194.083 33.7519 196.224 31.7674 196.423 29.3462L198.336 5.85886C198.535 3.43337 196.712 1.45312 194.286 1.45312H156.089C153.664 1.45312 151.522 3.43761 151.323 5.85886L149.41 29.3462C149.215 31.7717 151.039 33.7519 153.464 33.7519Z" fill="white"/>
<path d="M153.464 33.9392H191.656C194.179 33.9392 196.401 31.8869 196.605 29.3639L198.517 5.87651C198.619 4.65105 198.229 3.49343 197.423 2.61992C196.622 1.75065 195.507 1.27148 194.285 1.27148H156.088C153.565 1.27148 151.343 3.32382 151.14 5.84683L149.227 29.3342C149.126 30.5596 149.516 31.7173 150.321 32.5908C151.127 33.46 152.242 33.9392 153.464 33.9392ZM194.285 1.63616C195.405 1.63616 196.423 2.07291 197.152 2.86586C197.886 3.66304 198.242 4.7189 198.148 5.84259L196.236 29.3299C196.045 31.6664 193.989 33.5703 191.652 33.5703H153.455C152.336 33.5703 151.318 33.1335 150.589 32.3406C149.855 31.5434 149.499 30.4833 149.592 29.3639L151.504 5.87651C151.695 3.54008 153.752 1.63616 156.088 1.63616H194.285Z" fill="#407BFF"/>
<path d="M194.88 8.19252H174.64L174.806 6.19531H195.045L194.88 8.19252Z" fill="#E0E0E0"/>
<path d="M154.401 8.19252H174.64L174.806 6.19531H154.562L154.401 8.19252Z" fill="#407BFF"/>
<path d="M194.456 13.3999H188.685L188.846 11.3984H194.621L194.456 13.3999Z" fill="#E0E0E0"/>
<path d="M153.977 13.3999H188.685L188.846 11.3984H154.138L153.977 13.3999Z" fill="#407BFF"/>
<path d="M194.031 18.6069H176.018L176.179 16.6055H194.196L194.031 18.6069Z" fill="#E0E0E0"/>
<path d="M153.553 18.6069H176.019L176.18 16.6055H153.714L153.553 18.6069Z" fill="#407BFF"/>
<path d="M193.611 23.8097H162.86L163.026 21.8125H193.772L193.611 23.8097Z" fill="#E0E0E0"/>
<path d="M153.129 23.8097H162.861L163.026 21.8125H153.291L153.129 23.8097Z" fill="#407BFF"/>
<path d="M193.188 29.0171H178.965L179.126 27.0156H193.349L193.188 29.0171Z" fill="#E0E0E0"/>
<path d="M152.704 29.0171H178.965L179.126 27.0156H152.87L152.704 29.0171Z" fill="#407BFF"/>
<path d="M101.248 33.7519H139.445C141.871 33.7519 144.012 31.7674 144.211 29.3462L146.124 5.85886C146.323 3.43337 144.5 1.45312 142.074 1.45312H103.877C101.452 1.45312 99.3102 3.43761 99.1109 5.85886L97.1985 29.3462C97.0035 31.7717 98.8226 33.7519 101.248 33.7519Z" fill="white"/>
<path d="M101.248 33.9392H139.445C141.969 33.9392 144.19 31.8869 144.394 29.3639L146.306 5.87651C146.408 4.65105 146.018 3.49343 145.212 2.61992C144.411 1.75065 143.296 1.27148 142.075 1.27148H103.877C101.354 1.27148 99.1324 3.32382 98.9289 5.84683L97.0165 29.3342C96.9147 30.5596 97.3048 31.7173 98.1105 32.5908C98.9119 33.46 100.027 33.9392 101.248 33.9392ZM142.075 1.63616C143.194 1.63616 144.212 2.07291 144.941 2.86586C145.675 3.66304 146.031 4.72314 145.937 5.84259L144.025 29.3299C143.834 31.6664 141.778 33.5703 139.441 33.5703H101.244C100.125 33.5703 99.107 33.1335 98.3776 32.3406C97.644 31.5434 97.2878 30.4876 97.3811 29.3639L99.2935 5.87651C99.4843 3.54008 101.541 1.63616 103.877 1.63616H142.075Z" fill="#407BFF"/>
<path d="M120.394 29.0169H121.069L122.926 6.19531H122.252L120.394 29.0169Z" fill="#E0E0E0"/>
<path d="M119.376 19.5304H123.629L124.354 10.6172H120.101L119.376 19.5304Z" fill="#407BFF"/>
<path d="M128.765 29.0169H129.439L131.301 6.19531H130.627L128.765 29.0169Z" fill="#E0E0E0"/>
<path d="M127.586 21.5122H131.843L132.479 13.6973H128.222L127.586 21.5122Z" fill="#407BFF"/>
<path d="M137.139 29.0169H137.814L139.671 6.19531H138.997L137.139 29.0169Z" fill="#E0E0E0"/>
<path d="M136.482 15.0831H140.735L141.172 9.71484H136.919L136.482 15.0831Z" fill="#FF6C0E"/>
<path d="M112.023 29.0169H112.697L114.555 6.19531H113.88L112.023 29.0169Z" fill="#E0E0E0"/>
<path d="M110.595 24.5934H114.848L115.984 10.6172H111.731L110.595 24.5934Z" fill="#FF6C0E"/>
<path d="M103.649 29.0169H104.323L106.185 6.19531H105.51L103.649 29.0169Z" fill="#E0E0E0"/>
<path d="M102.084 26.2688H106.337L107.249 15.0742H102.996L102.084 26.2688Z" fill="#407BFF"/>
<path d="M142.121 106.469H180.318C182.744 106.469 184.885 104.484 185.084 102.063L186.997 78.5756C187.196 76.1502 185.373 74.1699 182.947 74.1699H144.75C142.325 74.1699 140.183 76.1544 139.984 78.5756L138.072 102.063C137.876 104.484 139.696 106.469 142.121 106.469Z" fill="white"/>
<path d="M142.121 106.65H180.319C182.842 106.65 185.063 104.598 185.267 102.075L187.179 78.5874C187.281 77.362 186.891 76.2044 186.085 75.3309C185.284 74.4616 184.169 73.9824 182.948 73.9824H144.75C142.227 73.9824 140.005 76.0348 139.802 78.5578L137.89 102.045C137.788 103.271 138.178 104.428 138.984 105.302C139.785 106.175 140.9 106.65 142.121 106.65ZM182.948 74.3513C184.067 74.3513 185.085 74.7881 185.814 75.581C186.548 76.3782 186.904 77.4383 186.811 78.5578L184.898 102.045C184.707 104.382 182.651 106.285 180.314 106.285H142.117C140.998 106.285 139.98 105.849 139.251 105.056C138.517 104.259 138.161 103.203 138.254 102.079L140.167 78.5917C140.357 76.2553 142.414 74.3513 144.75 74.3513H182.948Z" fill="#407BFF"/>
<path d="M177.778 89.7573L169.547 99.2684L160.104 84.707L154.269 92.2337L152.845 90.0372L143.299 101.473L179.953 101.461L177.778 89.7573Z" fill="#407BFF"/>
<path d="M150.296 90.3501L154.121 98.5425L166.325 79.1641L172.071 91.4696L173.915 88.548L179.949 101.473L143.304 101.456L150.296 90.3501Z" fill="#FD9142"/>
<path d="M85.8349 42.2366C84.813 44.1532 83.9352 46.0487 83.1084 48.0204C82.3027 49.9964 81.5564 52.0021 80.9755 54.1181C80.8271 54.6439 80.6999 55.1866 80.5769 55.7294C80.526 55.916 80.4073 56.5054 80.4073 56.8785C80.3861 57.2941 80.42 57.6715 80.4709 58.0277C80.6999 59.4355 81.196 60.5168 81.7303 61.5387C82.8285 63.5614 84.1515 65.2363 85.695 66.8179C86.1572 67.2929 86.9162 67.3013 87.3911 66.8391C87.777 66.4618 87.8576 65.8851 87.6201 65.4313L87.5904 65.372C86.683 63.6165 85.7798 61.7634 85.1734 60.0079C84.8808 59.1387 84.6476 58.2482 84.6519 57.5909C84.6561 57.434 84.6604 57.2899 84.6858 57.1881C84.6943 57.1372 84.707 57.0906 84.7197 57.0651L84.796 56.8149C84.936 56.357 85.0844 55.9033 85.254 55.4411C85.8943 53.6007 86.6915 51.752 87.5141 49.9159C88.3367 48.0883 89.2187 46.2268 90.0923 44.4585L90.1092 44.4246C90.6986 43.2331 90.211 41.7913 89.0194 41.2019C87.8576 40.6337 86.4455 41.0959 85.8349 42.2366Z" fill="#FEE8D0"/>
<path d="M87.1619 65.1981L89.1846 65.8341L86.8015 68.6243C86.8015 68.6243 85.8813 67.8144 85.5506 66.644C85.4403 66.2497 85.6015 65.8256 85.9365 65.5839L86.2757 65.338C86.5301 65.1556 86.8609 65.1048 87.1619 65.1981Z" fill="#FEE8D0"/>
<path d="M91.9746 67.5552L89.4219 69.5821L86.8014 68.6238L89.1844 65.8379L91.9746 67.5552Z" fill="#FEE8D0"/>
<path d="M100.689 28.0524C100.74 28.3026 100.914 28.4807 101.079 28.4467C101.244 28.4128 101.333 28.1838 101.283 27.9337C101.232 27.6835 101.058 27.5054 100.892 27.5393C100.731 27.5732 100.638 27.8022 100.689 28.0524Z" fill="#FEE8D0"/>
<path d="M100.892 28.4863C100.892 28.4863 101.757 29.8178 102.524 30.3902C102.164 30.8949 101.371 30.8567 101.371 30.8567L100.892 28.4863Z" fill="#FEE8D0"/>
<path d="M99.4891 26.8485C99.4509 26.8485 99.417 26.8357 99.3873 26.8103C99.3279 26.7552 99.3237 26.6576 99.3788 26.5983C99.9428 25.9877 100.63 26.0979 100.659 26.1021C100.74 26.1149 100.795 26.1954 100.782 26.276C100.77 26.3566 100.689 26.4117 100.608 26.399C100.587 26.3947 100.049 26.3184 99.5993 26.806C99.5696 26.8315 99.5272 26.8485 99.4891 26.8485Z" fill="#FEE8D0"/>
<path d="M93.7218 32.6191C94.1756 34.9429 94.4512 38.157 92.8271 39.709C92.8271 39.709 93.4632 42.0624 97.7756 42.0624C102.521 42.0624 100.057 39.9974 100.057 39.9974C98.0852 39.3868 98.1021 37.1394 98.5516 35.333L93.7218 32.6191Z" fill="#FEE8D0"/>
<path d="M100.893 39.634C100.893 39.634 100.201 37.993 99.4933 37.7131C98.7851 37.429 94.2861 36.6912 93.2514 37.3442C92.2168 37.9973 91.5129 40.092 91.5129 40.092L100.893 39.634Z" fill="url(#paint29_linear_1361_16044)"/>
<path d="M96.1346 148.212C96.5416 148.212 96.936 148.157 97.0674 147.975C97.1141 147.911 97.148 147.801 97.0632 147.648C97.0123 147.559 96.9318 147.5 96.8258 147.474C96.2957 147.33 95.189 147.962 95.1423 147.992C95.1169 148.009 95.0999 148.038 95.1042 148.068C95.1084 148.098 95.1338 148.123 95.1635 148.132C95.3628 148.161 95.7572 148.212 96.1346 148.212ZM96.6392 147.597C96.6901 147.597 96.7409 147.602 96.7833 147.614C96.8512 147.631 96.9021 147.67 96.9318 147.72C96.9869 147.814 96.9657 147.86 96.9445 147.886C96.7961 148.089 95.9946 148.094 95.4052 148.013C95.7021 147.86 96.266 147.597 96.6392 147.597Z" fill="#407BFF"/>
<path d="M95.1769 148.123C95.1853 148.123 95.1981 148.118 95.2065 148.114C95.5882 147.94 96.3472 147.258 96.2921 146.897C96.2794 146.812 96.22 146.706 96.0122 146.685C95.8596 146.668 95.7196 146.715 95.5967 146.812C95.1938 147.143 95.109 148 95.1048 148.033C95.1005 148.059 95.1133 148.084 95.1345 148.101C95.1472 148.118 95.1599 148.123 95.1769 148.123ZM95.9529 146.838C95.9656 146.838 95.9825 146.838 95.9995 146.842C96.1352 146.855 96.1437 146.91 96.1479 146.927C96.1818 147.143 95.6687 147.682 95.2744 147.915C95.3168 147.665 95.427 147.152 95.6942 146.935C95.7705 146.867 95.8553 146.838 95.9529 146.838Z" fill="#407BFF"/>
<path d="M91.687 148.046H94.8587L95.1768 140.697H92.005L91.687 148.046Z" fill="#FEE8D0"/>
<path d="M94.8415 147.682H91.3772C91.2457 147.682 91.1355 147.771 91.1058 147.898L90.4782 150.718C90.4146 151.01 90.6351 151.286 90.9362 151.282C92.1871 151.26 93.9935 151.188 95.5666 151.188C97.4027 151.188 97.6275 151.29 99.7816 151.29C101.083 151.29 101.448 149.971 100.901 149.853C98.4162 149.31 97.7547 149.251 95.6091 147.928C95.3716 147.783 95.1129 147.682 94.8415 147.682Z" fill="#263238"/>
<path d="M87.1456 39.7179C84.1689 40.4006 82.2099 48.4276 82.2099 48.4276L87.1753 52.1591C87.1753 52.1591 89.8849 50.4799 90.8602 46.6805C91.8821 42.7031 90.186 39.0224 87.1456 39.7179Z" fill="#FF6C0E"/>
<path opacity="0.2" d="M89.6936 45.3027C88.078 46.9013 87.0349 49.4244 86.9077 51.9559L87.1706 52.1594C87.1706 52.1594 89.8844 50.4802 90.8597 46.6809C90.9191 46.4434 90.97 46.2059 91.0166 45.9727L89.6936 45.3027Z" fill="black"/>
<path d="M76.4498 51.6645L100.548 61.2949L93.3864 79.2149L69.2883 69.5845L76.4498 51.6645Z" fill="#407BFF"/>
<path opacity="0.5" d="M76.8012 51.8061L100.545 61.2949L93.3835 79.2149L69.6398 69.7261L76.8012 51.8061Z" fill="white"/>
<g opacity="0.5">
<path d="M96.196 61.3925L98.4443 62.291L97.807 63.8857L95.5587 62.9872L96.196 61.3925Z" fill="#407BFF"/>
<path d="M92.486 59.9101L94.7344 60.8086L94.0971 62.4033L91.8487 61.5048L92.486 59.9101Z" fill="#407BFF"/>
<path d="M88.7741 58.4296L91.0225 59.3281L90.3852 60.9229L88.1368 60.0243L88.7741 58.4296Z" fill="#407BFF"/>
<path d="M85.0602 56.9452L87.3086 57.8438L86.6713 59.4385L84.4229 58.54L85.0602 56.9452Z" fill="#407BFF"/>
<path d="M81.3503 55.4609L83.5986 56.3594L82.9613 57.9541L80.713 57.0556L81.3503 55.4609Z" fill="#407BFF"/>
<path d="M77.6393 53.9804L79.8877 54.8789L79.2504 56.4736L77.002 55.5751L77.6393 53.9804Z" fill="#407BFF"/>
<path d="M95.1432 64.0253L97.3916 64.9238L96.7543 66.5186L94.5059 65.62L95.1432 64.0253Z" fill="#407BFF"/>
<path d="M91.4333 62.5429L93.6816 63.4414L93.0443 65.0361L90.796 64.1376L91.4333 62.5429Z" fill="#407BFF"/>
<path d="M87.7233 61.0585L89.9717 61.957L89.3344 63.5518L87.086 62.6532L87.7233 61.0585Z" fill="#407BFF"/>
<path d="M84.0085 59.5741L86.2568 60.4727L85.6195 62.0674L83.3712 61.1689L84.0085 59.5741Z" fill="#407BFF"/>
<path d="M80.2975 58.0937L82.5459 58.9922L81.9086 60.5869L79.6602 59.6884L80.2975 58.0937Z" fill="#407BFF"/>
<path d="M76.5876 56.6112L78.8359 57.5098L78.1986 59.1045L75.9503 58.206L76.5876 56.6112Z" fill="#407BFF"/>
<path d="M94.0925 66.6562L96.3408 67.5547L95.7035 69.1494L93.4551 68.2509L94.0925 66.6562Z" fill="#407BFF"/>
<path d="M90.3825 65.1698L92.6309 66.0684L91.9936 67.6631L89.7452 66.7646L90.3825 65.1698Z" fill="#407BFF"/>
<path d="M86.6706 63.6913L88.9189 64.5898L88.2816 66.1846L86.0333 65.286L86.6706 63.6913Z" fill="#407BFF"/>
<path d="M82.9567 62.2069L85.2051 63.1055L84.5678 64.7002L82.3194 63.8017L82.9567 62.2069Z" fill="#407BFF"/>
<path d="M79.2468 60.7265L81.4951 61.625L80.8578 63.2197L78.6094 62.3212L79.2468 60.7265Z" fill="#407BFF"/>
<path d="M75.5368 59.2421L77.7852 60.1406L77.1479 61.7353L74.8995 60.8368L75.5368 59.2421Z" fill="#407BFF"/>
<path d="M93.0397 69.289L95.2881 70.1875L94.6508 71.7822L92.4024 70.8837L93.0397 69.289Z" fill="#407BFF"/>
<path d="M89.3298 67.8046L91.5781 68.7031L90.9408 70.2979L88.6925 69.3993L89.3298 67.8046Z" fill="#407BFF"/>
<path d="M85.6198 66.3202L87.8682 67.2188L87.2309 68.8135L84.9825 67.915L85.6198 66.3202Z" fill="#407BFF"/>
<path d="M81.9059 64.8359L84.1543 65.7344L83.517 67.3291L81.2686 66.4306L81.9059 64.8359Z" fill="#407BFF"/>
<path d="M78.195 63.3515L80.4434 64.25L79.8061 65.8447L77.5577 64.9462L78.195 63.3515Z" fill="#407BFF"/>
<path d="M74.4841 61.873L76.7324 62.7715L76.0951 64.3662L73.8468 63.4677L74.4841 61.873Z" fill="#407BFF"/>
<path d="M91.9889 71.9159L94.2373 72.8145L93.6 74.4092L91.3516 73.5107L91.9889 71.9159Z" fill="#407BFF"/>
<path d="M88.279 70.4335L90.5273 71.332L89.89 72.9268L87.6417 72.0282L88.279 70.4335Z" fill="#407BFF"/>
<path d="M84.569 68.9511L86.8174 69.8496L86.1801 71.4443L83.9317 70.5458L84.569 68.9511Z" fill="#407BFF"/>
<path d="M80.8571 67.4726L83.1055 68.3711L82.4682 69.9658L80.2198 69.0673L80.8571 67.4726Z" fill="#407BFF"/>
<path d="M77.1432 65.9882L79.3916 66.8867L78.7543 68.4814L76.5059 67.5829L77.1432 65.9882Z" fill="#407BFF"/>
<path d="M73.4333 64.5019L75.6816 65.4004L75.0443 66.9951L72.796 66.0966L73.4333 64.5019Z" fill="#407BFF"/>
<path d="M90.9362 74.5507L93.1846 75.4492L92.5473 77.0439L90.2989 76.1454L90.9362 74.5507Z" fill="#407BFF"/>
<path d="M87.2262 73.0663L89.4746 73.9648L88.8373 75.5596L86.5889 74.661L87.2262 73.0663Z" fill="#407BFF"/>
<path d="M83.5163 71.5839L85.7646 72.4824L85.1273 74.0771L82.879 73.1786L83.5163 71.5839Z" fill="#407BFF"/>
<path d="M79.8063 70.0995L82.0547 70.998L81.4174 72.5928L79.169 71.6943L79.8063 70.0995Z" fill="#407BFF"/>
<path d="M76.0925 68.6132L78.3408 69.5117L77.7035 71.1064L75.4551 70.2079L76.0925 68.6132Z" fill="#407BFF"/>
<path d="M72.3815 67.1308L74.6299 68.0293L73.9926 69.624L71.7442 68.7255L72.3815 67.1308Z" fill="#407BFF"/>
</g>
<path d="M78.4438 57.3484C78.5795 57.005 78.4141 56.6106 78.0707 56.4749C77.7272 56.335 77.3329 56.5046 77.1972 56.8481C77.0572 57.1915 77.2268 57.5859 77.5703 57.7216C77.9138 57.8615 78.3081 57.6919 78.4438 57.3484Z" fill="white"/>
<path d="M78.9997 66.7236C79.1396 66.3802 78.97 65.9858 78.6265 65.8501C78.2831 65.7144 77.8887 65.8798 77.753 66.2233C77.6131 66.5667 77.7827 66.9611 78.1262 67.0968C78.4739 67.2367 78.864 67.0713 78.9997 66.7236Z" fill="white"/>
<path d="M87.4763 67.0594C87.6162 66.7159 87.4466 66.3215 87.1031 66.1859C86.7596 66.0459 86.3653 66.2155 86.2296 66.559C86.0897 66.9025 86.2593 67.2968 86.6027 67.4325C86.9462 67.5725 87.3406 67.4071 87.4763 67.0594Z" fill="white"/>
<path d="M92.7975 75.2898C92.9375 74.9464 92.7679 74.552 92.4244 74.4163C92.0809 74.2764 91.6866 74.446 91.5509 74.7895C91.4109 75.1329 91.5806 75.5273 91.924 75.663C92.2675 75.8029 92.6576 75.6333 92.7975 75.2898Z" fill="white"/>
<path d="M92.1702 75.2891C92.2169 75.2891 92.2635 75.2764 92.3059 75.251C92.4204 75.1746 92.4543 75.022 92.378 74.9075L87.0563 66.6769C87.0139 66.6091 86.9376 66.5667 86.857 66.5625L78.6095 66.236L78.0668 57.0853C78.0583 56.9496 77.9353 56.8436 77.8039 56.852C77.6682 56.8605 77.5622 56.9792 77.5707 57.1149L78.1261 66.4904C78.1346 66.6176 78.2364 66.7194 78.3636 66.7236L86.7086 67.0543L91.9582 75.1746C92.0091 75.2467 92.0896 75.2891 92.1702 75.2891Z" fill="white"/>
<path d="M105.943 42.9018C106.592 46.3322 106.999 53.3712 105.116 67.3178H88.1418C88.4471 64.9008 89.6641 52.0016 87.1495 39.7215C87.1495 39.7215 90.0584 39.1363 92.8316 39.0049C95.0027 38.8989 98.1405 38.831 100.049 39.0049C100.846 39.077 101.626 39.1915 102.322 39.3144C104.153 39.6367 105.595 41.0699 105.943 42.9018Z" fill="#FF6C0E"/>
<path opacity="0.2" d="M103.271 48.1816L106.46 48.4361C106.575 52.5619 106.29 58.5832 105.112 67.3141H104.959C103.047 61.0257 100.511 52.0361 103.271 48.1816Z" fill="black"/>
<path opacity="0.2" d="M95.1768 140.703L95.0156 144.49H91.8396L92.0007 140.703H95.1768Z" fill="black"/>
<path d="M92.2122 29.2237C93.0264 32.2683 93.3487 34.0874 95.2271 35.3553C98.0512 37.2592 101.566 35.0754 101.677 31.8485C101.774 28.9439 100.426 24.4576 97.1607 23.8427C93.9465 23.2406 91.3981 26.1792 92.2122 29.2237Z" fill="#FEE8D0"/>
<path d="M99.3358 29.2443L100.985 29.6726L99.4503 25.6909C99.6157 25.3856 100.052 24.0032 99.5903 22.6208C99.4673 22.2562 99.1323 22.0102 98.7507 22.0017C95.3329 21.9339 91.7583 23.8548 89.9604 25.305C89.6127 25.5849 89.5279 26.0767 89.7611 26.4584C90.1555 27.1029 90.6643 27.599 91.3089 28.252C91.3428 29.3673 93.1619 34.4006 94.1711 34.9688C95.1803 35.5327 97.1054 35.3038 97.6143 34.3836C98.1273 33.4677 99.8574 32.2465 99.3358 29.2443Z" fill="#263238"/>
<path d="M97.8094 29.3077C97.996 30.1133 98.5006 30.813 99.0391 31.237C99.8491 31.8731 100.481 31.2879 100.447 30.3508C100.417 29.507 99.9593 28.1628 99.0561 27.8871C98.1656 27.6158 97.5974 28.3875 97.8094 29.3077Z" fill="#FEE8D0"/>
<path d="M68.7888 147.113C68.7931 146.706 68.7379 146.312 68.5556 146.18C68.492 146.134 68.3818 146.096 68.2291 146.185C68.1401 146.236 68.0807 146.312 68.051 146.422C67.9026 146.948 68.5302 148.063 68.5556 148.11C68.5726 148.135 68.6023 148.152 68.6319 148.148C68.6616 148.144 68.6871 148.118 68.6955 148.089C68.7337 147.885 68.7846 147.495 68.7888 147.113ZM68.174 146.609C68.174 146.558 68.1782 146.507 68.1909 146.464C68.2121 146.397 68.2461 146.346 68.297 146.316C68.3902 146.265 68.4369 146.282 68.4623 146.303C68.6659 146.452 68.6659 147.253 68.5768 147.843C68.4326 147.55 68.174 146.978 68.174 146.609Z" fill="#407BFF"/>
<path d="M68.6953 148.072C68.6953 148.063 68.6953 148.051 68.6868 148.042C68.5172 147.656 67.8345 146.893 67.4783 146.952C67.3935 146.965 67.2875 147.025 67.2663 147.232C67.2493 147.385 67.2918 147.525 67.3935 147.648C67.7243 148.055 68.5766 148.144 68.6147 148.148C68.6402 148.153 68.6656 148.14 68.6826 148.119C68.6911 148.106 68.6953 148.089 68.6953 148.072ZM67.4105 147.292C67.4105 147.279 67.4105 147.262 67.4147 147.245C67.4274 147.109 67.4826 147.101 67.4995 147.101C67.7158 147.067 68.2501 147.589 68.4833 147.979C68.2331 147.936 67.7243 147.822 67.508 147.555C67.4444 147.474 67.4105 147.385 67.4105 147.292Z" fill="#407BFF"/>
<path d="M68.6442 148.093L71.7439 148.314L73.4824 140.906L70.387 140.686L68.6442 148.093Z" fill="#FEE8D0"/>
<path d="M68.6568 147.385L72.1085 147.079C72.2357 147.067 72.3586 147.147 72.3968 147.27L73.2703 150.026C73.3594 150.311 73.1643 150.607 72.8632 150.629C71.6166 150.718 69.8102 150.802 68.2455 150.942C66.4137 151.104 67.601 151.099 65.4553 151.29C64.1578 151.405 63.6829 150.124 64.2129 149.959C66.6384 149.2 67.0794 148.674 67.9147 147.699C68.0971 147.491 68.3812 147.406 68.6568 147.385Z" fill="#263238"/>
<path opacity="0.2" d="M73.4824 140.906L72.5835 144.726L69.488 144.506L70.3827 140.689L73.4824 140.906Z" fill="black"/>
<path d="M99.0908 67.3148C99.0908 67.3148 91.7889 91.6926 89.02 100.742C85.9881 110.651 74.4459 143.527 74.4459 143.527L68.8486 142.297C68.8486 142.297 76.7526 114.052 80.0346 100.228C82.5534 89.6106 88.138 67.3105 88.138 67.3105H99.0908V67.3148Z" fill="#FEE8D0"/>
<path d="M75.4289 141.8C75.4543 141.804 74.8776 143.988 74.8776 143.988L68.1482 143.267L68.1779 141.266L75.4289 141.8Z" fill="#263238"/>
<path opacity="0.3" d="M95.0495 78.6149C91.0084 79.1492 89.4013 93.2272 88.795 101.487C88.8713 101.225 88.9519 100.979 89.0239 100.741C90.5378 95.8011 93.4 86.2773 95.6855 78.6573C95.4947 78.598 95.2785 78.581 95.0495 78.6149Z" fill="black"/>
<path d="M105.111 67.3145C105.111 67.3145 102.665 91.0562 101.609 100.724C100.511 110.778 96.3932 143.755 96.3932 143.755H91.0164C91.0164 143.755 91.6694 111.38 91.8857 101.492C92.1231 90.7127 93.9549 67.3145 93.9549 67.3145H105.111Z" fill="#FEE8D0"/>
<path d="M97.2291 141.613C97.2545 141.613 96.9238 143.844 96.9238 143.844H90.3851L90.207 141.851L97.2291 141.613Z" fill="#263238"/>
<path d="M128.073 89.6523C125.27 94.0962 119.393 95.4277 114.949 92.6248C110.506 89.8219 109.174 83.949 111.977 79.5009C114.78 75.0527 120.653 73.7213 125.101 76.5241C129.545 79.3313 130.876 85.2084 128.073 89.6523ZM113.249 80.3065C110.891 84.0465 112.011 88.995 115.751 91.3527C119.495 93.7103 124.439 92.5909 126.797 88.8509C129.155 85.1066 128.035 80.1624 124.291 77.8047C120.555 75.4429 115.611 76.5665 113.249 80.3065Z" fill="#263238"/>
<path opacity="0.2" d="M112.867 86.201C113.762 90.153 117.692 92.6336 121.649 91.7347C125.601 90.84 128.081 86.9092 127.187 82.9529C126.292 79.0009 122.361 76.5203 118.405 77.415C114.449 78.3182 111.972 82.249 112.867 86.201Z" fill="#407BFF"/>
<path d="M111.718 78.3521L110.827 79.7684C110.692 79.9847 110.755 80.2688 110.972 80.4045C111.188 80.5402 111.472 80.4766 111.608 80.2603L112.498 78.844C112.634 78.6278 112.57 78.3437 112.354 78.208C112.133 78.0723 111.849 78.1359 111.718 78.3521Z" fill="#263238"/>
<path d="M105.947 74.3283C106.978 75.0322 108 75.7488 109.013 76.4866C110.022 77.2245 111.023 77.975 111.998 78.7722C112.214 78.9503 112.295 79.2598 112.168 79.527C112.019 79.845 111.642 79.9807 111.328 79.8323C110.188 79.298 109.081 78.7213 107.978 78.1276C106.876 77.534 105.79 76.9191 104.709 76.2916C103.789 75.7573 102.877 75.2103 101.974 74.659C101.711 74.4979 101.635 74.1544 101.796 73.8958L102.53 72.7297C102.691 72.471 103.038 72.3947 103.293 72.5601C104.183 73.1452 105.069 73.7304 105.947 74.3283Z" fill="#263238"/>
<path d="M101.219 44.09C101.736 46.6343 102.296 49.1742 102.872 51.7015L104.632 59.2748C105.2 61.7427 105.688 64.2445 106.133 66.7844L107.469 74.4171L107.473 74.4341C107.588 75.0871 108.207 75.5196 108.86 75.4051C109.428 75.3076 109.831 74.8199 109.852 74.2687C109.945 71.6185 109.903 68.9979 109.754 66.3604C109.598 63.7314 109.352 61.0769 108.919 58.4394C108.508 55.8443 108.041 53.2789 107.545 50.7177C107.049 48.1566 106.511 45.6039 105.925 43.0681C105.624 41.7748 104.335 40.9649 103.042 41.266C101.761 41.5586 100.96 42.8179 101.219 44.09Z" fill="#FEE8D0"/>
<path d="M107.83 73.7291C108.046 73.5002 108.368 73.4069 108.67 73.479L109.361 73.6443C109.713 73.7291 109.98 74.0217 110.026 74.3822L110.226 75.9129C110.281 76.3497 110.188 76.7949 109.963 77.1766L109.017 78.7412C108.767 79.072 108.352 79.2289 107.944 79.1398L106.956 78.9321C106.337 78.8006 105.968 78.1646 106.163 77.5624L106.422 76.7652C106.422 76.761 106.439 75.2005 107.83 73.7291Z" fill="#FEE8D0"/>
<path d="M97.9158 42.618C96.3723 46.7099 101.711 52.5489 101.711 52.5489L108.466 50.3142C108.466 50.3142 107.948 44.7297 105.604 41.5791C102.703 37.6907 99.0904 39.5013 97.9158 42.618Z" fill="#FF6C0E"/>
<defs>
<linearGradient id="paint0_linear_1361_16044" x1="82.2163" y1="148.4" x2="82.2163" y2="153" gradientUnits="userSpaceOnUse">
<stop stop-color="#0A257C"/>
<stop offset="1" stop-color="#0D36C1"/>
</linearGradient>
<linearGradient id="paint1_linear_1361_16044" x1="38.8109" y1="75" x2="38.8109" y2="101.484" gradientUnits="userSpaceOnUse">
<stop stop-color="#0A257C"/>
<stop offset="1" stop-color="#0D36C1"/>
</linearGradient>
<linearGradient id="paint2_linear_1361_16044" x1="29.7396" y1="80.1543" x2="29.7396" y2="107.568" gradientUnits="userSpaceOnUse">
<stop stop-color="#0A257C"/>
<stop offset="1" stop-color="#0D36C1"/>
</linearGradient>
<linearGradient id="paint3_linear_1361_16044" x1="40.1998" y1="86.0039" x2="40.1998" y2="112.74" gradientUnits="userSpaceOnUse">
<stop stop-color="#0A257C"/>
<stop offset="1" stop-color="#0D36C1"/>
</linearGradient>
<linearGradient id="paint4_linear_1361_16044" x1="25.7508" y1="92.2832" x2="25.7508" y2="124.628" gradientUnits="userSpaceOnUse">
<stop stop-color="#0A257C"/>
<stop offset="1" stop-color="#0D36C1"/>
</linearGradient>
<linearGradient id="paint5_linear_1361_16044" x1="23.2605" y1="100.73" x2="23.2605" y2="128.625" gradientUnits="userSpaceOnUse">
<stop stop-color="#0A257C"/>
<stop offset="1" stop-color="#0D36C1"/>
</linearGradient>
<linearGradient id="paint6_linear_1361_16044" x1="37.5843" y1="110.262" x2="37.5843" y2="134.954" gradientUnits="userSpaceOnUse">
<stop stop-color="#0A257C"/>
<stop offset="1" stop-color="#0D36C1"/>
</linearGradient>
<linearGradient id="paint7_linear_1361_16044" x1="25.4962" y1="116.592" x2="25.4962" y2="130.927" gradientUnits="userSpaceOnUse">
<stop stop-color="#0A257C"/>
<stop offset="1" stop-color="#0D36C1"/>
</linearGradient>
<linearGradient id="paint8_linear_1361_16044" x1="42.1482" y1="93.3594" x2="42.1482" y2="128.386" gradientUnits="userSpaceOnUse">
<stop stop-color="#0A257C"/>
<stop offset="1" stop-color="#0D36C1"/>
</linearGradient>
<linearGradient id="paint9_linear_1361_16044" x1="30.453" y1="128.547" x2="30.453" y2="150.39" gradientUnits="userSpaceOnUse">
<stop stop-color="#0A257C"/>
<stop offset="1" stop-color="#0D36C1"/>
</linearGradient>
<linearGradient id="paint10_linear_1361_16044" x1="240.5" y1="13" x2="240.5" y2="133" gradientUnits="userSpaceOnUse">
<stop stop-color="#0A257C"/>
<stop offset="1" stop-color="#0D36C1"/>
</linearGradient>
<linearGradient id="paint11_linear_1361_16044" x1="318.5" y1="12" x2="318.5" y2="14" gradientUnits="userSpaceOnUse">
<stop stop-color="#0A257C"/>
<stop offset="1" stop-color="#0D36C1"/>
</linearGradient>
<linearGradient id="paint12_linear_1361_16044" x1="308.5" y1="11" x2="308.5" y2="12" gradientUnits="userSpaceOnUse">
<stop stop-color="#0A257C"/>
<stop offset="1" stop-color="#0D36C1"/>
</linearGradient>
<linearGradient id="paint13_linear_1361_16044" x1="243.5" y1="13" x2="243.5" y2="19" gradientUnits="userSpaceOnUse">
<stop stop-color="#0A257C"/>
<stop offset="1" stop-color="#0D36C1"/>
</linearGradient>
<linearGradient id="paint14_linear_1361_16044" x1="182.5" y1="44" x2="182.5" y2="57" gradientUnits="userSpaceOnUse">
<stop stop-color="#0A257C"/>
<stop offset="1" stop-color="#0D36C1"/>
</linearGradient>
<linearGradient id="paint15_linear_1361_16044" x1="195.5" y1="42" x2="195.5" y2="57" gradientUnits="userSpaceOnUse">
<stop stop-color="#0A257C"/>
<stop offset="1" stop-color="#0D36C1"/>
</linearGradient>
<linearGradient id="paint16_linear_1361_16044" x1="208.5" y1="41" x2="208.5" y2="57" gradientUnits="userSpaceOnUse">
<stop stop-color="#0A257C"/>
<stop offset="1" stop-color="#0D36C1"/>
</linearGradient>
<linearGradient id="paint17_linear_1361_16044" x1="221" y1="39" x2="221" y2="57" gradientUnits="userSpaceOnUse">
<stop stop-color="#0A257C"/>
<stop offset="1" stop-color="#0D36C1"/>
</linearGradient>
<linearGradient id="paint18_linear_1361_16044" x1="247" y1="38" x2="247" y2="57" gradientUnits="userSpaceOnUse">
<stop stop-color="#0A257C"/>
<stop offset="1" stop-color="#0D36C1"/>
</linearGradient>
<linearGradient id="paint19_linear_1361_16044" x1="282.5" y1="33" x2="282.5" y2="56" gradientUnits="userSpaceOnUse">
<stop stop-color="#0A257C"/>
<stop offset="1" stop-color="#0D36C1"/>
</linearGradient>
<linearGradient id="paint20_linear_1361_16044" x1="297" y1="33" x2="297" y2="44" gradientUnits="userSpaceOnUse">
<stop stop-color="#0A257C"/>
<stop offset="1" stop-color="#0D36C1"/>
</linearGradient>
<linearGradient id="paint21_linear_1361_16044" x1="295" y1="72" x2="295" y2="93" gradientUnits="userSpaceOnUse">
<stop stop-color="#0A257C"/>
<stop offset="1" stop-color="#0D36C1"/>
</linearGradient>
<linearGradient id="paint22_linear_1361_16044" x1="280" y1="73" x2="280" y2="102" gradientUnits="userSpaceOnUse">
<stop stop-color="#0A257C"/>
<stop offset="1" stop-color="#0D36C1"/>
</linearGradient>
<linearGradient id="paint23_linear_1361_16044" x1="268.5" y1="115" x2="268.5" y2="121" gradientUnits="userSpaceOnUse">
<stop stop-color="#0A257C"/>
<stop offset="1" stop-color="#0D36C1"/>
</linearGradient>
<linearGradient id="paint24_linear_1361_16044" x1="299" y1="115" x2="299" y2="121" gradientUnits="userSpaceOnUse">
<stop stop-color="#0A257C"/>
<stop offset="1" stop-color="#0D36C1"/>
</linearGradient>
<linearGradient id="paint25_linear_1361_16044" x1="224" y1="72" x2="224" y2="91" gradientUnits="userSpaceOnUse">
<stop stop-color="#0A257C"/>
<stop offset="1" stop-color="#0D36C1"/>
</linearGradient>
<linearGradient id="paint26_linear_1361_16044" x1="183.5" y1="89" x2="183.5" y2="92" gradientUnits="userSpaceOnUse">
<stop stop-color="#0A257C"/>
<stop offset="1" stop-color="#0D36C1"/>
</linearGradient>
<linearGradient id="paint27_linear_1361_16044" x1="185" y1="115" x2="185" y2="124" gradientUnits="userSpaceOnUse">
<stop stop-color="#0A257C"/>
<stop offset="1" stop-color="#0D36C1"/>
</linearGradient>
<linearGradient id="paint28_linear_1361_16044" x1="185" y1="118" x2="185" y2="119" gradientUnits="userSpaceOnUse">
<stop stop-color="#0A257C"/>
<stop offset="1" stop-color="#0D36C1"/>
</linearGradient>
<linearGradient id="paint29_linear_1361_16044" x1="96.2027" y1="37.082" x2="96.2027" y2="40.092" gradientUnits="userSpaceOnUse">
<stop stop-color="#CC5000"/>
<stop offset="1" stop-color="#FC7513"/>
</linearGradient>
</defs>
</svg>
