<svg width="16" height="16" viewBox="0 0 16 16" fill="none" xmlns="http://www.w3.org/2000/svg">
<circle cx="8" cy="8" r="7.5" fill="white" stroke="#FD9142"/>
<path d="M6.99453 10.2033H8.63281V9.85176C8.63281 9.1627 8.89297 8.79004 9.81406 8.25566C10.7703 7.68613 11.3047 6.93379 11.3047 5.86504V5.85801C11.3047 4.3041 10.0109 3.2002 8.09141 3.2002C6.00313 3.2002 4.88516 4.40957 4.80781 5.98457L4.80078 6.06191H6.45312L6.46016 5.99863C6.52344 5.19707 7.09297 4.63457 8 4.63457C8.87891 4.63457 9.47656 5.16895 9.47656 5.92129V5.92832C9.47656 6.61738 9.18125 6.99707 8.30938 7.52441C7.33906 8.09395 6.94531 8.73379 6.99453 9.71113V10.2033ZM7.83828 13.508C8.40781 13.508 8.85781 13.0721 8.85781 12.5166C8.85781 11.9541 8.40781 11.5252 7.83828 11.5252C7.26875 11.5252 6.81172 11.9541 6.81172 12.5166C6.81172 13.0721 7.26875 13.508 7.83828 13.508Z" fill="#FD9142"/>
</svg>
