<svg width="23" height="25" viewBox="0 0 23 25" fill="none" xmlns="http://www.w3.org/2000/svg">
<path d="M14.3918 3.57947C15.7098 3.9418 16.9111 4.64367 17.8772 5.61581C18.8433 6.58796 19.5408 7.79679 19.9009 9.12302C19.9487 9.30922 20.0563 9.47428 20.2071 9.59248C20.3578 9.71068 20.5432 9.77538 20.7343 9.77648C20.8112 9.77634 20.8877 9.76534 20.9616 9.74381C21.0717 9.71483 21.1749 9.66404 21.2652 9.59441C21.3555 9.52478 21.4311 9.43771 21.4876 9.33831C21.544 9.23891 21.5802 9.12917 21.5939 9.01553C21.6077 8.90188 21.5988 8.78662 21.5677 8.67648C21.1348 7.05228 20.2848 5.57129 19.1032 4.38222C17.9215 3.19314 16.4497 2.33786 14.8356 1.90224C14.7226 1.86084 14.6024 1.84355 14.4824 1.85148C14.3625 1.85942 14.2455 1.89239 14.1389 1.94832C14.0323 2.00424 13.9385 2.08188 13.8633 2.1763C13.7882 2.27072 13.7334 2.37985 13.7025 2.49674C13.6716 2.61362 13.6652 2.73571 13.6837 2.85523C13.7022 2.97474 13.7453 3.08906 13.8101 3.19091C13.875 3.29276 13.9602 3.37991 14.0603 3.4468C14.1605 3.5137 14.2734 3.55888 14.3918 3.57947Z" fill="#FF6C0E" stroke="#FF6C0E"/>
<path d="M13.0449 7.48704C13.7514 7.68216 14.3953 8.05958 14.9133 8.58215C15.4312 9.10471 15.8053 9.75438 15.9987 10.4672C16.0431 10.6481 16.1465 10.8087 16.2922 10.9233C16.4379 11.0379 16.6176 11.0998 16.8023 11.099C16.8731 11.0997 16.9436 11.089 17.0111 11.0674C17.1182 11.0405 17.2188 10.9923 17.3071 10.9254C17.3953 10.8586 17.4694 10.7746 17.5248 10.6784C17.5803 10.5821 17.6161 10.4756 17.63 10.3652C17.644 10.2548 17.6358 10.1426 17.606 10.0354C17.3424 9.03451 16.8213 8.12166 16.0955 7.38935C15.3697 6.65704 14.4649 6.13129 13.4728 5.86534C13.3639 5.82531 13.2479 5.8086 13.1323 5.81627C13.0166 5.82394 12.9038 5.85582 12.801 5.90989C12.6982 5.96396 12.6077 6.03904 12.5353 6.13033C12.4628 6.22162 12.41 6.32714 12.3802 6.44016C12.3503 6.55317 12.3442 6.67122 12.362 6.78678C12.3799 6.90233 12.4214 7.01287 12.484 7.11135C12.5465 7.20982 12.6287 7.29409 12.7252 7.35877C12.8218 7.42345 12.9307 7.46714 13.0449 7.48704Z" fill="#FF6C0E" stroke="#FF6C0E"/>
<path d="M19.9296 16.9033C18.5086 15.6879 17.0664 14.9517 15.6629 16.1653L14.8248 16.8987C14.2116 17.4312 13.0714 19.9188 8.66337 14.848C4.25621 9.78357 6.87884 8.99504 7.49296 8.46721L8.33565 7.73283C9.73188 6.51653 9.20497 4.98536 8.19796 3.40921L7.59026 2.45452C6.57866 0.882047 5.4771 -0.150666 4.0772 1.0638L3.3208 1.72474C2.70209 2.17546 0.972641 3.64054 0.55313 6.42381C0.0482484 9.76338 1.64092 13.5876 5.28984 17.7836C8.93417 21.9815 12.5023 24.0901 15.8823 24.0534C18.6912 24.0231 20.3876 22.5158 20.9182 21.9677L21.6774 21.3059C23.0736 20.0923 22.2061 18.8568 20.7842 17.6386L19.9296 16.9033Z" fill="#FF6C0E"/>
</svg>
