<svg width="25" height="24" viewBox="0 0 25 24" fill="none" xmlns="http://www.w3.org/2000/svg">
<path d="M12.5 24C19.1274 24 24.5 18.6274 24.5 12C24.5 5.37258 19.1274 0 12.5 0C5.87258 0 0.5 5.37258 0.5 12C0.5 18.6274 5.87258 24 12.5 24Z" fill="#E8EFFF"/>
<path d="M16.4258 14.7266C15.5574 14.7266 14.7922 15.1537 14.3115 15.8034L10.156 13.6755C10.225 13.4403 10.2734 13.1966 10.2734 12.9395C10.2734 12.5906 10.2019 12.259 10.0784 11.954L14.4274 9.33699C14.9113 9.905 15.6227 10.2734 16.4258 10.2734C17.8798 10.2734 19.0625 9.09069 19.0625 7.63672C19.0625 6.18274 17.8798 5 16.4258 5C14.9718 5 13.7891 6.18274 13.7891 7.63672C13.7891 7.97179 13.8581 8.28963 13.9725 8.58471L9.6106 11.2094C9.12702 10.6583 8.42589 10.3027 7.63672 10.3027C6.18274 10.3027 5 11.4855 5 12.9395C5 14.3934 6.18274 15.5762 7.63672 15.5762C8.51943 15.5762 9.29759 15.1365 9.77642 14.4686L13.9183 16.5895C13.842 16.8358 13.7891 17.0923 13.7891 17.3633C13.7891 18.8173 14.9718 20 16.4258 20C17.8798 20 19.0625 18.8173 19.0625 17.3633C19.0625 15.9093 17.8798 14.7266 16.4258 14.7266Z" fill="#064DD6"/>
</svg>
