<svg width="15" height="18" viewBox="0 0 15 18" fill="none" xmlns="http://www.w3.org/2000/svg">
<path d="M13.9045 4.26051L8.60137 1.19888C8.26833 1.00716 7.89078 0.90625 7.5065 0.90625C7.12222 0.90625 6.74468 1.00716 6.41164 1.19888L1.10853 4.26051C0.776153 4.45315 0.500123 4.72962 0.308003 5.0623C0.115882 5.39498 0.0143944 5.77224 0.0136719 6.15641V12.2813C0.0143944 12.6654 0.115882 13.0427 0.308003 13.3754C0.500123 13.7081 0.776153 13.9845 1.10853 14.1772L6.41164 17.2388C6.74476 17.4303 7.12227 17.5311 7.5065 17.5311C7.89074 17.5311 8.26825 17.4303 8.60137 17.2388L13.9045 14.1772C14.2369 13.9845 14.5129 13.7081 14.705 13.3754C14.8971 13.0427 14.9986 12.6654 14.9993 12.2813V6.15641C14.9986 5.77224 14.8971 5.39498 14.705 5.0623C14.5129 4.72962 14.2369 4.45315 13.9045 4.26051Z" fill="#064DD6"/>
<path d="M7.50649 12.2044C9.15561 12.2044 10.4925 10.8675 10.4925 9.21841C10.4925 7.56929 9.15561 6.23242 7.50649 6.23242C5.85738 6.23242 4.52051 7.56929 4.52051 9.21841C4.52051 10.8675 5.85738 12.2044 7.50649 12.2044Z" fill="#659FF2"/>
</svg>
