<svg width="18" height="20" viewBox="0 0 18 20" fill="none" xmlns="http://www.w3.org/2000/svg">
<path d="M13.8296 0.717845C13.578 0.595979 13.2969 0.547966 13.0191 0.579377C12.7413 0.610788 12.4781 0.720336 12.26 0.895308C12.1309 1.00735 11.9638 1.06575 11.7929 1.05854C11.4974 1.05854 11.3744 0.955578 11.109 0.701941C10.9158 0.481427 10.6776 0.304731 10.4106 0.183677C10.1435 0.0626222 9.85365 0 9.56042 0C9.2672 0 8.97736 0.0626222 8.71029 0.183677C8.44322 0.304731 8.20508 0.481427 8.01181 0.701941C7.74394 0.953067 7.6234 1.05854 7.32791 1.05854C7.03242 1.05854 6.90936 0.955578 6.64401 0.701941C6.45051 0.481789 6.2123 0.305424 5.94526 0.184606C5.67822 0.0637884 5.38849 0.00129576 5.09539 0.00129576C4.80229 0.00129576 4.51256 0.0637884 4.24552 0.184606C3.97849 0.305424 3.74027 0.481789 3.54678 0.701941C3.27807 0.953067 3.1567 1.05938 2.85953 1.05938C2.68599 1.06631 2.5164 1.00639 2.38574 0.89196C2.16861 0.717154 1.90636 0.607532 1.62942 0.575823C1.35248 0.544113 1.07223 0.591619 0.821219 0.712823C0.573785 0.831213 0.365164 1.01759 0.219746 1.25017C0.0743279 1.48275 -0.00187879 1.75192 3.51859e-05 2.02621V15.9738C-0.00187879 16.2481 0.0743279 16.5172 0.219746 16.7498C0.365164 16.9824 0.573785 17.1688 0.821219 17.2872C1.07238 17.4078 1.35251 17.455 1.62932 17.4233C1.90612 17.3916 2.16834 17.2823 2.38574 17.108C2.5164 16.9936 2.68599 16.9337 2.85953 16.9406C3.1567 16.9406 3.27807 17.0436 3.54678 17.2981C3.74027 17.5182 3.97849 17.6946 4.24552 17.8154C4.51256 17.9362 4.80229 17.9987 5.09539 17.9987C5.38849 17.9987 5.67822 17.9362 5.94526 17.8154C6.2123 17.6946 6.45051 17.5182 6.64401 17.2981C6.91188 17.0469 7.03242 16.9415 7.32791 16.9415C7.6234 16.9415 7.74645 17.0444 8.01181 17.2981C8.20508 17.5186 8.44322 17.6953 8.71029 17.8163C8.97736 17.9374 9.2672 18 9.56042 18C9.85365 18 10.1435 17.9374 10.4106 17.8163C10.6776 17.6953 10.9158 17.5186 11.109 17.2981C11.3769 17.0469 11.4974 16.9415 11.7929 16.9415C11.9643 16.9354 12.1315 16.9953 12.26 17.1089C12.4781 17.2839 12.7413 17.3935 13.0191 17.425C13.2969 17.4564 13.578 17.4083 13.8296 17.2863C14.0765 17.1679 14.2847 16.9817 14.4298 16.7495C14.5749 16.5172 14.6509 16.2485 14.6491 15.9746V2.02956C14.6509 1.75571 14.5749 1.48698 14.4298 1.25473C14.2847 1.02248 14.0765 0.836272 13.8296 0.717845Z" fill="#064DD6"/>
<path d="M11.5103 5.44216H6.06922C5.90272 5.44216 5.74303 5.37601 5.62529 5.25827C5.50755 5.14053 5.44141 4.98085 5.44141 4.81434C5.44141 4.64783 5.50755 4.48814 5.62529 4.37041C5.74303 4.25267 5.90272 4.18652 6.06922 4.18652H11.5103C11.6768 4.18652 11.8365 4.25267 11.9542 4.37041C12.072 4.48814 12.1381 4.64783 12.1381 4.81434C12.1381 4.98085 12.072 5.14053 11.9542 5.25827C11.8365 5.37601 11.6768 5.44216 11.5103 5.44216Z" fill="white"/>
<path d="M11.5103 9.6277H6.06922C5.90272 9.6277 5.74303 9.56156 5.62529 9.44382C5.50755 9.32608 5.44141 9.16639 5.44141 8.99989C5.44141 8.83338 5.50755 8.67369 5.62529 8.55595C5.74303 8.43822 5.90272 8.37207 6.06922 8.37207H11.5103C11.6768 8.37207 11.8365 8.43822 11.9542 8.55595C12.072 8.67369 12.1381 8.83338 12.1381 8.99989C12.1381 9.16639 12.072 9.32608 11.9542 9.44382C11.8365 9.56156 11.6768 9.6277 11.5103 9.6277Z" fill="white"/>
<path d="M11.5103 13.8132H6.06922C5.90272 13.8132 5.74303 13.7471 5.62529 13.6294C5.50755 13.5116 5.44141 13.3519 5.44141 13.1854C5.44141 13.0189 5.50755 12.8592 5.62529 12.7415C5.74303 12.6238 5.90272 12.5576 6.06922 12.5576H11.5103C11.6768 12.5576 11.8365 12.6238 11.9542 12.7415C12.072 12.8592 12.1381 13.0189 12.1381 13.1854C12.1381 13.3519 12.072 13.5116 11.9542 13.6294C11.8365 13.7471 11.6768 13.8132 11.5103 13.8132Z" fill="white"/>
<path d="M3.97625 9.83726C4.43856 9.83726 4.81334 9.46249 4.81334 9.00017C4.81334 8.53786 4.43856 8.16309 3.97625 8.16309C3.51394 8.16309 3.13916 8.53786 3.13916 9.00017C3.13916 9.46249 3.51394 9.83726 3.97625 9.83726Z" fill="#659FF2"/>
<path d="M3.97625 5.65172C4.43856 5.65172 4.81334 5.27694 4.81334 4.81463C4.81334 4.35232 4.43856 3.97754 3.97625 3.97754C3.51394 3.97754 3.13916 4.35232 3.13916 4.81463C3.13916 5.27694 3.51394 5.65172 3.97625 5.65172Z" fill="#659FF2"/>
<path d="M3.97625 14.0228C4.43856 14.0228 4.81334 13.648 4.81334 13.1857C4.81334 12.7234 4.43856 12.3486 3.97625 12.3486C3.51394 12.3486 3.13916 12.7234 3.13916 13.1857C3.13916 13.648 3.51394 14.0228 3.97625 14.0228Z" fill="#659FF2"/>
<rect x="9" y="11" width="9" height="9" rx="4.5" fill="#659FF2"/>
<path d="M12.1364 16.8195C12.1065 16.8196 12.0768 16.8139 12.0491 16.8026C12.0214 16.7913 11.9962 16.7746 11.975 16.7536L11.0659 15.8445C11.0344 15.8125 11.013 15.7719 11.0045 15.7278C10.996 15.6837 11.0008 15.6381 11.0182 15.5967C11.0352 15.5552 11.0642 15.5197 11.1014 15.4946C11.1386 15.4696 11.1824 15.4561 11.2273 15.4558H15.7727C15.833 15.4558 15.8908 15.4798 15.9334 15.5224C15.9761 15.565 16 15.6228 16 15.6831C16 15.7434 15.9761 15.8012 15.9334 15.8438C15.8908 15.8864 15.833 15.9104 15.7727 15.9104H11.775L12.2977 16.4308C12.319 16.452 12.3359 16.4771 12.3475 16.5048C12.359 16.5325 12.365 16.5622 12.365 16.5922C12.365 16.6222 12.359 16.6519 12.3475 16.6796C12.3359 16.7073 12.319 16.7324 12.2977 16.7536C12.2765 16.7746 12.2513 16.7913 12.2236 16.8026C12.1959 16.8139 12.1663 16.8196 12.1364 16.8195ZM15.7727 15.0013H11.2273C11.167 15.0013 11.1092 14.9773 11.0666 14.9347C11.0239 14.8921 11 14.8343 11 14.774C11 14.7137 11.0239 14.6559 11.0666 14.6133C11.1092 14.5707 11.167 14.5467 11.2273 14.5467H15.225L14.7023 14.0263C14.6595 13.9835 14.6354 13.9254 14.6354 13.8649C14.6354 13.8044 14.6595 13.7464 14.7023 13.7036C14.7451 13.6608 14.8031 13.6367 14.8636 13.6367C14.9242 13.6367 14.9822 13.6608 15.025 13.7036L15.9341 14.6126C15.9656 14.6446 15.987 14.6852 15.9955 14.7293C16.004 14.7734 15.9992 14.819 15.9818 14.8604C15.9648 14.9019 15.9358 14.9374 15.8986 14.9625C15.8614 14.9876 15.8176 15.0011 15.7727 15.0013Z" fill="white"/>
</svg>
