<svg width="27" height="38" viewBox="0 0 27 38" fill="none" xmlns="http://www.w3.org/2000/svg">
<g clip-path="url(#clip0_943_7350)">
<g style="mix-blend-mode:multiply" opacity="0.7">
<g style="mix-blend-mode:multiply">
<path d="M22.7973 15.2386L22.7534 15.1947C22.2121 14.7327 21.7877 14.1496 21.5149 13.4927C21.516 13.4737 21.516 13.4547 21.5149 13.4357C21.3567 13.1006 21.2416 12.7469 21.1724 12.383C21.1702 12.3714 21.1702 12.3595 21.1724 12.3479C21.0851 11.8913 21.1371 11.4191 21.3217 10.9924C21.4201 10.7604 21.4456 10.5039 21.3946 10.2571C21.3436 10.0103 21.2186 9.78486 21.0362 9.61071C20.808 9.39292 20.5042 9.27187 20.1886 9.27295C19.9978 9.27271 19.8096 9.31782 19.6397 9.40454C18.8648 9.7884 18.1829 10.3362 17.6415 11.01C18.287 7.64996 18.5198 3.41701 14.4751 0.644761C14.2496 0.491322 13.9796 0.416833 13.7072 0.432943C13.4349 0.449052 13.1756 0.554851 12.9698 0.733797C12.764 0.912743 12.6235 1.15475 12.57 1.42197C12.5166 1.68919 12.5533 1.96657 12.6745 2.21073C13.1118 3.08582 13.2403 4.08284 13.039 5.04C12.6525 7.00076 11.3087 8.76412 10.0087 10.4705L9.93846 10.5626L9.64861 10.9398C8.84783 11.9201 8.14062 12.973 7.53621 14.0849C7.40789 14.3334 7.2921 14.5881 7.18927 14.8482C7.03136 14.773 6.85913 14.7326 6.68423 14.7297H6.56126C6.38947 14.7446 6.22306 14.797 6.07379 14.8832L5.91129 14.9797H5.88494C5.66488 15.13 5.46169 15.3036 5.27889 15.4974C3.6806 16.9521 2.47144 18.7826 1.76121 20.8226C1.05099 22.8626 0.862201 25.0474 1.21199 27.1788C1.56178 29.3102 2.43907 31.3205 3.76419 33.0273C5.08931 34.734 6.82028 36.0831 8.79993 36.9521C10.7796 37.821 12.9452 38.1823 15.1001 38.003C17.255 37.8238 19.331 37.1097 21.1395 35.9257C22.948 34.7417 24.4317 33.1252 25.4559 31.2231C26.4802 29.3209 27.0125 27.1933 27.0045 25.0335C27.0045 19.5241 24.1631 16.6291 22.7973 15.2386Z" fill="white"/>
</g>
<path d="M22.7695 15.2255L22.7256 15.1816C21.979 14.4228 21.7375 14.1245 21.4872 13.4841L21.4608 13.4358C21.303 13.0991 21.1879 12.7439 21.1183 12.3787C21.1183 12.3787 21.1183 12.3568 21.1183 12.3436C21.0334 11.887 21.0854 11.4155 21.2676 10.9882C21.369 10.7565 21.3964 10.4991 21.3459 10.2513C21.2954 10.0034 21.1696 9.77721 20.9856 9.60349C20.8016 9.42977 20.5683 9.31702 20.3178 9.28065C20.0672 9.24428 19.8115 9.28605 19.5856 9.40027C18.8117 9.78581 18.1313 10.3352 17.5917 11.0101C18.2329 7.65007 18.4701 3.41713 14.421 0.640492C14.1959 0.484965 13.9254 0.408843 13.6522 0.424177C13.379 0.43951 13.1187 0.545424 12.9126 0.72515C12.7064 0.904876 12.5662 1.14815 12.5141 1.41645C12.4619 1.68475 12.5009 1.96276 12.6248 2.20646C13.0578 3.08441 13.1861 4.08134 12.9893 5.04012C12.6028 7.00087 11.259 8.76424 9.95901 10.4662L9.88436 10.5627L9.5989 10.9399C8.79631 11.9183 8.0876 12.9698 7.48211 14.0806C7.35329 14.3409 7.23911 14.5953 7.13956 14.8439C6.97907 14.7723 6.80586 14.7335 6.63013 14.7298H6.4896C6.31808 14.7461 6.15195 14.7984 6.00212 14.8834L5.83524 14.9799H5.81328C5.59225 15.1289 5.38892 15.3025 5.20723 15.4975C3.61961 16.9568 2.42131 18.7884 1.72074 20.8266C1.02018 22.8649 0.839453 25.0454 1.19492 27.171C1.55039 29.2965 2.43083 31.3 3.75659 33.0002C5.08235 34.7004 6.81159 36.0436 8.78785 36.9082C10.7641 37.7729 12.925 38.1318 15.0751 37.9525C17.2252 37.7731 19.2966 37.0611 21.1019 35.881C22.9071 34.7008 24.3893 33.0897 25.4143 31.1934C26.4393 29.2971 26.9748 27.1755 26.9724 25.0205C26.9724 19.5111 24.1309 16.6204 22.7695 15.2255Z" fill="#FCFCFC"/>
<path d="M22.7402 15.2167L22.6963 15.1728C21.9497 14.4096 21.7082 14.1113 21.4579 13.4709C21.4525 13.4512 21.4451 13.4321 21.4359 13.4138C21.2769 13.0787 21.1604 12.725 21.089 12.3611C21.089 12.3611 21.089 12.3348 21.089 12.326C21.005 11.8689 21.0585 11.3973 21.2427 10.9706C21.3423 10.7385 21.3681 10.4814 21.3166 10.2341C21.2652 9.98686 21.1389 9.76136 20.9549 9.58813C20.7709 9.4149 20.5381 9.30229 20.288 9.26554C20.0378 9.2288 19.7824 9.26968 19.5563 9.38267C18.7834 9.76777 18.1032 10.3155 17.5625 10.9881C18.2036 7.62808 18.4408 3.39514 14.3917 0.622888C14.1879 0.481272 13.946 0.404789 13.6978 0.403564C13.3988 0.404975 13.1103 0.513989 12.8853 0.710617C12.6795 0.889897 12.5394 1.13249 12.4869 1.40015C12.4344 1.6678 12.4726 1.94529 12.5955 2.18886C13.0292 3.06505 13.1575 4.06082 12.96 5.01813C12.5735 6.97888 11.2297 8.74224 9.92973 10.4486L9.85946 10.5407L9.56961 10.9179C8.76883 11.8982 8.06162 12.9512 7.45722 14.063C7.3289 14.3115 7.2131 14.5662 7.11027 14.8263C6.95236 14.7511 6.78013 14.7107 6.60523 14.7078H6.46031C6.28865 14.7263 6.12268 14.7801 5.97283 14.8658C5.92013 14.8921 5.86743 14.9272 5.81034 14.9623H5.78399C5.56296 15.1113 5.35963 15.2849 5.17794 15.4799C3.59059 16.9389 2.39243 18.7701 1.69181 20.808C0.991187 22.8458 0.810216 25.0259 1.16526 27.1512C1.52031 29.2764 2.40017 31.2798 3.72527 32.98C5.05037 34.6802 6.7789 36.0237 8.75453 36.8889C10.7302 37.7541 12.8906 38.1137 15.0404 37.9353C17.1901 37.7569 19.2615 37.046 21.067 35.867C22.8726 34.6879 24.3554 33.0779 25.3814 31.1826C26.4073 29.2872 26.9441 27.1663 26.9431 25.0117C26.9431 19.5023 24.106 16.6072 22.7402 15.2167Z" fill="#F9F9F9"/>
<path d="M22.6826 15.1903L22.6387 15.1465C21.8921 14.3832 21.6505 14.0849 21.4002 13.4445C21.3984 13.4256 21.3984 13.4065 21.4002 13.3875C21.2386 13.0519 21.1219 12.6964 21.0533 12.3304C21.0554 12.3202 21.0554 12.3098 21.0533 12.2997C20.9704 11.8415 21.0223 11.3692 21.2026 10.9398C21.3013 10.7082 21.3267 10.4519 21.2752 10.2055C21.2238 9.95902 21.098 9.73421 20.9148 9.56127C20.7316 9.38834 20.4998 9.27558 20.2506 9.23816C20.0013 9.20074 19.7466 9.24045 19.5206 9.35194C18.7484 9.74006 18.0685 10.289 17.5268 10.9618C18.1679 7.60174 18.4051 3.3688 14.356 0.592163C14.1305 0.438279 13.8604 0.363413 13.5878 0.379288C13.3152 0.395163 13.0556 0.500883 12.8496 0.679893C12.6435 0.859888 12.5031 1.10325 12.4507 1.37166C12.3982 1.64007 12.4366 1.91829 12.5598 2.16252C12.9935 3.03871 13.1218 4.03448 12.9243 4.99179C12.5378 6.95255 11.194 8.71591 9.89403 10.4222L9.82376 10.5144L9.53391 10.8916C8.73314 11.8728 8.02455 12.9256 7.41713 14.0367C7.28831 14.2911 7.17412 14.5455 7.07458 14.7999C6.91533 14.7242 6.74153 14.6838 6.56514 14.6815H6.42461C6.25364 14.7004 6.08803 14.7526 5.93713 14.835L5.77025 14.9359C5.54922 15.0849 5.3459 15.2586 5.1642 15.4535C3.56915 16.9089 2.3631 18.7389 1.65543 20.7777C0.947768 22.8165 0.760884 24.9995 1.11173 27.1286C1.46258 29.2578 2.34006 31.2658 3.66457 32.9705C4.98909 34.6752 6.71874 36.0227 8.69663 36.8907C10.6745 37.7587 12.8381 38.1198 14.991 37.9412C17.144 37.7625 19.2183 37.0499 21.0257 35.8679C22.8331 34.6858 24.3165 33.0718 25.3413 31.1722C26.3661 29.2726 26.8998 27.1475 26.8942 24.9897C26.8942 19.4803 24.044 16.5852 22.6826 15.1903Z" fill="#F3F3F3"/>
<path d="M22.6508 15.1903L22.6069 15.1465C22.0645 14.682 21.64 14.0957 21.3684 13.4357C21.3695 13.4167 21.3695 13.3977 21.3684 13.3787C21.2081 13.0445 21.0929 12.6905 21.0259 12.326C21.0237 12.3144 21.0237 12.3025 21.0259 12.2909C20.9405 11.8342 20.9925 11.3626 21.1752 10.9354C21.2737 10.7034 21.2991 10.4469 21.2481 10.2001C21.1971 9.95332 21.0721 9.72785 20.8897 9.5537C20.6615 9.33592 20.3578 9.21487 20.0421 9.21594C19.8513 9.21571 19.6631 9.26081 19.4932 9.34754C18.7183 9.73139 18.0364 10.2792 17.495 10.953C18.1405 7.59295 18.3733 3.36 14.3286 0.587753C14.1031 0.434314 13.8331 0.359826 13.5607 0.375936C13.2884 0.392045 13.0291 0.497844 12.8233 0.67679C12.6176 0.855735 12.477 1.09774 12.4235 1.36496C12.3701 1.63219 12.4068 1.90956 12.528 2.15372C12.9617 3.02991 13.09 4.02568 12.8925 4.983C12.506 6.94375 11.1622 8.70711 9.86224 10.4134L9.79197 10.5056L9.50212 10.8828C8.70135 11.8631 7.99413 12.916 7.38973 14.0279C7.26141 14.2764 7.14562 14.5311 7.04279 14.7911C6.88488 14.716 6.71264 14.6756 6.53774 14.6727H6.41478C6.24299 14.6876 6.07657 14.74 5.9273 14.8262L5.76481 14.9227H5.73846C5.5184 15.073 5.3152 15.2465 5.13241 15.4403C3.53411 16.8951 2.32495 18.7256 1.61473 20.7656C0.904505 22.8056 0.715716 24.9904 1.06551 27.1218C1.41529 29.2532 2.29258 31.2635 3.6177 32.9703C4.94282 34.677 6.6738 36.0261 8.65345 36.8951C10.6331 37.764 12.7987 38.1253 14.9536 37.946C17.1085 37.7668 19.1845 37.0527 20.993 35.8687C22.8015 34.6847 24.2852 33.0682 25.3094 31.1661C26.3337 29.2639 26.866 27.1363 26.858 24.9765C26.858 19.4671 24.0166 16.5721 22.6508 15.1903Z" fill="#F0F0F0"/>
<path d="M22.625 15.1904L22.5811 15.1465C21.8345 14.3877 21.5929 14.0894 21.3426 13.449L21.3163 13.3919C21.1584 13.0552 21.0434 12.7001 20.9737 12.3348C20.9737 12.3348 20.9737 12.3348 20.9737 12.2997C20.8889 11.8431 20.9408 11.3716 21.123 10.9443C21.2418 10.7097 21.282 10.4433 21.2378 10.1841C21.1937 9.92501 21.0674 9.68687 20.8777 9.50473C20.688 9.32258 20.4447 9.20604 20.1838 9.17223C19.9228 9.13842 19.6578 9.18913 19.4279 9.3169C18.654 9.70244 17.9736 10.2518 17.434 10.9267C18.0752 7.5667 18.3124 3.33375 14.2632 0.557117C14.0382 0.40159 13.7677 0.325469 13.4945 0.340803C13.2213 0.356136 12.961 0.46205 12.7549 0.641776C12.5487 0.821502 12.4085 1.06477 12.3564 1.33308C12.3042 1.60138 12.3432 1.87939 12.4671 2.12309C12.9031 3.00002 13.0344 3.997 12.8403 4.95675C12.4539 6.9175 11.11 8.68086 9.81009 10.3828L9.73543 10.4793L9.44997 10.8566C8.64739 11.8349 7.93867 12.8864 7.33319 13.9973C7.20583 14.2561 7.09165 14.5105 6.98625 14.7605C6.82737 14.6887 6.65555 14.6499 6.4812 14.6465H6.34067C6.16915 14.6627 6.00302 14.715 5.8532 14.8L5.68631 14.8965H5.66435C5.4424 15.0443 5.23894 15.2181 5.0583 15.4141C3.47249 16.8731 2.27559 18.7037 1.57575 20.7405C0.875907 22.7774 0.695173 24.9563 1.04988 27.0805C1.40458 29.2046 2.28354 31.207 3.60735 32.9067C4.93116 34.6065 6.6581 35.95 8.63214 36.8159C10.6062 37.6819 12.7651 38.0429 14.9139 37.8664C17.0627 37.69 19.1336 36.9815 20.9395 35.8052C22.7454 34.6288 24.2294 33.0216 25.2575 31.1287C26.2856 29.2358 26.8253 27.1169 26.8278 24.9634C26.8278 19.454 23.9864 16.5634 22.625 15.1904Z" fill="#ECECEC"/>
<path d="M22.5937 15.1597L22.5498 15.1158C22.0113 14.6601 21.5872 14.0848 21.3114 13.4358C21.306 13.4161 21.2986 13.397 21.2894 13.3788C21.1304 13.0437 21.0139 12.69 20.9425 12.3261C20.9425 12.3261 20.9425 12.2997 20.9425 12.291C20.8585 11.8339 20.912 11.3622 21.0962 10.9355C21.1958 10.7034 21.2216 10.4463 21.1701 10.1991C21.1187 9.95183 20.9924 9.72633 20.8084 9.5531C20.6244 9.37986 20.3916 9.26726 20.1415 9.23051C19.8913 9.19376 19.6359 9.23465 19.4098 9.34764C18.6369 9.73273 17.9567 10.2804 17.416 10.9531C18.0571 7.59305 18.2943 3.3601 14.2452 0.587854C14.0415 0.446238 13.7995 0.369755 13.5513 0.36853C13.2523 0.369941 12.9639 0.478956 12.7388 0.675584C12.533 0.854864 12.3929 1.09746 12.3404 1.36511C12.2879 1.63277 12.3261 1.91026 12.449 2.15382C12.8827 3.03001 13.011 4.02578 12.8135 4.9831C12.4007 6.90437 11.0832 8.66774 9.76566 10.3653L9.6954 10.4574L9.40555 10.8347C8.60477 11.8149 7.89756 12.8679 7.29315 13.9798C7.16754 14.2313 7.05468 14.4889 6.95499 14.7518C6.79708 14.6766 6.62485 14.6362 6.44995 14.6333H6.30502C6.13153 14.6526 5.96399 14.7079 5.81316 14.7956L5.64627 14.8921H5.62432C5.40329 15.0411 5.19996 15.2148 5.01826 15.4097C3.43428 16.8697 2.23932 18.7008 1.54126 20.7375C0.843202 22.7743 0.66404 24.9527 1.01995 27.0759C1.37586 29.1992 2.25563 31.2005 3.57983 32.8991C4.90403 34.5977 6.63095 35.9401 8.60466 36.8051C10.5784 37.6702 12.7367 38.0306 14.8848 37.8538C17.0329 37.677 19.1031 36.9687 20.9084 35.7926C22.7138 34.6166 24.1974 33.01 25.2254 31.1178C26.2534 29.2256 26.7934 27.1075 26.7966 24.9547C26.7966 19.4453 23.9595 16.5502 22.5937 15.1597Z" fill="#E9E9E9"/>
<path d="M22.5371 15.1377L22.4932 15.0939C21.9519 14.6319 21.5276 14.0488 21.2547 13.3919L21.2284 13.3349C21.0698 12.9984 20.9547 12.6432 20.8858 12.2777C20.888 12.2676 20.888 12.2572 20.8858 12.247C20.803 11.7889 20.8548 11.3166 21.0352 10.8872C21.1339 10.6556 21.1592 10.3993 21.1078 10.1529C21.0563 9.9064 20.9306 9.68159 20.7474 9.50866C20.5642 9.33573 20.3324 9.22297 20.0831 9.18555C19.8339 9.14813 19.5791 9.18783 19.3531 9.29933C18.581 9.68745 17.9011 10.2364 17.3593 10.9092C18.0005 7.54913 18.2377 3.31619 14.1885 0.539551C13.9631 0.385667 13.693 0.310801 13.4204 0.326676C13.1478 0.342551 12.8882 0.44827 12.6822 0.627279C12.4815 0.807249 12.3453 1.04794 12.2946 1.31253C12.2438 1.57712 12.2812 1.85103 12.4011 2.09236C12.8348 2.96855 12.9631 3.96432 12.7656 4.92164C12.3792 6.88239 11.0353 8.64575 9.73538 10.3521L9.66512 10.4442L9.37527 10.8214C8.5745 11.8027 7.86591 12.8555 7.25848 13.9665C7.12966 14.221 7.01548 14.4754 6.91593 14.7298C6.75668 14.654 6.58288 14.6136 6.4065 14.6114H6.25279C6.08182 14.6303 5.91621 14.6824 5.76531 14.7649L5.59843 14.8658C5.3774 15.0148 5.17408 15.1884 4.99238 15.3834C3.40165 16.8401 2.19977 18.6701 1.49553 20.7077C0.791297 22.7453 0.606937 24.9261 0.959145 27.0528C1.31135 29.1795 2.18901 31.1849 3.51266 32.8874C4.83632 34.59 6.56418 35.9359 8.53983 36.8034C10.5155 37.6709 12.6766 38.0326 14.8274 37.8558C16.9783 37.6789 19.051 36.969 20.858 35.7904C22.665 34.6119 24.1492 33.0018 25.1762 31.1059C26.2033 29.2101 26.7407 27.0883 26.7399 24.9327C26.7399 19.4233 23.8985 16.5282 22.5371 15.1377Z" fill="#E3E3E3"/>
<path d="M22.5015 15.1245L22.4576 15.0806C21.9163 14.6187 21.4919 14.0355 21.2191 13.3787C21.2202 13.3597 21.2202 13.3407 21.2191 13.3217C21.0587 12.9874 20.9436 12.6334 20.8766 12.2689C20.8744 12.2573 20.8744 12.2454 20.8766 12.2338C20.7912 11.7772 20.8431 11.3056 21.0259 10.8784C21.1231 10.6427 21.1454 10.3828 21.0896 10.134C21.0338 9.88523 20.9027 9.65963 20.7141 9.48789C20.4873 9.2669 20.1833 9.14264 19.8665 9.14136C19.6756 9.14112 19.4875 9.18623 19.3175 9.27295C18.5426 9.65681 17.8607 10.2047 17.3193 10.8784C17.9649 7.51836 18.1976 3.28542 14.1529 0.513169C13.9274 0.35973 13.6574 0.285241 13.3851 0.301351C13.1127 0.31746 12.8534 0.42326 12.6476 0.602205C12.4419 0.781151 12.3013 1.02316 12.2479 1.29038C12.1944 1.5576 12.2312 1.83498 12.3523 2.07914C12.786 2.95533 12.9143 3.9511 12.7168 4.90841C12.3304 6.86917 10.9865 8.63253 9.68657 10.3389L9.6163 10.431L9.32645 10.8038C8.52666 11.7848 7.81951 12.8377 7.21406 13.9489C7.08574 14.1974 6.96995 14.4521 6.86712 14.7122C6.70921 14.637 6.53697 14.5966 6.36207 14.5937H6.23911C6.06772 14.6106 5.90172 14.6629 5.75163 14.7473L5.58914 14.8438H5.56279C5.3337 15.001 5.12304 15.1834 4.93478 15.3877C3.3494 16.8476 2.15323 18.6791 1.45437 20.7166C0.755509 22.7542 0.575987 24.9335 0.932029 27.0578C1.28807 29.182 2.16845 31.1841 3.49361 32.8832C4.81877 34.5823 6.54694 35.9248 8.52192 36.7894C10.4969 37.654 12.6565 38.0134 14.8054 37.8351C16.9544 37.6568 19.025 36.9465 20.8301 35.7684C22.6352 34.5902 24.118 32.9814 25.1443 31.0872C26.1707 29.1931 26.7084 27.0733 26.7087 24.9195C26.7087 19.4101 23.8717 16.5062 22.5015 15.1245Z" fill="#E0E0E0"/>
<path d="M22.4761 15.1114L22.4366 15.0675C21.69 14.313 21.4484 14.0103 21.1849 13.3699V13.3129C21.0271 12.9762 20.912 12.621 20.8424 12.2558C20.8424 12.2558 20.8424 12.2338 20.8424 12.2207C20.7575 11.764 20.8095 11.2925 20.9917 10.8652C21.0931 10.6335 21.1205 10.3762 21.07 10.1283C21.0196 9.88051 20.8937 9.65429 20.7097 9.48056C20.5257 9.30684 20.2924 9.19409 20.0419 9.15772C19.7913 9.12135 19.5356 9.16313 19.3097 9.27735C18.5359 9.66289 17.8555 10.2122 17.3159 10.8872C17.957 7.52714 18.1942 3.2942 14.1451 0.517563C13.9196 0.364124 13.6496 0.289636 13.3773 0.305745C13.1049 0.321855 12.8456 0.427653 12.6398 0.606599C12.4341 0.785545 12.2935 1.02755 12.24 1.29477C12.1866 1.562 12.2233 1.83937 12.3445 2.08353C12.7807 2.96048 12.9105 3.95799 12.7134 4.91719C12.305 6.85601 10.9611 8.6106 9.66118 10.3257L9.58652 10.4222L9.30106 10.7995C8.49847 11.7778 7.78976 12.8293 7.18428 13.9402C7.05692 14.199 6.94273 14.4534 6.83733 14.7034C6.67846 14.6316 6.50664 14.5928 6.33229 14.5894H6.19176C6.02024 14.6056 5.85411 14.6579 5.70428 14.7429L5.5374 14.8394C5.31545 14.9872 5.11199 15.161 4.93135 15.357C3.3416 16.8142 2.14072 18.6443 1.43736 20.6818C0.733998 22.7192 0.550363 24.8997 0.90307 27.0259C1.25578 29.152 2.13369 31.1568 3.45738 32.8588C4.78107 34.5608 6.50874 35.9062 8.48408 36.7734C10.4594 37.6406 12.6201 38.0022 14.7705 37.8254C16.9209 37.6486 18.9933 36.939 20.8001 35.7609C22.6069 34.5827 24.091 32.9732 25.1183 31.078C26.1455 29.1827 26.6834 27.0615 26.6833 24.9063C26.6833 19.4013 23.8419 16.5063 22.4761 15.1114Z" fill="#DDDDDD"/>
<path d="M22.4492 15.1027L22.4053 15.0588C21.8704 14.5949 21.4522 14.0119 21.1844 13.3568C21.1862 13.3379 21.1862 13.3188 21.1844 13.2998C21.0247 12.965 20.9081 12.6112 20.8375 12.2471C20.8375 12.2471 20.8375 12.2208 20.8375 12.212C20.7565 11.7552 20.8083 11.2848 20.9868 10.8566C21.0882 10.6248 21.1156 10.3675 21.0651 10.1197C21.0147 9.87182 20.8888 9.6456 20.7048 9.47187C20.5208 9.29815 20.2876 9.1854 20.037 9.14903C19.7864 9.11266 19.5307 9.15444 19.3048 9.26866C18.5319 9.65375 17.8517 10.2015 17.311 10.8741C17.9521 7.51407 18.1893 3.28112 14.1402 0.508874C13.9365 0.367258 13.6945 0.290776 13.4463 0.289551C13.1473 0.290961 12.8589 0.399975 12.6338 0.596603C12.4281 0.775883 12.2879 1.01848 12.2354 1.28613C12.1829 1.55379 12.2211 1.83128 12.344 2.07484C12.7777 2.95103 12.906 3.9468 12.7085 4.90412C12.2737 6.8561 10.9299 8.61069 9.62993 10.317L9.55966 10.4091L9.26981 10.7864C8.46904 11.7667 7.76182 12.8196 7.15742 13.9315C7.0291 14.18 6.91331 14.4347 6.81048 14.6947C6.65257 14.6196 6.48033 14.5792 6.30543 14.5763H6.16051C5.98885 14.5948 5.82288 14.6485 5.67303 14.7342L5.50615 14.8307C5.28512 14.9797 5.08179 15.1534 4.9001 15.3483C3.31035 16.8055 2.10947 18.6356 1.40611 20.6731C0.702748 22.7105 0.519113 24.891 0.87182 27.0172C1.22453 29.1433 2.10244 31.1481 3.42613 32.8501C4.74981 34.5521 6.47749 35.8975 8.45283 36.7647C10.4282 37.6319 12.5888 37.9935 14.7393 37.8167C16.8897 37.6399 18.9621 36.9303 20.7689 35.7522C22.5756 34.574 24.0598 32.9645 25.087 31.0693C26.1143 29.174 26.6522 27.0528 26.6521 24.8977C26.6521 19.3882 23.8194 16.5063 22.4492 15.1027Z" fill="#DADADA"/>
<path d="M22.4194 15.0894L22.3755 15.0456C21.8352 14.5855 21.4122 14.0036 21.1415 13.348L21.1151 13.291C20.9553 12.955 20.8401 12.5996 20.7726 12.2338C20.7726 12.2338 20.7726 12.2338 20.7726 12.1987C20.6877 11.7421 20.7397 11.2706 20.9219 10.8433C21.0222 10.6116 21.0487 10.3547 20.9976 10.1074C20.9465 9.86018 20.8204 9.63467 20.6364 9.46158C20.4533 9.28755 20.2209 9.17433 19.9709 9.13742C19.7208 9.10051 19.4655 9.14173 19.2399 9.25542C18.4635 9.63311 17.7787 10.1749 17.2329 10.8433C17.8784 7.48328 18.1112 3.25472 14.0665 0.478086C13.8593 0.342328 13.616 0.272018 13.3682 0.276308C13.0709 0.275168 12.7834 0.382838 12.5601 0.578975C12.3596 0.756019 12.2223 0.993598 12.1692 1.25564C12.1161 1.51768 12.15 1.78988 12.2659 2.0309C12.7029 2.90609 12.8313 3.90299 12.6304 4.86017C12.2483 6.85602 10.9001 8.6106 9.60015 10.3038L9.52988 10.3959L9.24003 10.7731C8.44274 11.755 7.73712 12.8078 7.13203 13.9182C7.00467 14.1727 6.88609 14.4271 6.78508 14.6815C6.62649 14.6083 6.45468 14.568 6.28004 14.563H6.15707C5.98569 14.5799 5.81969 14.6322 5.6696 14.7166L5.50711 14.8131C5.49991 14.8112 5.49235 14.8112 5.48515 14.8131C5.26239 14.9581 5.05877 15.1305 4.8791 15.3263C3.28865 16.7828 2.0869 18.6124 1.38261 20.6496C0.678322 22.6868 0.493719 24.8672 0.845506 26.9936C1.19729 29.12 2.07437 31.1252 3.39736 32.8278C4.72035 34.5303 6.44751 35.8766 8.42253 36.7446C10.3976 37.6126 12.5581 37.9751 14.7087 37.7991C16.8592 37.6232 18.9319 36.9144 20.7392 35.7369C22.5465 34.5595 24.0313 32.9505 25.0593 31.0556C26.0873 29.1607 26.626 27.0396 26.6267 24.8844C26.6267 19.375 23.7852 16.4799 22.4194 15.0894Z" fill="#D7D7D7"/>
<path d="M22.3926 15.0807L22.3487 15.0369C21.8074 14.5749 21.383 13.9917 21.1102 13.3349L21.0839 13.2779C20.9268 12.9412 20.8132 12.586 20.7457 12.2207C20.7478 12.2106 20.7478 12.2002 20.7457 12.19C20.6628 11.7319 20.7147 11.2596 20.895 10.8302C20.9937 10.5986 21.0191 10.3423 20.9676 10.0959C20.9162 9.8494 20.7904 9.62459 20.6072 9.45166C20.4241 9.27872 20.1922 9.16596 19.943 9.12854C19.6937 9.09112 19.439 9.13083 19.213 9.24233C18.4408 9.63044 17.761 10.1794 17.2192 10.8522C17.8604 7.49213 18.0975 3.25918 14.0484 0.482544C13.823 0.32866 13.5528 0.253794 13.2802 0.269669C13.0077 0.285544 12.748 0.391264 12.5421 0.570273C12.3387 0.747216 12.1989 0.985841 12.1442 1.24964C12.0895 1.51343 12.1228 1.78787 12.239 2.03097C12.6727 2.90716 12.801 3.90293 12.6035 4.86024C12.2171 6.82099 10.8732 8.58436 9.57328 10.2907L9.50302 10.3828L9.21317 10.76C8.41239 11.7413 7.7038 12.7941 7.09638 13.9051C6.96756 14.1596 6.85337 14.414 6.75383 14.6684C6.59693 14.5954 6.42627 14.5565 6.25318 14.5543H6.11265C5.94168 14.5732 5.77607 14.6254 5.62517 14.7079L5.45829 14.8088H5.43633C5.2153 14.9578 5.01197 15.1314 4.83028 15.3264C3.24348 16.7849 2.04558 18.6154 1.34486 20.6524C0.644139 22.6894 0.46268 24.8687 0.816883 26.9934C1.17109 29.118 2.04979 31.121 3.37357 32.8213C4.69734 34.5216 6.42447 35.8656 8.39883 36.7319C10.3732 37.5981 12.5326 37.9593 14.6818 37.7827C16.8309 37.6062 18.9022 36.8975 20.7084 35.7206C22.5145 34.5438 23.9985 32.936 25.0264 31.0426C26.0543 29.1491 26.5935 27.0296 26.5954 24.8757C26.5954 19.3663 23.754 16.4712 22.3926 15.0807Z" fill="#D4D4D4"/>
<path d="M22.3613 15.0675L22.3174 15.0236C21.7761 14.5617 21.3518 13.9785 21.079 13.3217C21.0728 13.3022 21.0655 13.2832 21.057 13.2647C20.8966 12.9304 20.7814 12.5764 20.7144 12.2119C20.7123 12.2003 20.7123 12.1884 20.7144 12.1768C20.6227 11.7154 20.6717 11.2372 20.855 10.8039C20.9534 10.5718 20.9789 10.3154 20.9279 10.0685C20.8769 9.82173 20.7519 9.59626 20.5695 9.42211C20.3413 9.20433 20.0375 9.08328 19.7219 9.08436C19.5311 9.08412 19.3429 9.12923 19.173 9.21595C18.3998 9.59472 17.718 10.1365 17.1748 10.8039C17.8203 7.44382 18.0531 3.21087 14.0084 0.438621C13.7811 0.276837 13.5057 0.196749 13.227 0.211428C12.9484 0.226108 12.6829 0.334687 12.474 0.519448C12.2651 0.704209 12.125 0.954242 12.0766 1.22875C12.0283 1.50325 12.0745 1.78602 12.2078 2.03091C12.6415 2.9071 12.7698 3.90287 12.5723 4.86018C12.1858 6.82094 10.842 8.5843 9.54203 10.2906L9.47176 10.3828L9.18191 10.76C8.38212 11.741 7.67497 12.7939 7.06952 13.9051C6.9412 14.1536 6.82541 14.4083 6.72258 14.6683C6.56467 14.5932 6.39243 14.5528 6.21753 14.5499H6.19557H6.07261C5.90122 14.5668 5.73522 14.6191 5.58513 14.7034L5.42264 14.7999H5.39629C5.17623 14.9502 4.97303 15.1237 4.79024 15.3175C3.20527 16.7771 2.00931 18.608 1.31037 20.6449C0.611432 22.6818 0.431544 24.8606 0.786955 26.9844C1.14237 29.1081 2.02188 31.11 3.34605 32.8092C4.67022 34.5083 6.39732 35.8512 8.37136 36.7166C10.3454 37.5819 12.5042 37.9425 14.6527 37.7656C16.8012 37.5888 18.8717 36.8801 20.6773 35.7036C22.4828 34.5271 23.9665 32.9199 24.9943 31.0272C26.0221 29.1344 26.5616 27.0157 26.5641 24.8625C26.5641 19.3531 23.7271 16.458 22.3613 15.0675Z" fill="#D1D1D1"/>
<path d="M22.3315 15.0587L22.292 15.0105C21.5454 14.2516 21.3039 13.9534 21.0536 13.3129L21.0272 13.2559C20.8694 12.9192 20.7543 12.564 20.6847 12.1988C20.6847 12.1988 20.6847 12.1988 20.6847 12.1637C20.5962 11.7065 20.6451 11.2334 20.8252 10.8039C20.9267 10.5721 20.954 10.3148 20.9035 10.067C20.8531 9.81913 20.7272 9.5929 20.5432 9.41918C20.3592 9.24546 20.126 9.13271 19.8754 9.09634C19.6248 9.05997 19.3691 9.10175 19.1432 9.21597C18.3702 9.59508 17.6886 10.1368 17.145 10.8039C17.7906 7.44383 18.0233 3.21089 13.9786 0.434249C13.7511 0.270915 13.4747 0.189765 13.1949 0.204143C12.9151 0.218522 12.6485 0.327571 12.439 0.513362C12.2295 0.699153 12.0895 0.950624 12.0421 1.22643C11.9946 1.50223 12.0426 1.78595 12.178 2.03092C12.6142 2.90787 12.744 3.90538 12.5469 4.86458C12.1604 6.82534 10.8166 8.5887 9.51665 10.2907L9.44199 10.3872L9.15653 10.7644C8.35554 11.733 7.64687 12.7742 7.03975 13.8744C6.91239 14.1332 6.7982 14.3876 6.6928 14.6376C6.53393 14.5658 6.3621 14.527 6.18776 14.5236H6.04723C5.87571 14.5398 5.70958 14.5922 5.55975 14.6771L5.39287 14.7736C5.17004 14.9203 4.96645 15.0941 4.78682 15.2912C3.19707 16.7484 1.99619 18.5786 1.29283 20.616C0.589466 22.6534 0.405832 24.8339 0.758539 26.9601C1.11125 29.0863 1.98916 31.091 3.31285 32.793C4.63653 34.495 6.36421 35.8405 8.33954 36.7077C10.3149 37.5748 12.4755 37.9364 14.626 37.7596C16.7764 37.5828 18.8488 36.8732 20.6556 35.6951C22.4624 34.517 23.9465 32.9074 24.9737 31.0122C26.001 29.1169 26.5389 26.9957 26.5388 24.8406C26.5388 19.3443 23.6974 16.4493 22.3315 15.0587Z" fill="#CECECE"/>
<path d="M22.3047 15.0456L22.2608 15.0018C21.7195 14.5398 21.2951 13.9567 21.0223 13.2998C21.0241 13.2809 21.0241 13.2618 21.0223 13.2428C20.8626 12.9079 20.746 12.5542 20.6754 12.19C20.6754 12.19 20.6754 12.1637 20.6754 12.155C20.5855 11.7025 20.6266 11.2338 20.794 10.8039C20.8954 10.5722 20.9228 10.3148 20.8723 10.067C20.8218 9.81918 20.696 9.59295 20.512 9.41923C20.3279 9.24551 20.0947 9.13276 19.8441 9.09639C19.5936 9.06002 19.3379 9.10179 19.1119 9.21601C18.3408 9.59601 17.6607 10.1376 17.1181 10.8039C17.7593 7.44388 17.9965 3.21093 13.9473 0.438684C13.7436 0.297068 13.5016 0.220585 13.2535 0.21936C12.9545 0.220771 12.666 0.329785 12.441 0.526413C12.2352 0.705693 12.095 0.948286 12.0425 1.21594C11.9901 1.4836 12.0283 1.76109 12.1511 2.00465C12.5848 2.88084 12.7131 3.87661 12.5157 4.83393C12.1292 6.79468 10.7853 8.55804 9.4854 10.2644L9.41513 10.3653L9.12528 10.7425C8.32519 11.7186 7.61799 12.7671 7.01289 13.8744C6.88457 14.1229 6.76877 14.3777 6.66594 14.6377C6.50803 14.5625 6.3358 14.5221 6.1609 14.5193H6.01598C5.84416 14.537 5.67803 14.5908 5.5285 14.6772L5.36162 14.7737C5.14059 14.9227 4.93726 15.0963 4.75557 15.2913C3.16582 16.7485 1.96494 18.5786 1.26158 20.616C0.558216 22.6535 0.374582 24.834 0.727289 26.9601C1.08 29.0863 1.95791 31.0911 3.2816 32.7931C4.60528 34.495 6.33296 35.8405 8.30829 36.7077C10.2836 37.5749 12.4443 37.9365 14.5947 37.7597C16.7452 37.5829 18.8175 36.8733 20.6243 35.6951C22.4311 34.517 23.9153 32.9075 24.9425 31.0122C25.9697 29.117 26.5076 26.9958 26.5075 24.8406C26.5075 19.3312 23.6705 16.4361 22.3047 15.0456Z" fill="#CBCBCB"/>
<path d="M22.2475 15.0237L22.2036 14.9798C21.6623 14.5179 21.238 13.9347 20.9652 13.2779L20.9388 13.2209C20.7802 12.8844 20.6651 12.5292 20.5963 12.1637C20.5984 12.1536 20.5984 12.1432 20.5963 12.133C20.5134 11.6749 20.5653 11.2025 20.7456 10.7732C20.8443 10.5416 20.8697 10.2853 20.8182 10.0388C20.7668 9.79239 20.641 9.56758 20.4578 9.39465C20.2746 9.22172 20.0428 9.10896 19.7936 9.07154C19.5443 9.03411 19.2896 9.07382 19.0636 9.18532C18.2914 9.57343 17.6115 10.1224 17.0698 10.7952C17.7109 7.43512 17.9481 3.20217 13.899 0.425537C13.6735 0.271653 13.4034 0.196787 13.1308 0.212662C12.8582 0.228537 12.5986 0.334257 12.3926 0.513267C12.1865 0.693262 12.0461 0.936621 11.9937 1.20503C11.9412 1.47344 11.9796 1.75166 12.1028 1.99589C12.5365 2.87208 12.6648 3.86785 12.4673 4.82517C12.0808 6.78592 10.737 8.54928 9.43703 10.2556L9.36677 10.3477L9.07691 10.725C8.27145 11.7062 7.55981 12.7606 6.95135 13.8745C6.82252 14.1289 6.70834 14.3833 6.6088 14.6377C6.44955 14.5619 6.27575 14.5215 6.09936 14.5193H5.95883C5.78786 14.5382 5.62225 14.5903 5.47135 14.6728L5.30447 14.7737H5.28251C5.06056 14.9215 4.8571 15.0952 4.67646 15.2913C3.09262 16.7511 1.89772 18.582 1.19964 20.6186C0.501556 22.6551 0.322273 24.8333 0.677973 26.9564C1.03367 29.0795 1.91316 31.0807 3.23703 32.7793C4.56089 34.4779 6.28746 35.8205 8.26085 36.6858C10.2342 37.5511 12.3923 37.9119 14.5403 37.7356C16.6882 37.5593 18.7584 36.8514 20.5638 35.676C22.3693 34.5005 23.8533 32.8944 24.8818 31.0027C25.9102 29.111 26.4508 26.9933 26.4548 24.8406C26.4548 19.3093 23.609 16.4142 22.2475 15.0237Z" fill="#C4C4C4"/>
<path d="M22.2168 15.0105L22.1729 14.9667C21.6316 14.5047 21.2073 13.9215 20.9344 13.2647C20.9283 13.2453 20.921 13.2262 20.9125 13.2077C20.7521 12.8735 20.6369 12.5195 20.5699 12.1549C20.5678 12.1433 20.5678 12.1314 20.5699 12.1198C20.4845 11.6632 20.5365 11.1916 20.7192 10.7644C20.8177 10.5324 20.8431 10.2759 20.7921 10.0291C20.7411 9.7823 20.6162 9.55683 20.4338 9.38268C20.25 9.20828 20.0168 9.09486 19.766 9.05796C19.5152 9.02105 19.2591 9.06246 19.0328 9.17652C18.26 9.56161 17.5798 10.1093 17.039 10.782C17.6846 7.42193 17.9174 3.18898 13.8726 0.416733C13.6472 0.263294 13.3771 0.188806 13.1048 0.204915C12.8324 0.221025 12.5731 0.326823 12.3674 0.505769C12.1616 0.684715 12.021 0.926719 11.9676 1.19394C11.9142 1.46117 11.9509 1.73854 12.072 1.9827C12.5057 2.85889 12.634 3.85466 12.4365 4.81198C12.0501 6.77273 10.7062 8.53609 9.40629 10.2424L9.33602 10.3345L9.04617 10.7118C8.24638 11.6928 7.53923 12.7456 6.93378 13.8569C6.80546 14.1054 6.68967 14.3601 6.58684 14.6201C6.42893 14.545 6.25669 14.5046 6.08179 14.5017H6.05984H5.93687C5.76548 14.5186 5.59948 14.5709 5.44939 14.6552L5.2869 14.7517H5.26055C5.04049 14.902 4.8373 15.0755 4.6545 15.2693C3.06729 16.7282 1.86919 18.5593 1.16855 20.5969C0.467902 22.6345 0.286808 24.8145 0.641643 26.9396C0.996478 29.0647 1.87605 31.0679 3.20082 32.7682C4.52559 34.4684 6.25377 35.812 8.22908 36.6775C10.2044 37.5429 12.3645 37.903 14.5142 37.725C16.6638 37.547 18.7351 36.8367 20.5408 35.6582C22.3466 34.4797 23.8297 32.8703 24.8561 30.9754C25.8826 29.0805 26.4199 26.96 26.4196 24.8055C26.4196 19.2961 23.5826 16.401 22.2168 15.0105Z" fill="#C1C1C1"/>
<path d="M22.187 15.0017L22.1475 14.9534C21.4009 14.1946 21.1593 13.8963 20.909 13.2559L20.8827 13.1989C20.7229 12.8629 20.6077 12.5075 20.5401 12.1417C20.5401 12.1417 20.5401 12.1417 20.5401 12.1066C20.4553 11.65 20.5072 11.1785 20.6894 10.7512C20.7898 10.5195 20.8162 10.2626 20.7652 10.0153C20.7141 9.76807 20.588 9.54256 20.404 9.36947C20.2215 9.1888 19.9868 9.06999 19.733 9.02984C19.4793 8.9897 19.2193 9.03025 18.9899 9.14576C18.2148 9.53124 17.5329 10.0806 16.9917 10.7556C17.6372 7.39555 17.87 3.16261 13.8253 0.385972C13.5998 0.232533 13.3298 0.158044 13.0574 0.174154C12.7851 0.190263 12.5258 0.296062 12.32 0.475008C12.1142 0.653954 11.9737 0.895958 11.9202 1.16318C11.8668 1.4304 11.9035 1.70778 12.0247 1.95194C12.4638 2.82787 12.5968 3.82542 12.4024 4.7856C12.0159 6.74635 10.672 8.50972 9.3721 10.2117L9.29744 10.3082L9.01198 10.6854C8.2094 11.6637 7.50068 12.7153 6.8952 13.8261C6.76784 14.0849 6.65366 14.3393 6.54826 14.5894C6.38938 14.5176 6.21756 14.4788 6.04321 14.4753H5.90268C5.73116 14.4916 5.56503 14.5439 5.41521 14.6288L5.24832 14.7253H5.22636C5.00354 14.872 4.79994 15.0459 4.62031 15.2429C3.03548 16.7024 1.83959 18.5331 1.14062 20.5698C0.441661 22.6065 0.261652 24.7851 0.616853 26.9087C0.972055 29.0323 1.85128 31.0341 3.17512 32.7333C4.49896 34.4325 6.22571 35.7755 8.19943 36.6411C10.1731 37.5067 12.3317 37.8676 14.48 37.6913C16.6284 37.5149 18.6989 36.8067 20.5046 35.6308C22.3103 34.4549 23.7943 32.8483 24.8226 30.956C25.8508 29.0637 26.391 26.9453 26.3942 24.7923C26.3942 19.2873 23.5528 16.3922 22.187 15.0017Z" fill="#BEBEBE"/>
<path d="M22.1602 14.9886L22.1162 14.9448C21.575 14.4828 21.1506 13.8996 20.8778 13.2428C20.8778 13.2428 20.8778 13.2033 20.8778 13.1858C20.718 12.8509 20.6015 12.4972 20.5308 12.133C20.5308 12.133 20.5308 12.1067 20.5308 12.0979C20.4498 11.6412 20.5017 11.1708 20.6802 10.7425C20.7896 10.5091 20.8228 10.2473 20.775 9.99402C20.7272 9.74077 20.6008 9.50895 20.4138 9.33139C20.2268 9.15382 19.9886 9.03951 19.733 9.00463C19.4773 8.96976 19.2172 9.01609 18.9894 9.13707C18.2165 9.52216 17.5363 10.0699 16.9955 10.7425C17.6367 7.38248 17.8739 3.14953 13.8248 0.377283C13.621 0.235667 13.3791 0.159184 13.1309 0.157959C12.8319 0.159369 12.5434 0.268384 12.3184 0.465012C12.1126 0.644292 11.9725 0.886886 11.92 1.15454C11.8675 1.4222 11.9057 1.69968 12.0286 1.94325C12.4623 2.81944 12.5906 3.81521 12.3931 4.77253C11.9846 6.73328 10.6452 8.49664 9.32769 10.203L9.25742 10.2951L8.96757 10.6723C8.16679 11.6526 7.45958 12.7056 6.85518 13.8174C6.72686 14.0659 6.61107 14.3206 6.50823 14.5807C6.35032 14.5055 6.17809 14.4651 6.00319 14.4622H5.85826C5.68645 14.48 5.52032 14.5338 5.37079 14.6202L5.20391 14.7167C4.98288 14.8657 4.77955 15.0393 4.59786 15.2343C3.01106 16.6928 1.81316 18.5233 1.11244 20.5603C0.411718 22.5973 0.230258 24.7766 0.584461 26.9013C0.938665 29.0259 1.81737 31.0289 3.14115 32.7292C4.46492 34.4295 6.19205 35.7735 8.16641 36.6398C10.1408 37.506 12.3001 37.8672 14.4493 37.6906C16.5985 37.5141 18.6698 36.8054 20.4759 35.6286C22.2821 34.4517 23.7661 32.8439 24.794 30.9505C25.8218 29.057 26.3611 26.9375 26.363 24.7836C26.363 19.2742 23.526 16.3791 22.1602 14.9886Z" fill="#BBBBBB"/>
<path d="M22.1035 14.9666L22.0596 14.9228C21.5183 14.4608 21.094 13.8777 20.8211 13.2208L20.7948 13.1638C20.6373 12.8315 20.5222 12.4808 20.4522 12.1198C20.4544 12.1097 20.4544 12.0992 20.4522 12.0891C20.3694 11.631 20.4212 11.1586 20.6016 10.7293C20.7003 10.4977 20.7256 10.2414 20.6742 9.99494C20.6227 9.74848 20.497 9.52367 20.3138 9.35074C20.1306 9.17781 19.8988 9.06505 19.6495 9.02763C19.4003 8.9902 19.1455 9.02991 18.9196 9.14141C18.1474 9.52952 17.4675 10.0785 16.9257 10.7512C17.5669 7.39121 17.8041 3.15826 13.7549 0.381627C13.5314 0.239019 13.2677 0.172166 13.0031 0.190978C12.7385 0.209789 12.487 0.313265 12.2859 0.486064C12.0848 0.658862 11.9448 0.891787 11.8867 1.15031C11.8286 1.40882 11.8554 1.67917 11.9631 1.92128C12.3968 2.79747 12.5251 3.79324 12.3277 4.75055C11.9412 6.71131 10.5973 8.47467 9.2974 10.181L9.22713 10.2731L8.93728 10.6504C8.13509 11.6305 7.42641 12.6835 6.8205 13.7955C6.6946 14.0499 6.58042 14.3043 6.47795 14.5587C6.3187 14.4829 6.1449 14.4425 5.96851 14.4403H5.81481C5.64384 14.4592 5.47823 14.5113 5.32733 14.5938L5.16044 14.6947C4.93762 14.8413 4.73403 15.0152 4.5544 15.2123C2.96465 16.6695 1.76376 18.4996 1.0604 20.5371C0.357045 22.5745 0.17341 24.755 0.526117 26.8811C0.878824 29.0073 1.75674 31.0121 3.08043 32.7141C4.40411 34.4161 6.13179 35.7615 8.10712 36.6287C10.0825 37.4959 12.2431 37.8575 14.3935 37.6807C16.544 37.5039 18.6164 36.7943 20.4231 35.6162C22.2299 34.438 23.7141 32.8285 24.7413 30.9332C25.7686 29.038 26.3065 26.9168 26.3063 24.7616C26.3063 19.2522 23.4649 16.3572 22.1035 14.9666Z" fill="#B5B5B5"/>
<path d="M22.0635 14.9535L22.0196 14.9097C21.4783 14.4477 21.0539 13.8645 20.7811 13.2077C20.7822 13.1887 20.7822 13.1697 20.7811 13.1507C20.6208 12.8165 20.5056 12.4624 20.4386 12.0979C20.4364 12.0863 20.4364 12.0744 20.4386 12.0628C20.3532 11.6062 20.4051 11.1346 20.5879 10.7074C20.6863 10.4754 20.7118 10.2189 20.6608 9.9721C20.6098 9.72529 20.4848 9.49982 20.3024 9.32567C20.1187 9.15127 19.8854 9.03786 19.6346 9.00095C19.3839 8.96405 19.1278 9.00546 18.9015 9.11951C18.1286 9.5046 17.4484 10.0523 16.9077 10.725C17.5532 7.36492 17.786 3.13198 13.7413 0.359727C13.5158 0.206288 13.2458 0.131799 12.9734 0.147909C12.7011 0.164018 12.4418 0.269817 12.236 0.448763C12.0303 0.627709 11.8897 0.869713 11.8362 1.13694C11.7828 1.40416 11.8195 1.68154 11.9407 1.9257C12.3744 2.80188 12.5027 3.79765 12.3052 4.75497C11.9187 6.71572 10.5749 8.47908 9.27493 10.1854L9.20467 10.2775L8.91481 10.6548C8.11502 11.6358 7.40787 12.6886 6.80242 13.7999C6.6741 14.0484 6.55831 14.3031 6.45548 14.5631C6.29757 14.488 6.12534 14.4476 5.95044 14.4447H5.82747C5.65608 14.4616 5.49008 14.5139 5.33999 14.5982L5.1775 14.6947H5.15115C4.91399 14.8435 4.69447 15.0186 4.49679 15.2167C2.9124 16.6771 1.71723 18.5087 1.01925 20.5461C0.321265 22.5835 0.142468 24.7624 0.499008 26.8862C0.855549 29.0099 1.73619 31.0114 3.06138 32.7099C4.38657 34.4085 6.11455 35.7505 8.08921 36.6148C10.0639 37.479 12.223 37.8383 14.3715 37.6601C16.52 37.4819 18.5903 36.7719 20.3952 35.5942C22.2001 34.4165 23.6828 32.8082 24.7094 30.9146C25.736 29.0211 26.2741 26.9019 26.2751 24.7485C26.2751 19.2391 23.4381 16.344 22.0635 14.9535Z" fill="#B2B2B2"/>
<path d="M22.0625 14.9447L22.023 14.8965C21.2764 14.1376 21.0348 13.8393 20.7845 13.1989L20.745 13.1419C20.5852 12.8059 20.47 12.4505 20.4024 12.0847C20.4024 12.0847 20.4024 12.0628 20.4024 12.0496C20.3176 11.593 20.3695 11.1215 20.5518 10.6942C20.6521 10.4625 20.6786 10.2056 20.6275 9.95833C20.5764 9.71109 20.4503 9.48558 20.2663 9.31249C20.0832 9.13846 19.8507 9.02524 19.6007 8.98833C19.3507 8.95142 19.0954 8.99263 18.8697 9.10633C18.0946 9.49181 17.4128 10.0411 16.8715 10.7162C17.5171 7.35612 17.7499 3.12318 13.7051 0.346542C13.4797 0.193103 13.2097 0.118615 12.9373 0.134725C12.665 0.150834 12.4056 0.256633 12.1999 0.435579C11.9941 0.614525 11.8535 0.856529 11.8001 1.12375C11.7467 1.39097 11.7834 1.66835 11.9046 1.91251C12.3407 2.78946 12.4706 3.78697 12.2735 4.74617C11.887 6.70692 10.5431 8.47029 9.2432 10.1722L9.16854 10.2687L8.88747 10.6284C8.08488 11.6068 7.37617 12.6583 6.77069 13.7691C6.64333 14.0279 6.52475 14.2824 6.42374 14.5324C6.26487 14.4606 6.09305 14.4218 5.9187 14.4183H5.77817C5.60665 14.4346 5.44052 14.4869 5.29069 14.5719L5.12381 14.6684H5.10185C4.87877 14.8164 4.67516 14.9917 4.4958 15.1904C2.90592 16.6477 1.70497 18.478 1.00163 20.5156C0.298298 22.5533 0.114785 24.734 0.467703 26.8603C0.820621 28.9866 1.69883 30.9915 3.02284 32.6935C4.34686 34.3954 6.07489 35.7407 8.05054 36.6077C10.0262 37.4746 12.1871 37.8358 14.3377 37.6585C16.4883 37.4812 18.5607 36.7711 20.3673 35.5924C22.1739 34.4137 23.6578 32.8037 24.6846 30.9079C25.7113 29.0122 26.2486 26.8907 26.2478 24.7353C26.2478 19.2303 23.4063 16.3352 22.0625 14.9447Z" fill="#AFAFAF"/>
<path d="M22.0156 14.9315L21.9717 14.8877C21.4352 14.4242 21.0155 13.8412 20.7464 13.1857C20.7464 13.1857 20.7464 13.1462 20.7464 13.1287C20.5867 12.7938 20.4701 12.4401 20.3995 12.0759C20.3995 12.0759 20.3995 12.0496 20.3995 12.0408C20.3185 11.5841 20.3703 11.1137 20.5488 10.6854C20.6503 10.4537 20.6776 10.1963 20.6271 9.94851C20.5767 9.70068 20.4508 9.47445 20.2668 9.30073C20.0828 9.12701 19.8496 9.01426 19.599 8.97789C19.3484 8.94152 19.0927 8.9833 18.8668 9.09752C18.0939 9.48261 17.4137 10.0303 16.873 10.703C17.5142 7.34293 17.7513 3.10998 13.7022 0.337732C13.4985 0.196116 13.2565 0.119633 13.0083 0.118408C12.7093 0.119819 12.4209 0.228834 12.1958 0.425462C11.9901 0.604741 11.8499 0.847335 11.7974 1.11499C11.7449 1.38264 11.7831 1.66013 11.906 1.9037C12.3397 2.77989 12.468 3.77566 12.2705 4.73298C11.884 6.69373 10.5402 8.45709 9.24025 10.1634L9.16998 10.2555L8.88013 10.6328C8.07936 11.6131 7.37214 12.666 6.76774 13.7779C6.63942 14.0264 6.52363 14.2811 6.4208 14.5411C6.26289 14.466 6.09065 14.4256 5.91575 14.4227H5.72691C5.55509 14.4404 5.38897 14.4942 5.23944 14.5806L5.07255 14.6771H5.05059C4.82889 14.8235 4.62544 14.9958 4.44454 15.1903C2.8593 16.6501 1.6632 18.4814 0.964312 20.5187C0.265425 22.5561 0.0857819 24.7352 0.441614 26.8593C0.797445 28.9834 1.67754 30.9854 3.00237 32.6846C4.3272 34.3837 6.05501 35.7263 8.02968 36.5912C10.0043 37.456 12.1636 37.8158 14.3124 37.638C16.4612 37.4602 18.5318 36.7504 20.3371 35.5728C22.1424 34.3952 23.6254 32.7869 24.6523 30.8932C25.6791 28.9995 26.2174 26.8801 26.2185 24.7265C26.2185 19.2171 23.3814 16.322 22.0156 14.9315Z" fill="#ACACAC"/>
<path d="M21.9849 14.9184L21.9409 14.8746C21.4006 14.4145 20.9776 13.8326 20.7069 13.177L20.6805 13.12C20.5207 12.784 20.4056 12.4286 20.338 12.0629C20.338 12.0629 20.338 12.0629 20.338 12.0278C20.2531 11.5711 20.3051 11.0996 20.4873 10.6723C20.5877 10.4406 20.6141 10.1837 20.563 9.93645C20.5119 9.68921 20.3858 9.46369 20.2018 9.2906C19.9724 9.07474 19.6694 8.95401 19.3542 8.95284C19.1635 8.95311 18.9754 8.99819 18.8053 9.08444C18.0273 9.4616 17.341 10.0035 16.7939 10.6723C17.4439 7.29476 17.6722 3.08375 13.6319 0.307109C13.4262 0.166702 13.1828 0.0917709 12.9336 0.092172C12.6363 0.0910321 12.3488 0.198702 12.1256 0.394839C11.919 0.573561 11.778 0.815895 11.7247 1.08358C11.6714 1.35126 11.7089 1.62905 11.8313 1.87308C12.2683 2.74827 12.3967 3.74517 12.1958 4.70235C11.8094 6.66311 10.4655 8.42647 9.16556 10.1328L9.0953 10.2249L8.80545 10.6022C8.00663 11.5839 7.29955 12.6367 6.69305 13.7473C6.5613 14.0017 6.44712 14.2605 6.34611 14.5105C6.18752 14.4373 6.01571 14.397 5.84107 14.3921H5.81472H5.69175C5.52037 14.409 5.35436 14.4612 5.20428 14.5456L5.04179 14.6421C4.81139 14.7993 4.60057 14.9834 4.41378 15.1904C2.82682 16.6509 1.62939 18.4834 0.929765 20.5223C0.230143 22.5612 0.0504053 24.7421 0.406807 26.8678C0.763209 28.9935 1.64451 30.997 2.971 32.697C4.29749 34.397 6.02733 35.7399 8.00406 36.6042C9.9808 37.4686 12.1421 37.8272 14.2924 37.6475C16.4428 37.4679 18.5144 36.7556 20.3199 35.5752C22.1254 34.3949 23.6078 32.7836 24.6331 30.8871C25.6584 28.9906 26.1942 26.8688 26.1921 24.7134C26.1921 19.204 23.3507 16.309 21.9849 14.9184Z" fill="#A9A9A9"/>
<path d="M21.957 14.9097L21.9131 14.8658C21.3718 14.4039 20.9475 13.8207 20.6747 13.1639L20.6483 13.1068C20.4897 12.7704 20.3746 12.4152 20.3058 12.0497C20.3079 12.0396 20.3079 12.0291 20.3058 12.019C20.2229 11.5608 20.2747 11.0885 20.4551 10.6592C20.5631 10.4257 20.5952 10.1643 20.547 9.91159C20.4988 9.65892 20.3726 9.42764 20.1862 9.25016C19.9998 9.07269 19.7625 8.9579 19.5075 8.92189C19.2525 8.88588 18.9926 8.93045 18.7643 9.04935C17.9996 9.44135 17.3274 9.99165 16.7924 10.6636C17.4116 7.29476 17.6708 3.07059 13.5997 0.27641C13.3738 0.123787 13.1037 0.0501749 12.8316 0.0670728C12.5594 0.0839707 12.3005 0.190427 12.0953 0.369812C11.8902 0.549198 11.7502 0.79141 11.6974 1.05861C11.6446 1.32582 11.6819 1.60297 11.8035 1.84677C12.2372 2.72295 12.3655 3.71873 12.168 4.67604C11.7815 6.63679 10.4377 8.40015 9.13773 10.1065L9.06747 10.1986L8.77762 10.5758C7.97542 11.556 7.26674 12.609 6.66083 13.7209C6.53493 13.9754 6.42075 14.2298 6.31828 14.4842C6.15903 14.4151 5.98685 14.3807 5.81324 14.3833H5.6727C5.50174 14.4022 5.33613 14.4544 5.18523 14.5368L5.01834 14.6377C4.78415 14.7934 4.57152 14.9792 4.38594 15.1904C2.80002 16.6508 1.60358 18.4831 0.904827 20.5214C0.206072 22.5598 0.027042 24.74 0.383928 26.8648C0.740814 28.9897 1.62236 30.9921 2.94884 32.6911C4.27532 34.3901 6.00489 35.7321 7.98114 36.5956C9.95739 37.4592 12.118 37.8171 14.2675 37.6369C16.4171 37.4568 18.4877 36.7443 20.2923 35.5639C22.0968 34.3835 23.5783 32.7725 24.6028 30.8764C25.6273 28.9804 26.1625 26.8592 26.1599 24.7047C26.1599 19.1953 23.3184 16.3002 21.957 14.9097Z" fill="#A6A6A6"/>
<path d="M21.9277 14.8965L21.8838 14.8526C21.3425 14.3907 20.9182 13.8075 20.6453 13.1507C20.6465 13.1317 20.6465 13.1126 20.6453 13.0936C20.4856 12.7588 20.369 12.4051 20.2984 12.0409C20.2963 12.0293 20.2963 12.0174 20.2984 12.0058C20.213 11.5492 20.265 11.0775 20.4477 10.6504C20.5462 10.4184 20.5716 10.1619 20.5206 9.91507C20.4696 9.66826 20.3446 9.44279 20.1623 9.26864C19.9779 9.08641 19.7406 8.96706 19.4842 8.92767C19.2279 8.88828 18.9656 8.93086 18.735 9.04932C17.9621 9.43441 17.2819 9.98212 16.7412 10.6548C17.3823 7.29473 17.6195 3.06179 13.5748 0.289536C13.3493 0.136097 13.0793 0.0616086 12.8069 0.0777181C12.5346 0.0938276 12.2753 0.199627 12.0695 0.378573C11.8637 0.557519 11.7232 0.799523 11.6697 1.06675C11.6163 1.33397 11.653 1.61135 11.7742 1.85551C12.203 2.72533 12.3311 3.71255 12.1387 4.66285C11.7522 6.6236 10.4084 8.38696 9.10843 10.0933L9.03816 10.1854L8.74831 10.5627C7.94852 11.5437 7.24137 12.5965 6.63591 13.7078C6.5076 13.9562 6.39181 14.211 6.28897 14.471C6.13106 14.3958 5.95883 14.3554 5.78393 14.3526H5.66096C5.48958 14.3695 5.32358 14.4217 5.17349 14.5061L5.011 14.6026H4.98465C4.76458 14.7529 4.56139 14.9264 4.3786 15.1202C2.78954 16.5768 1.589 18.406 0.885512 20.4424C0.182028 22.4788 -0.00221503 24.6582 0.349442 26.7836C0.701099 28.909 1.57757 30.9134 2.8996 32.6155C4.22164 34.3176 5.94755 35.6637 7.92129 36.5322C9.89504 37.4007 12.0544 37.7641 14.2041 37.5897C16.3538 37.4152 18.4261 36.7084 20.2336 35.533C22.0411 34.3577 23.5268 32.7509 24.5564 30.858C25.586 28.9651 26.127 26.8457 26.1306 24.6915C26.1306 19.1821 23.2935 16.287 21.9277 14.8965Z" fill="#A3A3A3"/>
<path d="M21.896 14.8877L21.8565 14.8394C21.1099 14.0806 20.8683 13.7823 20.618 13.1419L20.5917 13.0848C20.4319 12.7489 20.3167 12.3935 20.2491 12.0277C20.2491 12.0277 20.2491 12.0277 20.2491 11.9926C20.1643 11.536 20.2162 11.0645 20.3984 10.6372C20.4988 10.4055 20.5252 10.1485 20.4742 9.90129C20.4231 9.65405 20.297 9.42854 20.113 9.25545C19.9292 9.07954 19.6951 8.96516 19.4433 8.92822C19.1914 8.89127 18.9343 8.93358 18.7076 9.04928C17.9325 9.43476 17.2507 9.98408 16.7094 10.6591C17.355 7.29469 17.5922 3.04859 13.543 0.276339C13.3366 0.133529 13.0915 0.0570158 12.8404 0.0570158C12.543 0.0558758 12.2556 0.163546 12.0323 0.359683C11.8254 0.539122 11.6842 0.782221 11.631 1.05066C11.5777 1.3191 11.6154 1.59762 11.7381 1.84231C12.1728 2.71494 12.3041 3.70733 12.1114 4.66281C11.7249 6.62356 10.381 8.38692 9.0811 10.0889L9.00644 10.1854L8.72098 10.5626C7.91839 11.5409 7.20968 12.5925 6.60419 13.7033C6.47684 13.9621 6.35826 14.2165 6.25725 14.4666C6.09838 14.3948 5.92656 14.356 5.75221 14.3525H5.61168C5.44003 14.3681 5.27376 14.4205 5.1242 14.5061L4.95732 14.6026C4.73449 14.7492 4.5309 14.9231 4.35127 15.1202C2.7618 16.5771 1.56105 18.4069 0.857636 20.4439C0.154226 22.4809 -0.0296525 24.661 0.322634 26.7868C0.67492 28.9127 1.55226 30.9173 2.87528 32.6194C4.19831 34.3214 5.92528 35.6671 7.89998 36.5348C9.87468 37.4025 12.0348 37.7648 14.185 37.589C16.3351 37.4131 18.4074 36.7046 20.2145 35.5276C22.0216 34.3506 23.5064 32.7422 24.5345 30.8479C25.5627 28.9535 26.1019 26.8331 26.1032 24.6783C26.1032 19.1733 23.2618 16.2782 21.896 14.8877Z" fill="#9F9F9F"/>
<path d="M21.8691 14.8745L21.8252 14.8307C21.2839 14.3687 20.8596 13.7855 20.5868 13.1287C20.5868 13.1287 20.5868 13.0892 20.5868 13.0717C20.427 12.7368 20.3104 12.3831 20.2398 12.0189C20.2423 12.0074 20.2423 11.9954 20.2398 11.9838C20.1588 11.5271 20.2106 11.0567 20.3891 10.6284C20.4906 10.3967 20.5179 10.1393 20.4675 9.89151C20.417 9.64368 20.2911 9.41745 20.1071 9.24372C19.9231 9.07 19.6899 8.95726 19.4393 8.92088C19.1887 8.88451 18.933 8.92629 18.7071 9.04051C17.9343 9.4256 17.2541 9.97331 16.7133 10.646C17.3545 7.28592 17.5916 3.05298 13.5425 0.280725C13.3388 0.139109 13.0968 0.0626264 12.8486 0.0614014C12.5497 0.0628118 12.2612 0.171826 12.0362 0.368454C11.8304 0.547734 11.6902 0.790327 11.6377 1.05798C11.5852 1.32564 11.6235 1.60313 11.7463 1.8467C12.1667 2.7226 12.2841 3.71309 12.0801 4.66281C11.6936 6.62356 10.3498 8.38692 9.04983 10.0933L8.97957 10.1854L8.68972 10.5626C7.88894 11.5429 7.18173 12.5959 6.57732 13.7077C6.45659 13.9552 6.34813 14.2084 6.25234 14.4666C6.09309 14.3908 5.91929 14.3504 5.74291 14.3481H5.60237C5.43055 14.3659 5.26443 14.4197 5.1149 14.5061L4.94801 14.6026C4.72606 14.7503 4.5226 14.9241 4.34196 15.1202C2.74732 16.5751 1.54146 18.4046 0.833717 20.4428C0.12597 22.4809 -0.0612853 24.6633 0.288927 26.792C0.63914 28.9208 1.51575 30.9285 2.83927 32.6333C4.1628 34.3381 5.89138 35.6859 7.86833 36.5547C9.84527 37.4235 12.008 37.7857 14.1606 37.6085C16.3131 37.4313 18.3873 36.7203 20.1952 35.5399C22.003 34.3596 23.4873 32.7472 24.5135 30.849C25.5398 28.9508 26.0754 26.8268 26.072 24.6695C26.072 19.1601 23.2349 16.265 21.8691 14.8745Z" fill="#9C9C9C"/>
<path d="M21.8384 14.8613L21.7945 14.8175C21.2541 14.3574 20.8311 13.7755 20.5604 13.1199L20.534 13.0629C20.3742 12.7269 20.2591 12.3715 20.1915 12.0058C20.1915 12.0058 20.1915 11.9838 20.1915 11.9707C20.1066 11.514 20.1586 11.0425 20.3408 10.6152C20.4412 10.3835 20.4676 10.1266 20.4165 9.87935C20.3654 9.63211 20.2393 9.4066 20.0553 9.23351C19.8259 9.01764 19.5229 8.89691 19.2078 8.89575C19.0169 8.89551 18.8287 8.94062 18.6588 9.02734C17.8848 9.41261 17.2032 9.96023 16.6606 10.6328C17.3062 7.27275 17.5389 3.04419 13.4942 0.267558C13.2885 0.127151 13.0451 0.0522201 12.7959 0.0526213C12.4986 0.0514813 12.2111 0.159151 11.9878 0.355288C11.7813 0.534011 11.6403 0.776344 11.587 1.04403C11.5337 1.31171 11.5712 1.5895 11.6936 1.83353C12.1276 2.70974 12.253 3.7066 12.0493 4.6628C11.6629 6.62356 10.319 8.38692 9.01908 10.0933L8.94881 10.1854L8.65896 10.5626C7.86015 11.5443 7.15306 12.5971 6.54657 13.7077C6.41481 13.9621 6.30063 14.2209 6.19962 14.471C6.04103 14.3978 5.86922 14.3575 5.69458 14.3525H5.57161C5.40023 14.3694 5.23423 14.4217 5.08414 14.506L4.92165 14.6025C4.91445 14.6007 4.90689 14.6007 4.89969 14.6025C4.67736 14.7499 4.47255 14.9221 4.28925 15.1158C2.69793 16.5735 1.49578 18.4047 0.791659 20.4435C0.0875393 22.4823 -0.0963115 24.6643 0.256755 26.7919C0.609821 28.9196 1.48865 30.9257 2.81367 32.6286C4.13868 34.3314 5.86803 35.6773 7.84512 36.5443C9.82221 37.4113 11.9846 37.772 14.1364 37.5938C16.2883 37.4156 18.3617 36.7041 20.1688 35.5238C21.976 34.3434 23.4598 32.7314 24.4859 30.8339C25.5121 28.9363 26.0482 26.813 26.0456 24.6563C26.0456 19.1382 23.2042 16.2519 21.8384 14.8613Z" fill="#999999"/>
<path d="M21.7832 14.8394L21.7393 14.7955C21.198 14.3336 20.7736 13.7504 20.5008 13.0936C20.5019 13.0746 20.5019 13.0555 20.5008 13.0365C20.3411 12.7017 20.2245 12.3479 20.1539 11.9838C20.1517 11.9722 20.1517 11.9603 20.1539 11.9487C20.0685 11.4921 20.1205 11.0204 20.3032 10.5933C20.4016 10.3612 20.4271 10.1048 20.3761 9.85797C20.3251 9.61115 20.2001 9.38569 20.0177 9.21154C19.834 9.03714 19.6007 8.92372 19.3499 8.88682C19.0992 8.84991 18.8431 8.89132 18.6168 9.00538C17.8439 9.39047 17.1637 9.93817 16.623 10.6108C17.2642 7.25079 17.5013 3.01784 13.4566 0.245591C13.2311 0.0921518 12.9611 0.0176633 12.6887 0.0337728C12.4164 0.0498823 12.1571 0.155682 11.9513 0.334627C11.7456 0.513573 11.605 0.755577 11.5515 1.0228C11.4981 1.29002 11.5348 1.5674 11.656 1.81156C12.0897 2.68775 12.218 3.68352 12.0205 4.64084C11.634 6.60159 10.2902 8.36495 8.99024 10.0713L8.88923 10.1459L8.59938 10.5231C7.79959 11.5041 7.09244 12.557 6.48699 13.6682C6.35867 13.9167 6.24288 14.1714 6.14005 14.4314C5.98348 14.3569 5.81281 14.3165 5.63939 14.313H5.61744H5.49447C5.32308 14.3299 5.15708 14.3822 5.00699 14.4665L4.8445 14.563H4.81815C4.59809 14.7133 4.3949 14.8868 4.2121 15.0806C2.62741 16.5399 1.43158 18.3705 0.732596 20.407C0.0336087 22.4435 -0.146522 24.6218 0.20847 26.7453C0.563462 28.8688 1.4424 30.8705 2.76591 32.5697C4.08941 34.2689 5.81582 35.6121 7.78922 36.4779C9.76261 37.3438 11.9209 37.7051 14.0691 37.5292C16.2173 37.3533 18.2878 36.6457 20.0936 35.4703C21.8995 34.295 23.3838 32.6889 24.4125 30.797C25.4413 28.9052 25.982 26.7872 25.986 24.6344C25.986 19.1381 23.149 16.2299 21.7832 14.8394Z" fill="#939393"/>
<path d="M21.7515 14.8307L21.7075 14.7824C20.9654 14.0236 20.7458 13.7253 20.4735 13.0849L20.4471 13.0278C20.2893 12.6911 20.1742 12.3359 20.1046 11.9707C20.1046 11.9707 20.1046 11.9707 20.1046 11.9356C20.0176 11.479 20.0696 11.0069 20.2539 10.5802C20.3543 10.3485 20.3807 10.0915 20.3296 9.84429C20.2785 9.59704 20.1524 9.37153 19.9684 9.19844C19.7856 9.01682 19.5501 8.89742 19.2954 8.85726C19.0408 8.81709 18.7799 8.8582 18.5499 8.97473C17.7748 9.36021 17.093 9.90953 16.5517 10.5846C17.1973 7.22453 17.4301 2.99158 13.3853 0.214946C13.1796 0.0745387 12.9362 -0.00039216 12.6871 8.96062e-06C12.3897 -0.00113103 12.1023 0.106538 11.879 0.302675C11.6721 0.482114 11.5309 0.725214 11.4776 0.993655C11.4244 1.2621 11.462 1.54061 11.5847 1.7853C12.0229 2.65996 12.1558 3.6558 11.9624 4.61458C11.576 6.57533 10.2321 8.33869 8.93217 10.0406L8.85752 10.1371L8.57206 10.5144C7.76947 11.4927 7.06075 12.5442 6.45527 13.6551C6.32791 13.9139 6.20934 14.1683 6.10833 14.4183C5.9508 14.3482 5.78015 14.3123 5.60768 14.3131H5.46714C5.29549 14.3286 5.12922 14.381 4.97967 14.4666L4.81279 14.5631C4.58996 14.7097 4.38637 14.8836 4.20674 15.0807C2.61672 16.5381 1.4157 18.3686 0.712389 20.4065C0.00908185 22.4444 -0.174308 24.6252 0.17882 26.7517C0.531949 28.8782 1.41045 30.8832 2.73479 32.5851C4.05914 34.287 5.78752 35.6322 7.76349 36.4989C9.73945 37.3656 11.9006 37.7264 14.0514 37.5486C16.2021 37.3709 18.2745 36.6602 20.081 35.481C21.8875 34.3017 23.371 32.6911 24.3973 30.7949C25.4236 28.8987 25.9603 26.7768 25.9587 24.6213C25.9587 19.1382 23.1173 16.2212 21.7515 14.8307Z" fill="#909090"/>
</g>
<path d="M12.9816 36.9735C10.4937 36.9683 8.06512 36.2137 6.01329 34.8083C3.96145 33.4028 2.38173 31.4119 1.48051 29.0957C0.57928 26.7794 0.398459 24.2455 0.961665 21.825C1.52487 19.4045 2.80592 17.21 4.63744 15.5281C4.79004 15.363 4.96095 15.2159 5.14687 15.0894L5.31814 14.9885C5.40772 14.9422 5.50714 14.9182 5.608 14.9184C5.71839 14.9177 5.82691 14.9468 5.92218 15.0025C6.01744 15.0583 6.09592 15.1386 6.14938 15.2351C6.20284 15.3315 6.22931 15.4406 6.226 15.5508C6.2227 15.661 6.18975 15.7683 6.1306 15.8614C5.92704 16.2163 5.8028 16.611 5.76641 17.0183C5.73002 17.4257 5.78235 17.8361 5.91981 18.2214C6.02594 18.5488 6.17353 18.8613 6.35897 19.1513C6.21809 18.441 6.16207 17.7166 6.19209 16.9932C6.239 15.9211 6.52243 14.8726 7.02211 13.9226C7.609 12.8368 8.29715 11.8088 9.07742 10.8521L9.43753 10.3784C10.7814 8.62377 12.1692 6.799 12.582 4.67594C12.8012 3.58246 12.6466 2.44712 12.1428 1.45189C12.0998 1.35868 12.0807 1.25624 12.0872 1.15381C12.0937 1.05138 12.1256 0.952178 12.18 0.865143C12.2345 0.778107 12.3098 0.705977 12.3991 0.655255C12.4885 0.604533 12.589 0.576813 12.6918 0.574595C12.8174 0.573883 12.9402 0.612205 13.0431 0.684256C17.4699 3.71969 16.3852 8.57991 15.5947 12.1154C15.5156 12.4619 15.441 12.7953 15.3751 13.1155C15.2489 13.67 15.1638 14.233 15.1204 14.7999C15.0781 15.3244 15.1856 15.8501 15.4305 16.316C15.6753 16.7818 16.0475 17.1688 16.5037 17.4318C16.2643 16.9298 16.0803 16.4032 15.9548 15.8614C15.7704 15.0101 15.7704 14.1292 15.9548 13.2778C16.1162 12.4676 16.4609 11.705 16.9625 11.0482C17.4641 10.3913 18.1093 9.85765 18.8489 9.4879C18.9331 9.44456 19.0265 9.422 19.1212 9.42211C19.2836 9.41883 19.4411 9.47857 19.5603 9.58879C19.6524 9.67576 19.7153 9.78903 19.7405 9.91309C19.7657 10.0372 19.7518 10.166 19.7009 10.2819C19.4681 10.8173 19.4023 11.4104 19.512 11.9838V12.0408C19.5764 12.4682 19.696 12.8855 19.8678 13.2822C20.1709 14.0263 20.6448 14.6889 21.2511 15.2166L21.295 15.2605C22.6126 16.5764 25.3222 19.3662 25.3222 24.6212C25.3199 27.892 24.0198 31.0285 21.7068 33.3438C19.3937 35.659 16.2562 36.9642 12.9816 36.9735Z" fill="url(#paint0_radial_943_7350)"/>
<path d="M12.7002 1.23261C17.1973 4.30314 15.5197 9.48795 14.7819 13.0278C14.6502 13.6055 14.5607 14.1919 14.514 14.7824C14.3427 18.0503 17.9702 18.6864 18.1415 18.818C17.3711 17.9396 16.8295 16.8849 16.5649 15.7474C16.4004 14.9827 16.4004 14.1917 16.5649 13.427C16.708 12.7077 17.0133 12.0305 17.4578 11.4467C17.9022 10.863 18.4739 10.3881 19.1296 10.0582C18.8422 10.7051 18.7551 11.4231 18.8793 12.1198V12.1681C18.9674 12.6353 19.115 13.0893 19.3185 13.5191C19.6518 14.3297 20.169 15.0519 20.8292 15.629C22.1204 16.9449 24.7246 19.5417 24.7246 24.6037C24.7285 26.5563 24.2445 28.479 23.3164 30.1975C22.3884 31.916 21.0456 33.3761 19.4098 34.4453C17.7741 35.5145 15.897 36.1591 13.9488 36.3206C12.0006 36.4822 10.0429 36.1555 8.25299 35.3704C6.4631 34.5852 4.89768 33.3663 3.69861 31.8242C2.49953 30.282 1.70472 28.4654 1.38619 26.5389C1.06767 24.6124 1.23551 22.637 1.8745 20.7916C2.5135 18.9463 3.60344 17.2894 5.04554 15.9712C5.16933 15.8397 5.30955 15.7247 5.46275 15.629L5.58572 15.5544C4.44828 17.3748 5.44519 20.2392 8.04506 21.3095C8.09337 21.3095 6.67925 20.248 6.78904 17.0327C6.83741 16.0463 7.10441 15.083 7.57076 14.2122C8.22993 13.0349 8.99582 11.9204 9.85882 10.8828C11.2378 9.07123 12.7398 7.13241 13.1877 4.85145C13.4382 3.62609 13.2712 2.35227 12.7134 1.23261H12.7002ZM12.7002 8.96062e-06C12.4029 -0.00113103 12.1154 0.106538 11.8922 0.302675C11.6853 0.482114 11.5441 0.725214 11.4908 0.993655C11.4375 1.2621 11.4752 1.54061 11.5979 1.7853C12.0316 2.66149 12.1599 3.65726 11.9624 4.61458C11.576 6.57533 10.2321 8.33869 8.93217 10.0406L8.85752 10.1371L8.57206 10.5144C7.76947 11.4927 7.06075 12.5442 6.45527 13.6551C6.32791 13.9139 6.20934 14.1683 6.10833 14.4183C5.9508 14.3482 5.78015 14.3123 5.60768 14.3131H5.46714C5.29549 14.3286 5.12922 14.381 4.97967 14.4666L4.81279 14.5631C4.58996 14.7097 4.38637 14.8836 4.20674 15.0807C2.61672 16.5381 1.4157 18.3686 0.712389 20.4065C0.00908185 22.4444 -0.174308 24.6252 0.17882 26.7517C0.531949 28.8782 1.41045 30.8832 2.73479 32.5851C4.05914 34.287 5.78752 35.6322 7.76349 36.4989C9.73945 37.3656 11.9006 37.7264 14.0514 37.5486C16.2021 37.3709 18.2745 36.6602 20.081 35.481C21.8875 34.3017 23.371 32.6911 24.3973 30.7949C25.4236 28.8987 25.9603 26.7768 25.9587 24.6213C25.9587 19.1163 23.1173 16.2212 21.7515 14.8307L21.7075 14.7824C20.9654 14.0236 20.7458 13.7253 20.4735 13.0849L20.4471 13.0278C20.2893 12.6911 20.1742 12.3359 20.1046 11.9707C20.1046 11.9707 20.1046 11.9707 20.1046 11.9356C20.0176 11.479 20.0696 11.0069 20.2539 10.5802C20.3543 10.3485 20.3807 10.0915 20.3296 9.84429C20.2785 9.59704 20.1524 9.37153 19.9684 9.19844C19.7856 9.01682 19.5501 8.89742 19.2954 8.85726C19.0408 8.81709 18.7799 8.8582 18.5499 8.97473C17.7748 9.36021 17.093 9.90953 16.5517 10.5846C17.1973 7.22453 17.4301 2.99158 13.3853 0.214946C13.1796 0.0745387 12.9362 -0.00039216 12.6871 8.96062e-06H12.7002Z" fill="white"/>
<path d="M6.58789 31.5826V22.8097H7.95568V26.3583H9.17261V22.8097H10.5404V31.5826H9.17261V27.5116H7.95568V31.5826H6.58789Z" fill="white"/>
<path d="M14.921 30.9529C14.7671 31.1669 14.5673 31.3359 14.3394 31.4448C14.1115 31.5537 13.8625 31.5992 13.6146 31.5772C13.3656 31.5983 13.1156 31.5524 12.8864 31.4436C12.6572 31.3348 12.4557 31.1664 12.2995 30.9529C11.9844 30.4089 11.8313 29.7712 11.8611 29.1278V25.1702C11.8611 23.6045 12.4485 22.8168 13.6146 22.8168C13.8598 22.7916 14.1068 22.8337 14.3334 22.9394C14.5599 23.045 14.7589 23.2109 14.9123 23.4219C15.2285 23.9375 15.3881 24.5494 15.3682 25.1702V29.1278C15.3931 29.7719 15.237 30.409 14.921 30.9529ZM13.1675 30.146C13.1997 30.2401 13.259 30.3202 13.3366 30.374C13.4142 30.4277 13.5056 30.4522 13.5971 30.4438C13.6888 30.4539 13.7809 30.4301 13.8588 30.3761C13.9367 30.3221 13.9958 30.2411 14.0267 30.146C14.1088 29.8144 14.1443 29.4711 14.1319 29.1278V25.1126C14.148 24.814 14.1153 24.5148 14.0355 24.2288C14.0024 24.1407 13.9447 24.0663 13.8707 24.0162C13.7967 23.9662 13.7101 23.9431 13.6234 23.9503C13.5346 23.9446 13.4463 23.9681 13.3698 24.0177C13.2933 24.0674 13.232 24.1409 13.1938 24.2288C13.102 24.512 13.0632 24.8126 13.0798 25.1126V29.1278C13.0678 29.4705 13.1002 29.8133 13.1762 30.146H13.1675Z" fill="white"/>
<path d="M17.163 31.5826V23.963H16.248V22.8097H19.3222V23.963H18.4073V31.5826H17.163Z" fill="white"/>
</g>
<defs>
<radialGradient id="paint0_radial_943_7350" cx="0" cy="0" r="1" gradientUnits="userSpaceOnUse" gradientTransform="translate(13.5569 -2.94774) scale(46.6132 46.558)">
<stop offset="0.07" stop-color="#FF8C00"/>
<stop offset="1" stop-color="#FF0000"/>
</radialGradient>
<clipPath id="clip0_943_7350">
<rect width="27" height="38" fill="white"/>
</clipPath>
</defs>
</svg>
