<svg width="14" height="14" viewBox="0 0 14 14" fill="none" xmlns="http://www.w3.org/2000/svg">
<path fill-rule="evenodd" clip-rule="evenodd" d="M12.9772 8.16587C13.1333 8.16704 13.282 8.23455 13.3885 8.35256C13.4953 8.46824 13.5507 8.62466 13.5414 8.78429C13.3719 11.7137 11.0251 13.9997 8.18716 14H5.3549C2.51691 13.9997 0.170206 11.7137 0.000667337 8.78429C-0.0067658 8.62505 0.0481441 8.46943 0.153 8.35256C0.25872 8.23311 0.408271 8.16532 0.564864 8.16587H2.60613C2.73053 8.16708 2.841 8.08389 2.87807 7.96109C3.02541 7.47661 3.4589 7.14632 3.95005 7.14431H6.77385C7.265 7.14632 7.69848 7.47661 7.84582 7.96109C7.88258 8.08286 7.99159 8.1658 8.11495 8.16587H11.143C11.2988 8.16587 11.4251 8.03527 11.4251 7.87416V1.74833C11.4257 1.51777 11.295 1.30845 11.0915 1.21421C10.888 1.11998 10.6499 1.1585 10.484 1.31252L10.2527 1.55172C10.1774 1.63011 10.1514 1.74574 10.1855 1.85043C10.3823 2.45128 10.233 3.1155 9.8002 3.56508L9.68736 3.68468C9.46704 3.91243 9.10991 3.91243 8.88959 3.68468L7.39729 2.14097C7.17704 1.91314 7.17704 1.54384 7.39729 1.31602L7.51295 1.19642C7.95287 0.761843 8.58803 0.612154 9.16661 0.8067C9.26709 0.839715 9.37699 0.812036 9.45153 0.73494L9.71275 0.46482C10.2064 -0.00685622 10.9231 -0.131824 11.539 0.146402C12.1549 0.424627 12.5533 1.05333 12.554 1.74833V7.87416C12.554 8.03527 12.6803 8.16587 12.8361 8.16587H12.9772ZM6.48851 11.8119C6.64431 11.8119 6.77061 11.6813 6.77061 11.5202V8.60313C6.77061 8.44203 6.64431 8.31143 6.48851 8.31143H4.23174C4.07594 8.31143 3.94964 8.44203 3.94964 8.60313V11.5202C3.94964 11.6813 4.07594 11.8119 4.23174 11.8119H6.48851Z" fill="#064DD6"/>
<path d="M5.07989 3.54925C5.16135 3.54998 5.242 3.53247 5.31629 3.49791L6.34086 3.009C6.52419 2.92198 6.64869 2.74044 6.66747 2.53275C6.68626 2.32507 6.59647 2.1228 6.43192 2.00214C6.26738 1.88147 6.05309 1.86075 5.86976 1.94777L4.84349 2.43609C4.6029 2.55089 4.47198 2.82335 4.52881 3.09097C4.58565 3.35859 4.81492 3.54926 5.07989 3.54925Z" fill="#064DD6"/>
<path d="M7.96863 6.71315C8.25515 6.83954 8.5865 6.70191 8.70886 6.4057L9.15232 5.33223C9.26669 5.03778 9.1325 4.7028 8.85027 4.57823C8.56804 4.45365 8.24128 4.58517 8.11476 4.87425L7.67412 5.94947C7.55269 6.24447 7.68421 6.58552 7.96863 6.71315Z" fill="#064DD6"/>
<path d="M5.91685 5.29206C6.13608 5.52095 6.49322 5.52278 6.71462 5.29614L7.51691 4.47586C7.73233 4.24825 7.73143 3.88406 7.51489 3.65759C7.29834 3.43113 6.94618 3.42608 6.72365 3.64624L5.92136 4.46711C5.69986 4.69364 5.69784 5.06295 5.91685 5.29206Z" fill="#064DD6"/>
</svg>
