<svg width="16" height="13" viewBox="0 0 16 13" fill="none" xmlns="http://www.w3.org/2000/svg">
<path d="M6.86249 1.68005H9.02877C10.0312 1.68099 10.9016 2.39426 11.1315 3.40323C11.1508 3.48734 11.2233 3.5468 11.3069 3.547H14.6265C14.6744 3.54718 14.7204 3.52764 14.7543 3.4927C14.7882 3.45776 14.8073 3.41029 14.8073 3.36078V1.49315C14.8073 1.09702 14.6551 0.717131 14.3841 0.437091C14.1132 0.157052 13.7457 -0.000181469 13.3626 1.57177e-07H2.52861C2.14553 -0.000181469 1.77808 0.157052 1.50715 0.437091C1.23621 0.717131 1.08398 1.09702 1.08398 1.49315V3.36078C1.08398 3.41029 1.10305 3.45776 1.13696 3.4927C1.17088 3.52764 1.21685 3.54718 1.26473 3.547H4.58432C4.66809 3.5473 4.74092 3.48763 4.75977 3.40323C4.98966 2.39426 5.86004 1.68099 6.86249 1.68005Z" fill="#064DD6"/>
<path d="M0.722313 4.66797C0.53069 4.66779 0.346865 4.74642 0.211367 4.88654C0.0758686 5.02665 -0.000175578 5.21674 3.04419e-07 5.41489V9.33569C-2.84272e-07 9.69067 0.241618 9.99661 0.577983 10.0675C0.661913 10.0854 0.722187 10.1617 0.722313 10.2503V11.7627C0.722313 12.1752 1.0457 12.5096 1.44463 12.5096C1.84355 12.5096 2.16694 12.1752 2.16694 11.7627V10.2695C2.16676 10.22 2.18566 10.1725 2.21945 10.1374C2.25324 10.1023 2.29915 10.0826 2.34702 10.0826H13.5425C13.5904 10.0826 13.6363 10.1023 13.6701 10.1374C13.7039 10.1725 13.7228 10.22 13.7226 10.2695V11.7627C13.7226 12.1752 14.046 12.5096 14.4449 12.5096C14.8439 12.5096 15.1673 12.1752 15.1673 11.7627V10.2503C15.1674 10.1617 15.2277 10.0854 15.3116 10.0675C15.6479 9.99661 15.8896 9.69067 15.8896 9.33569V5.41489C15.8897 5.21674 15.8137 5.02665 15.6782 4.88654C15.5427 4.74642 15.3589 4.66779 15.1673 4.66797H0.722313Z" fill="#064DD6"/>
</svg>
