<svg width="38" height="38" viewBox="0 0 38 38" fill="none" xmlns="http://www.w3.org/2000/svg">
<path d="M8.79868 36.472C8.66252 36.472 8.5312 36.4214 8.43029 36.33C8.32938 36.2386 8.2661 36.1129 8.25277 35.9774C8.24265 35.8741 8.2375 35.7695 8.2373 35.6635C8.2373 34.7379 8.60496 33.8503 9.25939 33.1959C9.91382 32.5415 10.8014 32.1738 11.7269 32.1738C12.6524 32.1738 13.54 32.5415 14.1945 33.1959C14.8489 33.8503 15.2165 34.7379 15.2165 35.6635C15.2165 35.7693 15.2114 35.8739 15.2011 35.9774C15.1878 36.1129 15.1245 36.2386 15.0236 36.33C14.9227 36.4214 14.7913 36.472 14.6552 36.472H8.79868Z" fill="#CCA300"/>
<path d="M11.7268 30.7818C12.6131 30.7818 13.3316 30.0633 13.3316 29.177C13.3316 28.2907 12.6131 27.5723 11.7268 27.5723C10.8405 27.5723 10.1221 28.2907 10.1221 29.177C10.1221 30.0633 10.8405 30.7818 11.7268 30.7818Z" fill="#CCA300"/>
<path d="M25.7646 26.4336L30.9306 23.4509L35.8022 31.8886C36.1977 32.5736 36.3049 33.3877 36.1002 34.1517C35.8955 34.9157 35.3957 35.5672 34.7106 35.9627C34.0256 36.3582 33.2115 36.4654 32.4475 36.2607C31.6834 36.0559 31.032 35.5561 30.6365 34.8711L25.7646 26.4336Z" fill="#659FF2"/>
<path d="M29.3447 32.6329L30.6373 34.8714C30.8286 35.2191 31.0874 35.5251 31.3985 35.7715C31.7096 36.0179 32.0667 36.1997 32.449 36.3063C32.8313 36.4129 33.231 36.4422 33.6247 36.3923C34.0184 36.3425 34.3982 36.2146 34.7418 36.0162C35.0855 35.8177 35.3861 35.5527 35.626 35.2365C35.8659 34.9204 36.0403 34.5596 36.1391 34.1752C36.2378 33.7909 36.2588 33.3907 36.2008 32.9981C36.1429 32.6055 36.0072 32.2284 35.8017 31.8889L34.5094 29.6504L29.3447 32.6329Z" fill="url(#paint0_linear_1361_16471)"/>
<path d="M30.9318 23.4512L25.7656 26.4351L27.158 28.8464C29.0448 28.1594 30.7783 27.1086 32.2602 25.7536L30.9318 23.4512Z" fill="url(#paint1_linear_1361_16471)"/>
<path d="M21.9389 28.8857C29.9155 28.8857 36.3818 22.4194 36.3818 14.4428C36.3818 6.46628 29.9155 0 21.9389 0C13.9624 0 7.49609 6.46628 7.49609 14.4428C7.49609 22.4194 13.9624 28.8857 21.9389 28.8857Z" fill="#064DD6"/>
<path d="M21.9392 25.2378C27.9015 25.2378 32.7349 20.4044 32.7349 14.4421C32.7349 8.47986 27.9015 3.64648 21.9392 3.64648C15.9769 3.64648 11.1436 8.47986 11.1436 14.4421C11.1436 20.4044 15.9769 25.2378 21.9392 25.2378Z" fill="url(#paint2_linear_1361_16471)"/>
<path d="M0.790269 36.4718C0.607191 36.4721 0.430559 36.4042 0.294793 36.2814C0.159026 36.1586 0.0738535 35.9896 0.0558722 35.8074C0.0421588 35.6688 0.0351562 35.5279 0.0351562 35.3855C0.0351563 34.1421 0.529094 32.9496 1.40831 32.0704C2.28752 31.1912 3.47999 30.6973 4.72339 30.6973C5.96678 30.6973 7.15925 31.1912 8.03847 32.0704C8.91768 32.9496 9.41162 34.1421 9.41162 35.3855C9.41162 35.5279 9.40462 35.6688 9.3909 35.8074C9.37294 35.9894 9.28789 36.1583 9.15231 36.2811C9.01673 36.4039 8.84031 36.4719 8.65738 36.4718H0.790269Z" fill="#FFCC00"/>
<path d="M4.72444 29.1774C5.93301 29.1774 6.91275 28.1977 6.91275 26.9891C6.91275 25.7805 5.93301 24.8008 4.72444 24.8008C3.51587 24.8008 2.53613 25.7805 2.53613 26.9891C2.53613 28.1977 3.51587 29.1774 4.72444 29.1774Z" fill="#FFCC00"/>
<path d="M11.1434 3.93945C4.98905 3.93945 0 8.11504 0 13.266C0.0106586 15.0396 0.596161 16.7619 1.66866 18.1745C1.66545 18.2014 1.66545 18.2282 1.65961 18.2545C1.398 19.5717 1.40415 20.928 1.6777 22.2428C1.72235 22.4648 1.82867 22.6697 1.98446 22.834C2.14025 22.9984 2.33922 23.1155 2.55853 23.1719C2.77783 23.2284 3.00861 23.2219 3.22439 23.1532C3.44016 23.0844 3.6322 22.9563 3.77848 22.7834C4.28955 22.2118 4.88421 21.721 5.54226 21.3275C7.28918 22.1686 9.20459 22.6012 11.1434 22.5926C17.2978 22.5926 22.2869 18.417 22.2869 13.266C22.2869 8.11504 17.2978 3.93945 11.1434 3.93945Z" fill="#659FF2"/>
<path d="M15.9578 10.9417H6.32926C6.21319 10.9417 6.10187 10.8956 6.01979 10.8135C5.93771 10.7315 5.8916 10.6201 5.8916 10.5041C5.8916 10.388 5.93771 10.2767 6.01979 10.1946C6.10187 10.1125 6.21319 10.0664 6.32926 10.0664H15.9578C16.0739 10.0664 16.1852 10.1125 16.2673 10.1946C16.3494 10.2767 16.3955 10.388 16.3955 10.5041C16.3955 10.6201 16.3494 10.7315 16.2673 10.8135C16.1852 10.8956 16.0739 10.9417 15.9578 10.9417Z" fill="url(#paint3_linear_1361_16471)"/>
<path d="M15.9578 13.8597H6.32926C6.21319 13.8597 6.10187 13.8136 6.01979 13.7315C5.93771 13.6494 5.8916 13.5381 5.8916 13.422C5.8916 13.306 5.93771 13.1946 6.01979 13.1126C6.10187 13.0305 6.21319 12.9844 6.32926 12.9844H15.9578C16.0739 12.9844 16.1852 13.0305 16.2673 13.1126C16.3494 13.1946 16.3955 13.306 16.3955 13.422C16.3955 13.5381 16.3494 13.6494 16.2673 13.7315C16.1852 13.8136 16.0739 13.8597 15.9578 13.8597Z" fill="url(#paint4_linear_1361_16471)"/>
<path d="M15.9578 16.7777H6.32926C6.21319 16.7777 6.10187 16.7316 6.01979 16.6495C5.93771 16.5674 5.8916 16.4561 5.8916 16.34C5.8916 16.2239 5.93771 16.1126 6.01979 16.0305C6.10187 15.9485 6.21319 15.9023 6.32926 15.9023H15.9578C16.0739 15.9023 16.1852 15.9485 16.2673 16.0305C16.3494 16.1126 16.3955 16.2239 16.3955 16.34C16.3955 16.4561 16.3494 16.5674 16.2673 16.6495C16.1852 16.7316 16.0739 16.7777 15.9578 16.7777Z" fill="url(#paint5_linear_1361_16471)"/>
<defs>
<linearGradient id="paint0_linear_1361_16471" x1="29.3447" y1="38.1073" x2="37.3028" y2="36.1359" gradientUnits="userSpaceOnUse">
<stop stop-color="#0A3ECA"/>
<stop offset="0.961522" stop-color="#4B7CFF"/>
</linearGradient>
<linearGradient id="paint1_linear_1361_16471" x1="25.7656" y1="30.1952" x2="33.1003" y2="28.0468" gradientUnits="userSpaceOnUse">
<stop stop-color="#0A3ECA"/>
<stop offset="0.961522" stop-color="#4B7CFF"/>
</linearGradient>
<linearGradient id="paint2_linear_1361_16471" x1="21.9392" y1="3.64648" x2="21.9392" y2="25.2378" gradientUnits="userSpaceOnUse">
<stop stop-color="#E8EFFF"/>
<stop offset="1" stop-color="#E8EFFF" stop-opacity="0"/>
</linearGradient>
<linearGradient id="paint3_linear_1361_16471" x1="11.1435" y1="10.0664" x2="11.1435" y2="10.9417" gradientUnits="userSpaceOnUse">
<stop stop-color="#E8EFFF"/>
<stop offset="1" stop-color="#E8EFFF" stop-opacity="0"/>
</linearGradient>
<linearGradient id="paint4_linear_1361_16471" x1="11.1435" y1="12.9844" x2="11.1435" y2="13.8597" gradientUnits="userSpaceOnUse">
<stop stop-color="#E8EFFF"/>
<stop offset="1" stop-color="#E8EFFF" stop-opacity="0"/>
</linearGradient>
<linearGradient id="paint5_linear_1361_16471" x1="11.1435" y1="15.9023" x2="11.1435" y2="16.7777" gradientUnits="userSpaceOnUse">
<stop stop-color="#E8EFFF"/>
<stop offset="1" stop-color="#E8EFFF" stop-opacity="0"/>
</linearGradient>
</defs>
</svg>
