<svg width="16" height="17" viewBox="0 0 16 17" fill="none" xmlns="http://www.w3.org/2000/svg">
<path d="M12.5389 12.9536C14.9409 10.447 14.8562 6.46787 12.3496 4.06586C9.84306 1.66385 5.86391 1.7486 3.4619 4.25511C1.13191 6.68652 1.13191 10.5222 3.4619 12.9536L1.82867 15.1308C1.63932 15.3833 1.69049 15.7415 1.94295 15.9308C2.19542 16.1202 2.55363 16.069 2.74297 15.8166L4.32591 13.7056C6.51573 15.3011 9.48499 15.3011 11.6748 13.7056L13.2577 15.8166C13.4471 16.069 13.8053 16.1202 14.0577 15.9308C14.3102 15.7415 14.3614 15.3833 14.172 15.1308L12.5389 12.9536ZM8.57186 8.61625C8.57186 8.7399 8.53175 8.86021 8.45758 8.95912L6.74322 11.2449C6.55387 11.4974 6.19567 11.5486 5.9432 11.3592C5.69073 11.1698 5.63954 10.8117 5.82892 10.5592L7.429 8.42596V5.18753C7.429 4.87191 7.68485 4.61607 8.00046 4.61607C8.31608 4.61607 8.57193 4.87191 8.57193 5.18753V8.61625H8.57186Z" fill="#FF6C0E"/>
<path d="M4.87694 0.879928C3.74714 -0.221748 1.93819 -0.198946 0.836477 0.930856C-0.245511 2.04047 -0.245645 3.81034 0.836209 4.92012C1.05938 5.14322 1.4211 5.14322 1.64423 4.92012L4.87694 1.68799C5.10004 1.46482 5.10004 1.1031 4.87694 0.879928Z" fill="#FF6C0E"/>
<path d="M15.1631 0.883453C14.0473 -0.231984 12.2386 -0.231984 11.1229 0.883453C10.8998 1.10662 10.8998 1.46834 11.1229 1.69148L14.355 4.92361C14.5782 5.14671 14.9399 5.14671 15.1631 4.92361C16.2785 3.80787 16.2785 1.99923 15.1631 0.883453Z" fill="#FF6C0E"/>
</svg>
