<svg width="12" height="12" viewBox="0 0 12 12" fill="none" xmlns="http://www.w3.org/2000/svg">
    <path d="M10.8002 3.19922H9.60021V7.59923C9.60021 8.12967 9.3895 8.63838 9.01443 9.01345C8.63935 9.38852 8.13064 9.59924 7.60021 9.59924H3.2002V10.7992C3.2002 11.1175 3.32662 11.4227 3.55167 11.6478C3.77671 11.8728 4.08194 11.9992 4.4002 11.9992H10.8002C11.1185 11.9992 11.4237 11.8728 11.6487 11.6478C11.8738 11.4227 12.0002 11.1175 12.0002 10.7992V4.39922C12.0002 4.08096 11.8738 3.77574 11.6487 3.55069C11.4237 3.32565 11.1185 3.19922 10.8002 3.19922Z" fill="#064DD6"/>
    <path d="M7.60002 0H1.2C0.53726 0 0 0.53726 0 1.2V7.60002C0 8.26277 0.53726 8.80003 1.2 8.80003H7.60002C8.26277 8.80003 8.80003 8.26277 8.80003 7.60002V1.2C8.80003 0.53726 8.26277 0 7.60002 0Z" fill="#064DD6"/>
</svg>