<svg width="9" height="12" viewBox="0 0 9 12" fill="none" xmlns="http://www.w3.org/2000/svg">
<path d="M0.101778 5.99085L3.83145 2.47518C4.00901 2.30832 4.38235 2.30832 4.55991 2.47518L8.28958 5.99085C8.4503 6.14261 8.41751 6.3637 8.21673 6.48524C8.01458 6.60747 7.72183 6.58139 7.56112 6.43031L4.19568 3.25762L0.830244 6.43031C0.667972 6.58221 0.375131 6.60602 0.17463 6.48524C-0.0261812 6.3637 -0.0589399 6.14261 0.101778 5.99085Z" fill="url(#paint0_linear_872_15692)"/>
<path d="M0.104189 8.2646L3.83386 4.74893C4.01142 4.58207 4.38476 4.58207 4.56229 4.74893L8.29196 8.2646C8.53548 8.49452 8.31795 8.8359 7.92773 8.8359H6.5291V11.6484C6.5291 11.8428 6.32058 12 6.06289 12H2.33322C2.07554 12 1.86702 11.8428 1.86702 11.6484V8.8359H0.46839C0.0781736 8.8359 -0.139328 8.49452 0.104189 8.2646ZM8.21911 4.13521C8.01696 4.25709 7.72421 4.23168 7.56349 4.08027L4.19806 0.907588L0.832623 4.08027C0.670352 4.23217 0.37748 4.25598 0.17701 4.13521C-0.0237703 4.01366 -0.0565605 3.79257 0.104157 3.64081L3.83383 0.12514C4.01139 -0.0417134 4.38473 -0.0417134 4.56226 0.12514L8.29193 3.64081C8.45268 3.79257 8.41989 4.01368 8.21911 4.13521Z" fill="url(#paint1_linear_872_15692)"/>
<defs>
<linearGradient id="paint0_linear_872_15692" x1="4.19565" y1="6.5625" x2="4.19565" y2="2.35004" gradientUnits="userSpaceOnUse">
<stop stop-color="#C3FFE8"/>
<stop offset="0.9973" stop-color="#F0FFF4"/>
</linearGradient>
<linearGradient id="paint1_linear_872_15692" x1="4.19806" y1="12" x2="4.19806" y2="5.72204e-06" gradientUnits="userSpaceOnUse">
<stop stop-color="#00B59C"/>
<stop offset="1" stop-color="#9CFFAC"/>
</linearGradient>
</defs>
</svg>
