<svg width="32" height="32" viewBox="0 0 151 160" fill="currentColor" xmlns="http://www.w3.org/2000/svg">
<g clip-path="url(#clip0_1214:3468)">
<path d="M97.4324 159.999H15.5649C6.87282 159.999 0 152.919 0 144.424V34.3858C0 25.6879 7.07497 18.8105 15.5649 18.8105H31.1299C31.9384 18.8105 32.3427 19.4174 32.3427 20.2265V24.4743C32.3427 25.6879 33.3534 26.6993 34.5663 26.6993H78.0268C79.2396 26.6993 80.2503 25.6879 80.2503 24.4743V20.2265C80.2503 19.4174 80.8568 18.8105 81.4632 18.8105H97.0281C105.72 18.8105 112.593 25.8902 112.593 34.3858V78.8864C112.593 79.0887 112.593 79.291 112.391 79.4932L92.3789 115.094L95.411 131.68L110.167 125.41L110.572 124.601C110.774 123.994 111.38 123.792 111.987 123.994C112.593 124.196 112.997 124.601 112.997 125.208V144.221C113.199 152.919 106.125 159.999 97.4324 159.999ZM15.5649 21.4401C8.48996 21.4401 2.62784 27.3061 2.62784 34.3858V144.221C2.62784 151.301 8.48996 157.167 15.5649 157.167H97.4324C104.507 157.167 110.369 151.301 110.369 144.221V128.039L95.0067 134.714C94.6024 134.917 94.1981 134.917 93.7938 134.714C93.3896 134.512 93.1874 134.108 93.1874 133.703L89.751 115.094C89.751 114.689 89.751 114.487 89.9531 114.285L110.572 78.6841V34.3858C110.572 27.3061 104.71 21.4401 97.6345 21.4401H83.2825V24.272C83.2825 26.9016 81.0589 29.1266 78.4311 29.1266H34.7684C32.1406 29.1266 29.917 26.9016 29.917 24.272V21.4401H15.5649Z" />
<path d="M78.4308 29.33H34.7682C32.1403 29.33 29.9167 27.1049 29.9167 24.4753V15.9798C29.9167 13.3502 32.1403 11.1252 34.7682 11.1252H44.2688C44.8752 4.85461 50.1309 0 56.5995 0C63.068 0 68.3237 4.85461 68.9301 11.1252H78.4308C81.0587 11.1252 83.2822 13.3502 83.2822 15.9798V24.4753C83.2822 27.1049 81.0587 29.33 78.4308 29.33ZM34.7682 13.7547C33.5553 13.7547 32.5446 14.7661 32.5446 15.9798V24.4753C32.5446 25.689 33.5553 26.7004 34.7682 26.7004H78.2287C79.4415 26.7004 80.4522 25.689 80.4522 24.4753V15.9798C80.4522 14.7661 79.4415 13.7547 78.2287 13.7547H67.5151C66.7066 13.7547 66.3023 13.1479 66.3023 12.3388C66.3023 6.87737 61.8552 2.62958 56.5995 2.62958C51.1416 2.62958 46.8967 7.07965 46.8967 12.3388C46.8967 13.1479 46.2902 13.7547 45.6838 13.7547H34.7682Z" />
<path d="M92.9856 58.8631H20.2146C19.406 58.8631 19.0017 58.2563 19.0017 57.4472C19.0017 56.6381 19.6081 56.0312 20.2146 56.0312H92.9856C93.7942 56.0312 94.1985 56.6381 94.1985 57.4472C94.1985 58.2563 93.5921 58.8631 92.9856 58.8631Z" />
<path d="M94.4006 134.717C94.1985 134.717 93.9963 134.717 93.7942 134.514C93.3899 134.312 93.1877 133.908 93.1877 133.503L89.7513 114.894C89.7513 114.489 89.7513 114.287 89.9535 114.085L127.754 48.7495C129.169 46.3222 131.595 44.9062 134.223 44.9062C135.638 44.9062 136.85 45.3108 138.063 45.9176L147.362 51.3791C151 53.4018 152.213 58.0542 150.192 61.6951L112.391 127.03C112.189 127.232 111.987 127.435 111.785 127.637L95.007 134.717C94.8049 134.717 94.6027 134.717 94.4006 134.717ZM92.3792 115.096L95.4113 131.682L110.168 125.412L147.766 60.2792C149.181 57.8519 148.372 54.8178 145.947 53.6041L136.648 48.1427C134.425 46.929 131.19 47.7381 129.978 49.9631L92.3792 115.096Z" />
<path d="M145.745 67.9655C145.542 67.9655 145.34 67.9655 145.138 67.7632L124.924 56.0312C124.318 55.6267 124.115 54.8176 124.52 54.2107C124.924 53.6039 125.733 53.4016 126.339 53.8062L146.553 65.5382C147.16 65.9427 147.362 66.7518 146.957 67.3586C146.553 67.7632 146.149 67.9655 145.745 67.9655Z" />
<path d="M111.179 127.636C110.976 127.636 110.774 127.636 110.572 127.434L90.358 115.904C89.7516 115.5 89.5495 114.691 89.9537 114.084C90.358 113.477 91.1666 113.275 91.773 113.679L111.987 125.209C112.594 125.613 112.796 126.423 112.391 127.029C111.987 127.434 111.583 127.636 111.179 127.636Z" />
<path d="M101.072 121.97C100.869 121.97 100.667 121.97 100.465 121.768C99.8587 121.364 99.6565 120.554 100.061 119.948L134.627 60.074C135.031 59.4672 135.84 59.2649 136.446 59.6695C137.053 60.074 137.255 60.8831 136.851 61.4899L102.284 121.161C102.082 121.768 101.678 121.97 101.072 121.97Z" />
<path d="M94.3999 84.3065H21.6289C20.8203 84.3065 20.416 83.6996 20.416 82.8905C20.416 82.0814 21.0224 81.4746 21.6289 81.4746H94.3999C95.2085 81.4746 95.6128 82.0814 95.6128 82.8905C95.8149 83.6996 95.2085 84.3065 94.3999 84.3065Z" />
<path d="M93.9839 108.832H21.2129C20.4043 108.832 20 108.225 20 107.416C20 106.607 20.6064 106 21.2129 106H93.9839C94.7925 106 95.1968 106.607 95.1968 107.416C95.3989 108.225 94.7925 108.832 93.9839 108.832Z" />
<path d="M94.1982 134.31H21.4271C20.6185 134.31 20.2142 133.704 20.2142 132.894C20.2142 132.085 20.8207 131.479 21.4271 131.479H94.1982C95.0067 131.479 95.411 132.085 95.411 132.894C95.6132 133.704 95.0067 134.31 94.1982 134.31Z" />
</g>
<defs>
<clipPath id="clip0_1214:3468">
<rect width="151" height="160" fill="currentColor"/>
</clipPath>
</defs>
</svg>
