<svg xmlns="http://www.w3.org/2000/svg" viewBox="0 0 61.15 61.15"><defs><style>.cls-1{fill:none;stroke:#064dd6;stroke-miterlimit:10;stroke-width:2px;}.cls-2{fill:#064dd6;}</style></defs><g id="Layer_2" data-name="Layer 2"><g id="OBJECTS"><circle class="cls-1" cx="30.58" cy="30.58" r="29.58" transform="translate(-3.53 57.16) rotate(-82.93)"/><path class="cls-2" d="M43.55,21.39H17.42a2.26,2.26,0,0,0-2.25,2.26V39.26a2.25,2.25,0,0,0,2.25,2.25H43.55a2.25,2.25,0,0,0,2.25-2.25V23.65A2.26,2.26,0,0,0,43.55,21.39ZM44,24,30.77,31.34a.54.54,0,0,1-.25.06h-.07a.54.54,0,0,1-.25-.06L17,24a.52.52,0,0,1,.51-.91l13,7.22,13-7.22A.52.52,0,1,1,44,24Z"/></g></g></svg>