<svg width="33" height="32" viewBox="0 0 33 32" fill="none" xmlns="http://www.w3.org/2000/svg">
<circle cx="16.5" cy="16" r="16" fill="white"/>
<path d="M24.5 8H8.5C7.4 8 6.5 8.9 6.5 10V22C6.5 23.1 7.4 24 8.5 24H24.5C25.6 24 26.5 23.1 26.5 22V10C26.5 8.9 25.6 8 24.5 8ZM24.1 12.25L17.56 16.34C16.91 16.75 16.09 16.75 15.44 16.34L8.9 12.25C8.65 12.09 8.5 11.82 8.5 11.53C8.5 10.86 9.23 10.46 9.8 10.81L16.5 15L23.2 10.81C23.77 10.46 24.5 10.86 24.5 11.53C24.5 11.82 24.35 12.09 24.1 12.25Z" fill="#064DD6"/>
</svg>
