<svg width="48" height="48" viewBox="0 0 48 48" fill="none" xmlns="http://www.w3.org/2000/svg">
<path d="M24 48C37.2548 48 48 37.2548 48 24C48 10.7452 37.2548 0 24 0C10.7452 0 0 10.7452 0 24C0 37.2548 10.7452 48 24 48Z" fill="#0971BD"/>
<path fill-rule="evenodd" clip-rule="evenodd" d="M12.8 17.1738C12.8 17.1738 22.4596 22.6515 24.3344 22.6515C26.2996 22.6515 35.8544 17.2784 35.8544 17.2784L35.8698 16.3184C35.8698 15.2586 35.0096 14.3984 33.9469 14.3984H14.722C13.6602 14.3984 12.8 15.2586 12.8 16.3184V17.1738ZM35.8544 20.1584C35.8544 20.1584 26.3898 25.2915 24.3344 25.2915C22.4596 25.2915 12.8144 20.1584 12.8154 20.1584L12.8 31.6784C12.8 32.7383 13.6612 33.5984 14.722 33.5984H33.9469C35.0096 33.5984 35.8698 32.7383 35.8698 31.6784L35.8544 20.1584Z" fill="white"/>
</svg>
