<svg width="12" height="13" viewBox="0 0 12 13" fill="none" xmlns="http://www.w3.org/2000/svg">
<path d="M6 11.191L8.8875 8.30347C9.45852 7.73239 9.84738 7.00481 10.0049 6.21273C10.1624 5.42065 10.0815 4.59965 9.77247 3.85354C9.4634 3.10744 8.94003 2.46973 8.26854 2.02107C7.59704 1.5724 6.80759 1.33293 6 1.33293C5.19241 1.33293 4.40296 1.5724 3.73147 2.02107C3.05998 2.46973 2.5366 3.10744 2.22753 3.85354C1.91846 4.59965 1.83758 5.42065 1.9951 6.21273C2.15262 7.00481 2.54148 7.73239 3.1125 8.30347L6 11.191ZM6 12.8406L2.28767 9.1283C1.55345 8.39408 1.05344 7.45861 0.850875 6.44022C0.648308 5.42182 0.752279 4.36622 1.14964 3.40691C1.547 2.4476 2.21991 1.62767 3.08327 1.0508C3.94662 0.473921 4.96165 0.166016 6 0.166016C7.03835 0.166016 8.05338 0.473921 8.91674 1.0508C9.7801 1.62767 10.453 2.4476 10.8504 3.40691C11.2477 4.36622 11.3517 5.42182 11.1491 6.44022C10.9466 7.45861 10.4466 8.39408 9.71234 9.1283L6 12.8406ZM6 6.58264C6.30942 6.58264 6.60617 6.45972 6.82496 6.24093C7.04375 6.02214 7.16667 5.72539 7.16667 5.41597C7.16667 5.10655 7.04375 4.8098 6.82496 4.59101C6.60617 4.37222 6.30942 4.2493 6 4.2493C5.69058 4.2493 5.39384 4.37222 5.17504 4.59101C4.95625 4.8098 4.83334 5.10655 4.83334 5.41597C4.83334 5.72539 4.95625 6.02214 5.17504 6.24093C5.39384 6.45972 5.69058 6.58264 6 6.58264ZM6 7.7493C5.38116 7.7493 4.78767 7.50347 4.35009 7.06589C3.9125 6.6283 3.66667 6.03481 3.66667 5.41597C3.66667 4.79713 3.9125 4.20364 4.35009 3.76605C4.78767 3.32847 5.38116 3.08264 6 3.08264C6.61884 3.08264 7.21233 3.32847 7.64992 3.76605C8.0875 4.20364 8.33334 4.79713 8.33334 5.41597C8.33334 6.03481 8.0875 6.6283 7.64992 7.06589C7.21233 7.50347 6.61884 7.7493 6 7.7493Z" fill="black"/>
</svg>
