<svg width="96" height="96" viewBox="0 0 96 96" fill="none" xmlns="http://www.w3.org/2000/svg">
<path d="M30.0511 57.1797C34.4091 58.302 37.9333 61.8128 41.9453 63.7267C45.9573 65.6407 50.4884 67.0047 54.9151 67.2265C65.7359 67.7743 69.5062 59.7191 74.3854 52.183C78.251 46.1949 88.4974 39.7144 85.0309 31.7524C81.5268 23.6884 69.6503 19.3326 61.8813 16.5847C54.7 14.0564 42.1893 9.898 35.8396 15.5534C28.594 22.0073 38.1639 34.5136 27.0238 36.7292C18.1237 38.5035 7.73985 43.0544 9.74032 53.3629C11.8628 64.2746 22.8565 55.3256 30.0511 57.1797Z" fill="#064DD6"/>
<path opacity="0.9" d="M30.0511 57.1797C34.4091 58.302 37.9333 61.8128 41.9453 63.7267C45.9573 65.6407 50.4884 67.0047 54.9151 67.2265C65.7359 67.7743 69.5062 59.7191 74.3854 52.183C78.251 46.1949 88.4974 39.7144 85.0309 31.7524C81.5268 23.6884 69.6503 19.3326 61.8813 16.5847C54.7 14.0564 42.1893 9.898 35.8396 15.5534C28.594 22.0073 38.1639 34.5136 27.0238 36.7292C18.1237 38.5035 7.73985 43.0544 9.74032 53.3629C11.8628 64.2746 22.8565 55.3256 30.0511 57.1797Z" fill="white"/>
<path d="M47.9933 83.818C71.7423 83.818 90.9946 82.694 90.9946 81.3074C90.9946 79.9209 71.7423 78.7969 47.9933 78.7969C24.2443 78.7969 4.99194 79.9209 4.99194 81.3074C4.99194 82.694 24.2443 83.818 47.9933 83.818Z" fill="#F5F5F5"/>
<path d="M73.6203 38.0797C73.6802 37.6043 73.6371 37.1216 73.4939 36.6643C73.3507 36.2071 73.1107 35.786 72.7902 35.4298C72.4697 35.0735 72.0763 34.7905 71.6367 34.5998C71.1971 34.4092 70.7216 34.3154 70.2426 34.3249H84.0729C84.5521 34.3151 85.0279 34.4086 85.4678 34.5991C85.9076 34.7896 86.3013 35.0726 86.622 35.4289C86.9427 35.7852 87.1829 36.2064 87.3263 36.6638C87.4697 37.1212 87.5128 37.6041 87.4528 38.0797H73.6203Z" fill="#FF6C0E"/>
<path opacity="0.2" d="M73.6203 38.0797C73.6802 37.6043 73.6371 37.1216 73.4939 36.6643C73.3507 36.2071 73.1107 35.786 72.7902 35.4298C72.4697 35.0735 72.0763 34.7905 71.6367 34.5998C71.1971 34.4092 70.7216 34.3154 70.2426 34.3249H84.0729C84.5521 34.3151 85.0279 34.4086 85.4678 34.5991C85.9076 34.7896 86.3013 35.0726 86.622 35.4289C86.9427 35.7852 87.1829 36.2064 87.3263 36.6638C87.4697 37.1212 87.5128 37.6041 87.4528 38.0797H73.6203Z" fill="black"/>
<path d="M70.2426 34.3281H84.0729C83.0474 34.3497 82.0644 34.7419 81.3057 35.4321C80.5469 36.1224 80.0638 37.064 79.9456 38.0829L78.7479 50.0769C78.6297 51.0956 78.1464 52.0369 77.3877 52.7268C76.6289 53.4167 75.6459 53.8084 74.6206 53.8294H68.2954C67.816 53.8407 67.3398 53.7483 66.8995 53.5584C66.4591 53.3685 66.0651 53.0857 65.7443 52.7293C65.4235 52.3729 65.1835 51.9513 65.0408 51.4935C64.8981 51.0357 64.8561 50.5524 64.9176 50.0769L66.113 38.0829C66.2317 37.0638 66.7153 36.1221 67.4744 35.4319C68.2336 34.7417 69.2169 34.3496 70.2426 34.3281Z" fill="#FF6C0E"/>
<path d="M71.2427 50.0742C71.1812 50.5498 71.2232 51.033 71.3659 51.4908C71.5086 51.9487 71.7486 52.3702 72.0694 52.7266C72.3902 53.083 72.7842 53.3659 73.2246 53.5558C73.6649 53.7457 74.1411 53.8381 74.6204 53.8268H60.7879C60.3085 53.8381 59.8323 53.7457 59.392 53.5558C58.9517 53.3659 58.5576 53.083 58.2368 52.7266C57.916 52.3702 57.6761 51.9487 57.5334 51.4908C57.3907 51.033 57.3487 50.5498 57.4102 50.0742H71.2427Z" fill="#FF6C0E"/>
<path opacity="0.2" d="M71.2427 50.0742C71.1812 50.5498 71.2232 51.033 71.3659 51.4908C71.5086 51.9487 71.7486 52.3702 72.0694 52.7266C72.3902 53.083 72.7842 53.3659 73.2246 53.5558C73.6649 53.7457 74.1411 53.8381 74.6204 53.8268H60.7879C60.3085 53.8381 59.8323 53.7457 59.392 53.5558C58.9517 53.3659 58.5576 53.083 58.2368 52.7266C57.916 52.3702 57.6761 51.9487 57.5334 51.4908C57.3907 51.033 57.3487 50.5498 57.4102 50.0742H71.2427Z" fill="black"/>
<path d="M67.9293 42.2929H77.2885C77.3689 42.2908 77.4459 42.2598 77.5053 42.2057C77.5648 42.1515 77.6028 42.0778 77.6123 41.9979V41.9669C77.6167 41.9295 77.6131 41.8916 77.6017 41.8558C77.5903 41.8199 77.5714 41.7869 77.5462 41.759C77.521 41.7311 77.4901 41.7088 77.4556 41.6938C77.4211 41.6788 77.3838 41.6713 77.3462 41.6719H67.9892C67.909 41.6741 67.8324 41.7051 67.7733 41.7593C67.7142 41.8135 67.6767 41.8872 67.6676 41.9669V41.9979C67.6632 42.0349 67.6667 42.0724 67.6779 42.1079C67.689 42.1435 67.7076 42.1763 67.7323 42.2041C67.757 42.232 67.7873 42.2543 67.8213 42.2696C67.8553 42.2849 67.8921 42.2928 67.9293 42.2929V42.2929Z" fill="white"/>
<path d="M67.7319 44.2304H77.0934C77.1738 44.2283 77.2507 44.1974 77.3102 44.1432C77.3696 44.089 77.4076 44.0153 77.4172 43.9354V43.9044C77.4216 43.867 77.418 43.8291 77.4066 43.7933C77.3952 43.7574 77.3762 43.7244 77.351 43.6965C77.3258 43.6686 77.2949 43.6463 77.2605 43.6313C77.226 43.6163 77.1886 43.6088 77.151 43.6094H67.7963C67.7159 43.6115 67.6389 43.6425 67.5795 43.6966C67.52 43.7508 67.482 43.8245 67.4725 43.9044V43.9354C67.4677 43.9723 67.4709 44.0097 67.4818 44.0453C67.4927 44.0808 67.511 44.1136 67.5355 44.1416C67.5601 44.1695 67.5903 44.1918 67.6242 44.2071C67.658 44.2225 67.6948 44.2304 67.7319 44.2304V44.2304Z" fill="white"/>
<path d="M67.5413 46.1679H76.9027C76.9827 46.1659 77.0594 46.1352 77.1188 46.0815C77.1782 46.0278 77.2164 45.9546 77.2265 45.8751V45.8419C77.2313 45.8046 77.228 45.7668 77.2168 45.731C77.2057 45.6951 77.187 45.6621 77.1619 45.6341C77.1369 45.6061 77.1061 45.5838 77.0717 45.5688C77.0373 45.5537 77.0001 45.5463 76.9626 45.5469H67.6034C67.523 45.549 67.446 45.58 67.3866 45.6341C67.3271 45.6883 67.2891 45.762 67.2796 45.8419V45.8751C67.2752 45.912 67.2786 45.9494 67.2898 45.9849C67.301 46.0203 67.3195 46.0529 67.3443 46.0806C67.3691 46.1083 67.3994 46.1304 67.4334 46.1455C67.4673 46.1605 67.5041 46.1682 67.5413 46.1679V46.1679Z" fill="white"/>
<path d="M69.5062 48.1032H76.7031C76.7833 48.1017 76.8602 48.0712 76.9197 48.0174C76.9792 47.9636 77.0172 47.8901 77.0269 47.8105V47.7772C77.0317 47.7401 77.0284 47.7023 77.0172 47.6666C77.0061 47.6308 76.9873 47.5979 76.9623 47.5701C76.9372 47.5423 76.9064 47.5202 76.872 47.5055C76.8376 47.4907 76.8004 47.4835 76.7629 47.4845H69.575C69.4948 47.486 69.4178 47.5165 69.3583 47.5703C69.2988 47.6241 69.2608 47.6976 69.2512 47.7772V47.8105C69.2465 47.8469 69.2495 47.8838 69.2602 47.919C69.2708 47.9541 69.2888 47.9865 69.3129 48.0142C69.337 48.0419 69.3667 48.0641 69.4 48.0794C69.4333 48.0948 69.4695 48.1029 69.5062 48.1032Z" fill="white"/>
<path d="M68.3153 38.4218H77.6767C77.7571 38.4197 77.8341 38.3887 77.8935 38.3346C77.953 38.2804 77.9909 38.2067 78.0005 38.1268V38.0936C78.0049 38.0565 78.0014 38.0189 77.9901 37.9833C77.9788 37.9477 77.96 37.915 77.935 37.8872C77.91 37.8595 77.8794 37.8375 77.8452 37.8226C77.8109 37.8076 77.7739 37.8002 77.7366 37.8008H68.3774C68.2973 37.8028 68.2206 37.8335 68.1612 37.8872C68.1018 37.9409 68.0636 38.0141 68.0536 38.0936V38.1268C68.0492 38.1638 68.0527 38.2013 68.0639 38.2369C68.075 38.2724 68.0935 38.3052 68.1183 38.333C68.143 38.3609 68.1733 38.3832 68.2073 38.3985C68.2412 38.4138 68.278 38.4217 68.3153 38.4218V38.4218Z" fill="white"/>
<path d="M68.1224 40.3593H77.4905C77.5706 40.3571 77.6473 40.3261 77.7064 40.2719C77.7655 40.2177 77.803 40.144 77.8121 40.0643V40.0333C77.8165 39.9961 77.8129 39.9584 77.8016 39.9227C77.7904 39.887 77.7716 39.8541 77.7466 39.8262C77.7217 39.7983 77.6911 39.7761 77.6569 39.7609C77.6226 39.7457 77.5856 39.738 77.5481 39.7383H68.1756C68.0952 39.7404 68.0183 39.7713 67.9588 39.8255C67.8994 39.8797 67.8614 39.9534 67.8518 40.0333V40.0643C67.8473 40.102 67.851 40.1403 67.8627 40.1765C67.8744 40.2127 67.8937 40.2459 67.9194 40.2739C67.9451 40.3019 67.9765 40.324 68.0116 40.3388C68.0466 40.3535 68.0844 40.3605 68.1224 40.3593V40.3593Z" fill="white"/>
<path d="M39.3284 34.7109L38.4834 43.1742C38.4608 43.3338 38.4732 43.4964 38.5199 43.6507C38.5665 43.805 38.6462 43.9472 38.7535 44.0676C38.8607 44.1879 38.9929 44.2834 39.1409 44.3474C39.2888 44.4115 39.4489 44.4425 39.61 44.4383H58.874C59.2159 44.43 59.5434 44.2988 59.7964 44.0686C60.0493 43.8385 60.2108 43.5248 60.2513 43.1852L61.0963 34.722C61.1127 34.5645 61.0969 34.4053 61.0497 34.2541C60.9793 34.0233 60.8355 33.8217 60.6402 33.6801C60.4449 33.5384 60.2087 33.4643 59.9674 33.469H40.7056C40.4475 33.475 40.1958 33.551 39.9774 33.6889C39.7591 33.8267 39.5823 34.0213 39.4659 34.2519C39.3926 34.3953 39.346 34.5509 39.3284 34.7109V34.7109Z" fill="#064DD6"/>
<path opacity="0.3" d="M39.4659 34.2384L48.4082 40.9318C48.755 41.1736 49.1676 41.3032 49.5903 41.3032C50.013 41.3032 50.4256 41.1736 50.7724 40.9318L61.0498 34.2384C60.9794 34.0076 60.8356 33.8061 60.6403 33.6644C60.4449 33.5227 60.2087 33.4486 59.9675 33.4533H40.7057C40.4473 33.4596 40.1955 33.5359 39.9771 33.6742C39.7587 33.8125 39.582 34.0075 39.4659 34.2384Z" fill="black"/>
<path d="M43.6952 35.4874H54.0524C54.5078 35.4771 54.9442 35.3027 55.2812 34.9963C55.6182 34.6898 55.8332 34.2719 55.8866 33.8196L57.3836 18.836C57.4093 18.6249 57.3894 18.4107 57.3254 18.208C57.2614 18.0052 57.1546 17.8185 57.0123 17.6604C56.87 17.5024 56.6956 17.3767 56.5006 17.2918C56.3056 17.2069 56.0947 17.1647 55.8821 17.1682H45.5249C45.0695 17.1784 44.6331 17.3528 44.2961 17.6592C43.9591 17.9657 43.7441 18.3836 43.6908 18.836L42.1959 33.8196C42.1695 34.0306 42.1888 34.2449 42.2524 34.4478C42.316 34.6507 42.4226 34.8376 42.5647 34.9958C42.7069 35.154 42.8815 35.2797 43.0765 35.3645C43.2715 35.4494 43.4825 35.4912 43.6952 35.4874V35.4874Z" fill="#064DD6"/>
<path opacity="0.5" d="M43.6952 35.4874H54.0524C54.5078 35.4771 54.9442 35.3027 55.2812 34.9963C55.6182 34.6898 55.8332 34.2719 55.8866 33.8196L57.3836 18.836C57.4093 18.6249 57.3894 18.4107 57.3254 18.208C57.2614 18.0052 57.1546 17.8185 57.0123 17.6604C56.87 17.5024 56.6956 17.3767 56.5006 17.2918C56.3056 17.2069 56.0947 17.1647 55.8821 17.1682H45.5249C45.0695 17.1784 44.6331 17.3528 44.2961 17.6592C43.9591 17.9657 43.7441 18.3836 43.6908 18.836L42.1959 33.8196C42.1695 34.0306 42.1888 34.2449 42.2524 34.4478C42.316 34.6507 42.4226 34.8376 42.5647 34.9958C42.7069 35.154 42.8815 35.2797 43.0765 35.3645C43.2715 35.4494 43.4825 35.4912 43.6952 35.4874V35.4874Z" fill="white"/>
<path d="M45.4695 25.2302H54.3297C54.4317 25.2276 54.5295 25.1883 54.6049 25.1195C54.6802 25.0506 54.7282 24.9568 54.74 24.8554V24.8554C54.746 24.8079 54.7418 24.7597 54.7275 24.714C54.7133 24.6683 54.6893 24.6263 54.6573 24.5907C54.6253 24.5551 54.586 24.5268 54.5421 24.5078C54.4982 24.4888 54.4507 24.4795 54.4028 24.4805H45.5537C45.4516 24.4825 45.3536 24.5213 45.2778 24.5897C45.202 24.6582 45.1535 24.7517 45.1412 24.8531V24.8531C45.1353 24.9 45.1393 24.9475 45.153 24.9927C45.1667 25.0378 45.1899 25.0796 45.2209 25.1152C45.2519 25.1508 45.29 25.1795 45.3329 25.1993C45.3757 25.2191 45.4223 25.2296 45.4695 25.2302Z" fill="white"/>
<path d="M45.2366 27.5639H54.0968C54.1989 27.5614 54.2966 27.522 54.372 27.4532C54.4474 27.3843 54.4954 27.2905 54.5071 27.1891V27.1891C54.5128 27.1418 54.5083 27.0938 54.4939 27.0484C54.4795 27.003 54.4555 26.9612 54.4235 26.9259C54.3916 26.8906 54.3524 26.8625 54.3086 26.8436C54.2649 26.8248 54.2176 26.8155 54.17 26.8165H45.2987C45.1968 26.8185 45.0991 26.8573 45.0237 26.9258C44.9483 26.9943 44.9002 27.0879 44.8884 27.1891C44.8826 27.2374 44.8873 27.2865 44.9024 27.3328C44.9174 27.3791 44.9424 27.4216 44.9755 27.4573C45.0087 27.493 45.0492 27.521 45.0943 27.5394C45.1394 27.5578 45.188 27.5662 45.2366 27.5639V27.5639Z" fill="white"/>
<path d="M53.8994 29.1484H45.0414C44.8344 29.1484 44.6666 29.3157 44.6666 29.5221C44.6666 29.7285 44.8344 29.8958 45.0414 29.8958H53.8994C54.1064 29.8958 54.2742 29.7285 54.2742 29.5221C54.2742 29.3157 54.1064 29.1484 53.8994 29.1484Z" fill="white"/>
<path d="M46.86 32.2419H53.6288C53.7313 32.2398 53.8295 32.2008 53.9054 32.1318C53.9812 32.0629 54.0295 31.9688 54.0413 31.867C54.047 31.8196 54.0425 31.7716 54.0281 31.7261C54.0137 31.6805 53.9897 31.6386 53.9578 31.6031C53.9259 31.5676 53.8867 31.5394 53.843 31.5202C53.7992 31.5011 53.7519 31.4916 53.7042 31.4922H46.9354C46.8329 31.4942 46.7347 31.5333 46.6588 31.6022C46.583 31.6711 46.5347 31.7652 46.5229 31.867V31.867C46.5172 31.9144 46.5217 31.9625 46.5361 32.008C46.5505 32.0535 46.5745 32.0954 46.6064 32.1309C46.6383 32.1664 46.6775 32.1947 46.7212 32.2138C46.765 32.233 46.8123 32.2425 46.86 32.2419V32.2419Z" fill="white"/>
<path d="M45.9353 20.5571H54.8066C54.9086 20.5545 55.0064 20.5152 55.0818 20.4463C55.1571 20.3775 55.2051 20.2837 55.2169 20.1822V20.1822C55.221 20.1349 55.215 20.0871 55.1992 20.0423C55.1833 19.9974 55.1581 19.9565 55.1251 19.9222C55.0921 19.8879 55.0521 19.8612 55.0079 19.8436C54.9636 19.8261 54.9162 19.8183 54.8687 19.8207H46.0107C45.9087 19.8231 45.811 19.8621 45.7352 19.9304C45.6595 19.9988 45.6109 20.0921 45.5982 20.1933V20.1933C45.5941 20.2399 45.5999 20.2867 45.6151 20.3309C45.6302 20.3751 45.6545 20.4156 45.6862 20.4498C45.7179 20.4841 45.7565 20.5113 45.7994 20.5298C45.8423 20.5482 45.8886 20.5575 45.9353 20.5571V20.5571Z" fill="white"/>
<path d="M45.7024 22.892H54.5737C54.6758 22.8895 54.7735 22.8502 54.8489 22.7813C54.9243 22.7124 54.9723 22.6186 54.984 22.5172V22.5172C54.9897 22.4699 54.9853 22.4219 54.9708 22.3765C54.9564 22.3311 54.9324 22.2893 54.9005 22.254C54.8685 22.2187 54.8293 22.1906 54.7856 22.1718C54.7418 22.1529 54.6945 22.1436 54.6469 22.1446H45.7756C45.6735 22.1465 45.5755 22.1853 45.4997 22.2538C45.4239 22.3222 45.3754 22.4158 45.3631 22.5172C45.3574 22.5648 45.3619 22.613 45.3765 22.6587C45.391 22.7044 45.4152 22.7464 45.4473 22.7819C45.4795 22.8175 45.5189 22.8457 45.5629 22.8647C45.6069 22.8837 45.6545 22.893 45.7024 22.892V22.892Z" fill="white"/>
<path d="M51.8058 59.2796L52.3669 53.6641C52.3869 53.4986 52.3712 53.3307 52.3209 53.1717C52.2706 53.0127 52.1868 52.8663 52.0753 52.7424C51.9637 52.6184 51.827 52.5198 51.6741 52.4531C51.5213 52.3864 51.356 52.3531 51.1893 52.3556H39.4348C39.0775 52.3638 38.7352 52.5007 38.4708 52.7411C38.2063 52.9815 38.0376 53.3092 37.9955 53.6641L37.4343 59.2796C37.414 59.4452 37.4295 59.6133 37.4796 59.7724C37.5298 59.9316 37.6135 60.0781 37.7251 60.2021C37.8367 60.3262 37.9737 60.4248 38.1267 60.4914C38.2797 60.558 38.4452 60.591 38.612 60.5881H50.3665C50.7239 60.5804 51.0664 60.4437 51.331 60.2032C51.5955 59.9627 51.7642 59.6347 51.8058 59.2796V59.2796Z" fill="#064DD6"/>
<path d="M44.7732 57.712C44.8243 57.7121 44.8743 57.6975 44.9174 57.6699L51.349 53.8463C51.4105 53.8124 51.4567 53.7565 51.4785 53.6898C51.5004 53.6232 51.4961 53.5507 51.4666 53.487C51.4496 53.4577 51.4267 53.4322 51.3994 53.412C51.3722 53.3918 51.3411 53.3774 51.308 53.3697C51.275 53.3621 51.2407 53.3612 51.2073 53.3673C51.174 53.3733 51.1422 53.3862 51.114 53.405L44.8397 57.142L39.3107 53.405C39.2504 53.3692 39.1788 53.3577 39.1103 53.373C39.0419 53.3882 38.9819 53.429 38.9425 53.487C38.921 53.5133 38.905 53.5436 38.8956 53.5763C38.8863 53.6089 38.8837 53.6431 38.888 53.6768C38.8924 53.7104 38.9036 53.7429 38.921 53.772C38.9384 53.8012 38.9616 53.8265 38.9891 53.8463L44.6468 57.6699C44.6836 57.6966 44.7277 57.7113 44.7732 57.712V57.712Z" fill="white"/>
<path d="M81.498 24.3127L82.2122 17.1602C82.2379 16.9491 82.218 16.7349 82.154 16.5322C82.0899 16.3294 81.9832 16.1427 81.8409 15.9847C81.6986 15.8266 81.5241 15.7009 81.3292 15.616C81.1342 15.5311 80.9233 15.4889 80.7107 15.4924H65.7359C65.2808 15.5035 64.8449 15.6782 64.5081 15.9845C64.1713 16.2908 63.956 16.7082 63.9018 17.1602L63.1877 24.3149C63.162 24.526 63.1818 24.7401 63.2458 24.9429C63.3099 25.1457 63.4166 25.3324 63.5589 25.4904C63.7012 25.6484 63.8757 25.7742 64.0707 25.8591C64.2656 25.944 64.4765 25.9861 64.6891 25.9827H79.6639C80.1194 25.9715 80.5555 25.7964 80.8924 25.4897C81.2293 25.183 81.4443 24.7651 81.498 24.3127V24.3127Z" fill="#064DD6"/>
<path opacity="0.5" d="M81.498 24.3127L82.2122 17.1602C82.2379 16.9491 82.218 16.7349 82.154 16.5322C82.0899 16.3294 81.9832 16.1427 81.8409 15.9847C81.6986 15.8266 81.5241 15.7009 81.3292 15.616C81.1342 15.5311 80.9233 15.4889 80.7107 15.4924H65.7359C65.2808 15.5035 64.8449 15.6782 64.5081 15.9845C64.1713 16.2908 63.956 16.7082 63.9018 17.1602L63.1877 24.3149C63.162 24.526 63.1818 24.7401 63.2458 24.9429C63.3099 25.1457 63.4166 25.3324 63.5589 25.4904C63.7012 25.6484 63.8757 25.7742 64.0707 25.8591C64.2656 25.944 64.4765 25.9861 64.6891 25.9827H79.6639C80.1194 25.9715 80.5555 25.7964 80.8924 25.4897C81.2293 25.183 81.4443 24.7651 81.498 24.3127Z" fill="black"/>
<path d="M72.5358 22.3133C72.6009 22.3129 72.6646 22.2945 72.7199 22.2601L80.9036 17.3809C80.9816 17.3376 81.0402 17.2664 81.0678 17.1817C81.0953 17.0969 81.0898 17.0049 81.0522 16.924C81.0304 16.8875 81.0015 16.8558 80.9672 16.8307C80.9329 16.8056 80.8939 16.7877 80.8525 16.7779C80.8111 16.7682 80.7682 16.7669 80.7264 16.7741C80.6845 16.7813 80.6444 16.7968 80.6087 16.8198L72.6112 21.5947L65.5652 16.8264C65.489 16.7803 65.3979 16.7652 65.3109 16.7842C65.2238 16.8032 65.1474 16.8548 65.0972 16.9285C65.0696 16.9618 65.049 17.0005 65.0369 17.0422C65.0247 17.0838 65.0212 17.1275 65.0266 17.1705C65.032 17.2135 65.0462 17.255 65.0683 17.2923C65.0903 17.3296 65.1198 17.3621 65.1549 17.3875L72.3628 22.2667C72.4145 22.2992 72.4748 22.3154 72.5358 22.3133V22.3133Z" fill="white"/>
<path d="M24.9724 24.1695C24.4135 25.152 23.8502 26.1655 23.309 27.1746C22.7679 28.1837 22.2422 29.1973 21.7765 30.213C21.6656 30.4637 21.5547 30.7187 21.446 30.9693L21.3706 31.1578L21.3307 31.251V31.2754V31.251C21.3484 31.1609 21.3484 31.0683 21.3307 30.9782C21.2904 30.8057 21.1964 30.6504 21.0624 30.5346C20.9995 30.4773 20.9232 30.4369 20.8406 30.4171C20.8117 30.4171 20.8206 30.4171 20.8406 30.4171C20.9196 30.4371 21.0008 30.4467 21.0823 30.4459C21.3277 30.4454 21.5729 30.4299 21.8164 30.3993C22.8743 30.2663 24.0231 30.0112 25.1431 29.7761L25.6045 30.9649C24.5358 31.5654 23.4037 32.0452 22.2289 32.3954C21.9018 32.492 21.5672 32.5617 21.2287 32.6039C21.0183 32.6303 20.806 32.637 20.5944 32.6238C20.4488 32.6116 20.3048 32.5856 20.1641 32.5462C19.942 32.4843 19.7361 32.3746 19.5609 32.2246C19.3142 32.0117 19.145 31.7232 19.0796 31.404C19.0345 31.1699 19.039 30.9288 19.0929 30.6965L19.124 30.5745L19.1417 30.5147V30.4881L19.1772 30.3749L19.2504 30.1532C19.3458 29.8493 19.4567 29.5677 19.5609 29.2771C20.0045 28.1372 20.5035 27.0482 21.038 25.9814C21.5725 24.9147 22.1469 23.8834 22.7679 22.8477L24.9724 24.1695Z" fill="#FFC3BD"/>
<path d="M31.5283 16.5936C31.4928 16.7267 31.5283 16.8531 31.6236 16.8753C31.719 16.8975 31.8077 16.8065 31.8454 16.6735C31.8831 16.5404 31.8454 16.4162 31.75 16.394C31.6547 16.3718 31.5615 16.4606 31.5283 16.5936Z" fill="#263238"/>
<path d="M31.5238 16.8477C31.5799 17.2938 31.6963 17.7303 31.8698 18.1451C31.7626 18.1873 31.6474 18.2054 31.5325 18.1981C31.4175 18.1909 31.3055 18.1584 31.2045 18.1029L31.5238 16.8477Z" fill="#ED847E"/>
<path d="M31.2288 15.7303C31.2195 15.726 31.2112 15.7198 31.2044 15.7122C31.1975 15.7045 31.1923 15.6956 31.1889 15.686C31.1849 15.6762 31.1829 15.6658 31.183 15.6553C31.1831 15.6447 31.1852 15.6343 31.1894 15.6246C31.1935 15.615 31.1995 15.6062 31.207 15.5988C31.2145 15.5915 31.2234 15.5857 31.2332 15.5818C31.3514 15.5325 31.4796 15.512 31.6072 15.522C31.7349 15.532 31.8583 15.5723 31.9673 15.6394C31.9844 15.6522 31.9959 15.6712 31.9992 15.6924C32.0025 15.7135 31.9974 15.7351 31.9851 15.7525C31.9726 15.7695 31.954 15.7809 31.9333 15.7842C31.9125 15.7875 31.8913 15.7825 31.8742 15.7703V15.7703C31.7872 15.7186 31.6892 15.6882 31.5882 15.6816C31.4872 15.6751 31.3861 15.6925 31.2931 15.7326C31.2828 15.7367 31.2718 15.7386 31.2607 15.7382C31.2496 15.7378 31.2388 15.7352 31.2288 15.7303V15.7303Z" fill="#263238"/>
<path d="M27.4407 17.3086C27.0925 18.5728 27.2433 20.3514 26.2098 21.1809C26.2098 21.1809 26.303 22.4428 28.6117 22.4428C31.1534 22.4428 30.0755 21.1809 30.0755 21.1809C28.7448 20.8505 28.991 19.8214 29.4235 18.8544L27.4407 17.3086Z" fill="#FFC3BD"/>
<path d="M26.119 21.4618C25.9349 21.2178 25.7331 20.9406 26.1522 20.8541C26.6113 20.7565 29.1263 20.6589 29.9935 20.8385C30.8607 21.0182 30.6167 21.5039 30.6167 21.5039L26.119 21.4618Z" fill="#263238"/>
<path d="M18.7491 78.8276C18.8177 78.8521 18.8904 78.8628 18.9632 78.859C19.0359 78.8551 19.1071 78.8369 19.1727 78.8054C19.198 78.7824 19.2153 78.752 19.2225 78.7186C19.2297 78.6852 19.2262 78.6504 19.2127 78.6191C19.2052 78.5927 19.192 78.5683 19.1739 78.5476C19.1559 78.5269 19.1336 78.5104 19.1084 78.4993C18.8866 78.3907 18.3521 78.6058 18.33 78.6147C18.3228 78.6177 18.3166 78.6226 18.3119 78.6288C18.3072 78.6351 18.3043 78.6424 18.3034 78.6501C18.3032 78.6581 18.3054 78.666 18.3097 78.6727C18.3141 78.6795 18.3204 78.6847 18.3278 78.6878C18.4629 78.7492 18.6041 78.796 18.7491 78.8276V78.8276ZM19.0264 78.557L19.0729 78.5725C19.0878 78.5786 19.1011 78.5879 19.1119 78.5998C19.1226 78.6117 19.1305 78.6259 19.135 78.6413C19.1572 78.7145 19.135 78.7366 19.1217 78.7433C19.0286 78.8209 18.6893 78.7433 18.4564 78.6546C18.6367 78.5798 18.8315 78.5465 19.0264 78.557V78.557Z" fill="#064DD6"/>
<path d="M18.3366 78.6919H18.3565C18.5473 78.6365 18.9598 78.3437 18.9642 78.1508C18.9645 78.1207 18.9546 78.0913 18.9361 78.0675C18.9176 78.0438 18.8915 78.027 18.8622 78.02C18.8328 78.0098 18.8017 78.006 18.7707 78.0086C18.7398 78.0113 18.7097 78.0205 18.6826 78.0355C18.4608 78.1508 18.3122 78.621 18.3055 78.6409C18.3018 78.6469 18.2998 78.6538 18.2998 78.6609C18.2998 78.668 18.3018 78.6749 18.3055 78.6809C18.3084 78.6863 18.3131 78.6904 18.3189 78.6924C18.3246 78.6945 18.3309 78.6943 18.3366 78.6919V78.6919ZM18.8178 78.0909H18.8356C18.8844 78.1064 18.8844 78.1308 18.8844 78.1419C18.8844 78.2573 18.6094 78.4857 18.4098 78.5855C18.4632 78.3984 18.5713 78.2316 18.7203 78.1064C18.7498 78.0896 18.7845 78.084 18.8178 78.0909V78.0909Z" fill="#064DD6"/>
<path d="M30.987 79.6629C31.2087 79.6629 31.4172 79.6319 31.4882 79.5343C31.5064 79.5087 31.5162 79.4781 31.5162 79.4467C31.5162 79.4153 31.5064 79.3847 31.4882 79.3591C31.4747 79.3348 31.4563 79.3135 31.4342 79.2967C31.412 79.2799 31.3866 79.2679 31.3596 79.2615C31.0757 79.1839 30.4724 79.5232 30.4569 79.5387C30.4498 79.5424 30.444 79.5483 30.4404 79.5554C30.4368 79.5626 30.4356 79.5708 30.4369 79.5787C30.4378 79.5868 30.4413 79.5945 30.4469 79.6005C30.4525 79.6065 30.4599 79.6105 30.468 79.6119C30.6391 79.6443 30.8128 79.6614 30.987 79.6629V79.6629ZM31.2575 79.3325C31.2833 79.3289 31.3094 79.3289 31.3352 79.3325C31.3516 79.3364 31.3671 79.3435 31.3808 79.3534C31.3945 79.3633 31.4061 79.3758 31.415 79.3902C31.4416 79.4389 31.4327 79.4633 31.415 79.4789C31.3352 79.5875 30.9071 79.5898 30.59 79.5454C30.7967 79.4322 31.0234 79.3599 31.2575 79.3325V79.3325Z" fill="#064DD6"/>
<path d="M30.4726 79.6145H30.4881C30.6944 79.5213 31.1002 79.1554 31.0692 78.9624C31.0692 78.9181 31.0293 78.8604 30.9184 78.8493C30.8787 78.8451 30.8385 78.849 30.8004 78.8608C30.7622 78.8726 30.7269 78.8921 30.6966 78.9181C30.4748 79.0955 30.4349 79.5546 30.4327 79.5834C30.4318 79.5902 30.4328 79.5971 30.4355 79.6033C30.4383 79.6096 30.4426 79.615 30.4482 79.6189C30.4566 79.6197 30.465 79.6181 30.4726 79.6145V79.6145ZM30.8873 78.9247H30.9162C30.9871 78.9247 30.9938 78.9624 30.9938 78.9713C31.0137 79.0866 30.7365 79.375 30.528 79.5014C30.5463 79.3076 30.6237 79.1241 30.7498 78.9758C30.7891 78.9432 30.8385 78.9252 30.8896 78.9247H30.8873Z" fill="#064DD6"/>
<path d="M28.6051 79.575H30.3062L30.4747 75.6406H28.7759L28.6051 79.575Z" fill="#FFC3BD"/>
<path d="M16.4404 78.2403L18.1016 78.5996L19.7716 74.9335L18.1082 74.5742L16.4404 78.2403Z" fill="#FFC3BD"/>
<path d="M18.2612 78.4351L16.396 78.0315C16.3631 78.0234 16.3283 78.0272 16.2979 78.0422C16.2675 78.0572 16.2433 78.0825 16.2297 78.1136L15.5821 79.5197C15.5667 79.554 15.5592 79.5914 15.5603 79.629C15.5613 79.6666 15.5708 79.7036 15.5881 79.737C15.6053 79.7705 15.6299 79.7996 15.66 79.8222C15.69 79.8449 15.7248 79.8605 15.7617 79.8679C16.4271 79.9965 16.7398 80.0275 17.5604 80.205C18.066 80.3136 19.206 80.5909 19.9024 80.7417C20.5988 80.8925 20.8405 80.2249 20.5677 80.1007C19.3501 79.5418 18.84 79.0517 18.5096 78.5948C18.4496 78.5124 18.361 78.4555 18.2612 78.4351V78.4351Z" fill="#263238"/>
<path d="M30.2951 79.3789H28.4388C28.4049 79.3786 28.3719 79.3898 28.3453 79.4108C28.3186 79.4318 28.3 79.4612 28.2924 79.4942L27.9575 81.0046C27.9491 81.041 27.9491 81.0789 27.9575 81.1153C27.9658 81.1518 27.9824 81.1858 28.0059 81.2149C28.0295 81.244 28.0593 81.2673 28.0932 81.2831C28.127 81.299 28.1641 81.3069 28.2015 81.3062C28.8668 81.2951 29.8382 81.2574 30.681 81.2574C31.6635 81.2574 32.5151 81.3107 33.6684 81.3107C34.367 81.3107 34.5555 80.6054 34.2672 80.5411C32.9365 80.2505 31.852 80.2195 30.7032 79.5098C30.5817 79.4296 30.4405 79.3843 30.2951 79.3789V79.3789Z" fill="#263238"/>
<path d="M23.4244 21.5635C21.832 21.9294 20.865 24.8281 20.865 24.8281L23.5973 27.8798C24.2228 26.9071 24.7987 25.9033 25.3228 24.8725C26.2587 22.8853 25.0522 21.1909 23.4244 21.5635Z" fill="#064DD6"/>
<path opacity="0.3" d="M24.1362 24.2882C23.6926 24.9181 23.2845 25.8407 23.7436 27.6327C24.1029 27.0561 24.4555 26.4661 24.7594 25.9316C24.8414 24.459 24.5598 23.7803 24.1362 24.2882Z" fill="black"/>
<path d="M33.3557 22.6844C33.7637 24.2369 34.1718 27.9739 33.043 36.3418H23.9499C23.8878 34.9468 24.7638 28.1359 23.4176 21.5644C24.4225 21.3709 25.4389 21.2428 26.4605 21.1808C27.7479 21.1064 29.0386 21.1064 30.3261 21.1808C30.9081 21.2367 31.4864 21.3256 32.0582 21.4469C32.3687 21.511 32.6549 21.6609 32.8843 21.8797C33.1137 22.0985 33.277 22.3773 33.3557 22.6844V22.6844Z" fill="#064DD6"/>
<path opacity="0.3" d="M33.4178 22.9305C31.9163 21.5554 30.8074 21.4889 30.5058 22.9992C29.8737 26.164 33.5974 29.5728 33.7061 29.6704C33.899 26.0931 33.6728 24.0549 33.4178 22.9305Z" fill="black"/>
<path d="M32.4686 22.1523C32.9565 22.6935 33.4156 23.2435 33.8836 23.7935C34.3515 24.3435 34.804 24.9024 35.2497 25.4702C35.6955 26.038 36.1369 26.6079 36.5804 27.1934C37.024 27.779 37.4409 28.3711 37.8535 29.001L37.126 28.5286C37.492 28.6217 37.8601 28.7215 38.2349 28.7992C38.6097 28.8768 38.9956 28.9566 39.3815 29.0209C39.7674 29.0853 40.16 29.1518 40.5548 29.2117C40.9495 29.2715 41.351 29.3226 41.7302 29.3802L41.8101 30.6533C41.3665 30.7531 40.9606 30.8085 40.5326 30.875C40.1046 30.9416 39.681 30.9504 39.2507 30.966C38.3809 30.993 37.5104 30.944 36.6492 30.8196L36.2455 30.7597L35.9328 30.3472C35.5225 29.806 35.0723 29.2649 34.6288 28.7215L33.2648 27.1003L30.5103 23.8534L32.4686 22.1523Z" fill="#FFC3BD"/>
<path d="M47.1904 18.4775C46.0892 18.2261 44.9343 18.379 43.9364 18.9083C42.9385 19.4375 42.1641 20.3079 41.7546 21.3606C40.9584 23.5053 42.1005 25.6965 44.305 26.2531C45.4063 26.5045 46.5612 26.3516 47.5591 25.8224C48.557 25.2931 49.3314 24.4227 49.7409 23.37C49.9378 22.8837 50.0268 22.3604 50.0016 21.8364C49.9765 21.3124 49.8379 20.8 49.5953 20.3348C49.3528 19.8696 49.0122 19.4626 48.597 19.1419C48.1817 18.8212 47.7018 18.5945 47.1904 18.4775V18.4775ZM44.529 25.6322C44.0987 25.5334 43.6948 25.3425 43.3454 25.0725C42.996 24.8025 42.7093 24.4599 42.5052 24.0683C42.3011 23.6768 42.1844 23.2456 42.1632 22.8045C42.1419 22.3634 42.2167 21.923 42.3822 21.5137C42.7282 20.6288 43.3804 19.8976 44.2202 19.4531C45.0599 19.0086 46.0313 18.8804 46.9576 19.0918C47.3878 19.1908 47.7913 19.3819 48.1405 19.652C48.4897 19.9221 48.7761 20.2648 48.9799 20.6563C49.1838 21.0479 49.3003 21.479 49.3214 21.9199C49.3425 22.3608 49.2677 22.8011 49.1022 23.2103C48.7559 24.0935 48.1047 24.8234 47.2666 25.2677C46.4284 25.712 45.4588 25.8413 44.5335 25.6322H44.529Z" fill="#263238"/>
<path opacity="0.3" d="M44.6355 25.3683C44.2416 25.2778 43.872 25.1029 43.5523 24.8557C43.2325 24.6085 42.9702 24.2948 42.7834 23.9364C42.5966 23.578 42.4898 23.1833 42.4703 22.7796C42.4508 22.3759 42.5191 21.9728 42.6705 21.598C42.9877 20.7876 43.5853 20.1179 44.3546 19.7108C45.1239 19.3038 46.0137 19.1865 46.8622 19.3802C47.2563 19.4706 47.6261 19.6453 47.9462 19.8924C48.2663 20.1394 48.5289 20.453 48.7161 20.8113C48.9033 21.1697 49.0106 21.5644 49.0306 21.9683C49.0505 22.3721 48.9826 22.7754 48.8316 23.1505C48.5144 23.9619 47.9161 24.6323 47.1458 25.0394C46.3756 25.4465 45.4847 25.5633 44.6355 25.3683V25.3683Z" fill="#064DD6"/>
<g opacity="0.5">
<path opacity="0.5" d="M46.86 19.3649L46.8023 19.3516L42.6882 21.5272L42.6705 21.596C42.4271 22.2233 42.4099 22.9157 42.6217 23.5543L48.4923 20.4494C48.0915 19.9084 47.514 19.5247 46.86 19.3649V19.3649Z" fill="#FAFAFA"/>
<path opacity="0.5" d="M48.7052 20.7812L42.777 23.9173C42.8807 24.1222 43.0112 24.3123 43.1651 24.4828L48.9469 21.4222C48.8947 21.1989 48.8134 20.9834 48.7052 20.7812V20.7812Z" fill="#FAFAFA"/>
</g>
<path d="M44.5291 26.6786L43.8283 26.5012C43.8036 26.4953 43.7804 26.4842 43.7604 26.4686C43.7404 26.4531 43.7239 26.4333 43.7121 26.4108C43.7003 26.3884 43.6935 26.3636 43.6922 26.3382C43.6908 26.3129 43.6949 26.2875 43.7041 26.2639C43.7228 26.2119 43.7602 26.1688 43.809 26.143C43.8578 26.1171 43.9145 26.1104 43.968 26.1242L44.6689 26.3016C44.6936 26.3075 44.7167 26.3186 44.7368 26.3342C44.7568 26.3497 44.7733 26.3694 44.785 26.3919C44.7968 26.4144 44.8036 26.4392 44.805 26.4646C44.8064 26.4899 44.8023 26.5153 44.7931 26.5389V26.5389C44.7744 26.5909 44.7369 26.634 44.6881 26.6598C44.6393 26.6857 44.5826 26.6924 44.5291 26.6786Z" fill="#263238"/>
<path d="M44.549 26.371C44.5046 26.6793 44.4403 26.9809 44.3671 27.2825C44.2939 27.5842 44.2119 27.8791 44.1232 28.1697C44.0345 28.4602 43.9369 28.7596 43.8349 29.0568C43.7328 29.354 43.7328 29.6689 43.2516 29.8663C43.1732 29.891 43.0902 29.8973 43.009 29.8846C42.9278 29.8719 42.8507 29.8406 42.7836 29.7931C42.761 29.776 42.7408 29.7559 42.7237 29.7332C42.4576 29.3473 42.7038 29.0901 42.788 28.7929C42.8723 28.4957 43.0209 28.2162 43.1496 27.9301C43.2782 27.644 43.409 27.3579 43.5532 27.0763C43.6974 26.7946 43.8482 26.5129 44.0212 26.2379C44.067 26.1965 44.124 26.1694 44.1851 26.16C44.2462 26.1505 44.3087 26.1591 44.3649 26.1847C44.4847 26.2246 44.5579 26.3023 44.549 26.371Z" fill="#263238"/>
<path d="M41.3399 30.6918L42.5908 30.8027L42.3379 28.8555C42.3379 28.8555 41.3776 28.8732 40.8986 29.5408L41.3399 30.6918Z" fill="#FFC3BD"/>
<path d="M44.2363 30.3442L43.8171 29.0844L42.329 28.8516L42.5818 30.801L44.2363 30.3442Z" fill="#FFC3BD"/>
<path d="M30.3017 22.8904C29.6475 25.1459 33.0829 28.2509 33.0829 28.2509L36.1679 25.2302C36.1679 25.2302 35.1499 23.9616 34.4357 23.1255C32.433 20.7946 30.8251 21.0962 30.3017 22.8904Z" fill="#064DD6"/>
<path opacity="0.2" d="M30.4748 75.6406L30.3883 77.6699H28.6873L28.7738 75.6406H30.4748Z" fill="black"/>
<path opacity="0.2" d="M18.1082 74.5742L19.7693 74.9357L18.9088 76.8231L17.2477 76.4638L18.1082 74.5742Z" fill="black"/>
<path d="M27.1679 15.1852C26.853 16.8419 26.5846 17.7956 27.1968 18.8424C28.1149 20.4171 30.3195 20.1731 31.1223 18.6517C31.8453 17.2744 32.2312 14.7949 30.8052 13.7414C30.4907 13.5068 30.1214 13.3565 29.7325 13.305C29.3435 13.2535 28.9479 13.3025 28.5832 13.4473C28.2185 13.592 27.897 13.8277 27.6493 14.132C27.4015 14.4362 27.2358 14.7988 27.1679 15.1852V15.1852Z" fill="#FFC3BD"/>
<path d="M30.029 16.6308C30.375 16.4955 32.666 13.5746 27.7136 13.5391C25.5579 13.5236 25.7952 17.7995 27.321 18.6401C28.8469 19.4807 30.3949 17.753 30.029 16.6308Z" fill="#263238"/>
<path d="M27.2145 14.0574C30.0134 15.1863 32.7723 15.3504 33.4133 13.8023C33.919 12.5825 32.3776 13.4719 32.3776 13.4719C32.3776 13.4719 33.2802 12.1412 31.6856 12.099C30.091 12.0569 30.8539 12.9862 30.8539 12.9862C30.8539 12.9862 26.0368 11.6023 27.2145 14.0574Z" fill="#263238"/>
<path d="M27.2167 13.575C27.2167 13.575 26.4028 13.524 26.2098 14.2404C26.4494 13.9631 26.7421 13.7303 26.9439 13.9454C27.2345 13.7214 27.2167 13.575 27.2167 13.575Z" fill="#263238"/>
<path d="M29.7429 16.4195C29.661 16.7659 29.6945 17.1295 29.8382 17.4552C30.0334 17.881 30.4104 17.7745 30.5923 17.3886C30.7542 17.0427 30.8518 16.4039 30.5435 16.1045C30.2352 15.8051 29.8493 16.0047 29.7429 16.4195Z" fill="#FFC3BD"/>
<path d="M29.8227 36.3397C29.8227 36.3397 27.8932 49.3295 26.8353 54.1954C25.6754 59.5204 19.7671 76.5976 19.7671 76.5976L16.7242 75.9323C16.7242 75.9323 21.0734 59.9374 21.7365 54.6634C22.4529 48.937 23.9543 36.3242 23.9543 36.3242L29.8227 36.3397Z" fill="#263238"/>
<path d="M20.4923 75.5917L19.9246 76.7006L16.5002 75.9509L16.7908 74.9219L20.4923 75.5917Z" fill="#064DD6"/>
<path opacity="0.3" d="M28.6029 40.97C26.3718 41.4136 26.6069 49.7237 26.8775 54.0019C27.5206 50.979 28.461 45.1595 29.0953 41.0299C28.9424 40.9555 28.7691 40.9344 28.6029 40.97V40.97Z" fill="black"/>
<path d="M33.0474 36.3398C33.0474 36.3398 33.2692 49.048 33.0962 54.231C32.9032 59.6225 31.0203 77.2742 31.0203 77.2742H28.1371C28.1371 77.2742 28.0307 59.9375 27.9043 54.6524C27.7645 48.8861 27.0659 36.3487 27.0659 36.3487L33.0474 36.3398Z" fill="#263238"/>
<path d="M31.5814 76.1289C31.5947 76.1289 31.4195 77.3243 31.4195 77.3243H27.9109L27.8156 76.2575L31.5814 76.1289Z" fill="#064DD6"/>
</svg>
