<svg width="37" height="36" viewBox="0 0 37 36" fill="none" xmlns="http://www.w3.org/2000/svg">
<path d="M25.1301 9.63002V11.37L14.2101 22.29C12.7701 20.985 11.8701 19.065 11.8701 17.01V9.63002C11.8701 6.54002 13.9701 3.97502 16.8201 3.24002C17.1051 3.16502 17.3751 3.40502 17.3751 3.69002V6.00002C17.3751 6.61502 17.8851 7.12502 18.5001 7.12502C19.1151 7.12502 19.6251 6.61502 19.6251 6.00002V3.69002C19.6251 3.40502 19.8951 3.16502 20.1801 3.24002C23.0301 3.97502 25.1301 6.54002 25.1301 9.63002Z" fill="white"/>
<path d="M30.2151 14.715V17.1C30.2151 23.205 25.5201 28.23 19.5501 28.755V31.95C19.5501 32.535 19.0851 33 18.5001 33C17.9151 33 17.4501 32.535 17.4501 31.95V28.755C15.8151 28.605 14.2701 28.125 12.8901 27.36L14.4351 25.815C15.6651 26.385 17.0451 26.715 18.5001 26.715C23.8101 26.715 28.1301 22.395 28.1301 17.1V14.715C28.1301 14.145 28.5951 13.68 29.1801 13.68C29.7501 13.68 30.2151 14.145 30.2151 14.715Z" fill="white"/>
<path d="M25.1299 15.12V17.295C25.1299 21.165 21.7999 24.27 17.8399 23.895C17.4199 23.85 16.9999 23.775 16.6099 23.64L25.1299 15.12Z" fill="white"/>
<path d="M33.1552 3.34501C32.7052 2.89501 31.9702 2.89501 31.5202 3.34501L11.3452 23.52C9.80018 21.825 8.87018 19.575 8.87018 17.1V14.715C8.87018 14.145 8.40518 13.68 7.82018 13.68C7.25018 13.68 6.78518 14.145 6.78518 14.715V17.1C6.78518 20.145 7.95518 22.92 9.86018 25.005L3.83018 31.035C3.38018 31.485 3.38018 32.22 3.83018 32.67C4.07018 32.88 4.35518 33 4.65518 33C4.95518 33 5.24018 32.88 5.46518 32.655L33.1552 4.96501C33.6202 4.51501 33.6202 3.79501 33.1552 3.34501Z" fill="white"/>
</svg>
