<svg width="25" height="30" viewBox="0 0 25 30" fill="none" xmlns="http://www.w3.org/2000/svg">
<g clip-path="url(#clip0_473_1661)">
<path d="M22.8158 10.7609C22.2425 10.7609 21.7867 11.2166 21.7867 11.79V14.1128C21.7867 19.3169 17.5529 23.5508 12.3487 23.5508C7.14456 23.5508 2.91068 19.3169 2.91068 14.1128V11.7753C2.91068 11.2019 2.45495 10.7462 1.88161 10.7462C1.30827 10.7462 0.852539 11.2019 0.852539 11.7753V14.0981C0.852539 20.0814 5.45395 25.0062 11.3197 25.5355V28.6668C11.3197 29.2401 11.7754 29.6958 12.3487 29.6958C12.9221 29.6958 13.3778 29.2401 13.3778 28.6668V25.5355C19.2288 25.0209 23.8449 20.0814 23.8449 14.0981V11.7753C23.8302 11.2166 23.3745 10.7609 22.8158 10.7609Z" fill="white"/>
<path fill-rule="evenodd" clip-rule="evenodd" d="M11.2463 0.910342C11.2463 0.637036 10.9996 0.428679 10.7349 0.496421C7.9279 1.21464 5.85107 3.76207 5.85107 6.79198V14.3189C5.85107 17.9059 8.76187 20.8167 12.3489 20.8167C15.9359 20.8167 18.8467 17.9059 18.8467 14.3189V6.79198C18.8467 3.76204 16.7699 1.21461 13.9629 0.496406C13.6981 0.428664 13.4515 0.637021 13.4515 0.910327V3.2343C13.4515 3.84323 12.9578 4.33688 12.3489 4.33688C11.74 4.33688 11.2463 3.84323 11.2463 3.2343V0.910342Z" fill="white"/>
</g>
<defs>
<clipPath id="clip0_473_1661">
<rect width="24.6976" height="29.99" fill="white"/>
</clipPath>
</defs>
</svg>
