<svg width="24" height="24" viewBox="0 0 24 24" fill="none" xmlns="http://www.w3.org/2000/svg">
<circle cx="12" cy="12" r="12" fill="#C1C1C1"/>
<g clip-path="url(#clip0_3484_49550)">
<path d="M6.40001 13.3996C7.17321 13.3996 7.80002 12.7728 7.80002 11.9996C7.80002 11.2264 7.17321 10.5996 6.40001 10.5996C5.62681 10.5996 5 11.2264 5 11.9996C5 12.7728 5.62681 13.3996 6.40001 13.3996Z" fill="white"/>
<path d="M11.9996 13.3996C12.7728 13.3996 13.3996 12.7728 13.3996 11.9996C13.3996 11.2264 12.7728 10.5996 11.9996 10.5996C11.2264 10.5996 10.5996 11.2264 10.5996 11.9996C10.5996 12.7728 11.2264 13.3996 11.9996 13.3996Z" fill="white"/>
<path d="M17.5992 13.3996C18.3724 13.3996 18.9992 12.7728 18.9992 11.9996C18.9992 11.2264 18.3724 10.5996 17.5992 10.5996C16.826 10.5996 16.1992 11.2264 16.1992 11.9996C16.1992 12.7728 16.826 13.3996 17.5992 13.3996Z" fill="white"/>
</g>
<defs>
<clipPath id="clip0_3484_49550">
<rect width="14" height="14" fill="white" transform="translate(5 5)"/>
</clipPath>
</defs>
</svg>
