<svg width="32" height="32" viewBox="0 0 161 160" fill="currentColor" xmlns="http://www.w3.org/2000/svg">
<g clip-path="url(#clip0_1214:3441)">
<path d="M159.577 57.8504H1.42274C0.812888 57.8504 0.406323 57.4458 0.20304 56.839C-0.000242978 56.2322 0.20304 55.6254 0.609606 55.4231L79.6866 0.201851C80.0932 -0.2027 80.703 -0.2027 81.1096 0.201851L159.983 55.4231C160.39 55.6254 160.796 56.0299 160.796 56.6367C161 57.2436 160.39 57.8504 159.577 57.8504ZM5.48839 55.2208H155.308L80.4998 2.83143L5.48839 55.2208Z" />
<path d="M35.1674 134.108H16.4653C15.6522 134.108 15.0424 133.501 15.0424 132.692V69.5819C15.0424 68.7728 15.6522 68.166 16.4653 68.166H35.1674C35.9805 68.166 36.5903 68.7728 36.5903 69.5819V132.894C36.3871 133.501 35.7772 134.108 35.1674 134.108ZM17.685 131.478H33.7444V70.7956H17.685V131.478Z" />
<path d="M89.8508 134.108H71.1488C70.3357 134.108 69.7258 133.501 69.7258 132.692V69.5819C69.7258 68.7728 70.3357 68.166 71.1488 68.166H89.8508C90.664 68.166 91.2738 68.7728 91.2738 69.5819V132.894C91.0705 133.501 90.4607 134.108 89.8508 134.108ZM72.3685 131.478H88.4279V70.7956H72.3685V131.478Z" />
<path d="M144.534 134.108H125.832C125.019 134.108 124.409 133.501 124.409 132.692V69.5819C124.409 68.7728 125.019 68.166 125.832 68.166H144.534C145.347 68.166 145.957 68.7728 145.957 69.5819V132.894C145.754 133.501 145.347 134.108 144.534 134.108ZM127.052 131.478H143.111V70.7956H127.052V131.478Z" />
<path d="M93.5101 70.5936H67.4899C66.6767 70.5936 66.0669 69.9868 66.0669 69.1777V56.6366C66.0669 55.8275 66.6767 55.2207 67.4899 55.2207H93.5101C94.3232 55.2207 94.9331 55.8275 94.9331 56.6366V69.38C94.7298 69.9868 94.1199 70.5936 93.5101 70.5936ZM68.7096 67.9641H92.0871V57.8503H68.7096V67.9641Z" />
<path d="M148.193 70.5936H121.969C121.156 70.5936 120.547 69.9868 120.547 69.1777V56.6366C120.547 55.8275 121.156 55.2207 121.969 55.2207H147.99C148.803 55.2207 149.413 55.8275 149.413 56.6366V69.38C149.413 69.9868 148.803 70.5936 148.193 70.5936ZM123.392 67.9641H146.77V57.8503H123.392V67.9641Z" />
<path d="M38.8266 70.5936H12.8064C11.9933 70.5936 11.3834 69.9868 11.3834 69.1777V56.6366C11.3834 55.8275 11.9933 55.2207 12.8064 55.2207H38.8266C39.6397 55.2207 40.2496 55.8275 40.2496 56.6366V69.38C40.0463 69.9868 39.4365 70.5936 38.8266 70.5936ZM14.0261 67.9641H37.4036V57.8503H14.0261V67.9641Z" />
<path d="M93.5101 146.649H67.4899C66.6767 146.649 66.0669 146.043 66.0669 145.234V132.49C66.0669 131.681 66.6767 131.074 67.4899 131.074H93.5101C94.3232 131.074 94.9331 131.681 94.9331 132.49V145.234C94.7298 146.043 94.1199 146.649 93.5101 146.649ZM68.7096 144.02H92.0871V133.906H68.7096V144.02Z" />
<path d="M148.193 146.649H121.969C121.156 146.649 120.547 146.043 120.547 145.234V132.49C120.547 131.681 121.156 131.074 121.969 131.074H147.99C148.803 131.074 149.413 131.681 149.413 132.49V145.234C149.413 146.043 148.803 146.649 148.193 146.649ZM123.392 144.02H146.77V133.906H123.392V144.02Z" />
<path d="M38.8266 146.649H12.8064C11.9933 146.649 11.3834 146.043 11.3834 145.234V132.49C11.3834 131.681 11.9933 131.074 12.8064 131.074H38.8266C39.6397 131.074 40.2496 131.681 40.2496 132.49V145.234C40.0463 146.043 39.4365 146.649 38.8266 146.649ZM14.0261 144.02H37.4036V133.906H14.0261V144.02Z" />
<path d="M158.967 160H2.0326C1.21947 160 0.609619 159.394 0.609619 158.584V145.234C0.609619 144.425 1.21947 143.818 2.0326 143.818H158.967C159.78 143.818 160.39 144.425 160.39 145.234V158.584C160.187 159.394 159.577 160 158.967 160ZM3.2523 157.371H157.544V146.65H3.2523V157.371Z" />
<path d="M80.4994 44.9049C73.5878 44.9049 67.8959 39.848 67.8959 33.5774C67.8959 27.3069 73.5878 22.25 80.4994 22.25C87.411 22.25 93.103 27.3069 93.103 33.5774C93.103 39.848 87.411 44.9049 80.4994 44.9049ZM80.4994 24.8796C75.0108 24.8796 70.5386 28.7228 70.5386 33.5774C70.5386 38.4321 75.0108 42.2753 80.4994 42.2753C85.988 42.2753 90.4603 38.4321 90.4603 33.5774C90.4603 28.7228 85.988 24.8796 80.4994 24.8796Z" />
</g>
<defs>
<clipPath id="clip0_1214:3441">
<rect width="161" height="160" fill="currentColor"/>
</clipPath>
</defs>
</svg>
