<svg width="127" height="72" viewBox="0 0 127 72" fill="none" xmlns="http://www.w3.org/2000/svg">
<g clip-path="url(#clip0_554:2558)">
<path d="M120.757 71.5001H39.127C35.643 71.5001 32.8365 69.3659 32.8365 66.7165V20.39C32.8365 17.7406 35.643 15.6064 39.127 15.6064H120.709C124.193 15.6064 126.999 17.7406 126.999 20.39V66.6797C127.048 69.3659 124.241 71.5001 120.757 71.5001Z" fill="#A5BFF0"/>
</g>
<g clip-path="url(#clip1_554:2558)">
<path d="M111.748 63.4433H19.6521C15.7215 63.4433 12.5552 61.0399 12.5552 58.0564V5.88685C12.5552 2.90336 15.7215 0.5 19.6521 0.5H111.693C115.624 0.5 118.79 2.90336 118.79 5.88685V58.015C118.845 61.0399 115.679 63.4433 111.748 63.4433Z" fill="#2967DC"/>
<path d="M23.5601 10.707C24.6733 10.707 25.5758 9.7676 25.5758 8.60885C25.5758 7.4501 24.6733 6.51074 23.5601 6.51074C22.4468 6.51074 21.5443 7.4501 21.5443 8.60885C21.5443 9.7676 22.4468 10.707 23.5601 10.707Z" stroke="#FEFEF4" stroke-width="1.4304" stroke-miterlimit="10"/>
<path d="M31.3507 10.707C32.464 10.707 33.3665 9.7676 33.3665 8.60885C33.3665 7.4501 32.464 6.51074 31.3507 6.51074C30.2374 6.51074 29.335 7.4501 29.335 8.60885C29.335 9.7676 30.2374 10.707 31.3507 10.707Z" stroke="#FEFEF4" stroke-width="1.4304" stroke-miterlimit="10"/>
<path d="M39.1414 10.707C40.2546 10.707 41.1571 9.7676 41.1571 8.60885C41.1571 7.4501 40.2546 6.51074 39.1414 6.51074C38.0281 6.51074 37.1256 7.4501 37.1256 8.60885C37.1256 9.7676 38.0281 10.707 39.1414 10.707Z" stroke="#FEFEF4" stroke-width="1.4304" stroke-miterlimit="10"/>
<path d="M12.5552 17.3418H118.627" stroke="#FEFEF4" stroke-width="1.4304" stroke-miterlimit="10"/>
<path d="M34.0999 38.005H32.4524C32.2367 39.1277 31.462 39.4544 30.7265 39.4544C29.7066 39.4544 28.9319 38.6174 28.9319 37.0557C28.9319 35.5451 29.7164 34.6775 30.7069 34.6775C31.5012 34.6775 32.2171 35.1164 32.4034 36.1269H34.0509C33.8155 34.4427 32.5407 33.2383 30.7657 33.2383C28.5397 33.2383 27.157 34.7183 27.157 37.0557C27.157 39.4237 28.5005 40.8935 30.7167 40.8935C32.5113 40.8935 33.8351 39.7197 34.0999 38.005Z" fill="white"/>
<path d="M36.4927 35.9942V33.3608H34.8746V40.7608H36.4927V37.9437C36.4927 36.923 36.7868 36.4535 37.4831 36.4535C38.2676 36.4535 38.2872 37.0965 38.2872 37.8825V40.7608H39.9053V37.464C39.9053 35.9738 39.4836 35.147 38.1303 35.147C37.2968 35.147 36.728 35.5859 36.4927 35.9942Z" fill="white"/>
<path d="M47.1237 34.3508H46.0646C46.0254 35.0755 45.7214 35.2695 45.3585 35.2695H44.2308V38.1683C44.2308 39.189 43.9758 39.587 43.2796 39.587C42.4951 39.587 42.4755 38.944 42.4755 38.1581V35.2695H40.8574V38.5765C40.8574 40.0668 41.2791 40.8935 42.6814 40.8935C43.4953 40.8935 43.9072 40.5363 44.2308 39.9953V40.7608H45.8489V36.0452C46.6432 35.8819 47.055 35.2899 47.1237 34.3508Z" fill="white"/>
<path d="M50.2439 37.1169V37.3313C48.1944 37.4946 46.7333 37.9335 46.7333 39.2808C46.7333 40.2811 47.557 40.8935 48.5573 40.8935C49.3123 40.8935 49.94 40.6792 50.3322 40.0974L50.3518 40.7608H51.9405C51.862 40.424 51.8228 39.7708 51.8228 39.1686V38.597L51.8424 37.4027C51.8718 35.739 51.0088 35.096 49.4889 35.096C47.9198 35.096 46.9784 36.0146 46.9 37.0455H48.4102C48.4788 36.5147 48.8318 36.2391 49.3516 36.2391C49.94 36.2391 50.2439 36.4637 50.2439 37.1169ZM50.2832 38.3214V38.4541C50.2832 39.4646 49.7929 39.7504 49.1456 39.7504C48.724 39.7504 48.4004 39.5156 48.4004 39.1583C48.4004 38.5561 49.1554 38.4337 50.2832 38.3214Z" fill="white"/>
<path d="M57.3587 35.1062C55.7603 35.1062 54.662 36.2391 54.662 37.9845C54.662 39.7299 55.623 40.8935 57.3587 40.8935C58.4178 40.8935 59.6828 40.373 60.0457 38.7399H58.5355C58.4178 39.2604 58.055 39.587 57.4568 39.587C56.8782 39.587 56.3094 39.189 56.3094 37.9947C56.3094 36.8209 56.8782 36.4127 57.4568 36.4127C57.9373 36.4127 58.3197 36.6372 58.4668 37.2803H59.977C59.6632 35.6267 58.457 35.1062 57.3587 35.1062Z" fill="white"/>
<path d="M63.9543 34.5448L65.2096 33.3608H63.3758L62.7383 34.5448H63.9543ZM63.3463 35.1062C61.8852 35.1062 60.5515 36.0044 60.5515 37.9947C60.5515 39.9851 61.8852 40.8935 63.3463 40.8935C64.8075 40.8935 66.1412 39.9851 66.1412 37.9947C66.1412 36.0044 64.8075 35.1062 63.3463 35.1062ZM63.3463 36.4127C63.9838 36.4127 64.4937 36.8209 64.4937 37.9947C64.4937 39.1481 64.0034 39.587 63.3463 39.587C62.6893 39.587 62.199 39.1481 62.199 37.9947C62.199 36.8209 62.7089 36.4127 63.3463 36.4127Z" fill="white"/>
<path d="M72.7003 35.2695V36.0146C72.3571 35.4124 71.651 35.147 71.0725 35.147C69.7094 35.147 68.7484 36.1065 68.7484 37.8519C68.7484 39.5972 69.7094 40.5669 71.0725 40.5669C71.651 40.5669 72.3571 40.3015 72.7003 39.6993V40.3526C72.7003 41.0773 72.4061 41.4958 71.5824 41.4958C70.9842 41.4958 70.6116 41.261 70.4841 40.7915H68.9641C69.121 41.802 70.0428 42.6798 71.602 42.6798C73.0632 42.6798 74.3086 42.0673 74.3086 40.0259V35.2695H72.7003ZM71.602 36.4535C72.2394 36.4535 72.769 36.7699 72.769 37.8519C72.769 38.9134 72.2394 39.2604 71.602 39.2604C70.9646 39.2604 70.4252 38.8317 70.4252 37.8519C70.4252 36.8822 70.9646 36.4535 71.602 36.4535Z" fill="white"/>
<path d="M77.0876 35.9942V33.3608H75.4696V40.7608H77.0876V37.9437C77.0876 36.923 77.3818 36.4535 78.078 36.4535C78.8626 36.4535 78.8822 37.0965 78.8822 37.8825V40.7608H80.5002V37.464C80.5002 35.9738 80.0785 35.147 78.7253 35.147C77.8917 35.147 77.323 35.5859 77.0876 35.9942Z" fill="white"/>
<path d="M83.1783 33.3608H81.5602V34.7081H83.1783V33.3608ZM83.1881 35.2695H81.5602V40.7608H83.1881V35.2695Z" fill="white"/>
<path d="M88.8368 35.1062C87.2383 35.1062 86.14 36.2391 86.14 37.9845C86.14 39.7299 87.1011 40.8935 88.8368 40.8935C89.8959 40.8935 91.1609 40.373 91.5237 38.7399H90.0136C89.8959 39.2604 89.533 39.587 88.9349 39.587C88.3563 39.587 87.7875 39.189 87.7875 37.9947C87.7875 36.8209 88.3563 36.4127 88.9349 36.4127C89.4154 36.4127 89.7978 36.6372 89.9449 37.2803H91.4551C91.1413 35.6267 89.9351 35.1062 88.8368 35.1062Z" fill="white"/>
<path d="M93.9136 35.9942V33.3608H92.2955V40.7608H93.9136V37.9437C93.9136 36.923 94.2078 36.4535 94.904 36.4535C95.6885 36.4535 95.7081 37.0965 95.7081 37.8825V40.7608H97.3262V37.464C97.3262 35.9738 96.9045 35.147 95.5512 35.147C94.7177 35.147 94.1489 35.5859 93.9136 35.9942Z" fill="white"/>
<path d="M101.446 34.5448L102.701 33.3608H100.867L100.23 34.5448H101.446ZM101.652 39.9953V40.7608H103.27V35.2695H101.652V38.1683C101.652 39.189 101.397 39.587 100.701 39.587C99.916 39.587 99.8964 38.944 99.8964 38.1581V35.2695H98.2783V38.5765C98.2783 40.0668 98.7 40.8935 100.102 40.8935C100.916 40.8935 101.328 40.5363 101.652 39.9953Z" fill="white"/>
</g>
<g clip-path="url(#clip2_554:2558)">
<path d="M20.9029 67.9751H2.73622C1.23354 67.9751 0 66.6798 0 65.1019V49.6994C0 48.1215 1.23354 46.8262 2.73622 46.8262H20.9029C22.4281 46.8262 23.6392 48.1215 23.6392 49.6994V65.0783C23.6616 66.6798 22.4281 67.9751 20.9029 67.9751Z" fill="#FF6C0E"/>
<path d="M10.3394 59.8026C8.07412 59.8026 6.25745 57.8714 6.25745 55.5163C6.25745 53.1376 8.09655 51.23 10.3394 51.23C12.6046 51.23 14.4213 53.1612 14.4213 55.5163C14.4213 57.8714 12.5822 59.8026 10.3394 59.8026ZM10.3394 52.1956C8.58996 52.1956 7.177 53.6793 7.177 55.5163C7.177 57.3533 8.58996 58.837 10.3394 58.837C12.0887 58.837 13.5017 57.3533 13.5017 55.5163C13.5017 53.6793 12.0887 52.1956 10.3394 52.1956Z" fill="#FEFEF4"/>
<path d="M13.2092 57.8704L12.559 58.5532L13.7642 59.8189L14.4144 59.1361L13.2092 57.8704Z" fill="#FEFEF4"/>
<path d="M15.0493 58.955L17.4267 61.4515C17.6734 61.7105 17.6734 62.158 17.4267 62.4171L16.8884 62.9823C16.6417 63.2414 16.2156 63.2414 15.9689 62.9823L13.5915 60.4859C13.3448 60.2268 13.3448 59.7793 13.5915 59.5203L14.1298 58.955C14.3765 58.696 14.8026 58.696 15.0493 58.955Z" fill="#FEFEF4"/>
</g>
<defs>
<clipPath id="clip0_554:2558">
<rect width="94.1635" height="55.8936" fill="white" transform="translate(32.8365 15.6064)"/>
</clipPath>
<clipPath id="clip1_554:2558">
<rect width="106.236" height="62.9433" fill="white" transform="translate(12.5552 0.5)"/>
</clipPath>
<clipPath id="clip2_554:2558">
<rect width="23.6616" height="21.1489" fill="white" transform="translate(0 46.8262)"/>
</clipPath>
</defs>
</svg>
