<svg width="263" height="141" viewBox="0 0 263 141" fill="none" xmlns="http://www.w3.org/2000/svg">
<path d="M250.072 141H81.0266C73.8119 141 68 136.762 68 131.5V39.4997C68 34.2383 73.8119 30 81.0266 30H249.972C257.187 30 262.999 34.2383 262.999 39.4997V131.427C263.099 136.762 257.287 141 250.072 141Z" fill="#A5BFF0"/>
<path d="M231.415 125H40.6967C32.557 125 26 120.227 26 114.302V10.6978C26 4.77288 32.557 0 40.6967 0H231.302C239.442 0 245.999 4.77288 245.999 10.6978V114.22C246.112 120.227 239.555 125 231.415 125Z" fill="#2967DC"/>
<path d="M48.7898 20.2699C51.0953 20.2699 52.9642 18.4044 52.9642 16.1032C52.9642 13.802 51.0953 11.9365 48.7898 11.9365C46.4844 11.9365 44.6155 13.802 44.6155 16.1032C44.6155 18.4044 46.4844 20.2699 48.7898 20.2699Z" stroke="#FEFEF4" stroke-width="1.4304" stroke-miterlimit="10"/>
<path d="M64.9231 20.2699C67.2286 20.2699 69.0975 18.4044 69.0975 16.1032C69.0975 13.802 67.2286 11.9365 64.9231 11.9365C62.6177 11.9365 60.7488 13.802 60.7488 16.1032C60.7488 18.4044 62.6177 20.2699 64.9231 20.2699Z" stroke="#FEFEF4" stroke-width="1.4304" stroke-miterlimit="10"/>
<path d="M81.0564 20.2699C83.3619 20.2699 85.2308 18.4044 85.2308 16.1032C85.2308 13.802 83.3619 11.9365 81.0564 11.9365C78.751 11.9365 76.8821 13.802 76.8821 16.1032C76.8821 18.4044 78.751 20.2699 81.0564 20.2699Z" stroke="#FEFEF4" stroke-width="1.4304" stroke-miterlimit="10"/>
<path d="M26 33.4463H245.662" stroke="#FEFEF4" stroke-width="1.4304" stroke-miterlimit="10"/>
<path d="M53.4471 74.41H50.5911C50.2171 76.28 48.8741 76.824 47.5991 76.824C45.8311 76.824 44.4881 75.43 44.4881 72.829C44.4881 70.313 45.8481 68.868 47.5651 68.868C48.9421 68.868 50.1831 69.599 50.5061 71.282H53.3621C52.9541 68.477 50.7441 66.471 47.6671 66.471C43.8081 66.471 41.4111 68.936 41.4111 72.829C41.4111 76.773 43.7401 79.221 47.5821 79.221C50.6931 79.221 52.9881 77.266 53.4471 74.41ZM57.5951 71.061V66.675H54.7901V79H57.5951V74.308C57.5951 72.608 58.1051 71.826 59.3121 71.826C60.6721 71.826 60.7061 72.897 60.7061 74.206V79H63.5111V73.509C63.5111 71.027 62.7801 69.65 60.4341 69.65C58.9891 69.65 58.0031 70.381 57.5951 71.061ZM76.0247 68.324H74.1887C74.1207 69.531 73.5937 69.854 72.9647 69.854H71.0097V74.682C71.0097 76.382 70.5677 77.045 69.3607 77.045C68.0007 77.045 67.9667 75.974 67.9667 74.665V69.854H65.1617V75.362C65.1617 77.844 65.8927 79.221 68.3237 79.221C69.7347 79.221 70.4487 78.626 71.0097 77.725V79H73.8147V71.146C75.1917 70.874 75.9057 69.888 76.0247 68.324ZM81.4339 72.931V73.288C77.8809 73.56 75.3479 74.291 75.3479 76.535C75.3479 78.201 76.7759 79.221 78.5099 79.221C79.8189 79.221 80.9069 78.864 81.5869 77.895L81.6209 79H84.3749C84.2389 78.439 84.1709 77.351 84.1709 76.348V75.396L84.2049 73.407C84.2559 70.636 82.7599 69.565 80.1249 69.565C77.4049 69.565 75.7729 71.095 75.6369 72.812H78.2549C78.3739 71.928 78.9859 71.469 79.8869 71.469C80.9069 71.469 81.4339 71.843 81.4339 72.931ZM81.5019 74.937V75.158C81.5019 76.841 80.6519 77.317 79.5299 77.317C78.7989 77.317 78.2379 76.926 78.2379 76.331C78.2379 75.328 79.5469 75.124 81.5019 74.937ZM93.7678 69.582C90.9968 69.582 89.0928 71.469 89.0928 74.376C89.0928 77.283 90.7588 79.221 93.7678 79.221C95.6038 79.221 97.7968 78.354 98.4258 75.634H95.8078C95.6038 76.501 94.9748 77.045 93.9378 77.045C92.9348 77.045 91.9488 76.382 91.9488 74.393C91.9488 72.438 92.9348 71.758 93.9378 71.758C94.7708 71.758 95.4338 72.132 95.6888 73.203H98.3068C97.7628 70.449 95.6718 69.582 93.7678 69.582ZM102.569 71.061V66.675H99.7637V79H102.569V74.308C102.569 72.608 103.079 71.826 104.286 71.826C105.646 71.826 105.68 72.897 105.68 74.206V79H108.485V73.509C108.485 71.027 107.754 69.65 105.408 69.65C103.963 69.65 102.977 70.381 102.569 71.061ZM113.127 66.675H110.322V68.919H113.127V66.675ZM113.144 69.854H110.322V79H113.144V69.854ZM120.746 72.931V73.288C117.193 73.56 114.66 74.291 114.66 76.535C114.66 78.201 116.088 79.221 117.822 79.221C119.131 79.221 120.219 78.864 120.899 77.895L120.933 79H123.687C123.551 78.439 123.483 77.351 123.483 76.348V75.396L123.517 73.407C123.568 70.636 122.072 69.565 119.437 69.565C116.717 69.565 115.085 71.095 114.949 72.812H117.567C117.686 71.928 118.298 71.469 119.199 71.469C120.219 71.469 120.746 71.843 120.746 72.931ZM120.814 74.937V75.158C120.814 76.841 119.964 77.317 118.842 77.317C118.111 77.317 117.55 76.926 117.55 76.331C117.55 75.328 118.859 75.124 120.814 74.937ZM134.576 72.54H137.194C136.837 70.449 134.95 69.616 132.859 69.616C130.598 69.616 128.677 70.619 128.677 72.438C128.677 74.07 129.884 74.954 131.652 75.243L133.284 75.515C134.355 75.702 134.712 75.957 134.712 76.365C134.712 76.909 134.015 77.181 133.012 77.181C132.043 77.181 131.346 76.909 131.091 76.025H128.49C128.813 78.184 130.547 79.221 132.978 79.221C135.511 79.221 137.398 78.184 137.398 76.127C137.398 74.512 136.344 73.866 134.151 73.458L132.451 73.152C131.652 72.999 131.329 72.761 131.329 72.336C131.329 71.877 131.822 71.656 132.791 71.656C133.675 71.656 134.389 71.86 134.576 72.54ZM142.276 68.579L143.568 68.936C143.942 67.967 144.945 68.205 144.945 66.624C144.945 65.502 143.823 65.077 142.599 65.077C142.14 65.077 141.885 65.06 141.426 65.179V66.573C141.681 66.505 141.817 66.471 142.157 66.471C142.565 66.471 142.922 66.641 142.922 67.032C142.922 67.559 142.276 67.831 142.276 68.579ZM147.954 76.127H145.37C145.047 76.671 144.384 77.045 143.313 77.045C142.293 77.045 141.29 76.45 141.205 75.141H147.988C148.175 71.877 146.322 69.582 143.279 69.582C140.61 69.582 138.383 71.452 138.383 74.376C138.383 77.419 140.423 79.221 143.398 79.221C145.217 79.221 147.138 78.286 147.954 76.127ZM143.279 71.724C144.35 71.724 145.149 72.285 145.2 73.441H141.239C141.392 72.234 142.276 71.724 143.279 71.724ZM155.926 71.061V66.675H153.121V79H155.926V74.308C155.926 72.608 156.436 71.826 157.643 71.826C159.003 71.826 159.037 72.897 159.037 74.206V79H161.842V73.509C161.842 71.027 161.111 69.65 158.765 69.65C157.32 69.65 156.334 70.381 155.926 71.061ZM168.865 65.434L171.041 67.406H173.149L172.044 65.434H168.865ZM170.701 68.647L168.967 66.675H167.046L165.244 68.647H167.182L167.998 67.865L168.78 68.647H170.701ZM167.981 69.582C165.448 69.582 163.136 71.078 163.136 74.393C163.136 77.708 165.448 79.221 167.981 79.221C170.514 79.221 172.826 77.708 172.826 74.393C172.826 71.078 170.514 69.582 167.981 69.582ZM167.981 71.758C169.086 71.758 169.97 72.438 169.97 74.393C169.97 76.314 169.12 77.045 167.981 77.045C166.842 77.045 165.992 76.314 165.992 74.393C165.992 72.438 166.876 71.758 167.981 71.758ZM183.568 72.54H186.186C185.829 70.449 183.942 69.616 181.851 69.616C179.59 69.616 177.669 70.619 177.669 72.438C177.669 74.07 178.876 74.954 180.644 75.243L182.276 75.515C183.347 75.702 183.704 75.957 183.704 76.365C183.704 76.909 183.007 77.181 182.004 77.181C181.035 77.181 180.338 76.909 180.083 76.025H177.482C177.805 78.184 179.539 79.221 181.97 79.221C184.503 79.221 186.39 78.184 186.39 76.127C186.39 74.512 185.336 73.866 183.143 73.458L181.443 73.152C180.644 72.999 180.321 72.761 180.321 72.336C180.321 71.877 180.814 71.656 181.783 71.656C182.667 71.656 183.381 71.86 183.568 72.54ZM195.653 70.789C196.418 70.33 196.826 69.48 196.911 68.324H195.075C195.007 69.446 194.548 69.803 193.987 69.854C193.426 69.667 192.831 69.582 192.219 69.582C189.686 69.582 187.374 71.078 187.374 74.393C187.374 77.708 189.686 79.221 192.219 79.221C194.752 79.221 197.064 77.708 197.064 74.393C197.064 72.778 196.503 71.588 195.653 70.789ZM192.219 77.045C191.08 77.045 190.23 76.314 190.23 74.393C190.23 72.438 191.114 71.758 192.219 71.758C193.324 71.758 194.208 72.438 194.208 74.393C194.208 76.314 193.358 77.045 192.219 77.045ZM206.14 76.297L204.202 69.854H201.176L204.508 79H207.619L210.883 69.854H207.993L206.14 76.297ZM216.936 72.931V73.288C213.383 73.56 210.85 74.291 210.85 76.535C210.85 78.201 212.278 79.221 214.012 79.221C215.321 79.221 216.409 78.864 217.089 77.895L217.123 79H219.877C219.741 78.439 219.673 77.351 219.673 76.348V75.396L219.707 73.407C219.758 70.636 218.262 69.565 215.627 69.565C212.907 69.565 211.275 71.095 211.139 72.812H213.757C213.876 71.928 214.488 71.469 215.389 71.469C216.409 71.469 216.936 71.843 216.936 72.931ZM217.004 74.937V75.158C217.004 76.841 216.154 77.317 215.032 77.317C214.301 77.317 213.74 76.926 213.74 76.331C213.74 75.328 215.049 75.124 217.004 74.937ZM221.489 81.975H222.39C224.787 81.975 225.45 81.329 226.368 79L229.955 69.854H226.946L225.144 75.583L223.461 69.854H220.384L223.801 78.949L223.716 79.187C223.444 79.867 223.206 79.952 222.05 79.952H221.489V81.975Z" fill="white"/>
<path d="M43.2872 134H5.66635C2.5545 134 0 131.428 0 128.294V97.706C0 94.5724 2.5545 92 5.66635 92H43.2872C46.4455 92 48.9536 94.5724 48.9536 97.706V128.247C49 131.428 46.4455 134 43.2872 134Z" fill="#FF6C0E"/>
<path d="M21.4113 117.771C16.7203 117.771 12.9583 113.935 12.9583 109.258C12.9583 104.535 16.7668 100.746 21.4113 100.746C26.1023 100.746 29.8644 104.581 29.8644 109.258C29.8644 113.935 26.0559 117.771 21.4113 117.771ZM21.4113 102.664C17.7886 102.664 14.8625 105.61 14.8625 109.258C14.8625 112.906 17.7886 115.853 21.4113 115.853C25.0341 115.853 27.9601 112.906 27.9601 109.258C27.9601 105.61 25.0341 102.664 21.4113 102.664Z" fill="#FEFEF4"/>
<path d="M27.3543 113.933L26.0078 115.289L28.5038 117.802L29.8503 116.447L27.3543 113.933Z" fill="#FEFEF4"/>
<path d="M31.1648 116.087L36.088 121.045C36.5989 121.559 36.5989 122.448 36.088 122.962L34.9734 124.085C34.4625 124.599 33.58 124.599 33.0691 124.085L28.1459 119.127C27.635 118.613 27.635 117.724 28.1459 117.21L29.2606 116.087C29.7715 115.573 30.6539 115.573 31.1648 116.087Z" fill="#FEFEF4"/>
</svg>
