<svg width="37" height="36" viewBox="0 0 37 36" fill="none" xmlns="http://www.w3.org/2000/svg">
<path d="M16.475 28.665V7.335C16.475 5.31 15.62 4.5 13.46 4.5H8.015C5.855 4.5 5 5.31 5 7.335V28.665C5 30.69 5.855 31.5 8.015 31.5H13.46C15.62 31.5 16.475 30.69 16.475 28.665Z" fill="white"/>
<path d="M31.9999 28.665V7.335C31.9999 5.31 31.1449 4.5 28.9849 4.5H23.5399C21.3949 4.5 20.5249 5.31 20.5249 7.335V28.665C20.5249 30.69 21.3799 31.5 23.5399 31.5H28.9849C31.1449 31.5 31.9999 30.69 31.9999 28.665Z" fill="white"/>
</svg>
