<svg width="33" height="32" viewBox="0 0 33 32" fill="none" xmlns="http://www.w3.org/2000/svg">
<circle cx="16.5" cy="16" r="16" fill="white"/>
<path d="M17.38 9.04977C20.56 9.44977 23.05 11.9398 23.45 15.1198C23.51 15.6298 23.94 15.9998 24.44 15.9998C24.48 15.9998 24.52 15.9998 24.56 15.9898C25.11 15.9198 25.5 15.4198 25.43 14.8698C24.92 10.7798 21.71 7.56977 17.62 7.05977C17.07 6.99977 16.57 7.38977 16.51 7.93977C16.44 8.48977 16.83 8.98977 17.38 9.04977ZM17.76 11.1598C17.23 11.0198 16.68 11.3398 16.54 11.8798C16.4 12.4198 16.72 12.9598 17.26 13.0998C18.31 13.3698 19.13 14.1898 19.41 15.2498C19.53 15.6998 19.93 15.9998 20.38 15.9998C20.46 15.9998 20.55 15.9898 20.63 15.9698C21.16 15.8298 21.48 15.2798 21.35 14.7498C20.88 12.9798 19.51 11.6098 17.76 11.1598ZM23.73 19.2598L21.19 18.9698C20.58 18.8998 19.98 19.1098 19.55 19.5398L17.71 21.3798C14.88 19.9398 12.56 17.6298 11.12 14.7898L12.97 12.9398C13.4 12.5098 13.61 11.9098 13.54 11.2998L13.25 8.77977C13.13 7.76977 12.28 7.00977 11.26 7.00977H9.53004C8.40004 7.00977 7.46004 7.94977 7.53004 9.07977C8.06004 17.6198 14.89 24.4398 23.42 24.9698C24.55 25.0398 25.49 24.0998 25.49 22.9698V21.2398C25.5 20.2298 24.74 19.3798 23.73 19.2598Z" fill="#064DD6"/>
</svg>
