<svg width="12" height="12" viewBox="0 0 12 12" fill="none" xmlns="http://www.w3.org/2000/svg">
<path d="M11.8333 8.87002V10.62C11.834 10.7825 11.8007 10.9433 11.7356 11.0921C11.6705 11.241 11.5751 11.3746 11.4554 11.4844C11.3357 11.5943 11.1943 11.6779 11.0404 11.7299C10.8865 11.782 10.7235 11.8013 10.5617 11.7867C8.76665 11.5916 7.04242 10.9783 5.5275 9.99585C4.11807 9.10024 2.92311 7.90528 2.0275 6.49585C1.04166 4.97405 0.428143 3.24143 0.236668 1.43835C0.222091 1.27704 0.241262 1.11446 0.29296 0.960963C0.344658 0.807468 0.427751 0.666418 0.536949 0.546795C0.646146 0.427172 0.779054 0.331596 0.927213 0.266154C1.07537 0.200711 1.23553 0.166835 1.3975 0.166683H3.1475C3.4306 0.163896 3.70505 0.264145 3.9197 0.448743C4.13435 0.633341 4.27455 0.889693 4.31417 1.17002C4.38803 1.73005 4.52501 2.27994 4.7225 2.80918C4.80099 3.01797 4.81797 3.24488 4.77145 3.46303C4.72492 3.68118 4.61684 3.88141 4.46 4.04002L3.71917 4.78085C4.54958 6.24125 5.75877 7.45044 7.21917 8.28085L7.96 7.54002C8.1186 7.38318 8.31884 7.27509 8.53699 7.22857C8.75513 7.18205 8.98205 7.19903 9.19083 7.27752C9.72008 7.475 10.27 7.61199 10.83 7.68585C11.1134 7.72582 11.3722 7.86855 11.5571 8.08689C11.7421 8.30522 11.8404 8.58393 11.8333 8.87002Z" fill="#0B51D7"/>
</svg>
