<svg width="21" height="21" viewBox="0 0 21 21" fill="none" xmlns="http://www.w3.org/2000/svg">
<path d="M13.9902 19.9951C13.6588 19.9604 13.3274 19.9308 12.996 19.8862C10.4783 19.5697 8.21294 18.6448 6.22452 17.0671C3.55351 14.9453 1.89155 12.2003 1.23864 8.85191C1.04079 7.838 0.941854 6.80925 1.03583 5.77061C1.23369 3.56473 2.92533 1.63088 5.08687 1.15113C5.47762 1.06705 5.87827 1.03737 6.27893 1.00275C6.55592 0.97802 6.75378 1.12145 6.85765 1.37864C7.64411 3.34217 8.43057 5.31064 9.21209 7.27417C9.35059 7.62038 9.22198 7.90724 8.86585 8.05067C8.06949 8.37216 7.27808 8.69364 6.47678 9.00524C6.33334 9.05964 6.29377 9.12888 6.31355 9.27726C6.58065 11.4584 7.68863 13.0609 9.63253 14.0847C10.2755 14.421 10.968 14.5941 11.6852 14.6831C11.8584 14.7029 11.9425 14.6634 12.0117 14.4903C12.3085 13.7187 12.6201 12.9521 12.9268 12.1855C13.0999 11.7601 13.367 11.6414 13.7924 11.8096C15.7115 12.5762 17.6307 13.3477 19.5499 14.1094C19.7675 14.1935 19.9159 14.332 20 14.5447C20 14.7326 20 14.9156 20 15.1035C19.9901 15.153 19.9703 15.1975 19.9654 15.247C19.728 17.438 18.1748 19.2581 16.0429 19.817C15.7363 19.8961 15.4148 19.9406 15.1031 20C14.7322 19.9951 14.3612 19.9951 13.9902 19.9951ZM13.7973 13.0114C13.7676 13.0856 13.7479 13.1351 13.7281 13.1845C13.4313 13.9215 13.1395 14.6634 12.8427 15.4003C12.724 15.6921 12.5459 15.8207 12.2541 15.8158C11.2797 15.8059 10.33 15.6377 9.44952 15.2173C6.75378 13.9264 5.32429 11.7848 5.18579 8.79256C5.17095 8.46613 5.29461 8.28313 5.59634 8.16443C6.00194 8.00122 6.41248 7.838 6.81808 7.67973C7.20389 7.52641 7.59465 7.36814 7.99036 7.20987C7.96562 7.14063 7.94584 7.09117 7.92605 7.04171C7.3226 5.52826 6.71421 4.01481 6.11076 2.50631C5.95742 2.12053 5.95742 2.12053 5.55182 2.19471C3.78599 2.50136 2.33672 4.04943 2.15865 5.82007C2.07456 6.62625 2.14381 7.42749 2.27241 8.21884C2.86102 11.8739 4.7159 14.7326 7.76777 16.8049C9.51877 17.992 11.4726 18.6448 13.5797 18.8328C14.3266 18.8971 15.0685 18.9317 15.8055 18.7289C17.3883 18.2986 18.6299 16.8989 18.8525 15.2717C18.8772 15.0986 18.8376 15.0145 18.6645 14.9453C17.7395 14.5842 16.8195 14.2133 15.8946 13.8423C15.1971 13.5703 14.5046 13.2933 13.7973 13.0114Z" fill="#7F7F7F" stroke="#777777" stroke-width="0.5"/>
</svg>
