<svg width="20" height="20" viewBox="0 0 20 20" fill="none" xmlns="http://www.w3.org/2000/svg">
<path d="M1.89251 2.07226L3.17954 0.785232C3.57007 0.394708 4.20323 0.394707 4.59376 0.785231L7.71855 3.91003C8.10907 4.30055 8.10907 4.93371 7.71855 5.32424L5.58932 7.45346C5.25017 7.79262 5.16608 8.31075 5.38059 8.73976C6.6206 11.2198 8.63152 13.2307 11.1115 14.4707C11.5405 14.6852 12.0587 14.6011 12.3978 14.262L14.5271 12.1327C14.9176 11.7422 15.5507 11.7422 15.9413 12.1327L19.0661 15.2575C19.4566 15.6481 19.4566 16.2812 19.0661 16.6718L17.779 17.9588C15.6677 20.0701 12.3251 20.3077 9.93639 18.5161L7.64997 16.8013C5.90644 15.4937 4.35762 13.9449 3.04997 12.2013L1.33515 9.9149C-0.456387 7.52618 -0.21884 4.18361 1.89251 2.07226Z" fill="white"/>
</svg>
