<svg width="17" height="19" viewBox="0 0 17 19" fill="none" xmlns="http://www.w3.org/2000/svg">
<path fill-rule="evenodd" clip-rule="evenodd" d="M8.82386 18.3088C10.4329 17.4827 16.3689 14.0452 16.3689 8.29092C16.3689 3.90398 12.8126 0.347656 8.42568 0.347656C4.03874 0.347656 0.482422 3.90398 0.482422 8.29092C0.482422 14.0452 6.41845 17.4827 8.0275 18.3088C8.28091 18.4389 8.57046 18.4389 8.82386 18.3088ZM8.42568 11.6952C10.3058 11.6952 11.8299 10.171 11.8299 8.29092C11.8299 6.4108 10.3058 4.88666 8.42568 4.88666C6.54557 4.88666 5.02143 6.4108 5.02143 8.29092C5.02143 10.171 6.54557 11.6952 8.42568 11.6952Z" fill="white"/>
</svg>
