<svg width="32" height="32" viewBox="0 0 148 160" fill="currentColor" xmlns="http://www.w3.org/2000/svg">
<g clip-path="url(#clip0_1214:3338)">
<path d="M57.544 159.999H50.0734C49.4676 159.999 48.8619 159.595 48.8619 158.786L46.8428 145.233C44.6218 145.031 42.4008 144.424 40.3817 143.615L31.9015 154.336C31.4976 154.942 30.69 154.942 30.2862 154.74L23.8251 150.897C23.2193 150.492 23.0174 149.886 23.2193 149.279L28.2671 136.535C26.6518 135.119 25.0365 133.501 23.6232 131.883L10.9028 136.94C10.2971 137.142 9.69137 136.94 9.28755 136.333L5.45126 129.86C5.04744 129.253 5.24935 128.647 5.85508 128.242L16.5563 119.746C15.7487 117.724 15.3448 115.701 14.941 113.476L1.41306 111.453C0.80733 111.453 0.2016 110.846 0.2016 110.239V102.755C-0.000309944 101.744 0.40351 101.137 1.21115 101.137L14.7391 99.1143C15.1429 96.8893 15.7487 94.8666 16.3544 92.8438L5.65317 84.3482C5.04744 83.9437 5.04744 83.1346 5.24935 82.73L9.08564 76.2572C9.48946 75.6504 10.0952 75.4481 10.7009 75.6504L23.4212 80.7073C24.8346 79.0891 26.4499 77.4708 28.0652 76.0549L23.0174 63.3116C22.8155 62.7047 23.0174 62.0979 23.6232 61.6933L30.0843 57.8501C30.69 57.4456 31.2957 57.6478 31.6996 58.2547L40.3817 68.773C42.4008 67.9639 44.6218 67.5593 46.6409 67.1548L48.66 53.6023C48.66 52.9955 49.2657 52.3887 49.8714 52.3887H57.3421C57.9478 52.3887 58.5536 52.7932 58.5536 53.6023L60.5727 67.1548C62.7937 67.5593 64.8128 68.1662 66.8319 68.773L75.3121 58.0524C75.7159 57.4456 76.5236 57.4456 76.9274 57.6478L83.3885 61.4911C83.9942 61.8956 84.1961 62.5025 83.9942 63.1093L78.9465 75.8526C80.5618 77.2686 82.177 78.8868 83.5904 80.505L96.3107 75.4481C96.9165 75.2458 97.5222 75.4481 97.926 76.0549L101.762 82.5277C102.166 83.1346 101.964 83.7414 101.358 84.1459L90.6573 92.6415C91.4649 94.6643 91.8687 96.8893 92.2725 98.9121L105.801 100.935C106.406 100.935 107.012 101.542 107.012 102.148V109.633C107.012 110.239 106.608 110.846 105.801 110.846L92.8783 113.274C92.4744 115.296 91.8687 117.521 91.263 119.544L101.964 128.04C102.57 128.444 102.57 129.253 102.368 129.658L98.5317 136.131C98.1279 136.738 97.5222 136.94 96.9165 136.738L84.1961 131.681C82.7828 133.299 81.3694 134.917 79.5522 136.333L84.6 149.076C84.8019 149.683 84.6 150.29 83.9942 150.695L77.5331 154.538C76.9274 154.942 76.3216 154.74 75.9178 154.133L67.2357 143.615C65.2166 144.424 62.9956 144.829 60.9765 145.233L58.9574 158.786C58.7555 159.595 58.1498 159.999 57.544 159.999ZM51.0829 157.37H56.3326L58.3517 144.02C58.3517 143.413 58.9574 143.008 59.3612 143.008C61.986 142.604 64.6109 141.997 67.0338 140.985C67.6395 140.783 68.2453 140.985 68.4472 141.39L76.9274 151.908L81.5713 149.279L76.7255 136.535C76.5236 135.928 76.7255 135.322 77.1293 135.119C79.1484 133.501 81.1675 131.478 82.7828 129.456C83.1866 129.051 83.7923 128.849 84.1961 129.051L96.7146 133.906L99.3394 129.253L88.8401 120.96C88.4362 120.556 88.2343 119.949 88.4362 119.544C89.4458 117.117 90.0515 114.487 90.4553 111.858C90.4553 111.251 91.0611 110.846 91.4649 110.846L104.791 108.824V103.564L91.4649 101.542C90.8592 101.542 90.4553 100.935 90.4553 100.53C90.0515 97.9007 89.4458 95.4734 88.4362 92.8438C88.2343 92.237 88.4362 91.6301 88.8401 91.4279L99.3394 82.9323L96.7146 78.2799L84.1961 83.3368C83.5904 83.5391 82.9847 83.3368 82.7828 82.9323C81.1675 80.9095 79.3503 79.0891 77.1293 77.2686C76.7255 76.864 76.5236 76.2572 76.7255 75.8526L81.5713 63.3116L76.9274 60.682L68.6491 70.998C68.2453 71.4026 67.6395 71.6049 67.2357 71.4026C64.8128 70.3912 62.188 69.7844 59.5631 69.3798C58.9574 69.3798 58.5536 68.773 58.5536 68.3684L56.5345 55.0183H51.2848L49.2657 68.3684C49.2657 68.9753 48.66 69.3798 48.2562 69.3798C45.6313 69.7844 43.0065 70.3912 40.5836 71.4026C39.9779 71.6049 39.3721 71.4026 39.1702 70.998L30.69 60.4797L26.0461 63.1093L31.0938 75.6504C31.2957 76.2572 31.0938 76.864 30.69 77.0663C28.6709 78.6845 26.8537 80.505 25.0365 82.73C24.6327 83.1346 24.027 83.3368 23.6232 83.1346L11.1047 78.0777L8.07609 82.73L18.5754 91.2256C18.9792 91.6301 19.1811 92.237 18.9792 92.6415C17.9697 95.0688 17.3639 97.6984 16.9601 100.328C16.9601 100.935 16.3544 101.339 15.9506 101.339L2.62452 103.362V108.621L15.9506 110.644C16.5563 110.644 16.9601 111.251 16.9601 111.655C17.3639 114.285 17.9697 116.915 18.9792 119.342C19.1811 119.949 18.9792 120.556 18.5754 120.758L8.07609 129.456L10.7009 134.108L23.2193 129.253C23.8251 129.051 24.4308 129.253 24.6327 129.658C26.248 131.681 28.0652 133.501 30.2862 135.322C30.69 135.726 30.8919 136.333 30.69 136.738L25.6423 149.279L30.2862 151.908L38.7664 141.39C39.1702 140.985 39.776 140.783 40.1798 140.985C42.6027 141.997 45.2275 142.604 47.8523 143.008C48.4581 143.008 48.8619 143.615 48.8619 144.02L51.0829 157.37ZM53.7077 126.826C42.4008 126.826 33.1129 117.521 33.1129 106.194C33.1129 94.8665 42.4008 85.5619 53.7077 85.5619C65.0147 85.5619 74.3026 94.8665 74.3026 106.194C74.3026 117.521 65.0147 126.826 53.7077 126.826ZM53.7077 88.1914C43.8141 88.1914 35.7378 96.2825 35.7378 106.194C35.7378 116.105 43.8141 124.197 53.7077 124.197C63.6013 124.197 71.6777 116.105 71.6777 106.194C71.6777 96.2825 63.6013 88.1914 53.7077 88.1914Z" />
<path d="M53.7081 80.3029C51.8909 80.3029 50.4775 78.887 50.4775 77.0665C50.4775 75.246 51.8909 73.8301 53.7081 73.8301C55.5253 73.8301 56.9387 75.246 56.9387 77.0665C57.1406 78.887 55.5253 80.3029 53.7081 80.3029ZM53.7081 76.4597C53.3043 76.4597 53.1024 76.8642 53.1024 77.0665C53.1024 77.471 53.3043 77.6733 53.7081 77.6733C54.1119 77.6733 54.3138 77.471 54.3138 77.0665C54.5157 76.6619 54.1119 76.4597 53.7081 76.4597Z" />
<path d="M68.245 84.1475C67.6393 84.1475 67.0335 83.9452 66.6297 83.7429C65.8221 83.3384 65.4183 82.5293 65.0144 81.7202C64.8125 80.9111 64.8125 79.8997 65.4183 79.2929C66.2259 77.8769 68.4469 77.2701 69.8603 78.0792C70.6679 78.4837 71.0717 79.2928 71.4756 80.1019C71.6775 80.9111 71.6775 81.9224 71.0717 82.5293C70.466 83.5406 69.4565 84.1475 68.245 84.1475ZM68.245 80.3042C68.0431 80.3042 67.8412 80.5065 67.6393 80.7088C67.6393 80.9111 67.4374 81.1133 67.6393 81.3156C67.6393 81.3156 67.6393 81.5179 67.8412 81.7202C68.245 81.9224 68.6488 81.7202 68.6488 81.5179C68.8507 81.3156 68.6488 81.1133 68.6488 81.1133C68.6488 81.1133 68.6488 80.9111 68.4469 80.7088C68.4469 80.3042 68.4469 80.3042 68.245 80.3042Z" />
<path d="M78.947 94.8674C77.7355 94.8674 76.726 94.2605 76.1202 93.2491C75.7164 92.44 75.5145 91.6309 75.7164 90.8218C75.9183 90.0127 76.5241 89.2036 77.3317 88.7991C78.7451 87.99 80.9661 88.3945 81.7737 90.0127C82.1775 90.8218 82.3794 91.6309 82.1775 92.44C81.9756 93.2491 81.3699 94.0583 80.5623 94.4628C80.1584 94.6651 79.5527 94.8674 78.947 94.8674ZM78.947 91.0241C78.7451 91.0241 78.7451 91.0241 78.5432 91.0241C78.3412 91.2264 78.3412 91.2264 78.3412 91.4287C78.3412 91.4287 78.3412 91.6309 78.3412 91.8332C78.5432 92.2378 78.947 92.2378 79.1489 92.0355C79.3508 92.0355 79.3508 91.8332 79.5527 91.6309C79.5527 91.6309 79.5527 91.4287 79.5527 91.2264C79.3508 91.0241 79.1489 91.0241 78.947 91.0241Z" />
<path d="M82.7824 109.432C80.9652 109.432 79.5519 108.016 79.5519 106.195C79.5519 104.375 80.9652 102.959 82.7824 102.959C84.5996 102.959 86.013 104.375 86.013 106.195C86.013 108.016 84.5996 109.432 82.7824 109.432ZM82.7824 105.589C82.3786 105.589 82.1767 105.791 82.1767 106.195C82.1767 106.6 82.3786 106.802 82.7824 106.802C83.1863 106.802 83.3882 106.6 83.3882 106.195C83.3882 105.791 83.1863 105.589 82.7824 105.589Z" />
<path d="M78.9467 123.995C78.341 123.995 77.7353 123.793 77.3315 123.591C75.7162 122.781 75.3124 120.759 76.12 119.141C76.9276 117.725 79.1487 117.118 80.562 117.927C81.3697 118.331 81.7735 119.141 82.1773 119.95C82.3792 120.759 82.3792 121.77 81.7735 122.377C81.1678 123.388 80.1582 123.995 78.9467 123.995ZM78.9467 120.152C78.7448 120.152 78.5429 120.354 78.341 120.556C78.1391 120.961 78.341 121.366 78.5429 121.568C78.9467 121.77 79.3506 121.568 79.3506 121.366C79.5525 121.163 79.3506 120.961 79.3506 120.961C79.3506 120.961 79.3506 120.759 79.1487 120.556C79.1487 120.152 78.9467 120.152 78.9467 120.152Z" />
<path d="M68.2447 134.716C67.0333 134.716 66.0237 134.109 65.418 133.098C64.6103 131.48 65.0142 129.457 66.6294 128.446C68.2447 127.636 70.2638 128.041 71.0715 129.659C71.4753 130.468 71.6772 131.277 71.4753 132.087C71.2734 132.896 70.6676 133.705 69.86 134.109C69.4562 134.514 68.8504 134.716 68.2447 134.716ZM68.2447 130.671C68.0428 130.671 68.0428 130.671 67.8409 130.671C67.4371 130.873 67.4371 131.277 67.639 131.48C67.8409 131.884 68.2447 131.884 68.4466 131.682C68.6485 131.682 68.6485 131.48 68.8504 131.277C68.8504 131.277 68.8504 131.075 68.8504 130.873C68.6485 130.873 68.4466 130.671 68.2447 130.671Z" />
<path d="M53.7081 138.559C51.8909 138.559 50.4775 137.143 50.4775 135.322C50.4775 133.502 51.8909 132.086 53.7081 132.086C55.5253 132.086 56.9387 133.502 56.9387 135.322C57.1406 137.143 55.5253 138.559 53.7081 138.559ZM53.7081 134.513C53.3043 134.513 53.1024 134.918 53.1024 135.12C53.1024 135.525 53.3043 135.727 53.7081 135.727C54.1119 135.727 54.3138 135.525 54.3138 135.12C54.5157 134.918 54.1119 134.513 53.7081 134.513Z" />
<path d="M39.1705 134.716C38.5648 134.716 37.9591 134.514 37.5553 134.311C36.7476 133.907 36.3438 133.098 35.94 132.289C35.7381 131.479 35.7381 130.468 36.3438 129.861C37.1514 128.445 39.3724 127.838 40.7858 128.648C41.5935 129.052 41.9973 129.861 42.4011 130.67C42.603 131.479 42.603 132.491 41.9973 133.098C41.5935 134.109 40.382 134.716 39.1705 134.716ZM39.1705 130.67C38.9686 130.67 38.7667 130.873 38.5648 131.075C38.5648 131.277 38.3629 131.479 38.5648 131.682C38.5648 131.682 38.5648 131.884 38.7667 132.086C39.1705 132.289 39.5744 132.086 39.5744 131.884C39.7763 131.682 39.5744 131.479 39.5744 131.479C39.5744 131.277 39.3724 131.075 39.1705 131.075C39.3724 130.67 39.3724 130.67 39.1705 130.67Z" />
<path d="M28.671 123.994C27.4595 123.994 26.45 123.387 25.8442 122.376C25.4404 121.567 25.2385 120.758 25.4404 119.949C25.6423 119.14 26.2481 118.331 27.0557 117.926C28.4691 117.117 30.6901 117.521 31.4977 119.14C32.3054 120.758 31.9015 122.781 30.2863 123.59C29.6805 123.792 29.2767 123.994 28.671 123.994ZM28.671 120.151C28.4691 120.151 28.4691 120.151 28.2672 120.151C28.0652 120.353 28.0652 120.353 27.8633 120.556C27.8633 120.556 27.8633 120.758 27.8633 120.96C28.0652 121.365 28.4691 121.365 28.671 121.162C29.0748 120.96 29.0748 120.556 28.8729 120.353C29.0748 120.151 28.8729 120.151 28.671 120.151Z" />
<path d="M24.6327 109.432C22.8155 109.432 21.4021 108.016 21.4021 106.195C21.4021 104.375 22.8155 102.959 24.6327 102.959C26.4498 102.959 27.8632 104.375 27.8632 106.195C28.0651 108.016 26.4498 109.432 24.6327 109.432ZM24.6327 105.589C24.2288 105.589 24.0269 105.791 24.0269 106.195C24.0269 106.6 24.2288 106.802 24.6327 106.802C25.0365 106.802 25.2384 106.6 25.2384 106.195C25.4403 105.791 25.0365 105.589 24.6327 105.589Z" />
<path d="M28.671 94.8662C28.0653 94.8662 27.4596 94.6639 27.0557 94.4617C26.2481 94.0571 25.8443 93.248 25.4405 92.4389C25.2385 91.6298 25.2385 90.6184 25.8443 90.0116C26.6519 88.5957 28.8729 87.9888 30.2863 88.7979C31.0939 89.2025 31.4978 90.0116 31.9016 90.8207C32.1035 91.6298 32.1035 92.6412 31.4978 93.248C30.892 94.2594 29.6806 94.8662 28.671 94.8662ZM28.671 91.023C28.4691 91.023 28.2672 91.2252 28.0653 91.4275C28.0653 91.6298 27.8634 91.8321 28.0653 91.8321C28.0653 91.8321 28.0653 92.0343 28.4691 92.2366C28.8729 92.4389 29.2767 92.2366 29.2767 92.0344C29.4787 91.8321 29.2767 91.6298 29.2767 91.6298C29.2767 91.6298 29.2767 91.4275 29.0748 91.2252C28.8729 91.023 28.671 91.023 28.671 91.023Z" />
<path d="M39.1705 84.1467C37.959 84.1467 36.9495 83.5398 36.3437 82.5284C35.9399 81.7193 35.738 80.9102 35.9399 80.1011C36.1418 79.292 36.7476 78.4829 37.5552 78.0784C38.9686 77.2693 41.1896 77.6738 41.9972 79.292C42.401 80.1011 42.603 80.9102 42.401 81.7193C42.1991 82.5285 41.5934 83.3376 40.7858 83.7421C40.382 84.1467 39.7762 84.1467 39.1705 84.1467ZM39.1705 80.3034C38.9686 80.3034 38.9686 80.3034 38.7667 80.3034C38.5648 80.5057 38.5648 80.5057 38.5648 80.708C38.5648 80.708 38.5648 80.9102 38.5648 81.1125C38.7667 81.5171 39.1705 81.5171 39.3724 81.3148C39.5743 81.3148 39.5743 81.1125 39.7762 80.9102C39.7762 80.9102 39.7762 80.708 39.7762 80.5057C39.7762 80.5057 39.5743 80.3034 39.1705 80.3034Z" />
<path d="M114.886 71.201H110.04C109.435 71.201 108.829 70.7965 108.829 69.9874L107.618 61.4918C106.406 61.2895 105.195 60.885 103.983 60.4804L98.5316 67.1555C98.1278 67.7623 97.3202 67.7623 96.9163 67.5601L92.6762 65.1327C92.0705 64.7282 91.8686 64.1214 92.0705 63.5145L95.3011 55.4235C94.4934 54.6144 93.4839 53.8053 92.6762 52.7939L84.5998 56.0303C83.9941 56.2326 83.3884 56.0303 82.9845 55.4235L80.5616 51.1757C80.1578 50.5689 80.3597 49.9621 80.9654 49.5575L87.6285 44.0961C87.2247 42.8824 86.8208 41.6688 86.6189 40.4551L78.1387 39.2415C77.533 39.2415 76.9272 38.6346 76.9272 38.0278V33.1732C76.9272 32.5664 77.3311 31.9595 78.1387 31.9595L86.6189 30.7459C86.8208 29.5322 87.2247 28.3186 87.6285 27.1049L80.9654 21.6435C80.3597 21.2389 80.3597 20.4298 80.5616 20.0253L82.7826 15.7775C83.1865 15.1707 83.7922 14.9684 84.3979 15.1707L92.4743 18.4071C93.282 17.3957 94.0896 16.5866 95.0991 15.7775L91.8686 7.68647C91.6667 7.07965 91.8686 6.47282 92.4743 6.06827L96.7144 3.64096C97.3202 3.23641 97.9259 3.43868 98.3297 4.04551L103.781 10.7206C104.993 10.3161 106.204 9.9115 107.416 9.70923L108.627 1.21365C108.627 0.606827 109.233 0 109.839 0H114.684C115.29 0 115.896 0.404551 115.896 1.21365L117.107 9.70923C118.319 9.9115 119.53 10.3161 120.742 10.7206L126.193 4.04551C126.597 3.43868 127.405 3.43868 127.809 3.64096L132.251 6.06827C132.856 6.47282 133.058 7.07965 132.856 7.68647L129.626 15.7775C130.635 16.5866 131.443 17.3957 132.251 18.4071L140.327 15.1707C140.933 14.9684 141.538 15.1707 141.942 15.7775L144.365 20.0253C144.769 20.6321 144.567 21.2389 143.961 21.6435L137.298 27.1049C137.702 28.3186 138.106 29.5322 138.308 30.7459L146.788 31.9595C147.394 31.9595 148 32.5664 148 33.1732V38.0278C148 38.6346 147.596 39.2415 146.788 39.2415L138.308 40.4551C138.106 41.6688 137.702 42.8824 137.298 44.0961L143.961 49.5575C144.567 49.9621 144.567 50.7712 144.365 51.1757L141.942 55.4235C141.538 56.0303 140.933 56.2326 140.327 56.0303L132.251 52.7939C131.443 53.8053 130.635 54.6144 129.626 55.4235L132.856 63.5145C133.058 64.1214 132.856 64.7282 132.251 65.1327L128.01 67.5601C127.405 67.9646 126.799 67.7623 126.395 67.1555L120.944 60.6827C119.732 61.0872 118.521 61.4918 117.309 61.6941L116.098 70.1896C116.098 70.7965 115.492 71.201 114.886 71.201ZM111.05 68.5714H113.675L114.886 60.2781C114.886 59.6713 115.492 59.2667 115.896 59.2667C117.511 59.0645 119.126 58.6599 120.742 58.0531C121.347 57.8508 121.953 58.0531 122.155 58.4576L127.405 65.1327L129.626 63.7168L126.597 55.8281C126.395 55.2212 126.597 54.6144 127.001 54.4121C128.212 53.4008 129.424 52.1871 130.635 50.7712C131.039 50.3666 131.645 50.1643 132.049 50.3666L139.923 53.4008L141.337 51.1757L134.674 45.9166C134.27 45.512 134.068 44.9052 134.27 44.5006C134.875 42.8824 135.279 41.2642 135.683 39.646C135.683 39.0392 136.289 38.6346 136.693 38.6346L144.971 37.421V34.3868L136.693 33.1732C136.087 33.1732 135.683 32.5664 135.683 32.1618C135.481 30.3413 134.875 28.7231 134.27 27.3072C134.068 26.7004 134.27 26.0936 134.674 25.8913L141.337 20.6321L139.923 18.4071L132.049 21.4412C131.443 21.6435 130.837 21.4412 130.635 21.0367C129.828 19.4185 128.616 18.2048 127.203 17.1934C126.799 16.7889 126.597 16.182 126.799 15.7775L129.828 7.88875L127.607 6.47282L122.357 13.1479C121.953 13.5525 121.347 13.7547 120.944 13.5525C119.328 12.9456 117.713 12.5411 116.098 12.3388C115.492 12.3388 115.088 11.732 115.088 11.3274L113.877 3.03413H111.05L109.839 11.3274C109.839 11.9343 109.233 12.3388 108.829 12.3388C107.214 12.5411 105.598 12.9456 103.983 13.5525C103.377 13.7547 102.772 13.5525 102.57 13.1479L97.3202 6.47282L95.0991 7.88875L98.1278 15.7775C98.3297 16.3843 98.1278 16.9911 97.724 17.1934C96.1087 18.2048 94.8972 19.4185 93.8877 20.6321C93.4839 21.0367 92.8781 21.2389 92.4743 21.0367L84.5998 18.0025L83.1865 20.2276L89.8495 25.4867C90.2533 25.8913 90.4552 26.4981 90.2533 26.9027C89.6476 28.5209 89.2438 30.1391 89.0418 31.7573C89.0418 32.3641 88.4361 32.7686 88.0323 32.7686L79.3502 34.3868V37.0164L87.6285 38.2301C88.2342 38.2301 88.638 38.8369 88.638 39.2415C88.8399 40.8597 89.4457 42.6801 89.8495 44.0961C90.0514 44.7029 89.8495 45.3097 89.4457 45.512L82.7826 50.7712L84.196 52.9962L92.0705 49.9621C92.6762 49.7598 93.282 49.9621 93.4839 50.3666C94.4934 51.7826 95.7049 52.9962 97.1182 54.0076C97.5221 54.4121 97.724 55.019 97.5221 55.4235L94.4934 63.3123L96.7144 64.7282L101.964 58.0531C102.368 57.6485 102.974 57.4463 103.377 57.6485C104.993 58.2554 106.608 58.6599 108.223 58.8622C108.829 58.8622 109.233 59.469 109.233 59.8736L111.05 68.5714ZM112.463 49.5575C104.791 49.5575 98.5316 43.287 98.5316 35.6005C98.5316 27.914 104.791 21.6435 112.463 21.6435C120.136 21.6435 126.395 27.914 126.395 35.6005C126.193 43.287 119.934 49.5575 112.463 49.5575ZM112.463 24.2731C106.204 24.2731 101.156 29.33 101.156 35.6005C101.156 41.871 106.204 46.9279 112.463 46.9279C118.723 46.9279 123.77 41.871 123.77 35.6005C123.568 29.33 118.521 24.2731 112.463 24.2731Z" />
</g>
<defs>
<clipPath id="clip0_1214:3338">
<rect width="148" height="160" fill="currentColor"/>
</clipPath>
</defs>
</svg>
