<svg width="36" height="36" viewBox="0 0 36 36" fill="none" xmlns="http://www.w3.org/2000/svg">
<path d="M9.65781 8.60588C12.0286 8.60588 13.9607 6.67965 13.9607 4.30299C13.9607 1.92632 12.0286 0 9.65781 0C7.28702 0 5.35492 1.92623 5.35492 4.3029C5.35492 6.67956 7.28711 8.60588 9.65781 8.60588ZM9.65781 2.00334C10.9261 2.00334 11.9575 3.04053 11.9575 4.30299C11.9575 5.56544 10.9203 6.60264 9.65781 6.60264C8.39536 6.60264 7.35826 5.56535 7.35826 4.3029C7.35826 3.04044 8.38949 2.00334 9.65781 2.00334Z" fill="white"/>
<path d="M32.9921 20.034H31.5637L30.728 18.2441H33.6559C34.2071 18.2441 34.6575 17.7996 34.6575 17.2425V8.10319C34.6575 7.55199 34.213 7.10156 33.6559 7.10156H21.565C21.0138 7.10156 20.5634 7.54604 20.5634 8.10319V17.2425C20.5634 17.7937 21.0078 18.2441 21.565 18.2441H24.4928L23.6572 20.034H17.7125V15.1443C17.7125 13.0284 15.9996 11.3097 13.8778 11.3097H11.839C11.442 11.3097 11.0804 11.5408 10.9262 11.9142L9.66379 14.8243L8.40134 11.9142C8.24722 11.5467 7.88572 11.3097 7.48855 11.3097H5.43791C3.32199 11.3097 1.60323 13.0225 1.60323 15.1443V20.3778C0.654878 20.8816 0.00292969 21.8773 0.00292969 23.033V31.2358C0.00292969 32.8954 1.34836 34.2408 3.00193 34.2408H3.11451V34.9995C3.11451 35.5507 3.55899 36.0011 4.11614 36.0011C4.67329 36.0011 5.11776 35.5566 5.11776 34.9995V34.2408H30.882V34.9995C30.882 35.5507 31.3265 36.0011 31.8837 36.0011C32.4349 36.0011 32.8853 35.5566 32.8853 34.9995V34.2408H32.9979C34.6514 34.2408 35.9969 32.8954 35.9969 31.2418V23.039C35.9911 21.3794 34.6457 20.034 32.9921 20.034ZM22.5607 16.2467V9.11077H32.6483V16.2467H22.5607ZM29.347 20.0222H25.862L26.6918 18.2441H28.5173L29.347 20.0222ZM3.60061 15.1502C3.60061 14.1367 4.42446 13.3129 5.43791 13.3129H6.81891L8.73918 17.7403C9.08886 18.5404 10.2268 18.5404 10.5765 17.7403L12.4968 13.3129H13.8778C14.8913 13.3129 15.7151 14.1368 15.7151 15.1502V20.0399H3.60061V15.1502ZM33.9937 31.2358C33.9937 31.787 33.5492 32.2375 32.9921 32.2375H3.00193C2.45074 32.2375 2.00031 31.793 2.00031 31.2358V29.5822H3.36939C3.92058 29.5822 4.37101 29.1377 4.37101 28.5806C4.37101 28.0294 3.92654 27.5789 3.36939 27.5789H2.00031V25.8009H5.73422C6.28541 25.8009 6.73585 25.3564 6.73585 24.7992C6.73585 24.2481 6.29137 23.7976 5.73422 23.7976H2.00031V23.0212C2.00031 22.47 2.44478 22.0195 3.00193 22.0195H32.992C33.5432 22.0195 33.9936 22.464 33.9936 23.0212V31.224L33.9937 31.2358Z" fill="white"/>
<path fill-rule="evenodd" clip-rule="evenodd" d="M30.728 18.2441H33.6559C34.207 18.2441 34.6575 17.7996 34.6575 17.2425V8.10319C34.6575 7.552 34.213 7.10156 33.6559 7.10156H21.565C21.0138 7.10156 20.5634 7.54604 20.5634 8.10319V17.2425C20.5634 17.7937 21.0078 18.2441 21.565 18.2441H24.4928H26.6918H28.5173H30.728ZM22.5607 9.11077V16.2467H32.6483V9.11077H22.5607Z" fill="#FF6C0E"/>
</svg>
