<svg width="64" height="64" viewBox="0 0 64 64" fill="none" xmlns="http://www.w3.org/2000/svg">
<path d="M17.1695 15.2993C21.3842 15.2993 24.8191 11.8749 24.8191 7.64976C24.8191 3.42458 21.3842 0 17.1695 0C12.9547 0 9.5199 3.42441 9.5199 7.64959C9.5199 11.8748 12.9549 15.2993 17.1695 15.2993ZM17.1695 3.56149C19.4243 3.56149 21.2578 5.40539 21.2578 7.64976C21.2578 9.89412 19.4139 11.738 17.1695 11.738C14.9251 11.738 13.0814 9.89396 13.0814 7.64959C13.0814 5.40523 14.9147 3.56149 17.1695 3.56149Z" fill="white"/>
<path d="M58.6527 35.616H56.1133L54.6276 32.4339H59.8327C60.8126 32.4339 61.6134 31.6438 61.6134 30.6533V14.4057C61.6134 13.4258 60.8232 12.625 59.8327 12.625H38.3378C37.3579 12.625 36.5571 13.4152 36.5571 14.4057V30.6533C36.5571 31.6332 37.3473 32.4339 38.3378 32.4339H43.5429L42.0572 35.616H31.489V26.9233C31.489 23.1616 28.4438 20.1061 24.6718 20.1061H21.0472C20.3413 20.1061 19.6985 20.517 19.4245 21.1808L17.1801 26.3543L14.9358 21.1808C14.6618 20.5276 14.0191 20.1061 13.313 20.1061H9.66744C5.9058 20.1061 2.85023 23.1512 2.85023 26.9233V36.2272C1.16427 37.1228 0.00524902 38.8929 0.00524902 40.9475V55.5304C0.00524902 58.4807 2.39712 60.8726 5.3368 60.8726H5.53695V62.2213C5.53695 63.2012 6.32713 64.0019 7.31762 64.0019C8.3081 64.0019 9.09828 63.2118 9.09828 62.2213V60.8726H54.9015V62.2213C54.9015 63.2012 55.6916 64.0019 56.6821 64.0019C57.662 64.0019 58.4628 63.2118 58.4628 62.2213V60.8726H58.6629C61.6026 60.8726 63.9945 58.4807 63.9945 55.541V40.9581C63.9842 38.0079 61.5923 35.616 58.6527 35.616ZM40.108 28.8831V16.1969H58.0415V28.8831H40.108ZM52.1725 35.595H45.977L47.4522 32.4339H50.6975L52.1725 35.595ZM6.40112 26.9337C6.40112 25.1318 7.86575 23.6674 9.66744 23.6674H12.1226L15.5364 31.5383C16.158 32.9607 18.181 32.9607 18.8027 31.5383L22.2165 23.6674H24.6716C26.4735 23.6674 27.9379 25.132 27.9379 26.9337V35.6264H6.40112V26.9337ZM60.4333 55.5304C60.4333 56.5103 59.6431 57.3111 58.6527 57.3111H5.3368C4.35691 57.3111 3.55614 56.5209 3.55614 55.5304V52.5906H5.99006C6.96996 52.5906 7.77073 51.8004 7.77073 50.8099C7.77073 49.83 6.98055 49.0292 5.99006 49.0292H3.55614V45.8682H10.1942C11.1741 45.8682 11.9749 45.078 11.9749 44.0875C11.9749 43.1076 11.1847 42.3069 10.1942 42.3069H3.55614V40.9265C3.55614 39.9466 4.34631 39.1459 5.3368 39.1459H58.6525C59.6324 39.1459 60.4332 39.936 60.4332 40.9265V55.5094L60.4333 55.5304Z" fill="white"/>
<path fill-rule="evenodd" clip-rule="evenodd" d="M54.6276 32.43H59.8327C60.8126 32.43 61.6133 31.6399 61.6133 30.6494V14.4018C61.6133 13.4219 60.8232 12.6211 59.8327 12.6211H38.3378C37.3579 12.6211 36.5571 13.4113 36.5571 14.4018V30.6494C36.5571 31.6293 37.3473 32.43 38.3378 32.43H43.5429H47.4522H50.6974H54.6276ZM40.108 16.193V28.8792H58.0414V16.193H40.108Z" fill="#FF6C0E"/>
</svg>
