<svg width="32" height="32" viewBox="0 0 124 160" fill="currentColor" xmlns="http://www.w3.org/2000/svg">
<g clip-path="url(#clip0_1247:4115)">
<path d="M118.354 137.345H5.64553C2.41951 137.345 0 134.715 0 131.681V48.5457C0 45.3093 2.62114 42.882 5.64553 42.882H25.6065C26.413 42.882 27.0179 43.4888 27.0179 44.2979V98.1032H96.9821V44.0956C96.9821 43.2865 97.587 42.6797 98.3935 42.6797H118.354C121.58 42.6797 124 45.3093 124 48.3434V131.479C124 134.715 121.58 137.345 118.354 137.345ZM5.64553 45.3093C3.83089 45.3093 2.62114 46.7252 2.62114 48.3434V131.479C2.62114 133.097 4.03252 134.513 5.64553 134.513H118.153C119.967 134.513 121.177 133.097 121.177 131.479V48.5457C121.177 46.7252 119.766 45.5115 118.153 45.5115H99.4016V99.1146C99.4016 99.9237 98.7967 100.328 98.1919 100.531H25.6065C25.2033 100.531 25.0016 100.328 24.5984 100.126C24.3967 99.9237 24.1951 99.5191 24.1951 99.1146V45.3093H5.64553Z" />
<path d="M76.8195 152.314H47.3821C46.9789 152.314 46.5756 152.111 46.374 151.909C46.1724 151.707 45.9707 151.302 46.1724 150.898L48.5919 135.929C48.5919 135.323 49.1968 134.918 49.8016 134.918H74.6016C75.2065 134.918 75.8114 135.323 75.8114 135.929L78.2309 150.695C78.2309 150.898 78.4325 151.1 78.4325 151.302C78.2309 151.707 77.626 152.314 76.8195 152.314ZM48.7935 149.684H75.2065L73.1902 137.345H50.8098L48.7935 149.684Z" />
<path d="M86.2959 160.001H37.7041C36.8976 160.001 36.2927 159.394 36.2927 158.585V150.898C36.2927 150.089 36.8976 149.482 37.7041 149.482H86.2959C87.1024 149.482 87.7073 150.089 87.7073 150.898V158.585C87.7073 159.596 87.1024 160.001 86.2959 160.001ZM39.1154 157.371H85.0862V152.314H39.1154V157.371Z" />
<path d="M122.79 118.33H1.41138C0.604878 118.33 0 117.723 0 116.914C0 116.105 0.604878 115.498 1.41138 115.498H122.79C123.597 115.498 124.202 116.105 124.202 116.914C124 117.925 123.395 118.33 122.79 118.33Z" />
<path d="M62.1008 132.288C58.8748 132.288 56.4553 129.659 56.4553 126.625C56.4553 123.388 59.0764 120.961 62.1008 120.961C65.3268 120.961 67.7463 123.591 67.7463 126.625C67.7463 129.659 65.1252 132.288 62.1008 132.288ZM62.1008 123.388C60.4878 123.388 59.0764 124.804 59.0764 126.422C59.0764 128.041 60.4878 129.457 62.1008 129.457C63.7138 129.457 65.1252 128.041 65.1252 126.422C65.1252 124.804 63.7138 123.388 62.1008 123.388Z" />
<path d="M25.8081 100.531C25.4049 100.531 25.2032 100.329 24.8 100.126C24.5984 99.9241 24.3967 99.5196 24.3967 99.1151V19.4185C24.3967 19.0139 24.5984 18.6094 24.8 18.4071L44.761 0.202276C44.9626 0.202276 45.3658 0 45.5675 0H98.1919C98.9984 0 99.6033 0.606827 99.6033 1.41593V99.1151C99.6033 99.9241 98.9984 100.329 98.3935 100.531H25.8081ZM27.0179 20.0253V97.9014H96.9821V2.62958H46.1724L27.0179 20.0253Z" />
<path d="M81.6586 69.785H43.3496C42.5431 69.785 41.9382 69.1782 41.9382 68.3691C41.9382 67.56 42.5431 66.9531 43.3496 66.9531H81.6586C82.4651 66.9531 83.0699 67.56 83.0699 68.3691C82.8683 69.1782 82.2634 69.785 81.6586 69.785Z" />
<path d="M64.5203 85.5623H43.3496C42.5431 85.5623 41.9382 84.9555 41.9382 84.1464C41.9382 83.3373 42.5431 82.7305 43.3496 82.7305H64.5203C65.3268 82.7305 65.9317 83.3373 65.9317 84.1464C65.9317 84.9555 65.3268 85.5623 64.5203 85.5623Z" />
<path d="M25.8081 20.8344C25.0016 20.8344 24.5984 20.2276 24.3967 19.6207C24.3967 18.8116 25.0016 18.2048 25.6065 18.2048L44.3577 18.0025V1.41593C44.3577 0.606827 44.9626 0 45.5675 0C46.374 0 46.9789 0.606827 46.9789 1.41593V19.4185C46.9789 20.2276 46.374 20.6321 45.7691 20.8344H25.8081Z" />
<path d="M82.465 40.8612H43.3496C42.5431 40.8612 41.9382 40.2543 41.9382 39.4452C41.9382 38.6361 42.5431 38.0293 43.3496 38.0293H82.465C83.2715 38.0293 83.8764 38.6361 83.8764 39.4452C83.8764 40.2543 83.2715 40.8612 82.465 40.8612Z" />
<path d="M74.8033 56.6365H43.3496C42.5431 56.6365 41.9382 56.0297 41.9382 55.2206C41.9382 54.4115 42.5431 53.8047 43.3496 53.8047H74.8033C75.6098 53.8047 76.2146 54.4115 76.2146 55.2206C76.013 56.0297 75.6098 56.6365 74.8033 56.6365Z" />
</g>
<defs>
<clipPath id="clip0_1247:4115">
<rect width="124" height="160" fill="white"/>
</clipPath>
</defs>
</svg>
