<svg width="136" height="136" viewBox="0 0 136 136" fill="none" xmlns="http://www.w3.org/2000/svg">
<path d="M68 126.114C101.418 126.114 128.509 110.472 128.509 91.1779C128.509 71.8834 101.418 56.2422 68 56.2422C34.5817 56.2422 7.49084 71.8834 7.49084 91.1779C7.49084 110.472 34.5817 126.114 68 126.114Z" fill="#F5F5F5"/>
<path d="M78.8637 120.144L108.55 103.008C109.2 102.633 109.2 102.023 108.55 101.648L52.3464 69.1957C51.9814 69.0106 51.5779 68.9141 51.1687 68.9141C50.7594 68.9141 50.3559 69.0106 49.9909 69.1957L20.3048 86.3317C19.6547 86.7071 19.6547 87.3164 20.3048 87.6917L76.5082 120.144C76.8732 120.329 77.2767 120.426 77.6859 120.426C78.0952 120.426 78.4987 120.329 78.8637 120.144Z" fill="#E0E0E0"/>
<path d="M25.9814 86.9805L28.3098 85.6368C28.3098 85.6368 28.8782 80.6538 28.5002 76.7941C27.9562 71.3731 24.4637 64.8479 20.2858 66.3792C16.1078 67.9106 22.1898 73.4349 23.5498 78.0344C24.9098 82.634 25.9814 86.9805 25.9814 86.9805Z" fill="#064DD6"/>
<path opacity="0.15" d="M25.9814 86.9805L28.3098 85.6368C28.3098 85.6368 28.8782 80.6538 28.5002 76.7941C27.9562 71.3731 24.4637 64.8479 20.2858 66.3792C16.1078 67.9106 22.1898 73.4349 23.5498 78.0344C24.9098 82.634 25.9814 86.9805 25.9814 86.9805Z" fill="black"/>
<path d="M27.2 86.4151C27.1629 86.4137 27.1279 86.3978 27.1025 86.3708C27.0771 86.3439 27.0632 86.308 27.064 86.271C27.472 74.2214 21.488 68.1585 21.4145 68.0986C21.4013 68.0857 21.3908 68.0703 21.3836 68.0532C21.3764 68.0362 21.3727 68.0179 21.3727 67.9994C21.3727 67.9808 21.3764 67.9625 21.3836 67.9455C21.3908 67.9284 21.4013 67.913 21.4145 67.9001C21.441 67.874 21.4766 67.8594 21.5138 67.8594C21.551 67.8594 21.5866 67.874 21.6131 67.9001C21.6729 67.9626 27.7603 74.1098 27.3468 86.2818C27.3447 86.3189 27.3281 86.3536 27.3007 86.3785C27.2732 86.4035 27.237 86.4166 27.2 86.4151Z" fill="white"/>
<path d="M24.752 87.9427L26.384 86.9852C26.384 86.9852 26.656 83.5662 24.9913 79.4128C23.5307 75.7952 19.9104 72.795 18.088 73.4288C16.2656 74.0625 16.32 75.3436 17.2094 76.7036C18.0988 78.0636 23.5008 81.2868 24.752 87.9427Z" fill="#064DD6"/>
<path d="M25.6142 87.5833C25.5767 87.5833 25.5407 87.5684 25.5142 87.5419C25.4877 87.5153 25.4728 87.4794 25.4728 87.4419C25.5054 79.8259 18.3518 74.6742 18.2784 74.6225C18.2483 74.6007 18.228 74.5679 18.2219 74.5313C18.2158 74.4946 18.2243 74.457 18.2457 74.4267C18.2563 74.4115 18.2698 74.3986 18.2854 74.3887C18.3011 74.3788 18.3185 74.3721 18.3368 74.3691C18.355 74.366 18.3737 74.3667 18.3917 74.371C18.4097 74.3752 18.4266 74.3831 18.4416 74.394C18.515 74.4457 25.7856 79.679 25.7556 87.45C25.7529 87.4859 25.7369 87.5194 25.7107 87.5441C25.6846 87.5687 25.6501 87.5827 25.6142 87.5833Z" fill="white"/>
<path d="M105.463 14.8814L107.807 16.2414C107.793 16.1386 107.786 16.0351 107.785 15.9313V15.2323C107.785 14.0246 108.634 13.535 109.689 14.1443C110.139 14.4217 110.524 14.7928 110.818 15.2323C110.99 13.7145 112.178 13.1488 113.628 13.9838C115.192 14.8869 116.462 17.0846 116.462 18.8798V19.8944C116.472 20.3003 116.39 20.7032 116.22 21.0721L118.168 22.1955C118.473 22.3946 118.727 22.6628 118.91 22.9785C119.092 23.2942 119.198 23.6484 119.218 24.0125C119.218 24.6843 118.747 24.9536 118.168 24.619L105.463 17.3049C105.157 17.1059 104.903 16.8376 104.72 16.5219C104.538 16.2063 104.433 15.852 104.413 15.488C104.413 14.8161 104.883 14.5441 105.463 14.8814Z" fill="#EBEBEB"/>
<path d="M95.744 20.9133L97.4603 21.9033C97.4563 21.8281 97.4563 21.7528 97.4603 21.6776V21.1798C97.4603 20.2931 98.0805 19.9341 98.8475 20.3638C99.1732 20.5684 99.4514 20.8401 99.6635 21.1608C99.7886 20.0456 100.662 19.6321 101.723 20.2441C102.327 20.6382 102.83 21.1691 103.191 21.7938C103.552 22.4186 103.761 23.1195 103.801 23.84V24.5853C103.807 24.8823 103.747 25.1771 103.624 25.4475L105.049 26.2635C105.274 26.4092 105.461 26.6058 105.595 26.8374C105.729 27.069 105.807 27.329 105.822 27.5963C105.822 28.0886 105.476 28.2872 105.049 28.0397L95.744 22.6921C95.5197 22.5458 95.3331 22.3485 95.1993 22.1165C95.0656 21.8844 94.9885 21.6241 94.9743 21.3566C94.9634 20.867 95.3061 20.6712 95.744 20.9133Z" fill="#EBEBEB"/>
<path d="M106.749 97.176C107.173 97.5024 107.127 97.9675 106.616 98.264L78.6081 114.44C78.2922 114.6 77.9433 114.683 77.5894 114.683C77.2355 114.683 76.8866 114.6 76.5708 114.44L23.0085 83.5216C22.489 83.2224 22.4482 82.7518 22.8888 82.4336C22.6254 82.6325 22.4083 82.8864 22.2529 83.1776C22.0974 83.4688 22.0072 83.7904 21.9885 84.12V85.4664C22.008 85.8204 22.1104 86.1649 22.2876 86.4721C22.4648 86.7792 22.7117 87.0404 23.0085 87.2344L76.5517 118.142C76.8676 118.303 77.2172 118.387 77.5717 118.387C77.9263 118.387 78.2758 118.303 78.5917 118.142L106.608 101.969C106.905 101.775 107.152 101.515 107.329 101.208C107.506 100.901 107.609 100.557 107.628 100.203V98.8434C107.608 98.5189 107.52 98.2023 107.369 97.9147C107.217 97.6272 107.006 97.3753 106.749 97.176Z" fill="#455A64"/>
<path d="M106.624 97.0869L53.0645 66.1687C52.7487 66.009 52.3998 65.9258 52.0459 65.9258C51.692 65.9258 51.3431 66.009 51.0273 66.1687L23.0113 82.3472C22.4482 82.6709 22.4482 83.1986 23.0113 83.5223L76.5572 114.44C76.873 114.6 77.2219 114.683 77.5758 114.683C77.9297 114.683 78.2786 114.6 78.5945 114.44L106.61 98.2619C107.168 97.9383 107.168 97.4106 106.624 97.0869ZM99.3589 94.5872C99.8404 94.8592 99.8404 95.3162 99.3589 95.5936L73.8834 110.306C73.6122 110.443 73.3127 110.514 73.0089 110.514C72.7052 110.514 72.4057 110.443 72.1345 110.306L30.4314 86.2232C29.95 85.9512 29.95 85.4915 30.4314 85.2141L55.9097 70.5043C56.3911 70.2323 56.8943 70.0637 57.3757 70.3411L99.3589 94.5872Z" fill="#37474F"/>
<path d="M22.8888 82.4141C22.6254 82.613 22.4083 82.8668 22.2529 83.1581C22.0974 83.4493 22.0072 83.7709 21.9885 84.1005V85.4469C22.0082 85.8009 22.1107 86.1453 22.2879 86.4524C22.4651 86.7595 22.7119 87.0207 23.0085 87.2149L76.5517 118.141C76.8667 118.307 77.2184 118.392 77.5744 118.386V114.681C77.2195 114.688 76.8686 114.605 76.5544 114.439L23.0085 83.5211C22.489 83.2301 22.4482 82.7513 22.8888 82.4141Z" fill="#263238"/>
<path d="M39.712 75.8452C40.0901 75.6276 40.0901 75.274 39.712 75.0564C39.5012 74.95 39.2682 74.8945 39.032 74.8945C38.7958 74.8945 38.5629 74.95 38.352 75.0564C37.974 75.274 37.974 75.6276 38.352 75.8452C38.5629 75.9516 38.7958 76.007 39.032 76.007C39.2682 76.007 39.5012 75.9516 39.712 75.8452Z" fill="black"/>
<path d="M91.5661 105.434C92.4556 104.922 92.4556 104.09 91.5661 103.579C91.068 103.324 90.5166 103.191 89.9572 103.191C89.3979 103.191 88.8465 103.324 88.3484 103.579C87.4589 104.09 87.4589 104.922 88.3484 105.434C88.8465 105.688 89.3979 105.821 89.9572 105.821C90.5166 105.821 91.068 105.688 91.5661 105.434V105.434Z" stroke="#E6E6E6" stroke-miterlimit="10"/>
<path d="M39.0293 78.4623L44.3061 75.4186C44.6189 75.2364 44.6353 74.9508 44.3415 74.7794C44.1702 74.6978 43.9823 74.657 43.7925 74.6603C43.6028 74.6636 43.4164 74.7109 43.2481 74.7985L37.9713 77.8421C37.6585 78.0244 37.6421 78.31 37.9359 78.4813C38.1072 78.5629 38.2951 78.6037 38.4849 78.6004C38.6746 78.5971 38.861 78.5498 39.0293 78.4623Z" fill="black"/>
<path d="M57.3757 70.3528C56.8943 70.0808 56.3911 70.2358 55.9096 70.516L30.4314 85.2257C29.95 85.4977 29.95 85.9547 30.4314 86.2349L72.1236 110.304C72.3948 110.441 72.6943 110.512 72.998 110.512C73.3018 110.512 73.6013 110.441 73.8725 110.304L99.348 95.5917C99.8322 95.3197 99.8322 94.8627 99.348 94.5853L57.3757 70.3528Z" fill="#064DD6"/>
<path opacity="0.85" d="M57.3757 70.3528C56.8943 70.0808 56.3911 70.2358 55.9096 70.516L30.4314 85.2257C29.95 85.4977 29.95 85.9547 30.4314 86.2349L72.1236 110.304C72.3948 110.441 72.6943 110.512 72.998 110.512C73.3018 110.512 73.6013 110.441 73.8725 110.304L99.348 95.5917C99.8322 95.3197 99.8322 94.8627 99.348 94.5853L57.3757 70.3528Z" fill="white"/>
<path d="M33.3663 86.5456L33.0943 86.3879C33.0818 86.3832 33.0711 86.3749 33.0634 86.3639C33.0558 86.353 33.0518 86.34 33.0518 86.3267C33.0518 86.3133 33.0558 86.3003 33.0634 86.2894C33.0711 86.2784 33.0818 86.2701 33.0943 86.2655L33.1242 86.2491C33.1569 86.2318 33.1933 86.2227 33.2303 86.2227C33.2673 86.2227 33.3037 86.2318 33.3364 86.2491L33.6084 86.4042C33.6655 86.4395 33.6655 86.4939 33.6084 86.5266L33.5785 86.5456C33.5454 86.5617 33.5092 86.5701 33.4724 86.5701C33.4356 86.5701 33.3994 86.5617 33.3663 86.5456Z" fill="#455A64"/>
<path d="M33.8504 86.2672L33.3799 85.9952C33.3228 85.9626 33.3228 85.9082 33.3799 85.8728L33.4098 85.8565C33.4428 85.8404 33.4791 85.832 33.5159 85.832C33.5526 85.832 33.5889 85.8404 33.622 85.8565L34.0925 86.1285C34.1496 86.1612 34.1496 86.2156 34.0925 86.2509L34.0626 86.2672C34.0296 86.2834 33.9933 86.2917 33.9565 86.2917C33.9198 86.2917 33.8835 86.2834 33.8504 86.2672Z" fill="#455A64"/>
<path d="M34.3346 85.9869L33.6682 85.6034C33.6083 85.5681 33.6083 85.5137 33.6682 85.481L33.6981 85.462C33.7311 85.4459 33.7674 85.4375 33.8042 85.4375C33.8409 85.4375 33.8772 85.4459 33.9103 85.462L34.5767 85.8482C34.5891 85.8529 34.5999 85.8612 34.6075 85.8722C34.6151 85.8831 34.6192 85.8961 34.6192 85.9094C34.6192 85.9228 34.6151 85.9358 34.6075 85.9467C34.5999 85.9576 34.5891 85.966 34.5767 85.9706L34.5467 85.9869C34.5141 86.0043 34.4776 86.0134 34.4407 86.0134C34.4037 86.0134 34.3672 86.0043 34.3346 85.9869Z" fill="#455A64"/>
<path d="M34.816 85.7095L33.6655 85.0431C33.6056 85.0104 33.6056 84.956 33.6655 84.9207L33.6954 84.9043C33.7283 84.8876 33.7646 84.8789 33.8015 84.8789C33.8384 84.8789 33.8747 84.8876 33.9076 84.9043L35.0554 85.568C35.1152 85.6034 35.1152 85.6578 35.0554 85.6904L35.0282 85.7095C34.9952 85.7256 34.9589 85.7339 34.9221 85.7339C34.8854 85.7339 34.8491 85.7256 34.816 85.7095Z" fill="#455A64"/>
<path d="M36.206 84.9952C36.1877 84.9973 36.1692 84.9925 36.1543 84.9816L35.9857 84.8837L35.4417 85.1965C35.43 85.2043 35.4163 85.2085 35.4022 85.2085C35.3882 85.2085 35.3745 85.2043 35.3628 85.1965L35.3002 85.1611L35.273 85.1421V85.1149L35.2458 84.4322C35.2441 84.4223 35.2441 84.4122 35.2458 84.4023C35.2548 84.3918 35.266 84.3835 35.2785 84.3778L35.3519 84.3343C35.3712 84.323 35.3924 84.3156 35.4145 84.3125C35.4346 84.3128 35.4543 84.3184 35.4716 84.3288L36.0618 84.6688L36.1815 84.6008C36.1994 84.5888 36.22 84.5814 36.2414 84.5791C36.2607 84.579 36.2796 84.5847 36.2958 84.5954L36.3366 84.6199C36.3556 84.6199 36.3638 84.6389 36.361 84.6498C36.3583 84.6607 36.361 84.6688 36.3257 84.6824L36.206 84.7531L36.3746 84.8511C36.3937 84.8511 36.4018 84.8701 36.3991 84.881C36.3964 84.8919 36.3855 84.9027 36.361 84.9163L36.2686 84.968C36.251 84.9833 36.2291 84.9927 36.206 84.9952ZM35.8769 84.7803L35.4553 84.5383L35.4825 85.0088L35.8769 84.7803Z" fill="#455A64"/>
<path d="M36.7472 84.5666C36.5568 84.5757 36.3678 84.5294 36.2032 84.4333C36.0346 84.3354 35.9584 84.2293 35.972 84.115C35.9856 84.0008 36.0917 83.8893 36.2848 83.7778C36.361 83.7326 36.4411 83.6943 36.5242 83.6635C36.5972 83.6353 36.6728 83.6143 36.7499 83.601C36.7613 83.5966 36.7739 83.5966 36.7853 83.601C36.7864 83.6054 36.7864 83.6101 36.7853 83.6146L36.8098 83.6853C36.8124 83.6883 36.8139 83.6921 36.8139 83.6962C36.8139 83.7002 36.8124 83.7041 36.8098 83.707H36.7798C36.6627 83.7302 36.5504 83.7735 36.448 83.8349C36.3174 83.9083 36.2467 83.9872 36.2358 84.0661C36.225 84.145 36.2848 84.2239 36.4154 84.2973C36.5347 84.3703 36.6726 84.4071 36.8125 84.4034C36.9509 84.3982 37.0856 84.358 37.2042 84.2864C37.2466 84.2618 37.2875 84.2345 37.3266 84.2048C37.3576 84.1828 37.3851 84.1562 37.4082 84.1259L37.1362 83.9682L36.9104 84.0987C36.8912 84.11 36.8699 84.1174 36.8478 84.1205C36.8286 84.1198 36.8099 84.1142 36.7934 84.1042L36.7554 84.0824C36.7372 84.0715 36.7291 84.0606 36.7309 84.0498C36.7309 84.0498 36.7445 84.0307 36.7662 84.0171L37.128 83.8077C37.1494 83.7947 37.1737 83.7873 37.1987 83.7859C37.221 83.7862 37.2427 83.7928 37.2613 83.805L37.653 84.0307C37.664 84.0351 37.6735 84.0427 37.6802 84.0525C37.6802 84.0525 37.6802 84.0661 37.6802 84.077C37.5947 84.2048 37.4763 84.3073 37.3374 84.3735C37.1596 84.4855 36.9569 84.5518 36.7472 84.5666Z" fill="#455A64"/>
<path d="M44.2762 79.2821L44.9154 79.6521C44.9425 79.6655 44.9723 79.6725 45.0025 79.6725C45.0327 79.6725 45.0625 79.6655 45.0895 79.6521L45.7342 79.2821C45.7804 79.2522 45.7804 79.2087 45.7342 79.1815L45.0922 78.8116C45.0656 78.7968 45.0356 78.7891 45.0052 78.7891C44.9747 78.7891 44.9448 78.7968 44.9181 78.8116L44.2762 79.1815C44.2273 79.2087 44.2273 79.2522 44.2762 79.2821Z" fill="#455A64"/>
<path d="M44.7196 78.7788C44.635 78.7376 44.5417 78.7171 44.4476 78.7189C44.3534 78.7165 44.2601 78.737 44.1756 78.7788C44.0505 78.8522 44.0505 78.9637 44.1756 79.0345L44.3959 79.1623L44.5564 79.1297L44.3361 79.0045C44.3165 78.9971 44.2997 78.9838 44.2878 78.9666C44.276 78.9494 44.2696 78.9289 44.2696 78.908C44.2696 78.8871 44.276 78.8666 44.2878 78.8494C44.2997 78.8321 44.3165 78.8189 44.3361 78.8114C44.3712 78.7924 44.4104 78.7821 44.4503 78.7815C44.4896 78.7804 44.5284 78.7908 44.5619 78.8114L44.7822 78.9393L44.9454 78.9066L44.7196 78.7788Z" fill="#455A64"/>
<path d="M56.3911 72.0316C56.2833 72.028 56.1765 72.0523 56.081 72.1023L54.449 73.0407C54.3075 73.1196 54.3075 73.2475 54.449 73.3291L55.0419 73.6691C55.1374 73.7191 55.2443 73.7434 55.352 73.7398C55.4022 73.7394 55.4522 73.7349 55.5016 73.7262C55.5573 73.7172 55.6108 73.6978 55.6594 73.6691L57.2914 72.7334C57.4301 72.6518 57.4301 72.5239 57.2914 72.4451L56.6984 72.1023C56.6039 72.0523 56.4979 72.0279 56.3911 72.0316ZM55.3575 73.6636C55.3108 73.6629 55.265 73.6508 55.2242 73.6283L54.6339 73.2855C54.6112 73.2774 54.5915 73.2625 54.5776 73.2428C54.5637 73.223 54.5563 73.1995 54.5563 73.1754C54.5563 73.1512 54.5637 73.1277 54.5776 73.108C54.5915 73.0883 54.6112 73.0733 54.6339 73.0652L56.2659 72.1295C56.2918 72.1136 56.3204 72.1025 56.3503 72.0969H56.3992C56.4453 72.0983 56.4902 72.1114 56.5298 72.135L57.12 72.475C57.1427 72.4831 57.1624 72.498 57.1763 72.5177C57.1902 72.5375 57.1977 72.561 57.1977 72.5851C57.1977 72.6093 57.1902 72.6328 57.1763 72.6525C57.1624 72.6722 57.1427 72.6872 57.12 72.6953L55.488 73.6337C55.4484 73.6572 55.4035 73.6703 55.3575 73.6718V73.6636Z" fill="#455A64"/>
<path d="M55.4038 73.5558L55.382 73.5422L54.838 73.2348C54.8213 73.2287 54.807 73.2175 54.7968 73.2029C54.7867 73.1884 54.7813 73.171 54.7812 73.1532C54.7813 73.1355 54.7867 73.1181 54.7968 73.1036C54.807 73.089 54.8213 73.0778 54.838 73.0716L56.3014 72.2284C56.3104 72.2222 56.3206 72.2176 56.3313 72.2148L56.353 72.2284L56.897 72.5358C56.9128 72.5424 56.9263 72.5536 56.9358 72.5679C56.9453 72.5822 56.9504 72.5989 56.9504 72.616C56.9504 72.6332 56.9453 72.6499 56.9358 72.6642C56.9263 72.6785 56.9128 72.6896 56.897 72.6963L55.4337 73.5422L55.4038 73.5558Z" fill="#455A64"/>
<path d="M56.7828 72.0579C56.839 72.0446 56.8973 72.0433 56.954 72.0541C57.0108 72.0649 57.0646 72.0875 57.1119 72.1205L57.2207 72.1857C57.3431 72.2537 57.3948 72.3408 57.3377 72.3788L57.2316 72.4441L56.6876 72.1205L56.7828 72.0579Z" fill="#455A64"/>
<path d="M47.4886 88.0404C47.8884 88.0238 48.2792 87.9158 48.631 87.7248C49.2946 87.3413 49.466 86.8191 48.4134 86.1636C48.378 86.3615 48.2972 86.5485 48.1773 86.7099C48.0574 86.8713 47.9017 87.0027 47.7225 87.0938C46.8194 87.616 45.7913 87.7493 44.9617 87.2733C44.1321 86.7973 44.4177 86.0901 45.3262 85.5679C45.9107 85.2344 46.5726 85.0601 47.2456 85.0625C47.9186 85.0649 48.5792 85.2439 49.1614 85.5815C50.6982 86.4682 50.3527 87.4066 49.2647 88.0295C48.6953 88.3484 48.0611 88.5344 47.4097 88.5735L47.4886 88.0404ZM47.8721 85.8807C47.0751 85.5352 46.3978 85.5842 45.8838 85.8807C45.4513 86.1282 45.3642 86.49 45.843 86.7647C46.0827 86.8944 46.3534 86.9561 46.6257 86.9431C46.8979 86.9302 47.1615 86.8431 47.3879 86.6912C47.5405 86.6202 47.6682 86.5049 47.7546 86.3604C47.8409 86.2158 47.8818 86.0487 47.8721 85.8807Z" fill="#455A64"/>
<path d="M49.7761 84.1689C49.9383 84.0705 50.1216 84.0122 50.3109 83.999C50.5001 83.9858 50.6898 84.0179 50.8641 84.0927C51.1361 84.2559 51.0844 84.5279 50.7362 84.7265C50.5715 84.8272 50.3849 84.8869 50.1923 84.9006C49.9997 84.9144 49.8066 84.8817 49.6292 84.8054C49.349 84.6449 49.4198 84.3702 49.7761 84.1689ZM51.9004 85.3956C52.0627 85.2974 52.2462 85.2396 52.4355 85.2268C52.6248 85.214 52.8144 85.2467 52.9884 85.3222C53.2604 85.4827 53.2087 85.7547 52.8606 85.9559C52.6955 86.056 52.5091 86.1154 52.3166 86.1291C52.1241 86.1428 51.9311 86.1105 51.7535 86.0348C51.4761 85.8743 51.5441 85.5969 51.8922 85.4065L51.9004 85.3956Z" fill="#455A64"/>
<path d="M52.2594 83.9157C50.9239 83.1432 50.9239 82.3408 52.0173 81.707C53.1107 81.0733 54.5088 81.0787 55.8416 81.8485C57.1744 82.6182 57.2016 83.4451 56.1136 84.0789C55.0256 84.7126 53.5976 84.6882 52.2594 83.9157ZM54.9277 82.3734C53.8098 81.7288 53.0917 81.7342 52.5776 82.0307C52.0635 82.3272 52.0527 82.7434 53.1706 83.3907C54.2885 84.0381 55.0555 84.049 55.5615 83.7579C56.0674 83.4669 56.0483 83.0208 54.9277 82.3734Z" fill="#455A64"/>
<path d="M56.5135 81.4591C55.1753 80.6866 55.1753 79.8842 56.2687 79.2531C57.3622 78.6221 58.763 78.6248 60.093 79.3919C61.4231 80.1589 61.4694 80.9912 60.365 81.6223C59.2607 82.2533 57.849 82.2315 56.5135 81.4591ZM59.1818 79.9195C58.0612 79.2722 57.3431 79.2776 56.829 79.5741C56.315 79.8706 56.3041 80.2867 57.4247 80.9341C58.5454 81.5815 59.3097 81.5896 59.8129 81.2986C60.3161 81.0075 60.2998 80.5642 59.1818 79.9195Z" fill="#455A64"/>
<path d="M49.6564 94.0097L71.0573 81.6555C71.3103 81.5276 71.5899 81.4609 71.8733 81.4609C72.1568 81.4609 72.4363 81.5276 72.6893 81.6555L78.1593 84.8134C78.6108 85.0854 78.6108 85.4961 78.1593 85.7572L56.7665 98.1115C56.5135 98.2393 56.234 98.306 55.9505 98.306C55.667 98.306 55.3875 98.2393 55.1345 98.1115L49.6564 94.9535C49.2049 94.6924 49.2049 94.2708 49.6564 94.0097Z" fill="#064DD6"/>
<path d="M51.952 94.4303L55.7818 96.6389C55.8907 96.6952 56.0115 96.7246 56.134 96.7246C56.2566 96.7246 56.3774 96.6952 56.4863 96.6389L62.1303 93.3749C62.3261 93.2607 62.3261 93.0784 62.1303 92.9669L58.3005 90.7555C58.1913 90.7005 58.0706 90.6719 57.9483 90.6719C57.826 90.6719 57.7053 90.7005 57.596 90.7555L51.952 94.0195C51.9081 94.0331 51.8697 94.0603 51.8424 94.0973C51.8151 94.1342 51.8004 94.179 51.8004 94.2249C51.8004 94.2708 51.8151 94.3156 51.8424 94.3525C51.8697 94.3895 51.9081 94.4167 51.952 94.4303Z" fill="#FAFAFA"/>
<path d="M57.7294 93.367L62.2691 93.1875L57.7457 93.1195L57.9279 90.6797L57.1854 93.6907L51.8025 94.2238L56.198 94.0171L56.0892 96.7235L56.4265 94.0062L57.6859 93.9464L57.7294 93.367Z" fill="#064DD6"/>
<path d="M60.1121 89.6022L65.6418 86.4226C65.7797 86.3528 65.932 86.3164 66.0866 86.3164C66.2411 86.3164 66.3934 86.3528 66.5313 86.4226C66.7734 86.5613 66.7652 86.7898 66.5122 86.9366L60.9825 90.1163C60.8446 90.1861 60.6923 90.2225 60.5378 90.2225C60.3832 90.2225 60.2309 90.1861 60.093 90.1163C59.8537 89.9776 59.8646 89.76 60.1121 89.6022Z" fill="#FAFAFA"/>
<path d="M61.8175 90.5747L73.0239 84.0983C73.1618 84.0285 73.3141 83.9922 73.4686 83.9922C73.6231 83.9922 73.7755 84.0285 73.9133 84.0983C74.1554 84.2371 74.1473 84.4683 73.8943 84.6124L62.6879 91.0887C62.5495 91.1583 62.3967 91.1946 62.2418 91.1946C62.0869 91.1946 61.9341 91.1583 61.7957 91.0887C61.5564 90.9582 61.5645 90.7297 61.8175 90.5747Z" fill="#FAFAFA"/>
<path d="M63.5174 91.5668L74.7266 85.0905C74.8644 85.0207 75.0168 84.9844 75.1713 84.9844C75.3258 84.9844 75.4781 85.0207 75.616 85.0905C75.8554 85.2292 75.8472 85.4604 75.5969 85.6046L64.3878 92.0809C64.25 92.1507 64.0976 92.1871 63.9431 92.1871C63.7886 92.1871 63.6362 92.1507 63.4984 92.0809C63.2563 91.9368 63.2672 91.7137 63.5174 91.5668Z" fill="#FAFAFA"/>
<path d="M47.2056 49.3776L83.4849 28.4336L84.9374 29.2714C85.1354 29.4016 85.3001 29.5766 85.4182 29.7821C85.5363 29.9876 85.6045 30.2179 85.6174 30.4546V57.2166C85.6047 57.4534 85.5366 57.6838 85.4184 57.8893C85.3003 58.0948 85.1355 58.2697 84.9374 58.3999L50.0208 78.5551C49.8095 78.6602 49.5767 78.7149 49.3408 78.7149C49.1048 78.7149 48.872 78.6602 48.6608 78.5551L47.8937 78.1117C47.6955 77.9814 47.5306 77.8065 47.412 77.6011C47.2935 77.3956 47.2246 77.1653 47.211 76.9285L47.2056 49.3776Z" fill="#064DD6"/>
<path opacity="0.05" d="M47.2056 49.3776L83.4849 28.4336L84.9374 29.2714C85.1354 29.4016 85.3001 29.5766 85.4182 29.7821C85.5363 29.9876 85.6045 30.2179 85.6174 30.4546V57.2166C85.6047 57.4534 85.5366 57.6838 85.4184 57.8893C85.3003 58.0948 85.1355 58.2697 84.9374 58.3999L50.0208 78.5551C49.8095 78.6602 49.5767 78.7149 49.3408 78.7149C49.1048 78.7149 48.872 78.6602 48.6608 78.5551L47.8937 78.1117C47.6955 77.9814 47.5306 77.8065 47.412 77.6011C47.2935 77.3956 47.2246 77.1653 47.211 76.9285L47.2056 49.3776Z" fill="black"/>
<path d="M83.2836 26.0801L83.4332 25.9985L82.8702 25.6721C82.8213 25.6446 82.7704 25.621 82.7179 25.6014L66.7515 19.6854C66.5326 19.612 66.296 19.6101 66.076 19.68C65.8559 19.7499 65.6638 19.888 65.5275 20.0744L47.6652 46.1564C47.388 46.6062 47.2298 47.1192 47.2056 47.647V49.3796L47.7496 49.7006L83.4768 28.4329V26.7003C83.4716 26.4796 83.4047 26.2647 83.2836 26.0801Z" fill="#064DD6"/>
<path opacity="0.1" d="M66.2646 20.1999C66.1935 20.2555 66.1311 20.3215 66.0796 20.3957L48.2174 46.4778C48.0707 46.7085 47.9588 46.9596 47.8856 47.2231L47.3416 46.9021C47.3818 46.7679 47.4299 46.6362 47.4857 46.5077C47.5102 46.4533 47.5347 46.4016 47.5619 46.3499V46.3255C47.5902 46.2709 47.622 46.2182 47.6571 46.1677L65.5248 20.0747C65.5517 20.0361 65.5817 19.9997 65.6145 19.9659L65.7097 19.8789L66.2646 20.1999Z" fill="black"/>
<path opacity="0.35" d="M83.4251 25.996C83.3768 25.9666 83.3258 25.942 83.2728 25.9225L67.3036 20.0038C67.1281 19.9454 66.9405 19.9327 66.7587 19.967C66.5769 20.0013 66.4068 20.0813 66.2646 20.1996L65.7206 19.8787C65.864 19.7615 66.0345 19.6822 66.2165 19.648C66.3985 19.6137 66.5862 19.6257 66.7623 19.6828L82.7288 25.5988C82.7809 25.6183 82.831 25.6429 82.8784 25.6723L83.4251 25.996Z" fill="white"/>
<path d="M47.5701 46.314C47.599 46.2598 47.6308 46.2071 47.6653 46.1562C47.6308 46.2071 47.599 46.2598 47.5701 46.314Z" fill="#064DD6"/>
<path d="M65.6173 19.966C65.6464 19.9342 65.6782 19.905 65.7125 19.8789C65.6777 19.9043 65.6457 19.9335 65.6173 19.966Z" fill="#064DD6"/>
<path d="M47.328 46.9049C47.3683 46.7699 47.4164 46.6373 47.4722 46.5078C47.4164 46.6373 47.3683 46.7699 47.328 46.9049Z" fill="#064DD6"/>
<path d="M47.4803 46.4949C47.5048 46.4405 47.532 46.3888 47.5565 46.3398C47.532 46.3888 47.5048 46.4405 47.4803 46.4949Z" fill="#064DD6"/>
<path opacity="0.2" d="M47.5565 46.3412C47.5565 46.3412 47.5565 46.3222 47.5565 46.314C47.5565 46.3058 47.562 46.333 47.5565 46.3412Z" fill="black"/>
<path opacity="0.2" d="M65.5275 20.0748C65.5536 20.0364 65.5837 20.0009 65.6172 19.9688C65.5829 20.0001 65.5527 20.0358 65.5275 20.0748Z" fill="black"/>
<path d="M66.0797 20.4003L48.2202 46.4851C47.9405 46.933 47.7812 47.4455 47.7578 47.973V49.7056L84.0372 28.7616V27.0208C84.0236 26.7863 83.9449 26.5602 83.8099 26.368C83.6749 26.1758 83.4889 26.0251 83.2729 25.9328L67.3065 20.0168C67.0876 19.9443 66.8514 19.9423 66.6314 20.0111C66.4113 20.0799 66.2183 20.2161 66.0797 20.4003Z" fill="#064DD6"/>
<path d="M51.7072 74.9127L50.5431 74.2409C50.447 74.1676 50.3715 74.0707 50.3238 73.9597C50.2762 73.8487 50.258 73.7272 50.2711 73.6071V37.3332C50.2863 36.965 50.3989 36.6074 50.5975 36.2969L51.7807 36.9769C51.5805 37.2886 51.4678 37.6484 51.4543 38.0186V74.279C51.4398 74.3973 51.4554 74.5175 51.4996 74.6282C51.5438 74.739 51.6152 74.8368 51.7072 74.9127Z" fill="#E0E0E0"/>
<path d="M52.4334 36.2865L81.5755 19.466C82.1195 19.1451 82.5737 19.4035 82.5737 20.0427V56.3057C82.5556 56.6527 82.4557 56.9905 82.2822 57.2916C82.1087 57.5927 81.8666 57.8486 81.5755 58.0384L52.4334 74.8561C51.8894 75.1744 51.4352 74.916 51.4352 74.2768V38.0192C51.454 37.6723 51.5541 37.3347 51.7276 37.0337C51.901 36.7327 52.1428 36.4768 52.4334 36.2865Z" fill="#F0F0F0"/>
<path d="M81.0995 18.7091L82.2419 19.3728C82.1313 19.3316 82.0121 19.3187 81.8953 19.3353C81.7784 19.3519 81.6675 19.3976 81.5728 19.468L52.4334 36.2858C52.1539 36.4543 51.9218 36.6911 51.7589 36.9739L50.5757 36.2939C50.7399 36.0115 50.9705 35.7734 51.2475 35.6003L80.3896 18.7663C80.4908 18.6917 80.6106 18.6465 80.7358 18.6355C80.861 18.6244 80.9868 18.648 81.0995 18.7037V18.7091Z" fill="#FAFAFA"/>
<path d="M54.7073 38.1822L78.9398 24.1905C79.2662 24.0028 79.53 24.1361 79.53 24.4897C79.5152 24.6874 79.4541 24.8788 79.3516 25.0484C79.249 25.2181 79.1079 25.3612 78.9398 25.4662L54.7073 39.4578C54.3809 39.6455 54.1171 39.5122 54.1171 39.1614C54.1314 38.9632 54.1924 38.7712 54.2949 38.6011C54.3975 38.4309 54.5388 38.2874 54.7073 38.1822Z" fill="#E0E0E0"/>
<path d="M54.7073 40.7251L78.9398 26.7335C79.2662 26.5458 79.53 26.6791 79.53 27.0327C79.5152 27.2303 79.4541 27.4218 79.3516 27.5914C79.249 27.7611 79.1079 27.9042 78.9398 28.0091L54.7073 42.0008C54.3809 42.1885 54.1171 42.0552 54.1171 41.7043C54.1314 41.5062 54.1924 41.3142 54.2949 41.1441C54.3975 40.9739 54.5388 40.8304 54.7073 40.7251Z" fill="#E0E0E0"/>
<path d="M54.7073 43.2682L78.9398 29.2765C79.2662 29.0888 79.53 29.2221 79.53 29.573C79.5157 29.7711 79.4547 29.9631 79.3521 30.1333C79.2496 30.3034 79.1083 30.4469 78.9398 30.5522L54.7073 44.5439C54.3809 44.7315 54.1171 44.5983 54.1171 44.2474C54.1314 44.0492 54.1924 43.8573 54.2949 43.6871C54.3975 43.517 54.5388 43.3734 54.7073 43.2682Z" fill="#E0E0E0"/>
<path d="M54.7073 45.8123L78.9398 31.8234C79.2662 31.6357 79.53 31.769 79.53 32.1199C79.5157 32.318 79.4547 32.51 79.3521 32.6801C79.2496 32.8503 79.1083 32.9938 78.9398 33.0991L54.7073 47.0907C54.3809 47.2784 54.1171 47.1451 54.1171 46.7915C54.1314 46.5934 54.1924 46.4014 54.2949 46.2313C54.3975 46.0611 54.5388 45.9176 54.7073 45.8123Z" fill="#E0E0E0"/>
<path d="M54.7073 48.358L78.9398 34.3663C79.2662 34.1787 79.53 34.3119 79.53 34.6628C79.5157 34.861 79.4547 35.0529 79.3521 35.2231C79.2496 35.3932 79.1083 35.5368 78.9398 35.642L54.7073 49.6337C54.3809 49.8214 54.1171 49.6881 54.1171 49.3345C54.1318 49.1368 54.193 48.9454 54.2955 48.7758C54.3981 48.6061 54.5391 48.463 54.7073 48.358Z" fill="#E0E0E0"/>
<path d="M54.7073 50.901L78.9398 36.9093C79.2662 36.7216 79.53 36.8549 79.53 37.2058C79.5157 37.4039 79.4547 37.5959 79.3521 37.7661C79.2496 37.9362 79.1083 38.0798 78.9398 38.185L54.7073 52.1767C54.3809 52.3644 54.1171 52.2311 54.1171 51.8775C54.1318 51.6798 54.193 51.4884 54.2955 51.3187C54.3981 51.1491 54.5391 51.006 54.7073 50.901Z" fill="#E0E0E0"/>
<path d="M54.7073 53.4431L78.9398 39.4406C79.2662 39.2529 79.53 39.3862 79.53 39.737C79.5157 39.9352 79.4547 40.1272 79.3521 40.2973C79.2496 40.4675 79.1083 40.611 78.9398 40.7162L54.7073 54.7079C54.3809 54.8956 54.1171 54.7623 54.1171 54.4087C54.1335 54.2129 54.1954 54.0237 54.2979 53.8561C54.4004 53.6884 54.5406 53.547 54.7073 53.4431Z" fill="#E0E0E0"/>
<path d="M54.7073 55.9842L78.9398 41.9925C79.2662 41.8021 79.53 41.9381 79.53 42.289C79.5157 42.4872 79.4547 42.6791 79.3521 42.8493C79.2496 43.0195 79.1083 43.163 78.9398 43.2682L54.7073 57.2599C54.3809 57.4476 54.1171 57.3143 54.1171 56.9607C54.1318 56.763 54.193 56.5716 54.2955 56.402C54.3981 56.2323 54.5391 56.0892 54.7073 55.9842Z" fill="#E0E0E0"/>
<path d="M84.6981 57.5711C84.6872 57.5905 84.6745 57.6087 84.66 57.6255L69.5422 50.9207C68.9682 50.6668 68.3218 50.6288 67.7221 50.8137C67.1223 50.9987 66.6095 51.3941 66.2782 51.9271L50.116 77.8596L49.5176 78.205C49.4509 78.2516 49.3737 78.2807 49.2929 78.2897C49.2122 78.2987 49.1304 78.2874 49.0552 78.2567L65.6771 51.5844C66.0092 51.0522 66.5218 50.6573 67.1212 50.472C67.7205 50.2867 68.3666 50.3234 68.9411 50.5753L84.6981 57.5711Z" fill="#064DD6"/>
<path opacity="0.4" d="M64.785 54.2857L64.8231 54.253L50.1106 77.8626L49.5122 78.2081C49.4453 78.2539 49.3681 78.2826 49.2875 78.2916C49.2068 78.3006 49.1252 78.2897 49.0498 78.2597L64.192 53.9375L64.785 54.2857Z" fill="white"/>
<path opacity="0.4" d="M84.6981 57.5729C84.6873 57.5923 84.6745 57.6105 84.66 57.6273L69.5395 50.9198C68.9655 50.6658 68.3191 50.6278 67.7194 50.8128C67.1196 50.9977 66.6068 51.3931 66.2755 51.9262L65.6771 51.578C66.0105 51.0472 66.5236 50.654 67.1229 50.4702C67.7221 50.2864 68.3675 50.3244 68.9411 50.5771L84.6981 57.5729Z" fill="white"/>
<path d="M85.6066 30.2825C85.5739 30.0867 85.4706 30.0323 85.3346 30.1248C85.2673 30.175 85.2085 30.2356 85.1605 30.3043L85.0843 30.4104L70.176 51.1803L67.9483 54.2838C67.8049 54.4647 67.6149 54.603 67.3988 54.684C67.1826 54.765 66.9485 54.7856 66.7216 54.7435L64.7985 54.2866L50.1105 50.7941C50.0118 50.7739 49.9101 50.7739 49.8114 50.7941C49.773 50.8018 49.7356 50.8137 49.6998 50.8294L50.1051 50.5955L64.2491 53.9602L66.1776 54.4008C66.4045 54.4435 66.6389 54.4232 66.8551 54.3421C67.0713 54.2611 67.2613 54.1224 67.4043 53.9411L69.632 50.8403L84.6246 29.9643C84.6703 29.9022 84.7276 29.8496 84.7933 29.8093L83.504 29.0667L84.048 28.7539L84.9456 29.2707C85.1177 29.3867 85.2648 29.5361 85.3783 29.7098C85.4918 29.8836 85.5694 30.0783 85.6066 30.2825Z" fill="#064DD6"/>
<path opacity="0.4" d="M70.176 51.1808L67.9483 54.2844C67.8049 54.4652 67.6149 54.6035 67.3988 54.6845C67.1827 54.7655 66.9486 54.7861 66.7216 54.744L64.7986 54.2871L64.8367 54.2544L64.9291 54.1075L66.1885 54.4068C66.4155 54.4494 66.6498 54.4291 66.866 54.3481C67.0823 54.2671 67.2722 54.1284 67.4152 53.9471L69.6211 50.8789L70.176 51.1808Z" fill="white"/>
<path opacity="0.1" d="M84.9347 29.2707L84.0371 28.7539L83.4931 29.0667L84.7906 29.8147C84.725 29.8553 84.6678 29.9079 84.6219 29.9697L69.632 50.8457L69.6102 50.8757L70.1542 51.1776L85.0816 30.4104L85.1578 30.3043C85.2058 30.2356 85.2646 30.175 85.3318 30.1248C85.4651 30.0323 85.5685 30.0867 85.6038 30.2825C85.5657 30.0777 85.4869 29.8825 85.372 29.7087C85.257 29.5349 85.1083 29.386 84.9347 29.2707Z" fill="black"/>
<path d="M50.4043 51.2285L47.2056 49.3789V76.9298C47.2192 77.1666 47.288 77.3969 47.4066 77.6024C47.5251 77.8078 47.6901 77.9827 47.8883 78.113L48.6553 78.5564C48.8666 78.6615 49.0993 78.7162 49.3353 78.7162C49.5713 78.7162 49.8041 78.6615 50.0153 78.5564L50.3988 78.3333L50.4043 51.2285Z" fill="#064DD6"/>
<path opacity="0.15" d="M50.4043 51.2285L47.2056 49.3789V76.9298C47.2192 77.1666 47.288 77.3969 47.4066 77.6024C47.5251 77.8078 47.6901 77.9827 47.8883 78.113L48.6553 78.5564C48.8666 78.6615 49.0993 78.7162 49.3353 78.7162C49.5713 78.7162 49.8041 78.6615 50.0153 78.5564L50.3988 78.3333L50.4043 51.2285Z" fill="black"/>
<path d="M85.0844 30.4102V56.8812C85.0773 57.1264 85.004 57.3651 84.8722 57.5721C84.7723 57.7476 84.636 57.8997 84.4724 58.0182L84.4479 58.0345L84.4017 58.0644L49.4877 78.2196C49.4458 78.2455 49.4011 78.2664 49.3545 78.2822C49.3516 78.2414 49.3516 78.2005 49.3545 78.1598V51.4086C49.3484 51.3127 49.3657 51.2168 49.4049 51.1292C49.4441 51.0415 49.504 50.9647 49.5795 50.9053C49.6549 50.8459 49.7437 50.8057 49.8381 50.7882C49.9325 50.7707 50.0298 50.7763 50.1215 50.8047L64.8095 54.2972L66.7325 54.7542C66.9595 54.7962 67.1936 54.7756 67.4097 54.6947C67.6259 54.6137 67.8158 54.4753 67.9593 54.2945L70.1761 51.1801L85.0844 30.4102Z" fill="#455A64"/>
<path d="M85.6202 30.4632V57.2253C85.6117 57.4703 85.5385 57.7086 85.4081 57.9162C85.3066 58.0914 85.1706 58.2441 85.0082 58.365L84.981 58.3786C84.9672 58.3895 84.9526 58.3994 84.9375 58.4085L50.0236 78.5528C49.9569 78.6002 49.8793 78.6301 49.798 78.6396C49.7167 78.6491 49.6343 78.638 49.5585 78.6072C49.5005 78.5734 49.4517 78.5261 49.4162 78.4692C49.3806 78.4123 49.3594 78.3477 49.3545 78.2808C49.3516 78.2401 49.3516 78.1992 49.3545 78.1584V51.4072C49.3484 51.3114 49.3657 51.2155 49.4049 51.1278C49.4441 51.0402 49.504 50.9633 49.5795 50.9039C49.6549 50.8445 49.7437 50.8043 49.8381 50.7868C49.9325 50.7693 50.0298 50.775 50.1215 50.8034L64.8095 54.2958L66.7325 54.7528C66.9595 54.7949 67.1936 54.7743 67.4097 54.6933C67.6259 54.6123 67.8158 54.474 67.9593 54.2931L70.1761 51.1787L85.0953 30.4088L85.1714 30.3027C85.4081 29.9518 85.6202 30.0171 85.6202 30.4632Z" fill="#064DD6"/>
<path d="M84.9375 58.3986L84.981 58.3686L85.0082 58.355C85.1706 58.2342 85.3066 58.0814 85.408 57.9062C85.535 57.7023 85.6071 57.469 85.6175 57.229L70.176 51.1797L80.512 60.9526L84.9375 58.3986Z" fill="#064DD6"/>
<path opacity="0.2" d="M84.9375 58.3986L84.981 58.3686L85.0082 58.355C85.1706 58.2342 85.3066 58.0814 85.408 57.9062C85.535 57.7023 85.6071 57.469 85.6175 57.229L70.176 51.1797L80.512 60.9526L84.9375 58.3986Z" fill="black"/>
<path d="M49.3408 78.1625C49.3308 78.2497 49.3454 78.3379 49.3829 78.4172C49.4204 78.4965 49.4793 78.5637 49.553 78.6113C49.6288 78.6421 49.7112 78.6532 49.7925 78.6437C49.8738 78.6342 49.9514 78.6043 50.0181 78.5569L62.0378 71.6182L64.7823 54.2891L49.3408 77.7164V78.1625Z" fill="#064DD6"/>
<path opacity="0.15" d="M66.2674 51.9229L49.5503 78.6061C49.4766 78.5585 49.4177 78.4912 49.3802 78.4119C49.3427 78.3326 49.3282 78.2444 49.3381 78.1573V77.7139L64.0887 54.1261L64.2029 53.9438L65.669 51.5938L66.2674 51.9229Z" fill="black"/>
<path d="M85.408 57.9061C85.3065 58.0813 85.1705 58.234 85.0081 58.3549L84.9809 58.3685L50.0235 78.5536C49.9568 78.6011 49.8792 78.6309 49.7979 78.6404C49.7166 78.6499 49.6342 78.6388 49.5583 78.608L66.2755 51.9167C66.6107 51.3812 67.1277 50.9845 67.7316 50.7992C68.3356 50.6139 68.9861 50.6523 69.564 50.9076L85.408 57.9061Z" fill="#064DD6"/>
<path d="M85.408 57.9094C85.3081 58.0849 85.1717 58.2371 85.0081 58.3555L84.9837 58.3718L50.0208 78.5569C49.9536 78.6035 49.876 78.6326 49.7948 78.6416C49.7136 78.6506 49.6314 78.6393 49.5557 78.6086L50.0208 77.8688L84.3771 58.0291L84.4043 58.0128C84.549 57.9068 84.6719 57.7738 84.7661 57.6211L85.408 57.9094Z" fill="#064DD6"/>
<path opacity="0.15" d="M47.328 46.9023L47.872 47.2233C47.7949 47.4646 47.7519 47.7154 47.7442 47.9686V49.6985L47.2002 49.3775V47.6449C47.2082 47.3927 47.2512 47.1427 47.328 46.9023Z" fill="black"/>
<path d="M50.6138 50.7075L50.1025 50.5851L49.6972 50.819L49.1369 50.4953L47.7578 49.7011L48.2937 49.3828L50.6138 50.7075Z" fill="#064DD6"/>
<path opacity="0.1" d="M50.6138 50.7047L48.2963 49.3828L47.7523 49.7011L49.1314 50.4953L49.6917 50.819C49.7242 50.8028 49.7591 50.7918 49.795 50.7863C49.8938 50.7662 49.9955 50.7662 50.0942 50.7863L51.223 51.0583L64.0886 54.1265L64.2029 53.9442L50.6138 50.7047Z" fill="black"/>
<path d="M92.0721 51.7725L89.4908 50.2765L89.469 50.2629C88.3429 49.6264 86.7953 49.7189 85.0844 50.7117C81.6409 52.7 78.8474 57.5362 78.8474 61.5128C78.8474 63.4984 79.5464 64.8938 80.6698 65.5466L83.0226 66.9066L83.5666 65.9845C84.1953 65.8452 84.7989 65.6104 85.3564 65.2882C88.7999 63.2999 91.5933 58.4637 91.5933 54.4871C91.5928 53.9498 91.527 53.4146 91.3975 52.8932L92.0721 51.7725Z" fill="#FF6C0E"/>
<path opacity="0.15" d="M79.0759 59.4219C78.9237 60.1098 78.8443 60.8118 78.8392 61.5163C78.8392 63.5019 79.5383 64.8972 80.6616 65.55L83.0144 66.91L83.5584 65.988C84.1871 65.8487 84.7907 65.6138 85.3482 65.2916C85.9576 64.935 86.5275 64.5147 87.0482 64.0377L79.0759 59.4219Z" fill="black"/>
<path d="M87.5324 52.1288C84.0888 54.1171 81.2954 58.9532 81.2954 62.9299C81.2954 66.9065 84.0888 68.5195 87.5324 66.5312C90.9759 64.5429 93.7693 59.7067 93.7693 55.73C93.7693 51.7534 90.9786 50.1404 87.5324 52.1288Z" fill="#FF914A"/>
<path d="M89.9967 57.6656V56.1369C89.9967 54.3934 88.9359 53.591 87.6303 54.3472C86.322 55.1033 85.2612 57.127 85.2612 58.8705V60.2305C85.2326 61.1742 84.9578 62.094 84.4642 62.8988C84.3428 63.1122 84.2764 63.3524 84.2711 63.5979C84.2711 64.0358 84.5431 64.2398 84.8668 64.0494L90.3966 60.8561C90.5779 60.7258 90.7262 60.5549 90.8297 60.357C90.9331 60.1591 90.9888 59.9397 90.9922 59.7164C91.0007 59.6312 90.9894 59.5451 90.9592 59.4649C90.929 59.3847 90.8808 59.3126 90.8182 59.254C90.3177 59.0419 89.9967 58.4816 89.9967 57.6656Z" fill="white"/>
<path d="M88.7645 62.2891C88.7645 63.1268 88.2559 64.0979 87.6303 64.4651C87.0047 64.8323 86.4933 64.4433 86.4933 63.6083L88.7645 62.2891Z" fill="white"/>
</svg>
