<svg width="64" height="64" viewBox="0 0 64 64" fill="none" xmlns="http://www.w3.org/2000/svg">
<path d="M48.9168 0H15.0959C12.1599 0 9.76575 2.39417 9.76575 5.33018V58.6698C9.76575 61.6058 12.1599 64 15.0959 64H48.9042C51.8402 64 54.2343 61.6058 54.2343 58.6698V5.33018C54.247 2.39417 51.8528 0 48.9168 0ZM50.6935 58.6824C50.6935 59.6653 49.8996 60.4591 48.9168 60.4591H15.0959C14.1131 60.4591 13.3192 59.6653 13.3192 58.6824V5.33018C13.3192 4.34731 14.1131 3.55346 15.0959 3.55346H48.9042C49.887 3.55346 50.6809 4.34731 50.6809 5.33018V58.6824H50.6935Z" fill="white"/>
<path d="M41.7971 7.10547H22.2153C19.2793 7.10547 16.8851 9.49964 16.8851 12.4357V43.7741C16.8851 46.7101 19.2793 49.1043 22.2153 49.1043H41.7971C44.7331 49.1043 47.1273 46.7101 47.1273 43.7741V12.4483C47.1273 9.49964 44.7457 7.10547 41.7971 7.10547ZM43.5738 43.7867C43.5738 44.7696 42.78 45.5634 41.7971 45.5634H22.2153C21.2324 45.5634 20.4386 44.7696 20.4386 43.7867V12.4483C20.4386 11.4654 21.2324 10.6715 22.2153 10.6715H41.7971C42.78 10.6715 43.5738 11.4654 43.5738 12.4483V43.7867Z" fill="white"/>
<path d="M21.8373 52.7578H18.6493C17.6664 52.7578 16.8726 53.5517 16.8726 54.5345C16.8726 55.5174 17.6664 56.3112 18.6493 56.3112H21.8373C22.8202 56.3112 23.614 55.5174 23.614 54.5345C23.614 53.5517 22.8202 52.7578 21.8373 52.7578Z" fill="white"/>
<path d="M33.5939 52.7578H30.4059C29.423 52.7578 28.6292 53.5517 28.6292 54.5345C28.6292 55.5174 29.423 56.3112 30.4059 56.3112H33.5939C34.5768 56.3112 35.3706 55.5174 35.3706 54.5345C35.3706 53.5517 34.5768 52.7578 33.5939 52.7578Z" fill="white"/>
<path d="M45.3506 52.7578H42.1626C41.1797 52.7578 40.3859 53.5517 40.3859 54.5345C40.3859 55.5174 41.1797 56.3112 42.1626 56.3112H45.3506C46.3335 56.3112 47.1274 55.5174 47.1274 54.5345C47.1274 53.5517 46.3335 52.7578 45.3506 52.7578Z" fill="white"/>
<path d="M32.0063 20.4117C33.6444 20.4117 34.9801 21.7474 34.9801 23.3855C34.9801 24.3684 35.774 25.1623 36.7568 25.1623C37.7397 25.1623 38.5335 24.3684 38.5335 23.3855C38.5335 20.3991 36.5174 17.8915 33.783 17.1103V15.7494C33.783 14.7665 32.9891 13.9727 32.0063 13.9727C31.0234 13.9727 30.2295 14.7665 30.2295 15.7494V17.1103C27.4951 17.8915 25.479 20.3991 25.479 23.3855C25.479 26.9894 28.6544 29.9002 32.2583 29.9002C32.2079 29.9128 32.2583 29.9002 32.2709 29.9002C33.783 30.0388 34.9801 31.3115 34.9801 32.8614C34.9801 34.4995 33.6444 35.8352 32.0063 35.8352C30.3682 35.8352 29.0325 34.4995 29.0325 32.8614C29.0325 31.8785 28.2386 31.0847 27.2557 31.0847C26.2729 31.0847 25.479 31.8785 25.479 32.8614C25.479 35.8478 27.4951 38.3554 30.2295 39.1367V40.485C30.2295 41.4678 31.0234 42.2617 32.0063 42.2617C32.9891 42.2617 33.783 41.4678 33.783 40.485V39.1367C36.5174 38.3554 38.5335 35.8478 38.5335 32.8614C38.5335 29.2576 35.6101 26.3341 32.0063 26.3341C32.0567 26.3215 32.0063 26.3341 31.9937 26.3341C30.469 26.1955 29.0325 24.948 29.0325 23.3855C29.0325 21.7474 30.3682 20.4117 32.0063 20.4117Z" fill="#FF6C0E"/>
</svg>
