<svg width="36" height="36" viewBox="0 0 36 36" fill="none" xmlns="http://www.w3.org/2000/svg">
<path d="M27.5157 0H8.49145C6.83995 0 5.49323 1.34672 5.49323 2.99823V33.0018C5.49323 34.6533 6.83995 36 8.49145 36H27.5086C29.1601 36 30.5068 34.6533 30.5068 33.0018V2.99823C30.5139 1.34672 29.1672 0 27.5157 0ZM28.5151 33.0089C28.5151 33.5617 28.0685 34.0083 27.5157 34.0083H8.49145C7.93859 34.0083 7.49204 33.5617 7.49204 33.0089V2.99823C7.49204 2.44536 7.93859 1.99882 8.49145 1.99882H27.5086C28.0615 1.99882 28.508 2.44536 28.508 2.99823V33.0089H28.5151Z" fill="white"/>
<path d="M23.5109 3.99609H12.4962C10.8446 3.99609 9.49792 5.34282 9.49792 6.99432V24.6222C9.49792 26.2737 10.8446 27.6204 12.4962 27.6204H23.5109C25.1624 27.6204 26.5091 26.2737 26.5091 24.6222V7.00141C26.5091 5.34282 25.1695 3.99609 23.5109 3.99609ZM24.5103 24.6293C24.5103 25.1822 24.0638 25.6287 23.5109 25.6287H12.4962C11.9433 25.6287 11.4967 25.1822 11.4967 24.6293V7.00141C11.4967 6.44855 11.9433 6.002 12.4962 6.002H23.5109C24.0638 6.002 24.5103 6.44855 24.5103 7.00141V24.6293Z" fill="white"/>
<path d="M12.2835 29.6758H10.4903C9.93739 29.6758 9.49084 30.1223 9.49084 30.6752C9.49084 31.228 9.93739 31.6746 10.4903 31.6746H12.2835C12.8364 31.6746 13.2829 31.228 13.2829 30.6752C13.2829 30.1223 12.8364 29.6758 12.2835 29.6758Z" fill="white"/>
<path d="M18.8966 29.6758H17.1034C16.5505 29.6758 16.1039 30.1223 16.1039 30.6752C16.1039 31.228 16.5505 31.6746 17.1034 31.6746H18.8966C19.4495 31.6746 19.896 31.228 19.896 30.6752C19.896 30.1223 19.4495 29.6758 18.8966 29.6758Z" fill="white"/>
<path d="M25.5097 29.6758H23.7165C23.1636 29.6758 22.717 30.1223 22.717 30.6752C22.717 31.228 23.1636 31.6746 23.7165 31.6746H25.5097C26.0626 31.6746 26.5091 31.228 26.5091 30.6752C26.5091 30.1223 26.0626 29.6758 25.5097 29.6758Z" fill="white"/>
<path d="M18.0036 11.4813C18.925 11.4813 19.6763 12.2327 19.6763 13.1541C19.6763 13.707 20.1229 14.1535 20.6757 14.1535C21.2286 14.1535 21.6752 13.707 21.6752 13.1541C21.6752 11.4743 20.5411 10.0637 19.003 9.62429V8.85878C19.003 8.30592 18.5564 7.85938 18.0036 7.85938C17.4507 7.85938 17.0042 8.30592 17.0042 8.85878V9.62429C15.4661 10.0637 14.332 11.4743 14.332 13.1541C14.332 15.1813 16.1181 16.8186 18.1453 16.8186C18.117 16.8257 18.1453 16.8186 18.1524 16.8186C19.003 16.8966 19.6763 17.6125 19.6763 18.4843C19.6763 19.4057 18.925 20.1571 18.0036 20.1571C17.0821 20.1571 16.3308 19.4057 16.3308 18.4843C16.3308 17.9314 15.8842 17.4849 15.3314 17.4849C14.7785 17.4849 14.332 17.9314 14.332 18.4843C14.332 20.1642 15.4661 21.5747 17.0042 22.0141V22.7725C17.0042 23.3254 17.4507 23.772 18.0036 23.772C18.5564 23.772 19.003 23.3254 19.003 22.7725V22.0141C20.5411 21.5747 21.6752 20.1642 21.6752 18.4843C21.6752 16.4571 20.0307 14.8127 18.0036 14.8127C18.0319 14.8056 18.0036 14.8127 17.9965 14.8127C17.1388 14.7347 16.3308 14.033 16.3308 13.1541C16.3308 12.2327 17.0821 11.4813 18.0036 11.4813Z" fill="#FF6C0E"/>
</svg>
