<svg width="96" height="96" viewBox="0 0 96 96" fill="none" xmlns="http://www.w3.org/2000/svg">
<path d="M17.6602 12.1086C49.8523 -4.80355 54.7402 31.9501 69.3738 35.0662C84.0074 38.1823 98.8471 64.4085 71.0554 78.5718C47.8615 90.3963 44.6659 64.4515 35.1071 51.959C31.0611 46.6717 -9.57967 26.4179 17.6602 12.1086Z" fill="#064DD6"/>
<path opacity="0.9" d="M17.6602 12.1086C49.8523 -4.80355 54.7402 31.9501 69.3738 35.0662C84.0074 38.1823 98.8471 64.4085 71.0554 78.5718C47.8615 90.3963 44.6659 64.4515 35.1071 51.959C31.0611 46.6717 -9.57967 26.4179 17.6602 12.1086Z" fill="white"/>
<path d="M47.9754 88.4285C70.9722 88.4285 89.6147 87.3401 89.6147 85.9975C89.6147 84.6548 70.9722 83.5664 47.9754 83.5664C24.9786 83.5664 6.33606 84.6548 6.33606 85.9975C6.33606 87.3401 24.9786 88.4285 47.9754 88.4285Z" fill="#F5F5F5"/>
<path d="M55.99 46.1836H53.0027V86.6418H55.99V46.1836Z" fill="#064DD6"/>
<path opacity="0.3" d="M55.99 46.1836H53.0027V86.6418H55.99V46.1836Z" fill="white"/>
<path d="M58.9773 46.1836H55.99V86.6418H58.9773V46.1836Z" fill="#064DD6"/>
<path opacity="0.5" d="M58.9773 46.1836H55.99V86.6418H58.9773V46.1836Z" fill="white"/>
<path d="M80.365 48.4883H56.9714V51.3338H80.365V48.4883Z" fill="#064DD6"/>
<path opacity="0.3" d="M80.365 48.4883H56.9714V51.3338H80.365V48.4883Z" fill="white"/>
<path d="M82.4201 48.4883H80.3649V51.3338H82.4201V48.4883Z" fill="#064DD6"/>
<path opacity="0.5" d="M82.4201 48.4883H80.3649V51.3338H82.4201V48.4883Z" fill="white"/>
<path d="M78.4966 51.332H60.8005V68.2506H78.4966V51.332Z" fill="#FF6C0E"/>
<path opacity="0.2" d="M78.4966 51.332H77.8738V68.2506H78.4966V51.332Z" fill="black"/>
<path d="M63.9381 54.9102H66.7299V55.694H65.0763V56.3383H66.4894V57.0749H65.0763V58.5653H63.9424L63.9381 54.9102Z" fill="white"/>
<path d="M67.1918 56.7386C67.1649 56.4844 67.1951 56.2274 67.2801 55.9863C67.3652 55.7453 67.5029 55.5262 67.6834 55.3451C67.8638 55.1641 68.0824 55.0255 68.3232 54.9397C68.564 54.8538 68.8209 54.8227 69.0752 54.8488C69.3302 54.8321 69.5859 54.8669 69.8272 54.951C70.0684 55.0351 70.2903 55.1669 70.4797 55.3384C70.6503 55.5215 70.7819 55.7374 70.8665 55.9729C70.951 56.2085 70.9868 56.4588 70.9715 56.7086C70.9855 57.0708 70.9119 57.4311 70.7567 57.7587C70.618 58.0308 70.4011 58.2552 70.1339 58.403C69.8214 58.5651 69.4722 58.6435 69.1203 58.6306C68.7692 58.6431 68.4198 58.5763 68.0981 58.4352C67.8225 58.2976 67.5944 58.0807 67.443 57.8124C67.2634 57.4839 67.1766 57.1127 67.1918 56.7386ZM68.3193 56.7386C68.2947 57.019 68.3667 57.2994 68.5233 57.5332C68.5962 57.6085 68.6834 57.6684 68.7799 57.7092C68.8764 57.7501 68.9801 57.7712 69.0849 57.7712C69.1896 57.7712 69.2934 57.7501 69.3898 57.7092C69.4863 57.6684 69.5736 57.6085 69.6465 57.5332C69.7775 57.3765 69.844 57.093 69.844 56.6742C69.8644 56.4061 69.7882 56.1395 69.6293 55.9226C69.5589 55.8432 69.4716 55.7806 69.3739 55.7393C69.2762 55.6981 69.1704 55.6792 69.0645 55.6842C68.9609 55.6801 68.8578 55.6996 68.7629 55.7413C68.668 55.783 68.5839 55.8457 68.5168 55.9247C68.3578 56.1646 68.2879 56.4526 68.3193 56.7386Z" fill="white"/>
<path d="M71.5985 58.5589V54.908H73.4776C73.7469 54.8983 74.0162 54.9287 74.2765 54.9982C74.4583 55.0554 74.6151 55.1728 74.7211 55.3311C74.8383 55.5052 74.8977 55.7119 74.8907 55.9217C74.8979 56.0988 74.8565 56.2744 74.7709 56.4297C74.6854 56.5849 74.559 56.7137 74.4054 56.8022C74.2822 56.871 74.1488 56.9195 74.0102 56.9461C74.1137 56.9767 74.2121 57.0222 74.3023 57.0814C74.37 57.1375 74.4306 57.2017 74.4827 57.2725C74.5425 57.3434 74.5957 57.4196 74.6416 57.5002L75.1871 58.5568H73.9136L73.3166 57.4443C73.2652 57.3385 73.192 57.2448 73.1018 57.1694C73.021 57.1139 72.925 57.0846 72.8269 57.0857H72.726V58.5654L71.5985 58.5589ZM72.7303 56.3899H73.207C73.3078 56.3818 73.4076 56.3653 73.5056 56.3405C73.5787 56.3258 73.6437 56.2845 73.6881 56.2245C73.7361 56.1634 73.7611 56.0874 73.759 56.0097C73.7616 55.9588 73.7529 55.908 73.7336 55.8609C73.7143 55.8137 73.6849 55.7714 73.6473 55.737C73.5184 55.6591 73.3674 55.6259 73.2178 55.6425H72.7217L72.7303 56.3899Z" fill="white"/>
<path d="M62.1793 63.4682L63.2531 63.4016C63.2645 63.5445 63.3142 63.6818 63.397 63.7989C63.4567 63.8715 63.5329 63.9288 63.6191 63.9661C63.7054 64.0035 63.7993 64.0198 63.8931 64.0137C64.027 64.0226 64.1597 63.9829 64.2667 63.902C64.3065 63.8703 64.3388 63.8302 64.361 63.7845C64.3833 63.7388 64.3951 63.6887 64.3956 63.6378C64.3947 63.589 64.383 63.5411 64.3615 63.4973C64.34 63.4535 64.3091 63.4149 64.271 63.3844C64.0966 63.2729 63.9004 63.1997 63.6955 63.1697C63.3123 63.1075 62.9494 62.9551 62.6367 62.7251C62.5342 62.6396 62.4524 62.532 62.3973 62.4104C62.3423 62.2888 62.3155 62.1563 62.3189 62.0229C62.319 61.833 62.3758 61.6475 62.4821 61.4903C62.6017 61.3127 62.7725 61.1756 62.9718 61.0972C63.2585 60.9903 63.5636 60.9413 63.8694 60.9534C64.2455 60.9281 64.6203 61.0188 64.9432 61.2132C65.0697 61.3129 65.1734 61.4384 65.2474 61.5813C65.3215 61.7243 65.3642 61.8814 65.3727 62.0422L64.3097 62.1045C64.3066 62.0365 64.2896 61.97 64.2597 61.9089C64.2298 61.8478 64.1876 61.7935 64.1359 61.7494C64.0841 61.7053 64.0238 61.6723 63.9588 61.6525C63.8938 61.6327 63.8253 61.6264 63.7578 61.6341C63.6522 61.6264 63.5473 61.6561 63.4614 61.7179C63.43 61.7413 63.4045 61.7718 63.387 61.8069C63.3695 61.8419 63.3604 61.8806 63.3605 61.9198C63.3624 61.9504 63.3709 61.9802 63.3854 62.0072C63.3998 62.0343 63.4199 62.0579 63.4442 62.0765C63.559 62.1483 63.6879 62.1945 63.8222 62.2118C64.1867 62.2766 64.5421 62.3848 64.8809 62.534C65.0708 62.6217 65.2317 62.7618 65.3448 62.9377C65.4431 63.1001 65.4937 63.2869 65.4909 63.4768C65.4911 63.7058 65.4239 63.9299 65.2976 64.121C65.1646 64.3208 64.9756 64.477 64.7542 64.5699C64.4749 64.6799 64.176 64.7318 63.8759 64.7224C63.2552 64.7224 62.8257 64.6042 62.5874 64.3637C62.3486 64.1236 62.2038 63.8059 62.1793 63.4682Z" fill="white"/>
<path d="M68.2999 64.073H67.0113L66.8331 64.6743H65.682L67.0543 61.0234H68.2827L69.6657 64.685H68.4846L68.2999 64.073ZM68.0658 63.2827L67.6642 61.9727L67.2648 63.2827H68.0658Z" fill="white"/>
<path d="M70.0222 61.0352H71.1497V63.7862H72.9086V64.686H70.0222V61.0352Z" fill="white"/>
<path d="M73.4176 61.0352H76.4392V61.8147H74.5494V62.3946H76.3039V63.1398H74.5494V63.8592H76.4951V64.686H73.4176V61.0352Z" fill="white"/>
<path d="M41.4767 28.9802L41.1524 29.4097C41.0472 29.545 40.9377 29.676 40.8282 29.807C40.6134 30.069 40.3858 30.3224 40.1581 30.5758C39.6985 31.0762 39.2218 31.568 38.6999 32.0362C38.1691 32.5288 37.6027 32.9817 37.0055 33.3913C36.6767 33.6163 36.3338 33.82 35.9789 34.0012C35.5608 34.216 35.1179 34.379 34.6603 34.4865L34.568 34.5059C34.4882 34.5238 34.407 34.5346 34.3253 34.5381C33.8809 34.5511 33.4396 34.4599 33.0367 34.2718C32.7613 34.1452 32.503 33.9843 32.2679 33.7929C31.9118 33.5027 31.5871 33.1759 31.2994 32.8179C30.8149 32.2119 30.3838 31.5653 30.0108 30.8851C29.6543 30.2408 29.3386 29.5836 29.053 28.92C28.7634 28.2579 28.5082 27.5812 28.2884 26.8927C28.2224 26.6729 28.2355 26.4369 28.3255 26.2257C28.4154 26.0146 28.5765 25.8416 28.7808 25.7369C28.985 25.6322 29.2195 25.6025 29.4435 25.6528C29.6674 25.7031 29.8666 25.8302 30.0065 26.0122L30.0258 26.038C30.4231 26.5727 30.8247 27.1332 31.2285 27.668C31.6322 28.2027 32.036 28.7418 32.4526 29.2379C32.8375 29.7172 33.2543 30.17 33.7003 30.593C33.8698 30.7575 34.0579 30.9017 34.2609 31.0225C34.3339 31.0612 34.3897 31.0762 34.3854 31.0655C34.3811 31.0547 34.2995 31.001 34.1041 31.0053L33.7691 31.0569C33.9181 30.9836 34.0617 30.8996 34.1986 30.8056C34.379 30.681 34.5808 30.5372 34.7806 30.3761C34.9803 30.215 35.1865 30.026 35.3883 29.8328C35.5902 29.6395 35.7985 29.4419 36.0025 29.2357C36.4063 28.8062 36.8122 28.3767 37.2073 27.9321L37.7979 27.2535L38.3649 26.5878L38.4186 26.5255C38.7496 26.137 39.2192 25.8931 39.7273 25.8457C40.2355 25.7983 40.7421 25.9511 41.1392 26.2716C41.5364 26.5921 41.7928 27.0549 41.8539 27.5616C41.9149 28.0683 41.7757 28.5788 41.466 28.9845L41.4767 28.9802Z" fill="#263238"/>
<path d="M29.9614 25.5973C29.839 24.6309 28.0844 24.1842 28.0844 24.1842L27.06 23.731C26.8921 23.6562 26.7031 23.6436 26.5268 23.6956C26.3504 23.7475 26.1984 23.8606 26.0979 24.0145L25.576 24.8134C25.5211 24.8994 25.4835 24.9954 25.4656 25.096C25.4478 25.1965 25.4498 25.2995 25.4718 25.3992C25.4937 25.4989 25.5351 25.5934 25.5935 25.6771C25.6519 25.7608 25.7263 25.8322 25.8123 25.8872L26.7529 26.4756C26.9216 26.5798 27.1104 26.6471 27.307 26.6732L28.1059 26.7763C28.4416 26.8197 28.7827 26.7668 29.0895 26.6239C29.3964 26.4809 29.6563 26.2537 29.839 25.9688L29.8884 25.8936C29.9453 25.8059 29.971 25.7015 29.9614 25.5973Z" fill="#FFB573"/>
<path d="M41.9255 63.7367C44.7174 54.8737 46.8843 44.0885 46.8843 44.0885L38.4765 43.2617C38.4765 43.2617 37.9246 57.1393 37.4028 63.2857C36.8573 69.6747 34.7247 84.5166 34.7247 84.5166L37.2803 84.7314C37.2803 84.7314 41.6678 71.672 41.9255 63.7367Z" fill="#263238"/>
<path d="M43.605 51.3281L44.7733 53.4134C44.1762 55.8466 43.4847 58.5225 42.7137 61.1447C42.8211 57.0299 43.2506 52.2838 43.605 51.3281Z" fill="black"/>
<path d="M31.2993 85.1065C31.2993 85.1065 34.9136 84.8101 35.2594 84.2969L37.203 84.5911L36.883 86.6399L35.6846 86.4595L35.53 86.2447L35.1971 86.3886C34.2307 86.2404 31.6536 85.8152 31.0824 85.5146C31.0793 85.4334 31.0977 85.353 31.1358 85.2813C31.1739 85.2096 31.2303 85.1493 31.2993 85.1065Z" fill="#263238"/>
<path d="M50.0971 63.1452C49.9489 54.033 50.5266 47.9425 49.7513 43.4519L42.0695 43.3359C42.0695 43.3359 43.9572 57.7934 44.8957 63.8131C45.8342 69.8327 47.0282 84.6982 47.0282 84.6982H49.4034C49.4034 84.6982 51.4694 70.1957 50.0971 63.1452Z" fill="#263238"/>
<path d="M44.7002 85.952C44.7002 85.952 46.9787 85.1209 47.2772 84.5625H49.2444L49.0962 86.6371H47.4899L47.3159 86.4459L46.9981 86.6371C46.0166 86.6371 45.1168 86.5984 44.5155 86.3772C44.5085 86.2966 44.5218 86.2155 44.554 86.1412C44.5863 86.067 44.6365 86.002 44.7002 85.952Z" fill="#263238"/>
<path d="M49.4098 25.2656C46.6932 24.9284 42.8103 24.9606 40.2075 25.4095C39.5573 25.5271 38.9606 25.8464 38.5019 26.322C38.0433 26.7977 37.7459 27.4055 37.6519 28.0596C37.1042 31.9896 37.5746 38.8597 37.9246 45.7749C43.8691 47.8087 50.1422 45.747 50.1422 45.747C50.3569 44.3511 49.8716 39.781 49.543 37.3414C50.0348 34.8223 51.0742 31.9359 51.7614 28.59C51.8459 28.2155 51.8508 27.8274 51.7757 27.4509C51.7006 27.0744 51.5472 26.7179 51.3255 26.4045C51.1038 26.091 50.8187 25.8277 50.4887 25.6315C50.1587 25.4353 49.7911 25.3106 49.4098 25.2656Z" fill="#263238"/>
<path d="M42.4045 25.1476C42.078 25.4762 41.8611 25.9938 41.7452 26.6509C41.466 28.2466 41.7817 30.7056 42.6235 33.5232C43.4289 31.251 45.162 28.2444 46.2272 26.4984C46.7319 25.6716 47.0862 25.124 47.1163 25.0768C45.5632 24.7175 43.946 24.7419 42.4045 25.1476Z" fill="#E0E0E0"/>
<path d="M46.7211 20.0781L43.6265 22.6166C44.0281 23.6796 44.1548 24.7878 42.4067 25.2151C41.9772 25.7928 42.7417 26.4543 43.4633 26.7549C44.6294 26.6111 46.2744 26.2223 46.9853 25.2516C46.7598 24.4785 46.4205 21.6523 46.7211 20.0781Z" fill="#FFB573"/>
<path d="M42.7245 26.1145C42.855 26.4854 43.0765 26.8177 43.3688 27.0809C43.8412 27.0809 44.5306 26.5504 44.5306 26.5504C44.5306 26.5504 44.2643 25.8009 43.8863 25.6484C42.9307 25.8847 42.7245 26.1145 42.7245 26.1145Z" fill="#064DD6"/>
<path d="M43.8025 26.7549C43.7292 26.6983 43.6451 26.6572 43.5553 26.6343C43.4656 26.6114 43.3721 26.6072 43.2806 26.6218C42.6621 27.5001 42.2691 28.866 41.8868 30.4423C42.0702 31.4891 42.3162 32.5239 42.6235 33.5413C42.9679 32.6062 43.3695 31.6932 43.8261 30.8074C43.6496 29.4628 43.6417 28.1015 43.8025 26.7549Z" fill="#064DD6"/>
<path opacity="0.2" d="M45.4304 21.1367L43.6285 22.6143C43.7249 22.8607 43.7969 23.1161 43.8433 23.3766C44.5413 23.426 45.512 22.7195 45.5614 22.0881C45.5766 21.7656 45.5322 21.4431 45.4304 21.1367Z" fill="black"/>
<path d="M42.3507 15.6368C41.0021 16.9662 41.8869 19.0923 41.8869 19.0923C41.8869 19.0923 44.2449 14.8852 42.3507 15.6368Z" fill="#263238"/>
<path d="M47.1635 18.3475C46.8822 20.2803 46.8156 21.4378 45.7461 22.3484C44.1376 23.7186 41.8031 22.604 41.4982 20.6132C41.2254 18.8199 41.7323 15.9486 43.708 15.3473C44.1456 15.2143 44.6097 15.1945 45.0569 15.2898C45.5042 15.3851 45.9199 15.5923 46.2652 15.8921C46.6105 16.1919 46.874 16.5744 47.0312 17.0039C47.1883 17.4333 47.2338 17.8956 47.1635 18.3475Z" fill="#FFB573"/>
<path d="M47.3803 19.3422C45.9264 19.6407 45.5055 18.5153 45.5055 18.5153C45.8001 18.5766 46.1042 18.5766 46.3989 18.5153C46.3989 18.5153 45.4196 17.5146 46.1841 16.546C45.7847 16.1165 44.0065 16.3012 43.1775 16.546C42.2713 16.2046 41.8052 16.0456 41.322 14.9697C41.7687 15.047 42.2283 14.9902 42.6428 14.8065C43.5448 14.392 42.1918 14.0871 42.1918 14.0871C43.229 13.6816 44.353 13.5492 45.4561 13.7026C47.5607 13.999 47.8872 14.6239 47.8056 15.3326C48.9073 15.3198 49.0168 16.546 49.0168 16.546C48.8829 16.4388 48.7254 16.3651 48.5572 16.3313C48.6195 16.7049 48.8342 18.8976 47.3803 19.3422Z" fill="#263238"/>
<path d="M47.5071 15.4763C47.9108 15.2938 48.0332 14.3295 47.7949 13.9258C48.8751 15.0726 48.0955 15.5408 47.5071 15.4763Z" fill="#263238"/>
<path d="M47.8207 19.8542C47.7307 20.0578 47.6012 20.2416 47.4397 20.395C47.2783 20.5483 47.0881 20.6682 46.88 20.7476C46.3195 20.9623 45.9845 20.4684 46.094 19.9143C46.1928 19.4139 46.603 18.7052 47.1871 18.7353C47.3144 18.7436 47.4376 18.7835 47.5457 18.8513C47.6537 18.9191 47.7432 19.0127 47.806 19.1237C47.8689 19.2347 47.9031 19.3596 47.9057 19.4871C47.9082 19.6146 47.879 19.7408 47.8207 19.8542Z" fill="#FFB573"/>
<path d="M44.4404 18.4189C44.4275 18.5778 44.3308 18.6981 44.2256 18.6895C44.1204 18.6809 44.0474 18.5434 44.0624 18.3845C44.0774 18.2256 44.1698 18.1032 44.2771 18.1139C44.3845 18.1247 44.4532 18.26 44.4404 18.4189Z" fill="#263238"/>
<path d="M42.5398 18.3718C42.5269 18.5307 42.4324 18.6531 42.325 18.6424C42.2177 18.6317 42.1489 18.4964 42.1618 18.3374C42.1747 18.1785 42.2692 18.0582 42.3766 18.0668C42.484 18.0754 42.5527 18.2129 42.5398 18.3718Z" fill="#263238"/>
<path d="M42.9242 18.5859C42.9242 18.5859 42.4947 19.4686 42.0522 19.8745C42.3121 20.1623 42.7996 20.0892 42.7996 20.0892L42.9242 18.5859Z" fill="#ED893E"/>
<path d="M44.9021 17.9421C44.9177 17.9454 44.9338 17.9454 44.9494 17.9421C44.9609 17.9376 44.9714 17.9309 44.9803 17.9222C44.9892 17.9136 44.9963 17.9033 45.0011 17.8918C45.0059 17.8804 45.0084 17.8681 45.0083 17.8557C45.0083 17.8434 45.0058 17.8311 45.0009 17.8197C44.9476 17.6787 44.8612 17.5524 44.7492 17.4515C44.6371 17.3507 44.5025 17.2781 44.3566 17.2399C44.3325 17.2354 44.3075 17.2405 44.2871 17.2542C44.2666 17.2678 44.2523 17.2888 44.2471 17.3129C44.242 17.3374 44.2468 17.3629 44.2605 17.3838C44.2742 17.4047 44.2956 17.4194 44.3201 17.4245C44.4341 17.4566 44.5388 17.5154 44.6255 17.5961C44.7121 17.6768 44.7783 17.777 44.8183 17.8884C44.8257 17.9044 44.8375 17.918 44.8524 17.9275C44.8672 17.937 44.8845 17.9421 44.9021 17.9421Z" fill="#263238"/>
<path d="M41.655 17.7662C41.6696 17.7715 41.6853 17.773 41.7006 17.7708C41.716 17.7686 41.7306 17.7626 41.743 17.7533C41.8349 17.6804 41.9429 17.6305 42.0579 17.6077C42.173 17.5849 42.2918 17.5899 42.4045 17.6223C42.416 17.6268 42.4284 17.6288 42.4407 17.6284C42.4531 17.628 42.4652 17.6251 42.4764 17.6199C42.4877 17.6147 42.4977 17.6073 42.506 17.5981C42.5143 17.5889 42.5207 17.5782 42.5248 17.5665C42.5331 17.5431 42.5319 17.5174 42.5215 17.4949C42.511 17.4724 42.4922 17.4549 42.4689 17.4462C42.327 17.403 42.1768 17.3947 42.0309 17.422C41.8851 17.4493 41.748 17.5114 41.6314 17.603C41.618 17.6132 41.6077 17.6268 41.6013 17.6424C41.595 17.6579 41.5929 17.6749 41.5953 17.6915C41.5977 17.7082 41.6045 17.7239 41.615 17.737C41.6255 17.7501 41.6393 17.7602 41.655 17.7662Z" fill="#263238"/>
<path d="M47.1162 25.082C47.084 25.1293 46.7318 25.6769 46.2271 26.5037C45.7198 26.9729 45.0974 27.2997 44.4232 27.4508C44.5219 27.1179 44.2234 25.9905 43.8927 25.6425C44.6723 25.6876 45.7461 25.5545 47.1162 25.082Z" fill="#FAFAFA"/>
<path d="M43.8949 25.6463C43.5379 25.8029 43.2163 26.0301 42.9494 26.3143C42.6826 26.5985 42.476 26.9338 42.3422 27.2999C42.2045 27.2397 42.081 27.1512 41.9796 27.0402C41.8782 26.9293 41.8013 26.7982 41.7538 26.6556C41.8698 25.992 42.0867 25.4745 42.4131 25.1523C42.587 25.38 43.0788 25.5947 43.8949 25.6463Z" fill="#FAFAFA"/>
<path d="M51.7679 27.1678C51.9268 27.5136 52.06 27.8121 52.1974 28.1493C52.3349 28.4865 52.4551 28.7936 52.5797 29.1286C52.8202 29.7857 53.0457 30.4515 53.2433 31.1387C53.4514 31.8378 53.622 32.5475 53.7544 33.2648C53.8231 33.6342 53.8811 34.0165 53.9198 34.4202C53.9608 34.8622 53.9659 35.3068 53.9348 35.7496C53.8405 36.6412 53.5634 37.5039 53.1209 38.2837C52.7529 38.9535 52.3214 39.5863 51.8323 40.1736C51.372 40.7296 50.8779 41.2568 50.3527 41.752C49.8324 42.2443 49.28 42.7013 48.699 43.12C48.5117 43.2537 48.2834 43.3173 48.054 43.2997C47.8245 43.282 47.6086 43.1844 47.4438 43.0237C47.2791 42.8631 47.176 42.6497 47.1527 42.4207C47.1293 42.1918 47.1871 41.962 47.316 41.7714L47.3482 41.7263L47.8872 40.9338C48.0698 40.6675 48.2437 40.3948 48.4177 40.1242C48.7592 39.5851 49.092 39.0504 49.3777 38.5006C49.6618 37.988 49.9066 37.4546 50.11 36.905C50.1991 36.6641 50.2709 36.4173 50.3247 36.1662C50.3689 35.9741 50.387 35.7769 50.3784 35.5799C50.3625 35.351 50.3302 35.1234 50.2818 34.8991C50.2302 34.6371 50.168 34.3579 50.0907 34.0723C49.9317 33.501 49.7427 32.9083 49.5366 32.3134C49.3304 31.7186 49.1071 31.1194 48.8773 30.5202L48.1815 28.7399L48.1643 28.6991C47.9807 28.2243 47.989 27.6968 48.1873 27.228C48.3857 26.7592 48.7585 26.3859 49.2271 26.1871C49.6956 25.9882 50.2232 25.9794 50.6981 26.1624C51.1731 26.3454 51.5583 26.706 51.7722 27.1678H51.7679Z" fill="#263238"/>
<path d="M40.2548 37.2866C39.3922 37.9569 38.8114 38.9254 38.6262 40.002C38.4411 41.0786 38.6651 42.1856 39.2541 43.1055C39.8432 44.0255 40.7549 44.692 41.8102 44.9743C42.8655 45.2566 43.9882 45.1343 44.958 44.6313L45.4949 45.3185L45.3961 45.748L46.5364 47.2148L47.1592 47.2277L46.9896 47.9514L49.2273 50.8292L50.43 50.8507L50.8337 51.3725L50.634 52.2315L52.118 54.1386L53.3765 54.1622L53.5912 52.8114L46.356 43.5103C47.0341 42.6751 47.3811 41.6197 47.3308 40.5451C47.2804 39.4705 46.8363 38.4521 46.0831 37.6841C45.3299 36.916 44.3204 36.4521 43.247 36.3807C42.1736 36.3094 41.1116 36.6357 40.2634 37.2973L40.2548 37.2866ZM42.106 39.6661C41.9322 39.8018 41.7221 39.8829 41.5022 39.8992C41.2823 39.9154 41.0625 39.8661 40.8706 39.7574C40.6788 39.6487 40.5234 39.4856 40.4243 39.2886C40.3252 39.0916 40.2868 38.8697 40.3138 38.6509C40.3409 38.432 40.4322 38.2261 40.5763 38.0592C40.7204 37.8923 40.9108 37.7719 41.1233 37.7132C41.3359 37.6545 41.5611 37.6602 41.7704 37.7295C41.9797 37.7989 42.1638 37.9287 42.2993 38.1027C42.4808 38.3357 42.5624 38.6312 42.5262 38.9244C42.4899 39.2175 42.3388 39.4843 42.106 39.6661Z" fill="#064DD6"/>
<path d="M48.9674 42.6936C48.9391 42.5899 48.8742 42.4999 48.7849 42.4402L48.0268 41.9161C47.954 41.8657 47.8685 41.8367 47.78 41.8326C47.6915 41.8284 47.6036 41.8492 47.5264 41.8925L46.8456 42.2812C46.1837 42.6559 45.6102 43.1686 45.1641 43.7845L45.0159 43.9993C44.9558 44.0831 44.913 44.1781 44.89 44.2786C44.8671 44.3792 44.8644 44.4833 44.8822 44.5849C44.9 44.6865 44.9379 44.7836 44.9937 44.8703C45.0495 44.9571 45.122 45.0319 45.207 45.0903L45.993 45.6314C46.1447 45.7355 46.3284 45.7823 46.5113 45.7634C46.6942 45.7445 46.8645 45.6612 46.9917 45.5284L47.7605 44.708C47.7605 44.708 49.2208 43.6342 48.9674 42.6936Z" fill="#FFB573"/>
<path d="M47.5693 41.4883C47.2329 41.6306 46.9201 41.8232 46.6416 42.0595C46.7404 42.663 48.4219 43.6681 48.9889 43.681C49.2187 43.4662 49.5215 42.5835 49.5215 42.5835C48.8858 42.3087 48.0289 41.703 47.5693 41.4883Z" fill="#E0E0E0"/>
<path d="M30.3651 26.4562C30.3726 26.0932 30.3248 25.7311 30.2234 25.3824C29.6328 25.2235 28.0286 26.3488 27.7859 26.8643C27.8911 27.1628 28.5676 27.7963 28.5676 27.7963C29.0766 27.3152 29.9786 26.7783 30.3651 26.4562Z" fill="#E0E0E0"/>
<path d="M46.8886 84.7637L49.5258 84.8389L49.8007 83.3398L46.7146 83.5245L46.8886 84.7637Z" fill="#064DD6"/>
<path d="M34.6002 84.4967L37.42 84.9326L37.8967 83.687L34.772 82.9805L34.6002 84.4967Z" fill="#064DD6"/>
<path d="M43.5341 20.6564C43.4322 20.6607 43.3301 20.6557 43.2291 20.6413C43.2224 20.6403 43.2159 20.6379 43.2101 20.6343C43.2043 20.6306 43.1994 20.6259 43.1955 20.6202C43.1917 20.6146 43.1891 20.6082 43.1878 20.6015C43.1866 20.5947 43.1868 20.5878 43.1883 20.5812C43.1914 20.5668 43.1997 20.554 43.2115 20.5453C43.2234 20.5366 43.2381 20.5326 43.2527 20.5339C43.4802 20.5677 43.7124 20.5495 43.9319 20.4807C44.1513 20.4119 44.3523 20.2943 44.5198 20.1366C44.5302 20.1267 44.5441 20.1211 44.5585 20.1211C44.5729 20.1211 44.5867 20.1267 44.5971 20.1366C44.607 20.1467 44.6125 20.1602 44.6125 20.1742C44.6125 20.1883 44.607 20.2018 44.5971 20.2118C44.3101 20.4865 43.9313 20.6449 43.5341 20.6564Z" fill="#263238"/>
<path d="M36.1443 12.8069L29.6479 12.285L24.1308 9.54688L18.0832 11.3551L17.2113 22.2111L35.2724 23.6629L36.1443 12.8069Z" fill="#064DD6"/>
<path d="M15.3407 23.2663L12.4823 23.0365L12.8409 18.5781L13.1824 18.606L12.8517 22.7229L15.3686 22.9248L15.3407 23.2663Z" fill="#064DD6"/>
<path d="M16.6894 22.9454L16.6619 23.2891L18.8953 23.4677L18.9228 23.1241L16.6894 22.9454Z" fill="#064DD6"/>
<path d="M18.1978 18.2833L14.0941 17.9531L13.7734 21.939L17.8771 22.2692L18.1978 18.2833Z" fill="#064DD6"/>
<path opacity="0.2" d="M17.8792 22.2681L21.4785 22.558L21.9144 17.1289L18.1991 18.28L17.8792 22.2681Z" fill="black"/>
<path opacity="0.2" d="M36.1445 12.8157L29.6476 12.293L28.7742 23.1482L35.2711 23.671L36.1445 12.8157Z" fill="black"/>
<path d="M30.6272 10.0687L24.1307 9.54688L29.6479 12.285L36.1443 12.8069L30.6272 10.0687Z" fill="#263238"/>
<path d="M36.1442 13.1512H36.1163L29.6199 12.6293C29.5765 12.6248 29.5343 12.6124 29.4953 12.5928L23.9782 9.85468C23.9067 9.81917 23.8498 9.75987 23.8173 9.68698C23.7848 9.61409 23.7786 9.53215 23.7999 9.45523C23.8219 9.3786 23.8695 9.31183 23.9348 9.2661C24.0001 9.22036 24.0791 9.19843 24.1586 9.20397L30.655 9.72583C30.6991 9.73039 30.742 9.74275 30.7817 9.76234L36.2967 12.4962C36.3624 12.5324 36.4145 12.5892 36.4449 12.6579C36.4754 12.7265 36.4825 12.8032 36.4652 12.8763C36.4479 12.9493 36.4072 13.0147 36.3492 13.0624C36.2912 13.1101 36.2192 13.1375 36.1442 13.1405V13.1512ZM29.7401 11.9486L34.3961 12.3244L30.5304 10.4066L25.8745 10.0308L29.7401 11.9486Z" fill="#263238"/>
<path d="M17.8126 16.8008L21.9145 17.1294L18.1992 18.2805L14.0973 17.9519L17.8126 16.8008Z" fill="#263238"/>
<path d="M18.1991 18.4969H18.1819L14.0779 18.1662C14.0275 18.1624 13.98 18.1409 13.9439 18.1055C13.9077 18.0702 13.8852 18.0232 13.8803 17.9729C13.8752 17.9213 13.889 17.8697 13.9189 17.8275C13.9489 17.7852 13.9932 17.7553 14.0435 17.7431L17.7588 16.5898C17.7858 16.5846 17.8135 16.5846 17.8404 16.5898L21.9423 16.9206C21.9928 16.9238 22.0405 16.9448 22.077 16.9797C22.1135 17.0147 22.1366 17.0614 22.142 17.1117C22.1482 17.1622 22.1362 17.2132 22.1083 17.2556C22.0804 17.2981 22.0383 17.3293 21.9896 17.3436L18.2742 18.4947C18.2495 18.4999 18.2241 18.5006 18.1991 18.4969ZM15.2354 17.8226L18.1755 18.0588L20.7762 17.2535L17.8361 17.0172L15.2354 17.8226Z" fill="#263238"/>
<path d="M18.2485 11.7137C18.1672 11.7127 18.0888 11.6829 18.0274 11.6295C17.9659 11.5762 17.9254 11.5027 17.9131 11.4223C17.9007 11.3419 17.9172 11.2597 17.9598 11.1904C18.0024 11.121 18.0681 11.069 18.1455 11.0436L24.0298 9.22033C24.0744 9.19648 24.1237 9.18276 24.1742 9.18015C24.2247 9.17753 24.2751 9.1861 24.3219 9.20522C24.3687 9.22434 24.4107 9.25356 24.4449 9.29078C24.4791 9.328 24.5047 9.37232 24.5198 9.42056C24.5349 9.4688 24.5392 9.51979 24.5324 9.56988C24.5255 9.61997 24.5077 9.66793 24.4802 9.71034C24.4526 9.75275 24.4161 9.78856 24.3732 9.81523C24.3302 9.84189 24.2819 9.85875 24.2317 9.8646L18.3495 11.6879C18.3174 11.7016 18.2833 11.7103 18.2485 11.7137Z" fill="#263238"/>
<path opacity="0.6" d="M26.3712 18.7267L24.026 18.5391L23.6846 22.8063L26.0298 22.9939L26.3712 18.7267Z" fill="white"/>
<path d="M26.59 13.372L21.0928 12.9297L20.8268 16.2349L26.3241 16.6772L26.59 13.372Z" fill="white"/>
<path d="M23.593 13.3502L21.2789 13.1641L21.0481 16.0325L23.3622 16.2187L23.593 13.3502Z" fill="#064DD6"/>
<path d="M26.3687 13.5729L24.0547 13.3867L23.8239 16.2552L26.1379 16.4414L26.3687 13.5729Z" fill="#064DD6"/>
<path d="M34.4033 14.0011L31.3314 13.7539L31.0655 17.0591L34.1373 17.3062L34.4033 14.0011Z" fill="white"/>
<path d="M32.7187 14.0884L31.4258 13.9844L31.195 16.8529L32.4879 16.9569L32.7187 14.0884Z" fill="#064DD6"/>
<path d="M34.2694 14.2095L32.9764 14.1055L32.7456 16.9739L34.0386 17.078L34.2694 14.2095Z" fill="#064DD6"/>
<path d="M33.9767 19.2823L30.9049 19.0352L30.639 22.3403L33.7108 22.5875L33.9767 19.2823Z" fill="white"/>
<path d="M32.2924 19.3697L30.9994 19.2656L30.7686 22.1341L32.0616 22.2381L32.2924 19.3697Z" fill="#064DD6"/>
<path d="M33.9767 19.5569L32.6796 19.4531L32.4493 22.3309L33.7465 22.4346L33.9767 19.5569Z" fill="#064DD6"/>
</svg>
