<svg width="32" height="32" viewBox="0 0 32 32" fill="none" xmlns="http://www.w3.org/2000/svg">
<path fill-rule="evenodd" clip-rule="evenodd" d="M14.6668 24C19.8215 24 24.0002 19.8213 24.0002 14.6666C24.0002 9.51199 19.8215 5.33331 14.6668 5.33331C9.51217 5.33331 5.3335 9.51199 5.3335 14.6666C5.3335 19.8213 9.51217 24 14.6668 24ZM14.6668 8.33331C13.8351 8.33331 13.0116 8.49713 12.2432 8.81541C11.4748 9.13369 10.7766 9.6002 10.1885 10.1883C9.60038 10.7764 9.13387 11.4746 8.81559 12.243C8.49731 13.0114 8.3335 13.8349 8.3335 14.6666C8.3335 15.2189 8.78121 15.6666 9.3335 15.6666C9.88578 15.6666 10.3335 15.2189 10.3335 14.6666C10.3335 14.0976 10.4456 13.5341 10.6634 13.0084C10.8811 12.4826 11.2003 12.0049 11.6027 11.6025C12.0051 11.2001 12.4828 10.8809 13.0085 10.6632C13.5343 10.4454 14.0978 10.3333 14.6668 10.3333C15.2191 10.3333 15.6668 9.8856 15.6668 9.33331C15.6668 8.78103 15.2191 8.33331 14.6668 8.33331Z" fill="#064DD6"/>
<path d="M26.6667 26.6667L24 24" stroke="#064DD6" stroke-width="2" stroke-linecap="round"/>
</svg>
