<svg width="17" height="16" viewBox="0 0 17 16" fill="none" xmlns="http://www.w3.org/2000/svg">
<path d="M16.3045 14.8619L11.7545 10.3119C12.6359 9.22325 13.1665 7.83992 13.1665 6.33328C13.1665 2.84132 10.3252 0 6.83325 0C3.34128 0 0.5 2.84128 0.5 6.33325C0.5 9.82522 3.34132 12.6665 6.83328 12.6665C8.33992 12.6665 9.72325 12.1359 10.8119 11.2545L15.3619 15.8045C15.4919 15.9345 15.6625 15.9998 15.8332 15.9998C16.0039 15.9998 16.1745 15.9345 16.3045 15.8045C16.5652 15.5438 16.5652 15.1225 16.3045 14.8619ZM6.83328 11.3332C4.07597 11.3332 1.83333 9.09057 1.83333 6.33325C1.83333 3.57593 4.07597 1.3333 6.83328 1.3333C9.5906 1.3333 11.8332 3.57593 11.8332 6.33325C11.8332 9.09057 9.59057 11.3332 6.83328 11.3332Z" fill="white"/>
</svg>
