<svg width="25" height="25" viewBox="0 0 25 25" fill="none" xmlns="http://www.w3.org/2000/svg">
<path d="M24.3331 3.12307L17.8818 22.4756C17.7695 22.8158 17.5525 23.1118 17.262 23.3214C16.9714 23.5309 16.622 23.6433 16.2638 23.6425L16.2371 23.6421C15.8744 23.6376 15.5226 23.5171 15.2333 23.2983C14.944 23.0795 14.7323 22.7738 14.6291 22.4261L12.1944 14.3102L18.5425 7.96177C18.6217 7.88256 18.6846 7.78851 18.7274 7.68501C18.7703 7.58151 18.7924 7.47058 18.7924 7.35855C18.7924 7.24653 18.7703 7.13559 18.7274 7.03209C18.6846 6.92859 18.6217 6.83455 18.5425 6.75534C18.4633 6.67612 18.3693 6.61328 18.2658 6.57041C18.1623 6.52754 18.0513 6.50548 17.9393 6.50548C17.8273 6.50548 17.7163 6.52754 17.6128 6.57041C17.5093 6.61328 17.4153 6.67612 17.3361 6.75534L10.988 13.1038L2.87176 10.6687C2.52445 10.5646 2.21934 10.3525 2.00068 10.0633C1.78203 9.77407 1.6612 9.4227 1.65572 9.06015C1.65024 8.69761 1.7604 8.34275 1.97021 8.04704C2.18003 7.75133 2.47859 7.53015 2.8226 7.41558L22.1751 0.964703C22.4758 0.864364 22.7984 0.849758 23.1068 0.922523C23.4153 0.995288 23.6974 1.15255 23.9214 1.37666C24.1455 1.60078 24.3027 1.88289 24.3754 2.19136C24.4481 2.49982 24.4335 2.82244 24.3331 3.12304L24.3331 3.12307ZM6.59813 13.5807C6.51893 13.5014 6.42489 13.4386 6.32139 13.3957C6.21788 13.3528 6.10695 13.3307 5.99491 13.3307C5.88287 13.3307 5.77193 13.3528 5.66843 13.3957C5.56493 13.4386 5.47089 13.5014 5.39169 13.5807L1.12584 17.8465C0.965854 18.0065 0.875977 18.2235 0.875977 18.4497C0.875977 18.676 0.965854 18.893 1.12584 19.053C1.28582 19.2129 1.5028 19.3028 1.72905 19.3028C1.95531 19.3028 2.17229 19.2129 2.33227 19.053L6.59813 14.7871C6.67737 14.7079 6.74023 14.6139 6.78312 14.5104C6.82601 14.4069 6.84808 14.2959 6.84808 14.1839C6.84808 14.0718 6.82601 13.9609 6.78312 13.8574C6.74023 13.7539 6.67737 13.6599 6.59813 13.5807V13.5807ZM11.7172 18.6997C11.638 18.6205 11.5439 18.5576 11.4404 18.5147C11.3369 18.4718 11.226 18.4497 11.1139 18.4497C11.0019 18.4497 10.891 18.4718 10.7875 18.5147C10.684 18.5576 10.5899 18.6205 10.5107 18.6997L6.24486 22.9655C6.16565 23.0448 6.10281 23.1388 6.05994 23.2423C6.01707 23.3458 5.995 23.4567 5.995 23.5688C5.995 23.6808 6.01707 23.7917 6.05994 23.8952C6.10281 23.9987 6.16565 24.0928 6.24486 24.172C6.32408 24.2512 6.41812 24.314 6.52162 24.3569C6.62512 24.3998 6.73605 24.4218 6.84808 24.4218C6.96011 24.4218 7.07104 24.3998 7.17454 24.3569C7.27804 24.314 7.37208 24.2512 7.4513 24.172L11.7172 19.9061C11.7964 19.8269 11.8593 19.7329 11.9021 19.6294C11.945 19.5259 11.9671 19.4149 11.9671 19.3029C11.9671 19.1909 11.945 19.0799 11.9021 18.9764C11.8593 18.8729 11.7964 18.7789 11.7172 18.6997ZM7.41797 17.8132C7.25687 17.6544 7.03927 17.566 6.81303 17.5676C6.58679 17.5691 6.37044 17.6605 6.21154 17.8215L1.97484 22.1165C1.89577 22.1962 1.8332 22.2907 1.79072 22.3946C1.74824 22.4985 1.72668 22.6098 1.72729 22.722C1.72789 22.8343 1.75064 22.9453 1.79423 23.0487C1.83782 23.1522 1.9014 23.246 1.98132 23.3248C2.06124 23.4037 2.15593 23.4659 2.25997 23.5081C2.364 23.5503 2.47533 23.5715 2.58758 23.5705C2.69983 23.5696 2.81079 23.5465 2.9141 23.5026C3.0174 23.4587 3.11103 23.3948 3.18961 23.3146L7.4263 19.0196C7.58513 18.8585 7.67348 18.6409 7.67192 18.4147C7.67036 18.1884 7.57901 17.9721 7.41797 17.8132V17.8132Z" fill="white"/>
</svg>
