<svg width="64" height="64" viewBox="0 0 64 64" fill="none" xmlns="http://www.w3.org/2000/svg">
<path d="M29.2824 26.7536L29.2824 21.8288C29.2824 20.7906 30.1076 19.9654 31.1458 19.9387C31.4387 19.9387 31.7182 19.9254 32.011 19.9254C34.7662 19.9387 37.4549 20.1517 40.077 20.5643C42.6858 20.9902 45.0817 21.6291 47.2246 22.4943C49.3676 23.3861 51.1378 24.5175 52.5221 25.9017C53.4272 26.8068 54.1326 27.8317 54.6118 28.9498C55.1043 30.0811 55.3439 31.3323 55.3039 32.7033C55.2906 34.3937 54.7715 35.738 53.7866 36.723C53.4139 37.0956 52.9613 37.3885 52.4688 37.5615C51.9631 37.7478 51.4173 37.8144 50.8317 37.7079L43.3913 36.4434C42.8189 36.3503 42.3398 36.2172 41.9271 36.0441C41.5278 35.8844 41.1818 35.6714 40.9289 35.4186C40.6094 35.0991 40.3831 34.6865 40.2634 34.194C40.1303 33.7148 40.0637 33.1425 40.0637 32.5036L40.0238 30.4405C40.0238 30.1477 39.9173 29.9081 39.7043 29.6951C39.5978 29.5887 39.4914 29.5088 39.3583 29.4289C39.2118 29.3624 39.0921 29.3225 38.9856 29.2692C38.3067 29.0696 37.3218 28.9098 36.044 28.8034C34.7529 28.7102 33.4086 28.6436 32.011 28.6303C31.7448 28.6303 31.4653 28.6436 31.1991 28.6436C30.1476 28.6569 29.2824 27.8184 29.2824 26.7536Z" fill="white"/>
<path d="M10.249 36.7895C9.87627 36.4168 9.55683 35.9642 9.31724 35.4584C9.25069 35.312 9.18414 35.1656 9.1309 35.0059C8.87801 34.3005 8.71828 33.5551 8.67835 32.7432C8.6118 31.3722 8.81145 30.1343 9.29062 28.9897C9.30393 28.9764 9.30393 28.9497 9.31724 28.9364C9.7831 27.8317 10.4619 26.8068 11.3803 25.8884C12.738 24.5307 14.5082 23.3994 16.6911 22.5209C18.874 21.6424 21.2832 20.9902 23.9053 20.5776C24.8104 20.4445 25.7155 20.3114 26.6206 20.2315L26.6206 28.9364C25.9684 29.0296 25.4226 29.1494 24.9967 29.2825C24.9035 29.3224 24.7837 29.3624 24.6506 29.4156C24.5042 29.4821 24.3844 29.5753 24.2646 29.6951C24.0384 29.9214 23.9452 30.1743 23.9452 30.4671L23.9319 32.4769C23.9319 33.1425 23.8653 33.7148 23.7189 34.1807C23.5991 34.6731 23.3862 35.0724 23.0534 35.4052C22.8005 35.6581 22.4811 35.8711 22.0685 36.0441C21.6558 36.2171 21.1767 36.3502 20.6176 36.4567L13.084 37.7345C12.4984 37.841 11.9793 37.801 11.5001 37.6147C11.0343 37.415 10.6216 37.1622 10.249 36.7895Z" fill="white"/>
</svg>
