<svg width="508" height="609" viewBox="0 0 508 609" fill="none" xmlns="http://www.w3.org/2000/svg">
<g opacity="0.6">
<path d="M72.8594 201.963L127.708 528.334C134.251 567.271 180.64 583.972 211.208 558.397L467.439 344.022C498.007 318.446 489.829 269.776 452.717 256.415L141.641 144.416C104.533 131.058 66.3232 163.027 72.8594 201.963Z" stroke="#064DD6" stroke-width="0.2" stroke-miterlimit="10"/>
<path d="M77.8067 207.578L132.937 522.143C139.513 559.67 184.398 575.475 213.727 550.591L459.578 342.01C488.908 317.126 480.687 270.217 444.78 257.574L143.799 151.59C107.892 138.945 71.2283 170.048 77.8067 207.578Z" stroke="#064DD6" stroke-width="0.2" stroke-miterlimit="10"/>
<path d="M82.7508 213.196L138.167 515.95C144.776 552.069 188.157 566.975 216.249 542.783L451.72 339.996C479.812 315.803 471.549 270.655 436.846 258.729L145.954 158.766C111.254 146.837 76.1402 177.077 82.7508 213.196Z" stroke="#064DD6" stroke-width="0.2" stroke-miterlimit="10"/>
<path d="M87.695 218.813L143.397 509.757C150.042 544.467 191.915 558.477 218.773 534.973L443.865 337.979C470.718 314.478 462.412 271.091 428.914 259.883L148.116 165.936C114.616 154.727 81.05 184.104 87.695 218.813Z" stroke="#064DD6" stroke-width="0.2" stroke-miterlimit="10"/>
<path d="M92.6395 224.432L148.625 503.566C155.305 536.866 195.672 549.978 221.289 527.168L436.001 335.969C461.616 313.159 453.265 271.536 420.973 261.043L150.274 173.109C117.981 162.617 85.9602 191.131 92.6395 224.432Z" stroke="#064DD6" stroke-width="0.2" stroke-miterlimit="10"/>
<path d="M97.5827 230.05L153.856 497.373C160.572 529.267 199.435 541.485 223.809 519.362L428.142 333.956C452.523 311.834 444.124 271.969 413.037 262.2L152.431 180.283C121.34 170.509 90.8698 198.158 97.5827 230.05Z" stroke="#064DD6" stroke-width="0.2" stroke-miterlimit="10"/>
<path d="M102.527 235.668L159.086 491.182C165.833 521.663 203.19 532.983 226.329 511.555L420.281 331.945C443.42 310.517 434.986 272.415 405.1 263.359L154.589 187.456C124.702 178.402 95.7802 205.186 102.527 235.668Z" stroke="#064DD6" stroke-width="0.2" stroke-miterlimit="10"/>
<path d="M107.471 241.286L164.315 484.988C171.095 514.064 206.949 524.484 228.849 503.747L412.423 329.929C434.326 309.195 425.847 272.852 397.165 264.514L156.747 194.629C128.065 186.292 100.69 212.212 107.471 241.286Z" stroke="#064DD6" stroke-width="0.2" stroke-miterlimit="10"/>
<path d="M112.414 246.904L169.548 478.801C176.367 506.462 210.71 515.99 231.373 495.944L404.567 327.921C425.228 307.876 416.711 273.297 389.232 265.676L158.904 201.803C131.426 194.183 105.599 219.239 112.414 246.904Z" stroke="#064DD6" stroke-width="0.2" stroke-miterlimit="10"/>
<path d="M117.359 252.522L174.775 472.604C181.624 498.86 214.47 507.485 233.89 488.133L396.705 325.904C416.128 306.55 407.566 273.73 381.291 266.83L161.062 208.977C134.786 202.077 110.509 226.267 117.359 252.522Z" stroke="#064DD6" stroke-width="0.2" stroke-miterlimit="10"/>
<path d="M122.301 258.141L180.004 466.413C186.888 491.259 218.227 498.992 236.41 480.327L388.846 323.891C407.031 305.228 398.425 274.17 373.356 267.986L163.216 216.152C138.149 209.965 115.418 233.294 122.301 258.141Z" stroke="#064DD6" stroke-width="0.2" stroke-miterlimit="10"/>
<path d="M127.248 263.761L185.234 460.221C192.152 483.658 221.983 490.491 238.93 472.519L380.984 321.879C397.931 303.907 389.282 274.61 365.415 269.14L165.376 223.323C141.511 217.857 120.327 240.322 127.248 263.761Z" stroke="#064DD6" stroke-width="0.2" stroke-miterlimit="10"/>
<path d="M132.188 269.377L190.462 454.03C197.415 476.059 225.74 481.994 241.449 464.714L373.127 319.868C388.835 302.588 380.145 275.052 357.484 270.304L167.533 230.497C144.872 225.748 125.236 247.349 132.188 269.377Z" stroke="#064DD6" stroke-width="0.2" stroke-miterlimit="10"/>
<path d="M137.132 274.996L195.694 447.836C202.68 468.456 229.501 473.494 243.972 456.905L365.265 317.851C379.736 301.261 371.003 275.486 349.545 271.456L169.69 237.67C148.234 233.64 130.145 254.377 137.132 274.996Z" stroke="#064DD6" stroke-width="0.2" stroke-miterlimit="10"/>
<path d="M142.074 280.614L200.924 441.638C207.945 460.85 233.261 464.99 246.492 449.091L357.405 315.831C370.637 299.933 361.862 275.919 341.609 272.606L171.845 244.845C151.594 241.531 135.054 261.405 142.074 280.614Z" stroke="#064DD6" stroke-width="0.2" stroke-miterlimit="10"/>
<path d="M147.016 286.23L206.154 435.452C213.211 453.256 237.017 456.499 249.013 441.29L349.545 313.823C361.535 298.619 352.72 276.364 333.671 273.769L174.003 252.017C154.955 249.423 139.962 268.431 147.016 286.23Z" stroke="#064DD6" stroke-width="0.2" stroke-miterlimit="10"/>
<path d="M151.96 291.851L211.384 429.26C218.473 445.652 240.778 447.999 251.532 433.484L341.684 311.81C352.439 297.294 343.577 276.803 325.731 274.924L176.159 259.191C158.315 257.314 144.871 275.459 151.96 291.851Z" stroke="#064DD6" stroke-width="0.2" stroke-miterlimit="10"/>
<path d="M156.902 297.471L216.614 423.069C223.737 438.052 244.535 439.497 254.056 425.675L333.825 309.793C343.341 295.968 334.436 277.238 317.797 276.078L178.316 266.361C161.674 265.207 149.778 282.487 156.902 297.471Z" stroke="#064DD6" stroke-width="0.2" stroke-miterlimit="10"/>
<path d="M161.844 303.089L221.844 416.875C229 430.448 248.298 431.002 256.575 417.869L325.963 307.782C334.241 294.648 325.293 277.68 309.857 277.239L180.468 273.537C165.033 273.098 154.686 289.515 161.844 303.089Z" stroke="#064DD6" stroke-width="0.2" stroke-miterlimit="10"/>
<path d="M166.785 308.708L227.075 410.684C234.268 422.85 252.057 422.503 259.097 410.061L318.102 305.767C325.141 293.325 316.15 278.118 301.918 278.394L182.625 280.713C168.392 280.99 159.593 296.542 166.785 308.708Z" stroke="#064DD6" stroke-width="0.2" stroke-miterlimit="10"/>
<path d="M171.726 314.327L232.306 404.492C239.533 415.249 255.817 414.005 261.618 402.254L310.24 303.753C316.04 292.001 307.006 278.555 293.978 279.55L184.78 287.89C171.75 288.881 164.499 303.571 171.726 314.327Z" stroke="#064DD6" stroke-width="0.2" stroke-miterlimit="10"/>
<path d="M176.666 319.947L237.537 398.3C244.8 407.647 259.578 405.507 264.14 394.447L302.376 301.738C306.937 290.677 297.858 278.991 286.035 280.707L186.927 295.063C175.107 296.774 169.404 310.599 176.666 319.947Z" stroke="#064DD6" stroke-width="0.2" stroke-miterlimit="10"/>
</g>
</svg>
