<svg width="20" height="20" viewBox="0 0 20 20" fill="none" xmlns="http://www.w3.org/2000/svg">
<path d="M9.99996 1.6665C5.39996 1.6665 1.66663 5.39984 1.66663 9.99984C1.66663 14.5998 5.39996 18.3332 9.99996 18.3332C14.6 18.3332 18.3333 14.5998 18.3333 9.99984C18.3333 5.39984 14.6 1.6665 9.99996 1.6665ZM9.99996 16.6665C6.31663 16.6665 3.33329 13.6832 3.33329 9.99984C3.33329 6.3165 6.31663 3.33317 9.99996 3.33317C13.6833 3.33317 16.6666 6.3165 16.6666 9.99984C16.6666 13.6832 13.6833 16.6665 9.99996 16.6665Z" fill="#777777"/>
<path d="M5.83325 11.25C6.52361 11.25 7.08325 10.6904 7.08325 10C7.08325 9.30964 6.52361 8.75 5.83325 8.75C5.1429 8.75 4.58325 9.30964 4.58325 10C4.58325 10.6904 5.1429 11.25 5.83325 11.25Z" fill="#777777"/>
<path d="M10 11.25C10.6904 11.25 11.25 10.6904 11.25 10C11.25 9.30964 10.6904 8.75 10 8.75C9.30964 8.75 8.75 9.30964 8.75 10C8.75 10.6904 9.30964 11.25 10 11.25Z" fill="#777777"/>
<path d="M14.1666 11.25C14.857 11.25 15.4166 10.6904 15.4166 10C15.4166 9.30964 14.857 8.75 14.1666 8.75C13.4763 8.75 12.9166 9.30964 12.9166 10C12.9166 10.6904 13.4763 11.25 14.1666 11.25Z" fill="#777777"/>
</svg>
