<svg xmlns="http://www.w3.org/2000/svg" data-name="Layer 1" viewBox="0 0 100 125" x="0px" y="0px">
  <path
      d="M68.74,83.77H26.51A5.49,5.49,0,0,1,21,78.28a3.15,3.15,0,0,1,0-.44,5.51,5.51,0,0,1,5.46-5.06H68.78a1.15,1.15,0,1,1,0,2.3H26.51A3.18,3.18,0,0,0,23.35,78l0,.32a3.21,3.21,0,0,0,3.2,3.2H68.74a1.15,1.15,0,1,1,0,2.29Z"/>
  <path d="M68.75,79.43H26.23a1.15,1.15,0,1,1,0-2.3H68.75a1.15,1.15,0,0,1,0,2.3Z"/>
  <path
      d="M22.21,79A1.18,1.18,0,0,1,21,77.85V30.41a3.15,3.15,0,0,1,0-.44,5.93,5.93,0,0,1,.58-2l0-.07a5.25,5.25,0,0,1,.47-.75,7.08,7.08,0,0,1,.65-.72l.16-.13a5.33,5.33,0,0,1,.62-.47l.26-.14c.31-.17.46-.25.62-.32a3.37,3.37,0,0,1,.48-.15c.27-.09.39-.12.51-.15a5.47,5.47,0,0,1,1.07-.11h2.88a1.15,1.15,0,0,1,1.15,1.15V73.93a1.14,1.14,0,0,1-1.15,1.15H26.51A3.18,3.18,0,0,0,23.35,78,1.14,1.14,0,0,1,22.21,79Zm0-1.14h0ZM23.66,29a3.34,3.34,0,0,0-.31,1.09l0,.32v43.4a5.45,5.45,0,0,1,3.2-1h1.73V27.21H26.51a3.2,3.2,0,0,0-.63.07l-.22.07-.34.1a2.53,2.53,0,0,0-.23.12l-.21.11a2.4,2.4,0,0,0-.42.31,3.09,3.09,0,0,0-.45.46,4,4,0,0,0-.33.51A.05.05,0,0,1,23.66,29Z"/>
  <path
      d="M76.27,75.08H34a5.5,5.5,0,0,1-5.5-5.49,3.42,3.42,0,0,1,0-.46,5.5,5.5,0,0,1,5.46-5H76.31a1.15,1.15,0,1,1,0,2.29H34a3.19,3.19,0,0,0-3.16,2.88l0,.32A3.2,3.2,0,0,0,34,72.78H76.27a1.15,1.15,0,0,1,0,2.3Z"/>
  <path
      d="M29.6,70.31a1.19,1.19,0,0,1-1.19-1.15V21.72a3.42,3.42,0,0,1,0-.46,5.53,5.53,0,0,1,.58-2h0a5.55,5.55,0,0,1,.51-.81,7.08,7.08,0,0,1,.65-.72l.18-.15a6.55,6.55,0,0,1,.59-.45l.29-.16a4.64,4.64,0,0,1,.6-.3c.15-.06.32-.11.49-.16a4.91,4.91,0,0,1,.5-.14,5.29,5.29,0,0,1,1.06-.1H77.84A1.14,1.14,0,0,1,79,17.38V65.25a1.14,1.14,0,0,1-1.14,1.14H33.9a3.17,3.17,0,0,0-3.15,2.88A1.16,1.16,0,0,1,29.6,70.31Zm1.48-50h0a3.22,3.22,0,0,0-.32,1.12l0,.32v43.4a5.42,5.42,0,0,1,3.19-1H76.69V18.52H33.9a3.27,3.27,0,0,0-.62.07l-.25.08-.31.09a1.5,1.5,0,0,0-.22.11l-.21.11a3,3,0,0,0-.44.32,2.89,2.89,0,0,0-.44.46A2.56,2.56,0,0,0,31.08,20.27Z"/>
  <path d="M76.28,70.74H33.57a1.15,1.15,0,0,1,0-2.3H76.28a1.15,1.15,0,1,1,0,2.3Z"/>
  <path d="M67.67,36.41H46a1.15,1.15,0,1,1,0-2.29H67.67a1.15,1.15,0,1,1,0,2.29Z"/>
  <path d="M67.67,33H46a1.15,1.15,0,0,1,0-2.3H67.67a1.15,1.15,0,1,1,0,2.3Z"/>
  <path d="M57.45,39.83H46a1.15,1.15,0,1,1,0-2.3H57.45a1.15,1.15,0,1,1,0,2.3Z"/>
  <path d="M77.7,56.59H69.15a1.15,1.15,0,1,1,0-2.3H77.7a1.15,1.15,0,0,1,0,2.3Z"/>
  <path d="M77.7,60.18H72.6a1.15,1.15,0,1,1,0-2.3h5.1a1.15,1.15,0,0,1,0,2.3Z"/>
  <path d="M36.05,62.92a1.14,1.14,0,0,1-1.15-1.15V20.87a1.15,1.15,0,0,1,2.3,0v40.9A1.15,1.15,0,0,1,36.05,62.92Z"/>


</svg>