<svg width="21" height="17" viewBox="0 0 21 17" fill="none" xmlns="http://www.w3.org/2000/svg">
<path fill-rule="evenodd" clip-rule="evenodd" d="M1.09157 1.3611C0.212891 2.23978 0.212891 3.65399 0.212891 6.48242V10.3689C0.212891 13.1974 0.212891 14.6116 1.09157 15.4903C1.97025 16.3689 3.38446 16.3689 6.21289 16.3689H14.6384C17.4669 16.3689 18.8811 16.3689 19.7597 15.4903C20.6384 14.6116 20.6384 13.1974 20.6384 10.3689V6.48242C20.6384 3.65399 20.6384 2.23978 19.7597 1.3611C18.8811 0.482422 17.4669 0.482422 14.6384 0.482422H6.21289C3.38446 0.482422 1.97025 0.482422 1.09157 1.3611ZM4.17185 4.18938C3.71232 3.88303 3.09145 4.0072 2.7851 4.46673C2.47874 4.92626 2.60292 5.54713 3.06245 5.85348L9.31626 10.0227C9.98806 10.4706 10.8633 10.4706 11.5351 10.0227L17.7889 5.85348C18.2484 5.54713 18.3726 4.92626 18.0662 4.46673C17.7599 4.0072 17.139 3.88303 16.6795 4.18938L10.4257 8.35859L4.17185 4.18938Z" fill="white"/>
</svg>
