<svg id="Capa_1" enable-background="new 0 0 511 511" height="512" viewBox="0 0 511 511" width="512"
     xmlns="http://www.w3.org/2000/svg">
  <g fill="current">
    <path
        d="m132.394 0-74.394 74.394v436.606h395v-511zm-4.394 25.606v44.394h-44.394zm310 470.394h-365v-411h70v-70h295z"/>
    <path
        d="m255.5 245c59.275 0 107.5-48.224 107.5-107.5s-48.225-107.5-107.5-107.5-107.5 48.224-107.5 107.5 48.225 107.5 107.5 107.5zm0-200c51.005 0 92.5 41.495 92.5 92.5s-41.495 92.5-92.5 92.5-92.5-41.495-92.5-92.5 41.495-92.5 92.5-92.5z"/>
    <path
        d="m210 177.477c12.035 12.06 28.327 15.523 45.5 15.523s33.465-3.463 45.5-15.523v-42.81l34-14.167-79.5-33.125-79.5 33.125 34 14.167zm76-6.623c-3.898 2.525-13.374 7.146-30.5 7.146s-26.602-4.621-30.5-7.146v-29.938l30.5 12.708 30.5-12.708zm-30.5-67.229 40.5 16.875-40.5 16.875-40.5-16.875z"/>
    <path d="m106 329h55v-55h-55zm15-40h25v25h-25z"/>
    <path d="m183.5 274h220v15h-220z"/>
    <path d="m183.5 304h150v15h-150z"/>
    <path d="m106 399h55v-55h-55zm15-40h25v25h-25z"/>
    <path d="m183.5 344h220v15h-220z"/>
    <path d="m183.5 374h150v15h-150z"/>
    <path d="m106 469h55v-55h-55zm15-40h25v25h-25z"/>
    <path d="m183.5 414h220v15h-220z"/>
    <path d="m183.5 444h150v15h-150z"/>
  </g>
</svg>