<svg width="32" height="32" viewBox="0 0 32 32" fill="none" xmlns="http://www.w3.org/2000/svg">
<path fill-rule="evenodd" clip-rule="evenodd" d="M3.54518 6.21199C2.6665 7.09067 2.6665 8.50489 2.6665 11.3333V12.3333C2.6665 12.8856 3.11422 13.3333 3.6665 13.3333H3.99984C5.4726 13.3333 6.6665 14.5272 6.6665 16C6.6665 17.4727 5.4726 18.6666 3.99984 18.6666H3.6665C3.11422 18.6666 2.6665 19.1144 2.6665 19.6666V20.6666C2.6665 23.4951 2.6665 24.9093 3.54518 25.788C4.42386 26.6666 5.83808 26.6666 8.6665 26.6666H23.3332C26.1616 26.6666 27.5758 26.6666 28.4545 25.788C29.3332 24.9093 29.3332 23.4951 29.3332 20.6666V19.6666C29.3332 19.1144 28.8855 18.6666 28.3332 18.6666H27.9998C26.5271 18.6666 25.3332 17.4727 25.3332 16C25.3332 14.5272 26.5271 13.3333 27.9998 13.3333H28.3332C28.8855 13.3333 29.3332 12.8856 29.3332 12.3333V11.3333C29.3332 8.50489 29.3332 7.09067 28.4545 6.21199C27.5758 5.33331 26.1616 5.33331 23.3332 5.33331H8.6665C5.83808 5.33331 4.42386 5.33331 3.54518 6.21199ZM15.4089 14.2514L15.4089 14.2514C15.2814 14.5812 15.2176 14.7461 15.0984 14.8583C15.0649 14.8897 15.0286 14.9177 14.9899 14.9419C14.8521 15.0282 14.68 15.0441 14.3358 15.0761C13.7532 15.1303 13.4619 15.1574 13.3729 15.3297C13.3545 15.3654 13.342 15.4041 13.3359 15.4441C13.3064 15.6372 13.5205 15.8394 13.9488 16.2438L14.0678 16.3561L14.0678 16.3561C14.268 16.5452 14.3681 16.6397 14.4261 16.7577C14.4608 16.8284 14.4841 16.9047 14.495 16.9833C14.5132 17.1143 14.4839 17.2514 14.4252 17.5257L14.4043 17.6237L14.4043 17.6237C14.2991 18.1156 14.2466 18.3615 14.3122 18.4824C14.3711 18.591 14.4797 18.6605 14.5997 18.6664C14.7333 18.6731 14.9214 18.5139 15.2978 18.1957C15.5458 17.986 15.6697 17.8811 15.8074 17.8402C15.9331 17.8028 16.0665 17.8028 16.1923 17.8402C16.3299 17.8811 16.4539 17.986 16.7019 18.1957C17.0782 18.5139 17.2664 18.6731 17.4 18.6664C17.5199 18.6605 17.6285 18.591 17.6875 18.4824C17.7531 18.3615 17.7005 18.1156 17.5954 17.6237L17.5744 17.5257C17.5158 17.2514 17.4865 17.1143 17.5047 16.9833C17.5156 16.9047 17.5389 16.8284 17.5736 16.7577C17.6315 16.6397 17.7316 16.5452 17.9319 16.3561L17.9319 16.3561L18.0508 16.2438C18.4792 15.8394 18.6933 15.6372 18.6638 15.4441C18.6577 15.4041 18.6452 15.3654 18.6268 15.3297C18.5378 15.1574 18.2465 15.1303 17.6639 15.0761C17.3197 15.0441 17.1476 15.0282 17.0097 14.9419C16.9711 14.9177 16.9348 14.8897 16.9013 14.8583C16.782 14.7461 16.7183 14.5812 16.5908 14.2514L16.5908 14.2514C16.3666 13.6714 16.2546 13.3814 16.0725 13.3412C16.0246 13.3307 15.9751 13.3307 15.9272 13.3412C15.7451 13.3814 15.633 13.6714 15.4089 14.2514Z" fill="#064DD6"/>
</svg>
