<svg width="32" height="32" viewBox="0 0 32 32" fill="none" xmlns="http://www.w3.org/2000/svg">
<path fill-rule="evenodd" clip-rule="evenodd" d="M16 28C22.6274 28 28 22.6274 28 16C28 9.37258 22.6274 4 16 4C9.37258 4 4 9.37258 4 16C4 22.6274 9.37258 28 16 28ZM17 8.66667C17 8.11438 16.5523 7.66667 16 7.66667C15.4477 7.66667 15 8.11438 15 8.66667V15.75C15 16.4404 15.5596 17 16.25 17H20.6667C21.219 17 21.6667 16.5523 21.6667 16C21.6667 15.4477 21.219 15 20.6667 15H17V8.66667Z" fill="#064DD6"/>
</svg>
