<svg width="36" height="36" viewBox="0 0 36 36" fill="none" xmlns="http://www.w3.org/2000/svg">
<path d="M29.7314 6.78384H6.25679C5.70578 6.78384 5.25549 6.33951 5.25549 5.78254C5.25549 5.22558 5.69982 4.78125 6.25679 4.78125H29.7196C30.2706 4.78125 30.7209 5.22558 30.7209 5.78254C30.7209 6.33951 30.2824 6.78384 29.7314 6.78384Z" fill="white"/>
<path d="M29.7314 10.4635H6.25679C5.70578 10.4635 5.25549 10.0192 5.25549 9.46223C5.25549 8.90526 5.69982 8.46094 6.25679 8.46094H29.7196C30.2706 8.46094 30.7209 8.90526 30.7209 9.46223C30.7209 10.0132 30.2824 10.4635 29.7314 10.4635Z" fill="white"/>
<path d="M29.7314 14.1432H6.25679C5.70578 14.1432 5.25549 13.6989 5.25549 13.1419C5.25549 12.5909 5.69982 12.1406 6.25679 12.1406H29.7196C30.2706 12.1406 30.7209 12.585 30.7209 13.1419C30.7209 13.6929 30.2824 14.1432 29.7314 14.1432Z" fill="white"/>
<path d="M16.3232 17.8229H6.25679C5.70578 17.8229 5.25549 17.3786 5.25549 16.8216C5.25549 16.2706 5.69982 15.8203 6.25679 15.8203H16.3232C16.8743 15.8203 17.3245 16.2646 17.3245 16.8216C17.3187 17.3726 16.8743 17.8229 16.3232 17.8229Z" fill="white"/>
<path d="M15.9737 21.4948H6.25679C5.70578 21.4948 5.25549 21.0504 5.25549 20.4935C5.25549 19.9425 5.69982 19.4922 6.25679 19.4922H15.9737C16.5247 19.4922 16.975 19.9365 16.975 20.4935C16.975 21.0445 16.5307 21.4948 15.9737 21.4948Z" fill="white"/>
<path d="M34.9868 0.0117188H1.00129C0.450284 0.0117188 0 0.456046 0 1.01301V25.6786C0 26.2296 0.444327 26.6798 1.00129 26.6798H19.6768C20.1922 27.3671 20.8439 27.9478 21.5846 28.3922V34.9867C21.5846 35.8695 22.6452 36.3198 23.2851 35.7036L24.9441 34.0802L26.609 35.7036C27.2371 36.3198 28.3095 35.8754 28.3095 34.9867V28.3922C29.056 27.9537 29.6959 27.3671 30.2233 26.6798H34.9988C35.5498 26.6798 36.0001 26.2355 36.0001 25.6786V1.00715C35.9822 0.456046 35.5378 0.0117188 34.9868 0.0117188ZM26.3067 32.6108L25.649 31.965C25.258 31.5799 24.6418 31.5799 24.2567 31.965L23.599 32.6108V29.1743C24.0374 29.2691 24.4937 29.3166 24.9618 29.3166C25.4298 29.3166 25.8801 29.2692 26.3245 29.1743V32.6108H26.3067ZM24.9499 27.3198C23.4391 27.3198 22.1 26.5909 21.2646 25.4653C21.4069 25.4653 21.549 25.4653 21.7089 25.4593C22.26 25.4534 22.6984 24.9972 22.6925 24.4461C22.6865 23.8951 22.254 23.4566 21.6793 23.4626C21.2408 23.4686 20.7668 23.4686 20.4113 23.4686C20.3698 23.2197 20.3462 22.9709 20.3462 22.7161C20.3462 22.4613 20.3758 22.2125 20.4113 21.9696C20.6246 21.9756 22.4021 21.9696 23.285 21.9636C23.836 21.9577 24.2863 21.5134 24.2745 20.9564C24.2685 20.4054 23.8242 19.9669 23.2732 19.9669H23.2672C22.5859 19.9729 21.8571 19.9729 21.2587 19.9729C22.1 18.8471 23.4331 18.1124 24.9499 18.1124C27.4858 18.1124 29.5536 20.1743 29.5536 22.7161C29.5477 25.258 27.4858 27.3198 24.9499 27.3198ZM33.9855 24.6773H31.2541C31.4437 24.0611 31.5503 23.4034 31.5503 22.7161C31.5503 19.0782 28.5879 16.1157 24.9499 16.1157C21.312 16.1157 18.3496 19.0841 18.3496 22.7221C18.3496 23.4034 18.4562 24.0611 18.6458 24.6832H2.00268V2.00844H33.9856L33.9855 24.6773Z" fill="white"/>
<path fill-rule="evenodd" clip-rule="evenodd" d="M19.6768 26.6813C20.1922 27.3686 20.8439 27.9492 21.5846 28.3936V34.9882C21.5846 35.8709 22.6452 36.3212 23.2851 35.705L24.9441 34.0816L26.609 35.705C27.2371 36.3212 28.3095 35.8769 28.3095 34.9882V28.3936C29.056 27.9552 29.6959 27.3686 30.2233 26.6813C30.7138 25.9181 30.9401 25.4799 31.2541 24.6787C31.4437 24.0626 31.5503 23.4049 31.5503 22.7176C31.5503 19.0796 28.5878 16.1172 24.9499 16.1172C21.312 16.1172 18.3495 19.0856 18.3495 22.7235C18.3495 23.4049 18.4562 24.0626 18.6458 24.6847C18.9372 25.4619 19.1653 25.958 19.6768 26.6813ZM25.649 31.9665L26.3067 32.6123H26.3245V29.1758C25.8801 29.2707 25.4298 29.318 24.9617 29.318C24.4937 29.318 24.0374 29.2706 23.599 29.1758V32.6123L24.2567 31.9665C24.6418 31.5814 25.258 31.5814 25.649 31.9665ZM21.2646 25.4667C22.1 26.5924 23.439 27.3212 24.9499 27.3212C27.4858 27.3212 29.5477 25.2594 29.5536 22.7176C29.5536 20.1758 27.4858 18.1139 24.9499 18.1139C23.4331 18.1139 22.1 18.8486 21.2587 19.9743C21.8571 19.9743 22.5859 19.9743 23.2672 19.9684H23.2732C23.8242 19.9684 24.2685 20.4068 24.2745 20.9579C24.2863 21.5148 23.836 21.9591 23.285 21.9651C22.4021 21.9711 20.6246 21.977 20.4113 21.9711C20.3758 22.2139 20.3462 22.4628 20.3462 22.7176C20.3462 22.9724 20.3698 23.2212 20.4113 23.47C20.7668 23.47 21.2408 23.47 21.6792 23.4641C22.254 23.4581 22.6865 23.8966 22.6925 24.4476C22.6984 24.9987 22.26 25.4548 21.7089 25.4608C21.549 25.4667 21.4069 25.4667 21.2646 25.4667Z" fill="#FF6C0E"/>
</svg>
