<svg width="64" height="64" viewBox="0 0 64 64" fill="none" xmlns="http://www.w3.org/2000/svg">
<g clip-path="url(#clip0_2574_1919)">
<path d="M52.8559 12.0602H11.1232C10.1436 12.0602 9.34314 11.2702 9.34314 10.2801C9.34314 9.28992 10.1331 8.5 11.1232 8.5H52.8349C53.8144 8.5 54.6149 9.28992 54.6149 10.2801C54.6149 11.2702 53.8355 12.0602 52.8559 12.0602Z" fill="white"/>
<path d="M52.8559 18.5992H11.1232C10.1436 18.5992 9.34314 17.8093 9.34314 16.8191C9.34314 15.829 10.1331 15.0391 11.1232 15.0391H52.8349C53.8144 15.0391 54.6149 15.829 54.6149 16.8191C54.6149 17.7987 53.8355 18.5992 52.8559 18.5992Z" fill="white"/>
<path d="M52.8559 25.1422H11.1232C10.1436 25.1422 9.34314 24.3523 9.34314 23.3621C9.34314 22.3825 10.1331 21.582 11.1232 21.582H52.8349C53.8144 21.582 54.6149 22.3719 54.6149 23.3621C54.6149 24.3417 53.8355 25.1422 52.8559 25.1422Z" fill="white"/>
<path d="M29.0191 31.6812H11.1232C10.1436 31.6812 9.34314 30.8913 9.34314 29.9012C9.34314 28.9216 10.1331 28.1211 11.1232 28.1211H29.0191C29.9987 28.1211 30.7992 28.911 30.7992 29.9012C30.7888 30.8807 29.9987 31.6812 29.0191 31.6812Z" fill="white"/>
<path d="M28.3977 38.2125H11.1232C10.1436 38.2125 9.34314 37.4226 9.34314 36.4324C9.34314 35.4528 10.1331 34.6523 11.1232 34.6523H28.3977C29.3773 34.6523 30.1778 35.4423 30.1778 36.4324C30.1778 37.412 29.3879 38.2125 28.3977 38.2125Z" fill="white"/>
<path d="M62.1987 0.0195312H1.78008C0.800505 0.0195312 0 0.809446 0 1.79961V45.6495C0 46.629 0.789914 47.4295 1.78008 47.4295H34.9809C35.8973 48.6514 37.0559 49.6836 38.3726 50.4737V62.1973C38.3726 63.7667 40.2581 64.5672 41.3957 63.4717L44.345 60.5857L47.3049 63.4717C48.4215 64.5672 50.328 63.7773 50.328 62.1973V50.4737C51.6551 49.6942 52.7927 48.6514 53.7303 47.4295H62.2201C63.1996 47.4295 64.0001 46.6396 64.0001 45.6495V1.78918C63.9684 0.809446 63.1783 0.0195312 62.1987 0.0195312ZM46.7675 57.9735L45.5983 56.8254C44.9031 56.1408 43.8076 56.1408 43.123 56.8254L41.9538 57.9735V51.8642C42.7332 52.0326 43.5443 52.1171 44.3765 52.1171C45.2086 52.1171 46.0091 52.0328 46.7991 51.8642V57.9735H46.7675ZM44.3554 48.5672C41.6694 48.5672 39.2889 47.2715 37.8038 45.2703C38.0566 45.2703 38.3094 45.2703 38.5937 45.2597C39.5733 45.2491 40.3527 44.4382 40.3422 43.4585C40.3316 42.4789 39.5627 41.6994 38.5409 41.71C37.7614 41.7206 36.9187 41.7206 36.2868 41.7206C36.213 41.2782 36.171 40.8358 36.171 40.3829C36.171 39.9299 36.2236 39.4875 36.2868 39.0558C36.666 39.0664 39.826 39.0558 41.3955 39.0452C42.3751 39.0346 43.1756 38.2447 43.1546 37.2545C43.144 36.2749 42.3541 35.4954 41.3745 35.4954H41.3639C40.1527 35.506 38.857 35.506 37.7932 35.506C39.2889 33.5047 41.6588 32.1986 44.3554 32.1986C48.8637 32.1986 52.5397 35.8642 52.5397 40.3829C52.5293 44.9017 48.8637 48.5672 44.3554 48.5672ZM60.4186 43.8694H55.5628C55.8999 42.774 56.0894 41.6047 56.0894 40.3829C56.0894 33.9155 50.8229 28.6489 44.3554 28.6489C37.888 28.6489 32.6214 33.926 32.6214 40.3935C32.6214 41.6047 32.8111 42.774 33.148 43.88H3.56032V3.56926H60.4188L60.4186 43.8694Z" fill="white"/>
<path fill-rule="evenodd" clip-rule="evenodd" d="M34.9809 47.4291C35.8973 48.651 37.0559 49.6832 38.3726 50.4732V62.1968C38.3726 63.7662 40.2581 64.5667 41.3957 63.4713L44.345 60.5852L47.3049 63.4713C48.4215 64.5667 50.328 63.7768 50.328 62.1968V50.4732C51.6552 49.6938 52.7928 48.651 53.7303 47.4291C54.6023 46.0722 55.0047 45.2932 55.5629 43.8689C55.9 42.7735 56.0895 41.6043 56.0895 40.3824C56.0895 33.915 50.8229 28.6484 44.3555 28.6484C37.888 28.6484 32.6215 33.9256 32.6215 40.393C32.6215 41.6043 32.8111 42.7735 33.1481 43.8795C33.6662 45.2613 34.0717 46.1432 34.9809 47.4291ZM45.5983 56.825L46.7676 57.973H46.7992V51.8637C46.0091 52.0324 45.2086 52.1166 44.3765 52.1166C43.5444 52.1166 42.7333 52.0322 41.9538 51.8637V57.973L43.123 56.825C43.8077 56.1403 44.9031 56.1403 45.5983 56.825ZM37.8038 45.2699C39.289 47.2711 41.6695 48.5667 44.3555 48.5667C48.8637 48.5667 52.5293 44.9013 52.5397 40.3824C52.5397 35.8637 48.8637 32.1982 44.3555 32.1982C41.6589 32.1982 39.289 33.5043 37.7932 35.5056C38.857 35.5056 40.1527 35.5056 41.364 35.495H41.3745C42.3541 35.495 43.144 36.2745 43.1546 37.2541C43.1756 38.2442 42.3751 39.0341 41.3956 39.0447C39.826 39.0553 36.666 39.0659 36.2869 39.0553C36.2236 39.4871 36.171 39.9295 36.171 40.3824C36.171 40.8354 36.2131 41.2778 36.2869 41.7201C36.9187 41.7201 37.7614 41.7201 38.5409 41.7096C39.5627 41.699 40.3316 42.4785 40.3422 43.458C40.3528 44.4378 39.5733 45.2487 38.5937 45.2593C38.3094 45.2699 38.0567 45.2699 37.8038 45.2699Z" fill="#FF6C0E"/>
</g>
<defs>
<clipPath id="clip0_2574_1919">
<rect width="64" height="64" fill="white"/>
</clipPath>
</defs>
</svg>
