<svg width="32" height="32" viewBox="0 0 163 160" fill="currentColor" xmlns="http://www.w3.org/2000/svg">
<path d="M70.8875 160C70.6814 160 70.4753 160 70.2693 159.792C0 115.267 0 67.6203 0 1.45644C0 0.624187 0.618205 0 1.44248 0H140.539C141.363 0 141.981 0.624187 141.981 1.45644C141.981 23.0949 141.981 43.485 139.302 62.2107C139.302 62.6268 138.89 63.0429 138.684 63.251C138.272 63.459 137.86 63.459 137.448 63.251C134.15 61.5865 130.441 60.7542 126.938 60.7542C113.75 60.7542 102.828 71.5735 102.828 85.0975V94.4603C102.828 95.2926 102.21 95.9168 101.386 95.9168H92.9368V138.778C92.9368 140.234 93.1429 141.69 93.7611 142.939C93.9671 143.563 93.7611 144.187 93.3489 144.395C86.9608 149.805 79.7484 155.007 71.7118 160C71.2996 160 71.0936 160 70.8875 160ZM2.67889 2.70481C2.67889 66.9961 3.09102 113.81 70.8875 157.087C78.3059 152.51 84.9001 147.516 90.8761 142.731C90.464 141.274 90.2579 139.818 90.2579 138.361V94.2523C90.2579 93.42 90.8761 92.7958 91.7004 92.7958H100.149V84.6814C100.149 69.909 112.101 57.6333 126.938 57.6333C130.441 57.6333 133.944 58.2575 137.035 59.7139C139.302 42.0286 139.508 22.8869 139.508 2.49675H2.67889V2.70481Z" />
<path d="M70.8875 138.986C70.6814 138.986 70.4753 138.986 70.0632 138.777C18.5461 104.447 18.5461 67.8282 18.5461 16.8529C18.5461 16.0207 19.1643 15.3965 19.9886 15.3965H121.786C122.611 15.3965 123.229 16.0207 123.229 16.8529C123.229 32.2495 123.229 46.6058 121.786 60.1299C121.786 60.7541 121.374 61.1702 120.756 61.3783C110.04 64.0831 102.622 73.862 102.622 84.8893V94.2521C102.622 95.0844 102.004 95.7086 101.18 95.7086H92.7307V121.3C92.7307 121.716 92.5247 121.924 92.3186 122.341C86.5487 127.958 79.3363 133.576 71.5057 138.986C71.2996 138.986 71.0936 138.986 70.8875 138.986ZM21.225 18.3094C21.225 67.4121 21.6372 102.991 70.8875 136.073C78.3059 131.079 84.6941 126.086 90.2579 120.676V94.2521C90.2579 93.4199 90.8761 92.7957 91.7004 92.7957H100.149V84.6813C100.149 72.6136 107.98 62.2105 119.314 58.8815C120.756 46.1897 120.756 32.6657 120.756 18.1013H21.225V18.3094Z" />
<path d="M149.606 152.925H104.477C96.646 152.925 90.0518 146.475 90.0518 138.361V94.2514C90.0518 93.4191 90.67 92.7949 91.4943 92.7949H161.558C162.382 92.7949 163 93.4191 163 94.2514V139.401C163 146.891 157.024 152.925 149.606 152.925ZM92.9368 95.7078V138.569C92.9368 145.019 98.0885 150.428 104.683 150.428H149.606C155.582 150.428 160.321 145.643 160.321 139.609V95.7078H92.9368Z" />
<path d="M133.12 139.817H120.55C120.138 139.817 119.726 139.609 119.52 139.192C119.314 138.776 119.107 138.36 119.314 137.944L122.611 125.044C120.138 123.588 118.489 120.883 118.489 117.762C118.489 113.185 122.198 109.439 126.732 109.439C131.265 109.439 134.975 113.185 134.975 117.762C134.975 120.883 133.326 123.588 130.853 125.044L134.357 137.944C134.563 138.36 134.357 138.776 134.15 139.192C133.944 139.817 133.532 139.817 133.12 139.817ZM122.405 137.112H131.472L128.174 124.836C127.968 124.212 128.381 123.38 128.999 123.172C131.059 122.339 132.502 120.259 132.502 117.97C132.502 114.849 130.029 112.352 126.938 112.352C123.847 112.352 121.374 114.849 121.374 117.97C121.374 120.259 122.817 122.339 124.877 123.172C125.496 123.38 125.908 124.212 125.702 124.836L122.405 137.112Z" />
<path d="M151.872 95.7091H101.18C100.355 95.7091 99.737 95.085 99.737 94.2527V84.8899C99.737 70.1175 111.689 57.8418 126.526 57.8418C141.157 57.8418 153.315 69.9094 153.315 84.8899V94.2527C153.315 95.085 152.697 95.7091 151.872 95.7091ZM102.622 93.0043H150.636V84.8899C150.636 71.5739 139.92 60.5466 126.526 60.5466C113.338 60.5466 102.416 71.3659 102.416 84.8899V93.0043H102.622Z" />
</svg>
