<svg width="57" height="56" viewBox="0 0 57 56" fill="none" xmlns="http://www.w3.org/2000/svg">
<path d="M53.3887 0H28.4998C26.7887 0 25.3887 1.4 25.3887 3.11111V8.12C25.3887 8.12 25.3887 8.12 25.4198 8.15111L40.9753 22.1511C42.9353 23.8933 44.0553 26.4444 44.0553 29.0889V31.1111H50.2776V37.3333H44.0553V43.5556H50.2776V49.7778H44.0553V56H53.3887C55.0998 56 56.4998 54.6 56.4998 52.8889V3.11111C56.4998 1.4 55.0998 0 53.3887 0ZM37.8331 12.4444H31.6109V6.22222H37.8331V12.4444ZM50.2776 24.8889H44.0553V18.6667H50.2776V24.8889ZM50.2776 12.4444H44.0553V6.22222H50.2776V12.4444Z" fill="#FF6C0E"/>
<path fill-rule="evenodd" clip-rule="evenodd" d="M37.8333 29.0887V52.8886C37.8333 54.5998 36.4333 55.9998 34.7222 55.9998H28.5C26.7889 55.9998 25.3889 54.5998 25.3889 52.8886V40.4442H12.9444V52.8886C12.9444 54.5998 11.5444 55.9998 9.83333 55.9998H3.61111C1.9 55.9998 0.5 54.5998 0.5 52.8886V29.0887C0.5 28.1864 0.873333 27.3464 1.52667 26.7864L17.0822 12.7864C17.6733 12.2575 18.42 11.9775 19.1667 11.9775C19.9133 11.9775 20.66 12.2264 21.2511 12.7864L36.8067 26.7864C37.46 27.3775 37.8333 28.2175 37.8333 29.0887ZM19.1666 24.8888C15.7443 24.8888 12.9443 27.6888 12.9443 31.111H25.3888C25.3888 27.6888 22.5888 24.8888 19.1666 24.8888Z" fill="#064DD6"/>
</svg>
