<svg width="56" height="56" viewBox="0 0 56 56" fill="none" xmlns="http://www.w3.org/2000/svg">
<path fill-rule="evenodd" clip-rule="evenodd" d="M40.1671 12.7062L30.0324 3.57589C28.8758 2.54111 27.1106 2.54111 25.9541 3.57589L0.51085 26.4931C-0.523925 27.4061 0.115201 29.1409 1.51519 29.1409H6.68906V50.4451C6.68906 52.119 8.05862 53.4885 9.73252 53.4885H18.8629C20.5368 53.4885 21.9063 52.119 21.9063 50.4451V35.2278H34.0801V50.4451C34.0801 52.119 35.4497 53.4885 37.1236 53.4885H46.254C47.9279 53.4885 49.2974 52.119 49.2974 50.4451V29.1409H54.4713C55.8713 29.1409 56.5408 27.4061 55.4756 26.4931L49.2974 20.9236L40.1671 12.7062ZM27.9932 16.9671C24.6454 16.9671 21.9063 19.7062 21.9063 23.054H34.0801C34.0801 19.7062 31.341 16.9671 27.9932 16.9671Z" fill="#064DD6"/>
<path fill-rule="evenodd" clip-rule="evenodd" d="M40.1671 12.7062L30.0324 3.57589C28.8758 2.54111 27.1106 2.54111 25.9541 3.57589L0.51085 26.4931C-0.523925 27.4061 0.115201 29.1409 1.51519 29.1409H6.68906V50.4451C6.68906 52.119 8.05862 53.4885 9.73252 53.4885H18.8629C20.5368 53.4885 21.9063 52.119 21.9063 50.4451V35.2278H34.0801V50.4451C34.0801 52.119 35.4497 53.4885 37.1236 53.4885H46.254C47.9279 53.4885 49.2974 52.119 49.2974 50.4451V29.1409H54.4713C55.8713 29.1409 56.5408 27.4061 55.4756 26.4931L49.2974 20.9236L40.1671 12.7062ZM27.9932 16.9671C24.6454 16.9671 21.9063 19.7062 21.9063 23.054H34.0801C34.0801 19.7062 31.341 16.9671 27.9932 16.9671Z" fill="#064DD6"/>
<path d="M48.6953 5.84326V15.8867L39.5649 7.66933V5.84326C39.5649 4.16936 40.9345 2.7998 42.6084 2.7998H45.6519C47.3258 2.7998 48.6953 4.16936 48.6953 5.84326Z" fill="#FF6C0E"/>
<path d="M48.6953 5.84326V15.8867L39.5649 7.66933V5.84326C39.5649 4.16936 40.9345 2.7998 42.6084 2.7998H45.6519C47.3258 2.7998 48.6953 4.16936 48.6953 5.84326Z" fill="#FF6C0E"/>
</svg>
