<svg width="57" height="56" viewBox="0 0 57 56" fill="none" xmlns="http://www.w3.org/2000/svg">
<path d="M28.5 27.753C42.6167 27.7273 28.5 27.7273 43.9 27.7273V14.3772L28.5 7.70215V27.753Z" fill="#FF6C0E"/>
<path fill-rule="evenodd" clip-rule="evenodd" d="M8.45409 8.4272L26.4208 0.442828C27.7298 -0.147609 29.27 -0.147609 30.5791 0.442828L48.5457 8.4272C50.3936 9.24877 51.5999 11.0973 51.5999 13.1255V25.192C51.5999 39.4407 41.744 52.7651 28.4999 56C15.2558 52.7651 5.3999 39.4407 5.3999 25.192V13.1255C5.3999 11.0973 6.60616 9.24877 8.45409 8.4272ZM10.5332 13.119L28.4999 5.13467L46.4666 13.119V27.7336C46.1263 30.378 45.4304 32.9501 44.4282 35.367C41.4216 42.6177 35.661 48.4713 28.4999 50.6856V27.7593H10.5332V13.119Z" fill="#064DD6"/>
</svg>
