<svg width="48" height="48" viewBox="0 0 48 48" fill="none" xmlns="http://www.w3.org/2000/svg">
<path d="M46.4468 7.21509H1.55325C0.69675 7.21509 0 7.91184 0 8.76834V39.2318C0 40.0883 0.69675 40.7851 1.55325 40.7851H46.4468C47.3033 40.7851 48 40.0883 48 39.2318V8.76834C48 7.91184 47.3033 7.21509 46.4468 7.21509ZM46.4969 32.8686H44.0417C43.6267 32.8686 43.2901 33.205 43.2901 33.6202C43.2901 34.0353 43.6266 34.3718 44.0417 34.3718H46.4969V36.0753H34.4218C34.0068 36.0753 33.6702 36.4117 33.6702 36.8269C33.6702 37.2419 34.0067 37.5785 34.4218 37.5785H46.4969V39.2319C46.4969 39.2596 46.4745 39.282 46.4468 39.282H1.55325C1.52559 39.282 1.50319 39.2596 1.50319 39.2319V37.5785H31.215C31.63 37.5785 31.9666 37.242 31.9666 36.8269C31.9666 36.4118 31.6301 36.0753 31.215 36.0753H1.50309V34.3717H40.8352C41.2503 34.3717 41.5868 34.0352 41.5868 33.6201C41.5868 33.2049 41.2504 32.8685 40.8352 32.8685H1.50309V31.1624C1.51988 31.1629 1.53628 31.1649 1.55316 31.1649H46.4467C46.4636 31.1649 46.48 31.163 46.4967 31.1624V32.8686H46.4969ZM46.4969 29.6118C46.4969 29.6394 46.4745 29.6618 46.4468 29.6618H1.55325C1.52559 29.6618 1.50319 29.6394 1.50319 29.6118V8.76834C1.50319 8.74068 1.52559 8.71828 1.55325 8.71828H46.4468C46.4744 8.71828 46.4968 8.74068 46.4968 8.76834V29.6118H46.4969Z" fill="#064DD6"/>
<path d="M44.0419 13.6284C42.6881 13.6284 41.5868 12.527 41.5868 11.1732C41.5868 10.7582 41.2503 10.4216 40.8352 10.4216H32.0165C31.6015 10.4216 31.2649 10.7581 31.2649 11.1732C31.2649 11.5883 31.6013 11.9248 32.0165 11.9248H40.1552C40.4603 13.506 41.7091 14.7549 43.2903 15.0599V23.3199C41.7091 23.625 40.4602 24.8739 40.1552 26.455H32.0165C31.6015 26.455 31.2649 26.7915 31.2649 27.2066C31.2649 27.6218 31.6014 27.9582 32.0165 27.9582H40.8352C41.2502 27.9582 41.5868 27.6218 41.5868 27.2066C41.5868 25.8529 42.6881 24.7515 44.0419 24.7515C44.4569 24.7515 44.7935 24.415 44.7935 23.9999V14.3799C44.7934 13.9649 44.4569 13.6284 44.0419 13.6284Z" fill="#064DD6"/>
<path d="M15.9831 26.455H7.84482C7.53976 24.874 6.29073 23.6251 4.70973 23.3199V15.0599C6.29073 14.7547 7.53986 13.5059 7.84482 11.9248H15.9831C16.3981 11.9248 16.7347 11.5883 16.7347 11.1732C16.7347 10.7581 16.3982 10.4216 15.9831 10.4216H7.16486C6.74982 10.4216 6.41326 10.7581 6.41326 11.1732C6.41326 12.527 5.31189 13.6283 3.95814 13.6283C3.54311 13.6283 3.20654 13.9648 3.20654 14.3799V23.9999C3.20654 24.4149 3.54301 24.7515 3.95814 24.7515C5.31189 24.7515 6.41326 25.8529 6.41326 27.2066C6.41326 27.6217 6.74973 27.9582 7.16486 27.9582H15.9832C16.3982 27.9582 16.7348 27.6218 16.7348 27.2066C16.7348 26.7915 16.3982 26.455 15.9831 26.455Z" fill="#064DD6"/>
<path d="M23.9999 10.4216C19.1651 10.4216 15.2317 14.3551 15.2317 19.1899C15.2317 24.0247 19.1651 27.9581 23.9999 27.9581C28.8348 27.9581 32.7682 24.0248 32.7682 19.1899C32.7682 14.355 28.8348 10.4216 23.9999 10.4216ZM23.9999 26.455C19.9939 26.455 16.7348 23.1959 16.7348 19.1899C16.7348 15.1838 19.9939 11.9247 23.9999 11.9247C28.006 11.9247 31.2651 15.1838 31.2651 19.1899C31.2651 23.1959 28.006 26.455 23.9999 26.455Z" fill="#FF6C0E"/>
<path d="M25.4524 18.5017H24.8239V16.4712H26.4193C26.8198 16.4712 27.1445 16.1466 27.1445 15.746C27.1445 15.3455 26.8199 15.0208 26.4193 15.0208H24.8239V14.1989C24.8239 13.7984 24.4992 13.4736 24.0986 13.4736C23.6981 13.4736 23.3734 13.7983 23.3734 14.1989V15.0208H22.7449C21.8119 15.0208 21.0527 15.7799 21.0527 16.7129V18.26C21.0527 19.193 21.8119 19.9521 22.7449 19.9521H23.3734V21.9827H21.778C21.3776 21.9827 21.0528 22.3074 21.0528 22.7079C21.0528 23.1085 21.3775 23.4332 21.778 23.4332H23.3735V24.2551C23.3735 24.6556 23.6982 24.9803 24.0987 24.9803C24.4993 24.9803 24.8239 24.6556 24.8239 24.2551V23.4332H25.4525C26.3855 23.4332 27.1446 22.674 27.1446 21.741V20.1939C27.1445 19.2608 26.3854 18.5017 25.4524 18.5017ZM23.3735 18.5017H22.745C22.6117 18.5017 22.5033 18.3932 22.5033 18.26V16.7129C22.5033 16.5797 22.6117 16.4712 22.745 16.4712H23.3735V18.5017ZM25.6941 21.7409C25.6941 21.8742 25.5856 21.9826 25.4524 21.9826H24.8239V19.9521H25.4524C25.5856 19.9521 25.6941 20.0606 25.6941 20.1939V21.7409Z" fill="#FF6C0E"/>
</svg>
