<svg width="25" height="24" viewBox="0 0 25 24" fill="none" xmlns="http://www.w3.org/2000/svg">
<path d="M12.4505 5L11.7536 4.28281L12.4505 3.60567L13.1473 4.28281L12.4505 5ZM13.4505 14C13.4505 14.5523 13.0027 15 12.4505 15C11.8982 15 11.4505 14.5523 11.4505 14L13.4505 14ZM6.60781 9.28281L11.7536 4.28281L13.1473 5.71719L8.00156 10.7172L6.60781 9.28281ZM13.1473 4.28281L18.2931 9.28281L16.8994 10.7172L11.7536 5.71719L13.1473 4.28281ZM13.4505 5L13.4505 14L11.4505 14L11.4505 5L13.4505 5Z" fill="#33363F"/>
<path d="M5.24609 16L5.24609 17C5.24609 18.1046 6.16763 19 7.3044 19L17.5959 19C18.7327 19 19.6543 18.1046 19.6543 17V16" stroke="#33363F" stroke-width="2"/>
</svg>
