<svg width="20" height="20" viewBox="0 0 20 20" fill="none" xmlns="http://www.w3.org/2000/svg">
<path d="M10 4.91683C10.9667 4.91683 11.75 5.70016 11.75 6.66683C11.75 7.6335 10.9667 8.41683 10 8.41683C9.03337 8.41683 8.25004 7.6335 8.25004 6.66683C8.25004 5.70016 9.03337 4.91683 10 4.91683ZM10 12.4168C12.475 12.4168 15.0834 13.6335 15.0834 14.1668V15.0835H4.91671V14.1668C4.91671 13.6335 7.52504 12.4168 10 12.4168ZM10 3.3335C8.15837 3.3335 6.66671 4.82516 6.66671 6.66683C6.66671 8.5085 8.15837 10.0002 10 10.0002C11.8417 10.0002 13.3334 8.5085 13.3334 6.66683C13.3334 4.82516 11.8417 3.3335 10 3.3335ZM10 10.8335C7.77504 10.8335 3.33337 11.9502 3.33337 14.1668V16.6668H16.6667V14.1668C16.6667 11.9502 12.225 10.8335 10 10.8335Z" fill="#777777"/>
</svg>
