<svg width="48" height="48" viewBox="0 0 48 48" fill="none" xmlns="http://www.w3.org/2000/svg">
<path d="M36.2802 43.24C34.5202 43.76 32.4402 44 30.0002 44H18.0002C15.5602 44 13.4802 43.76 11.7202 43.24C12.1602 38.04 17.5002 33.9399 24.0002 33.9399C30.5002 33.9399 35.8402 38.04 36.2802 43.24Z" stroke="#FF6C0E" stroke-width="2.5" stroke-linecap="round" stroke-linejoin="round"/>
<path d="M30 44H18C8 44 4 40 4 30V18C4 8 8 4 18 4H30C40 4 44 8 44 18V30C44 40 40 44 30 44Z" stroke="#064DD6" stroke-width="2.5" stroke-linecap="round" stroke-linejoin="round"/>
<path d="M31.1599 21.16C31.1599 25.12 27.9598 28.34 23.9998 28.34C20.0398 28.34 16.8398 25.12 16.8398 21.16C16.8398 17.2 20.0398 14 23.9998 14C27.9598 14 31.1599 17.2 31.1599 21.16Z" stroke="#FF6C0E" stroke-width="2.5" stroke-linecap="round" stroke-linejoin="round"/>
</svg>
