
<svg width="43" height="42" viewBox="0 0 43 42" fill="none" xmlns="http://www.w3.org/2000/svg">
<path d="M39 21C39 11.3575 31.1425 3.5 21.5 3.5C11.8575 3.5 4 11.3575 4 21C4 26.075 6.1875 30.6425 9.6525 33.845C9.6525 33.8625 9.6525 33.8625 9.635 33.88C9.81 34.055 10.02 34.195 10.195 34.3525C10.3 34.44 10.3875 34.5275 10.4925 34.5975C10.8075 34.86 11.1575 35.105 11.49 35.35C11.6125 35.4375 11.7175 35.5075 11.84 35.595C12.1725 35.8225 12.5225 36.0325 12.89 36.225C13.0125 36.295 13.1525 36.3825 13.275 36.4525C13.625 36.645 13.9925 36.82 14.3775 36.9775C14.5175 37.0475 14.6575 37.1175 14.7975 37.17C15.1825 37.3275 15.5675 37.4675 15.9525 37.59C16.0925 37.6425 16.2325 37.695 16.3725 37.73C16.7925 37.8525 17.2125 37.9575 17.6325 38.0625C17.755 38.0975 17.8775 38.1325 18.0175 38.15C18.5075 38.255 18.9975 38.325 19.505 38.3775C19.575 38.3775 19.645 38.395 19.715 38.4125C20.31 38.465 20.905 38.5 21.5 38.5C22.095 38.5 22.69 38.465 23.2675 38.4125C23.3375 38.4125 23.4075 38.395 23.4775 38.3775C23.985 38.325 24.475 38.255 24.965 38.15C25.0875 38.1325 25.21 38.08 25.35 38.0625C25.77 37.9575 26.2075 37.87 26.61 37.73C26.75 37.6775 26.89 37.625 27.03 37.59C27.415 37.45 27.8175 37.3275 28.185 37.17C28.325 37.1175 28.465 37.0475 28.605 36.9775C28.9725 36.82 29.34 36.645 29.7075 36.4525C29.8475 36.3825 29.97 36.295 30.0925 36.225C30.4425 36.015 30.7925 35.8225 31.1425 35.595C31.265 35.525 31.37 35.4375 31.4925 35.35C31.8425 35.105 32.175 34.86 32.49 34.5975C32.595 34.51 32.6825 34.4225 32.7875 34.3525C32.98 34.195 33.1725 34.0375 33.3475 33.88C33.3475 33.8625 33.3475 33.8625 33.33 33.845C36.8125 30.6425 39 26.075 39 21ZM30.145 29.6975C25.4025 26.5125 17.6325 26.5125 12.855 29.6975C12.085 30.205 11.455 30.8 10.93 31.4475C8.27 28.7525 6.625 25.06 6.625 21C6.625 12.7925 13.2925 6.125 21.5 6.125C29.7075 6.125 36.375 12.7925 36.375 21C36.375 25.06 34.73 28.7525 32.07 31.4475C31.5625 30.8 30.915 30.205 30.145 29.6975Z" fill="white"/>
<path d="M21.5 12.1275C17.8775 12.1275 14.9375 15.0675 14.9375 18.69C14.9375 22.2425 17.72 25.13 21.4125 25.235C21.465 25.235 21.535 25.235 21.57 25.235C21.605 25.235 21.6575 25.235 21.6925 25.235C21.71 25.235 21.7275 25.235 21.7275 25.235C25.2625 25.1125 28.045 22.2425 28.0625 18.69C28.0625 15.0675 25.1225 12.1275 21.5 12.1275Z" fill="white"/>
</svg>
