<svg height="442pt" viewBox="-27 0 442 442" width="442pt" xmlns="http://www.w3.org/2000/svg">
  <path fill="current"
      d="m388 48c0-26.507812-21.492188-48-48-48h-292c-26.507812 0-48 21.492188-48 48v346c0 26.507812 21.492188 48 48 48h292c26.507812 0 48-21.492188 48-48zm-372 346.058594v-346.117188c.027344-17.652344 14.351562-31.949218 32.007812-31.941406h11.992188v410h-11.992188c-17.65625.007812-31.980468-14.289062-32.007812-31.941406zm356 0c-.027344 17.652344-14.351562 31.949218-32.007812 31.941406h-263.992188v-410h263.992188c17.65625-.007812 31.980468 14.289062 32.007812 31.941406zm0 0"/>
  <path  fill="current"
      d="m329 66c0-4.417969-3.582031-8-8-8h-204c-4.417969 0-8 3.582031-8 8v249c0 4.417969 3.582031 8 8 8h204c4.417969 0 8-3.582031 8-8zm-204 8h188v232h-188zm0 0"/>
  <path  fill="current"
      d="m320.988281 367h-203.976562c-4.421875 0-8 3.582031-8 8s3.578125 8 8 8h203.976562c4.421875 0 8-3.582031 8-8s-3.578125-8-8-8zm0 0"/>
  <path  fill="current"
      d="m265.90625 182.019531-84-47c-2.476562-1.386719-5.503906-1.355469-7.953125.078125-2.449219 1.4375-3.953125 4.0625-3.953125 6.902344v94c0 2.839844 1.503906 5.464844 3.953125 6.902344 2.449219 1.433594 5.476563 1.464844 7.953125.078125l84-47c2.527344-1.414063 4.09375-4.085938 4.09375-6.980469s-1.566406-5.566406-4.09375-6.980469zm-79.90625 40.335938v-66.710938l59.617188 33.355469zm0 0"/>
</svg>