<svg width="32" height="32" viewBox="0 0 142 160" fill="currentColor" xmlns="http://www.w3.org/2000/svg">
<g clip-path="url(#clip0_1214:3254)">
<path d="M57.5291 22.251C57.3266 22.251 56.9214 22.0487 56.7189 22.0487C56.3137 21.8464 56.3137 21.4419 56.3137 21.0373V15.3736C56.3137 14.9691 56.5163 14.5645 56.9214 14.3622C56.9214 14.16 57.5291 13.9577 57.9343 14.16C58.542 14.3622 59.1497 14.3622 59.5548 14.3622H82.6475C83.0527 14.3622 83.6604 14.3622 84.2681 14.16C84.6732 13.9577 85.0784 14.16 85.4835 14.3622C85.8886 14.5645 86.0912 14.9691 86.0912 15.3736V20.8351C86.0912 21.2396 85.8886 21.6442 85.6861 21.8464C85.4835 22.0487 85.0784 22.251 84.6732 22.0487C75.9628 20.2282 66.6447 20.2282 58.1368 22.0487C57.7317 22.251 57.5291 22.251 57.5291 22.251ZM71.1012 18.2055C75.1525 18.2055 79.4065 18.61 83.2552 19.2168V16.9918C83.0527 16.9918 82.8501 16.9918 82.6475 16.9918H59.5548C59.3522 16.9918 59.1497 16.9918 58.7445 16.9918V19.2168C62.7959 18.61 66.8472 18.2055 71.1012 18.2055Z" />
<path d="M17.8263 45.309C17.4211 45.309 17.2186 45.1067 16.8134 44.9044L12.5595 40.6567C11.5467 39.6453 10.939 38.2294 10.939 36.6111C10.939 35.1952 11.5467 33.7793 12.5595 32.7679L17.4211 28.3178C19.6494 26.2951 23.093 26.2951 25.3213 28.3178L29.9803 32.9702C30.1829 33.1725 30.3855 33.577 30.3855 33.9816C30.3855 34.3861 30.1829 34.7907 29.7778 34.9929C25.929 38.0271 22.2828 41.4658 19.0417 45.1067C18.6365 45.1067 18.2314 45.309 17.8263 45.309ZM21.2699 29.127C20.4596 29.127 19.6494 29.5315 19.2442 29.9361L14.5852 34.5884C13.9775 35.1952 13.7749 35.802 13.7749 36.6111C13.7749 37.4203 14.18 38.2294 14.5852 38.6339L17.8263 41.8703C20.6622 38.8362 23.7007 35.802 26.9418 33.3747L23.4982 29.9361C22.8905 29.5315 22.0802 29.127 21.2699 29.127Z" />
<path d="M71.1013 160C31.8031 160 0 128.243 0 89.2038C0 49.9623 31.8031 18.2051 71.1013 18.2051C110.197 18.2051 142.203 49.9623 142.203 89.2038C142 128.243 110.197 160 71.1013 160ZM71.1013 20.8347C33.4237 20.8347 2.63338 51.5806 2.63338 89.2038C2.63338 126.827 33.2211 157.573 71.1013 157.573C108.779 157.573 139.569 127.029 139.569 89.2038C139.367 51.5806 108.779 20.8347 71.1013 20.8347Z" />
<path d="M71.1013 150.089C37.4751 150.089 10.1284 122.782 10.1284 89.2044C10.1284 55.6267 37.4751 28.1172 71.1013 28.1172C104.728 28.1172 132.074 55.4244 132.074 89.2044C132.074 122.782 104.728 150.089 71.1013 150.089ZM71.1013 30.7468C38.893 30.7468 12.7618 56.8403 12.7618 89.2044C12.7618 121.366 38.893 147.46 71.1013 147.46C103.31 147.46 129.441 121.366 129.441 89.2044C129.441 57.0426 103.31 30.7468 71.1013 30.7468Z" />
<path d="M65.4295 86.5743C65.2269 86.5743 65.0244 86.5743 65.0244 86.5743C64.4167 86.372 64.2141 85.7652 64.2141 85.1583L68.6706 52.7942C68.8732 51.5806 69.886 50.7715 71.1014 50.7715C72.3168 50.7715 73.1271 51.5806 73.3297 52.7942L77.7861 85.1583C77.7861 85.7652 77.5836 86.372 76.9759 86.5743C76.3682 86.7766 75.7605 86.5743 75.3553 86.1697C74.3425 84.7538 72.722 83.9447 70.8988 83.9447C69.0757 83.9447 67.4552 84.7538 66.4424 86.1697C66.2398 86.372 65.8346 86.5743 65.4295 86.5743ZM71.1014 81.1128C72.5194 81.1128 73.7348 81.5174 74.9502 82.1242L71.1014 55.2215L67.2526 82.1242C68.468 81.3151 69.6834 81.1128 71.1014 81.1128Z" />
<path d="M71.1012 97.2953C66.6448 97.2953 62.9985 93.6544 62.9985 89.2043C62.9985 84.7542 66.6448 81.1133 71.1012 81.1133C75.5577 81.1133 79.2039 84.7542 79.2039 89.2043C79.2039 93.6544 75.5577 97.2953 71.1012 97.2953ZM71.1012 83.7429C68.0627 83.7429 65.6319 86.1702 65.6319 89.2043C65.6319 92.2384 68.0627 94.6657 71.1012 94.6657C74.1398 94.6657 76.5706 92.2384 76.5706 89.2043C76.5706 86.1702 74.1398 83.7429 71.1012 83.7429Z" />
<path d="M82.6476 16.9911H59.5549C55.0984 16.9911 51.6548 13.3502 51.6548 9.1024V7.88875C51.6548 3.43869 55.301 0 59.5549 0H82.6476C87.1041 0 90.5478 3.64096 90.5478 7.88875V9.1024C90.5478 13.5525 86.9016 16.9911 82.6476 16.9911ZM59.5549 2.62958C56.719 2.62958 54.2882 5.05689 54.2882 7.88875V9.1024C54.2882 11.9343 56.719 14.3616 59.5549 14.3616H82.6476C85.4836 14.3616 87.9144 11.9343 87.9144 9.1024V7.88875C87.9144 5.05689 85.4836 2.62958 82.6476 2.62958H59.5549Z" />
<path d="M71.1016 41.0615C70.2913 41.0615 69.6836 40.4546 69.6836 39.6455V34.7909C69.6836 33.9818 70.2913 33.375 71.1016 33.375C71.9118 33.375 72.5195 33.9818 72.5195 34.7909V39.6455C72.317 40.4546 71.7093 41.0615 71.1016 41.0615Z" />
<path d="M95.8148 47.7371C95.6122 47.7371 95.4097 47.7371 95.2071 47.5349C94.5994 47.1303 94.3968 46.3212 94.802 45.7144L97.2328 41.4666C97.6379 40.8598 98.4482 40.6575 99.0559 41.062C99.6636 41.4666 99.8662 42.2757 99.461 42.8825L97.0302 47.1303C96.6251 47.3326 96.2199 47.7371 95.8148 47.7371Z" />
<path d="M113.843 65.7389C113.438 65.7389 113.033 65.5366 112.628 65.1321C112.223 64.5253 112.425 63.7162 113.033 63.3116L117.287 60.8843C117.895 60.4797 118.705 60.682 119.11 61.2888C119.515 61.8957 119.312 62.7048 118.705 63.1093L114.451 65.5366C114.248 65.7389 114.046 65.7389 113.843 65.7389Z" />
<path d="M125.389 90.4178H120.528C119.717 90.4178 119.11 89.811 119.11 89.0019C119.11 88.1928 119.717 87.5859 120.528 87.5859H125.389C126.2 87.5859 126.807 88.1928 126.807 89.0019C126.605 89.811 125.997 90.4178 125.389 90.4178Z" />
<path d="M118.097 117.522C117.894 117.522 117.692 117.522 117.489 117.32L113.235 114.893C112.628 114.488 112.425 113.679 112.83 113.072C113.235 112.465 114.046 112.263 114.653 112.668L118.907 115.095C119.515 115.499 119.717 116.308 119.312 116.915C118.907 117.32 118.502 117.522 118.097 117.522Z" />
<path d="M98.2453 137.345C97.8402 137.345 97.435 137.143 97.0299 136.739L94.5991 132.693C94.1939 132.086 94.3965 131.277 95.0042 130.873C95.6119 130.468 96.4222 130.67 96.8273 131.277L99.2581 135.323C99.6633 135.929 99.4607 136.739 98.853 137.143C98.6504 137.345 98.4479 137.345 98.2453 137.345Z" />
<path d="M71.1016 144.628C70.2913 144.628 69.6836 144.021 69.6836 143.212V138.357C69.6836 137.548 70.2913 136.941 71.1016 136.941C71.9118 136.941 72.5195 137.548 72.5195 138.357V143.212C72.317 144.021 71.7093 144.628 71.1016 144.628Z" />
<path d="M43.957 137.345C43.7544 137.345 43.5519 137.345 43.3493 137.143C42.7416 136.739 42.539 135.929 42.9442 135.323L45.375 131.277C45.7801 130.67 46.5904 130.468 47.1981 130.873C47.8058 131.277 48.0084 132.086 47.6032 132.693L45.1724 136.739C44.7673 137.143 44.3621 137.345 43.957 137.345Z" />
<path d="M24.1056 117.522C23.7005 117.522 23.2954 117.32 22.8902 116.915C22.4851 116.308 22.6877 115.499 23.2954 115.095L27.5493 112.668C28.157 112.263 28.9672 112.465 29.3724 113.072C29.7775 113.679 29.575 114.488 28.9672 114.893L24.7133 117.32C24.5108 117.522 24.3082 117.522 24.1056 117.522Z" />
<path d="M21.4721 90.4178H16.813C16.0027 90.4178 15.395 89.811 15.395 89.0019C15.395 88.1928 16.0027 87.5859 16.813 87.5859H21.6746C22.4849 87.5859 23.0926 88.1928 23.0926 89.0019C22.89 89.811 22.2823 90.4178 21.4721 90.4178Z" />
<path d="M28.157 65.7389C27.9544 65.7389 27.7518 65.7389 27.5493 65.5366L23.2954 63.1093C22.6877 62.7048 22.4851 61.8957 22.8902 61.2888C23.2954 60.682 24.1056 60.4797 24.7133 60.8843L28.9672 63.3116C29.575 63.7162 29.7775 64.5253 29.3724 65.1321C29.1698 65.5366 28.5621 65.7389 28.157 65.7389Z" />
<path d="M46.3882 47.7371C45.9831 47.7371 45.578 47.5349 45.1728 47.1303L42.742 42.8825C42.3369 42.2757 42.5395 41.4666 43.1472 41.062C43.7549 40.6575 44.5651 40.8598 44.9703 41.4666L47.4011 45.7144C47.8062 46.3212 47.6037 47.1303 46.9959 47.5349C46.7934 47.5349 46.5908 47.7371 46.3882 47.7371Z" />
</g>
<defs>
<clipPath id="clip0_1214:3254">
<rect width="142" height="160" fill="currentColor"/>
</clipPath>
</defs>
</svg>
