<svg xmlns="http://www.w3.org/2000/svg" width="80" height="80" viewBox="0 0 80 80" fill="none">
  <path d="M80 46.25C80 44.4989 79.1647 41.2205 73.5709 38.9372C73.0088 38.7078 72.4147 38.4975 71.7966 38.3042C71.848 37.5164 71.875 36.7259 71.875 35.9375C71.875 26.3383 68.1369 17.3136 61.3492 10.5258C54.5614 3.73812 45.5367 0 35.9375 0C26.3383 0 17.3136 3.73812 10.5258 10.5258C3.73812 17.3136 0 26.3383 0 35.9375C0 45.5367 3.73812 54.5614 10.5258 61.3492C17.3136 68.1369 26.3383 71.875 35.9375 71.875C38.3716 71.875 40.7864 71.6311 43.1498 71.1495C43.3209 72.9755 44.4789 75.8661 49.5541 77.9377C52.8123 79.2675 57.0769 80 61.5625 80C66.0481 80 70.3127 79.2677 73.5709 77.9377C79.1647 75.6545 80 72.3761 80 70.625V46.7188H79.9795C79.9934 46.5531 80 46.3958 80 46.25ZM73.6866 46.2486C73.6806 46.2567 73.6755 46.2645 73.6692 46.2728C73.6575 46.2881 73.6447 46.3038 73.6314 46.3195C73.6162 46.3377 73.6002 46.3559 73.583 46.3747C73.568 46.3909 73.5522 46.4075 73.5356 46.4242C73.5167 46.4434 73.4966 46.463 73.4755 46.4828C73.4572 46.5 73.4386 46.5172 73.4189 46.5347C73.3959 46.555 73.3717 46.5756 73.3467 46.5964C73.3255 46.6142 73.3039 46.632 73.2811 46.6502C73.2542 46.6716 73.2256 46.6933 73.1967 46.715C73.1723 46.7334 73.1481 46.7517 73.1223 46.7703C73.0912 46.7927 73.0584 46.8155 73.0253 46.8381C72.9981 46.8567 72.9714 46.8753 72.9428 46.8942C72.9073 46.9175 72.8697 46.9412 72.8322 46.965C72.8025 46.9837 72.7734 47.0025 72.7423 47.0214C72.7022 47.0458 72.6597 47.0705 72.6175 47.0952C72.5853 47.1139 72.5542 47.1325 72.5209 47.1513C72.4756 47.1767 72.4277 47.2025 72.3802 47.2283C72.3466 47.2466 72.3139 47.2647 72.2791 47.283C72.2266 47.3106 72.1711 47.3383 72.1159 47.3659C72.0827 47.3827 72.0509 47.3992 72.0167 47.4159C71.9478 47.4497 71.8755 47.4836 71.8025 47.5173C71.7794 47.5281 71.7578 47.5387 71.7344 47.5495C71.6363 47.5942 71.5348 47.6391 71.43 47.6836C71.41 47.692 71.3884 47.7005 71.3681 47.7091C71.2827 47.745 71.1961 47.7809 71.1061 47.8166C71.0672 47.832 71.0261 47.8472 70.9866 47.8625C70.9127 47.8911 70.8391 47.9198 70.7623 47.9481C70.7152 47.9656 70.6655 47.9828 70.6172 48.0002C70.5447 48.0261 70.4725 48.0522 70.3975 48.078C70.3453 48.0959 70.2909 48.1136 70.2375 48.1314C70.1634 48.1561 70.0895 48.1808 70.0131 48.2052C69.9564 48.2233 69.8975 48.2411 69.8394 48.2591C69.7633 48.2827 69.6872 48.3061 69.6089 48.3292C69.5477 48.3473 69.4847 48.365 69.4222 48.3828C69.3436 48.4052 69.265 48.4275 69.1844 48.4494C69.1192 48.4672 69.0525 48.4845 68.9861 48.5019C68.9048 48.5231 68.8233 48.5444 68.74 48.5652C68.6712 48.5823 68.6011 48.5992 68.5311 48.6159C68.4467 48.6362 68.3617 48.6562 68.2753 48.6759C68.2031 48.6923 68.1298 48.7086 68.0564 48.7245C67.9689 48.7436 67.8806 48.7623 67.7913 48.7808C67.7156 48.7964 67.6394 48.8117 67.5623 48.8269C67.4716 48.8447 67.3797 48.8622 67.2869 48.8794C67.2083 48.8939 67.1292 48.9083 67.0492 48.9223C66.9548 48.9389 66.8591 48.955 66.7627 48.9709C66.6811 48.9844 66.5992 48.9978 66.5163 49.0106C66.4183 49.0258 66.3186 49.0405 66.2186 49.0548C66.1344 49.067 66.0502 49.0792 65.9645 49.0908C65.8622 49.1045 65.758 49.1177 65.6536 49.1306C65.567 49.1414 65.4808 49.1522 65.393 49.1623C65.2864 49.1747 65.1778 49.1859 65.0692 49.1973C64.9805 49.2066 64.8922 49.2161 64.802 49.2247C64.6905 49.2353 64.5766 49.2448 64.463 49.2545C64.373 49.2622 64.2838 49.2702 64.1925 49.2772C64.0739 49.2862 63.953 49.2939 63.8323 49.3017C63.743 49.3075 63.6544 49.3139 63.5638 49.3191C63.4355 49.3264 63.3045 49.332 63.1741 49.338C63.088 49.3419 63.003 49.3466 62.9158 49.3498C62.7697 49.3553 62.6206 49.3589 62.4719 49.3627C62.3972 49.3645 62.3241 49.3673 62.2486 49.3687C62.0231 49.373 61.7947 49.3753 61.5628 49.3753C61.3309 49.3753 61.1025 49.373 60.877 49.3687C60.8017 49.3673 60.7284 49.3645 60.6537 49.3627C60.5048 49.3589 60.3558 49.3553 60.2098 49.3498C60.1227 49.3466 60.0378 49.3419 59.9516 49.338C59.8209 49.332 59.69 49.3264 59.5619 49.3191C59.4713 49.3139 59.3828 49.3075 59.2933 49.3017C59.1727 49.2939 59.0516 49.2862 58.9331 49.2772C58.8419 49.2702 58.7527 49.2622 58.6627 49.2545C58.5491 49.2448 58.4352 49.2353 58.3236 49.2247C58.2334 49.2161 58.1452 49.2066 58.0564 49.1973C57.9478 49.1859 57.8392 49.1747 57.7327 49.1623C57.6448 49.1522 57.5586 49.1414 57.472 49.1306C57.3677 49.1177 57.2636 49.1047 57.1611 49.0908C57.0755 49.0792 56.9912 49.067 56.907 49.0548C56.807 49.0405 56.7075 49.0259 56.6094 49.0106C56.5264 48.9977 56.4445 48.9844 56.363 48.9709C56.2666 48.955 56.1709 48.9389 56.0764 48.9223C55.9964 48.9083 55.9173 48.8939 55.8388 48.8794C55.7459 48.8622 55.6541 48.8447 55.5633 48.8269C55.4864 48.8117 55.41 48.7964 55.3344 48.7808C55.245 48.7623 55.1567 48.7436 55.0692 48.7245C54.9956 48.7084 54.9225 48.6923 54.8503 48.6759C54.7639 48.6562 54.6789 48.6361 54.5945 48.6159C54.5244 48.5991 54.4544 48.5823 54.3856 48.5652C54.3023 48.5444 54.2208 48.5231 54.1395 48.5019C54.0731 48.4844 54.0064 48.467 53.9412 48.4494C53.8606 48.4275 53.782 48.4052 53.7034 48.3828C53.6409 48.365 53.578 48.3473 53.5167 48.3292C53.4384 48.3061 53.3623 48.2825 53.2863 48.2591C53.2281 48.2411 53.1694 48.2233 53.1125 48.2052C53.0361 48.1808 52.9622 48.1561 52.8881 48.1314C52.8347 48.1136 52.7803 48.0959 52.7281 48.078C52.6531 48.0523 52.5809 48.0262 52.5084 48.0002C52.4602 47.9828 52.4105 47.9656 52.3633 47.9481C52.2866 47.9197 52.213 47.8911 52.1391 47.8625C52.0994 47.8472 52.0583 47.8319 52.0195 47.8166C51.9295 47.7808 51.843 47.745 51.7575 47.7091C51.7373 47.7006 51.7156 47.6922 51.6956 47.6836C51.5906 47.6389 51.4892 47.5942 51.3913 47.5495C51.3678 47.5387 51.3462 47.5281 51.3231 47.5173C51.2503 47.4834 51.1778 47.4497 51.1089 47.4159C51.0747 47.3992 51.043 47.3827 51.0097 47.3659C50.9545 47.3381 50.8991 47.3105 50.8466 47.283C50.8117 47.2647 50.7792 47.2466 50.7455 47.2283C50.6978 47.2025 50.6498 47.1767 50.6047 47.1513C50.5713 47.1325 50.5402 47.1139 50.5081 47.0952C50.4658 47.0705 50.4233 47.0458 50.3833 47.0214C50.3522 47.0023 50.3231 46.9837 50.2934 46.965C50.2559 46.9414 50.2183 46.9177 50.1828 46.8942C50.1542 46.8753 50.1275 46.8567 50.1003 46.8381C50.0672 46.8153 50.0342 46.7927 50.0033 46.7703C49.9775 46.7516 49.9533 46.7333 49.9289 46.715C49.9 46.6931 49.8714 46.6716 49.8445 46.6502C49.8217 46.632 49.8003 46.6142 49.7789 46.5964C49.7539 46.5756 49.7295 46.555 49.7067 46.5347C49.687 46.5172 49.6683 46.4998 49.6502 46.4828C49.6292 46.463 49.6091 46.4434 49.59 46.4242C49.5734 46.4075 49.5577 46.3909 49.5427 46.3747C49.5255 46.3559 49.5094 46.3377 49.4942 46.3195C49.4809 46.3038 49.4681 46.2881 49.4564 46.2728C49.45 46.2645 49.4448 46.2567 49.4391 46.2486C50.175 45.2397 54.3416 43.125 61.5625 43.125C68.7834 43.125 72.95 45.2397 73.6866 46.2486ZM43.125 46.25C43.125 46.3958 43.1316 46.5531 43.1455 46.7188H43.125V64.7484C40.7858 65.3297 38.3742 65.625 35.9375 65.625C19.5677 65.625 6.25 52.3073 6.25 35.9375C6.25 19.5677 19.5677 6.25 35.9375 6.25C52.3073 6.25 65.625 19.5677 65.625 35.9375C65.625 36.3175 65.6172 36.6981 65.6028 37.0783C64.2917 36.9445 62.9377 36.875 61.5625 36.875C57.0769 36.875 52.8123 37.6075 49.5541 38.9373C43.9603 41.2205 43.125 44.4989 43.125 46.25ZM73.75 70.5259C73.2337 71.4869 69.0323 73.75 61.5625 73.75C54.0927 73.75 49.8913 71.4867 49.375 70.5259V65.5178C49.4352 65.5431 49.4928 65.5689 49.5541 65.5939C52.8123 66.9238 57.0769 67.6562 61.5625 67.6562C66.0481 67.6562 70.3127 66.9239 73.5709 65.5939C73.6323 65.5687 73.6898 65.5431 73.75 65.5178V70.5259ZM73.75 58.178C73.2464 59.1358 69.0461 61.4062 61.5625 61.4062C54.0789 61.4062 49.8786 59.1358 49.375 58.178V53.4866C49.4352 53.5119 49.4928 53.5377 49.5541 53.5627C52.8123 54.8925 57.0769 55.625 61.5625 55.625C66.0481 55.625 70.3127 54.8927 73.5709 53.5628C73.6323 53.5377 73.6898 53.512 73.75 53.4867V58.178Z" fill="url(#paint0_linear)"></path>
  <path d="M32.8125 32.8125H18.75V39.0625H39.0625V12.5H32.8125V32.8125Z" fill="url(#paint1_linear)"></path>
  <defs>
    <linearGradient id="paint0_linear" x1="3.89307e-07" y1="100" x2="92.616" y2="77.4646" gradientUnits="userSpaceOnUse">
      <stop stop-color="#0A3ECA"></stop>
      <stop offset="0.961522" stop-color="#4B7CFF"></stop>
    </linearGradient>
    <linearGradient id="paint1_linear" x1="18.75" y1="45.7031" x2="42.8245" y2="41.2236" gradientUnits="userSpaceOnUse">
      <stop stop-color="#0A3ECA"></stop>
      <stop offset="0.961522" stop-color="#4B7CFF"></stop>
    </linearGradient>
  </defs>
</svg>