<svg width="136" height="136" viewBox="0 0 136 136" fill="none" xmlns="http://www.w3.org/2000/svg">
<path d="M67.6375 47.6001C61.0415 47.6001 55.7375 52.9041 55.7375 59.5001C55.7375 66.0961 61.0415 71.4001 67.6375 71.4001C74.2335 71.4001 79.5374 66.0961 79.5374 59.5001C79.5374 52.9041 74.2335 47.6001 67.6375 47.6001ZM67.6375 64.6001C64.8155 64.6001 62.5375 62.3221 62.5375 59.5001C62.5375 56.6781 64.8155 54.4001 67.6375 54.4001C70.4595 54.4001 72.7375 56.6781 72.7375 59.5001C72.7375 62.3221 70.4595 64.6001 67.6375 64.6001Z" fill="#FF6C0E"/>
<path d="M50.9313 89.2419L46.0578 84.3684C50.9469 78.494 62.6885 76.5001 67.6375 76.5001C72.6015 76.5001 84.3994 78.5061 89.2615 84.4221L84.3994 89.3521C82.9715 86.2921 74.0295 83.3001 67.6375 83.3001C61.3222 83.3001 52.551 86.2207 50.9313 89.2419Z" fill="#FF6C0E"/>
<path fill-rule="evenodd" clip-rule="evenodd" d="M38.5165 97.4834C43.8276 102.795 43.8276 111.406 38.5165 116.717C33.2053 122.028 24.5943 122.028 19.2832 116.717C13.972 111.406 13.972 102.795 19.2832 97.4834C24.5943 92.1723 33.2053 92.1723 38.5165 97.4834ZM33.7081 102.292C36.3637 104.947 36.3637 109.253 33.7081 111.908C31.0526 114.564 26.747 114.564 24.0915 111.908C21.4359 109.253 21.4359 104.947 24.0915 102.292C26.747 99.6362 31.0526 99.6362 33.7081 102.292Z" fill="#064DD6"/>
<path d="M32.5061 96.9L37.6024 101.996L45.8739 93.7248L50.8253 88.7735L50.7604 88.7085L45.7289 83.6771L45.7027 83.7034L32.5061 96.9Z" fill="#064DD6"/>
<path fill-rule="evenodd" clip-rule="evenodd" d="M38.5165 38.826C43.8276 33.5149 43.8276 24.9038 38.5165 19.5927C33.2053 14.2816 24.5943 14.2816 19.2832 19.5927C13.972 24.9038 13.972 33.5149 19.2832 38.826C24.5943 44.1371 33.2053 44.1371 38.5165 38.826ZM33.7081 34.0177C36.3637 31.3621 36.3637 27.0566 33.7081 24.401C31.0526 21.7455 26.747 21.7455 24.0915 24.401C21.4359 27.0566 21.4359 31.3621 24.0915 34.0177C26.747 36.6732 31.0526 36.6732 33.7081 34.0177Z" fill="#064DD6"/>
<path d="M32.5061 39.4094L37.6024 34.313L49.1651 45.8757L44.0687 50.972L32.5061 39.4094Z" fill="#064DD6"/>
<path fill-rule="evenodd" clip-rule="evenodd" d="M97.7926 97.7927C92.4815 103.104 92.4815 111.715 97.7926 117.026C103.104 122.337 111.715 122.337 117.026 117.026C122.337 111.715 122.337 103.104 117.026 97.7927C111.715 92.4816 103.104 92.4816 97.7926 97.7927ZM102.601 102.601C99.9454 105.257 99.9454 109.562 102.601 112.218C105.257 114.873 109.562 114.873 112.218 112.218C114.873 109.562 114.873 105.257 112.218 102.601C109.562 99.9455 105.257 99.9455 102.601 102.601Z" fill="#064DD6"/>
<path d="M103.803 97.2093L98.7067 102.306L89.6382 93.2371L85.4838 89.0828L90.5801 83.9864L94.5759 87.9822L103.803 97.2093Z" fill="#064DD6"/>
<path fill-rule="evenodd" clip-rule="evenodd" d="M97.7926 38.5167C92.4815 33.2056 92.4815 24.5945 97.7926 19.2834C103.104 13.9723 111.715 13.9723 117.026 19.2834C122.337 24.5945 122.337 33.2056 117.026 38.5167C111.715 43.8278 103.104 43.8278 97.7926 38.5167ZM102.601 33.7084C99.9454 31.0528 99.9454 26.7473 102.601 24.0917C105.257 21.4362 109.562 21.4362 112.218 24.0917C114.873 26.7473 114.873 31.0528 112.218 33.7084C109.562 36.3639 105.257 36.3639 102.601 33.7084Z" fill="#064DD6"/>
<path d="M103.803 39.1001L98.7067 34.0037L85.546 47.1644L85.4838 47.2266L88.5039 50.2467L90.5801 52.323L95.1591 47.744L103.803 39.1001Z" fill="#064DD6"/>
<path fill-rule="evenodd" clip-rule="evenodd" d="M33.4665 67.4667C33.4665 48.6987 48.6985 33.4667 67.4665 33.4667C78.8835 33.4667 88.9921 39.1035 95.1591 47.744L90.5801 52.323L88.5039 50.2467L85.4838 47.2266L85.546 47.1644C80.7362 42.8763 74.3994 40.2667 67.4665 40.2667C52.4725 40.2667 40.2665 52.4727 40.2665 67.4667C40.2665 73.5711 42.3179 79.1792 45.7027 83.7034L45.7289 83.6771L50.7604 88.7085C50.7407 88.7453 50.7221 88.782 50.7045 88.8187C50.7185 88.8299 50.8112 88.7624 50.8253 88.7735L45.8739 93.7248C38.299 87.4873 33.4665 78.038 33.4665 67.4667ZM89.6382 93.2371C91.4629 91.6655 93.1191 89.9036 94.5759 87.9822L90.5801 83.9864L85.4838 89.0828L89.6382 93.2371Z" fill="#064DD6"/>
<path d="M85.4838 89.0828L90.5801 83.9864L94.5759 87.9822C98.9 82.2788 101.467 75.1707 101.467 67.4667C101.467 60.4287 99.3245 53.888 95.6573 48.4613C95.4942 48.2199 95.3281 47.9808 95.1591 47.744L90.5801 52.323L88.5039 50.2467C92.3533 54.9404 94.6665 60.9394 94.6665 67.4667C94.6665 73.6547 92.5585 79.3327 89.0905 83.8887L84.2285 88.8187C79.6045 92.4907 73.7905 94.6667 67.4665 94.6667C61.1617 94.6667 55.4424 92.4253 50.8253 88.7735L45.8739 93.7248C51.7474 98.5613 59.2697 101.467 67.4665 101.467C75.9352 101.467 83.684 98.3653 89.6382 93.2371L85.4838 89.0828Z" fill="#064DD6"/>
</svg>
