<svg width="136" height="136" viewBox="0 0 136 136" fill="none" xmlns="http://www.w3.org/2000/svg">
<path d="M115.6 22.1001H20.4C13.7955 22.1001 8.5595 27.2065 8.5595 33.5751L8.5 102.425C8.5 108.794 13.7955 113.9 20.4 113.9H115.6C122.205 113.9 127.5 108.794 127.5 102.425V33.5751C127.5 27.2065 122.205 22.1001 115.6 22.1001ZM109.65 104.125H26.35C23.0775 104.125 18.7 99.8432 18.7 96.6876V62.2626H117.3V96.6876C117.3 99.8432 112.923 104.125 109.65 104.125ZM117.3 52.4876H18.7V31.8751H117.3V52.4876Z" fill="#064DD6"/>
<path d="M34 42.5001C34 45.3167 31.7167 47.6001 28.9 47.6001C26.0833 47.6001 23.8 45.3167 23.8 42.5001C23.8 39.6834 26.0833 37.4001 28.9 37.4001C31.7167 37.4001 34 39.6834 34 42.5001Z" fill="#064DD6"/>
<path d="M51 42.5001C51 45.3167 48.7167 47.6001 45.9 47.6001C43.0833 47.6001 40.8 45.3167 40.8 42.5001C40.8 39.6834 43.0833 37.4001 45.9 37.4001C48.7167 37.4001 51 39.6834 51 42.5001Z" fill="#064DD6"/>
<path d="M53.8009 83.6976V79.0773H71.8044C73.452 79.0773 74.8 77.9158 74.8 76.4961C74.8 75.0765 73.452 73.9149 71.8044 73.9149H53.8009V69.2946C53.8009 68.1331 52.1833 67.5653 51.2546 68.3912L42.9269 75.5927C42.3577 76.1089 42.3577 76.9091 42.9269 77.4253L51.2546 84.6268C52.1833 85.427 53.8009 84.8591 53.8009 83.6976Z" fill="#064DD6"/>
<path d="M82.1991 95.5976V90.9773H64.1956C62.548 90.9773 61.2 89.8158 61.2 88.3961C61.2 86.9765 62.548 85.8149 64.1956 85.8149H82.1991V81.1946C82.1991 80.0331 83.8167 79.4653 84.7454 80.2912L93.0731 87.4927C93.6423 88.0089 93.6423 88.8091 93.0731 89.3253L84.7454 96.5268C83.8167 97.327 82.1991 96.7591 82.1991 95.5976Z" fill="#064DD6"/>
<path d="M53.8009 83.6975V79.0772H71.8044C73.452 79.0772 74.8 77.9157 74.8 76.496C74.8 75.0764 73.452 73.9148 71.8044 73.9148H53.8009V69.2945C53.8009 68.133 52.1833 67.5652 51.2546 68.3911L42.9269 75.5926C42.3577 76.1088 42.3577 76.909 42.9269 77.4252L51.2546 84.6267C52.1833 85.4269 53.8009 84.859 53.8009 83.6975Z" fill="#FF6C0E"/>
<path d="M82.1991 95.5975V90.9772H64.1956C62.548 90.9772 61.2 89.8157 61.2 88.396C61.2 86.9764 62.548 85.8148 64.1956 85.8148H82.1991V81.1945C82.1991 80.033 83.8167 79.4652 84.7454 80.2911L93.0731 87.4926C93.6423 88.0088 93.6423 88.809 93.0731 89.3252L84.7454 96.5267C83.8167 97.3269 82.1991 96.759 82.1991 95.5975Z" fill="#FF6C0E"/>
</svg>
