<svg width="136" height="136" viewBox="0 0 136 136" fill="none" xmlns="http://www.w3.org/2000/svg">
<path fill-rule="evenodd" clip-rule="evenodd" d="M41.6551 85.242C40.7509 85.242 39.884 85.6021 39.246 86.2428L10.6464 114.96C7.78453 117.821 7.78453 122.495 10.6464 125.355C13.5083 128.215 18.1851 128.215 21.047 125.355L49.7165 96.7022C50.3545 96.0645 50.713 95.1994 50.713 94.2973V90.195L52.5977 88.2417C62.37 96.6131 75.7022 100.938 89.8721 98.5664C109.277 95.2876 124.773 79.103 127.147 59.5698C130.776 30.0607 105.927 5.22558 76.4003 8.85317C56.8556 11.2251 40.6615 26.7121 37.3807 46.1058C35.0075 60.2674 39.3352 73.5918 47.7115 83.3584L45.757 85.242H41.6551ZM82.45 90.1C102.636 90.1 119 73.736 119 53.55C119 33.364 102.636 17 82.45 17C62.264 17 45.9 33.364 45.9 53.55C45.9 73.736 62.264 90.1 82.45 90.1Z" fill="#064DD6"/>
<path d="M74.647 42.6417C74.647 45.3333 76.7567 47.0617 83.317 48.7333C89.8773 50.405 96.9 53.1533 96.9 61.2C96.9 67.0083 92.4205 70.21 86.785 71.2583V73.1C86.785 75.4517 84.8487 77.35 82.45 77.35C80.0513 77.35 78.115 75.4517 78.115 73.1V71.2017C73.78 70.295 69.9363 67.9717 68.289 64.0333C67.5665 62.2767 68.9248 60.35 70.8611 60.35H71.6703C72.8552 60.35 73.8378 61.1433 74.2713 62.2483C75.225 64.6283 77.6815 66.3 82.45 66.3C88.8369 66.3 90.253 63.1833 90.253 61.2283C90.253 58.5933 88.808 56.1 81.583 54.4C73.5199 52.5017 68 49.2433 68 42.6983C68 37.23 72.5084 33.66 78.115 32.47V30.6C78.115 28.2483 80.0513 26.35 82.45 26.35C84.8487 26.35 86.785 28.2483 86.785 30.6V32.555C91.2934 33.6317 94.1256 36.4083 95.3394 39.7517C96.0041 41.5083 94.6458 43.35 92.7384 43.35H91.8714C90.6576 43.35 89.7039 42.5 89.3571 41.3667C88.6057 38.93 86.5538 37.4 82.45 37.4C77.5659 37.4 74.647 39.5533 74.647 42.6417Z" fill="#064DD6"/>
<path d="M74.647 42.6418C74.647 45.3334 76.7567 47.0618 83.317 48.7334C89.8773 50.4051 96.9 53.1534 96.9 61.2001C96.9 67.0084 92.4205 70.2101 86.785 71.2584V73.1001C86.785 75.4518 84.8487 77.3501 82.45 77.3501C80.0513 77.3501 78.115 75.4518 78.115 73.1001V71.2018C73.78 70.2951 69.9363 67.9718 68.289 64.0334C67.5665 62.2768 68.9248 60.3501 70.8611 60.3501H71.6703C72.8552 60.3501 73.8378 61.1434 74.2713 62.2484C75.225 64.6284 77.6815 66.3001 82.45 66.3001C88.8369 66.3001 90.253 63.1834 90.253 61.2284C90.253 58.5934 88.808 56.1001 81.583 54.4001C73.5199 52.5018 68 49.2434 68 42.6984C68 37.2301 72.5084 33.6601 78.115 32.4701V30.6001C78.115 28.2484 80.0513 26.3501 82.45 26.3501C84.8487 26.3501 86.785 28.2484 86.785 30.6001V32.5551C91.2934 33.6318 94.1256 36.4084 95.3394 39.7518C96.0041 41.5084 94.6458 43.3501 92.7384 43.3501H91.8714C90.6576 43.3501 89.7039 42.5001 89.3571 41.3668C88.6057 38.9301 86.5538 37.4001 82.45 37.4001C77.5659 37.4001 74.647 39.5534 74.647 42.6418Z" fill="#FF6C0E"/>
</svg>
