<svg width="48" height="48" viewBox="0 0 48 48" fill="none" xmlns="http://www.w3.org/2000/svg">
<g clip-path="url(#clip0_1905_7962)">
<path d="M47.044 12.3698C46.7726 11.3487 46.2378 10.4167 45.493 9.66716C44.7483 8.91763 43.8197 8.37685 42.8003 8.09893C39.0476 7.08984 24.0476 7.08984 24.0476 7.08984C24.0476 7.08984 9.04761 7.08984 5.29488 8.09893C4.27547 8.37685 3.34693 8.91763 2.60218 9.66716C1.85744 10.4167 1.32262 11.3487 1.05124 12.3698C0.0476075 16.1389 0.0476074 23.9989 0.0476074 23.9989C0.0476074 23.9989 0.0476075 31.8589 1.05124 35.628C1.32262 36.6492 1.85744 37.5812 2.60218 38.3307C3.34693 39.0802 4.27547 39.621 5.29488 39.8989C9.04761 40.908 24.0476 40.908 24.0476 40.908C24.0476 40.908 39.0476 40.908 42.8003 39.8989C43.8197 39.621 44.7483 39.0802 45.493 38.3307C46.2378 37.5812 46.7726 36.6492 47.044 35.628C48.0476 31.8589 48.0476 23.9989 48.0476 23.9989C48.0476 23.9989 48.0476 16.1389 47.044 12.3698Z" fill="#FF0302"/>
<path d="M19.1385 31.1378V16.8633L31.684 24.0006L19.1385 31.1378Z" fill="#FEFEFE"/>
</g>
<defs>
<clipPath id="clip0_1905_7962">
<rect width="48" height="48" fill="white"/>
</clipPath>
</defs>
</svg>
