<svg width="33" height="32" viewBox="0 0 33 32" fill="none" xmlns="http://www.w3.org/2000/svg">
    <circle cx="16.5" cy="16" r="16" fill="white"/>
    <path d="M7.07526 18.78C8.21918 18.78 9.29446 18.7711 10.3632 18.78C10.9613 18.789 11.2865 19.0634 11.3486 19.5871C11.4172 20.2436 11.0692 20.6848 10.4171 20.6919C9.18987 20.7081 7.97078 20.7009 6.74353 20.7009C6.38728 20.7009 6.03921 20.7171 5.68296 20.6919C5.24337 20.6668 4.81195 20.5664 4.59951 20.0678C4.38707 19.5692 4.53904 19.1208 4.82666 18.7119C5.99345 17.0833 7.16678 15.444 8.34174 13.8155C8.41038 13.7151 8.47738 13.6164 8.54601 13.525C8.47084 13.3833 8.36462 13.4496 8.27311 13.4425C7.45439 13.4335 6.62914 13.4425 5.81206 13.4335C5.62249 13.4335 5.43293 13.4084 5.25154 13.3671C4.82012 13.2595 4.55539 12.786 4.65344 12.3197C4.72207 12.004 4.94922 11.7458 5.23683 11.6704C5.41822 11.6202 5.60779 11.5951 5.79735 11.5951C7.14553 11.5861 8.50189 11.5861 9.85007 11.5951C10.0919 11.5861 10.3272 11.6202 10.5626 11.6866C11.0773 11.8785 11.2979 12.4022 11.092 12.951C10.9106 13.4245 10.623 13.8317 10.3338 14.2388C9.34185 15.627 8.34991 17.0062 7.35634 18.3783C7.27136 18.4895 7.19619 18.5971 7.07526 18.78Z" fill="#064DD6"/>
    <path fill-rule="evenodd" clip-rule="evenodd" d="M16.9135 13.9537C16.5867 14.0196 16.3872 14.258 16.1963 14.5142C15.1986 13.6157 14.0996 13.5587 13.016 14.226C11.7071 15.0177 11.222 16.3042 11.3889 17.813C11.5488 19.2062 12.1302 20.352 13.5492 20.8307C14.435 21.1278 15.2554 21.021 15.9812 20.4107C16.1722 20.2542 16.2272 20.288 16.3631 20.4606C16.6263 20.8164 17.0803 20.9392 17.4794 20.7826C17.8698 20.6581 18.1416 20.2791 18.1416 19.8503C18.157 18.2009 18.1656 16.5515 18.1416 14.9021C18.133 14.242 17.543 13.8221 16.9135 13.9537ZM13.3737 17.5248C13.3737 17.5247 13.3737 17.5248 13.3737 17.5248C13.3732 17.4532 13.375 17.3834 13.3791 17.3155C13.4416 16.2778 14.0326 15.6631 14.8478 15.7099C14.9801 15.7155 15.1093 15.7429 15.2311 15.7901C15.458 15.8735 15.6592 16.0272 15.8058 16.2383C16.253 16.8646 16.253 17.8966 15.8058 18.5229C15.7267 18.6297 15.639 18.7204 15.5427 18.7952C15.3053 18.9767 15.0279 19.0637 14.7534 19.0627C14.4787 19.0638 14.2011 18.9768 13.9637 18.7952C13.8674 18.7204 13.7797 18.6297 13.7005 18.5229C13.526 18.2707 13.4185 17.9735 13.3841 17.66C13.3791 17.6153 13.3757 17.5701 13.3737 17.5248Z" fill="#064DD6"/>
    <path fill-rule="evenodd" clip-rule="evenodd" d="M24.9184 13.8132C23.004 13.8719 21.6573 15.4555 21.7209 17.5746C21.6882 19.6368 23.3394 21.1954 25.4206 20.9801C27.3264 20.7808 28.5613 19.3058 28.4977 17.2187C28.434 15.1583 26.9514 13.7473 24.9184 13.8132ZM23.7212 17.3772C23.7212 17.3772 23.7213 17.3771 23.7213 17.3771C23.7213 17.3671 23.7213 17.3571 23.7214 17.3471C23.7329 16.343 24.3238 15.6838 25.1592 15.7174C25.1689 15.7178 25.1787 15.7182 25.1884 15.7188C25.5634 15.7277 25.9142 15.9252 26.1378 16.2383C26.5919 16.8646 26.5919 17.9286 26.1292 18.5478C25.979 18.7446 25.7856 18.8864 25.5735 18.9705C25.2245 19.1128 24.8356 19.0893 24.5076 18.9161C24.4309 18.8759 24.357 18.8274 24.2871 18.7702C24.1994 18.7044 24.1272 18.6226 24.0635 18.5318C24.0635 18.5318 24.0634 18.5317 24.0634 18.5316C23.8244 18.1937 23.7058 17.7899 23.7212 17.3772Z" fill="#064DD6"/>
    <path d="M21.021 17.2119C21.0201 16.7858 21.0191 16.3599 21.0191 15.9341C21.0191 15.5057 21.0201 15.0763 21.021 14.6465C21.023 13.7857 21.0249 12.9233 21.0191 12.0641C21.0191 11.404 20.6115 10.9912 20.006 11.0001C19.4161 11.0001 19.0257 11.4129 19.0171 12.0481C19.0113 12.3064 19.0132 12.5607 19.0151 12.8163C19.0161 12.9446 19.0171 13.0733 19.0171 13.2029V19.7595C19.0171 20.2791 19.3198 20.7168 19.7188 20.8235C19.8151 20.8484 19.9183 20.8573 20.0146 20.8573C20.5805 20.8413 21.0277 20.3538 21.0191 19.7684C21.0249 18.9167 21.023 18.0641 21.021 17.2119Z" fill="#064DD6"/>
</svg>