<svg width="28" height="35" viewBox="0 0 28 35" fill="none" xmlns="http://www.w3.org/2000/svg">
<path d="M15.5713 34.2065C15.3857 34.2065 15.2246 34.1431 15.0879 34.0161C14.9609 33.8989 14.8828 33.7378 14.8535 33.5327C14.6289 31.9312 14.3848 30.5835 14.1211 29.4897C13.8672 28.4058 13.5254 27.5122 13.0957 26.8091C12.666 26.106 12.0996 25.5444 11.3965 25.1245C10.7031 24.7046 9.81445 24.3677 8.73047 24.1138C7.65625 23.8501 6.32812 23.6157 4.74609 23.4106C4.53125 23.3911 4.36035 23.313 4.2334 23.1763C4.10645 23.0396 4.04297 22.8735 4.04297 22.6782C4.04297 22.4927 4.10645 22.3315 4.2334 22.1948C4.36035 22.0581 4.53125 21.98 4.74609 21.9604C6.32812 21.7847 7.66113 21.5747 8.74512 21.3306C9.8291 21.0864 10.7227 20.7495 11.4258 20.3198C12.1289 19.8901 12.6953 19.3188 13.125 18.606C13.5547 17.8931 13.8965 16.9897 14.1504 15.896C14.4141 14.7925 14.6484 13.4351 14.8535 11.8237C14.8828 11.6284 14.9609 11.4722 15.0879 11.355C15.2246 11.228 15.3857 11.1646 15.5713 11.1646C15.7666 11.1646 15.9277 11.228 16.0547 11.355C16.1816 11.4722 16.2646 11.6284 16.3037 11.8237C16.5088 13.4351 16.7383 14.7925 16.9922 15.896C17.2559 16.9897 17.5977 17.8931 18.0176 18.606C18.4473 19.3188 19.0137 19.8901 19.7168 20.3198C20.4199 20.7495 21.3135 21.0864 22.3975 21.3306C23.4814 21.5747 24.8193 21.7847 26.4111 21.9604C26.6162 21.98 26.7822 22.0581 26.9092 22.1948C27.0361 22.3315 27.0996 22.4927 27.0996 22.6782C27.0996 22.8735 27.0361 23.0396 26.9092 23.1763C26.7822 23.313 26.6162 23.3911 26.4111 23.4106C24.8193 23.5864 23.4814 23.7964 22.3975 24.0405C21.3135 24.2847 20.4199 24.6216 19.7168 25.0513C19.0137 25.4712 18.4473 26.0376 18.0176 26.7505C17.5977 27.4634 17.2559 28.3716 16.9922 29.4751C16.7383 30.5786 16.5088 31.9312 16.3037 33.5327C16.2646 33.7378 16.1816 33.8989 16.0547 34.0161C15.9277 34.1431 15.7666 34.2065 15.5713 34.2065ZM5.63965 18.0054C5.34668 18.0054 5.18066 17.8442 5.1416 17.522C5.02441 16.5454 4.89746 15.7788 4.76074 15.2222C4.63379 14.6655 4.42383 14.2505 4.13086 13.9771C3.84766 13.6938 3.41797 13.479 2.8418 13.3325C2.27539 13.186 1.49414 13.0298 0.498047 12.8638C0.166016 12.8149 0 12.6489 0 12.3657C0 12.0923 0.146484 11.9312 0.439453 11.8823C1.44531 11.687 2.23633 11.5161 2.8125 11.3696C3.38867 11.2134 3.82324 10.9985 4.11621 10.7251C4.40918 10.4517 4.62402 10.0464 4.76074 9.50928C4.89746 8.9624 5.02441 8.20068 5.1416 7.22412C5.18066 6.90186 5.34668 6.74072 5.63965 6.74072C5.93262 6.74072 6.09863 6.89697 6.1377 7.20947C6.26465 8.1958 6.3916 8.97217 6.51855 9.53857C6.65527 10.105 6.86523 10.5347 7.14844 10.8276C7.44141 11.1108 7.87598 11.3208 8.45215 11.4575C9.02832 11.5942 9.82422 11.7358 10.8398 11.8823C10.9668 11.8921 11.0693 11.9409 11.1475 12.0288C11.2354 12.1167 11.2793 12.229 11.2793 12.3657C11.2793 12.6392 11.1328 12.8052 10.8398 12.8638C9.82422 13.0591 9.02832 13.2349 8.45215 13.3911C7.88574 13.5376 7.45605 13.7524 7.16309 14.0356C6.87988 14.3091 6.66992 14.7192 6.5332 15.2661C6.39648 15.813 6.26465 16.5747 6.1377 17.5513C6.11816 17.6782 6.06445 17.7856 5.97656 17.8735C5.88867 17.9614 5.77637 18.0054 5.63965 18.0054ZM12.7295 7.92725C12.5439 7.92725 12.4365 7.82959 12.4072 7.63428C12.29 7.03857 12.1875 6.56982 12.0996 6.22803C12.0215 5.88623 11.8945 5.62744 11.7188 5.45166C11.5527 5.26611 11.2939 5.11963 10.9424 5.01221C10.5908 4.90479 10.0977 4.79736 9.46289 4.68994C9.26758 4.65088 9.16992 4.53857 9.16992 4.35303C9.16992 4.17725 9.26758 4.06982 9.46289 4.03076C10.0977 3.91357 10.5908 3.80615 10.9424 3.7085C11.2939 3.60107 11.5527 3.45947 11.7188 3.28369C11.8945 3.09814 12.0215 2.83447 12.0996 2.49268C12.1875 2.15088 12.29 1.68213 12.4072 1.08643C12.4365 0.891113 12.5439 0.793457 12.7295 0.793457C12.9053 0.793457 13.0127 0.891113 13.0518 1.08643C13.1592 1.68213 13.2568 2.15088 13.3447 2.49268C13.4326 2.83447 13.5596 3.09814 13.7256 3.28369C13.9014 3.45947 14.165 3.60107 14.5166 3.7085C14.8682 3.80615 15.3613 3.91357 15.9961 4.03076C16.1914 4.06982 16.2891 4.17725 16.2891 4.35303C16.2891 4.53857 16.1914 4.65088 15.9961 4.68994C15.3613 4.79736 14.8682 4.90479 14.5166 5.01221C14.165 5.11963 13.9014 5.26611 13.7256 5.45166C13.5596 5.62744 13.4326 5.88623 13.3447 6.22803C13.2568 6.56982 13.1592 7.03857 13.0518 7.63428C13.0127 7.82959 12.9053 7.92725 12.7295 7.92725Z" fill="#FFB509"/>
</svg>
