<svg width="36" height="36" viewBox="0 0 36 36" fill="none" xmlns="http://www.w3.org/2000/svg">
<rect width="36" height="36" rx="18" fill="white" fill-opacity="0.24"/>
<path d="M17.9932 24.5586C17.7744 24.5586 17.5944 24.488 17.4531 24.3467C17.3164 24.2054 17.248 24.0231 17.248 23.7998V15.3164L17.3301 13.0879L17.7812 13.3135L15.498 15.8496L13.9531 17.3809C13.8848 17.4492 13.805 17.5039 13.7139 17.5449C13.6227 17.5814 13.5247 17.5996 13.4199 17.5996C13.2148 17.5996 13.0439 17.5312 12.9072 17.3945C12.7705 17.2578 12.7021 17.0846 12.7021 16.875C12.7021 16.6699 12.7796 16.4876 12.9346 16.3281L17.4395 11.8164C17.5169 11.7389 17.6035 11.6797 17.6992 11.6387C17.7949 11.5977 17.8929 11.5771 17.9932 11.5771C18.098 11.5771 18.1982 11.5977 18.2939 11.6387C18.3942 11.6797 18.4808 11.7389 18.5537 11.8164L23.0586 16.3281C23.2135 16.4876 23.291 16.6699 23.291 16.875C23.291 17.0846 23.2227 17.2578 23.0859 17.3945C22.9492 17.5312 22.7783 17.5996 22.5732 17.5996C22.4684 17.5996 22.3704 17.5814 22.2793 17.5449C22.1882 17.5039 22.1084 17.4492 22.04 17.3809L20.4883 15.8496L18.2051 13.3135L18.6631 13.0879L18.7451 15.3164V23.7998C18.7451 24.0231 18.6745 24.2054 18.5332 24.3467C18.3965 24.488 18.2165 24.5586 17.9932 24.5586Z" fill="white"/>
</svg>
