<svg width="35" height="33" viewBox="0 0 35 33" fill="none" xmlns="http://www.w3.org/2000/svg">
<path d="M20.9033 32.1152V29.7568H31.2598C31.543 29.7568 31.7529 29.6885 31.8896 29.5518C32.0264 29.415 32.0947 29.2002 32.0947 28.9072V11.2998C32.0947 11.0068 32.0264 10.792 31.8896 10.6553C31.7529 10.5186 31.543 10.4502 31.2598 10.4502H21.958V8.0918H32.0361C32.7783 8.0918 33.3643 8.33594 33.7939 8.82422C34.2334 9.30273 34.4531 9.94727 34.4531 10.7578V29.4492C34.4531 30.2598 34.2334 30.9043 33.7939 31.3828C33.3643 31.8711 32.7783 32.1152 32.0361 32.1152H20.9033ZM26.5283 16.1484C26.2061 16.1484 26.0449 15.9824 26.0449 15.6504V13.3652C26.0449 13.0332 26.2061 12.8672 26.5283 12.8672H28.8867C29.2188 12.8672 29.3848 13.0332 29.3848 13.3652V15.6504C29.3848 15.9824 29.2188 16.1484 28.8867 16.1484H26.5283ZM26.5283 21.7441C26.2061 21.7441 26.0449 21.5781 26.0449 21.2461V18.9609C26.0449 18.6289 26.2061 18.4629 26.5283 18.4629H28.8867C29.2188 18.4629 29.3848 18.6289 29.3848 18.9609V21.2461C29.3848 21.5781 29.2188 21.7441 28.8867 21.7441H26.5283ZM26.5283 27.3398C26.2061 27.3398 26.0449 27.1738 26.0449 26.8418V24.5566C26.0449 24.2246 26.2061 24.0586 26.5283 24.0586H28.8867C29.2188 24.0586 29.3848 24.2246 29.3848 24.5566V26.8418C29.3848 27.1738 29.2188 27.3398 28.8867 27.3398H26.5283ZM0 29.4492V3.55078C0 2.73047 0.214844 2.08105 0.644531 1.60254C1.08398 1.12402 1.67969 0.884766 2.43164 0.884766H20.9033C21.6455 0.884766 22.2314 1.12402 22.6611 1.60254C23.1006 2.08105 23.3203 2.73047 23.3203 3.55078V29.4492C23.3203 30.2598 23.1006 30.9043 22.6611 31.3828C22.2314 31.8711 21.6455 32.1152 20.9033 32.1152H2.43164C1.67969 32.1152 1.08398 31.8711 0.644531 31.3828C0.214844 30.9043 0 30.2598 0 29.4492ZM2.3584 28.9072C2.3584 29.2002 2.42676 29.415 2.56348 29.5518C2.7002 29.6885 2.91504 29.7568 3.20801 29.7568H20.127C20.4102 29.7568 20.6201 29.6885 20.7568 29.5518C20.8936 29.415 20.9619 29.2002 20.9619 28.9072V4.09277C20.9619 3.7998 20.8936 3.58496 20.7568 3.44824C20.6201 3.31152 20.4102 3.24316 20.127 3.24316H3.20801C2.91504 3.24316 2.7002 3.31152 2.56348 3.44824C2.42676 3.58496 2.3584 3.7998 2.3584 4.09277V28.9072ZM6.5625 30.8701V25.4355C6.5625 24.8008 6.7041 24.3369 6.9873 24.0439C7.28027 23.7412 7.72461 23.5898 8.32031 23.5898H15C15.6055 23.5898 16.0498 23.7412 16.333 24.0439C16.6162 24.3369 16.7578 24.8008 16.7578 25.4355V30.8701H14.8389V25.9775C14.8389 25.665 14.6826 25.5088 14.3701 25.5088H8.9502C8.6377 25.5088 8.48145 25.665 8.48145 25.9775V30.8701H6.5625ZM6.79688 9.64453C6.41602 9.64453 6.22559 9.44434 6.22559 9.04395V6.27539C6.22559 5.875 6.41602 5.6748 6.79688 5.6748H9.65332C10.0537 5.6748 10.2539 5.875 10.2539 6.27539V9.04395C10.2539 9.44434 10.0537 9.64453 9.65332 9.64453H6.79688ZM13.667 9.64453C13.2764 9.64453 13.0811 9.44434 13.0811 9.04395V6.27539C13.0811 5.875 13.2764 5.6748 13.667 5.6748H16.5088C16.9092 5.6748 17.1094 5.875 17.1094 6.27539V9.04395C17.1094 9.44434 16.9092 9.64453 16.5088 9.64453H13.667ZM6.79688 15.4453C6.41602 15.4453 6.22559 15.2451 6.22559 14.8447V12.0762C6.22559 11.6758 6.41602 11.4756 6.79688 11.4756H9.65332C10.0537 11.4756 10.2539 11.6758 10.2539 12.0762V14.8447C10.2539 15.2451 10.0537 15.4453 9.65332 15.4453H6.79688ZM13.667 15.4453C13.2764 15.4453 13.0811 15.2451 13.0811 14.8447V12.0762C13.0811 11.6758 13.2764 11.4756 13.667 11.4756H16.5088C16.9092 11.4756 17.1094 11.6758 17.1094 12.0762V14.8447C17.1094 15.2451 16.9092 15.4453 16.5088 15.4453H13.667ZM6.79688 21.2461C6.41602 21.2461 6.22559 21.0459 6.22559 20.6455V17.877C6.22559 17.4766 6.41602 17.2764 6.79688 17.2764H9.65332C10.0537 17.2764 10.2539 17.4766 10.2539 17.877V20.6455C10.2539 21.0459 10.0537 21.2461 9.65332 21.2461H6.79688ZM13.667 21.2461C13.2764 21.2461 13.0811 21.0459 13.0811 20.6455V17.877C13.0811 17.4766 13.2764 17.2764 13.667 17.2764H16.5088C16.9092 17.2764 17.1094 17.4766 17.1094 17.877V20.6455C17.1094 21.0459 16.9092 21.2461 16.5088 21.2461H13.667Z" fill="#1F35B4"/>
</svg>
