<svg width="18" height="17" viewBox="0 0 18 17" fill="none" xmlns="http://www.w3.org/2000/svg">
<path fill-rule="evenodd" clip-rule="evenodd" d="M4.83329 0.166626C3.72822 0.166626 2.66842 0.605613 1.88701 1.38701C1.10561 2.16842 0.666626 3.22822 0.666626 4.33329V12.6666C0.666626 13.7717 1.10561 14.8315 1.88701 15.6129C2.66842 16.3943 3.72822 16.8333 4.83329 16.8333H13.1666C14.2717 16.8333 15.3315 16.3943 16.1129 15.6129C16.8943 14.8315 17.3333 13.7717 17.3333 12.6666V4.33329C17.3333 3.22822 16.8943 2.16842 16.1129 1.38701C15.3315 0.605613 14.2717 0.166626 13.1666 0.166626H4.83329ZM12.1083 7.40329C12.1831 7.32341 12.2415 7.22956 12.2801 7.1271C12.3187 7.02465 12.3367 6.91561 12.3332 6.80619C12.3296 6.69677 12.3045 6.58912 12.2594 6.4894C12.2142 6.38967 12.1498 6.29981 12.07 6.22496C11.9901 6.15011 11.8962 6.09172 11.7938 6.05314C11.6913 6.01455 11.5823 5.99653 11.4729 6.00008C11.3634 6.00364 11.2558 6.02872 11.1561 6.07388C11.0563 6.11904 10.9665 6.18341 10.8916 6.26329L8.32246 9.00496L7.05329 7.87746C6.88701 7.73922 6.6735 7.67104 6.45788 7.68731C6.24225 7.70358 6.04139 7.80302 5.89773 7.96464C5.75407 8.12626 5.67885 8.3374 5.68798 8.55344C5.6971 8.76949 5.78985 8.97353 5.94663 9.12246L7.82163 10.7891C7.98387 10.9332 8.19592 11.0084 8.4127 10.9986C8.62948 10.9888 8.83389 10.8948 8.98246 10.7366L12.1083 7.40329Z" fill="#1FB46E"/>
</svg>
