<svg width="18" height="18" viewBox="0 0 18 18" fill="none" xmlns="http://www.w3.org/2000/svg">
<g clip-path="url(#clip0_989_2150)">
<path fill-rule="evenodd" clip-rule="evenodd" d="M8.99996 17.0832C4.39759 17.0832 0.666626 13.3522 0.666626 8.74984C0.666626 4.14746 4.39759 0.416504 8.99996 0.416504C13.6023 0.416504 17.3333 4.14746 17.3333 8.74984C17.3333 13.3522 13.6023 17.0832 8.99996 17.0832ZM8.99996 9.7915C9.57526 9.7915 10.0416 9.32513 10.0416 8.74984V4.58317C10.0416 4.00787 9.57526 3.5415 8.99996 3.5415C8.42466 3.5415 7.95829 4.00787 7.95829 4.58317V8.74984C7.95829 9.32513 8.42466 9.7915 8.99996 9.7915ZM10.25 12.4998C10.25 11.8095 9.69032 11.2498 8.99996 11.2498C8.3096 11.2498 7.74996 11.8095 7.74996 12.4998C7.74996 13.1902 8.3096 13.7498 8.99996 13.7498C9.69032 13.7498 10.25 13.1902 10.25 12.4998Z" fill="#E87070"/>
</g>
<defs>
<clipPath id="clip0_989_2150">
<rect width="16.6667" height="16.6667" fill="white" transform="translate(0.666626 0.416504)"/>
</clipPath>
</defs>
</svg>
