<svg width="14" height="14" viewBox="0 0 14 14" fill="none" xmlns="http://www.w3.org/2000/svg">
<path fill-rule="evenodd" clip-rule="evenodd" d="M4.81205 2.1875H11.3746C11.4906 2.1875 11.6019 2.23359 11.6839 2.31564C11.766 2.39769 11.8121 2.50897 11.8121 2.625V9.1875C11.8121 9.30353 11.766 9.41481 11.6839 9.49686C11.6019 9.57891 11.4906 9.625 11.3746 9.625C11.2585 9.625 11.1472 9.57891 11.0652 9.49686C10.9831 9.41481 10.9371 9.30353 10.9371 9.1875V3.68083L2.93372 11.6842C2.85079 11.7614 2.74109 11.8035 2.62775 11.8015C2.51441 11.7995 2.40627 11.7536 2.32611 11.6734C2.24595 11.5933 2.20004 11.4851 2.19804 11.3718C2.19604 11.2585 2.23811 11.1488 2.31539 11.0658L10.3187 3.0625H4.81205C4.69602 3.0625 4.58474 3.01641 4.5027 2.93436C4.42065 2.85231 4.37455 2.74103 4.37455 2.625C4.37455 2.50897 4.42065 2.39769 4.5027 2.31564C4.58474 2.23359 4.69602 2.1875 4.81205 2.1875Z" fill="white"/>
</svg>
