<svg width="30" height="27" viewBox="0 0 30 27" fill="none" xmlns="http://www.w3.org/2000/svg">
<path d="M0 8.90039C0 7.60156 0.205078 6.41504 0.615234 5.34082C1.03516 4.25684 1.62109 3.31934 2.37305 2.52832C3.125 1.7373 4.00391 1.12695 5.00977 0.697266C6.02539 0.267578 7.12402 0.0527344 8.30566 0.0527344C9.66309 0.0527344 10.8789 0.350586 11.9531 0.946289C13.0273 1.54199 13.8916 2.33301 14.5459 3.31934C15.21 2.33301 16.0742 1.54199 17.1387 0.946289C18.2129 0.350586 19.4287 0.0527344 20.7861 0.0527344C21.9775 0.0527344 23.0762 0.267578 24.082 0.697266C25.0977 1.12695 25.9766 1.7373 26.7188 2.52832C27.4707 3.31934 28.0518 4.25684 28.4619 5.34082C28.8818 6.41504 29.0918 7.60156 29.0918 8.90039C29.0918 10.9805 28.54 13.041 27.4365 15.082C26.3428 17.1133 24.7852 19.0957 22.7637 21.0293C20.752 22.9531 18.3691 24.7939 15.6152 26.5518C15.459 26.6494 15.2783 26.7373 15.0732 26.8154C14.8779 26.9033 14.7021 26.9473 14.5459 26.9473C14.3994 26.9473 14.2236 26.9033 14.0186 26.8154C13.8232 26.7373 13.6475 26.6494 13.4912 26.5518C10.7373 24.7939 8.34961 22.9531 6.32812 21.0293C4.30664 19.0957 2.74414 17.1133 1.64062 15.082C0.546875 13.041 0 10.9805 0 8.90039ZM2.3584 8.90039C2.3584 10.2578 2.68555 11.6348 3.33984 13.0312C3.99414 14.418 4.88281 15.7803 6.00586 17.1182C7.12891 18.4561 8.39844 19.7354 9.81445 20.9561C11.2402 22.167 12.7197 23.2803 14.2529 24.2959C14.4092 24.4131 14.5068 24.4717 14.5459 24.4717C14.585 24.4717 14.6875 24.4131 14.8535 24.2959C16.3867 23.2803 17.8613 22.167 19.2773 20.9561C20.7031 19.7354 21.9727 18.4561 23.0859 17.1182C24.209 15.7803 25.0977 14.418 25.752 13.0312C26.4062 11.6348 26.7334 10.2578 26.7334 8.90039C26.7334 7.60156 26.4746 6.46875 25.957 5.50195C25.4492 4.52539 24.7461 3.76855 23.8477 3.23145C22.959 2.68457 21.9482 2.41113 20.8154 2.41113C19.8975 2.41113 19.1064 2.57715 18.4424 2.90918C17.7881 3.23145 17.2217 3.6416 16.7432 4.13965C16.2744 4.62793 15.874 5.11133 15.542 5.58984C15.3271 5.87305 15.1514 6.06836 15.0146 6.17578C14.8779 6.2832 14.7217 6.33691 14.5459 6.33691C14.3701 6.33691 14.209 6.28809 14.0625 6.19043C13.9258 6.08301 13.7549 5.88281 13.5498 5.58984C13.2373 5.10156 12.8467 4.61328 12.3779 4.125C11.9092 3.63672 11.3379 3.23145 10.6641 2.90918C9.99023 2.57715 9.19434 2.41113 8.27637 2.41113C7.14355 2.41113 6.12793 2.68457 5.22949 3.23145C4.34082 3.76855 3.6377 4.52539 3.12012 5.50195C2.6123 6.46875 2.3584 7.60156 2.3584 8.90039Z" fill="#FF0000"/>
</svg>
