<svg width="30" height="37" viewBox="0 0 30 37" fill="none" xmlns="http://www.w3.org/2000/svg">
<path d="M7.80762 8.19482C7.37793 8.19482 7.04102 8.06787 6.79688 7.81396C6.55273 7.56006 6.43066 7.20361 6.43066 6.74463V5.20654C6.43066 4.74756 6.55273 4.39111 6.79688 4.13721C7.04102 3.8833 7.37793 3.75635 7.80762 3.75635H9.14062C9.18945 2.92627 9.5166 2.21826 10.1221 1.63232C10.7373 1.04639 11.4697 0.753418 12.3193 0.753418C13.1689 0.753418 13.8965 1.04639 14.502 1.63232C15.1172 2.21826 15.4492 2.92627 15.498 3.75635H16.8457C17.2754 3.75635 17.6123 3.8833 17.8564 4.13721C18.1006 4.39111 18.2227 4.74756 18.2227 5.20654V6.74463C18.2227 7.20361 18.1006 7.56006 17.8564 7.81396C17.6123 8.06787 17.2754 8.19482 16.8457 8.19482H7.80762ZM12.3193 5.14795C12.6807 5.14795 12.9834 5.021 13.2275 4.76709C13.4717 4.51318 13.5938 4.21533 13.5938 3.87354C13.5938 3.51221 13.4717 3.20947 13.2275 2.96533C12.9834 2.71143 12.6807 2.58447 12.3193 2.58447C11.9678 2.58447 11.665 2.71143 11.4111 2.96533C11.167 3.20947 11.0449 3.51221 11.0449 3.87354C11.0449 4.21533 11.167 4.51318 11.4111 4.76709C11.665 5.021 11.9678 5.14795 12.3193 5.14795ZM4.54102 36.2466C3.02734 36.2466 1.88965 35.8608 1.12793 35.0894C0.375977 34.3276 0 33.1802 0 31.647V9.43994C0 7.93604 0.361328 6.79346 1.08398 6.01221C1.81641 5.23096 2.91504 4.84033 4.37988 4.84033H4.73145C4.72168 4.89893 4.7168 4.9624 4.7168 5.03076C4.7168 5.08936 4.7168 5.14795 4.7168 5.20654V6.5249C4.7168 6.79834 4.73633 7.02295 4.77539 7.19873H4.43848C3.74512 7.19873 3.22266 7.40381 2.87109 7.81396C2.5293 8.22412 2.3584 8.77588 2.3584 9.46924V31.6177C2.3584 32.3501 2.55371 32.9116 2.94434 33.3022C3.33496 33.6929 3.91113 33.8882 4.67285 33.8882H19.9805C20.7422 33.8882 21.3135 33.6929 21.6943 33.3022C22.085 32.9116 22.2803 32.3501 22.2803 31.6177V21.4224L24.6387 19.064V31.647C24.6387 33.1802 24.2578 34.3276 23.4961 35.0894C22.7441 35.8608 21.6113 36.2466 20.0977 36.2466H4.54102ZM22.2803 11.7104V9.46924C22.2803 8.77588 22.1045 8.22412 21.7529 7.81396C21.4111 7.40381 20.8984 7.19873 20.2148 7.19873H19.8633C19.9023 7.02295 19.9219 6.79834 19.9219 6.5249V5.20654C19.9219 5.14795 19.9219 5.08936 19.9219 5.03076C19.9219 4.9624 19.917 4.89893 19.9072 4.84033H20.2588C21.6846 4.84033 22.7686 5.19189 23.5107 5.89502C24.2627 6.59814 24.6387 7.58936 24.6387 8.86865V9.35205C24.5703 9.42041 24.502 9.48877 24.4336 9.55713C24.3652 9.62549 24.2969 9.69385 24.2285 9.76221L22.2803 11.7104ZM4.93652 15.4604C4.93652 15.2065 5.02441 14.9917 5.2002 14.8159C5.38574 14.6304 5.60547 14.5376 5.85938 14.5376H18.7939C18.999 14.5376 19.1748 14.5815 19.3213 14.6694L17.6221 16.3687H5.85938C5.60547 16.3687 5.38574 16.2808 5.2002 16.105C5.02441 15.9194 4.93652 15.7046 4.93652 15.4604ZM4.93652 20.646C4.93652 20.4019 5.02441 20.1919 5.2002 20.0161C5.38574 19.8403 5.60547 19.7524 5.85938 19.7524H14.2383L12.4219 21.5688H5.85938C5.60547 21.5688 5.38574 21.481 5.2002 21.3052C5.02441 21.1196 4.93652 20.8999 4.93652 20.646ZM5.85938 27.0474C5.60547 27.0474 5.38574 26.9595 5.2002 26.7837C5.02441 26.5981 4.93652 26.3833 4.93652 26.1392C4.93652 25.8853 5.02441 25.6704 5.2002 25.4946C5.38574 25.3188 5.60547 25.231 5.85938 25.231H7.89551C8.14941 25.231 8.36426 25.3188 8.54004 25.4946C8.72559 25.6704 8.81836 25.8853 8.81836 26.1392C8.81836 26.3833 8.72559 26.5981 8.54004 26.7837C8.36426 26.9595 8.14941 27.0474 7.89551 27.0474H5.85938ZM27.627 13.2778L25.5908 11.2271L26.6895 10.1284C26.9336 9.88428 27.2168 9.75244 27.5391 9.73291C27.8711 9.71338 28.1543 9.8208 28.3887 10.0552L28.7402 10.4067C28.9941 10.6606 29.1211 10.9536 29.1211 11.2856C29.1211 11.6079 28.9893 11.9009 28.7256 12.1646L27.627 13.2778ZM11.2061 28.0288C11.0693 28.0874 10.9424 28.0532 10.8252 27.9263C10.708 27.7993 10.6836 27.6724 10.752 27.5454L12.1582 24.6597L24.4775 12.3403L26.543 14.3765L14.1943 26.6958L11.2061 28.0288Z" fill="#1FB46E"/>
</svg>
