<svg width="33" height="32" viewBox="0 0 33 32" fill="none" xmlns="http://www.w3.org/2000/svg">
<rect x="1.07501" y="0.5" width="31" height="31" rx="5.5" stroke="white" stroke-opacity="0.07"/>
<g clip-path="url(#clip0_757_1964)">
<path d="M24.7489 11.4771C23.73 11.4771 22.7899 11.1395 22.035 10.5701C21.1692 9.91732 20.5471 8.95978 20.3274 7.85614C20.273 7.58345 20.2437 7.30205 20.2409 7.01367H17.3303V14.9669L17.3268 19.3232C17.3268 20.4879 16.5684 21.4754 15.517 21.8227C15.2119 21.9235 14.8824 21.9713 14.5393 21.9524C14.1013 21.9284 13.6909 21.7962 13.3342 21.5828C12.575 21.1288 12.0603 20.3052 12.0464 19.363C12.0244 17.8904 13.2149 16.6898 14.6864 16.6898C14.9769 16.6898 15.2559 16.7372 15.517 16.8234V14.6496V13.8681C15.2416 13.8273 14.9612 13.8061 14.6777 13.8061C13.067 13.8061 11.5606 14.4756 10.4839 15.6817C9.66998 16.5932 9.1818 17.7562 9.10648 18.9756C9.0078 20.5775 9.59397 22.1003 10.7307 23.2238C10.8978 23.3887 11.0732 23.5418 11.2566 23.6831C12.2312 24.4331 13.4227 24.8397 14.6777 24.8397C14.9612 24.8397 15.2416 24.8188 15.517 24.778C16.6894 24.6043 17.771 24.0677 18.6247 23.2238C19.6736 22.1871 20.2531 20.8108 20.2594 19.3459L20.2444 12.8405C20.7448 13.2265 21.2919 13.5459 21.8791 13.7938C22.7924 14.1792 23.7607 14.3744 24.7573 14.3741V12.2606V11.4764C24.758 11.4771 24.7496 11.4771 24.7489 11.4771Z" fill="white"/>
</g>
<defs>
<clipPath id="clip0_757_1964">
<rect width="17.8536" height="17.8536" fill="white" transform="translate(8 7)"/>
</clipPath>
</defs>
</svg>
