<svg width="22" height="22" viewBox="0 0 22 22" fill="none" xmlns="http://www.w3.org/2000/svg">
<path d="M7.99018 16.75C7.58018 16.75 7.24018 16.41 7.24018 16V11.81L6.52018 12.53C6.23018 12.82 5.75018 12.82 5.46018 12.53C5.17018 12.24 5.17018 11.76 5.46018 11.47L7.46018 9.46999C7.67018 9.25999 8.00018 9.18999 8.28018 9.30999C8.56018 9.41999 8.74018 9.69999 8.74018 9.99999V16C8.74018 16.41 8.40018 16.75 7.99018 16.75Z" fill="#292D32"/>
<path d="M9.98992 12.7399C9.79992 12.7399 9.60992 12.6699 9.45992 12.5199L7.44992 10.5199C7.15992 10.2299 7.15992 9.74993 7.44992 9.45993C7.73992 9.16993 8.21992 9.16993 8.50992 9.45993L10.5099 11.4599C10.7999 11.7499 10.7999 12.2299 10.5099 12.5199C10.3599 12.6699 10.1699 12.7399 9.97992 12.7399H9.98992Z" fill="#292D32"/>
<path d="M14 21.75H8C2.57 21.75 0.25 19.43 0.25 14V8C0.25 2.57 2.57 0.25 8 0.25H13C13.41 0.25 13.75 0.59 13.75 1C13.75 1.41 13.41 1.75 13 1.75H8C3.39 1.75 1.75 3.39 1.75 8V14C1.75 18.61 3.39 20.25 8 20.25H14C18.61 20.25 20.25 18.61 20.25 14V9C20.25 8.59 20.59 8.25 21 8.25C21.41 8.25 21.75 8.59 21.75 9V14C21.75 19.43 19.43 21.75 14 21.75Z" fill="#292D32"/>
<path d="M21 9.74998H17C13.58 9.74998 12.25 8.40998 12.25 4.98998V0.989979C12.25 0.689979 12.43 0.409979 12.71 0.299979C12.99 0.179979 13.31 0.249979 13.53 0.459979L21.53 8.45998C21.74 8.66998 21.81 8.99998 21.69 9.27998C21.57 9.55998 21.3 9.73998 21 9.73998V9.74998ZM13.75 2.79998V4.98998C13.75 7.56998 14.42 8.23998 17 8.23998H19.19L13.75 2.79998Z" fill="#292D32"/>
</svg>
