<svg width="1200" height="140" viewBox="0 0 1200 140" fill="none" xmlns="http://www.w3.org/2000/svg">
<rect width="1200" height="140" rx="8" fill="url(#paint0_linear_138_47)"/>
<mask id="mask0_138_47" style="mask-type:alpha" maskUnits="userSpaceOnUse" x="0" y="0" width="1200" height="140">
<rect width="1200" height="140" fill="url(#paint1_linear_138_47)"/>
</mask>
<g mask="url(#mask0_138_47)">
<g opacity="0.3">
<path d="M437.562 -272.537L193.285 143.963C164.143 193.653 199.704 256.092 257.291 256.353L740.036 258.571C797.624 258.832 834.056 196.722 805.61 146.771L567.135 -271.939C538.69 -321.89 466.704 -322.228 437.562 -272.537Z" stroke="url(#paint2_linear_138_47)" stroke-width="0.5"/>
<path d="M437.771 -261.603L204.843 141.962C177.049 190.106 211.796 250.118 267.375 249.991L733.26 248.882C788.838 248.754 823.576 188.571 795.785 140.563L562.828 -261.893C535.035 -309.916 465.565 -309.747 437.771 -261.603Z" stroke="url(#paint3_linear_138_47)" stroke-width="0.5"/>
<path d="M437.979 -250.669L216.385 139.963C189.948 186.567 223.866 244.155 277.433 243.623L726.453 239.196C780.02 238.665 813.072 180.415 785.927 134.344L558.487 -251.859C531.371 -297.933 464.409 -297.264 437.979 -250.669Z" stroke="url(#paint4_linear_138_47)" stroke-width="0.5"/>
<path d="M438.19 -239.736L227.937 137.97C202.857 183.034 235.946 238.197 287.504 237.277L719.679 229.521C771.237 228.601 802.587 172.27 776.111 128.142L554.188 -241.808C527.711 -285.952 463.263 -284.791 438.19 -239.736Z" stroke="url(#paint5_linear_138_47)" stroke-width="0.5"/>
<path d="M438.383 -228.801L239.486 135.961C215.755 179.479 248.023 232.224 297.57 230.9L712.872 219.834C762.419 218.51 792.076 164.121 766.262 121.928L549.871 -231.77C524.048 -273.97 462.115 -272.319 438.383 -228.801Z" stroke="url(#paint6_linear_138_47)" stroke-width="0.5"/>
<path d="M438.591 -217.867L251.036 133.968C228.661 175.946 260.108 226.259 307.645 224.545L706.088 210.154C753.625 208.44 781.595 155.97 756.427 115.713L545.538 -221.73C520.385 -261.988 460.966 -259.845 438.591 -217.867Z" stroke="url(#paint7_linear_138_47)" stroke-width="0.5"/>
<path d="M438.799 -206.933L262.586 131.975C241.56 172.406 272.186 220.301 317.714 218.199L699.299 200.495C744.825 198.378 771.095 147.842 746.595 109.528L541.225 -211.662C516.722 -250.006 459.826 -247.365 438.799 -206.933Z" stroke="url(#paint8_linear_138_47)" stroke-width="0.5"/>
<path d="M439.009 -195.999L274.145 129.975C254.475 168.866 284.281 214.343 327.789 211.83L692.507 190.793C736.014 188.281 760.605 139.669 736.76 103.299L536.907 -201.638C513.067 -238.032 458.679 -234.89 439.009 -195.999Z" stroke="url(#paint9_linear_138_47)" stroke-width="0.5"/>
<path d="M439.218 -185.066L285.687 127.974C267.366 165.319 296.358 208.37 337.856 205.468L685.717 181.12C727.215 178.218 750.112 131.533 726.928 97.098L532.59 -191.6C509.404 -226.05 457.53 -222.418 439.218 -185.066Z" stroke="url(#paint10_linear_138_47)" stroke-width="0.5"/>
<path d="M439.42 -174.136L297.231 125.977C280.267 161.782 308.43 202.408 347.917 199.103L678.918 171.428C718.405 168.122 739.61 123.379 717.078 90.8724L528.258 -181.572C505.743 -214.066 456.384 -209.941 439.42 -174.136Z" stroke="url(#paint11_linear_138_47)" stroke-width="0.5"/>
<path d="M439.628 -163.204L308.787 123.974C293.18 158.24 320.515 196.441 357.992 192.746L672.136 161.76C709.613 158.066 729.122 115.234 707.254 84.6775L523.95 -171.514C502.08 -202.085 455.235 -197.469 439.628 -163.204Z" stroke="url(#paint12_linear_138_47)" stroke-width="0.5"/>
<path d="M439.834 -152.268L320.336 121.983C306.077 154.702 332.591 190.485 368.057 186.387L665.341 152.074C700.808 147.976 718.625 107.085 697.417 78.4645L519.631 -161.474C498.415 -190.101 454.086 -184.979 439.834 -152.268Z" stroke="url(#paint13_linear_138_47)" stroke-width="0.5"/>
<path d="M440.044 -141.335L331.894 119.982C318.992 151.161 344.684 184.511 378.141 180.024L658.559 142.393C692.016 137.906 708.146 98.9331 687.584 72.2493L515.316 -151.436C494.754 -178.12 452.939 -172.506 440.044 -141.335Z" stroke="url(#paint14_linear_138_47)" stroke-width="0.5"/>
<path d="M440.243 -130.409L343.436 117.981C331.882 147.614 356.754 178.546 388.193 173.663L651.752 132.705C683.19 127.823 697.634 90.7835 677.734 66.035L510.983 -141.397C491.097 -166.147 451.79 -160.033 440.243 -130.409Z" stroke="url(#paint15_linear_138_47)" stroke-width="0.5"/>
<path d="M440.446 -119.468L354.979 115.98C344.782 144.073 368.825 172.581 398.261 167.301L644.962 123.031C674.399 117.752 687.14 82.632 667.902 59.8338L506.669 -131.345C487.436 -154.166 450.643 -147.561 440.446 -119.468Z" stroke="url(#paint16_linear_138_47)" stroke-width="0.5"/>
<path d="M440.656 -108.532L366.53 113.989C357.682 140.535 380.911 166.617 408.329 160.941L638.171 113.345C665.589 107.67 676.645 74.4835 658.069 53.6206L502.352 -121.305C483.774 -142.182 449.504 -135.079 440.656 -108.532Z" stroke="url(#paint17_linear_138_47)" stroke-width="0.5"/>
<path d="M440.863 -97.5974L378.086 111.989C370.595 136.996 392.995 160.652 418.41 154.58L631.386 103.665C656.794 97.5861 666.157 66.341 648.233 47.4069L498.034 -111.265C480.11 -130.199 448.354 -122.604 440.863 -97.5974Z" stroke="url(#paint18_linear_138_47)" stroke-width="0.5"/>
<path d="M441.072 -86.6651L389.637 109.994C383.502 133.461 405.074 154.694 428.471 148.225L624.596 93.9911C647.994 87.523 655.662 58.1894 638.401 41.2056L493.711 -101.22C476.448 -118.218 447.206 -110.132 441.072 -86.6651Z" stroke="url(#paint19_linear_138_47)" stroke-width="0.5"/>
<path d="M441.272 -75.7372L401.179 107.996C396.393 129.916 417.143 148.73 438.538 141.865L617.797 84.3125C639.184 77.4405 645.159 50.0482 628.559 34.9998L489.386 -91.1721C472.784 -106.236 446.058 -97.6576 441.272 -75.7372Z" stroke="url(#paint20_linear_138_47)" stroke-width="0.5"/>
<path d="M441.482 -64.8031L412.738 105.995C409.308 126.375 429.237 142.757 448.614 135.496L611.014 74.6167C630.391 67.3558 634.679 41.8817 618.725 28.7703L485.069 -81.1484C469.13 -94.2615 444.911 -85.1837 441.482 -64.8031Z" stroke="url(#paint21_linear_138_47)" stroke-width="0.5"/>
<path d="M441.69 -53.869L424.287 104.002C422.206 122.836 441.323 136.806 458.682 129.15L604.216 64.9525C621.575 57.2961 624.178 33.7551 608.885 22.579L480.746 -71.0864C465.466 -82.2791 443.77 -72.7032 441.69 -53.869Z" stroke="url(#paint22_linear_138_47)" stroke-width="0.5"/>
<path d="M441.899 -42.936L435.837 101.993C435.113 119.288 453.401 130.833 468.748 122.773L597.431 55.2556C612.787 47.2019 613.681 25.589 599.057 16.3549L476.437 -61.0571C461.804 -70.2978 442.616 -60.2221 441.899 -42.936Z" stroke="url(#paint23_linear_138_47)" stroke-width="0.5"/>
</g>
<path d="M1109.96 139.717C1104.5 139.717 1079.84 139.723 1048.57 139.717C1039.93 139.716 1030.79 139.713 1021.4 139.709C1014.29 139.706 1007.03 139.703 999.744 139.699C995.633 139.696 991.514 139.695 987.408 139.691C932.357 139.648 923.584 140.264 914.847 139.717C898.594 139.717 856.964 76.5536 906.522 35.081C925.767 18.9768 901.068 -2.4186 933.031 -18.4866C954.051 -29.0535 969.318 -10.4898 994.692 -17.1777C1013.44 -22.1185 1017.25 -33.7089 1054.31 -30.4967C1089.95 -27.4087 1090.67 1.85428 1079.36 26.0183C1072.23 41.2747 1107.23 36.5635 1123.41 59.3318C1151.04 98.1919 1110.21 139.139 1109.96 139.717Z" fill="url(#paint24_linear_138_47)"/>
<path d="M1067.95 101.873C1067.95 101.873 1069.94 101.8 1071.41 101.38C1072.92 100.945 1074.05 99.409 1075.25 99.4984C1077.77 99.6848 1082.55 98.904 1082.08 99.7897C1081.6 100.675 1078.72 100.447 1078.38 100.973C1078.04 101.498 1082.49 102.839 1083.77 103.077C1085.06 103.315 1089.87 103.854 1089.7 104.493C1089.54 105.132 1083.13 108.12 1079.34 107.321C1075.56 106.523 1068.76 105.16 1068.76 105.16L1067.95 101.873Z" fill="#FFB27D"/>
<path d="M1015.37 5.98382C1009.8 3.09546 1005.34 4.91064 1005.34 4.91064C988.309 2.90996 983.342 22.774 983.572 29.6093C983.799 36.4427 985.496 41.895 977.446 48.9741C967.851 57.4109 970.083 68.5603 975.058 72.5102C977.213 74.2234 980.035 75.5141 983.023 76.4863C986.72 77.6906 990.668 78.4064 993.921 78.8318C995.716 79.0668 997.297 79.2134 998.509 79.3028C998.509 79.3028 998.509 79.3028 998.511 79.3028C998.708 79.3173 998.893 79.33 999.069 79.3416L999.07 79.3416C1000.3 79.4242 1001.02 79.4417 1001.02 79.4417C1001.16 72.1033 1004.4 68.3525 1008.45 66.6568C1008.45 66.6568 1008.45 66.6568 1008.46 66.6558C1009.4 66.2615 1010.38 65.9779 1011.38 65.7866C1011.38 65.7866 1011.38 65.7866 1011.38 65.7866C1014.15 65.2553 1017.03 65.4272 1019.42 65.8924C1022.84 66.5587 1025.25 67.8232 1024.9 68.505C1026.88 68.9808 1028.62 69.1751 1030.15 69.1188C1032.38 69.0391 1034.14 68.4243 1035.5 67.3784C1047.98 57.7547 1026.07 11.5333 1015.37 5.98382Z" fill="#163560"/>
<path d="M1016.56 51.4531C1016.56 51.4531 1029.41 53.2868 1033.86 59.2995C1039.48 66.8952 1045.01 88.3102 1049.03 92.1436C1053.05 95.9769 1069.87 101.695 1069.87 101.695C1069.87 101.695 1070.49 105.384 1068.56 106.511C1065.29 108.418 1048.8 107.589 1039.23 102.449C1030.05 97.5172 1023.55 86.732 1023.55 86.732L1016.56 51.4531Z" fill="#8C9DF4"/>
<path d="M947.481 82.0068C947.481 82.0068 944.797 76.9866 942.296 76.6661C939.795 76.3466 935.267 74.6256 935.555 75.5881C935.842 76.5506 938.715 76.9041 938.943 77.4868C939.171 78.0695 934.543 78.4939 933.233 78.4697C931.924 78.4454 928.866 78.0744 928.9 78.7338C928.934 79.3923 934.124 82.5788 937.992 82.5536C941.86 82.5283 946.465 84.4435 946.465 84.4435L947.481 82.0068Z" fill="#FFB27D"/>
<path d="M992.364 87.61C992.364 87.61 990.369 90.8082 986.952 94.3803C982.834 98.6788 976.645 103.515 969.388 103.924C965.922 104.119 962.643 103.081 959.692 101.437C959.684 101.433 959.681 101.433 959.681 101.433C951.333 96.7859 945.596 87.3157 945.596 87.3157C944.441 82.9958 946.552 80.4785 946.552 80.4785C946.552 80.4785 964.366 85.7948 966.16 85.2403C973.382 83.0075 978.43 64.1069 982.701 58.068C986.282 53.0032 998.782 51.4531 998.782 51.4531L992.364 87.61Z" fill="#8C9DF4"/>
<path d="M986.952 94.3798C982.834 98.6783 976.645 103.515 969.389 103.924C965.922 104.119 962.644 103.081 959.692 101.437C960.028 101.512 968.617 103.371 972.64 97.4896C976.744 91.4895 981.47 81.7988 986.415 85.6186C988.548 87.2677 988.123 90.8456 986.952 94.3798Z" fill="#6F84DD"/>
<path d="M1031.42 91.5958C1031.08 94.3287 1030.56 97.2365 1029.83 100.322C1028.7 105.176 1026.73 107.084 1025.87 107.711C1025.61 107.902 1025.45 107.975 1025.45 107.975L1010.24 111.703L1004.89 113.013L988.027 107.975C988.027 107.975 980.345 86.5329 983.43 74.4628C986.514 62.3927 988.715 56.647 988.715 56.647C988.715 56.647 999.682 52.1824 1023.31 56.1411C1023.31 56.1411 1034.56 66.6514 1031.42 91.5958Z" fill="#8C9DF4"/>
<path d="M1013.02 140.185C1006.33 140.182 999.509 140.179 992.669 140.175C988.807 140.173 984.937 140.172 981.081 140.169C982.809 131.648 986.58 119.167 988.263 113.757C988.78 112.088 989.101 111.092 989.101 111.092L1011.7 111.092C1011.7 111.092 1011.7 111.179 1011.7 111.347L1011.7 111.426C1011.71 112.012 1011.72 113.357 1011.76 115.338C1011.88 120.275 1012.18 129.174 1013.02 140.185Z" fill="#2B478B"/>
<path d="M1038.53 140.191C1030.42 140.19 1021.83 140.187 1013.02 140.183C1006.33 140.18 999.509 140.177 992.669 140.173C990.614 135.433 992.928 122.469 994.217 116.266C994.29 115.918 994.358 115.59 994.423 115.287C994.445 115.187 994.467 115.088 994.487 114.993C994.775 113.665 994.966 112.872 994.966 112.872L998.301 112.583L999.501 112.478L1002.3 112.236L1011.21 111.464L1011.22 111.464L1011.7 111.423L1024.49 110.314C1024.49 110.314 1025.2 111.263 1026.29 112.866C1029.85 118.064 1037.51 130.132 1038.42 138.964C1038.46 139.344 1038.49 139.753 1038.53 140.191Z" fill="#2B478B"/>
<path d="M1026.29 90.1594C1028.34 93.8694 1030.79 95.6914 1030.79 95.6914C1030.2 103.946 1026.73 107.083 1025.87 107.709L1025.45 107.832L1012.22 109.113C1012.22 109.113 1018.09 107.058 1019.25 103.301C1020.41 99.5441 1018.53 94.7571 1020.07 88.9066C1021.42 83.7563 1022.7 83.6621 1026.29 90.1594Z" fill="#6F84DD"/>
<path d="M987.766 107.076C987.766 107.076 991.12 109.729 997.78 109.863C1005.74 110.023 1025.45 107.834 1025.45 107.834C1025.45 107.834 1026.33 110.281 1026.29 112.866C1026.29 112.866 1002.21 118.939 988.261 113.752C988.262 113.753 986.463 110.368 987.766 107.076Z" fill="#233862"/>
<path d="M999.499 112.482C999.49 112.089 999.429 111.712 999.326 111.353L999.326 111.352C999.302 111.264 999.274 111.179 999.242 111.093C999.086 110.643 998.857 110.232 998.575 109.876C997.91 109.035 996.944 108.506 995.871 108.506C995.01 108.506 994.22 108.847 993.598 109.415C993.536 109.47 993.477 109.529 993.419 109.589C993.019 110.002 992.704 110.515 992.501 111.093C992.333 111.564 992.241 112.078 992.241 112.615C992.241 113.52 992.501 114.357 992.942 115.037C993.274 115.552 993.712 115.977 994.217 116.271C994.713 116.561 995.275 116.723 995.872 116.723C996.786 116.723 997.62 116.342 998.258 115.709C999.021 114.957 999.502 113.848 999.502 112.615C999.502 112.57 999.502 112.526 999.499 112.482ZM998.3 112.614C998.3 114.133 997.319 115.385 996.076 115.508L996.07 115.508C996.003 115.517 995.938 115.52 995.871 115.52C995.629 115.52 995.395 115.478 995.174 115.398L995.172 115.398C994.922 115.308 994.693 115.172 994.486 114.996C993.857 114.471 993.445 113.6 993.445 112.615C993.445 112.057 993.577 111.536 993.806 111.093C994.045 110.626 994.394 110.246 994.807 110.003C995.049 109.86 995.316 109.765 995.596 109.727C995.686 109.714 995.779 109.708 995.872 109.708C996.088 109.708 996.3 109.743 996.5 109.808C996.502 109.81 996.502 109.81 996.503 109.81C996.505 109.81 996.505 109.81 996.506 109.81C997.047 109.984 997.514 110.378 997.837 110.909L997.837 110.911C997.872 110.97 997.907 111.031 997.939 111.095C998.164 111.53 998.296 112.041 998.301 112.589L998.301 112.614L998.3 112.614Z" fill="#6F84DD"/>
<path d="M1015.98 52.5516C1015.08 50.8646 1012.51 42.285 1012.53 37.8301L1011.76 37.9573L998.923 40.1114C998.923 40.1114 999.215 43.5349 999.224 46.7603C999.224 46.7875 999.224 46.8137 999.224 46.8409C999.239 49.6418 999.187 51.0209 999.748 54.492C1000 56.0576 999.466 67.2973 1004.84 66.4903C1006.76 66.2008 1016.57 53.6655 1015.98 52.5516Z" fill="#FFB27D"/>
<path d="M998.922 40.1131C998.922 40.1131 999.214 43.5366 999.223 46.762C1006.41 46.5901 1010.21 41.0377 1011.76 37.959L998.922 40.1131Z" fill="#E8945B"/>
<path d="M996.523 44.1294C996.523 44.1294 1013.52 44.4101 1013.54 33.8201C1013.55 23.2301 1015.75 16.1345 1004.9 15.5081C994.042 14.8817 991.928 18.9199 991.065 22.4532C990.201 25.9874 992.101 43.7837 996.523 44.1294Z" fill="#FFB27D"/>
<path d="M997.152 15.2463C997.152 15.2463 1001.81 27.6699 1008.95 29.5074C1016.09 31.3439 1019.19 29.4307 1019.19 29.4307C1019.19 29.4307 1013.71 25.0778 1012.58 17.48C1012.58 17.4791 1000.66 9.33262 997.152 15.2463Z" fill="#163560"/>
<path d="M998.305 16.2541C998.305 16.2541 994.853 17.5448 993.432 20.0622C992.044 22.5242 990.86 25.7845 991.135 29.7839C991.135 29.7839 987.628 21.3393 991.569 16.5629C995.748 11.4971 998.305 16.2541 998.305 16.2541Z" fill="#163560"/>
<path d="M1003.37 66.7086C1003.37 66.7086 1014.44 54.5482 1014.89 49.6504C1014.89 49.6504 1017.19 49.6941 1021.41 51.8851C1021.73 52.0493 1021.87 52.4329 1021.74 52.7612C1020.91 54.7162 1018.07 61.0737 1015.34 62.9374C1015.34 62.9374 1013 62.5955 1011.16 61.8264C1011.16 61.8264 1012.32 63.7765 1013.24 64.942C1013.24 64.941 1008.14 67.7992 1003.37 66.7086Z" fill="#6F84DD"/>
<path d="M999.245 49.4465C999.245 49.4465 999.5 57.2696 1003.37 66.7077C1003.37 66.7077 998.126 65.6773 995.448 61.9634C995.448 61.9634 996.295 59.9821 997.008 59.5257C997.008 59.5257 995.436 58.8905 994.442 59.8054C994.442 59.8054 993.391 52.9089 994.195 51.7007C994.528 51.1986 998.427 49.228 999.245 49.4465Z" fill="#6F84DD"/>
<path d="M1004.2 66.7112C1004.21 66.2499 1003.83 65.873 1003.37 65.8711C1002.91 65.8692 1002.53 66.2411 1002.53 66.7025C1002.53 67.1638 1002.9 67.5406 1003.36 67.5425C1003.83 67.5455 1004.2 67.1735 1004.2 66.7112Z" fill="#233862"/>
<path d="M999.683 78.5413C999.685 78.08 999.313 77.7031 998.852 77.7012C998.39 77.6992 998.014 78.0712 998.012 78.5325C998.01 78.9938 998.382 79.3707 998.843 79.3726C999.304 79.3746 999.68 79.0026 999.683 78.5413Z" fill="#233862"/>
<path d="M998.774 92.4378C998.776 91.9755 998.404 91.5996 997.943 91.5977C997.481 91.5948 997.104 91.9677 997.103 92.429C997.101 92.8903 997.473 93.2672 997.934 93.2691C998.396 93.272 998.772 92.8991 998.774 92.4378Z" fill="#233862"/>
<path d="M1066.23 84.8922L1066.23 88.6682C1066.23 89.3908 1065.64 89.9822 1064.92 89.9822L1062.21 89.9822C1061.49 89.9822 1060.9 89.3908 1060.9 88.6682L1060.9 84.8922C1060.9 84.1696 1061.49 83.5781 1062.21 83.5781L1064.92 83.5781C1065.64 83.5781 1066.23 84.1696 1066.23 84.8922Z" fill="#ED7D2B"/>
<path d="M1066.23 84.8922L1066.23 86.9958C1066.23 87.7184 1065.64 88.3098 1064.92 88.3098L1062.21 88.3098C1061.49 88.3098 1060.9 87.7184 1060.9 86.9958L1060.9 84.8922C1060.9 84.1696 1061.49 83.5781 1062.21 83.5781L1064.92 83.5781C1065.64 83.5781 1066.23 84.1696 1066.23 84.8922Z" fill="#F99746"/>
<path d="M1096.21 86.7808C1096.21 88.7135 1095.82 90.5578 1095.1 92.2371C1092.96 97.2766 1087.95 100.833 1082.16 100.833L1078.14 100.833C1073.01 100.833 1068.5 98.0487 1066.05 93.9163C1064.8 91.8214 1064.09 89.3807 1064.09 86.7808C1064.09 84.8481 1064.48 83.0048 1065.2 81.3246C1067.34 76.286 1072.34 72.7285 1078.14 72.7285L1082.16 72.7285C1087.43 72.7285 1092.05 75.6703 1094.45 79.9921C1095.57 82.0083 1096.21 84.3237 1096.21 86.7808Z" fill="#ED7D2B"/>
<path d="M1084.54 94.8682L1083.22 103.38C1083.05 104.039 1083.55 104.684 1084.23 104.684L1087.67 104.684C1088.41 104.684 1089.09 104.271 1089.43 103.615L1094.78 92.9355L1084.54 94.8682Z" fill="#ED7D2B"/>
<path d="M1076.69 95.0125L1077.74 103.377C1077.92 104.037 1077.42 104.682 1076.74 104.682L1073.29 104.682C1072.56 104.682 1071.88 104.269 1071.54 103.612L1066.05 93.9141L1076.69 95.0125Z" fill="#ED7D2B"/>
<path d="M1099.56 90.5993C1099.48 90.5993 1099.4 90.5896 1099.32 90.5683C1098.71 90.407 1098.36 89.6786 1098.41 88.6647C1098.46 87.6712 1098.87 86.6223 1099.55 85.787C1099.85 85.417 1100.2 85.0936 1100.58 84.8197C1100.4 84.5186 1100.15 84.2302 1099.82 83.9825C1099.26 83.5601 1098.68 83.4387 1098.04 83.6106C1096.34 84.0729 1094.9 86.5067 1094.78 86.7806C1094.73 86.9272 1094.57 87.0049 1094.42 86.9554C1094.27 86.9049 1094.19 86.7417 1094.24 86.5912C1094.29 86.4397 1094.71 85.7132 1095.3 84.9936C1096.32 83.7397 1097.22 83.2638 1097.78 83.0861C1098.63 82.8229 1099.43 82.9686 1100.17 83.5212C1100.53 83.7951 1100.84 84.1282 1101.07 84.5118C1101.65 84.1865 1102.31 83.9602 1103.03 83.8427C1103.19 83.8174 1103.33 83.9233 1103.36 84.0806C1103.39 84.238 1103.28 84.3856 1103.12 84.4118C1102.46 84.5196 1101.86 84.7275 1101.33 85.0266C1101.49 85.4199 1101.6 85.855 1101.64 86.3231C1101.72 87.2875 1101.53 88.3403 1101.11 89.2115C1100.68 90.1011 1100.11 90.5993 1099.56 90.5993ZM1100.84 85.348C1100.53 85.5792 1100.24 85.8482 1100 86.1512C1099.39 86.8932 1099.03 87.8198 1098.98 88.6929C1098.95 89.3853 1099.15 89.9282 1099.47 90.0118C1099.79 90.0963 1100.25 89.665 1100.59 88.9629C1100.96 88.1937 1101.14 87.2264 1101.07 86.3746C1101.04 86.0687 1100.98 85.7113 1100.84 85.348ZM1094.78 86.7747C1094.78 86.7767 1094.78 86.7786 1094.78 86.7796C1094.78 86.7777 1094.78 86.7767 1094.78 86.7747Z" fill="#ED7D2B"/>
<path d="M1094.45 79.9941C1094.78 81.615 1094.52 83.9313 1094.09 85.158C1091.26 93.3141 1084.59 94.7874 1077.78 95.4071C1072.93 95.848 1066.05 93.9182 1066.05 93.9182C1064.8 91.8233 1064.09 89.3827 1064.09 86.7828C1064.09 84.8501 1064.48 83.0068 1065.2 81.3266C1067.34 76.288 1072.34 72.7305 1078.14 72.7305L1082.16 72.7305C1087.43 72.7295 1092.05 75.6713 1094.45 79.9941Z" fill="#F99746"/>
<path d="M1076.48 76.2482L1070.96 76.2482C1070.4 76.2482 1069.95 75.9102 1069.95 75.4926L1069.95 67.9464C1069.95 67.8172 1069.99 67.7007 1070.06 67.5987C1070.33 67.2063 1071.04 67.0451 1071.57 67.3442C1073.67 68.534 1077.1 71.1193 1077.49 75.4411C1077.53 75.8782 1077.07 76.2482 1076.48 76.2482Z" fill="#F99746"/>
<path d="M1071.18 76.2491L1070.96 76.2491C1070.4 76.2491 1069.95 75.9112 1069.95 75.4935L1069.95 67.9473C1069.95 67.8181 1069.99 67.7016 1070.06 67.5996C1070.08 67.62 1070.1 67.6423 1070.13 67.6666C1071.33 69.003 1073.06 71.6291 1072.57 75.3071C1072.5 75.8412 1071.9 76.2491 1071.18 76.2491Z" fill="#ED7D2B"/>
<path d="M1068.27 81.2943C1068.27 80.8398 1068.64 80.4707 1069.09 80.4707C1069.55 80.4707 1069.92 80.8398 1069.92 81.2943C1069.92 81.7488 1069.55 82.1179 1069.09 82.1179C1068.64 82.1179 1068.27 81.7488 1068.27 81.2943Z" fill="#2B478B"/>
<path opacity="0.5" d="M1050.58 120.724C1050.58 120.724 1052.46 123.373 1054.19 123.409C1055.91 123.446 1058.54 122.181 1058.54 122.181C1058.54 122.181 1060.12 118.651 1059.05 117.27C1059.05 117.27 1057.97 116.797 1056.84 117.632C1056.65 117.777 1056.45 117.958 1056.26 118.191C1055.99 118.519 1055.68 118.707 1055.36 118.805C1054.13 119.179 1052.66 118.299 1052.12 119.148C1051.8 119.643 1051.45 120.014 1051.17 120.275C1050.83 120.576 1050.58 120.724 1050.58 120.724Z" fill="#AEC3FF"/>
<path opacity="0.5" d="M1075.11 139.83C1075.11 139.83 1068.46 123.715 1056.49 123.408C1056.49 123.408 1045.44 124.636 1044.83 139.83L1075.11 139.83Z" fill="#AEC3FF"/>
<path d="M1059.77 123.9C1059.77 123.9 1054.97 124.968 1053.49 124.34C1053.49 124.34 1053.27 122.334 1055.29 122.615C1056.67 122.808 1057.57 122.143 1058.1 121.873C1058.85 121.492 1059.97 123.061 1059.77 123.9Z" fill="#8C9DF4"/>
<path opacity="0.5" d="M1055.59 120.878C1055.9 121.108 1056.84 117.633 1056.84 117.633C1056.65 117.778 1056.45 117.958 1056.26 118.191C1055.99 118.52 1055.68 118.707 1055.35 118.805C1055.35 118.907 1055.29 120.653 1055.59 120.878Z" fill="#AEC3FF"/>
<path opacity="0.5" d="M1051.16 120.275C1051.23 120.315 1053.45 121.644 1053.75 121.644C1054.06 121.644 1052.11 119.148 1052.11 119.148C1051.8 119.643 1051.45 120.014 1051.16 120.275Z" fill="#AEC3FF"/>
<path opacity="0.5" d="M1068.61 135.33C1068.74 135.225 1063.91 128.219 1062.58 128.167C1061.25 128.116 1058.26 129.702 1056.1 129.907C1053.93 130.112 1051.83 129.498 1051.42 130.777C1051.01 132.056 1049.89 136.59 1050.58 137.316C1051.27 138.041 1065.96 137.599 1068.61 135.33Z" fill="#AEC3FF"/>
<path d="M961.554 95.3336C961.554 95.3336 960.001 97.5208 958.576 97.5509C957.152 97.581 954.986 96.5369 954.986 96.5369C954.986 96.5369 953.678 93.6233 954.565 92.4831C954.565 92.4831 955.455 92.0927 956.384 92.7823C956.543 92.9017 956.706 93.0513 956.866 93.2436C957.091 93.5146 957.345 93.669 957.614 93.7506C958.629 94.0594 959.836 93.333 960.286 94.0342C960.55 94.4421 960.836 94.749 961.072 94.9646C961.351 95.2122 961.554 95.3336 961.554 95.3336Z" fill="#FFEDDC"/>
<path d="M941.304 111.105C941.304 111.105 946.794 97.8023 956.676 97.5488C956.676 97.5488 965.798 98.5628 966.305 111.105L941.304 111.105Z" fill="#FFEDDC"/>
<path d="M953.968 97.9574C953.968 97.9574 957.929 98.8383 959.152 98.3207C959.152 98.3207 959.336 96.6648 957.669 96.8969C956.527 97.0562 955.784 96.5074 955.346 96.285C954.727 95.9694 953.804 97.265 953.968 97.9574Z" fill="#DB6A1D"/>
<path d="M957.416 95.4618C957.163 95.6521 956.385 92.7832 956.385 92.7832C956.544 92.9027 956.706 93.0522 956.867 93.2445C957.092 93.5155 957.346 93.6699 957.615 93.7515C957.616 93.835 957.662 95.2763 957.416 95.4618Z" fill="#E5C1A1"/>
<path d="M961.072 94.9646C961.017 94.9976 959.184 96.0951 958.936 96.0951C958.683 96.0951 960.287 94.0352 960.287 94.0352C960.55 94.4431 960.837 94.75 961.072 94.9646Z" fill="#E5C1A1"/>
<path d="M946.667 107.39C946.565 107.304 950.552 101.52 951.65 101.478C952.749 101.435 955.216 102.744 957.002 102.913C958.788 103.082 960.519 102.575 960.857 103.631C961.195 104.686 962.124 108.429 961.554 109.029C960.984 109.628 948.859 109.263 946.667 107.39Z" fill="#F9DDBF"/>
<path d="M968.982 137.661L968.982 139.143C968.982 139.26 968.939 139.37 968.865 139.462C968.787 139.558 968.677 139.632 968.547 139.675C968.506 139.689 968.465 139.698 968.422 139.705C968.382 139.711 968.344 139.714 968.302 139.714L940.187 139.714C939.847 139.714 939.564 139.502 939.513 139.228C939.51 139.21 939.509 139.192 939.508 139.172C939.508 139.162 939.507 139.153 939.507 139.143L939.507 137.661C939.507 137.651 939.508 137.641 939.508 137.632C939.509 137.612 939.511 137.594 939.513 137.575C939.564 137.302 939.847 137.09 940.187 137.09L968.301 137.09C968.342 137.09 968.381 137.093 968.421 137.099C968.464 137.104 968.506 137.115 968.546 137.129C968.676 137.17 968.787 137.246 968.864 137.342C968.939 137.434 968.982 137.543 968.982 137.661Z" fill="#FFB93E"/>
<path d="M955.177 139.714L940.115 139.714C939.836 139.714 939.601 139.533 939.53 139.292C939.523 139.271 939.517 139.25 939.513 139.228C939.51 139.21 939.509 139.192 939.508 139.172C939.508 139.162 939.507 139.153 939.507 139.143L939.507 137.661C939.507 137.651 939.508 137.641 939.508 137.632C939.509 137.612 939.511 137.594 939.513 137.575C939.517 137.554 939.523 137.533 939.53 137.512C939.6 137.27 939.835 137.09 940.115 137.09L953.327 137.09C953.538 137.863 954.03 138.931 955.177 139.714Z" fill="#FFA412"/>
<path d="M965.561 137.09L965.241 137.09L965.241 139.714L965.561 139.714L965.561 137.09Z" fill="#FFA412"/>
<path d="M964.479 137.09L964.16 137.09L964.16 139.714L964.479 139.714L964.479 137.09Z" fill="#FFA412"/>
<path d="M963.182 137.09L962.862 137.09L962.862 139.714L963.182 139.714L963.182 137.09Z" fill="#FFA412"/>
<path d="M961.194 137.09L960.874 137.09L960.874 139.714L961.194 139.714L961.194 137.09Z" fill="#FFA412"/>
<path d="M959.092 137.09L958.772 137.09L958.772 139.714L959.092 139.714L959.092 137.09Z" fill="#FFA412"/>
<path d="M955.869 137.09L955.549 137.09L955.549 139.714L955.869 139.714L955.869 137.09Z" fill="#FFA412"/>
<path d="M952.851 137.09L952.531 137.09L952.531 139.714L952.851 139.714L952.851 137.09Z" fill="#FFA412"/>
<path d="M950.157 137.09L949.837 137.09L949.837 139.714L950.157 139.714L950.157 137.09Z" fill="#FFA412"/>
<path d="M966.591 137.09L966.271 137.09L966.271 139.714L966.591 139.714L966.591 137.09Z" fill="#FFA412"/>
<path d="M967.271 137.09L966.951 137.09L966.951 139.714L967.271 139.714L967.271 137.09Z" fill="#FFA412"/>
<path d="M967.927 137.09L967.607 137.09L967.607 139.714L967.927 139.714L967.927 137.09Z" fill="#FFA412"/>
<path d="M968.422 137.099L968.422 139.705C968.383 139.711 968.343 139.714 968.302 139.714L968.102 139.714L968.102 137.09L968.302 137.09C968.343 137.089 968.383 137.093 968.422 137.099Z" fill="#FFA412"/>
<path d="M968.865 137.345L968.865 139.465C968.787 139.561 968.677 139.636 968.546 139.678L968.546 137.131C968.677 137.174 968.787 137.248 968.865 137.345Z" fill="#FFA412"/>
<path d="M965.976 135.037L965.976 136.518C965.976 136.636 965.933 136.746 965.86 136.837C965.841 136.861 965.819 136.884 965.796 136.905C965.726 136.969 965.639 137.02 965.541 137.051C965.501 137.065 965.459 137.074 965.416 137.08C965.377 137.086 965.338 137.09 965.297 137.09L937.182 137.09C936.843 137.09 936.559 136.877 936.509 136.603C936.506 136.585 936.504 136.567 936.503 136.548C936.502 136.538 936.502 136.529 936.502 136.518L936.502 135.037C936.502 135.027 936.502 135.016 936.503 135.007C936.504 134.988 936.507 134.97 936.509 134.951C936.559 134.678 936.843 134.465 937.182 134.465L965.296 134.465C965.313 134.465 965.332 134.466 965.349 134.468C965.356 134.468 965.363 134.469 965.369 134.47C965.37 134.469 965.372 134.469 965.373 134.47C965.38 134.47 965.389 134.471 965.398 134.473C965.404 134.474 965.41 134.475 965.415 134.476C965.458 134.481 965.501 134.491 965.54 134.505C965.563 134.512 965.586 134.521 965.609 134.531L965.61 134.531C965.624 134.538 965.64 134.544 965.653 134.552C965.661 134.556 965.67 134.562 965.678 134.566C965.685 134.571 965.693 134.575 965.701 134.579C965.731 134.597 965.758 134.617 965.783 134.64C965.792 134.646 965.799 134.654 965.807 134.662C965.812 134.666 965.816 134.671 965.82 134.676C965.823 134.679 965.825 134.68 965.827 134.683L965.833 134.689C965.842 134.698 965.85 134.708 965.858 134.718C965.932 134.81 965.976 134.918 965.976 135.037Z" fill="#FFB93E"/>
<path d="M952.17 137.09L937.109 137.09C936.83 137.09 936.595 136.908 936.525 136.666C936.518 136.645 936.512 136.624 936.509 136.603C936.506 136.585 936.504 136.567 936.503 136.548C936.502 136.538 936.502 136.529 936.502 136.518L936.502 135.037C936.502 135.027 936.502 135.016 936.503 135.007C936.504 134.988 936.507 134.97 936.509 134.951C936.512 134.93 936.518 134.91 936.525 134.888C936.595 134.645 936.829 134.465 937.109 134.465L950.321 134.465C950.326 134.487 950.333 134.508 950.339 134.53C950.56 135.297 951.055 136.329 952.17 137.09Z" fill="#FFA412"/>
<path d="M962.555 134.465L962.235 134.465L962.235 137.089L962.555 137.089L962.555 134.465Z" fill="#FFA412"/>
<path d="M961.473 134.465L961.153 134.465L961.153 137.089L961.473 137.089L961.473 134.465Z" fill="#FFA412"/>
<path d="M960.175 134.465L959.856 134.465L959.856 137.089L960.175 137.089L960.175 134.465Z" fill="#FFA412"/>
<path d="M958.187 134.465L957.868 134.465L957.868 137.089L958.187 137.089L958.187 134.465Z" fill="#FFA412"/>
<path d="M956.086 134.465L955.766 134.465L955.766 137.089L956.086 137.089L956.086 134.465Z" fill="#FFA412"/>
<path d="M952.862 134.465L952.543 134.465L952.543 137.089L952.862 137.089L952.862 134.465Z" fill="#FFA412"/>
<path d="M949.845 134.465L949.525 134.465L949.525 137.089L949.845 137.089L949.845 134.465Z" fill="#FFA412"/>
<path d="M947.15 134.465L946.83 134.465L946.83 137.089L947.15 137.089L947.15 134.465Z" fill="#FFA412"/>
<path d="M963.584 134.465L963.265 134.465L963.265 137.089L963.584 137.089L963.584 134.465Z" fill="#FFA412"/>
<path d="M964.264 134.465L963.945 134.465L963.945 137.089L964.264 137.089L964.264 134.465Z" fill="#FFA412"/>
<path d="M964.921 134.465L964.601 134.465L964.601 137.089L964.921 137.089L964.921 134.465Z" fill="#FFA412"/>
<path d="M965.415 134.475L965.415 137.08C965.376 137.086 965.337 137.089 965.295 137.089L965.095 137.089L965.095 134.465L965.295 134.465C965.337 134.466 965.376 134.469 965.415 134.475Z" fill="#FFA412"/>
<path d="M965.859 134.72L965.859 136.84C965.781 136.936 965.67 137.012 965.539 137.053L965.539 134.506C965.67 134.548 965.781 134.623 965.859 134.72Z" fill="#FFA412"/>
<path d="M967.428 132.479L967.428 133.961C967.428 134.079 967.385 134.189 967.311 134.28C967.233 134.376 967.123 134.451 966.993 134.494C966.953 134.506 966.911 134.516 966.868 134.524C966.829 134.529 966.79 134.532 966.749 134.532L938.634 134.532C938.522 134.532 938.415 134.509 938.321 134.467C938.134 134.386 937.997 134.232 937.962 134.053C937.959 134.04 937.958 134.028 937.958 134.016C937.957 134.008 937.956 133.999 937.956 133.99C937.955 133.981 937.955 133.971 937.955 133.961L937.955 132.479C937.955 132.47 937.955 132.46 937.956 132.45C937.957 132.432 937.958 132.412 937.961 132.395C938.012 132.12 938.295 131.908 938.634 131.908L966.749 131.908C966.79 131.908 966.829 131.911 966.868 131.917C966.911 131.923 966.954 131.932 966.993 131.946C967.124 131.989 967.234 132.065 967.311 132.161C967.385 132.252 967.428 132.362 967.428 132.479Z" fill="#FFB93E"/>
<path d="M953.623 134.532L938.561 134.532C938.46 134.532 938.365 134.509 938.281 134.467C938.114 134.386 937.992 134.232 937.962 134.053C937.959 134.04 937.958 134.028 937.957 134.016C937.956 134.008 937.955 133.999 937.955 133.99C937.954 133.981 937.954 133.971 937.954 133.961L937.954 132.479C937.954 132.47 937.954 132.46 937.955 132.45C937.956 132.432 937.958 132.412 937.961 132.395C937.965 132.374 937.97 132.354 937.976 132.334C938.045 132.09 938.28 131.908 938.56 131.908L951.772 131.908C951.978 132.659 952.448 133.691 953.529 134.467C953.561 134.49 953.591 134.512 953.623 134.532Z" fill="#FFA412"/>
<path d="M964.007 131.908L963.688 131.908L963.687 134.532L964.007 134.532L964.007 131.908Z" fill="#FFA412"/>
<path d="M962.926 131.908L962.607 131.908L962.607 134.532L962.926 134.532L962.926 131.908Z" fill="#FFA412"/>
<path d="M961.629 131.908L961.309 131.908L961.309 134.532L961.629 134.532L961.629 131.908Z" fill="#FFA412"/>
<path d="M959.641 131.908L959.321 131.908L959.321 134.532L959.641 134.532L959.641 131.908Z" fill="#FFA412"/>
<path d="M957.538 131.908L957.218 131.908L957.218 134.532L957.538 134.532L957.538 131.908Z" fill="#FFA412"/>
<path d="M954.316 131.908L953.996 131.908L953.996 134.532L954.316 134.532L954.316 131.908Z" fill="#FFA412"/>
<path d="M951.298 131.908L950.979 131.908L950.979 134.532L951.298 134.532L951.298 131.908Z" fill="#FFA412"/>
<path d="M948.603 131.906L948.283 131.906L948.283 134.53L948.603 134.53L948.603 131.906Z" fill="#FFA412"/>
<path d="M965.037 131.908L964.717 131.908L964.717 134.532L965.037 134.532L965.037 131.908Z" fill="#FFA412"/>
<path d="M965.718 131.908L965.398 131.908L965.398 134.532L965.718 134.532L965.718 131.908Z" fill="#FFA412"/>
<path d="M966.374 131.908L966.054 131.908L966.054 134.532L966.374 134.532L966.374 131.908Z" fill="#FFA412"/>
<path d="M966.869 131.916L966.869 134.522C966.83 134.528 966.79 134.53 966.748 134.53L966.548 134.53L966.548 131.906L966.748 131.906C966.789 131.907 966.83 131.91 966.869 131.916Z" fill="#FFA412"/>
<path d="M967.312 132.161L967.312 134.281C967.235 134.377 967.124 134.453 966.993 134.495L966.993 131.947C967.123 131.989 967.235 132.065 967.312 132.161Z" fill="#FFA412"/>
<path d="M968.102 129.855L968.102 131.336C968.102 131.455 968.059 131.564 967.985 131.655C967.976 131.668 967.965 131.679 967.954 131.69C967.901 131.747 967.835 131.795 967.76 131.832C967.73 131.845 967.699 131.859 967.666 131.87C967.625 131.883 967.584 131.893 967.542 131.899C967.522 131.902 967.503 131.904 967.482 131.905C967.462 131.907 967.442 131.908 967.421 131.908L939.308 131.908C938.968 131.908 938.684 131.696 938.634 131.422C938.631 131.403 938.629 131.385 938.628 131.366L938.628 129.825C938.645 129.546 938.902 129.32 939.227 129.288C939.253 129.285 939.281 129.283 939.308 129.283L967.421 129.283C967.442 129.283 967.462 129.284 967.482 129.286C967.503 129.288 967.522 129.29 967.542 129.293C967.584 129.299 967.626 129.308 967.666 129.322C967.796 129.364 967.908 129.44 967.984 129.536C968.059 129.627 968.102 129.737 968.102 129.855Z" fill="#FFB93E"/>
<path d="M954.297 131.908L939.235 131.908C938.956 131.908 938.721 131.728 938.65 131.485C938.643 131.465 938.638 131.443 938.634 131.422C938.631 131.403 938.629 131.385 938.628 131.366L938.628 129.825C938.643 129.547 938.873 129.32 939.163 129.288C939.186 129.285 939.211 129.283 939.235 129.283L952.447 129.283C952.447 129.285 952.448 129.286 952.448 129.288C952.66 130.06 953.151 131.127 954.297 131.908Z" fill="#FFA412"/>
<path d="M964.681 129.285L964.362 129.285L964.362 131.909L964.681 131.909L964.681 129.285Z" fill="#FFA412"/>
<path d="M963.6 129.285L963.28 129.285L963.28 131.909L963.6 131.909L963.6 129.285Z" fill="#FFA412"/>
<path d="M962.302 129.285L961.982 129.285L961.982 131.909L962.302 131.909L962.302 129.285Z" fill="#FFA412"/>
<path d="M960.314 129.285L959.995 129.285L959.995 131.909L960.314 131.909L960.314 129.285Z" fill="#FFA412"/>
<path d="M958.212 129.285L957.893 129.285L957.893 131.909L958.212 131.909L958.212 129.285Z" fill="#FFA412"/>
<path d="M954.989 129.285L954.669 129.285L954.669 131.909L954.989 131.909L954.989 129.285Z" fill="#FFA412"/>
<path d="M951.971 129.285L951.652 129.285L951.652 131.909L951.971 131.909L951.971 129.285Z" fill="#FFA412"/>
<path d="M949.277 129.285L948.958 129.285L948.958 131.909L949.277 131.909L949.277 129.285Z" fill="#FFA412"/>
<path d="M965.711 129.285L965.392 129.285L965.392 131.909L965.711 131.909L965.711 129.285Z" fill="#FFA412"/>
<path d="M966.391 129.285L966.071 129.285L966.071 131.909L966.391 131.909L966.391 129.285Z" fill="#FFA412"/>
<path d="M967.047 129.285L966.728 129.285L966.728 131.909L967.047 131.909L967.047 129.285Z" fill="#FFA412"/>
<path d="M967.542 129.294L967.542 131.901C967.503 131.906 967.463 131.909 967.421 131.909L967.221 131.909L967.221 129.285L967.421 129.285C967.463 129.285 967.503 129.288 967.542 129.294Z" fill="#FFA412"/>
<path d="M967.986 129.536L967.986 131.656C967.908 131.752 967.797 131.828 967.666 131.87L967.666 129.322C967.797 129.365 967.908 129.441 967.986 129.536Z" fill="#FFA412"/>
<path d="M966.034 127.235L966.034 128.716C966.034 128.835 965.992 128.943 965.919 129.035C965.841 129.131 965.73 129.207 965.599 129.249C965.559 129.263 965.517 129.273 965.475 129.279C965.461 129.281 965.448 129.282 965.435 129.283L965.43 129.283C965.423 129.284 965.416 129.285 965.409 129.285C965.403 129.286 965.397 129.286 965.39 129.287C965.378 129.287 965.367 129.288 965.354 129.288L937.241 129.288C936.879 129.288 936.579 129.046 936.561 128.746C936.56 128.737 936.56 128.727 936.56 128.716L936.56 127.235C936.56 127.225 936.56 127.215 936.561 127.205C936.561 127.197 936.562 127.189 936.563 127.182C936.59 126.94 936.799 126.74 937.073 126.682C937.079 126.68 937.086 126.678 937.093 126.678C937.141 126.669 937.189 126.664 937.241 126.664L965.354 126.664C965.376 126.664 965.395 126.665 965.414 126.667C965.423 126.668 965.432 126.669 965.44 126.67C965.441 126.67 965.441 126.67 965.442 126.67L965.443 126.67C965.453 126.671 965.464 126.673 965.475 126.675C965.516 126.681 965.559 126.69 965.599 126.704C965.73 126.746 965.842 126.821 965.919 126.919C965.992 127.008 966.034 127.117 966.034 127.235Z" fill="#FFB93E"/>
<path d="M952.229 129.288L937.168 129.288C936.844 129.288 936.578 129.046 936.561 128.746C936.56 128.737 936.56 128.727 936.56 128.716L936.56 127.235C936.56 127.225 936.56 127.215 936.561 127.205C936.561 127.197 936.562 127.189 936.563 127.182C936.587 126.934 936.781 126.732 937.035 126.679C937.043 126.676 937.051 126.675 937.06 126.674C937.095 126.668 937.131 126.664 937.168 126.664L950.379 126.664C950.381 126.671 950.383 126.677 950.384 126.683C950.598 127.453 951.089 128.508 952.223 129.284C952.225 129.285 952.227 129.286 952.229 129.288Z" fill="#FFA412"/>
<path d="M962.613 126.664L962.293 126.664L962.293 129.288L962.613 129.288L962.613 126.664Z" fill="#FFA412"/>
<path d="M961.532 126.664L961.213 126.664L961.213 129.288L961.532 129.288L961.532 126.664Z" fill="#FFA412"/>
<path d="M960.235 126.664L959.915 126.664L959.915 129.288L960.235 129.288L960.235 126.664Z" fill="#FFA412"/>
<path d="M958.247 126.664L957.927 126.664L957.927 129.288L958.247 129.288L958.247 126.664Z" fill="#FFA412"/>
<path d="M956.145 126.664L955.825 126.664L955.825 129.288L956.145 129.288L956.145 126.664Z" fill="#FFA412"/>
<path d="M952.922 126.664L952.602 126.664L952.602 129.288L952.922 129.288L952.922 126.664Z" fill="#FFA412"/>
<path d="M949.904 126.664L949.584 126.664L949.584 129.288L949.904 129.288L949.904 126.664Z" fill="#FFA412"/>
<path d="M947.209 126.664L946.889 126.664L946.889 129.288L947.209 129.288L947.209 126.664Z" fill="#FFA412"/>
<path d="M963.643 126.664L963.323 126.664L963.323 129.288L963.643 129.288L963.643 126.664Z" fill="#FFA412"/>
<path d="M964.324 126.664L964.004 126.664L964.004 129.288L964.324 129.288L964.324 126.664Z" fill="#FFA412"/>
<path d="M964.98 126.664L964.66 126.664L964.66 129.288L964.98 129.288L964.98 126.664Z" fill="#FFA412"/>
<path d="M965.475 126.673L965.475 129.28C965.436 129.285 965.396 129.288 965.354 129.288L965.154 129.288L965.154 126.664L965.354 126.664C965.396 126.663 965.436 126.667 965.475 126.673Z" fill="#FFA412"/>
<path d="M965.918 126.919L965.918 129.039C965.84 129.135 965.73 129.211 965.599 129.253L965.599 126.705C965.729 126.748 965.84 126.823 965.918 126.919Z" fill="#FFA412"/>
<path d="M965.976 124.63L965.976 126.111C965.976 126.229 965.933 126.338 965.86 126.429C965.841 126.453 965.819 126.476 965.796 126.498C965.726 126.561 965.639 126.613 965.541 126.644C965.509 126.655 965.477 126.662 965.445 126.668L965.444 126.668C965.443 126.668 965.443 126.668 965.442 126.668C965.433 126.67 965.425 126.672 965.416 126.673C965.377 126.679 965.338 126.683 965.297 126.683L937.182 126.683C937.152 126.683 937.122 126.681 937.094 126.678C937.082 126.677 937.072 126.675 937.061 126.674C936.775 126.63 936.549 126.434 936.509 126.191C936.506 126.175 936.505 126.159 936.504 126.142C936.503 126.131 936.503 126.121 936.503 126.112L936.503 124.631C936.503 124.62 936.503 124.61 936.504 124.601C936.505 124.582 936.508 124.564 936.509 124.545C936.56 124.271 936.844 124.059 937.183 124.059L965.297 124.059C965.314 124.059 965.333 124.06 965.35 124.061C965.353 124.061 965.355 124.062 965.357 124.062C965.362 124.062 965.368 124.062 965.373 124.062C965.38 124.063 965.389 124.064 965.398 124.066C965.404 124.066 965.41 124.067 965.415 124.069C965.458 124.075 965.501 124.085 965.54 124.098C965.563 124.106 965.586 124.115 965.609 124.125L965.61 124.125C965.697 124.163 965.774 124.218 965.834 124.283C965.843 124.293 965.851 124.302 965.859 124.312C965.932 124.401 965.976 124.511 965.976 124.63Z" fill="#FFB93E"/>
<path d="M952.17 126.683L937.109 126.683C937.097 126.683 937.085 126.682 937.074 126.682C937.06 126.681 937.048 126.679 937.035 126.678C936.763 126.646 936.544 126.444 936.508 126.189C936.505 126.173 936.504 126.157 936.503 126.14C936.502 126.129 936.502 126.119 936.502 126.11L936.502 124.629C936.502 124.618 936.502 124.608 936.503 124.599C936.504 124.58 936.507 124.562 936.509 124.543C936.512 124.522 936.518 124.501 936.525 124.481C936.595 124.238 936.829 124.057 937.109 124.057L950.321 124.057C950.326 124.079 950.333 124.099 950.339 124.122C950.558 124.882 951.047 125.903 952.143 126.662C952.152 126.67 952.161 126.676 952.17 126.683Z" fill="#FFA412"/>
<path d="M962.556 124.057L962.236 124.057L962.236 126.681L962.556 126.681L962.556 124.057Z" fill="#FFA412"/>
<path d="M961.474 124.057L961.154 124.057L961.154 126.681L961.474 126.681L961.474 124.057Z" fill="#FFA412"/>
<path d="M960.176 124.057L959.856 124.057L959.856 126.681L960.176 126.681L960.176 124.057Z" fill="#FFA412"/>
<path d="M958.188 124.057L957.868 124.057L957.868 126.681L958.188 126.681L958.188 124.057Z" fill="#FFA412"/>
<path d="M956.086 124.057L955.767 124.057L955.767 126.681L956.086 126.681L956.086 124.057Z" fill="#FFA412"/>
<path d="M952.863 124.057L952.543 124.057L952.543 126.681L952.863 126.681L952.863 124.057Z" fill="#FFA412"/>
<path d="M949.845 124.057L949.526 124.057L949.526 126.681L949.845 126.681L949.845 124.057Z" fill="#FFA412"/>
<path d="M947.15 124.057L946.831 124.057L946.831 126.681L947.15 126.681L947.15 124.057Z" fill="#FFA412"/>
<path d="M963.585 124.057L963.265 124.057L963.265 126.681L963.585 126.681L963.585 124.057Z" fill="#FFA412"/>
<path d="M964.265 124.057L963.945 124.057L963.945 126.681L964.265 126.681L964.265 124.057Z" fill="#FFA412"/>
<path d="M964.921 124.057L964.602 124.057L964.602 126.681L964.921 126.681L964.921 124.057Z" fill="#FFA412"/>
<path d="M965.416 124.066L965.416 126.672C965.377 126.678 965.337 126.681 965.295 126.681L965.095 126.681L965.095 124.057L965.295 124.057C965.337 124.057 965.377 124.061 965.416 124.066Z" fill="#FFA412"/>
<path d="M965.859 124.307L965.859 126.428C965.782 126.524 965.671 126.599 965.54 126.641L965.54 124.094C965.671 124.136 965.782 124.211 965.859 124.307Z" fill="#FFA412"/>
<path d="M967.428 122.07L967.428 123.552C967.428 123.671 967.385 123.78 967.311 123.872C967.233 123.968 967.123 124.043 966.993 124.085C966.953 124.099 966.911 124.108 966.868 124.114C966.829 124.12 966.79 124.124 966.749 124.124L938.634 124.124C938.522 124.124 938.415 124.101 938.321 124.059C938.134 123.978 937.997 123.824 937.962 123.644C937.959 123.632 937.958 123.62 937.958 123.608C937.957 123.599 937.956 123.591 937.956 123.582C937.955 123.573 937.955 123.563 937.955 123.552L937.955 122.07C937.955 122.06 937.955 122.05 937.956 122.04C937.957 122.022 937.958 122.003 937.961 121.985C938.012 121.711 938.295 121.498 938.634 121.498L966.749 121.498C966.79 121.498 966.829 121.502 966.868 121.508C966.911 121.514 966.954 121.523 966.993 121.537C967.124 121.579 967.234 121.654 967.311 121.752C967.385 121.843 967.428 121.952 967.428 122.07Z" fill="#FFB93E"/>
<path d="M953.623 124.124L938.561 124.124C938.46 124.124 938.364 124.101 938.281 124.059C938.114 123.978 937.991 123.824 937.961 123.644C937.958 123.632 937.957 123.62 937.957 123.608C937.956 123.599 937.955 123.591 937.955 123.582C937.954 123.573 937.954 123.563 937.954 123.552L937.954 122.07C937.954 122.06 937.954 122.05 937.955 122.04C937.956 122.022 937.957 122.003 937.96 121.985C937.964 121.964 937.97 121.944 937.976 121.923C938.045 121.68 938.28 121.498 938.56 121.498L951.772 121.498C951.978 122.25 952.448 123.282 953.529 124.058C953.561 124.081 953.591 124.102 953.623 124.124Z" fill="#FFA412"/>
<path d="M964.007 121.498L963.688 121.498L963.687 124.122L964.007 124.122L964.007 121.498Z" fill="#FFA412"/>
<path d="M962.926 121.498L962.607 121.498L962.607 124.122L962.926 124.122L962.926 121.498Z" fill="#FFA412"/>
<path d="M961.629 121.498L961.309 121.498L961.309 124.122L961.629 124.122L961.629 121.498Z" fill="#FFA412"/>
<path d="M959.641 121.498L959.321 121.498L959.321 124.122L959.641 124.122L959.641 121.498Z" fill="#FFA412"/>
<path d="M957.538 121.498L957.218 121.498L957.218 124.122L957.538 124.122L957.538 121.498Z" fill="#FFA412"/>
<path d="M954.315 121.498L953.996 121.498L953.996 124.122L954.315 124.122L954.315 121.498Z" fill="#FFA412"/>
<path d="M951.298 121.498L950.978 121.498L950.978 124.122L951.298 124.122L951.298 121.498Z" fill="#FFA412"/>
<path d="M948.603 121.498L948.283 121.498L948.283 124.122L948.603 124.122L948.603 121.498Z" fill="#FFA412"/>
<path d="M965.037 121.498L964.717 121.498L964.717 124.122L965.037 124.122L965.037 121.498Z" fill="#FFA412"/>
<path d="M965.717 121.498L965.398 121.498L965.398 124.122L965.717 124.122L965.717 121.498Z" fill="#FFA412"/>
<path d="M966.374 121.498L966.054 121.498L966.054 124.122L966.374 124.122L966.374 121.498Z" fill="#FFA412"/>
<path d="M966.868 121.508L966.868 124.113C966.83 124.119 966.79 124.122 966.748 124.122L966.548 124.122L966.548 121.498L966.748 121.498C966.789 121.498 966.83 121.502 966.868 121.508Z" fill="#FFA412"/>
<path d="M967.312 121.749L967.312 123.869C967.234 123.965 967.124 124.041 966.992 124.083L966.992 121.535C967.123 121.578 967.234 121.653 967.312 121.749Z" fill="#FFA412"/>
<path d="M969.726 119.442L969.726 120.924C969.726 121.042 969.683 121.151 969.61 121.242L969.609 121.243C969.599 121.255 969.589 121.266 969.578 121.278C969.535 121.323 969.485 121.363 969.427 121.395C969.399 121.411 969.369 121.426 969.338 121.438C969.337 121.438 969.337 121.439 969.337 121.439C969.322 121.445 969.306 121.452 969.289 121.456C969.25 121.47 969.208 121.48 969.165 121.486C969.126 121.491 969.086 121.494 969.046 121.494L940.931 121.494C940.592 121.494 940.309 121.283 940.258 121.009C940.254 120.99 940.253 120.972 940.252 120.952C940.251 120.943 940.251 120.933 940.251 120.923L940.251 119.441C940.251 119.431 940.251 119.422 940.252 119.412C940.269 119.134 940.525 118.907 940.852 118.875C940.878 118.871 940.904 118.871 940.931 118.871L969.046 118.871C969.086 118.871 969.126 118.875 969.165 118.88C969.208 118.887 969.251 118.896 969.289 118.91C969.404 118.947 969.502 119.009 969.578 119.089C969.589 119.1 969.599 119.112 969.609 119.124L969.61 119.125C969.683 119.216 969.726 119.325 969.726 119.442Z" fill="#FFB93E"/>
<path d="M955.921 121.494L940.858 121.494C940.579 121.494 940.343 121.313 940.275 121.07C940.268 121.05 940.263 121.03 940.259 121.009C940.255 120.99 940.254 120.972 940.253 120.952C940.252 120.943 940.252 120.933 940.252 120.923L940.252 119.441C940.252 119.431 940.252 119.422 940.253 119.412C940.268 119.134 940.497 118.907 940.788 118.875C940.811 118.871 940.835 118.871 940.859 118.871L954.072 118.871C954.072 118.872 954.073 118.874 954.073 118.875C954.283 119.646 954.775 120.712 955.921 121.494Z" fill="#FFA412"/>
<path d="M966.305 118.871L965.985 118.871L965.985 121.495L966.305 121.495L966.305 118.871Z" fill="#FFA412"/>
<path d="M965.223 118.871L964.904 118.871L964.904 121.495L965.223 121.495L965.223 118.871Z" fill="#FFA412"/>
<path d="M963.926 118.871L963.607 118.871L963.607 121.495L963.926 121.495L963.926 118.871Z" fill="#FFA412"/>
<path d="M961.938 118.871L961.619 118.871L961.619 121.495L961.938 121.495L961.938 118.871Z" fill="#FFA412"/>
<path d="M959.836 118.871L959.516 118.871L959.516 121.495L959.836 121.495L959.836 118.871Z" fill="#FFA412"/>
<path d="M956.613 118.871L956.294 118.871L956.294 121.495L956.613 121.495L956.613 118.871Z" fill="#FFA412"/>
<path d="M953.595 118.871L953.275 118.871L953.275 121.495L953.595 121.495L953.595 118.871Z" fill="#FFA412"/>
<path d="M950.901 118.871L950.581 118.871L950.581 121.495L950.901 121.495L950.901 118.871Z" fill="#FFA412"/>
<path d="M967.335 118.871L967.015 118.871L967.015 121.495L967.335 121.495L967.335 118.871Z" fill="#FFA412"/>
<path d="M968.014 118.871L967.695 118.871L967.695 121.495L968.014 121.495L968.014 118.871Z" fill="#FFA412"/>
<path d="M968.672 118.871L968.352 118.871L968.352 121.495L968.672 121.495L968.672 118.871Z" fill="#FFA412"/>
<path d="M969.165 118.88L969.165 121.487C969.126 121.492 969.087 121.495 969.046 121.495L968.846 121.495L968.846 118.871L969.046 118.871C969.087 118.871 969.126 118.874 969.165 118.88Z" fill="#FFA412"/>
<path d="M969.609 119.126L969.609 121.246C969.531 121.342 969.421 121.418 969.29 121.46L969.29 118.912C969.421 118.954 969.532 119.03 969.609 119.126Z" fill="#FFA412"/>
<path d="M966.034 116.82L966.034 118.302C966.034 118.421 965.992 118.529 965.919 118.621C965.841 118.718 965.73 118.793 965.599 118.835C965.559 118.849 965.517 118.859 965.475 118.864C965.461 118.866 965.448 118.868 965.435 118.869L965.43 118.869C965.421 118.871 965.413 118.871 965.404 118.872C965.399 118.872 965.393 118.873 965.388 118.873C965.377 118.873 965.366 118.874 965.355 118.874L937.241 118.874C936.997 118.874 936.781 118.765 936.662 118.602C936.603 118.524 936.567 118.431 936.561 118.332C936.56 118.322 936.56 118.312 936.56 118.302L936.56 116.82C936.56 116.809 936.56 116.8 936.561 116.79C936.576 116.547 936.776 116.342 937.043 116.273C937.105 116.257 937.172 116.248 937.241 116.248L965.354 116.248C965.367 116.248 965.378 116.249 965.39 116.249C965.396 116.249 965.403 116.25 965.408 116.251C965.43 116.252 965.452 116.255 965.475 116.258C965.516 116.264 965.559 116.273 965.599 116.287C965.619 116.293 965.639 116.3 965.657 116.309L965.658 116.309C965.733 116.34 965.8 116.382 965.855 116.434C965.856 116.435 965.857 116.435 965.858 116.437C965.861 116.44 965.863 116.441 965.866 116.444C965.886 116.462 965.903 116.481 965.92 116.502C965.992 116.592 966.034 116.702 966.034 116.82Z" fill="#FFB93E"/>
<path d="M952.229 118.874L937.168 118.874C936.956 118.874 936.769 118.77 936.66 118.615C936.602 118.532 936.566 118.436 936.561 118.332C936.56 118.322 936.56 118.312 936.56 118.302L936.56 116.82C936.56 116.809 936.56 116.8 936.561 116.79C936.576 116.529 936.779 116.312 937.045 116.261C937.085 116.253 937.125 116.248 937.168 116.248L950.379 116.248C950.384 116.268 950.391 116.289 950.397 116.308C950.615 117.075 951.11 118.105 952.223 118.868C952.225 118.87 952.227 118.872 952.229 118.874Z" fill="#FFA412"/>
<path d="M962.613 116.248L962.294 116.248L962.294 118.872L962.613 118.872L962.613 116.248Z" fill="#FFA412"/>
<path d="M961.532 116.248L961.213 116.248L961.213 118.872L961.532 118.872L961.532 116.248Z" fill="#FFA412"/>
<path d="M960.235 116.248L959.915 116.248L959.915 118.872L960.235 118.872L960.235 116.248Z" fill="#FFA412"/>
<path d="M958.247 116.248L957.927 116.248L957.927 118.872L958.247 118.872L958.247 116.248Z" fill="#FFA412"/>
<path d="M956.145 116.248L955.825 116.248L955.825 118.872L956.145 118.872L956.145 116.248Z" fill="#FFA412"/>
<path d="M952.922 116.248L952.602 116.248L952.602 118.872L952.922 118.872L952.922 116.248Z" fill="#FFA412"/>
<path d="M949.904 116.248L949.585 116.248L949.585 118.872L949.904 118.872L949.904 116.248Z" fill="#FFA412"/>
<path d="M947.209 116.248L946.89 116.248L946.89 118.872L947.209 118.872L947.209 116.248Z" fill="#FFA412"/>
<path d="M963.643 116.248L963.323 116.248L963.323 118.872L963.643 118.872L963.643 116.248Z" fill="#FFA412"/>
<path d="M964.323 116.248L964.004 116.248L964.004 118.872L964.323 118.872L964.323 116.248Z" fill="#FFA412"/>
<path d="M964.98 116.248L964.661 116.248L964.661 118.872L964.98 118.872L964.98 116.248Z" fill="#FFA412"/>
<path d="M965.475 116.257L965.475 118.863C965.436 118.869 965.396 118.872 965.354 118.872L965.154 118.872L965.154 116.248L965.354 116.248C965.396 116.248 965.436 116.251 965.475 116.257Z" fill="#FFA412"/>
<path d="M965.918 116.503L965.918 118.623C965.841 118.719 965.73 118.795 965.599 118.837L965.599 116.289C965.729 116.331 965.841 116.407 965.918 116.503Z" fill="#FFA412"/>
<path d="M968.102 114.259L968.102 115.741C968.102 115.859 968.059 115.968 967.985 116.059C967.907 116.155 967.797 116.231 967.666 116.273C967.626 116.286 967.584 116.296 967.541 116.302C967.502 116.308 967.463 116.311 967.421 116.311L939.308 116.311C939.199 116.311 939.095 116.289 939.004 116.25C938.799 116.164 938.652 115.993 938.63 115.793C938.629 115.785 938.628 115.778 938.628 115.77C938.628 115.76 938.627 115.75 938.627 115.741L938.627 114.259C938.627 114.249 938.627 114.239 938.628 114.229C938.644 113.952 938.902 113.724 939.227 113.691C939.253 113.688 939.28 113.688 939.308 113.688L967.421 113.688C967.462 113.688 967.502 113.69 967.541 113.696C967.584 113.703 967.626 113.713 967.666 113.725C967.796 113.768 967.907 113.843 967.985 113.939C968.059 114.031 968.102 114.14 968.102 114.259Z" fill="#FFB93E"/>
<path d="M954.296 116.313L939.235 116.313C939.138 116.313 939.045 116.291 938.964 116.252C938.78 116.166 938.65 115.995 938.631 115.795C938.63 115.787 938.629 115.779 938.629 115.772C938.629 115.762 938.628 115.752 938.628 115.743L938.628 114.261C938.628 114.251 938.628 114.241 938.629 114.231C938.643 113.954 938.873 113.726 939.164 113.693C939.187 113.69 939.211 113.689 939.236 113.689L952.448 113.689C952.448 113.69 952.449 113.692 952.449 113.693C952.655 114.446 953.128 115.477 954.211 116.253C954.238 116.273 954.267 116.293 954.296 116.313Z" fill="#FFA412"/>
<path d="M964.681 113.688L964.362 113.688L964.362 116.312L964.681 116.312L964.681 113.688Z" fill="#FFA412"/>
<path d="M963.6 113.688L963.28 113.688L963.28 116.312L963.6 116.312L963.6 113.688Z" fill="#FFA412"/>
<path d="M962.301 113.688L961.982 113.688L961.982 116.312L962.301 116.312L962.301 113.688Z" fill="#FFA412"/>
<path d="M960.314 113.688L959.994 113.688L959.994 116.312L960.314 116.312L960.314 113.688Z" fill="#FFA412"/>
<path d="M958.212 113.688L957.892 113.688L957.892 116.312L958.212 116.312L958.212 113.688Z" fill="#FFA412"/>
<path d="M954.989 113.688L954.669 113.688L954.669 116.312L954.989 116.312L954.989 113.688Z" fill="#FFA412"/>
<path d="M951.971 113.688L951.652 113.688L951.652 116.312L951.971 116.312L951.971 113.688Z" fill="#FFA412"/>
<path d="M949.277 113.688L948.958 113.688L948.958 116.312L949.277 116.312L949.277 113.688Z" fill="#FFA412"/>
<path d="M965.711 113.688L965.391 113.688L965.391 116.312L965.711 116.312L965.711 113.688Z" fill="#FFA412"/>
<path d="M966.391 113.688L966.071 113.688L966.071 116.312L966.391 116.312L966.391 113.688Z" fill="#FFA412"/>
<path d="M967.047 113.688L966.728 113.688L966.728 116.312L967.047 116.312L967.047 113.688Z" fill="#FFA412"/>
<path d="M967.541 113.697L967.541 116.303C967.503 116.309 967.463 116.312 967.421 116.312L967.221 116.312L967.221 113.688L967.421 113.688C967.463 113.688 967.503 113.691 967.541 113.697Z" fill="#FFA412"/>
<path d="M967.985 113.942L967.985 116.062C967.908 116.158 967.797 116.234 967.666 116.276L967.666 113.729C967.797 113.77 967.908 113.846 967.985 113.942Z" fill="#FFA412"/>
<path d="M968.982 111.638L968.982 113.121C968.982 113.239 968.939 113.348 968.865 113.439C968.787 113.535 968.677 113.611 968.546 113.653C968.506 113.666 968.464 113.676 968.421 113.682C968.408 113.684 968.395 113.686 968.381 113.687C968.375 113.688 968.367 113.688 968.359 113.689C968.352 113.69 968.344 113.69 968.337 113.69C968.325 113.691 968.312 113.691 968.301 113.691L940.187 113.691C939.825 113.691 939.526 113.45 939.508 113.149C939.508 113.139 939.507 113.129 939.507 113.12L939.507 111.637C939.507 111.628 939.507 111.618 939.508 111.608C939.526 111.308 939.824 111.066 940.187 111.066L968.301 111.066C968.342 111.066 968.381 111.069 968.421 111.075C968.464 111.082 968.506 111.092 968.546 111.104C968.676 111.147 968.787 111.222 968.865 111.318C968.939 111.41 968.982 111.52 968.982 111.638Z" fill="#FFB93E"/>
<path d="M955.176 113.691L940.115 113.691C939.791 113.691 939.525 113.45 939.508 113.149C939.508 113.139 939.507 113.129 939.507 113.12L939.507 111.637C939.507 111.628 939.507 111.618 939.508 111.608C939.524 111.308 939.791 111.066 940.115 111.066L953.327 111.066C953.538 111.838 954.028 112.904 955.17 113.687C955.172 113.688 955.174 113.69 955.176 113.691Z" fill="#FFA412"/>
<path d="M965.561 111.068L965.241 111.068L965.241 113.693L965.561 113.693L965.561 111.068Z" fill="#FFA412"/>
<path d="M964.479 111.068L964.16 111.068L964.16 113.693L964.479 113.693L964.479 111.068Z" fill="#FFA412"/>
<path d="M963.181 111.068L962.862 111.068L962.862 113.693L963.181 113.693L963.181 111.068Z" fill="#FFA412"/>
<path d="M961.194 111.068L960.874 111.068L960.874 113.693L961.194 113.693L961.194 111.068Z" fill="#FFA412"/>
<path d="M959.092 111.068L958.772 111.068L958.772 113.693L959.092 113.693L959.092 111.068Z" fill="#FFA412"/>
<path d="M955.869 111.068L955.549 111.068L955.549 113.693L955.869 113.693L955.869 111.068Z" fill="#FFA412"/>
<path d="M952.851 111.068L952.531 111.068L952.531 113.693L952.851 113.693L952.851 111.068Z" fill="#FFA412"/>
<path d="M950.157 111.068L949.837 111.068L949.837 113.693L950.157 113.693L950.157 111.068Z" fill="#FFA412"/>
<path d="M966.591 111.068L966.271 111.068L966.271 113.693L966.591 113.693L966.591 111.068Z" fill="#FFA412"/>
<path d="M967.27 111.068L966.951 111.068L966.951 113.693L967.27 113.693L967.27 111.068Z" fill="#FFA412"/>
<path d="M967.927 111.068L967.607 111.068L967.607 113.693L967.927 113.693L967.927 111.068Z" fill="#FFA412"/>
<path d="M968.422 111.077L968.422 113.684C968.383 113.69 968.343 113.693 968.302 113.693L968.102 113.693L968.102 111.068L968.302 111.068C968.343 111.068 968.383 111.071 968.422 111.077Z" fill="#FFA412"/>
<path d="M968.865 111.319L968.865 113.439C968.787 113.535 968.677 113.611 968.546 113.653L968.546 111.105C968.677 111.148 968.787 111.224 968.865 111.319Z" fill="#FFA412"/>
<path opacity="0.5" d="M949.487 126.661C949.486 126.667 949.486 126.674 949.485 126.68C949.436 127.561 949.295 128.432 949.064 129.281C949.064 129.282 949.063 129.284 949.063 129.286C949.03 129.409 948.994 129.531 948.957 129.654C948.722 130.429 948.411 131.183 948.031 131.906C947.552 132.815 946.962 133.676 946.264 134.465C946.246 134.488 946.226 134.509 946.207 134.53C945.336 135.506 944.302 136.373 943.118 137.09C942.869 137.242 942.613 137.388 942.351 137.525C942.173 137.619 941.996 137.706 941.816 137.792C941.645 137.891 941.463 137.976 941.293 138.081C940.798 138.384 940.179 138.625 939.507 138.816L939.507 137.662C939.507 137.653 939.508 137.643 939.508 137.633C939.509 137.614 939.512 137.595 939.514 137.577C939.518 137.556 939.524 137.534 939.531 137.514C939.601 137.271 939.836 137.091 940.115 137.091L937.109 137.091C936.831 137.091 936.596 136.91 936.526 136.667C936.519 136.647 936.513 136.625 936.509 136.605C936.506 136.586 936.504 136.568 936.503 136.549C936.502 136.54 936.502 136.53 936.502 136.519L936.502 135.038C936.502 135.028 936.502 135.018 936.503 135.008C936.504 134.99 936.507 134.971 936.509 134.953C936.513 134.931 936.519 134.911 936.526 134.89C936.596 134.647 936.83 134.466 937.109 134.466L938.283 134.466C938.116 134.385 937.993 134.231 937.963 134.051C937.96 134.039 937.959 134.027 937.958 134.015C937.957 134.007 937.956 133.998 937.956 133.989C937.955 133.98 937.955 133.97 937.955 133.96L937.955 132.478C937.955 132.468 937.955 132.459 937.956 132.449C937.957 132.431 937.959 132.411 937.962 132.394C937.966 132.373 937.972 132.353 937.978 132.332C938.047 132.089 938.282 131.907 938.561 131.907L939.235 131.907C938.957 131.907 938.722 131.726 938.651 131.484C938.644 131.463 938.638 131.442 938.634 131.42C938.631 131.402 938.629 131.384 938.628 131.365L938.628 129.824C938.644 129.546 938.873 129.319 939.164 129.287L937.169 129.287C936.844 129.287 936.578 129.045 936.562 128.745C936.561 128.735 936.561 128.725 936.561 128.715L936.561 127.234C936.561 127.224 936.561 127.213 936.562 127.204C936.562 127.196 936.563 127.188 936.564 127.18C936.588 126.933 936.782 126.731 937.036 126.677C936.764 126.645 936.545 126.443 936.508 126.189C936.505 126.172 936.504 126.157 936.503 126.139C936.502 126.128 936.502 126.119 936.502 126.109L936.502 124.628C936.502 124.617 936.502 124.607 936.503 124.598C936.504 124.579 936.507 124.561 936.509 124.542C936.513 124.521 936.519 124.501 936.526 124.48C936.596 124.237 936.83 124.056 937.109 124.056L938.283 124.056C938.116 123.974 937.993 123.821 937.963 123.641C937.96 123.629 937.959 123.617 937.958 123.604C937.957 123.595 937.956 123.588 937.956 123.579C937.955 123.569 937.955 123.56 937.955 123.549L937.955 122.067C937.955 122.057 937.955 122.046 937.956 122.037C937.957 122.018 937.959 122 937.962 121.981C937.966 121.961 937.972 121.941 937.978 121.92C938.047 121.676 938.282 121.495 938.561 121.495L940.859 121.495C940.58 121.495 940.344 121.313 940.276 121.07C940.269 121.05 940.264 121.031 940.26 121.009C940.256 120.991 940.255 120.972 940.254 120.953C940.253 120.943 940.253 120.933 940.253 120.924L940.253 119.442C940.253 119.432 940.253 119.422 940.254 119.413C940.269 119.135 940.498 118.907 940.788 118.875L937.17 118.875C936.958 118.875 936.77 118.772 936.662 118.616L936.664 118.603L937.044 116.276L937.046 116.262L937.589 112.941C938.219 113.026 938.842 113.151 939.452 113.316C939.488 113.326 939.523 113.336 939.559 113.345C939.561 113.346 939.563 113.347 939.566 113.348C939.921 113.447 940.273 113.56 940.618 113.686C940.622 113.687 940.624 113.688 940.628 113.69C942.221 114.271 943.706 115.132 944.993 116.25C945.016 116.27 945.038 116.29 945.061 116.311C945.73 116.898 946.345 117.557 946.891 118.282C947.001 118.426 947.107 118.572 947.21 118.722C947.244 118.772 947.279 118.82 947.311 118.871C947.313 118.872 947.314 118.874 947.314 118.874C947.48 119.119 947.637 119.371 947.787 119.629C948.139 120.238 948.435 120.862 948.676 121.495C948.999 122.335 949.224 123.192 949.358 124.055C949.363 124.077 949.365 124.098 949.369 124.12C949.494 124.968 949.533 125.819 949.487 126.661Z" fill="#E2810E"/>
<path d="M933.656 139.081C941.269 138.474 946.949 131.811 946.342 124.198C945.736 116.585 939.073 110.905 931.46 111.511C923.847 112.118 918.167 118.781 918.773 126.394C919.379 134.007 926.043 139.687 933.656 139.081Z" fill="#E2810E"/>
<path d="M938.695 137.698C938.525 137.802 938.351 137.903 938.176 138C938.116 138.033 938.056 138.065 937.997 138.096C937.861 138.169 937.724 138.239 937.587 138.307C931.002 141.541 922.97 139.059 919.39 132.565C915.975 126.371 917.811 118.699 923.413 114.671C923.86 114.349 924.33 114.051 924.825 113.779C925.001 113.681 925.181 113.588 925.36 113.5C925.534 113.413 925.71 113.33 925.887 113.251C926.428 113.01 926.979 112.806 927.534 112.64C928.36 112.391 929.198 112.223 930.038 112.135C932.643 111.859 935.264 112.335 937.587 113.471C940.053 114.677 942.185 116.627 943.611 119.213C947.2 125.726 944.989 133.871 938.695 137.698Z" fill="#FFB93E"/>
<path d="M931.597 138.426C930.44 138.426 929.278 138.263 928.136 137.932C924.957 137.013 922.327 134.91 920.728 132.012C919.13 129.114 918.756 125.766 919.676 122.587C920.596 119.408 922.699 116.778 925.597 115.18C931.58 111.882 939.131 114.066 942.43 120.05C945.728 126.033 943.544 133.584 937.56 136.883C935.703 137.905 933.661 138.426 931.597 138.426ZM931.559 113.976C929.592 113.976 927.599 114.457 925.759 115.471C922.938 117.026 920.893 119.585 919.998 122.68C919.103 125.773 919.466 129.03 921.02 131.85C922.575 134.67 925.135 136.716 928.229 137.611C931.322 138.505 934.579 138.142 937.4 136.588C943.221 133.379 945.347 126.031 942.138 120.21C939.943 116.228 935.813 113.976 931.559 113.976Z" fill="#FFA412"/>
<path d="M937.673 127.238C937.646 127.17 937.617 127.104 937.587 127.039C937.363 126.546 937.083 126.146 936.748 125.841C936.37 125.495 935.93 125.236 935.428 125.064C934.927 124.891 934.368 124.786 933.751 124.748C933.133 124.71 932.462 124.701 931.736 124.722C931.287 124.735 930.904 124.728 930.585 124.698C930.267 124.669 929.996 124.61 929.775 124.522C929.553 124.432 929.373 124.31 929.234 124.155C929.095 124.001 928.982 123.812 928.89 123.589C928.799 123.366 928.748 123.144 928.734 122.925C928.72 122.705 928.753 122.498 928.832 122.3C928.911 122.102 929.039 121.92 929.218 121.754C929.395 121.587 929.63 121.443 929.923 121.324C930.462 121.105 930.966 121.111 931.433 121.339C931.9 121.568 932.281 122.044 932.575 122.769L935.392 121.625C935.147 121.021 934.84 120.512 934.47 120.095C934.101 119.679 933.684 119.358 933.221 119.13C932.758 118.904 932.254 118.771 931.708 118.732C931.163 118.693 930.596 118.752 930.007 118.906L929.209 116.941L927.649 117.575L928.436 119.512C927.873 119.805 927.396 120.143 927.004 120.531C926.613 120.918 926.312 121.338 926.102 121.789C925.891 122.24 925.781 122.714 925.771 123.211C925.76 123.707 925.859 124.212 926.068 124.725C926.308 125.316 926.618 125.785 926.996 126.13C927.375 126.475 927.815 126.733 928.315 126.902C928.816 127.072 929.375 127.173 929.994 127.206C930.612 127.239 931.286 127.239 932.014 127.204C932.435 127.18 932.802 127.183 933.112 127.212C933.423 127.24 933.691 127.3 933.917 127.391C934.144 127.482 934.331 127.609 934.482 127.773C934.631 127.937 934.758 128.146 934.861 128.4C934.953 128.623 934.997 128.845 934.996 129.068C934.995 129.29 934.946 129.502 934.846 129.704C934.747 129.906 934.597 130.093 934.398 130.265C934.199 130.437 933.947 130.585 933.641 130.709C933.375 130.817 933.099 130.889 932.815 130.924C932.529 130.959 932.252 130.931 931.981 130.84C931.71 130.75 931.455 130.586 931.219 130.348C930.982 130.111 930.777 129.777 930.604 129.349L927.787 130.493C928.08 131.217 928.45 131.791 928.895 132.215C929.34 132.64 929.827 132.944 930.355 133.126C930.883 133.308 931.436 133.389 932.013 133.364C932.59 133.341 933.16 133.247 933.721 133.082L934.448 134.875L935.999 134.245L935.267 132.444C935.83 132.151 936.312 131.815 936.713 131.434C937.085 131.081 937.376 130.701 937.586 130.293C937.604 130.26 937.62 130.227 937.636 130.194C937.849 129.75 937.962 129.279 937.976 128.78C937.99 128.283 937.889 127.769 937.673 127.238Z" fill="#FFA412"/>
<path d="M960.085 76.9297L911.743 76.9297L911.743 77.628L960.085 77.628L960.085 76.9297Z" fill="#CCD8FF"/>
<path d="M960.58 77.6289L911.246 77.6289L911.246 78.3272L960.58 78.3272L960.58 77.6289Z" fill="#A9BAFF"/>
<path d="M961.26 78.3262L910.566 78.3262L910.566 79.0245L961.26 79.0245L961.26 78.3262Z" fill="#8C9DF4"/>
<path d="M958.079 50.2168L912.869 50.2168L912.869 76.9268L958.079 76.9268L958.079 50.2168Z" fill="#8C9DF4"/>
<path d="M961.149 50.7262L910.188 50.7262L936.132 37.5762L961.149 50.7262Z" fill="#CCD8FF"/>
<path d="M917.923 48.9714L953.415 48.8966L936.115 39.9004L917.923 48.9714Z" fill="#6F84DD"/>
<path d="M960.067 50.7266L911.518 50.7266L911.518 51.8522L960.067 51.8522L960.067 50.7266Z" fill="#8C9DF4"/>
<path d="M919.905 50.2148L915.123 50.2148L915.123 51.9407L919.905 51.9407L919.905 50.2148Z" fill="#CCD8FF"/>
<path d="M918.832 51.9395L916.196 51.9395L916.196 76.9236L918.832 76.9236L918.832 51.9395Z" fill="#CCD8FF"/>
<path d="M930.238 50.2148L925.456 50.2148L925.456 51.9407L930.238 51.9407L930.238 50.2148Z" fill="#CCD8FF"/>
<path d="M929.165 51.9395L926.53 51.9395L926.53 76.9236L929.165 76.9236L929.165 51.9395Z" fill="#CCD8FF"/>
<path d="M946.482 50.2148L941.7 50.2148L941.7 51.9407L946.482 51.9407L946.482 50.2148Z" fill="#CCD8FF"/>
<path d="M945.409 51.9395L942.773 51.9395L942.773 76.9236L945.409 76.9236L945.409 51.9395Z" fill="#CCD8FF"/>
<path d="M956.213 50.2148L951.431 50.2148L951.431 51.9407L956.213 51.9407L956.213 50.2148Z" fill="#CCD8FF"/>
<path d="M955.14 51.9395L952.504 51.9395L952.504 76.9236L955.14 76.9236L955.14 51.9395Z" fill="#CCD8FF"/>
<path d="M936.692 45.6072C936.693 45.5266 936.684 45.4557 936.661 45.3945C936.64 45.3333 936.603 45.277 936.553 45.2265C936.502 45.176 936.436 45.1294 936.355 45.0857C936.275 45.042 936.176 45.0002 936.059 44.9575C935.858 44.8837 935.677 44.8069 935.512 44.7273C935.348 44.6477 935.209 44.5564 935.093 44.4525C934.977 44.3495 934.888 44.2291 934.825 44.0931C934.762 43.9562 934.732 43.794 934.734 43.6065C934.736 43.4443 934.767 43.2957 934.828 43.1627C934.887 43.0296 934.971 42.9141 935.08 42.816C935.189 42.7179 935.318 42.6392 935.469 42.579C935.619 42.5188 935.787 42.4819 935.973 42.4673L935.981 41.8535L936.476 41.8603L936.467 42.4829C936.644 42.5081 936.804 42.5576 936.947 42.6305C937.09 42.7033 937.211 42.7966 937.31 42.9112C937.409 43.0258 937.485 43.1598 937.537 43.3152C937.59 43.4696 937.614 43.6434 937.612 43.8348L936.72 43.8221C936.722 43.5929 936.675 43.4201 936.574 43.3045C936.474 43.1889 936.338 43.1306 936.167 43.1277C936.075 43.1268 935.994 43.1384 935.927 43.1627C935.86 43.1879 935.804 43.2219 935.76 43.2666C935.716 43.3113 935.683 43.3637 935.662 43.4249C935.641 43.4861 935.629 43.5522 935.628 43.6221C935.627 43.693 935.637 43.7571 935.656 43.8144C935.676 43.8717 935.711 43.9261 935.76 43.9756C935.81 44.0251 935.876 44.0717 935.959 44.1164C936.042 44.1611 936.145 44.2067 936.268 44.2543C936.466 44.332 936.648 44.4107 936.81 44.4913C936.972 44.5719 937.112 44.6642 937.228 44.7691C937.343 44.873 937.432 44.9934 937.496 45.1304C937.559 45.2673 937.589 45.4285 937.586 45.614C937.583 45.782 937.552 45.9335 937.492 46.0656C937.431 46.1987 937.346 46.3133 937.238 46.4094C937.129 46.5056 936.999 46.5823 936.847 46.6396C936.694 46.6969 936.525 46.7328 936.34 46.7474L936.331 47.3185L935.84 47.3117L935.848 46.7435C935.677 46.7241 935.513 46.6843 935.354 46.6241C935.196 46.5648 935.055 46.4794 934.933 46.3696C934.81 46.2599 934.714 46.1219 934.642 45.9568C934.57 45.7917 934.536 45.5936 934.539 45.3644L935.432 45.377C935.43 45.513 935.447 45.6266 935.484 45.7179C935.521 45.8092 935.571 45.883 935.634 45.9384C935.697 45.9937 935.769 46.0336 935.85 46.0559C935.931 46.0792 936.014 46.0909 936.099 46.0928C936.196 46.0938 936.281 46.0831 936.354 46.0588C936.428 46.0345 936.489 46.0015 936.54 45.9578C936.59 45.9141 936.627 45.8626 936.654 45.8034C936.678 45.7432 936.691 45.6771 936.692 45.6072Z" fill="#CCD8FF"/>
<path d="M938.744 76.9278L932.182 76.9278L932.182 69.7594C932.182 68.0598 933.561 66.6816 935.26 66.6816L935.844 66.6816C937.445 66.6816 938.744 67.9801 938.744 69.5817L938.744 76.9278Z" fill="#6F84DD"/>
<path d="M933.301 61.4206L930.204 61.4206L930.204 58.0369C930.204 57.2347 930.855 56.584 931.657 56.584L931.933 56.584C932.688 56.584 933.301 57.1968 933.301 57.9524L933.301 61.4206V61.4206Z" fill="#6F84DD"/>
<path d="M924.229 61.4206L921.132 61.4206L921.132 58.0369C921.132 57.2347 921.783 56.584 922.585 56.584L922.861 56.584C923.616 56.584 924.229 57.1968 924.229 57.9524L924.229 61.4206V61.4206Z" fill="#6F84DD"/>
<path d="M924.229 71.8034L921.132 71.8034L921.132 68.4197C921.132 67.6175 921.783 66.9668 922.585 66.9668L922.861 66.9668C923.616 66.9668 924.229 67.5796 924.229 68.3352L924.229 71.8034V71.8034Z" fill="#6F84DD"/>
<path d="M950.505 61.4206L947.408 61.4206L947.408 58.0369C947.408 57.2347 948.059 56.584 948.861 56.584L949.137 56.584C949.892 56.584 950.505 57.1968 950.505 57.9524L950.505 61.4206Z" fill="#6F84DD"/>
<path d="M950.505 71.8034L947.408 71.8034L947.408 68.4197C947.408 67.6175 948.059 66.9668 948.861 66.9668L949.137 66.9668C949.892 66.9668 950.505 67.5796 950.505 68.3352L950.505 71.8034Z" fill="#6F84DD"/>
<path d="M941.132 61.4206L938.035 61.4206L938.035 58.0369C938.035 57.2347 938.686 56.584 939.488 56.584L939.764 56.584C940.519 56.584 941.132 57.1968 941.132 57.9524L941.132 61.4206V61.4206Z" fill="#6F84DD"/>
<path d="M1113.53 140.661L897.072 140.661C896.899 140.661 896.758 140.519 896.758 140.347L896.758 140.036C896.758 139.863 896.9 139.723 897.072 139.723L1113.53 139.723C1113.71 139.723 1113.85 139.864 1113.85 140.036L1113.85 140.347C1113.85 140.52 1113.71 140.661 1113.53 140.661Z" fill="#233862"/>
</g>
<defs>
<linearGradient id="paint0_linear_138_47" x1="1.02124e-05" y1="175" x2="275.057" y2="-398.662" gradientUnits="userSpaceOnUse">
<stop stop-color="#0A3ECA"/>
<stop offset="0.961522" stop-color="#4B7CFF"/>
</linearGradient>
<linearGradient id="paint1_linear_138_47" x1="1.02124e-05" y1="175" x2="275.057" y2="-398.662" gradientUnits="userSpaceOnUse">
<stop stop-color="#0A3ECA"/>
<stop offset="0.961522" stop-color="#4B7CFF"/>
</linearGradient>
<linearGradient id="paint2_linear_138_47" x1="558.79" y1="335.529" x2="330.398" y2="-248.268" gradientUnits="userSpaceOnUse">
<stop stop-color="white"/>
<stop offset="0.3267" stop-color="#E2E6F2"/>
<stop offset="1" stop-color="#9CABD2"/>
</linearGradient>
<linearGradient id="paint3_linear_138_47" x1="562.413" y1="336.538" x2="333.507" y2="-248.572" gradientUnits="userSpaceOnUse">
<stop stop-color="white"/>
<stop offset="0.3267" stop-color="#E2E6F2"/>
<stop offset="1" stop-color="#9CABD2"/>
</linearGradient>
<linearGradient id="paint4_linear_138_47" x1="565.961" y1="337.362" x2="337.991" y2="-245.356" gradientUnits="userSpaceOnUse">
<stop stop-color="white"/>
<stop offset="0.3267" stop-color="#E2E6F2"/>
<stop offset="1" stop-color="#9CABD2"/>
</linearGradient>
<linearGradient id="paint5_linear_138_47" x1="569.465" y1="338.066" x2="342.497" y2="-242.09" gradientUnits="userSpaceOnUse">
<stop stop-color="white"/>
<stop offset="0.3267" stop-color="#E2E6F2"/>
<stop offset="1" stop-color="#9CABD2"/>
</linearGradient>
<linearGradient id="paint6_linear_138_47" x1="572.916" y1="338.637" x2="347.025" y2="-238.767" gradientUnits="userSpaceOnUse">
<stop stop-color="white"/>
<stop offset="0.3267" stop-color="#E2E6F2"/>
<stop offset="1" stop-color="#9CABD2"/>
</linearGradient>
<linearGradient id="paint7_linear_138_47" x1="576.309" y1="339.062" x2="351.577" y2="-235.379" gradientUnits="userSpaceOnUse">
<stop stop-color="white"/>
<stop offset="0.3267" stop-color="#E2E6F2"/>
<stop offset="1" stop-color="#9CABD2"/>
</linearGradient>
<linearGradient id="paint8_linear_138_47" x1="579.638" y1="339.322" x2="356.157" y2="-231.921" gradientUnits="userSpaceOnUse">
<stop stop-color="white"/>
<stop offset="0.3267" stop-color="#E2E6F2"/>
<stop offset="1" stop-color="#9CABD2"/>
</linearGradient>
<linearGradient id="paint9_linear_138_47" x1="582.896" y1="339.399" x2="360.77" y2="-228.381" gradientUnits="userSpaceOnUse">
<stop stop-color="white"/>
<stop offset="0.3267" stop-color="#E2E6F2"/>
<stop offset="1" stop-color="#9CABD2"/>
</linearGradient>
<linearGradient id="paint10_linear_138_47" x1="586.072" y1="339.265" x2="365.418" y2="-224.752" gradientUnits="userSpaceOnUse">
<stop stop-color="white"/>
<stop offset="0.3267" stop-color="#E2E6F2"/>
<stop offset="1" stop-color="#9CABD2"/>
</linearGradient>
<linearGradient id="paint11_linear_138_47" x1="589.157" y1="338.898" x2="370.108" y2="-221.018" gradientUnits="userSpaceOnUse">
<stop stop-color="white"/>
<stop offset="0.3267" stop-color="#E2E6F2"/>
<stop offset="1" stop-color="#9CABD2"/>
</linearGradient>
<linearGradient id="paint12_linear_138_47" x1="592.135" y1="338.257" x2="374.841" y2="-217.172" gradientUnits="userSpaceOnUse">
<stop stop-color="white"/>
<stop offset="0.3267" stop-color="#E2E6F2"/>
<stop offset="1" stop-color="#9CABD2"/>
</linearGradient>
<linearGradient id="paint13_linear_138_47" x1="594.99" y1="337.312" x2="379.624" y2="-213.19" gradientUnits="userSpaceOnUse">
<stop stop-color="white"/>
<stop offset="0.3267" stop-color="#E2E6F2"/>
<stop offset="1" stop-color="#9CABD2"/>
</linearGradient>
<linearGradient id="paint14_linear_138_47" x1="597.71" y1="336.007" x2="384.471" y2="-209.056" gradientUnits="userSpaceOnUse">
<stop stop-color="white"/>
<stop offset="0.3267" stop-color="#E2E6F2"/>
<stop offset="1" stop-color="#9CABD2"/>
</linearGradient>
<linearGradient id="paint15_linear_138_47" x1="600.266" y1="334.289" x2="389.385" y2="-204.747" gradientUnits="userSpaceOnUse">
<stop stop-color="white"/>
<stop offset="0.3267" stop-color="#E2E6F2"/>
<stop offset="1" stop-color="#9CABD2"/>
</linearGradient>
<linearGradient id="paint16_linear_138_47" x1="602.636" y1="332.088" x2="394.383" y2="-200.23" gradientUnits="userSpaceOnUse">
<stop stop-color="white"/>
<stop offset="0.3267" stop-color="#E2E6F2"/>
<stop offset="1" stop-color="#9CABD2"/>
</linearGradient>
<linearGradient id="paint17_linear_138_47" x1="604.783" y1="329.321" x2="399.475" y2="-195.469" gradientUnits="userSpaceOnUse">
<stop stop-color="white"/>
<stop offset="0.3267" stop-color="#E2E6F2"/>
<stop offset="1" stop-color="#9CABD2"/>
</linearGradient>
<linearGradient id="paint18_linear_138_47" x1="606.665" y1="325.88" x2="404.678" y2="-190.421" gradientUnits="userSpaceOnUse">
<stop stop-color="white"/>
<stop offset="0.3267" stop-color="#E2E6F2"/>
<stop offset="1" stop-color="#9CABD2"/>
</linearGradient>
<linearGradient id="paint19_linear_138_47" x1="608.233" y1="321.629" x2="410.017" y2="-185.034" gradientUnits="userSpaceOnUse">
<stop stop-color="white"/>
<stop offset="0.3267" stop-color="#E2E6F2"/>
<stop offset="1" stop-color="#9CABD2"/>
</linearGradient>
<linearGradient id="paint20_linear_138_47" x1="609.42" y1="316.406" x2="415.517" y2="-179.232" gradientUnits="userSpaceOnUse">
<stop stop-color="white"/>
<stop offset="0.3267" stop-color="#E2E6F2"/>
<stop offset="1" stop-color="#9CABD2"/>
</linearGradient>
<linearGradient id="paint21_linear_138_47" x1="610.146" y1="309.995" x2="421.217" y2="-172.931" gradientUnits="userSpaceOnUse">
<stop stop-color="white"/>
<stop offset="0.3267" stop-color="#E2E6F2"/>
<stop offset="1" stop-color="#9CABD2"/>
</linearGradient>
<linearGradient id="paint22_linear_138_47" x1="615.737" y1="316.062" x2="425.85" y2="-169.312" gradientUnits="userSpaceOnUse">
<stop stop-color="white"/>
<stop offset="0.3267" stop-color="#E2E6F2"/>
<stop offset="1" stop-color="#9CABD2"/>
</linearGradient>
<linearGradient id="paint23_linear_138_47" x1="623.616" y1="327.986" x2="429.88" y2="-167.225" gradientUnits="userSpaceOnUse">
<stop stop-color="white"/>
<stop offset="0.3267" stop-color="#E2E6F2"/>
<stop offset="1" stop-color="#9CABD2"/>
</linearGradient>
<linearGradient id="paint24_linear_138_47" x1="883" y1="182.694" x2="1155.12" y2="85.8885" gradientUnits="userSpaceOnUse">
<stop stop-color="#0A3ECA"/>
<stop offset="0.961522" stop-color="#4B7CFF"/>
</linearGradient>
</defs>
</svg>
