<svg width="702" height="700" viewBox="0 0 702 700" fill="none" xmlns="http://www.w3.org/2000/svg">
<g opacity="0.08">
<path d="M747.096 -252.828L81.919 6.91598C-9.5496 42.6258 -28.0624 163.959 48.6076 225.318L606.113 671.49C682.783 732.849 797.112 688.198 811.911 591.129L919.562 -114.803C934.381 -211.855 838.544 -288.554 747.096 -252.828Z" fill="#064DD6"/>
<path d="M747.096 -252.828L81.919 6.91598C-9.5496 42.6258 -28.0624 163.959 48.6076 225.318L606.113 671.49C682.783 732.849 797.112 688.198 811.911 591.129L919.562 -114.803C934.381 -211.855 838.544 -288.554 747.096 -252.828Z" fill="url(#paint0_linear_0_1)"/>
</g>
<g opacity="0.06">
<path d="M709.936 -149.225L259.901 26.5086C198.016 50.6686 185.491 132.758 237.363 174.272L614.552 476.136C666.424 517.649 743.775 487.44 753.788 421.767L826.621 -55.8424C836.647 -121.505 771.807 -173.396 709.936 -149.225Z" fill="#064DD6"/>
<path d="M709.936 -149.225L259.901 26.5086C198.016 50.6686 185.491 132.758 237.363 174.272L614.552 476.136C666.424 517.649 743.775 487.44 753.788 421.767L826.621 -55.8424C836.647 -121.505 771.807 -173.396 709.936 -149.225Z" fill="url(#paint1_linear_0_1)"/>
</g>
<defs>
<linearGradient id="paint0_linear_0_1" x1="57.5001" y1="30" x2="356.829" y2="799.403" gradientUnits="userSpaceOnUse">
<stop stop-color="#19A1EE"/>
<stop offset="1" stop-color="#064DD6"/>
</linearGradient>
<linearGradient id="paint1_linear_0_1" x1="243.38" y1="42.1264" x2="445.895" y2="562.678" gradientUnits="userSpaceOnUse">
<stop stop-color="#19A1EE"/>
<stop offset="1" stop-color="#064DD6"/>
</linearGradient>
</defs>
</svg>
