<svg width="28" height="28" viewBox="0 0 28 28" fill="none" xmlns="http://www.w3.org/2000/svg">
<path d="M8.46509 12.5192C10.2893 15.3661 12.6387 17.6464 15.4649 19.4983C16.0384 18.828 16.6327 18.1716 17.1924 17.4875C18.2289 16.2091 19.5625 15.7116 21.1726 15.9604C22.2505 16.1262 23.3285 16.3128 24.3995 16.527C25.6571 16.7826 26.4587 17.6809 26.4932 19.0491C26.5485 20.8112 26.5623 22.5732 26.4518 24.3284C26.3067 26.6363 24.1093 28.2947 21.8221 27.9561C17.8074 27.3618 14.1036 25.9522 10.7868 23.6028C5.83929 20.0925 2.4534 15.4421 0.767361 9.58935C0.380401 8.24881 0.0210821 6.89445 0.000352099 5.49173C-0.0272879 3.47401 1.57583 1.6705 3.59355 1.52539C5.05846 1.42174 6.5372 1.47011 8.00903 1.4632C8.49273 1.4632 8.98334 1.44938 9.45322 1.54612C10.5795 1.78797 11.2498 2.52734 11.464 3.65367C11.6782 4.75927 11.8855 5.87178 12.0376 6.98428C12.2379 8.46302 11.7404 9.69991 10.6141 10.6742C9.90237 11.2961 9.18373 11.9042 8.46509 12.5192Z" fill="#064DD6"/>
<path d="M21.5451 8.09868C21.6557 8.09868 21.7662 8.09868 21.8768 8.09868C23.0377 8.09868 24.2055 8.09177 25.3663 8.09868C26.0366 8.09868 26.5341 8.58929 26.5272 9.20428C26.5203 9.81236 26.0297 10.2961 25.3802 10.2961C23.2035 10.303 21.0269 10.303 18.8502 10.2961C18.1523 10.2961 17.6962 9.82618 17.6962 9.11445C17.6893 6.95853 17.6962 4.80953 17.6962 2.65361C17.6962 1.97643 18.1592 1.472 18.7742 1.46509C19.4099 1.45127 19.8867 1.94879 19.8936 2.65361C19.9005 3.79376 19.8936 4.93391 19.8936 6.07405C19.8936 6.19843 19.8936 6.32281 19.8936 6.5232C20.0318 6.39882 20.1217 6.32281 20.2046 6.23989C22.1325 4.31201 24.0603 2.37721 25.9813 0.442413C26.2439 0.179833 26.5272 -0.00673676 26.9142 0.000173569C27.7226 0.0209036 28.234 0.863923 27.8539 1.57565C27.7641 1.74149 27.6259 1.89351 27.4946 2.03171C25.5944 3.93887 23.6872 5.83911 21.7801 7.74627C21.6902 7.8361 21.5797 7.9052 21.4829 7.98121C21.5037 8.02267 21.5244 8.06413 21.5451 8.09868Z" fill="#064DD6"/>
</svg>
