<svg width="31" height="28" viewBox="0 0 31 28" fill="none" xmlns="http://www.w3.org/2000/svg">
<path d="M11.1347 19.9803C11.1999 20.8497 11.2579 21.6538 11.3158 22.458C11.4245 23.8996 10.8305 25.0153 9.70756 25.8629C8.94689 26.4352 8.14999 26.964 7.36034 27.4929C6.28091 28.2173 5.1073 28.1377 4.15827 27.2248C3.10782 26.2106 2.06461 25.1891 1.05762 24.1314C-0.528922 22.458 -0.304343 19.8789 1.52852 18.4952C4.5857 16.1842 8.01959 14.7063 11.8085 14.1485C17.7707 13.2719 23.291 14.489 28.3187 17.8432C28.8113 18.1692 29.2967 18.517 29.7096 18.9371C31.0644 20.3281 31.1223 22.6029 29.7966 24.03C28.7461 25.1602 27.6377 26.2468 26.522 27.3045C25.6092 28.1666 24.4356 28.2173 23.4069 27.5074C22.6245 26.964 21.8421 26.4207 21.0669 25.8701C19.7847 24.9501 19.321 23.6823 19.4731 22.1465C19.5311 21.5596 19.5528 20.9656 19.6035 20.3788C19.6325 20.1107 19.5456 20.0093 19.2703 19.9586C17.2781 19.5819 15.2713 19.5022 13.2574 19.6833C12.5546 19.7413 11.8737 19.8789 11.1347 19.9803Z" fill="#FF5757"/>
<path d="M15.2785 8.03416C17.2345 6.07814 19.1181 4.19457 21.0089 2.30376C20.9437 2.29651 20.8423 2.28202 20.7409 2.28202C19.9222 2.28202 19.0964 2.28202 18.2777 2.28202C17.5316 2.28202 16.9955 1.80388 16.9882 1.15188C16.981 0.499874 17.5243 0.0072481 18.2633 0.0072481C20.0961 0.0072481 21.9362 3.59677e-06 23.7691 0.0072481C24.508 0.0072481 24.9934 0.470896 25.0006 1.1881C25.0151 3.10789 25.0079 5.02769 25.0006 6.94748C25.0006 7.56326 24.6022 8.00518 24.0444 8.08487C23.4938 8.16456 23.0156 7.87478 22.8273 7.33868C22.7693 7.17206 22.7693 6.9837 22.7621 6.80259C22.7548 5.86081 22.7621 4.92626 22.7621 3.8903C22.61 4.02795 22.5158 4.10764 22.4288 4.19457C20.3859 6.23028 18.3502 8.27322 16.3072 10.3162C15.6915 10.932 15.0612 10.9392 14.4454 10.3307C12.1996 8.08487 9.95381 5.83907 7.70801 3.59328C7.38925 3.27452 7.22263 2.91229 7.32405 2.45589C7.51241 1.64451 8.41797 1.30401 9.08447 1.80388C9.20762 1.89806 9.31629 2.01398 9.4322 2.12264C11.3013 3.99172 13.1704 5.86081 15.0322 7.73713C15.1409 7.81682 15.2061 7.93998 15.2785 8.03416Z" fill="#FF5757"/>
</svg>
