<svg width="28" height="28" viewBox="0 0 28 28" fill="none" xmlns="http://www.w3.org/2000/svg">
<path d="M8.46509 12.5192C10.2893 15.3661 12.6387 17.6464 15.4649 19.4983C16.0384 18.828 16.6327 18.1716 17.1924 17.4875C18.2289 16.2091 19.5625 15.7116 21.1726 15.9604C22.2505 16.1262 23.3285 16.3128 24.3995 16.527C25.6571 16.7826 26.4587 17.6809 26.4932 19.0491C26.5485 20.8112 26.5623 22.5732 26.4518 24.3284C26.3067 26.6363 24.1093 28.2947 21.8221 27.9561C17.8074 27.3618 14.1036 25.9522 10.7868 23.6028C5.83929 20.0925 2.4534 15.4421 0.767361 9.58935C0.380401 8.24881 0.0210821 6.89445 0.000352099 5.49173C-0.0272879 3.47401 1.57583 1.6705 3.59355 1.52539C5.05846 1.42174 6.5372 1.47011 8.00903 1.4632C8.49273 1.4632 8.98334 1.44938 9.45322 1.54612C10.5795 1.78797 11.2498 2.52734 11.464 3.65367C11.6782 4.75927 11.8855 5.87178 12.0376 6.98428C12.2379 8.46302 11.7404 9.69991 10.6141 10.6742C9.90237 11.2961 9.18373 11.9042 8.46509 12.5192Z" fill="#064DD6"/>
<path d="M24.1299 2.20256C24.0194 2.20256 23.9088 2.20256 23.7983 2.20256C22.6374 2.20256 21.4696 2.20947 20.3087 2.20256C19.6384 2.20256 19.1409 1.71195 19.1478 1.09696C19.1547 0.488882 19.6454 0.00518249 20.2949 0.00518249C22.4715 -0.0017275 24.6482 -0.0017275 26.8248 0.00518249C27.5227 0.00518249 27.9788 0.475062 27.9788 1.18679C27.9857 3.34271 27.9788 5.49171 27.9788 7.64763C27.9788 8.32481 27.5158 8.82924 26.9008 8.83615C26.2651 8.84997 25.7883 8.35245 25.7814 7.64763C25.7745 6.50748 25.7814 5.36733 25.7814 4.22719C25.7814 4.10281 25.7814 3.97843 25.7814 3.77804C25.6432 3.90242 25.5534 3.97843 25.4705 4.06135C23.5426 5.98923 21.6147 7.92403 19.6937 9.85883C19.4311 10.1214 19.1478 10.308 18.7609 10.3011C17.9524 10.2803 17.4411 9.43732 17.8211 8.72559C17.9109 8.55975 18.0491 8.40773 18.1804 8.26953C20.0807 6.36237 21.9878 4.46212 23.895 2.55497C23.9848 2.46514 24.0954 2.39604 24.1921 2.32003C24.1714 2.27857 24.1507 2.23711 24.1299 2.20256Z" fill="#064DD6"/>
</svg>
