<svg width="128" height="76" viewBox="0 0 128 76" fill="none" xmlns="http://www.w3.org/2000/svg">
<rect width="128" height="76" rx="8" fill="#CBE3FC"/>
<rect x="74" y="1" width="21" height="34" fill="#CBE3FC"/>
<mask id="mask0_895_22788" style="mask-type:alpha" maskUnits="userSpaceOnUse" x="104" y="1" width="19" height="32">
<rect x="104" y="1" width="19" height="32" fill="#CBE3FC"/>
</mask>
<g mask="url(#mask0_895_22788)">
<rect x="104" y="1" width="60" height="34" fill="#CBE3FC"/>
</g>
<path d="M84.6748 34.1528C86.3835 32.266 87.8092 30.141 88.9074 27.8446C88.93 27.7958 88.9621 27.7521 89.0017 27.7158C89.0413 27.6796 89.0878 27.6516 89.1383 27.6334C89.1888 27.6152 89.2425 27.6072 89.2961 27.6099C89.3498 27.6126 89.4023 27.6258 89.4508 27.649C89.4993 27.6721 89.5427 27.7046 89.5785 27.7446C89.6143 27.7846 89.6419 27.8313 89.6595 27.8821C89.6772 27.9328 89.6846 27.9865 89.6814 28.0401C89.6782 28.0937 89.6643 28.1462 89.6407 28.1944C88.5087 30.5618 87.0389 32.7524 85.2775 34.6975C84.7773 35.251 84.25 35.8029 83.7099 36.3377C83.6721 36.3755 83.6271 36.4055 83.5777 36.4259C83.5282 36.4463 83.4753 36.4567 83.4218 36.4565C83.3683 36.4564 83.3154 36.4457 83.266 36.425C83.2167 36.4044 83.1719 36.3742 83.1343 36.3362C83.0966 36.2982 83.0669 36.2532 83.0467 36.2036C83.0265 36.1541 83.0163 36.1011 83.0166 36.0476C83.017 35.9941 83.0279 35.9412 83.0487 35.892C83.0696 35.8427 83.0999 35.7981 83.1381 35.7606C83.6677 35.2362 84.1847 34.695 84.6748 34.1528Z" fill="white"/>
<path d="M88.2673 32.1418C88.297 32.097 88.3352 32.0586 88.3798 32.0287C88.4245 31.9988 88.4746 31.9781 88.5272 31.9677C88.5799 31.9573 88.6342 31.9574 88.6868 31.9681C88.7394 31.9788 88.7894 31.9998 88.8339 32.0299C88.8783 32.0601 88.9164 32.0987 88.9458 32.1436C88.9752 32.1886 88.9955 32.2389 89.0053 32.2917C89.0152 32.3445 89.0145 32.3987 89.0032 32.4512C88.992 32.5037 88.9704 32.5535 88.9399 32.5976C88.3357 33.4893 87.6797 34.3447 86.9751 35.1594C86.9046 35.2408 86.8046 35.291 86.6971 35.2987C86.5896 35.3065 86.4835 35.2712 86.402 35.2007C86.3205 35.1302 86.2704 35.0302 86.2626 34.9228C86.2549 34.8153 86.2901 34.7092 86.3606 34.6277C87.0444 33.8372 87.681 33.0071 88.2673 32.1418Z" fill="white"/>
<path d="M84.4998 12.7009C83.1922 12.116 81.776 11.8133 80.3436 11.8125C78.1742 11.8124 76.0627 12.5123 74.3229 13.8083C73.6782 14.2848 73.0917 14.8353 72.5754 15.4485C72.5412 15.4896 72.4991 15.5236 72.4517 15.5484C72.4042 15.5733 72.3523 15.5885 72.299 15.5932C72.2456 15.5979 72.1919 15.592 72.1408 15.5759C72.0898 15.5598 72.0424 15.5337 72.0015 15.4992C71.9605 15.4647 71.9268 15.4224 71.9022 15.3748C71.8777 15.3272 71.8628 15.2753 71.8584 15.2219C71.854 15.1685 71.8602 15.1148 71.8766 15.0639C71.893 15.0129 71.9194 14.9657 71.9541 14.9249C72.5115 14.2631 73.1446 13.669 73.8404 13.1547C75.1675 12.1683 76.7014 11.4963 78.3262 11.1895C79.9511 10.8827 81.6244 10.9491 83.2198 11.3838C83.7712 11.5337 84.3101 11.7261 84.8318 11.9593C84.9279 12.0047 85.0024 12.086 85.0392 12.1857C85.0761 12.2854 85.0724 12.3956 85.029 12.4926C84.9855 12.5896 84.9058 12.6658 84.8069 12.7047C84.708 12.7436 84.5977 12.7421 84.4998 12.7007V12.7009Z" fill="white"/>
<path d="M88.9291 15.81C88.8439 15.876 88.736 15.9055 88.6291 15.892C88.5223 15.8784 88.4251 15.823 88.3591 15.7379C87.6501 14.8216 86.7889 14.0341 85.8131 13.4096C85.7224 13.3515 85.6584 13.2598 85.6353 13.1545C85.6122 13.0492 85.6319 12.9391 85.69 12.8484C85.7188 12.8034 85.7561 12.7646 85.7999 12.7341C85.8437 12.7036 85.893 12.682 85.9451 12.6706C86.0504 12.6475 86.1605 12.6672 86.2513 12.7253C87.3052 13.3997 88.2354 14.2503 89.0012 15.2399C89.0339 15.2821 89.058 15.3303 89.072 15.3817C89.0861 15.4332 89.0899 15.4869 89.0832 15.5399C89.0765 15.5928 89.0595 15.6439 89.033 15.6903C89.0066 15.7366 88.9712 15.7773 88.9291 15.81Z" fill="white"/>
<path d="M88.9341 19.4768C88.8836 19.494 88.8302 19.5012 88.777 19.4978C88.7237 19.4944 88.6717 19.4806 88.6238 19.4571C88.5759 19.4336 88.5331 19.4009 88.4978 19.3608C88.4625 19.3208 88.4355 19.2742 88.4183 19.2237C87.8455 17.5365 86.7587 16.0711 85.3104 15.0333C83.8621 13.9955 82.1251 13.4375 80.3434 13.4375C76.6392 13.4375 73.2875 15.9106 72.1927 19.4509C72.1897 19.4605 72.1864 19.47 72.1825 19.4794C72.0729 19.7491 71.9443 20.0107 71.7977 20.2622C71.7711 20.3084 71.7357 20.349 71.6934 20.3816C71.6512 20.4142 71.603 20.4381 71.5515 20.4521C71.5 20.466 71.4462 20.4697 71.3933 20.4629C71.3404 20.456 71.2893 20.4388 71.2431 20.4123C71.1968 20.3857 71.1562 20.3503 71.1236 20.3081C71.091 20.2658 71.0671 20.2176 71.0532 20.1661C71.0392 20.1146 71.0356 20.0608 71.0424 20.0079C71.0492 19.955 71.0664 19.904 71.093 19.8577C71.2171 19.6446 71.3267 19.4234 71.421 19.1956C72.6252 15.3263 76.2918 12.625 80.3434 12.625C82.2946 12.625 84.1968 13.2361 85.783 14.3725C87.3692 15.5088 88.5596 17.1135 89.1872 18.961C89.222 19.063 89.2149 19.1746 89.1675 19.2713C89.12 19.368 89.0361 19.4419 88.9341 19.4768Z" fill="white"/>
<path d="M83.4687 33.0627C87.1453 28.9944 88.3686 24.9707 88.5766 24.2055C88.8872 23.0706 88.9574 21.8833 88.7828 20.7197C88.7747 20.6668 88.7771 20.6129 88.7899 20.561C88.8027 20.5091 88.8256 20.4602 88.8573 20.4171C88.8891 20.3741 88.929 20.3378 88.9748 20.3102C89.0206 20.2826 89.0714 20.2643 89.1243 20.2564C89.1771 20.2485 89.2311 20.2511 89.2829 20.2641C89.3348 20.2771 89.3836 20.3002 89.4265 20.332C89.4695 20.3639 89.5057 20.404 89.5331 20.4499C89.5605 20.4958 89.5786 20.5466 89.5863 20.5995C89.7777 21.8743 89.7009 23.1749 89.3607 24.4183C89.1442 25.2151 87.872 29.4019 84.0715 33.6077C83.8797 33.82 83.6824 34.0335 83.4852 34.2421C83.4112 34.3205 83.3091 34.3662 83.2013 34.3692C83.0936 34.3723 82.989 34.3324 82.9107 34.2584C82.8323 34.1844 82.7866 34.0822 82.7835 33.9745C82.7805 33.8667 82.8204 33.7622 82.8944 33.6838C83.0877 33.4796 83.2808 33.2706 83.4687 33.0627Z" fill="white"/>
<path d="M80.1912 36.2886C80.7088 35.8344 81.2202 35.362 81.7114 34.8845C81.7887 34.8094 81.8926 34.768 82.0004 34.7696C82.1081 34.7711 82.2108 34.8154 82.2859 34.8926C82.361 34.9699 82.4024 35.0738 82.4008 35.1815C82.3993 35.2893 82.3551 35.392 82.2778 35.4671C81.7767 35.9542 81.2551 36.4361 80.7272 36.8991C80.6871 36.9343 80.6404 36.9613 80.5899 36.9784C80.5394 36.9956 80.486 37.0027 80.4328 36.9992C80.3795 36.9957 80.3275 36.9818 80.2797 36.9582C80.2318 36.9346 80.1891 36.9019 80.1539 36.8618C80.1187 36.8217 80.0917 36.775 80.0746 36.7245C80.0574 36.674 80.0503 36.6206 80.0538 36.5674C80.0573 36.5141 80.0712 36.4621 80.0948 36.4142C80.1184 36.3664 80.1511 36.3236 80.1912 36.2884V36.2886Z" fill="white"/>
<path d="M71.1103 22.4959C71.2126 22.3871 71.3142 22.2769 71.4124 22.1682C72.4523 21.0175 72.8944 19.8976 72.9575 19.7284C73.1925 18.9549 73.5488 18.2237 74.0132 17.5621C74.0436 17.5178 74.0824 17.48 74.1275 17.4509C74.1726 17.4217 74.223 17.4018 74.2758 17.3922C74.3287 17.3827 74.3829 17.3837 74.4353 17.3952C74.4878 17.4067 74.5374 17.4285 74.5814 17.4594C74.6253 17.4902 74.6627 17.5294 74.6915 17.5748C74.7202 17.6202 74.7396 17.6708 74.7486 17.7237C74.7576 17.7766 74.7561 17.8308 74.744 17.8832C74.732 17.9355 74.7097 17.9849 74.6784 18.0285C74.2612 18.6229 73.9416 19.28 73.7317 19.9752C73.7294 19.9827 73.7269 19.9901 73.7242 19.9975C73.6394 20.2291 73.1582 21.4481 72.0152 22.7129C71.9136 22.8255 71.8082 22.9397 71.7022 23.0525C71.6284 23.131 71.5264 23.1769 71.4188 23.1802C71.3111 23.1836 71.2065 23.144 71.128 23.0702C71.0495 22.9963 71.0035 22.8944 71.0002 22.7867C70.9969 22.679 71.0365 22.5744 71.1103 22.4959H71.1103Z" fill="white"/>
<path d="M82.1542 15.3042C81.0327 14.9988 79.8522 14.9825 78.7227 15.2571C77.5933 15.5316 76.5518 16.0879 75.6957 16.874C75.616 16.9465 75.5107 16.9843 75.4031 16.9792C75.2955 16.9741 75.1943 16.9265 75.1218 16.8467C75.0493 16.767 75.0114 16.6618 75.0165 16.5541C75.0216 16.4465 75.0693 16.3453 75.149 16.2728C76.1062 15.3948 77.2702 14.7736 78.5325 14.4671C79.7947 14.1606 81.114 14.1789 82.3672 14.5202C86.4747 15.6358 88.9083 19.8852 87.7927 23.9927C87.5903 24.7036 87.3391 25.3997 87.0411 26.0761C86.9984 26.175 86.9181 26.2529 86.818 26.2926C86.7178 26.3324 86.606 26.3307 86.5071 26.288C86.4082 26.2453 86.3303 26.165 86.2905 26.0648C86.2508 25.9647 86.2525 25.8528 86.2952 25.7539C86.5781 25.113 86.8165 24.4534 87.0088 23.7797C88.0068 20.1045 85.8292 16.3024 82.1542 15.3042Z" fill="white"/>
<path d="M77.9835 36.0298C79.5119 34.7895 80.9428 33.4337 82.2636 31.9743C83.5959 30.5039 84.7344 28.869 85.6513 27.1094C85.6756 27.0616 85.7092 27.0192 85.75 26.9845C85.7908 26.9497 85.8381 26.9234 85.8892 26.9071C85.9402 26.8907 85.994 26.8846 86.0474 26.8891C86.1008 26.8937 86.1528 26.9087 86.2004 26.9334C86.2479 26.9581 86.2902 26.992 86.3246 27.033C86.359 27.0741 86.385 27.1216 86.4009 27.1728C86.4169 27.2239 86.4226 27.2777 86.4177 27.3311C86.4128 27.3845 86.3974 27.4364 86.3724 27.4838C85.4235 29.305 84.2453 30.9971 82.8664 32.5189C81.5177 34.0093 80.0564 35.3939 78.4957 36.6606C78.412 36.7285 78.3048 36.7604 78.1976 36.7493C78.0905 36.7381 77.9921 36.6849 77.9242 36.6012C77.8563 36.5176 77.8244 36.4104 77.8355 36.3032C77.8466 36.196 77.8999 36.0977 77.9835 36.0298V36.0298Z" fill="white"/>
<path d="M75.2719 20.4948C75.2125 20.6668 74.6494 22.221 73.2209 23.8018C72.7723 24.2983 72.2892 24.7916 71.785 25.2682C71.7067 25.3423 71.6022 25.3822 71.4945 25.3791C71.4412 25.3776 71.3887 25.3656 71.34 25.3439C71.2913 25.3221 71.2473 25.2909 71.2107 25.2521C71.174 25.2134 71.1454 25.1677 71.1264 25.1179C71.1073 25.0681 71.0983 25.015 71.0998 24.9616C71.1013 24.9083 71.1133 24.8558 71.1351 24.8071C71.1569 24.7584 71.1881 24.7145 71.2268 24.6778C71.7155 24.2157 72.1836 23.7377 72.6182 23.257C73.9182 21.8187 74.4339 20.4298 74.5014 20.2376C74.8795 18.9806 75.6512 17.8783 76.7029 17.0929C77.7546 16.3075 79.0307 15.8806 80.3433 15.875C80.451 15.875 80.5543 15.9178 80.6305 15.994C80.7067 16.0702 80.7495 16.1735 80.7495 16.2813C80.7495 16.389 80.7067 16.4923 80.6305 16.5685C80.5543 16.6447 80.451 16.6875 80.3433 16.6875C79.2042 16.6924 78.0969 17.0634 77.1847 17.7457C76.2726 18.428 75.604 19.3855 75.2777 20.4768C75.2759 20.4828 75.274 20.4888 75.2719 20.4948Z" fill="white"/>
<path d="M83.3655 29.3014C83.3347 29.3449 83.2956 29.382 83.2505 29.4104C83.2053 29.4388 83.155 29.4581 83.1024 29.4671C83.0499 29.4761 82.996 29.4746 82.944 29.4628C82.892 29.451 82.8428 29.429 82.7992 29.3982C82.7557 29.3674 82.7186 29.3283 82.6902 29.2831C82.6618 29.238 82.6425 29.1877 82.6335 29.1351C82.6245 29.0825 82.626 29.0287 82.6378 28.9766C82.6496 28.9246 82.6716 28.8754 82.7024 28.8319C84.6321 26.1059 85.3217 23.7901 85.4403 23.3535C85.7958 22.0385 85.6301 20.6371 84.9778 19.4413C84.3255 18.2454 83.237 17.3474 81.9389 16.9343C81.8362 16.9018 81.7506 16.8298 81.7009 16.7342C81.6512 16.6386 81.6416 16.5271 81.6741 16.4244C81.7066 16.3217 81.7785 16.236 81.8741 16.1864C81.9697 16.1367 82.0812 16.127 82.1839 16.1595C83.6819 16.6359 84.9382 17.672 85.691 19.052C86.4437 20.4319 86.6348 22.0491 86.2244 23.5665C86.0489 24.2123 85.3242 26.5347 83.3655 29.3014Z" fill="white"/>
<path d="M76.1924 35.3752C77.9454 34.0267 79.5738 32.5236 81.058 30.884C81.2937 30.6232 81.526 30.3536 81.7486 30.0827C81.7824 30.0412 81.824 30.0067 81.8711 29.9813C81.9183 29.9559 81.9699 29.94 82.0232 29.9347C82.0765 29.9293 82.1303 29.9345 82.1815 29.95C82.2328 29.9655 82.2804 29.991 82.3218 30.0249C82.3632 30.0589 82.3974 30.1007 82.4226 30.148C82.4477 30.1952 82.4633 30.247 82.4684 30.3003C82.4735 30.3536 82.468 30.4074 82.4522 30.4585C82.4364 30.5097 82.4107 30.5572 82.3765 30.5984C82.146 30.8791 81.9052 31.1585 81.661 31.4287C80.1436 33.105 78.4787 34.6416 76.6864 36.0201C76.6442 36.0537 76.5957 36.0785 76.5438 36.093C76.4918 36.1076 76.4375 36.1117 76.384 36.1051C76.3305 36.0985 76.2788 36.0813 76.232 36.0545C76.1852 36.0277 76.1442 35.9918 76.1114 35.949C76.0786 35.9062 76.0546 35.8572 76.0409 35.8051C76.0272 35.7529 76.0241 35.6985 76.0316 35.6451C76.0392 35.5917 76.0573 35.5403 76.0849 35.494C76.1125 35.4476 76.1491 35.4073 76.1924 35.3752Z" fill="white"/>
<path d="M71.1835 26.8975C72.1194 26.1069 73.0016 25.2549 73.8242 24.347C74.1164 24.0235 74.3908 23.6843 74.6463 23.3311C74.7096 23.2442 74.8047 23.186 74.9108 23.1691C75.017 23.1522 75.1255 23.1781 75.2126 23.2411C75.2997 23.304 75.3583 23.3989 75.3756 23.505C75.3929 23.6111 75.3674 23.7197 75.3048 23.807C75.032 24.1842 74.739 24.5464 74.427 24.8918C73.5801 25.8265 72.6718 26.7038 71.7083 27.5177C71.6259 27.5867 71.5196 27.6203 71.4126 27.6111C71.3056 27.6019 71.2066 27.5508 71.1372 27.4688C71.0678 27.3868 71.0338 27.2806 71.0424 27.1736C71.0511 27.0665 71.1018 26.9673 71.1834 26.8975H71.1835Z" fill="white"/>
<path d="M81.3026 18.4407C80.3757 18.1886 79.3869 18.3116 78.55 18.7828C77.7131 19.2541 77.0953 20.0359 76.8302 20.9591C76.829 20.9633 76.8277 20.9675 76.8263 20.9717C76.7939 21.0718 76.6116 21.6108 76.1971 22.383C76.1719 22.43 76.1376 22.4716 76.0963 22.5054C76.055 22.5392 76.0075 22.5645 75.9564 22.5799C75.9053 22.5953 75.8517 22.6005 75.7986 22.5952C75.7455 22.5899 75.694 22.5741 75.647 22.5489C75.6 22.5237 75.5584 22.4894 75.5246 22.4481C75.4908 22.4068 75.4655 22.3593 75.4501 22.3082C75.4347 22.2571 75.4295 22.2035 75.4348 22.1504C75.4401 22.0973 75.4559 22.0458 75.4811 21.9988C75.7058 21.5915 75.8965 21.1664 76.0512 20.7277C76.3782 19.5946 77.1398 18.6367 78.1701 18.0629C79.2004 17.489 80.4157 17.3456 81.5512 17.664C82.6867 17.9824 83.6504 18.7368 84.2321 19.7627C84.8137 20.7885 84.9663 22.0028 84.6565 23.1407C84.4911 23.7493 83.5114 26.9571 80.455 30.3391C79.8011 31.0626 79.1053 31.7715 78.387 32.4462C78.3084 32.5199 78.2038 32.5595 78.0961 32.5561C77.9884 32.5527 77.8865 32.5067 77.8127 32.4281C77.7389 32.3496 77.6994 32.245 77.7028 32.1373C77.7062 32.0296 77.7522 31.9276 77.8307 31.8539C78.5331 31.1944 79.2132 30.5015 79.8523 29.7943C82.7846 26.5493 83.7157 23.5049 83.8725 22.9275C84.1256 21.9918 83.9971 20.9939 83.5153 20.1527C83.0335 19.3116 82.2377 18.6958 81.3026 18.4407Z" fill="white"/>
<path d="M74.7116 34.4566C75.3406 33.9956 75.9812 33.4867 76.6156 32.9436C76.6977 32.8753 76.8034 32.842 76.9098 32.8511C77.0162 32.8601 77.1148 32.9106 77.1842 32.9918C77.2536 33.0729 77.2883 33.1781 77.2807 33.2847C77.2731 33.3912 77.2239 33.4904 77.1437 33.5609C76.4937 34.1171 75.8371 34.6389 75.1918 35.1119C75.1048 35.1749 74.9965 35.201 74.8904 35.1843C74.7843 35.1677 74.6892 35.1097 74.6257 35.0231C74.5622 34.9365 74.5356 34.8283 74.5517 34.7221C74.5678 34.616 74.6252 34.5205 74.7115 34.4566H74.7116Z" fill="white"/>
<path d="M71.3418 28.8612C72.6676 27.8283 73.9015 26.6824 75.0294 25.4363C76.936 23.3266 77.5693 21.3201 77.6072 21.1961C77.8112 20.4723 78.2937 19.8588 78.9489 19.4899C79.6042 19.1209 80.3789 19.0265 81.1036 19.2273C81.8283 19.4281 82.4439 19.9078 82.8158 20.5613C83.1878 21.2149 83.2857 21.9892 83.0881 22.7148C83.0736 22.7682 83.0411 22.8824 82.9871 23.0478C82.9532 23.1497 82.8803 23.234 82.7844 23.2823C82.6885 23.3307 82.5774 23.339 82.4753 23.3057C82.3733 23.2723 82.2886 23.1998 82.2398 23.1042C82.191 23.0085 82.182 22.8974 82.2149 22.7952C82.2633 22.647 82.2915 22.5477 82.304 22.5017C82.4458 21.983 82.376 21.4292 82.1101 20.9618C81.8442 20.4944 81.4038 20.1516 80.8854 20.0084C80.3671 19.8652 79.8131 19.9334 79.345 20.1981C78.8769 20.4627 78.5328 20.9021 78.3882 21.4201C78.3875 21.4226 78.3868 21.4252 78.386 21.4276C78.3581 21.52 77.6797 23.7155 75.6322 25.9811C74.4722 27.2625 73.2034 28.441 71.8399 29.5033C71.7977 29.536 71.7495 29.5601 71.6981 29.5741C71.6466 29.5882 71.5929 29.592 71.5399 29.5853C71.487 29.5787 71.4359 29.5616 71.3896 29.5352C71.3432 29.5087 71.3025 29.4734 71.2698 29.4313C71.2371 29.3891 71.213 29.3409 71.199 29.2895C71.1849 29.238 71.1811 29.1843 71.1878 29.1314C71.1944 29.0784 71.2115 29.0273 71.2379 28.981C71.2643 28.9346 71.2996 28.8939 71.3418 28.8612Z" fill="white"/>
<path d="M73.4922 33.3344C74.5086 32.6107 76.5297 31.0469 78.6466 28.7047C79.8528 27.3769 80.857 25.8787 81.6268 24.2584C81.6492 24.2097 81.6809 24.1658 81.7203 24.1294C81.7597 24.093 81.8059 24.0648 81.8562 24.0463C81.9065 24.0279 81.96 24.0196 82.0136 24.0219C82.0672 24.0242 82.1197 24.0371 82.1683 24.0598C82.2169 24.0825 82.2604 24.1146 82.2965 24.1543C82.3326 24.1939 82.3605 24.2403 82.3786 24.2908C82.3966 24.3413 82.4045 24.3948 82.4018 24.4484C82.3991 24.5019 82.3858 24.5544 82.3627 24.6028C81.5586 26.296 80.5096 27.8616 79.2494 29.2493C77.081 31.6486 75.007 33.2532 73.9637 33.9961C73.876 34.0586 73.767 34.0837 73.6607 34.0658C73.5545 34.048 73.4596 33.9886 73.3972 33.9008C73.3347 33.8131 73.3096 33.7041 73.3275 33.5978C73.3453 33.4916 73.4047 33.3968 73.4924 33.3343L73.4922 33.3344Z" fill="white"/>
<path d="M72.5144 32.0379C73.4772 31.3569 75.3974 29.8769 77.4412 27.6153C79.9717 24.8151 80.7064 22.1862 80.7364 22.0757C80.7646 21.9717 80.7505 21.8608 80.6969 21.7673C80.6434 21.6737 80.5549 21.6053 80.451 21.577C80.347 21.5487 80.236 21.5629 80.1425 21.6164C80.049 21.67 79.9806 21.7584 79.9523 21.8624C79.9453 21.8878 79.2223 24.4325 76.8383 27.0705C76.6357 27.2947 76.4253 27.5205 76.2132 27.7415C76.1763 27.7805 76.1322 27.8118 76.0832 27.8336C76.0342 27.8554 75.9814 27.8673 75.9278 27.8686C75.8742 27.8699 75.8208 27.8606 75.7709 27.8412C75.7209 27.8218 75.6752 27.7927 75.6365 27.7555C75.5979 27.7184 75.5669 27.674 75.5455 27.6248C75.5241 27.5757 75.5126 27.5228 75.5117 27.4692C75.5108 27.4156 75.5205 27.3623 75.5403 27.3125C75.5601 27.2626 75.5896 27.2172 75.627 27.1788C75.8336 26.9637 76.0384 26.7439 76.2355 26.5257C78.4699 24.0531 79.1628 21.6683 79.1689 21.6468C79.2111 21.4923 79.2833 21.3478 79.3813 21.2213C79.4793 21.0947 79.6013 20.9888 79.7403 20.9094C79.8793 20.83 80.0326 20.7788 80.1914 20.7587C80.3502 20.7386 80.5113 20.7499 80.6657 20.7921C80.8202 20.8342 80.9647 20.9064 81.0912 21.0044C81.2178 21.1025 81.3237 21.2245 81.4031 21.3635C81.4825 21.5025 81.5337 21.6557 81.5538 21.8145C81.5739 21.9733 81.5626 22.1345 81.5204 22.2889C81.4883 22.4071 80.7034 25.2175 78.044 28.1603C75.9478 30.4799 73.9737 32.0011 72.9836 32.7014C72.94 32.7328 72.8907 32.7553 72.8384 32.7676C72.7862 32.7798 72.732 32.7816 72.679 32.7728C72.6261 32.764 72.5754 32.7447 72.5299 32.7162C72.4844 32.6877 72.445 32.6505 72.414 32.6066C72.383 32.5628 72.361 32.5133 72.3493 32.4609C72.3375 32.4085 72.3363 32.3543 72.3456 32.3014C72.355 32.2485 72.3747 32.198 72.4036 32.1528C72.4326 32.1076 72.4703 32.0686 72.5144 32.0381V32.0379Z" fill="white"/>
<path d="M71.7743 30.5704C72.0065 30.4014 72.2502 30.2166 72.4987 30.0207C73.1594 29.5 73.8219 28.9289 74.4677 28.3232C74.5065 28.2862 74.5522 28.2572 74.6023 28.238C74.6524 28.2187 74.7057 28.2096 74.7594 28.2111C74.813 28.2126 74.8658 28.2247 74.9147 28.2467C74.9636 28.2687 75.0077 28.3002 75.0444 28.3393C75.0811 28.3784 75.1096 28.4244 75.1285 28.4746C75.1473 28.5249 75.156 28.5783 75.154 28.6319C75.1521 28.6855 75.1395 28.7382 75.1171 28.7869C75.0947 28.8357 75.0629 28.8795 75.0235 28.9158C74.3608 29.5373 73.6806 30.1238 73.0016 30.6589C72.745 30.8611 72.4929 31.0524 72.2523 31.2276C72.2092 31.2596 72.1601 31.2827 72.1081 31.2956C72.056 31.3086 72.0018 31.311 71.9488 31.3029C71.8957 31.2948 71.8448 31.2763 71.799 31.2483C71.7531 31.2204 71.7133 31.1837 71.6817 31.1403C71.6501 31.0969 71.6275 31.0477 71.615 30.9955C71.6026 30.9433 71.6006 30.8891 71.6092 30.8362C71.6178 30.7832 71.6369 30.7324 71.6652 30.6869C71.6935 30.6413 71.7306 30.6018 71.7743 30.5706V30.5704Z" fill="white"/>
<path d="M102.876 34.1528C101.168 32.266 99.742 30.141 98.6439 27.8446C98.6212 27.7958 98.5892 27.7521 98.5496 27.7158C98.5099 27.6796 98.4635 27.6516 98.413 27.6334C98.3624 27.6152 98.3088 27.6072 98.2552 27.6099C98.2015 27.6126 98.1489 27.6258 98.1005 27.649C98.052 27.6721 98.0086 27.7046 97.9728 27.7446C97.9369 27.7846 97.9094 27.8313 97.8917 27.8821C97.8741 27.9328 97.8666 27.9865 97.8699 28.0401C97.8731 28.0937 97.887 28.1462 97.9106 28.1944C99.0426 30.5618 100.512 32.7524 102.274 34.6975C102.774 35.251 103.301 35.8029 103.841 36.3377C103.879 36.3755 103.924 36.4055 103.974 36.4259C104.023 36.4463 104.076 36.4567 104.129 36.4565C104.183 36.4564 104.236 36.4457 104.285 36.425C104.335 36.4044 104.379 36.3742 104.417 36.3362C104.455 36.2982 104.484 36.2532 104.505 36.2036C104.525 36.1541 104.535 36.1011 104.535 36.0476C104.534 35.9941 104.523 35.9412 104.503 35.892C104.482 35.8427 104.451 35.7981 104.413 35.7606C103.884 35.2362 103.367 34.695 102.876 34.1528Z" fill="white"/>
<path d="M99.2835 32.1418C99.2538 32.097 99.2156 32.0586 99.1709 32.0287C99.1263 31.9988 99.0762 31.9781 99.0235 31.9677C98.9708 31.9573 98.9166 31.9574 98.864 31.9681C98.8114 31.9788 98.7614 31.9998 98.7169 32.0299C98.6724 32.0601 98.6344 32.0987 98.605 32.1436C98.5756 32.1886 98.5553 32.2389 98.5455 32.2917C98.5356 32.3445 98.5363 32.3987 98.5476 32.4512C98.5588 32.5037 98.5803 32.5535 98.6109 32.5976C99.2151 33.4893 99.8711 34.3447 100.576 35.1594C100.646 35.2408 100.746 35.291 100.854 35.2987C100.961 35.3065 101.067 35.2712 101.149 35.2007C101.23 35.1302 101.28 35.0302 101.288 34.9228C101.296 34.8153 101.261 34.7092 101.19 34.6277C100.506 33.8372 99.8698 33.0071 99.2835 32.1418Z" fill="white"/>
<path d="M103.051 12.7009C104.359 12.116 105.775 11.8133 107.207 11.8125C109.377 11.8124 111.488 12.5123 113.228 13.8083C113.873 14.2848 114.459 14.8353 114.975 15.4485C115.01 15.4896 115.052 15.5236 115.099 15.5484C115.147 15.5733 115.198 15.5885 115.252 15.5932C115.305 15.5979 115.359 15.592 115.41 15.5759C115.461 15.5598 115.508 15.5337 115.549 15.4992C115.59 15.4647 115.624 15.4224 115.649 15.3748C115.673 15.3272 115.688 15.2753 115.692 15.2219C115.697 15.1685 115.691 15.1148 115.674 15.0639C115.658 15.0129 115.631 14.9657 115.597 14.9249C115.039 14.2631 114.406 13.669 113.71 13.1547C112.383 12.1683 110.849 11.4963 109.225 11.1895C107.6 10.8827 105.926 10.9491 104.331 11.3838C103.78 11.5337 103.241 11.7261 102.719 11.9593C102.623 12.0047 102.548 12.086 102.512 12.1857C102.475 12.2854 102.478 12.3956 102.522 12.4926C102.565 12.5896 102.645 12.6658 102.744 12.7047C102.843 12.7436 102.953 12.7421 103.051 12.7007V12.7009Z" fill="white"/>
<path d="M98.6217 15.81C98.7069 15.876 98.8147 15.9055 98.9216 15.892C99.0285 15.8784 99.1257 15.823 99.1917 15.7379C99.9007 14.8216 100.762 14.0341 101.738 13.4096C101.828 13.3515 101.892 13.2598 101.915 13.1545C101.939 13.0492 101.919 12.9391 101.861 12.8484C101.832 12.8034 101.795 12.7646 101.751 12.7341C101.707 12.7036 101.658 12.682 101.606 12.6706C101.5 12.6475 101.39 12.6672 101.3 12.7253C100.246 13.3997 99.3154 14.2503 98.5496 15.2399C98.5169 15.2821 98.4928 15.3303 98.4787 15.3817C98.4647 15.4332 98.4609 15.4869 98.4676 15.5399C98.4743 15.5928 98.4913 15.6439 98.5178 15.6903C98.5442 15.7366 98.5795 15.7773 98.6217 15.81Z" fill="white"/>
<path d="M98.6167 19.4768C98.6672 19.494 98.7205 19.5012 98.7738 19.4978C98.827 19.4944 98.8791 19.4806 98.927 19.4571C98.9749 19.4336 99.0177 19.4009 99.053 19.3608C99.0882 19.3208 99.1153 19.2742 99.1325 19.2237C99.7052 17.5365 100.792 16.0711 102.24 15.0333C103.689 13.9955 105.426 13.4375 107.207 13.4375C110.912 13.4375 114.263 15.9106 115.358 19.4509C115.361 19.4605 115.364 19.47 115.368 19.4794C115.478 19.7491 115.607 20.0107 115.753 20.2622C115.78 20.3084 115.815 20.349 115.857 20.3816C115.9 20.4142 115.948 20.4381 115.999 20.4521C116.051 20.466 116.105 20.4697 116.157 20.4629C116.21 20.456 116.261 20.4388 116.308 20.4123C116.354 20.3857 116.395 20.3503 116.427 20.3081C116.46 20.2658 116.484 20.2176 116.498 20.1661C116.512 20.1146 116.515 20.0608 116.508 20.0079C116.502 19.955 116.484 19.904 116.458 19.8577C116.334 19.6446 116.224 19.4234 116.13 19.1956C114.926 15.3263 111.259 12.625 107.207 12.625C105.256 12.625 103.354 13.2361 101.768 14.3725C100.182 15.5088 98.9912 17.1135 98.3636 18.961C98.3288 19.063 98.3359 19.1746 98.3833 19.2713C98.4308 19.368 98.5147 19.4419 98.6167 19.4768Z" fill="white"/>
<path d="M104.082 33.0627C100.405 28.9944 99.1821 24.9707 98.9742 24.2055C98.6636 23.0706 98.5933 21.8833 98.768 20.7197C98.7761 20.6668 98.7737 20.6129 98.7609 20.561C98.7481 20.5091 98.7252 20.4602 98.6935 20.4171C98.6617 20.3741 98.6218 20.3378 98.576 20.3102C98.5302 20.2826 98.4794 20.2643 98.4265 20.2564C98.3736 20.2485 98.3197 20.2511 98.2679 20.2641C98.216 20.2771 98.1672 20.3002 98.1243 20.332C98.0813 20.3639 98.0451 20.404 98.0177 20.4499C97.9903 20.4958 97.9722 20.5466 97.9645 20.5995C97.7731 21.8743 97.8499 23.1749 98.1901 24.4183C98.4066 25.2151 99.6788 29.4019 103.479 33.6077C103.671 33.82 103.868 34.0335 104.066 34.2421C104.14 34.3205 104.242 34.3662 104.349 34.3692C104.457 34.3723 104.562 34.3324 104.64 34.2584C104.718 34.1844 104.764 34.0822 104.767 33.9745C104.77 33.8667 104.73 33.7622 104.656 33.6838C104.463 33.4796 104.27 33.2706 104.082 33.0627Z" fill="white"/>
<path d="M107.36 36.2886C106.842 35.8344 106.331 35.362 105.839 34.8845C105.762 34.8094 105.658 34.768 105.55 34.7696C105.443 34.7711 105.34 34.8154 105.265 34.8926C105.19 34.9699 105.148 35.0738 105.15 35.1815C105.151 35.2893 105.196 35.392 105.273 35.4671C105.774 35.9542 106.296 36.4361 106.824 36.8991C106.864 36.9343 106.91 36.9613 106.961 36.9784C107.011 36.9956 107.065 37.0027 107.118 36.9992C107.171 36.9957 107.223 36.9818 107.271 36.9582C107.319 36.9346 107.362 36.9019 107.397 36.8618C107.432 36.8217 107.459 36.775 107.476 36.7245C107.493 36.674 107.5 36.6206 107.497 36.5674C107.494 36.5141 107.48 36.4621 107.456 36.4142C107.432 36.3664 107.4 36.3236 107.36 36.2884V36.2886Z" fill="white"/>
<path d="M116.44 22.4959C116.338 22.3871 116.237 22.2769 116.138 22.1682C115.099 21.0175 114.656 19.8976 114.593 19.7284C114.358 18.9549 114.002 18.2237 113.538 17.5621C113.507 17.5178 113.468 17.48 113.423 17.4509C113.378 17.4217 113.328 17.4018 113.275 17.3922C113.222 17.3827 113.168 17.3837 113.115 17.3952C113.063 17.4067 113.013 17.4285 112.969 17.4594C112.925 17.4902 112.888 17.5294 112.859 17.5748C112.831 17.6202 112.811 17.6708 112.802 17.7237C112.793 17.7766 112.795 17.8308 112.807 17.8832C112.819 17.9355 112.841 17.9849 112.872 18.0285C113.29 18.6229 113.609 19.28 113.819 19.9752C113.821 19.9827 113.824 19.9901 113.827 19.9975C113.911 20.2291 114.393 21.4481 115.536 22.7129C115.637 22.8255 115.743 22.9397 115.849 23.0525C115.922 23.131 116.024 23.1769 116.132 23.1802C116.24 23.1836 116.344 23.144 116.423 23.0702C116.501 22.9963 116.547 22.8944 116.551 22.7867C116.554 22.679 116.514 22.5744 116.441 22.4959H116.44Z" fill="white"/>
<path d="M105.397 15.3042C106.519 14.9988 107.699 14.9825 108.829 15.2571C109.958 15.5316 110.999 16.0879 111.856 16.874C111.935 16.9465 112.041 16.9843 112.148 16.9792C112.256 16.9741 112.357 16.9265 112.43 16.8467C112.502 16.767 112.54 16.6618 112.535 16.5541C112.53 16.4465 112.482 16.3453 112.402 16.2728C111.445 15.3948 110.281 14.7736 109.019 14.4671C107.757 14.1606 106.437 14.1789 105.184 14.5202C101.077 15.6358 98.6429 19.8852 99.7586 23.9927C99.961 24.7036 100.212 25.3997 100.51 26.0761C100.553 26.175 100.633 26.2529 100.733 26.2926C100.833 26.3324 100.945 26.3307 101.044 26.288C101.143 26.2453 101.221 26.165 101.261 26.0648C101.3 25.9647 101.299 25.8528 101.256 25.7539C100.973 25.113 100.735 24.4534 100.542 23.7797C99.5445 20.1045 101.722 16.3024 105.397 15.3042Z" fill="white"/>
<path d="M109.568 36.0298C108.039 34.7895 106.608 33.4337 105.288 31.9743C103.955 30.5039 102.817 28.869 101.9 27.1094C101.876 27.0616 101.842 27.0192 101.801 26.9845C101.76 26.9497 101.713 26.9234 101.662 26.9071C101.611 26.8907 101.557 26.8846 101.504 26.8891C101.45 26.8937 101.398 26.9087 101.351 26.9334C101.303 26.9581 101.261 26.992 101.227 27.033C101.192 27.0741 101.166 27.1216 101.15 27.1728C101.134 27.2239 101.129 27.2777 101.134 27.3311C101.138 27.3845 101.154 27.4364 101.179 27.4838C102.128 29.305 103.306 30.9971 104.685 32.5189C106.034 34.0093 107.495 35.3939 109.056 36.6606C109.139 36.7285 109.246 36.7604 109.354 36.7493C109.461 36.7381 109.559 36.6849 109.627 36.6012C109.695 36.5176 109.727 36.4104 109.716 36.3032C109.705 36.196 109.651 36.0977 109.568 36.0298V36.0298Z" fill="white"/>
<path d="M112.279 20.4948C112.338 20.6668 112.901 22.221 114.33 23.8018C114.779 24.2983 115.262 24.7916 115.766 25.2682C115.844 25.3423 115.949 25.3822 116.056 25.3791C116.11 25.3776 116.162 25.3656 116.211 25.3439C116.26 25.3221 116.303 25.2909 116.34 25.2521C116.377 25.2134 116.405 25.1677 116.424 25.1179C116.443 25.0681 116.452 25.015 116.451 24.9616C116.449 24.9083 116.437 24.8558 116.416 24.8071C116.394 24.7584 116.363 24.7145 116.324 24.6778C115.835 24.2157 115.367 23.7377 114.933 23.257C113.633 21.8187 113.117 20.4298 113.049 20.2376C112.671 18.9806 111.9 17.8783 110.848 17.0929C109.796 16.3075 108.52 15.8806 107.208 15.875C107.1 15.875 106.996 15.9178 106.92 15.994C106.844 16.0702 106.801 16.1735 106.801 16.2813C106.801 16.389 106.844 16.4923 106.92 16.5685C106.996 16.6447 107.1 16.6875 107.208 16.6875C108.347 16.6924 109.454 17.0634 110.366 17.7457C111.278 18.428 111.947 19.3855 112.273 20.4768C112.275 20.4828 112.277 20.4888 112.279 20.4948Z" fill="white"/>
<path d="M104.185 29.3014C104.216 29.3449 104.255 29.382 104.3 29.4104C104.345 29.4388 104.396 29.4581 104.448 29.4671C104.501 29.4761 104.555 29.4746 104.607 29.4628C104.659 29.451 104.708 29.429 104.752 29.3982C104.795 29.3674 104.832 29.3283 104.861 29.2831C104.889 29.238 104.908 29.1877 104.917 29.1351C104.926 29.0825 104.925 29.0287 104.913 28.9766C104.901 28.9246 104.879 28.8754 104.848 28.8319C102.919 26.1059 102.229 23.7901 102.11 23.3535C101.755 22.0385 101.921 20.6371 102.573 19.4413C103.225 18.2454 104.314 17.3474 105.612 16.9343C105.715 16.9018 105.8 16.8298 105.85 16.7342C105.9 16.6386 105.909 16.5271 105.877 16.4244C105.844 16.3217 105.772 16.236 105.677 16.1864C105.581 16.1367 105.47 16.127 105.367 16.1595C103.869 16.6359 102.613 17.672 101.86 19.052C101.107 20.4319 100.916 22.0491 101.326 23.5665C101.502 24.2123 102.227 26.5347 104.185 29.3014Z" fill="white"/>
<path d="M111.358 35.3752C109.605 34.0267 107.977 32.5236 106.493 30.884C106.257 30.6232 106.025 30.3536 105.802 30.0827C105.768 30.0412 105.727 30.0067 105.68 29.9813C105.633 29.9559 105.581 29.94 105.528 29.9347C105.474 29.9293 105.421 29.9345 105.369 29.95C105.318 29.9655 105.27 29.991 105.229 30.0249C105.188 30.0589 105.153 30.1007 105.128 30.148C105.103 30.1952 105.087 30.247 105.082 30.3003C105.077 30.3536 105.083 30.4074 105.099 30.4585C105.114 30.5097 105.14 30.5572 105.174 30.5984C105.405 30.8791 105.646 31.1585 105.89 31.4287C107.407 33.105 109.072 34.6416 110.864 36.0201C110.907 36.0537 110.955 36.0785 111.007 36.093C111.059 36.1076 111.113 36.1117 111.167 36.1051C111.22 36.0985 111.272 36.0813 111.319 36.0545C111.366 36.0277 111.407 35.9918 111.439 35.949C111.472 35.9062 111.496 35.8572 111.51 35.8051C111.524 35.7529 111.527 35.6985 111.519 35.6451C111.512 35.5917 111.494 35.5403 111.466 35.494C111.438 35.4476 111.402 35.4073 111.358 35.3752Z" fill="white"/>
<path d="M116.368 26.8975C115.432 26.1069 114.55 25.2549 113.727 24.347C113.435 24.0235 113.16 23.6843 112.905 23.3311C112.842 23.2442 112.747 23.186 112.64 23.1691C112.534 23.1522 112.426 23.1781 112.339 23.2411C112.252 23.304 112.193 23.3989 112.176 23.505C112.158 23.6111 112.184 23.7197 112.247 23.807C112.519 24.1842 112.812 24.5464 113.124 24.8918C113.971 25.8265 114.879 26.7038 115.843 27.5177C115.925 27.5867 116.032 27.6203 116.139 27.6111C116.246 27.6019 116.345 27.5508 116.414 27.4688C116.483 27.3868 116.518 27.2806 116.509 27.1736C116.5 27.0665 116.449 26.9673 116.368 26.8975H116.368Z" fill="white"/>
<path d="M106.249 18.4407C107.176 18.1886 108.164 18.3116 109.001 18.7828C109.838 19.2541 110.456 20.0359 110.721 20.9591C110.722 20.9633 110.724 20.9675 110.725 20.9717C110.757 21.0718 110.94 21.6108 111.354 22.383C111.379 22.43 111.414 22.4716 111.455 22.5054C111.496 22.5392 111.544 22.5645 111.595 22.5799C111.646 22.5953 111.7 22.6005 111.753 22.5952C111.806 22.5899 111.857 22.5741 111.904 22.5489C111.951 22.5237 111.993 22.4894 112.027 22.4481C112.06 22.4068 112.086 22.3593 112.101 22.3082C112.117 22.2571 112.122 22.2035 112.116 22.1504C112.111 22.0973 112.095 22.0458 112.07 21.9988C111.845 21.5915 111.655 21.1664 111.5 20.7277C111.173 19.5946 110.411 18.6367 109.381 18.0629C108.351 17.489 107.136 17.3456 106 17.664C104.865 17.9824 103.901 18.7368 103.319 19.7627C102.738 20.7885 102.585 22.0028 102.895 23.1407C103.06 23.7493 104.04 26.9571 107.096 30.3391C107.75 31.0626 108.446 31.7715 109.164 32.4462C109.243 32.5199 109.347 32.5595 109.455 32.5561C109.563 32.5527 109.665 32.5067 109.739 32.4281C109.812 32.3496 109.852 32.245 109.848 32.1373C109.845 32.0296 109.799 31.9276 109.721 31.8539C109.018 31.1944 108.338 30.5015 107.699 29.7943C104.767 26.5493 103.836 23.5049 103.679 22.9275C103.426 21.9918 103.554 20.9939 104.036 20.1527C104.518 19.3116 105.314 18.6958 106.249 18.4407Z" fill="white"/>
<path d="M112.839 34.4566C112.21 33.9956 111.57 33.4867 110.935 32.9436C110.853 32.8753 110.747 32.842 110.641 32.8511C110.535 32.8601 110.436 32.9106 110.367 32.9918C110.297 33.0729 110.262 33.1781 110.27 33.2847C110.278 33.3912 110.327 33.4904 110.407 33.5609C111.057 34.1171 111.714 34.6389 112.359 35.1119C112.446 35.1749 112.554 35.201 112.66 35.1843C112.766 35.1677 112.862 35.1097 112.925 35.0231C112.989 34.9365 113.015 34.8283 112.999 34.7221C112.983 34.616 112.926 34.5205 112.839 34.4566H112.839Z" fill="white"/>
<path d="M116.209 28.8612C114.883 27.8283 113.649 26.6824 112.521 25.4363C110.615 23.3266 109.981 21.3201 109.944 21.1961C109.74 20.4723 109.257 19.8588 108.602 19.4899C107.947 19.1209 107.172 19.0265 106.447 19.2273C105.723 19.4281 105.107 19.9078 104.735 20.5613C104.363 21.2149 104.265 21.9892 104.463 22.7148C104.477 22.7682 104.51 22.8824 104.564 23.0478C104.598 23.1497 104.67 23.234 104.766 23.2823C104.862 23.3307 104.973 23.339 105.075 23.3057C105.178 23.2723 105.262 23.1998 105.311 23.1042C105.36 23.0085 105.369 22.8974 105.336 22.7952C105.287 22.647 105.259 22.5477 105.247 22.5017C105.105 21.983 105.175 21.4292 105.441 20.9618C105.707 20.4944 106.147 20.1516 106.665 20.0084C107.184 19.8652 107.738 19.9334 108.206 20.1981C108.674 20.4627 109.018 20.9021 109.163 21.4201C109.163 21.4226 109.164 21.4252 109.165 21.4276C109.193 21.52 109.871 23.7155 111.919 25.9811C113.079 27.2625 114.347 28.441 115.711 29.5033C115.753 29.536 115.801 29.5601 115.853 29.5741C115.904 29.5882 115.958 29.592 116.011 29.5853C116.064 29.5787 116.115 29.5616 116.161 29.5352C116.208 29.5087 116.248 29.4734 116.281 29.4313C116.314 29.3891 116.338 29.3409 116.352 29.2895C116.366 29.238 116.37 29.1843 116.363 29.1314C116.356 29.0784 116.339 29.0273 116.313 28.981C116.286 28.9346 116.251 28.8939 116.209 28.8612Z" fill="white"/>
<path d="M114.059 33.3344C113.042 32.6107 111.021 31.0469 108.904 28.7047C107.698 27.3769 106.694 25.8787 105.924 24.2584C105.902 24.2097 105.87 24.1658 105.83 24.1294C105.791 24.093 105.745 24.0648 105.695 24.0463C105.644 24.0279 105.591 24.0196 105.537 24.0219C105.484 24.0242 105.431 24.0371 105.382 24.0598C105.334 24.0825 105.29 24.1146 105.254 24.1543C105.218 24.1939 105.19 24.2403 105.172 24.2908C105.154 24.3413 105.146 24.3948 105.149 24.4484C105.152 24.5019 105.165 24.5544 105.188 24.6028C105.992 26.296 107.041 27.8616 108.301 29.2493C110.47 31.6486 112.544 33.2532 113.587 33.9961C113.675 34.0586 113.784 34.0837 113.89 34.0658C113.996 34.048 114.091 33.9886 114.154 33.9008C114.216 33.8131 114.241 33.7041 114.223 33.5978C114.205 33.4916 114.146 33.3968 114.058 33.3343L114.059 33.3344Z" fill="white"/>
<path d="M115.037 32.0379C114.074 31.3569 112.154 29.8769 110.11 27.6153C107.58 24.8151 106.845 22.1862 106.815 22.0757C106.787 21.9717 106.801 21.8608 106.854 21.7673C106.908 21.6737 106.996 21.6053 107.1 21.577C107.204 21.5487 107.315 21.5629 107.409 21.6164C107.502 21.67 107.571 21.7584 107.599 21.8624C107.606 21.8878 108.329 24.4325 110.713 27.0705C110.916 27.2947 111.126 27.5205 111.338 27.7415C111.375 27.7805 111.419 27.8118 111.468 27.8336C111.517 27.8554 111.57 27.8673 111.623 27.8686C111.677 27.8699 111.73 27.8606 111.78 27.8412C111.83 27.8218 111.876 27.7927 111.915 27.7555C111.953 27.7184 111.984 27.674 112.006 27.6248C112.027 27.5757 112.039 27.5228 112.04 27.4692C112.04 27.4156 112.031 27.3623 112.011 27.3125C111.991 27.2626 111.962 27.2172 111.924 27.1788C111.718 26.9637 111.513 26.7439 111.316 26.5257C109.081 24.0531 108.388 21.6683 108.382 21.6468C108.34 21.4923 108.268 21.3478 108.17 21.2213C108.072 21.0947 107.95 20.9888 107.811 20.9094C107.672 20.83 107.519 20.7788 107.36 20.7587C107.201 20.7386 107.04 20.7499 106.886 20.7921C106.731 20.8342 106.587 20.9064 106.46 21.0044C106.334 21.1025 106.228 21.2245 106.148 21.3635C106.069 21.5025 106.018 21.6557 105.997 21.8145C105.977 21.9733 105.989 22.1345 106.031 22.2889C106.063 22.4071 106.848 25.2175 109.507 28.1603C111.603 30.4799 113.578 32.0011 114.568 32.7014C114.611 32.7328 114.661 32.7553 114.713 32.7676C114.765 32.7798 114.819 32.7816 114.872 32.7728C114.925 32.764 114.976 32.7447 115.021 32.7162C115.067 32.6877 115.106 32.6505 115.137 32.6066C115.168 32.5628 115.19 32.5133 115.202 32.4609C115.214 32.4085 115.215 32.3543 115.206 32.3014C115.196 32.2485 115.177 32.198 115.148 32.1528C115.119 32.1076 115.081 32.0686 115.037 32.0381V32.0379Z" fill="white"/>
<path d="M115.776 30.5704C115.544 30.4014 115.301 30.2166 115.052 30.0207C114.391 29.5 113.729 28.9289 113.083 28.3232C113.044 28.2862 112.999 28.2572 112.948 28.238C112.898 28.2187 112.845 28.2096 112.791 28.2111C112.738 28.2126 112.685 28.2247 112.636 28.2467C112.587 28.2687 112.543 28.3002 112.506 28.3393C112.47 28.3784 112.441 28.4244 112.422 28.4746C112.403 28.5249 112.395 28.5783 112.397 28.6319C112.399 28.6855 112.411 28.7382 112.434 28.7869C112.456 28.8357 112.488 28.8795 112.527 28.9158C113.19 29.5373 113.87 30.1238 114.549 30.6589C114.806 30.8611 115.058 31.0524 115.299 31.2276C115.342 31.2596 115.391 31.2827 115.443 31.2956C115.495 31.3086 115.549 31.311 115.602 31.3029C115.655 31.2948 115.706 31.2763 115.752 31.2483C115.798 31.2204 115.838 31.1837 115.869 31.1403C115.901 31.0969 115.923 31.0477 115.936 30.9955C115.948 30.9433 115.95 30.8891 115.942 30.8362C115.933 30.7832 115.914 30.7324 115.886 30.6869C115.857 30.6413 115.82 30.6018 115.776 30.5706V30.5704Z" fill="white"/>
<path d="M53.6307 17.451H19.2255C17.445 17.451 16 16.006 16 14.2255C16 12.445 17.445 11 19.2255 11H53.6307C55.4112 11 56.8562 12.445 56.8562 14.2255C56.8562 16.006 55.4112 17.451 53.6307 17.451Z" fill="white"/>
<path d="M53.6307 30.3524H19.2255C17.445 30.3524 16 28.9073 16 27.1269C16 25.3464 17.445 23.9014 19.2255 23.9014H53.6307C55.4112 23.9014 56.8562 25.3464 56.8562 27.1269C56.8562 28.9073 55.4112 30.3524 53.6307 30.3524Z" fill="white"/>
<path d="M110.631 53.451H76.2255C74.445 53.451 73 52.006 73 50.2255C73 48.445 74.445 47 76.2255 47H110.631C112.411 47 113.856 48.445 113.856 50.2255C113.856 52.006 112.411 53.451 110.631 53.451Z" fill="white"/>
<path d="M54.6302 44.3688L52.8029 43.0805L52.7776 40.8451C52.7761 40.7146 52.7357 40.5875 52.6615 40.4802C52.5873 40.3729 52.4827 40.2902 52.3612 40.2427L50.279 39.4297L49.7214 37.265C49.6888 37.1386 49.6192 37.0249 49.5216 36.9383C49.4239 36.8518 49.3026 36.7965 49.1732 36.7794L46.9576 36.4854L45.9 34.516C45.8381 34.4011 45.7433 34.3073 45.6278 34.2466C45.5123 34.1858 45.3813 34.1609 45.2515 34.1751L43.0292 34.4205L41.5286 32.7626C41.441 32.6657 41.3263 32.5973 41.1995 32.5662C41.0726 32.535 40.9393 32.5426 40.8168 32.5879L38.7193 33.361L36.8658 32.1118C36.7577 32.0389 36.6303 32 36.5 32C36.3697 32 36.2423 32.0389 36.1342 32.1118L34.2805 33.361L32.1828 32.5878C32.0603 32.5426 31.927 32.5351 31.8001 32.5662C31.6733 32.5974 31.5587 32.6658 31.471 32.7626L29.9708 34.4202L27.7485 34.1752C27.6188 34.1608 27.4877 34.1855 27.3721 34.2463C27.2565 34.3071 27.1618 34.401 27.1001 34.5161L26.0425 36.4855L23.8262 36.7795C23.6968 36.7965 23.5755 36.8519 23.4778 36.9385C23.3802 37.025 23.3106 37.1388 23.278 37.2651L22.7205 39.4298L20.6383 40.2429C20.5168 40.2903 20.4122 40.373 20.338 40.4803C20.2638 40.5876 20.2234 40.7147 20.2219 40.8451L20.1966 43.0806L18.3697 44.3688C18.263 44.4441 18.1812 44.5495 18.1349 44.6716C18.0885 44.7937 18.0798 44.9269 18.1098 45.054L18.6228 47.2304L17.1596 48.9203C17.0742 49.0189 17.0203 49.1408 17.0047 49.2703C16.9891 49.3998 17.0126 49.5311 17.0721 49.6472L18.0916 51.6367L17.0721 53.6258C17.0126 53.7419 16.9891 53.8732 17.0047 54.0027C17.0203 54.1322 17.0742 54.2541 17.1596 54.3527L18.6225 56.0433L18.1095 58.2197C18.0796 58.3468 18.0883 58.4799 18.1347 58.602C18.181 58.7241 18.2628 58.8295 18.3695 58.9047L20.1968 60.193L20.2222 62.4284C20.2236 62.5589 20.2641 62.686 20.3383 62.7933C20.4124 62.9006 20.517 62.9833 20.6385 63.0308L22.721 63.8441L23.2786 66.0088C23.3112 66.1351 23.3808 66.2489 23.4784 66.3354C23.5761 66.4219 23.6974 66.4773 23.8268 66.4944L26.0427 66.7883L27.1004 68.7577C27.1623 68.8726 27.257 68.9664 27.3725 69.0272C27.4881 69.0879 27.6191 69.1128 27.7488 69.0987L29.9712 68.8536L31.4717 70.5111C31.5594 70.6079 31.674 70.6763 31.8009 70.7075C31.9277 70.7386 32.061 70.7311 32.1836 70.6859L34.2811 69.9128L36.1348 71.162C36.2429 71.2348 36.3702 71.2737 36.5006 71.2737C36.6309 71.2737 36.7583 71.2348 36.8664 71.162L38.7201 69.9128L40.8178 70.6859C40.9403 70.7311 41.0736 70.7385 41.2004 70.7074C41.3272 70.6762 41.4419 70.6079 41.5296 70.5111L43.0301 68.8535L45.2524 69.099C45.3822 69.1133 45.5133 69.0885 45.6288 69.0277C45.7444 68.967 45.8391 68.8731 45.9009 68.758L46.9585 66.7887L49.1745 66.4947C49.3039 66.4776 49.4252 66.4222 49.5229 66.3357C49.6206 66.2491 49.6902 66.1354 49.7227 66.009L50.2802 63.8443L52.3624 63.0313C52.484 62.9838 52.5885 62.9011 52.6627 62.7938C52.7369 62.6865 52.7773 62.5595 52.7788 62.429L52.8042 60.1936L54.6314 58.9053C54.7382 58.8301 54.82 58.7246 54.8663 58.6025C54.9126 58.4804 54.9213 58.3473 54.8914 58.2202L54.3784 56.0438L55.8404 54.3531C55.9258 54.2544 55.9797 54.1325 55.9953 54.003C56.0109 53.8735 55.9874 53.7423 55.9279 53.6262L54.9084 51.6367L55.9279 49.6475C55.9874 49.5314 56.0109 49.4002 55.9953 49.2707C55.9797 49.1411 55.9258 49.0192 55.8404 48.9206L54.3775 47.2301L54.8905 45.0537C54.9204 44.9266 54.9115 44.7934 54.8652 44.6714C54.8188 44.5493 54.737 44.4439 54.6302 44.3688ZM54.5616 49.4433L53.5905 51.3382C53.543 51.4306 53.5183 51.533 53.5183 51.6368C53.5183 51.7407 53.543 51.8431 53.5905 51.9355L54.5616 53.8303L53.1685 55.4398C53.1007 55.5181 53.0525 55.6114 53.0278 55.7119C53.0031 55.8125 53.0026 55.9175 53.0263 56.0183L53.5146 58.0897L51.7751 59.316C51.6905 59.3757 51.6212 59.4547 51.573 59.5464C51.5248 59.6381 51.499 59.7399 51.4978 59.8435L51.4733 61.972L49.4903 62.7463C49.3936 62.7841 49.3074 62.8442 49.2386 62.9218C49.1698 62.9995 49.1204 63.0923 49.0946 63.1928L48.5635 65.2546L46.4531 65.5345C46.3503 65.5481 46.2521 65.586 46.1668 65.645C46.0814 65.7039 46.0113 65.7824 45.9622 65.8738L44.9558 67.7485L42.8403 67.5151C42.7374 67.5038 42.6333 67.5171 42.5365 67.5539C42.4396 67.5906 42.3529 67.6497 42.2834 67.7265L40.8551 69.3044L38.8579 68.568C38.7605 68.5322 38.6561 68.52 38.5532 68.5324C38.4503 68.5449 38.3518 68.5815 38.2657 68.6394L36.5 69.8295L34.7343 68.6396C34.6483 68.5816 34.5497 68.5449 34.4468 68.5325C34.3439 68.5201 34.2394 68.5324 34.1421 68.5682L32.1451 69.3046L30.7168 67.7268C30.6472 67.6501 30.5605 67.5909 30.4637 67.5542C30.3669 67.5175 30.2628 67.5042 30.1598 67.5155L28.0442 67.7488L27.0371 65.8732C26.988 65.7818 26.9179 65.7034 26.8326 65.6444C26.7472 65.5854 26.6491 65.5476 26.5462 65.534L24.4359 65.2541L23.9048 63.1922C23.8789 63.0918 23.8295 62.9989 23.7607 62.9213C23.6919 62.8437 23.6057 62.7836 23.5091 62.7458L21.526 61.9715L21.5026 59.8431C21.5014 59.7395 21.4757 59.6377 21.4274 59.5459C21.3792 59.4542 21.31 59.3753 21.2253 59.3155L19.4858 58.0892L19.974 56.0178C19.9978 55.917 19.9973 55.812 19.9726 55.7115C19.9479 55.6109 19.8996 55.5176 19.8318 55.4394L18.4384 53.83L19.4095 51.9351C19.457 51.8427 19.4817 51.7404 19.4817 51.6365C19.4817 51.5326 19.457 51.4303 19.4095 51.3379L18.4384 49.4433L19.8315 47.8339C19.8993 47.7556 19.9475 47.6623 19.9722 47.5617C19.9969 47.4611 19.9974 47.3561 19.9737 47.2553L19.4854 45.184L21.2249 43.9576C21.3095 43.8979 21.3788 43.819 21.427 43.7273C21.4752 43.6356 21.501 43.5337 21.5022 43.4301L21.5267 41.3017L23.5097 40.5273C23.6064 40.4896 23.6926 40.4294 23.7614 40.3518C23.8302 40.2742 23.8796 40.1813 23.9054 40.0809L24.4365 38.019L26.5469 37.7391C26.6497 37.7255 26.7479 37.6877 26.8332 37.6287C26.9186 37.5697 26.9887 37.4913 27.0378 37.3999L28.0442 35.5248L30.1597 35.7582C30.2626 35.7694 30.3667 35.7561 30.4635 35.7194C30.5603 35.6826 30.647 35.6235 30.7166 35.5469L32.1449 33.969L34.1421 34.7053C34.2395 34.7411 34.3439 34.7533 34.4468 34.7409C34.5497 34.7285 34.6483 34.6918 34.7343 34.6339L36.5 33.4439L38.2657 34.6338C38.3517 34.6917 38.4503 34.7284 38.5532 34.7408C38.6562 34.7532 38.7606 34.741 38.8579 34.7051L40.8549 33.9687L42.2832 35.5465C42.3528 35.6232 42.4395 35.6823 42.5363 35.7191C42.6331 35.7558 42.7372 35.7691 42.8402 35.7579L44.9558 35.5245L45.9629 37.4001C46.012 37.4915 46.0821 37.57 46.1674 37.6289C46.2528 37.6879 46.3509 37.7258 46.4538 37.7394L48.5641 38.0193L49.0952 40.0811C49.1211 40.1815 49.1705 40.2744 49.2393 40.352C49.3081 40.4296 49.3943 40.4898 49.4909 40.5275L51.474 41.3018L51.4974 43.4302C51.4986 43.5338 51.5243 43.6357 51.5726 43.7274C51.6208 43.8191 51.6901 43.8981 51.7747 43.9578L53.5142 45.1841L53.026 47.2555C53.0022 47.3563 53.0027 47.4613 53.0274 47.5619C53.0521 47.6624 53.1004 47.7557 53.1682 47.834L54.5616 49.4433Z" fill="white"/>
<path d="M48.2822 51.6367V51.6642H49.5913V51.6367C49.5913 51.1801 49.5678 50.7238 49.5208 50.2695L48.2188 50.4047C48.261 50.814 48.2822 51.2252 48.2822 51.6367Z" fill="white"/>
<path d="M25.7275 56.416L24.5312 56.9478C24.7171 57.3655 24.9247 57.7732 25.1531 58.1692L26.2871 57.5151C26.0816 57.1587 25.8948 56.7919 25.7275 56.416Z" fill="white"/>
<path d="M27.7271 61.3539C28.0661 61.6601 28.4209 61.9485 28.7899 62.2179L29.5615 61.1607C29.2293 60.9182 28.91 60.6585 28.6047 60.3828L27.7271 61.3539Z" fill="white"/>
<path d="M45.2573 43.7544C45.5326 44.0602 45.7919 44.3801 46.034 44.7128L47.0926 43.9426C46.8237 43.5734 46.5358 43.2184 46.2302 42.8789L45.2573 43.7544Z" fill="white"/>
<path d="M32.4351 64.0844C32.8697 64.2261 33.3115 64.3449 33.7586 64.4403L34.0315 63.16C33.6294 63.0742 33.2322 62.9673 32.8413 62.8398L32.4351 64.0844Z" fill="white"/>
<path d="M48.0273 49.1869L49.3081 48.916C49.2135 48.4687 49.0954 48.0267 48.9543 47.5918L47.7095 47.9957C47.8362 48.3869 47.9423 48.7846 48.0273 49.1869Z" fill="white"/>
<path d="M47.2675 46.8449L48.4631 46.3119C48.277 45.8943 48.0691 45.4867 47.8402 45.0908L46.707 45.7464C46.9129 46.1025 47.1 46.4692 47.2675 46.8449Z" fill="white"/>
<path d="M35.1113 64.6553C35.5655 64.703 36.0218 64.7273 36.4784 64.7281L36.4806 63.419C36.0691 63.4184 35.658 63.3965 35.2488 63.3535L35.1113 64.6553Z" fill="white"/>
<path d="M26.9584 58.5498L25.8989 59.3189C26.1673 59.6887 26.4548 60.0442 26.7602 60.384L27.7339 59.509C27.459 59.2029 27.2001 58.8827 26.9584 58.5498Z" fill="white"/>
<path d="M45.2623 41.9098C44.9229 41.6039 44.5679 41.3159 44.1986 41.0469L43.4282 42.1053C43.7606 42.3474 44.0801 42.6067 44.3855 42.8821L45.2623 41.9098Z" fill="white"/>
<path d="M43.0503 40.2999C42.6549 40.0711 42.2477 39.8631 41.8306 39.6768L41.2969 40.8721C41.6722 41.0398 42.0386 41.227 42.3945 41.4329L43.0503 40.2999Z" fill="white"/>
<path d="M32.8655 40.426L32.4621 39.1807C32.0271 39.3217 31.5999 39.4856 31.1821 39.6716L31.7144 40.8675C32.0901 40.7003 32.4743 40.5529 32.8655 40.426Z" fill="white"/>
<path d="M35.2744 39.9175L35.1401 38.6152C34.6855 38.6622 34.2338 38.7329 33.7866 38.827L34.0566 40.108C34.4589 40.0232 34.8654 39.9596 35.2744 39.9175Z" fill="white"/>
<path d="M37.8743 38.6172C37.42 38.5699 36.9637 38.5462 36.507 38.5459L36.5063 39.855C36.9178 39.8552 37.3289 39.8767 37.7381 39.9192L37.8743 38.6172Z" fill="white"/>
<path d="M40.5515 39.1846C40.1168 39.0434 39.675 38.9251 39.2279 38.8301L38.9561 40.1106C39.3582 40.1961 39.7556 40.3027 40.1467 40.4297L40.5515 39.1846Z" fill="white"/>
<path d="M46.0195 58.58L47.0766 59.3524C47.3461 58.9834 47.5961 58.6007 47.8258 58.2058L46.694 57.5479C46.4873 57.9034 46.2621 58.2479 46.0195 58.58Z" fill="white"/>
<path d="M42.373 61.8533L43.0267 62.9876C43.4226 62.7594 43.8063 62.5106 44.1763 62.2424L43.4081 61.1826C43.0749 61.424 42.7295 61.6479 42.373 61.8533Z" fill="white"/>
<path d="M29.937 62.966C30.3322 63.1953 30.7391 63.4037 31.1561 63.5906L31.6911 62.396C31.3159 62.2279 30.9498 62.0403 30.5942 61.834L29.937 62.966Z" fill="white"/>
<path d="M44.3672 60.4081L45.2417 61.3817C45.5816 61.0765 45.9054 60.7539 46.2119 60.4152L45.2409 59.5371C44.965 59.8424 44.6733 60.1331 44.3672 60.4081Z" fill="white"/>
<path d="M47.2563 56.4512L48.4509 56.9867C48.6379 56.5695 48.8028 56.1428 48.9449 55.7084L47.7008 55.3018C47.5728 55.6924 47.4245 56.0761 47.2563 56.4512Z" fill="white"/>
<path d="M40.1221 62.8511L40.524 64.0969C40.9591 63.9565 41.3866 63.7932 41.8046 63.6077L41.2736 62.4111C40.8977 62.5779 40.5134 62.7247 40.1221 62.8511Z" fill="white"/>
<path d="M24.9758 49.1742L23.6955 48.9023C23.6006 49.3494 23.5292 49.801 23.4814 50.2555L24.7834 50.3921C24.8262 49.9831 24.8904 49.5766 24.9758 49.1742Z" fill="white"/>
<path d="M24.7183 51.6368V51.623H23.4092V51.6368C23.4092 52.0886 23.4322 52.5402 23.4783 52.9897L24.7805 52.8557C24.7391 52.4507 24.7183 52.0439 24.7183 51.6368Z" fill="white"/>
<path d="M37.7124 63.3571L37.8454 64.6595C38.2999 64.613 38.7517 64.5428 39.1989 64.4493L38.9306 63.168C38.5281 63.2521 38.1215 63.3153 37.7124 63.3571Z" fill="white"/>
<path d="M25.738 46.834L24.5428 46.2998C24.3564 46.7172 24.192 47.144 24.0503 47.5786L25.295 47.9841C25.4225 47.5932 25.5703 47.2093 25.738 46.834Z" fill="white"/>
<path d="M24.9701 54.0732L23.689 54.3427C23.7832 54.7901 23.9008 55.2323 24.0413 55.6674L25.287 55.2647C25.1605 54.8734 25.0547 54.4757 24.9701 54.0732Z" fill="white"/>
<path d="M48.0215 54.1118L49.3017 54.3855C49.3971 53.9386 49.4691 53.487 49.5173 53.0326L48.2155 52.8945C48.1721 53.3034 48.1073 53.7097 48.0215 54.1118Z" fill="white"/>
<path d="M28.6229 42.8745L27.7475 41.9014C27.4079 42.207 27.0845 42.53 26.7783 42.8691L27.7502 43.7461C28.0259 43.4407 28.3172 43.1498 28.6229 42.8745Z" fill="white"/>
<path d="M26.9729 44.7038L25.915 43.9326C25.6459 44.3018 25.3963 44.6848 25.167 45.08L26.2995 45.7366C26.5059 45.3809 26.7307 45.0362 26.9729 44.7038Z" fill="white"/>
<path d="M30.6156 41.4267L29.9611 40.293C29.5654 40.5217 29.1818 40.7709 28.812 41.0395L29.5816 42.0986C29.9143 41.8567 30.2595 41.6325 30.6156 41.4267Z" fill="white"/>
<path d="M46.973 51.6369C46.973 49.5656 46.3588 47.5408 45.208 45.8185C44.0573 44.0963 42.4216 42.7539 40.508 41.9613C38.5943 41.1686 36.4886 40.9612 34.457 41.3653C32.4255 41.7694 30.5594 42.7668 29.0948 44.2315C27.6301 45.6961 26.6327 47.5622 26.2286 49.5938C25.8245 51.6253 26.0319 53.731 26.8245 55.6447C27.6172 57.5584 28.9595 59.194 30.6818 60.3448C32.404 61.4955 34.4289 62.1098 36.5002 62.1098C39.2768 62.1066 41.9388 61.0022 43.9021 59.0388C45.8655 57.0755 46.9699 54.4135 46.973 51.6369ZM36.5002 60.8006C34.6878 60.8006 32.9161 60.2632 31.4091 59.2563C29.9021 58.2494 28.7276 56.8182 28.034 55.1437C27.3404 53.4693 27.1589 51.6267 27.5125 49.8492C27.8661 48.0716 28.7389 46.4387 30.0205 45.1572C31.302 43.8756 32.9348 43.0028 34.7124 42.6493C36.49 42.2957 38.3325 42.4771 40.007 43.1707C41.6815 43.8643 43.1126 45.0388 44.1196 46.5458C45.1265 48.0528 45.6639 49.8245 45.6639 51.6369C45.6612 54.0664 44.6948 56.3957 42.9769 58.1136C41.259 59.8316 38.9297 60.7979 36.5002 60.8006Z" fill="white"/>
<path d="M42.4704 47.6298C42.1018 47.2621 41.6024 47.0557 41.0818 47.0557C40.5612 47.0557 40.0618 47.2621 39.6933 47.6298L33.8817 53.4414L32.6521 52.2117C32.2838 51.8434 31.7843 51.6365 31.2635 51.6365C30.7427 51.6365 30.2432 51.8434 29.875 52.2117C29.5067 52.5799 29.2998 53.0794 29.2998 53.6002C29.2998 54.121 29.5067 54.6205 29.875 54.9888L32.4932 57.607C32.6755 57.7893 32.892 57.934 33.1302 58.0327C33.3685 58.1314 33.6238 58.1822 33.8817 58.1822C34.1396 58.1822 34.395 58.1314 34.6332 58.0327C34.8715 57.934 35.0879 57.7893 35.2703 57.607L42.4704 50.4069C42.6527 50.2246 42.7974 50.0081 42.8961 49.7698C42.9947 49.5316 43.0455 49.2762 43.0455 49.0183C43.0455 48.7605 42.9947 48.5051 42.8961 48.2669C42.7974 48.0286 42.6527 47.8121 42.4704 47.6298ZM41.5446 49.4811L34.3445 56.6812C34.2217 56.8039 34.0553 56.8728 33.8817 56.8728C33.7082 56.8728 33.5417 56.8039 33.419 56.6812L30.8007 54.063C30.6803 53.9398 30.6133 53.774 30.6142 53.6017C30.6152 53.4293 30.6841 53.2644 30.806 53.1425C30.9278 53.0207 31.0928 52.9518 31.2652 52.9509C31.4375 52.9499 31.6032 53.017 31.7264 53.1374L33.419 54.8299C33.5418 54.9526 33.7083 55.0216 33.8818 55.0216C34.0554 55.0216 34.2219 54.9526 34.3447 54.8299L40.6191 48.5556C40.6795 48.4931 40.7517 48.4432 40.8316 48.4089C40.9114 48.3746 40.9973 48.3565 41.0842 48.3558C41.1712 48.355 41.2573 48.3716 41.3378 48.4045C41.4182 48.4374 41.4913 48.486 41.5528 48.5475C41.6142 48.6089 41.6628 48.682 41.6957 48.7624C41.7287 48.8429 41.7452 48.9291 41.7445 49.016C41.7437 49.1029 41.7256 49.1888 41.6913 49.2686C41.657 49.3485 41.6072 49.4207 41.5447 49.4811H41.5446Z" fill="white"/>
<path d="M36.5003 35.9277C27.8382 35.9277 20.791 42.9749 20.791 51.637C20.791 60.2991 27.8382 67.3463 36.5003 67.3463C45.1624 67.3463 52.2096 60.2991 52.2096 51.637C52.2096 42.9749 45.1624 35.9277 36.5003 35.9277ZM36.5003 66.0372C28.56 66.0372 22.1001 59.5773 22.1001 51.637C22.1001 43.6967 28.56 37.2368 36.5003 37.2368C44.4406 37.2368 50.9004 43.6967 50.9004 51.637C50.9004 59.5773 44.4406 66.0372 36.5003 66.0372Z" fill="white"/>
</svg>
