<svg width="100" height="102" viewBox="0 0 100 102" fill="none" xmlns="http://www.w3.org/2000/svg">
<path d="M50 100C77.6142 100 100 77.6142 100 50C100 22.3858 77.6142 0 50 0C22.3858 0 0 22.3858 0 50C0 77.6142 22.3858 100 50 100Z" fill="url(#paint0_linear_834_13534)"/>
<path d="M81.7607 27.4456C72.2963 27.4456 63.121 24.1846 55.7793 18.2119C52.1544 15.2627 46.9572 15.2627 43.3324 18.2119C35.9908 24.1848 26.8154 27.4456 17.3511 27.4456C14.3957 27.4456 12 29.8414 12 32.7968V47.1386C12 65.5368 20.2846 82.9572 34.5565 94.5683L38.9614 98.1519C45.1324 103.172 53.9799 103.172 60.1509 98.1519L64.5558 94.5683C78.8275 82.9573 87.1123 65.5361 87.1123 47.1379C87.1123 41.6318 87.1123 36.4573 87.1123 32.7956C87.1118 29.8402 84.716 27.4456 81.7607 27.4456Z" fill="url(#paint1_linear_834_13534)"/>
<path d="M49.5559 97.1962C48.5242 97.1962 47.5151 96.8376 46.7147 96.1865L38.2899 89.3323C32.1364 84.3258 27.0828 77.8928 23.6757 70.7288C20.2687 63.5648 18.4678 55.585 18.4678 47.6521V36.2709C18.4678 34.894 19.5935 33.7232 20.9685 33.6506C30.3448 33.1548 39.4094 29.6778 46.7147 23.7344C47.5152 23.0831 48.5242 22.7246 49.5559 22.7246C50.5877 22.7246 51.5967 23.0831 52.397 23.7342C59.7027 29.6778 68.7675 33.1548 78.1438 33.6506C79.5185 33.7232 80.644 34.8939 80.644 36.2706V47.6514C80.644 55.5845 78.8431 63.5643 75.436 70.7285C72.029 77.8928 66.9755 84.3258 60.822 89.3323L52.397 96.1865C51.5967 96.8378 50.5877 97.1962 49.5559 97.1962Z" fill="#659FF2"/>
<path d="M49.5564 94.0546C48.6116 94.0546 47.6878 93.7262 46.9549 93.13L39.2411 86.8544C33.6068 82.2704 28.9797 76.3802 25.8602 69.8208C22.7407 63.2614 21.0918 55.9549 21.0918 48.6914V38.2706C21.0918 37.01 22.1225 35.938 23.3814 35.8713C31.9664 35.4173 40.2662 32.2338 46.9549 26.7919C47.6879 26.1957 48.6118 25.8672 49.5564 25.8672C50.5011 25.8672 51.425 26.1955 52.1577 26.7917C58.8467 32.2338 67.1467 35.4173 75.7317 35.8713C76.9905 35.9379 78.021 37.0097 78.021 38.2701V48.6905C78.021 55.9541 76.372 63.2606 73.2526 69.8203C70.1331 76.38 65.506 82.2702 59.8717 86.8542L52.1577 93.1299C51.425 93.7262 50.5011 94.0546 49.5564 94.0546Z" fill="#E8EFFF"/>
<path d="M87.1126 32.7957C87.1126 29.8403 84.7169 27.4457 81.7615 27.4457C72.2971 27.4457 63.1218 24.1847 55.7801 18.212C53.9676 16.7374 51.7622 16 49.5566 16V101.917C53.3112 101.917 57.0658 100.662 60.1514 98.152L64.5563 94.5684C78.828 82.9574 87.1126 65.5362 87.1128 47.138C87.1126 41.6317 87.1126 36.4573 87.1126 32.7957Z" fill="url(#paint2_linear_834_13534)"/>
<path d="M77.5907 41.0013C75.9075 39.3184 73.1787 39.6634 71.4956 41.3463L50.4965 62.3452C50.2919 62.5499 49.7134 62.9379 49.5536 62.9379C49.3939 62.9379 49.1604 62.8949 48.9556 62.6901L40.9063 54.6408C39.2232 52.9578 36.6669 52.9578 34.9838 54.6408C33.3006 56.3239 33.1281 58.7077 34.8112 60.3909L66.9403 92.5199C78.9231 81.7022 86.1423 66.5766 87.0187 50.4618L77.5907 41.0013Z" fill="url(#paint3_linear_834_13534)"/>
<path d="M64.5563 94.5688C74.7429 86.2813 81.8783 75.0334 85.1292 62.5833L65.7076 43.1619C61.6544 38.8809 55.9178 36.5547 49.5569 36.5547C37.4376 36.5545 27.6629 46.3294 27.6631 58.4486C27.6631 64.8095 29.9893 70.546 34.2705 74.5992L57.6127 97.9415C58.3258 98.6546 59.463 98.7129 60.2453 98.0764L64.5563 94.5688Z" fill="url(#paint4_linear_834_13534)"/>
<path d="M49.554 80.6862C61.8361 80.6862 71.7926 70.7296 71.7926 58.4476C71.7926 46.1655 61.8361 36.209 49.554 36.209C37.272 36.209 27.3154 46.1655 27.3154 58.4476C27.3154 70.7296 37.272 80.6862 49.554 80.6862Z" fill="url(#paint5_linear_834_13534)"/>
<path d="M67.5119 45.3301L50.4965 62.3452C50.2919 62.5499 49.7134 62.9379 49.5536 62.9379C49.3939 62.9379 49.1605 62.895 48.9556 62.6901L40.9063 54.6408C39.2232 52.9579 36.6669 52.9579 34.9838 54.6408C33.3006 56.324 33.1281 58.7077 34.8112 60.3909L54.5436 80.1232C64.4229 77.8582 71.7923 69.0134 71.7923 58.447C71.7923 53.5413 70.2025 49.0075 67.5119 45.3301Z" fill="url(#paint6_linear_834_13534)"/>
<path d="M49.5555 71.2137C47.0272 71.2137 44.6502 70.229 42.8624 68.4413L34.8131 60.3922C33.13 58.709 33.13 55.9802 34.8131 54.2971C36.4961 52.6141 39.2249 52.6141 40.9082 54.2971L48.9575 62.3463C49.1623 62.5512 49.3958 62.5942 49.5555 62.5942C49.7152 62.5942 49.9487 62.5512 50.1536 62.3463L71.4975 41.0025C73.1806 39.3195 75.9094 39.3195 77.5926 41.0025C79.2757 42.6856 79.2757 45.4144 77.5926 47.0975L56.2487 68.4413C54.4609 70.229 52.0839 71.2137 49.5555 71.2137Z" fill="url(#paint7_linear_834_13534)"/>
<defs>
<linearGradient id="paint0_linear_834_13534" x1="50" y1="100" x2="50" y2="0" gradientUnits="userSpaceOnUse">
<stop stop-color="#6BB8FF"/>
<stop offset="0.9973" stop-color="#EBF8FF"/>
</linearGradient>
<linearGradient id="paint1_linear_834_13534" x1="18.0894" y1="20.0561" x2="82.8586" y2="84.8253" gradientUnits="userSpaceOnUse">
<stop stop-color="#064DD6"/>
<stop offset="1" stop-color="#6398FF"/>
</linearGradient>
<linearGradient id="paint2_linear_834_13534" x1="57.3623" y1="60.406" x2="5.64462" y2="35.5816" gradientUnits="userSpaceOnUse">
<stop stop-color="#B5DBFF" stop-opacity="0"/>
<stop offset="0.1734" stop-color="#8FC5E9" stop-opacity="0.173"/>
<stop offset="0.4541" stop-color="#56A4C8" stop-opacity="0.454"/>
<stop offset="0.6955" stop-color="#2D8DB1" stop-opacity="0.696"/>
<stop offset="0.8853" stop-color="#147EA2" stop-opacity="0.885"/>
<stop offset="1" stop-color="#0B799D"/>
</linearGradient>
<linearGradient id="paint3_linear_834_13534" x1="77.1436" y1="70.4445" x2="59.4446" y2="56.9978" gradientUnits="userSpaceOnUse">
<stop stop-color="#B5DBFF" stop-opacity="0"/>
<stop offset="0.1734" stop-color="#8FC5E9" stop-opacity="0.173"/>
<stop offset="0.4541" stop-color="#56A4C8" stop-opacity="0.454"/>
<stop offset="0.6955" stop-color="#2D8DB1" stop-opacity="0.696"/>
<stop offset="0.8853" stop-color="#147EA2" stop-opacity="0.885"/>
<stop offset="1" stop-color="#0B799D"/>
</linearGradient>
<linearGradient id="paint4_linear_834_13534" x1="74.1671" y1="83.0587" x2="44.669" y2="53.5606" gradientUnits="userSpaceOnUse">
<stop stop-color="#B5DBFF" stop-opacity="0"/>
<stop offset="0.1734" stop-color="#8FC5E9" stop-opacity="0.173"/>
<stop offset="0.4541" stop-color="#56A4C8" stop-opacity="0.454"/>
<stop offset="0.6955" stop-color="#2D8DB1" stop-opacity="0.696"/>
<stop offset="0.8853" stop-color="#147EA2" stop-opacity="0.885"/>
<stop offset="1" stop-color="#0B799D"/>
</linearGradient>
<linearGradient id="paint5_linear_834_13534" x1="39.2104" y1="48.1042" x2="60.6455" y2="69.539" gradientUnits="userSpaceOnUse">
<stop stop-color="#FFD850"/>
<stop offset="1" stop-color="#FC9F13"/>
</linearGradient>
<linearGradient id="paint6_linear_834_13534" x1="69.7671" y1="71.4661" x2="61.7965" y2="63.4954" gradientUnits="userSpaceOnUse">
<stop stop-color="#E8A510"/>
<stop offset="1" stop-color="#E8A510"/>
</linearGradient>
<linearGradient id="paint7_linear_834_13534" x1="33.5508" y1="79.0821" x2="83.0343" y2="61.7507" gradientUnits="userSpaceOnUse">
<stop stop-color="#0A3ECA"/>
<stop offset="0.961522" stop-color="#4B7CFF"/>
</linearGradient>
</defs>
</svg>
