<svg width="117" height="118" viewBox="0 0 117 118" fill="none" xmlns="http://www.w3.org/2000/svg">
<path d="M83.5614 0.726562C86.9358 0.726562 89.6715 3.46207 89.6715 6.83672V100.959C89.6715 105.591 87.7949 109.782 84.7598 112.815C81.727 115.85 77.5333 117.727 72.9038 117.727H17.0336C13.3552 117.727 10.373 114.745 10.373 111.066V6.83672C10.373 3.46207 13.1086 0.726563 16.4832 0.726563L83.5614 0.726562Z" fill="url(#paint0_linear_834_13646)"/>
<path d="M89.6717 100.958V71.8438H10.3721V111.066C10.3721 114.744 13.3542 117.726 17.0326 117.726H72.904C77.5335 117.726 81.7272 115.85 84.76 112.814C87.7951 109.782 89.6717 105.59 89.6717 100.958Z" fill="url(#paint1_linear_834_13646)"/>
<path d="M55.0215 97.4805V101.169C55.0215 110.313 62.4345 117.726 71.5788 117.726H72.9046C73.6552 117.726 74.3928 117.672 75.1173 117.576L55.0215 97.4805Z" fill="url(#paint2_linear_834_13646)"/>
<path d="M56.1373 100.959C56.1373 110.219 63.6441 117.726 72.9041 117.726H16.7668C7.50681 117.726 0 110.219 0 100.959C0 97.4373 2.85526 94.582 6.37742 94.582H49.7601C53.282 94.582 56.1373 97.4373 56.1373 100.959Z" fill="url(#paint3_linear_834_13646)"/>
<path d="M114.918 117.726H63.7193C62.5693 117.726 61.6367 116.793 61.6367 115.643V73.0006C61.6367 71.8505 62.569 70.918 63.7193 70.918H114.918C116.068 70.918 117 71.8503 117 73.0006V115.643C117 116.793 116.068 117.726 114.918 117.726Z" fill="url(#paint4_linear_834_13646)"/>
<path d="M117 73.0001V115.643C117 116.793 116.068 117.725 114.918 117.725H108.122L74.582 84.1846V70.918H114.918C116.068 70.918 117 71.8505 117 73.0001Z" fill="url(#paint5_linear_834_13646)"/>
<path d="M114.918 70.918H100.371C101.521 70.918 102.454 71.8503 102.454 73.0006V115.643C102.454 116.793 101.521 117.726 100.371 117.726H114.918C116.068 117.726 117 116.793 117 115.643V73.0003C117 71.8503 116.068 70.918 114.918 70.918Z" fill="url(#paint6_linear_834_13646)"/>
<path d="M61.6367 106.436V115.643C61.6367 116.793 62.569 117.725 63.7193 117.725H114.918C116.068 117.725 117 116.793 117 115.643V106.436H61.6367Z" fill="url(#paint7_linear_834_13646)"/>
<path d="M76.719 84.5422L76.7598 84.567C77.6958 85.1353 78.8727 85.1259 79.7996 84.5422C80.7466 83.9703 81.9326 83.9703 82.8796 84.5422C83.8266 85.1142 85.0127 85.1142 85.9597 84.5422H85.9599C86.3988 84.2881 86.8845 84.2825 87.3736 84.3743C87.9315 84.4789 88.4495 84.0607 88.4495 83.4931V71.3421C88.4495 70.9374 88.1215 70.6094 87.7168 70.6094H74.9613C74.5566 70.6094 74.2285 70.9374 74.2285 71.3421V83.4759C74.2285 84.0401 74.7417 84.4624 75.2962 84.3587C75.7906 84.266 76.2806 84.2761 76.719 84.5422Z" fill="url(#paint8_linear_834_13646)"/>
<path d="M83.2971 24.9711C83.2971 26.4082 82.1321 27.5731 80.6951 27.5731H44.6743C43.2372 27.5731 42.0723 26.4082 42.0723 24.9711C42.0723 23.5341 43.2372 22.3691 44.6743 22.3691H80.6951C82.1321 22.3694 83.2971 23.5343 83.2971 24.9711Z" fill="#064DD6"/>
<path d="M31.9952 32.5809H26.1638C23.576 32.5809 21.4707 30.4755 21.4707 27.8878V22.0564C21.4707 19.4686 23.576 17.3633 26.1638 17.3633H31.9952C34.583 17.3633 36.6883 19.4686 36.6883 22.0564V27.8878C36.6883 30.4755 34.583 32.5809 31.9952 32.5809ZM26.1636 20.8045C25.4733 20.8045 24.9117 21.3661 24.9117 22.0564V27.8878C24.9117 28.5781 25.4733 29.1397 26.1636 29.1397H31.995C32.6853 29.1397 33.2469 28.5781 33.2469 27.8878V22.0564C33.2469 21.3661 32.6853 20.8045 31.995 20.8045H26.1636Z" fill="url(#paint9_linear_834_13646)"/>
<path d="M29.2128 29.1192C28.4789 29.1192 27.745 28.839 27.185 28.2793L20.9336 22.0278C19.8138 20.9078 19.8138 19.0923 20.9336 17.9723C22.0536 16.8525 23.8691 16.8525 24.9891 17.9723L29.2128 22.196L37.9674 13.4414C39.0874 12.3216 40.9029 12.3216 42.0229 13.4414C43.1427 14.5614 43.1427 16.3769 42.0229 17.4969L31.2406 28.2793C30.6806 28.8393 29.9467 29.1192 29.2128 29.1192Z" fill="url(#paint10_linear_834_13646)"/>
<path d="M29.1929 74.3613H20.5305C20.2887 74.3613 20.0928 74.1654 20.0928 73.9236V71.3576C20.0928 71.1158 20.2887 70.9199 20.5305 70.9199H29.1929C29.4347 70.9199 29.6306 71.1158 29.6306 71.3576V73.9236C29.6303 74.1654 29.4344 74.3613 29.1929 74.3613Z" fill="#064DD6"/>
<path d="M40.2046 81.0137H20.5305C20.2887 81.0137 20.0928 80.8178 20.0928 80.576V78.01C20.0928 77.7682 20.2887 77.5723 20.5305 77.5723H40.2046C40.4464 77.5723 40.6423 77.7682 40.6423 78.01V80.576C40.6421 80.8178 40.4462 81.0137 40.2046 81.0137Z" fill="#064DD6"/>
<path d="M34.2399 87.668H20.5305C20.2887 87.668 20.0928 87.472 20.0928 87.2302V84.6643C20.0928 84.4225 20.2887 84.2266 20.5305 84.2266H34.2399C34.4817 84.2266 34.6776 84.4225 34.6776 84.6643V87.2302C34.6774 87.472 34.4815 87.668 34.2399 87.668Z" fill="#064DD6"/>
<path d="M83.2971 51.4692C83.2971 52.9062 82.1321 54.0712 80.6951 54.0712H44.6743C43.2372 54.0712 42.0723 52.9062 42.0723 51.4692C42.0723 50.0321 43.2372 48.8672 44.6743 48.8672H80.6951C82.1321 48.8672 83.2971 50.0321 83.2971 51.4692Z" fill="#064DD6"/>
<path d="M31.9952 59.0769H26.1638C23.576 59.0769 21.4707 56.9716 21.4707 54.3839V48.5525C21.4707 45.9647 23.576 43.8594 26.1638 43.8594H31.9952C34.583 43.8594 36.6883 45.9647 36.6883 48.5525V54.3839C36.6883 56.9716 34.583 59.0769 31.9952 59.0769ZM26.1636 47.3006C25.4733 47.3006 24.9117 47.8622 24.9117 48.5525V54.3839C24.9117 55.0742 25.4733 55.6358 26.1636 55.6358H31.995C32.6853 55.6358 33.2469 55.0742 33.2469 54.3839V48.5525C33.2469 47.8622 32.6853 47.3006 31.995 47.3006H26.1636Z" fill="url(#paint11_linear_834_13646)"/>
<path d="M29.2128 55.6152C28.4789 55.6152 27.745 55.3351 27.185 54.7754L20.9336 48.5239C19.8138 47.4039 19.8138 45.5883 20.9336 44.4684C22.0536 43.3486 23.8691 43.3486 24.9891 44.4684L29.2128 48.6921L37.9674 39.9375C39.0874 38.8177 40.9029 38.8177 42.0229 39.9375C43.1427 41.0575 43.1427 42.873 42.0229 43.993L31.2406 54.7754C30.6806 55.3354 29.9467 55.6152 29.2128 55.6152Z" fill="url(#paint12_linear_834_13646)"/>
<defs>
<linearGradient id="paint0_linear_834_13646" x1="25.182" y1="34.225" x2="114.321" y2="123.364" gradientUnits="userSpaceOnUse">
<stop stop-color="#EAF6FF"/>
<stop offset="0.2575" stop-color="#DCE8FA"/>
<stop offset="0.7423" stop-color="#B8C4ED"/>
<stop offset="1" stop-color="#A2AEE6"/>
</linearGradient>
<linearGradient id="paint1_linear_834_13646" x1="50.022" y1="81.6321" x2="50.022" y2="116.978" gradientUnits="userSpaceOnUse">
<stop stop-color="#7BACDF" stop-opacity="0"/>
<stop offset="1" stop-color="#7BACDF"/>
</linearGradient>
<linearGradient id="paint2_linear_834_13646" x1="79.3981" y1="127.13" x2="56.0201" y2="103.752" gradientUnits="userSpaceOnUse">
<stop stop-color="#8795DE" stop-opacity="0"/>
<stop offset="0.4678" stop-color="#7D8DDC" stop-opacity="0.468"/>
<stop offset="1" stop-color="#6C7FD8"/>
</linearGradient>
<linearGradient id="paint3_linear_834_13646" x1="36.4522" y1="96.1615" x2="36.4522" y2="119.35" gradientUnits="userSpaceOnUse">
<stop stop-color="#EAF6FF"/>
<stop offset="0.2575" stop-color="#DCE8FA"/>
<stop offset="0.7423" stop-color="#B8C4ED"/>
<stop offset="1" stop-color="#A2AEE6"/>
</linearGradient>
<linearGradient id="paint4_linear_834_13646" x1="70.9366" y1="75.94" x2="115.138" y2="120.141" gradientUnits="userSpaceOnUse">
<stop stop-color="#FEE45A"/>
<stop offset="1" stop-color="#FE860A"/>
</linearGradient>
<linearGradient id="paint5_linear_834_13646" x1="113.25" y1="95.3141" x2="56.2578" y2="54.8229" gradientUnits="userSpaceOnUse">
<stop stop-color="#FE860A" stop-opacity="0"/>
<stop offset="1" stop-color="#FE7701"/>
</linearGradient>
<linearGradient id="paint6_linear_834_13646" x1="118.84" y1="82.9862" x2="83.9691" y2="119.763" gradientUnits="userSpaceOnUse">
<stop stop-color="#FE860A" stop-opacity="0"/>
<stop offset="1" stop-color="#FE7701"/>
</linearGradient>
<linearGradient id="paint7_linear_834_13646" x1="89.3185" y1="109.909" x2="89.3185" y2="119.918" gradientUnits="userSpaceOnUse">
<stop stop-color="#FE860A" stop-opacity="0"/>
<stop offset="1" stop-color="#FE7701"/>
</linearGradient>
<linearGradient id="paint8_linear_834_13646" x1="76.0507" y1="72.1547" x2="91.7973" y2="87.9013" gradientUnits="userSpaceOnUse">
<stop stop-color="#EAF6FF"/>
<stop offset="0.2575" stop-color="#DCE8FA"/>
<stop offset="0.7423" stop-color="#B8C4ED"/>
<stop offset="1" stop-color="#A2AEE6"/>
</linearGradient>
<linearGradient id="paint9_linear_834_13646" x1="29.0794" y1="17.3633" x2="29.0794" y2="32.5809" gradientUnits="userSpaceOnUse">
<stop stop-color="#537983"/>
<stop offset="1" stop-color="#3E5959"/>
</linearGradient>
<linearGradient id="paint10_linear_834_13646" x1="31.6216" y1="17.878" x2="37.4372" y2="23.6936" gradientUnits="userSpaceOnUse">
<stop stop-color="#A2E62E"/>
<stop offset="1" stop-color="#02905D"/>
</linearGradient>
<linearGradient id="paint11_linear_834_13646" x1="29.0794" y1="43.8594" x2="29.0794" y2="59.0769" gradientUnits="userSpaceOnUse">
<stop stop-color="#537983"/>
<stop offset="1" stop-color="#3E5959"/>
</linearGradient>
<linearGradient id="paint12_linear_834_13646" x1="31.6216" y1="44.3741" x2="37.4372" y2="50.1899" gradientUnits="userSpaceOnUse">
<stop stop-color="#A2E62E"/>
<stop offset="1" stop-color="#02905D"/>
</linearGradient>
</defs>
</svg>
