<svg width="149" height="150" viewBox="0 0 149 150" fill="none" xmlns="http://www.w3.org/2000/svg">
<path d="M127.267 17.6426C125.41 17.8748 123.785 16.7141 123.088 14.857L122.856 14.1606C115.196 26.4637 101.732 45.0344 95.9286 46.8915C88.2682 49.2128 80.1435 42.9452 72.0188 36.6776C66.2155 32.2671 59.0193 26.4637 55.0731 27.8565C53.6803 28.3208 51.5911 29.2493 48.5733 32.2671C42.77 37.8383 29.3062 59.6588 21.6458 73.5868C19.0924 77.9974 12.3605 74.2832 14.914 69.8727C21.878 57.1054 35.1096 35.2848 40.9129 29.0172C45.0913 24.3745 49.0376 21.5889 52.7517 20.4282C60.6443 18.1069 68.769 24.3745 76.6615 30.6421C82.4648 35.0527 89.661 40.6239 93.6073 39.4632C95.9286 38.5347 107.303 24.1424 115.66 11.1429C111.017 12.3036 108.928 5.10743 113.803 3.71462L122.856 0.929022C124.945 0.232621 127.034 1.39329 127.731 3.48249L130.516 12.7678C131.213 15.0892 129.82 17.4105 127.267 17.6426Z" fill="#F34B58"/>
<path d="M123.314 91.2298H46.7095V59.1953L6.0861 63.838C2.37196 64.3023 -0.413644 67.5521 0.050623 71.4984L7.01463 133.014C7.4789 136.728 10.7288 139.514 14.675 139.049L120.528 126.746C124.242 126.282 127.028 123.032 126.563 119.086L123.314 91.2298Z" fill="url(#paint0_linear_834_13558)"/>
<path d="M94.0676 58.7305V129.763L56.4619 134.174V58.7305H94.0676Z" fill="#C9CEE2"/>
<path d="M135.388 60.1242V121.872C135.388 125.586 132.37 128.836 128.424 128.836H22.1066C18.3924 128.836 15.1426 125.818 15.1426 121.872V60.1242C15.1426 56.41 18.1603 53.1602 22.1066 53.1602H128.656C132.138 53.1602 135.388 56.41 135.388 60.1242Z" fill="#064DD6"/>
<path d="M24.1943 109.336V72.8913C29.9977 72.8913 34.6403 68.2487 34.6403 62.4453H115.655C115.655 68.2487 120.298 72.8913 126.101 72.8913V109.336C120.298 109.336 115.655 113.979 115.655 119.782H34.6403C34.6403 113.979 29.9977 109.336 24.1943 109.336Z" fill="#CBE3FC"/>
<path d="M56.4619 53.1602H94.0676V128.604H56.4619V53.1602Z" fill="#E9E7FC"/>
<path d="M116.352 90.9969C116.352 94.9432 113.102 98.1931 109.156 98.1931C105.21 98.1931 101.96 94.9432 101.96 90.9969C101.96 87.0506 105.21 83.8008 109.156 83.8008C113.102 83.8008 116.352 87.0506 116.352 90.9969Z" fill="#064DD6"/>
<path d="M48.3376 90.9969C48.3376 94.9432 45.0877 98.1931 41.1415 98.1931C37.1952 98.1931 33.9453 94.9432 33.9453 90.9969C33.9453 87.0506 37.1952 83.8008 41.1415 83.8008C45.0877 83.8008 48.3376 87.0506 48.3376 90.9969Z" fill="#064DD6"/>
<path d="M76.6573 89.3733V82.4093C78.0501 82.4093 79.4429 82.8736 80.8357 83.3379C83.1571 84.2664 84.3177 80.7844 81.9964 79.8559C80.3715 79.1595 78.5144 78.9273 76.6573 78.6952C76.4252 77.9988 77.1216 75.4453 75.2645 75.4453C73.1753 75.4453 73.8717 78.2309 73.8717 78.6952C69.6933 79.1595 66.6756 81.7129 66.6756 85.6592C66.6756 89.8376 69.9254 91.2304 73.8717 92.3911V98.8908C72.2468 98.6587 70.6218 98.4265 68.9969 97.7301C66.6756 96.5695 65.2828 100.284 67.6041 101.212C69.4612 102.141 71.5504 102.605 73.8717 102.837V104.694C73.8717 105.623 74.5681 106.087 75.2645 106.087C76.193 106.087 76.6573 105.391 76.6573 104.694V103.069C81.5321 102.605 84.0856 99.5872 84.0856 96.3373C84.0856 91.9268 80.8357 90.534 76.6573 89.3733ZM76.6573 93.5517C78.2822 94.016 80.3715 94.7124 80.3715 96.1052C80.3715 97.9623 79.2108 98.8908 76.6573 99.3551V93.5517ZM70.3897 85.8913C70.3897 84.0343 72.0146 83.1057 73.6396 82.8736V88.9091C72.0146 88.2127 70.3897 87.5163 70.3897 85.8913Z" fill="#064DD6"/>
<path d="M10.962 117.692C9.56919 113.514 8.87279 109.103 8.40853 104.925C7.94426 100.747 7.47999 96.1039 7.94426 91.6934C9.33706 95.6396 10.0335 100.514 10.4977 104.461C10.962 108.871 11.1941 113.282 10.962 117.692Z" fill="white"/>
<path d="M62.2656 58.0329C69.926 56.6401 81.7649 56.6401 88.4967 58.0329C81.7649 59.4257 69.926 59.6578 62.2656 58.0329Z" fill="white"/>
<path d="M148.158 121.639C148.158 137.192 135.623 149.727 120.07 149.727C104.517 149.727 91.9814 137.192 91.9814 121.639C91.9814 106.086 104.517 93.5508 120.07 93.5508C135.39 93.5508 148.158 106.086 148.158 121.639Z" fill="#FFD06C"/>
<path d="M100.101 121.64C100.101 132.55 108.922 141.371 119.832 141.371C130.742 141.371 139.563 132.55 139.563 121.64C139.563 110.729 130.742 101.908 119.832 101.908C109.154 101.908 100.101 110.729 100.101 121.64Z" fill="#F9A83D"/>
<path d="M121.691 120.015V113.515C123.084 113.515 124.476 113.98 125.637 114.212C127.958 115.14 128.887 111.658 126.798 110.962C125.405 110.498 123.548 110.033 121.691 110.033C121.691 109.569 122.155 107.016 120.298 107.016C118.441 107.016 119.137 109.569 118.905 110.265C114.959 110.73 111.941 113.283 111.941 116.997C111.941 120.944 115.191 122.336 118.905 123.497V129.765C117.28 129.533 115.655 129.3 114.262 128.604C111.941 127.676 110.78 130.925 112.87 131.854C114.727 132.55 116.816 133.015 118.905 133.247V135.104C118.905 136.961 121.691 136.961 121.691 135.104V133.247C126.333 132.782 128.887 129.997 128.887 126.747C128.887 122.104 125.637 120.944 121.691 120.015ZM121.691 123.729C123.084 124.194 125.173 124.658 125.173 126.283C125.173 128.14 124.012 129.068 121.691 129.3V123.729ZM115.655 116.533C115.655 114.908 117.048 113.98 118.905 113.747V119.319C117.28 118.622 115.655 118.158 115.655 116.533Z" fill="#FFD06C"/>
<path d="M121.225 141.371C108.922 142.067 100.101 132.55 100.101 121.64C100.101 110.729 108.922 101.908 119.832 101.908H121.225C111.011 102.605 102.886 111.194 102.886 121.64C102.886 132.086 111.011 140.675 121.225 141.371Z" fill="#EA9734"/>
<g opacity="0.2">
<path d="M136.084 144.619C130.745 148.566 121.924 150.887 113.567 148.798L94.9961 108.639C98.7102 101.443 105.674 96.3356 113.103 94.4785L136.084 144.619Z" fill="white"/>
<path d="M144.671 135.102C143.51 137.191 142.118 139.048 140.493 140.905L118.904 93.55C120.529 93.3179 124.476 93.7822 126.1 94.2464L144.671 135.102Z" fill="white"/>
</g>
<path d="M143.746 113.515C140.961 115.139 139.568 116.997 139.104 118.854C138.872 119.318 138.407 119.318 138.175 118.854C137.479 116.997 136.086 115.139 133.532 113.515C133.3 113.282 133.3 112.818 133.532 112.818C136.318 111.193 137.711 109.336 138.175 107.479C138.407 107.015 138.872 107.015 139.104 107.479C139.8 109.336 141.193 111.193 143.746 112.818C143.979 112.818 143.979 113.282 143.746 113.515Z" fill="white"/>
<path d="M99.6412 127.211C98.0163 128.139 97.3199 129.3 96.8556 130.46C96.8556 130.693 96.3913 130.693 96.3913 130.46C95.9271 129.3 95.2307 128.139 93.6057 127.211C93.3736 127.211 93.3736 126.746 93.6057 126.746C95.2307 125.818 95.9271 124.657 96.3913 123.496C96.3913 123.264 96.8556 123.264 96.8556 123.496C97.3199 124.657 98.0163 125.818 99.6412 126.746C99.8733 126.746 99.8733 126.978 99.6412 127.211Z" fill="white"/>
<defs>
<linearGradient id="paint0_linear_834_13558" x1="63.307" y1="59.1953" x2="63.307" y2="139.1" gradientUnits="userSpaceOnUse">
<stop stop-color="#0A257C"/>
<stop offset="1" stop-color="#0D36C1"/>
</linearGradient>
</defs>
</svg>
