<svg width="106" height="102" viewBox="0 0 106 102" fill="none" xmlns="http://www.w3.org/2000/svg">
<path d="M50 100C77.6142 100 100 77.6142 100 50C100 22.3858 77.6142 0 50 0C22.3858 0 0 22.3858 0 50C0 77.6142 22.3858 100 50 100Z" fill="url(#paint0_linear_834_13501)"/>
<path d="M20.98 98.937C14.9129 92.6773 11.3829 84.3898 11.0731 75.6778C10.7632 66.9658 13.6954 58.4484 19.3024 51.7734C24.9094 45.0984 32.7928 40.7401 41.4276 39.5416C50.0623 38.3431 58.8347 40.3895 66.0477 45.2851L73.6014 52.211C75.3335 54.3362 76.8115 56.6564 78.0052 59.1245L75.3746 94.2897C74.2442 95.9435 72.9753 97.4982 71.5817 98.937H20.98Z" fill="#064DD6"/>
<path d="M78.0056 59.1251C76.8119 56.6569 75.3339 54.3367 73.6018 52.2115L66.0481 45.2841L65.9149 45.1938C61.4643 42.2262 56.2349 40.6426 50.8857 40.6426C45.5365 40.6426 40.307 42.2262 35.8564 45.1938C31.576 48.0646 27.9778 51.84 25.3158 56.2534C22.6539 60.6668 20.993 65.6106 20.4505 70.7361C19.908 75.8615 20.4971 81.0435 22.1761 85.9164C23.8551 90.7892 26.5832 95.2342 30.1678 98.9376H71.582C72.9757 97.4987 74.2446 95.944 75.3749 94.2902L78.0056 59.1251Z" fill="#3E7DE6"/>
<path d="M76.0987 55.6957C75.3375 54.4845 74.5035 53.3207 73.6012 52.2106L70.2218 49.1113C68.5951 50.2222 66.8312 51.1173 64.9742 51.7742L58.2795 54.0557C57.903 54.1874 57.5771 54.4336 57.3475 54.7598C57.118 55.0861 56.9962 55.476 56.9994 55.8749V66.3945C56.9926 66.7303 57.0762 67.0617 57.2415 67.354C57.4069 67.6463 57.6478 67.8887 57.9391 68.0558C58.2304 68.2229 58.5613 68.3085 58.8971 68.3037C59.2329 68.2989 59.5612 68.2038 59.8475 68.0284L66.5743 63.8236C70.1185 61.5797 73.3254 58.843 76.0987 55.6957Z" fill="#659FF2"/>
<path d="M53.9375 33.0938H38.625C36.9336 33.0938 35.5625 34.4649 35.5625 36.1562C35.5625 37.8476 36.9336 39.2188 38.625 39.2188H53.9375C55.6289 39.2188 57 37.8476 57 36.1562C57 34.4649 55.6289 33.0938 53.9375 33.0938Z" fill="#FFC239"/>
<path d="M46.2812 88.2188C56.4295 88.2188 64.6562 79.992 64.6562 69.8438C64.6562 59.6955 56.4295 51.4688 46.2812 51.4688C36.133 51.4688 27.9062 59.6955 27.9062 69.8438C27.9062 79.992 36.133 88.2188 46.2812 88.2188Z" fill="#99C4FA"/>
<path d="M46.2813 51.4688C42.7191 51.4659 39.2338 52.5049 36.2546 54.4578C33.9444 57.987 32.9197 62.2042 33.353 66.4C33.7863 70.5959 35.6511 74.5147 38.6338 77.4974C41.6165 80.4801 45.5352 82.3449 49.7311 82.7781C53.927 83.2114 58.1441 82.1868 61.6734 79.8765C63.4852 77.1049 64.5137 73.8949 64.6502 70.5864C64.7866 67.278 64.0258 63.9942 62.4483 61.0828C60.8708 58.1714 58.5354 55.7408 55.6894 54.0484C52.8433 52.3559 49.5925 51.4646 46.2813 51.4688Z" fill="#CBE3FC"/>
<path d="M38.6248 33.0938L34.3679 25.4375C33.319 22.8926 34.7492 19.3125 37.0936 19.3125H55.4686C57.8129 19.3125 59.2431 22.8926 58.1942 25.4375L53.9373 33.0938H38.6248Z" fill="#064DD6"/>
<path d="M46.2812 68.3125C45.6755 68.3125 45.0834 68.1329 44.5798 67.7964C44.0762 67.4599 43.6837 66.9816 43.4519 66.422C43.2201 65.8624 43.1594 65.2466 43.2776 64.6525C43.3958 64.0585 43.6874 63.5128 44.1157 63.0845C44.544 62.6562 45.0897 62.3645 45.6838 62.2463C46.2779 62.1282 46.8936 62.1888 47.4532 62.4206C48.0128 62.6524 48.4911 63.0449 48.8276 63.5486C49.1641 64.0522 49.3438 64.6443 49.3438 65.25H52.4062C52.4012 63.896 51.9476 62.5819 51.1165 61.5131C50.2853 60.4442 49.1235 59.6809 47.8125 59.3424V57.5938H44.75V59.3424C43.3081 59.7135 42.0513 60.5981 41.2153 61.8302C40.3794 63.0622 40.0218 64.557 40.2098 66.0339C40.3977 67.5109 41.1183 68.8685 42.2362 69.8519C43.354 70.8353 44.7924 71.3769 46.2812 71.375C46.887 71.375 47.4791 71.5546 47.9827 71.8911C48.4863 72.2276 48.8788 72.7059 49.1106 73.2655C49.3424 73.8251 49.4031 74.4409 49.2849 75.035C49.1667 75.629 48.8751 76.1747 48.4468 76.603C48.0185 77.0313 47.4728 77.323 46.8787 77.4412C46.2846 77.5593 45.6689 77.4987 45.1093 77.2669C44.5497 77.0351 44.0714 76.6426 43.7349 76.1389C43.3984 75.6353 43.2188 75.0432 43.2188 74.4375H40.1562C40.1613 75.7915 40.6149 77.1056 41.446 78.1744C42.2772 79.2433 43.439 80.0066 44.75 80.3451V82.0938H47.8125V80.3451C49.2544 79.974 50.5112 79.0894 51.3472 77.8573C52.1831 76.6253 52.5407 75.1305 52.3527 73.6536C52.1648 72.1766 51.4442 70.819 50.3263 69.8356C49.2085 68.8522 47.7701 68.3106 46.2812 68.3125Z" fill="#064DD6"/>
<path d="M102.938 97.4062H11.0625V100.469H102.938V97.4062Z" fill="#FFC239"/>
<path d="M70.7812 69.8438H64.6562V94.3438H70.7812V69.8438Z" fill="#FFC239"/>
<path d="M81.5 59.125H75.375V94.3438H81.5V59.125Z" fill="#FFC239"/>
<path d="M92.2188 48.4062H86.0938V94.3438H92.2188V48.4062Z" fill="#FFC239"/>
<path d="M64.0863 65.3782C63.0518 61.2514 60.6161 57.612 57.1957 55.082C57.0754 55.3295 57.0102 55.6001 57.0043 55.8752V66.3949C56.9974 66.7307 57.0811 67.0621 57.2464 67.3544C57.4118 67.6466 57.6527 67.8891 57.944 68.0562C58.2353 68.2233 58.5662 68.3089 58.902 68.3041C59.2378 68.2992 59.566 68.2041 59.8524 68.0287L64.0863 65.3782Z" fill="#99C4FA"/>
<path d="M102.938 39.2188H96.8125V94.3438H102.938V39.2188Z" fill="#FFC239"/>
<path d="M60.0625 75.9688H53.9375V94.3438H60.0625V75.9688Z" fill="#FFC239"/>
<path d="M38.6243 33.0938C38.1007 33.0969 37.5868 33.2356 37.1328 33.4965C37.2301 34.2302 37.5899 34.9039 38.1456 35.3929C38.7013 35.8819 39.4153 36.1531 40.1555 36.1562H55.468C55.9916 36.1531 56.5054 36.0144 56.9594 35.7535C56.8621 35.0198 56.5023 34.3461 55.9466 33.8571C55.3909 33.3681 54.6769 33.0969 53.9368 33.0938H38.6243Z" fill="#FFD55D"/>
<path d="M58.1935 25.438C59.2424 22.893 57.8122 19.313 55.4678 19.313H39.5995C39.2314 19.3055 38.8669 19.3872 38.5372 19.5511C38.2075 19.7151 37.9224 19.9563 37.7062 20.2544C37.49 20.5524 37.3492 20.8984 37.2957 21.2627C37.2422 21.6269 37.2777 21.9988 37.3991 22.3464L37.4113 22.3755L39.6791 26.4547C40.2826 27.5398 41.1654 28.4437 42.2359 29.0727C43.3064 29.7017 44.5257 30.0328 45.7674 30.0317H55.6393L58.1935 25.438Z" fill="#3E7DE6"/>
<path d="M57 75.9688V89.75C57 90.5622 57.3227 91.3412 57.897 91.9155C58.4713 92.4898 59.2503 92.8125 60.0625 92.8125V75.9688H57Z" fill="#FFD55D"/>
<path d="M67.7188 69.8438V89.75C67.7188 90.5622 68.0414 91.3412 68.6157 91.9155C69.1901 92.4898 69.969 92.8125 70.7812 92.8125V69.8438H67.7188Z" fill="#FFD55D"/>
<path d="M78.4375 59.125V89.75C78.4375 90.5622 78.7602 91.3412 79.3345 91.9155C79.9088 92.4898 80.6878 92.8125 81.5 92.8125V59.125H78.4375Z" fill="#FFD55D"/>
<path d="M89.1562 48.4062V89.75C89.1562 90.5622 89.4789 91.3412 90.0532 91.9155C90.6276 92.4898 91.4065 92.8125 92.2188 92.8125V48.4062H89.1562Z" fill="#FFD55D"/>
<path d="M99.875 39.2188V89.75C99.875 90.5622 100.198 91.3412 100.772 91.9155C101.346 92.4898 102.125 92.8125 102.938 92.8125V39.2188H99.875Z" fill="#FFD55D"/>
<path d="M99.1164 25.849C99.1913 26.1115 99.1947 26.3892 99.1262 26.6535C99.0577 26.9177 98.9197 27.1588 98.7267 27.3519C98.5337 27.5449 98.2926 27.6828 98.0283 27.7513C97.7641 27.8199 97.4863 27.8165 97.2238 27.7416L89.1557 25.4371C85.2969 38.2643 77.7723 50.7364 66.5743 57.7342L59.8475 61.939C59.5612 62.1144 59.2329 62.2095 58.8971 62.2143C58.5613 62.2191 58.2304 62.1335 57.9391 61.9664C57.6478 61.7993 57.4069 61.5569 57.2415 61.2646C57.0762 60.9723 56.9926 60.6409 56.9994 60.3052V49.7839C56.9969 49.3856 57.1189 48.9964 57.3484 48.6707C57.5779 48.3451 57.9035 48.0994 58.2795 47.9679L64.9742 45.6863C73.932 42.6345 82.7106 33.3751 84.5619 23.9058L77.7341 20.4927C77.494 20.3727 77.2897 20.1918 77.1416 19.968C76.9936 19.7442 76.9069 19.4854 76.8903 19.2176C76.8737 18.9498 76.9278 18.6823 77.0471 18.442C77.1664 18.2016 77.3468 17.9969 77.5702 17.8482L92.0023 8.22581C92.2028 8.09216 92.432 8.00772 92.6714 7.97938C92.9107 7.95103 93.1533 7.97958 93.3796 8.06269C93.6058 8.14581 93.8092 8.28114 93.9732 8.45769C94.1373 8.63424 94.2573 8.84702 94.3236 9.07872L99.1164 25.849Z" fill="#F3A606"/>
<path d="M59.8475 57.97L66.5743 53.7652C76.9761 47.265 84.2082 36.0394 88.2782 24.1937C88.5356 23.4594 89.0647 22.8517 89.7566 22.4956C90.4484 22.1395 91.2505 22.0623 91.9976 22.2796L97.2238 23.7726C97.4329 23.8331 97.6527 23.8474 97.8679 23.8146C98.0831 23.7818 98.2886 23.7027 98.4702 23.5827L94.3236 9.07872C94.2573 8.84702 94.1372 8.63424 93.9732 8.45769C93.8091 8.28114 93.6057 8.14581 93.3795 8.06269C93.1533 7.97958 92.9107 7.95103 92.6713 7.97938C92.432 8.00772 92.2028 8.09216 92.0022 8.22581L77.5702 17.8482C77.3468 17.9969 77.1664 18.2016 77.0471 18.442C76.9277 18.6823 76.8737 18.9498 76.8903 19.2176C76.9068 19.4854 76.9935 19.7442 77.1416 19.968C77.2897 20.1918 77.494 20.3727 77.734 20.4927L84.5619 23.9058C82.7106 33.3751 73.9319 42.6345 64.9741 45.6878L58.2795 47.9694C57.9037 48.1008 57.5783 48.3463 57.3488 48.6716C57.1193 48.997 56.9972 49.3858 56.9994 49.7839V56.3377C56.9928 56.6733 57.0767 57.0045 57.2421 57.2966C57.4076 57.5887 57.6485 57.8309 57.9398 57.9978C58.231 58.1647 58.5618 58.2502 58.8974 58.2453C59.2331 58.2404 59.5612 58.1453 59.8475 57.97Z" fill="#FFC239"/>
<defs>
<linearGradient id="paint0_linear_834_13501" x1="50" y1="100" x2="50" y2="0" gradientUnits="userSpaceOnUse">
<stop stop-color="#6BB8FF"/>
<stop offset="0.9973" stop-color="#EBF8FF"/>
</linearGradient>
</defs>
</svg>
