<svg width="100" height="103" viewBox="0 0 100 103" fill="none" xmlns="http://www.w3.org/2000/svg">
<path d="M50 101C77.6142 101 100 78.6142 100 51C100 23.3858 77.6142 1 50 1C22.3858 1 0 23.3858 0 51C0 78.6142 22.3858 101 50 101Z" fill="url(#paint0_linear_834_13455)"/>
<path d="M79.2739 0H68.365C63.3036 0.00577452 58.4512 2.01895 54.8723 5.59787C51.2934 9.1768 49.2802 14.0292 49.2744 19.0906V35.4539H54.7289V21.8178H62.9105C67.9719 21.812 72.8243 19.7988 76.4032 16.2199C79.9821 12.641 81.9953 7.78858 82.0011 2.72722C82.0011 2.00392 81.7138 1.31024 81.2023 0.798785C80.6908 0.287331 79.9972 0 79.2739 0Z" fill="#064DD6"/>
<path d="M35.6361 5.45508H24.7272C24.0039 5.45508 23.3102 5.74241 22.7988 6.25386C22.2873 6.76532 22 7.459 22 8.1823C22.0058 13.2437 24.019 18.0961 27.5979 21.675C31.1768 25.2539 36.0292 27.2671 41.0906 27.2729H51.9994C52.7228 27.2729 53.4164 26.9855 53.9279 26.4741C54.4393 25.9626 54.7267 25.2689 54.7267 24.5456C54.7209 19.4843 52.7077 14.6319 49.1288 11.053C45.5499 7.47403 40.6975 5.46085 35.6361 5.45508Z" fill="url(#paint1_linear_834_13455)"/>
<path d="M51.9991 32.7266C47.0606 32.726 42.2146 34.0664 37.9784 36.6047C33.7422 39.143 30.2747 42.7839 27.946 47.1389C25.6173 51.4939 24.5148 56.3994 24.7562 61.332C24.9977 66.2646 26.5739 71.039 29.3167 75.1458C29.5653 75.5193 29.9022 75.8257 30.2975 76.0379C30.6928 76.2501 31.1344 76.3615 31.5831 76.3621H72.4096C72.8578 76.362 73.299 76.2515 73.6943 76.0403C74.0896 75.8291 74.4267 75.5238 74.6759 75.1512C77.42 71.0448 78.9974 66.2703 79.2398 61.3374C79.4822 56.4044 78.3805 51.4983 76.0523 47.1426C73.7241 42.7869 70.2568 39.1452 66.0205 36.6062C61.7842 34.0672 56.9379 32.7263 51.9991 32.7266Z" fill="#FFE066"/>
<path d="M51.9991 32.7266C47.0606 32.726 42.2146 34.0664 37.9784 36.6047C33.7422 39.143 30.2747 42.7839 27.946 47.1389C25.6173 51.4939 24.5148 56.3994 24.7562 61.332C24.9977 66.2646 26.5739 71.039 29.3167 75.1458C29.5653 75.5193 29.9022 75.8257 30.2975 76.0379C30.6928 76.2501 31.1344 76.3615 31.5831 76.3621H72.4096C72.8578 76.362 73.299 76.2515 73.6943 76.0403C74.0896 75.8291 74.4267 75.5238 74.6759 75.1512C77.42 71.0448 78.9974 66.2703 79.2398 61.3374C79.4822 56.4044 78.3805 51.4983 76.0523 47.1426C73.7241 42.7869 70.2568 39.1452 66.0205 36.6062C61.7842 34.0672 56.9379 32.7263 51.9991 32.7266ZM70.8987 70.9077H33.0967C31.1842 67.5908 30.1783 63.829 30.1799 60.0002C30.1816 56.1715 31.1907 52.4106 33.1061 49.0953C35.0214 45.7801 37.7754 43.0272 41.0915 41.1133C44.4076 39.1994 48.1689 38.1919 51.9977 38.1919C55.8264 38.1919 59.5878 39.1994 62.9039 41.1133C66.2199 43.0272 68.974 45.7801 70.8893 49.0953C72.8046 52.4106 73.8138 56.1715 73.8155 60.0002C73.8171 63.829 72.8112 67.5908 70.8987 70.9077Z" fill="#FFC933"/>
<path d="M52 57.2709C51.4606 57.2709 50.9334 57.1109 50.4849 56.8113C50.0364 56.5116 49.6868 56.0857 49.4804 55.5873C49.274 55.089 49.22 54.5406 49.3252 54.0116C49.4304 53.4826 49.6902 52.9966 50.0716 52.6152C50.453 52.2338 50.9389 51.9741 51.468 51.8688C51.997 51.7636 52.5454 51.8176 53.0437 52.024C53.542 52.2304 53.968 52.58 54.2676 53.0285C54.5673 53.477 54.7273 54.0043 54.7273 54.5437H60.1817C60.1747 52.8575 59.6469 51.2147 58.6706 49.84C57.6942 48.4653 56.317 47.4258 54.7273 46.8638V43.6348H49.2728V46.8638C47.4546 47.5042 45.9217 48.7674 44.9457 50.4297C43.9696 52.092 43.6134 54.0461 43.94 55.9459C44.2667 57.8457 45.2552 59.5686 46.7304 60.8095C48.2056 62.0503 50.0724 62.729 52 62.7253C52.5394 62.7253 53.0667 62.8853 53.5152 63.1849C53.9637 63.4846 54.3132 63.9106 54.5197 64.4089C54.7261 64.9072 54.7801 65.4556 54.6748 65.9846C54.5696 66.5136 54.3099 66.9996 53.9285 67.381C53.5471 67.7624 53.0611 68.0221 52.5321 68.1274C52.0031 68.2326 51.4547 68.1786 50.9564 67.9722C50.458 67.7658 50.0321 67.4162 49.7324 66.9677C49.4328 66.5192 49.2728 65.9919 49.2728 65.4525H43.8184C43.8184 67.0707 44.2982 68.6526 45.1972 69.998C46.0962 71.3435 47.374 72.3922 48.869 73.0114C50.364 73.6307 52.0091 73.7927 53.5962 73.477C55.1833 73.1613 56.6411 72.3821 57.7853 71.2379C58.9296 70.0936 59.7088 68.6358 60.0245 67.0487C60.3402 65.4616 60.1782 63.8166 59.5589 62.3216C58.9397 60.8266 57.891 59.5488 56.5455 58.6497C55.2001 57.7507 53.6182 57.2709 52 57.2709Z" fill="#FFB800"/>
<path d="M18.7207 93.4115V100.767C18.7207 101.638 19.418 102.344 20.2898 102.344H83.189C84.0608 102.344 84.7665 101.638 84.7665 100.767V93.4115C84.7665 92.5397 84.0608 91.834 83.189 91.834H20.2898C19.418 91.8381 18.7207 92.5437 18.7207 93.4115Z" fill="#FFD378"/>
<path d="M18.7207 93.4111V100.767C18.7207 101.638 19.418 102.344 20.2898 102.344H52.1567V91.8379H20.2898C19.418 91.8379 18.7207 92.5436 18.7207 93.4111Z" fill="#F7A45C"/>
<path d="M18.7207 93.4111V100.767C18.7207 101.638 19.418 102.344 20.2898 102.344H20.5969V91.8379H20.2898C19.418 91.8379 18.7207 92.5436 18.7207 93.4111Z" fill="#FFBC0E"/>
<path d="M23.2004 91.8379H21.3242V102.344H23.2004V91.8379Z" fill="#FFBC0E"/>
<path d="M25.8264 91.8379H23.9502V102.344H25.8264V91.8379Z" fill="#FFBC0E"/>
<path d="M50.4787 91.8379H48.6025V102.344H50.4787V91.8379Z" fill="#FFBC0E"/>
<path d="M53.0871 91.8379H51.2109V102.344H53.0871V91.8379Z" fill="#FFB000"/>
<path d="M55.7133 91.8379H53.8369V102.344H55.7133V91.8379Z" fill="#FFB000"/>
<path d="M79.5276 91.8379H77.6514V102.344H79.5276V91.8379Z" fill="#FFB000"/>
<path d="M82.1391 91.8379H80.2627V102.344H82.1391V91.8379Z" fill="#FFB000"/>
<path d="M82.8857 91.838V102.344H83.1847C84.0563 102.344 84.7619 101.638 84.7619 100.767V93.4115C84.7619 92.5397 84.0563 91.834 83.1847 91.834H82.8857V91.838Z" fill="#FFB000"/>
<path d="M52.1575 91.8379H51.2109V102.344H52.1575V91.8379Z" fill="#FFBC0E"/>
<path d="M16 83.1048V90.4602C16 91.332 16.6973 92.0375 17.5689 92.0375H80.4683C81.3399 92.0375 82.0456 91.332 82.0456 90.4602V83.1048C82.0456 82.233 81.3399 81.5273 80.4683 81.5273H17.5689C16.6973 81.5273 16 82.233 16 83.1048Z" fill="#FFAE70"/>
<path d="M16 83.1047V90.4601C16 91.3316 16.6973 92.0373 17.5689 92.0373H49.4357V81.5313H17.5689C16.6973 81.5272 16 82.2329 16 83.1047Z" fill="#FF9C40"/>
<path d="M33.0522 81.5273H31.1758V92.0334H33.0522V81.5273Z" fill="#FFD780"/>
<path d="M35.6555 81.5273H33.7793V92.0334H35.6555V81.5273Z" fill="#FFD780"/>
<path d="M38.2864 81.5273H36.4102V92.0334H38.2864V81.5273Z" fill="#FFD780"/>
<path d="M62.0959 81.5273H60.2197V92.0334H62.0959V81.5273Z" fill="#FFC38F"/>
<path d="M64.7024 81.5273H62.8262V92.0334H64.7024V81.5273Z" fill="#FFC38F"/>
<path d="M67.3283 81.5273H65.4521V92.0334H67.3283V81.5273Z" fill="#FFC38F"/>
<path d="M18.7207 72.5951V79.9505C18.7207 80.822 19.418 81.5277 20.2898 81.5277H83.189C84.0608 81.5277 84.7665 80.822 84.7665 79.9505V72.5951C84.7665 71.7233 84.0608 71.0176 83.189 71.0176H20.2898C19.418 71.0216 18.7207 71.7273 18.7207 72.5951Z" fill="#FFD378"/>
<path d="M18.7207 72.5947V79.9501C18.7207 80.8219 19.418 81.5276 20.2898 81.5276H52.1567V71.0215H20.2898C19.418 71.0215 18.7207 71.7272 18.7207 72.5947Z" fill="#F7A45C"/>
<path d="M18.7207 72.5947V79.9501C18.7207 80.8219 19.418 81.5276 20.2898 81.5276H20.5969V71.0215H20.2898C19.418 71.0215 18.7207 71.7272 18.7207 72.5947Z" fill="#FFBC0E"/>
<path d="M23.2004 71.0215H21.3242V81.5276H23.2004V71.0215Z" fill="#FFBC0E"/>
<path d="M25.8264 71.0215H23.9502V81.5276H25.8264V71.0215Z" fill="#FFBC0E"/>
<path d="M50.4787 71.0215H48.6025V81.5276H50.4787V71.0215Z" fill="#FFBC0E"/>
<path d="M53.0871 71.0215H51.2109V81.5276H53.0871V71.0215Z" fill="#FFB000"/>
<path d="M55.7133 71.0215H53.8369V81.5276H55.7133V71.0215Z" fill="#FFB000"/>
<path d="M79.5276 71.0215H77.6514V81.5276H79.5276V71.0215Z" fill="#FFB000"/>
<path d="M82.1391 71.0215H80.2627V81.5276H82.1391V71.0215Z" fill="#FFB000"/>
<path d="M82.8857 71.0216V81.5277H83.1847C84.0563 81.5277 84.7619 80.822 84.7619 79.9505V72.5951C84.7619 71.7233 84.0563 71.0176 83.1847 71.0176H82.8857V71.0216Z" fill="#FFB000"/>
<path d="M52.1575 71.0215H51.2109V81.5276H52.1575V71.0215Z" fill="#FFBC0E"/>
<defs>
<linearGradient id="paint0_linear_834_13455" x1="50" y1="101" x2="50" y2="1" gradientUnits="userSpaceOnUse">
<stop stop-color="#6BB8FF"/>
<stop offset="0.9973" stop-color="#EBF8FF"/>
</linearGradient>
<linearGradient id="paint1_linear_834_13455" x1="64.4424" y1="33.5796" x2="18.3068" y2="14.287" gradientUnits="userSpaceOnUse">
<stop stop-color="#0A3ECA"/>
<stop offset="0.961522" stop-color="#4B7CFF"/>
</linearGradient>
</defs>
</svg>
