<svg width="250" height="148" viewBox="0 0 250 148" fill="none" xmlns="http://www.w3.org/2000/svg">
<rect width="250" height="147.287" rx="8" fill="#CBE3FC"/>
<path d="M161.67 124.032H87.4131C83.0214 124.032 79.457 120.468 79.457 116.076V110.772C79.457 85.9119 99.6814 65.6875 124.542 65.6875C149.402 65.6875 169.626 85.9119 169.626 110.772V116.076C169.626 120.468 166.062 124.032 161.67 124.032Z" fill="white"/>
<path d="M124.542 76.2964C109.918 76.2964 98.0215 64.3994 98.0215 49.7761C98.0215 35.1529 109.918 23.2559 124.542 23.2559C139.165 23.2559 151.062 35.1529 151.062 49.7761C151.062 64.3994 139.165 76.2964 124.542 76.2964Z" fill="white"/>
</svg>
