<svg width="249" height="567" viewBox="0 0 249 567" fill="none" xmlns="http://www.w3.org/2000/svg">
<path d="M1.87296 80.4892L70.3978 510.102C78.5729 561.355 139.361 583.57 179.817 550.091L518.933 269.454C559.389 235.973 549.172 171.908 500.541 154.135L92.9041 5.15593C44.2776 -12.6126 -6.29261 29.237 1.87296 80.4892Z" stroke="white" stroke-width="0.4" stroke-miterlimit="10"/>
<path d="M8.32175 87.892L77.3468 501.973C85.5807 551.372 144.403 572.4 183.223 539.823L508.637 266.755C547.459 234.178 537.166 172.429 490.109 155.607L95.6713 14.5941C48.6138 -2.22907 0.0853396 38.4898 8.32175 87.892Z" stroke="white" stroke-width="0.4" stroke-miterlimit="10"/>
<path d="M14.766 95.3001L84.2962 493.842C92.5895 541.39 149.445 561.228 186.632 529.554L498.344 264.053C535.532 232.379 525.164 172.947 479.682 157.074L98.4331 24.0367C52.9551 8.16079 6.4717 47.7531 14.766 95.3001Z" stroke="white" stroke-width="0.4" stroke-miterlimit="10"/>
<path d="M21.2103 102.706L91.2464 485.712C99.6013 531.405 154.486 550.057 190.045 519.281L488.055 261.348C523.608 230.578 513.165 173.462 469.257 158.541L101.204 33.471C57.2953 18.5492 12.8554 57.013 21.2103 102.706Z" stroke="white" stroke-width="0.4" stroke-miterlimit="10"/>
<path d="M27.6552 110.114L98.1944 477.584C106.611 521.422 159.527 538.884 193.447 509.016L477.756 258.653C511.674 228.785 501.151 173.988 458.821 160.015L103.971 42.9095C61.6393 28.9367 19.2396 66.2745 27.6552 110.114Z" stroke="white" stroke-width="0.4" stroke-miterlimit="10"/>
<path d="M34.0982 117.52L105.146 469.453C113.625 511.442 164.575 527.72 196.854 498.749L467.461 255.952C499.751 226.983 489.146 174.5 448.391 161.485L106.736 52.3483C65.976 39.3277 25.6229 75.5343 34.0982 117.52Z" stroke="white" stroke-width="0.4" stroke-miterlimit="10"/>
<path d="M40.5419 124.927L112.095 461.325C120.631 501.455 169.612 516.543 200.261 488.481L457.165 253.254C487.814 225.192 477.144 175.028 437.959 162.958L109.502 61.7869C70.3164 49.7181 32.0068 84.796 40.5419 124.927Z" stroke="white" stroke-width="0.4" stroke-miterlimit="10"/>
<path d="M46.9856 132.335L119.045 453.194C127.639 491.476 174.654 505.371 203.669 478.211L446.872 250.552C475.889 223.395 465.141 175.545 427.531 164.425L112.268 71.2256C74.6579 60.1066 38.3899 94.0557 46.9856 132.335Z" stroke="white" stroke-width="0.4" stroke-miterlimit="10"/>
<path d="M53.4288 139.741L125.998 445.07C134.66 481.491 179.701 494.205 207.081 467.948L436.583 247.858C463.961 221.601 453.142 176.072 417.103 165.902L115.033 80.664C78.9967 70.4955 44.7722 103.316 53.4288 139.741Z" stroke="white" stroke-width="0.4" stroke-miterlimit="10"/>
<path d="M59.8728 147.148L132.944 436.935C141.662 471.506 184.744 483.026 210.485 457.675L426.283 245.153C452.027 219.799 441.13 176.584 406.667 167.368L117.798 90.1027C83.3332 80.8877 51.1555 112.577 59.8728 147.148Z" stroke="white" stroke-width="0.4" stroke-miterlimit="10"/>
<path d="M66.3148 154.555L139.894 428.806C148.672 461.524 189.786 471.862 213.892 447.407L415.989 242.454C440.099 218.001 429.125 177.105 396.237 168.838L120.559 99.5445C87.6749 91.2739 57.5376 121.837 66.3148 154.555Z" stroke="white" stroke-width="0.4" stroke-miterlimit="10"/>
<path d="M72.7608 161.966L146.845 420.676C155.683 451.541 194.825 460.686 217.299 437.138L405.691 239.754C428.166 216.206 417.116 177.625 385.8 170.305L123.327 108.98C92.0138 101.663 63.9191 131.099 72.7608 161.966Z" stroke="white" stroke-width="0.4" stroke-miterlimit="10"/>
<path d="M79.1993 169.37L153.792 412.55C162.691 441.56 199.865 449.516 220.706 426.872L395.399 237.058C416.238 214.413 405.115 178.149 375.376 171.784L126.091 118.418C96.3511 112.052 70.3002 140.359 79.1993 169.37Z" stroke="white" stroke-width="0.4" stroke-miterlimit="10"/>
<path d="M85.6419 176.776L160.744 404.417C169.704 431.575 204.911 438.344 224.116 416.601L385.1 234.353C404.307 212.61 393.107 178.663 364.941 173.248L128.853 127.857C100.689 122.442 76.6817 149.62 85.6419 176.776Z" stroke="white" stroke-width="0.4" stroke-miterlimit="10"/>
<path d="M92.082 184.183L167.695 396.28C176.716 421.585 209.955 427.164 227.525 406.324L374.805 231.645C392.375 210.805 381.1 179.175 354.509 174.71L131.614 137.297C105.025 132.83 83.0626 158.881 92.082 184.183Z" stroke="white" stroke-width="0.4" stroke-miterlimit="10"/>
<path d="M98.521 191.587L174.646 388.158C183.731 411.611 214.995 416.003 230.934 396.064L364.508 228.953C380.439 209.019 369.091 179.702 344.074 176.189L134.378 146.733C109.361 143.22 89.4413 168.14 98.521 191.587Z" stroke="white" stroke-width="0.4" stroke-miterlimit="10"/>
<path d="M104.963 198.996L181.597 380.028C190.739 401.624 220.042 404.828 234.341 385.797L354.209 226.253C368.509 207.219 357.081 180.223 333.637 177.657L137.139 156.171C113.696 153.608 95.8207 177.401 104.963 198.996Z" stroke="white" stroke-width="0.4" stroke-miterlimit="10"/>
<path d="M111.402 206.405L188.548 371.899C197.751 391.642 225.083 393.653 237.755 375.526L343.913 223.548C356.579 205.417 345.074 180.737 323.206 179.125L139.9 165.605C118.029 163.998 102.198 186.661 111.402 206.405Z" stroke="white" stroke-width="0.4" stroke-miterlimit="10"/>
<path d="M117.84 213.81L195.499 363.768C204.761 381.655 230.132 382.487 241.161 365.259L333.613 220.853C344.643 203.624 333.062 181.263 312.767 180.601L142.654 175.046C122.361 174.386 108.575 195.922 117.84 213.81Z" stroke="white" stroke-width="0.4" stroke-miterlimit="10"/>
<path d="M124.276 221.218L202.451 355.639C211.778 371.676 235.178 371.315 244.572 354.99L323.313 218.153C332.707 201.829 321.049 181.782 302.329 182.07L145.413 184.487C126.692 184.775 114.949 205.181 124.276 221.218Z" stroke="white" stroke-width="0.4" stroke-miterlimit="10"/>
<path d="M130.71 228.624L209.405 347.509C218.793 361.693 240.224 360.144 247.983 344.722L313.012 215.454C320.769 200.032 309.034 182.303 291.888 183.542L148.169 193.929C131.02 195.163 121.322 214.442 130.71 228.624Z" stroke="white" stroke-width="0.4" stroke-miterlimit="10"/>
<path d="M137.142 236.031L216.358 339.38C225.81 351.709 245.273 348.973 251.395 334.455L302.707 212.755C308.828 198.235 297.012 182.821 281.441 185.014L150.913 203.365C135.345 205.552 127.692 223.701 137.142 236.031Z" stroke="white" stroke-width="0.4" stroke-miterlimit="10"/>
</svg>
