<svg width="495" height="180" viewBox="0 0 495 180" fill="none" xmlns="http://www.w3.org/2000/svg">
<rect width="495" height="180" rx="8" transform="matrix(1 0 0 -1 0 180)" fill="url(#paint0_linear_1333_16371)"/>
<mask id="mask0_1333_16371" style="mask-type:alpha" maskUnits="userSpaceOnUse" x="0" y="0" width="495" height="180">
<rect width="495" height="180" rx="8" transform="matrix(1 0 0 -1 0 180)" fill="url(#paint1_linear_1333_16371)"/>
</mask>
<g mask="url(#mask0_1333_16371)">
<path opacity="0.8" d="M79.2 152.917C55.968 158.9 16.72 120.509 0 100.566V239.456H495V62.1046C487.08 42.1615 465.168 7.18983 440.88 26.848C410.52 51.4208 370.92 48.2155 327.36 40.7368C283.8 33.2581 220.44 140.096 182.16 130.481C143.88 120.865 108.24 145.438 79.2 152.917Z" fill="url(#paint2_linear_1333_16371)"/>
<path opacity="0.8" d="M74.58 170.119C50.2003 170.119 16.72 91.1027 0 72.8557V239.456H495V33.755C487.08 15.508 468.6 62.1027 439.56 66.9903C397.692 74.0369 368.94 57.2154 325.38 50.3727C281.82 43.5301 222.42 160.832 182.16 139.749C149.435 122.611 128.04 170.119 74.58 170.119Z" fill="url(#paint3_linear_1333_16371)"/>
</g>
<defs>
<linearGradient id="paint0_linear_1333_16371" x1="247.5" y1="0" x2="247.5" y2="180" gradientUnits="userSpaceOnUse">
<stop stop-color="#0A257C"/>
<stop offset="1" stop-color="#0D36C1"/>
</linearGradient>
<linearGradient id="paint1_linear_1333_16371" x1="247.5" y1="0" x2="247.5" y2="180" gradientUnits="userSpaceOnUse">
<stop stop-color="#0A257C"/>
<stop offset="1" stop-color="#0D36C1"/>
</linearGradient>
<linearGradient id="paint2_linear_1333_16371" x1="247.5" y1="21.0449" x2="247.5" y2="239.456" gradientUnits="userSpaceOnUse">
<stop stop-color="#0A257C"/>
<stop offset="1" stop-color="#0D36C1"/>
</linearGradient>
<linearGradient id="paint3_linear_1333_16371" x1="247.5" y1="39.6197" x2="247.5" y2="239.456" gradientUnits="userSpaceOnUse">
<stop stop-color="#0A257C"/>
<stop offset="1" stop-color="#0D36C1"/>
</linearGradient>
</defs>
</svg>
