<svg width="935" height="151" viewBox="0 0 935 151" fill="none" xmlns="http://www.w3.org/2000/svg">
<rect width="935" height="150" rx="8" fill="#064DD6"/>
<path opacity="0.15" d="M294.135 129.109C257.54 144.357 255.797 126.059 222.686 123.445C196.968 121.415 173.276 139.208 163.812 149.15H935V99.9193C902.761 147.843 912.738 63.7591 879.235 63.7591C851.352 63.7591 844.381 115.603 825.212 115.603C806.043 115.603 808.657 69.858 788.616 69.858C768.576 69.858 776.853 16.2715 761.605 16.2715C746.357 16.2715 756.377 34.1338 742.871 42.4114C729.366 50.6891 727.623 49.3821 710.196 49.3821C692.77 49.3821 697.562 78.5717 691.898 99.9193C686.235 121.267 677.086 63.7591 664.016 63.7591C650.946 63.7591 650.51 84.235 627.42 83.7993C604.33 83.3636 609.122 52.8674 586.903 52.8674C564.684 52.8674 566.427 76.829 549 76.3934C531.573 75.9577 532.009 48.9469 503.691 48.9469C475.372 48.9469 482.343 96.8697 467.53 115.603C452.718 134.337 447.49 81.1853 433.984 81.1853C420.479 81.1853 414.379 116.039 394.774 115.603C375.169 115.168 386.497 47.6395 363.842 48.9465C341.187 50.2535 330.731 113.861 294.135 129.109Z" fill="url(#paint0_linear_138_47)"/>
<path opacity="0.15" d="M787.745 129.253C824.341 144.502 826.084 126.204 859.195 123.59C884.913 121.559 908.605 139.352 918.069 149.294H194.368V1.16707C199.742 -0.430368 215.106 11.5362 223.122 25.129C233.143 42.12 245.341 38.6343 264.511 38.6343C283.68 38.6343 275.838 81.3296 295.879 81.3296C315.919 81.3296 305.028 16.4158 320.276 16.4158C335.524 16.4158 325.504 34.2781 339.01 42.5557C352.515 50.8334 354.258 49.5264 371.685 49.5264C389.111 49.5264 384.319 78.716 389.982 100.064C395.646 121.411 404.795 63.9034 417.865 63.9034C430.935 63.9034 431.371 84.3793 454.461 83.9436C477.551 83.5079 472.759 53.0117 494.978 53.0117C517.197 53.0117 515.454 76.9733 532.881 76.5377C550.307 76.102 543.773 13.3657 572.091 13.3657C600.409 13.3657 599.538 97.014 614.35 115.748C629.163 134.481 634.391 81.3296 647.897 81.3296C661.402 81.3296 667.502 116.183 687.107 115.748C706.712 115.312 695.384 47.7838 718.039 49.0908C740.693 50.3978 751.149 114.005 787.745 129.253Z" fill="url(#paint1_linear_138_47)"/>
<defs>
<linearGradient id="paint0_linear_138_47" x1="549" y1="16.2715" x2="549" y2="150.021" gradientUnits="userSpaceOnUse">
<stop stop-color="#0A257C"/>
<stop offset="1" stop-color="#0D36C1"/>
</linearGradient>
<linearGradient id="paint1_linear_138_47" x1="556.625" y1="1.02344" x2="556.625" y2="150.165" gradientUnits="userSpaceOnUse">
<stop stop-color="#0A257C"/>
<stop offset="1" stop-color="#0D36C1"/>
</linearGradient>
</defs>
</svg>
