<svg id="Layer_1" data-name="Layer 1" xmlns="http://www.w3.org/2000/svg" viewBox="0 0 499.21 499.6"><defs><style>.cls-1{fill:red;}</style></defs><title>user busy</title><path class="cls-1" d="M214.2-.25c7.58,1.6,15.28,2.77,22.72,4.87,43.38,12.25,76.71,51.8,81.72,96.64,5.16,46.18-10.81,83.1-48.44,110.54-.64.47-1.23,1-2.37,1.95,3.13,1.24,5.84,2.35,8.57,3.41A199.88,199.88,0,0,1,363,281.35c2.22,2.84,4.15,3.41,7.74,2.73,53.86-10.22,121.94,21,128.5,97,4,46.71-19.17,87.95-59.53,107.06a117.74,117.74,0,0,1-36.89,10.26,41.85,41.85,0,0,0-4.22.92H12.21c-6.12-2.18-9.92-6.5-11.71-12.68V396.9c.59-4.82,1.11-9.65,1.77-14.45,9.4-68.58,44.49-119.85,104.46-154,10.17-5.8,21.25-10,32.1-15-.66-.54-1.37-1.16-2.12-1.71-39.36-29-55.86-67.95-47.12-115.87,8-43.89,33.55-74.64,76.2-89.72,8.93-3.17,18.59-4.28,27.92-6.33Zm-183.8,470H316.88Q277.8,431,284.22,377.6c4.29-35.63,22.39-62.73,53.27-81.42-11.61-14.14-24.41-26.4-39.59-35.78-58.08-35.91-118-36.81-177.46-5.19-55.14,29.33-85.5,76.64-89.67,139.32-1.62,24.45-.59,49.08-.75,73.63A6.5,6.5,0,0,0,30.4,469.71ZM290.32,116.37c0-49.58-37.73-87.27-87.53-87.34-47.38-.06-86.47,39.48-86.41,87.41.06,47.66,39.11,87.83,86.22,87C260.23,202.36,290.24,160.2,290.32,116.37ZM312.3,391c-.68,41.86,35,78.32,77.31,79,44.23.74,80.61-33.84,81.36-77.33.79-45.33-32.66-80.18-77.71-81C347.46,311,313.05,344.64,312.3,391Z" transform="translate(-0.5 0.25)"/><path class="cls-1" d="M391.66,370.34c5.84-6,11-11.34,16.3-16.61,6.85-6.83,15.51-7.28,21.68-1.22,6,5.9,5.69,15.06-.87,21.71-5.35,5.43-10.83,10.73-16.53,16.35,5.62,5.59,10.94,10.83,16.19,16.13,6.84,6.91,7.32,16.06,1.21,22.07s-15,5.56-22-1.52c-5.16-5.17-10.22-10.44-15.93-16.29-5.87,6-11.36,11.66-16.93,17.26-3.94,4-8.68,5.7-14.22,4.29a14.47,14.47,0,0,1-7-24.3c5.58-5.88,11.53-11.4,17.65-17.42-5.73-5.71-11-11-16.28-16.23-6.91-7-7.38-16-1.2-22.05s14.81-5.63,21.68,1.21C380.72,359,385.87,364.41,391.66,370.34Z" transform="translate(-0.5 0.25)"/></svg>