<svg width="129" height="76" viewBox="0 0 129 76" fill="none" xmlns="http://www.w3.org/2000/svg">
<rect width="129" height="76" rx="8" fill="#CBE3FC"/>
<path d="M47.3301 51.8558H17.2255C15.445 51.8558 14 50.4107 14 48.6303V46.4799C14 36.4014 22.1992 28.2021 32.2778 28.2021C42.3564 28.2021 50.5556 36.4014 50.5556 46.4799V48.6303C50.5556 50.4107 49.1106 51.8558 47.3301 51.8558Z" fill="white"/>
<path d="M32.2775 32.5033C26.3491 32.5033 21.5259 27.6801 21.5259 21.7516C21.5259 15.8232 26.3491 11 32.2775 11C38.206 11 43.0292 15.8232 43.0292 21.7516C43.0292 27.6801 38.206 32.5033 32.2775 32.5033Z" fill="white"/>
<path d="M47.3301 64.7576H17.2255C15.445 64.7576 14 63.3126 14 61.5321C14 59.7517 15.445 58.3066 17.2255 58.3066H47.3301C49.1106 58.3066 50.5556 59.7517 50.5556 61.5321C50.5556 63.3126 49.1106 64.7576 47.3301 64.7576Z" fill="white"/>
<path d="M112.631 17.451H78.2255C76.445 17.451 75 16.006 75 14.2255C75 12.445 76.445 11 78.2255 11H112.631C114.411 11 115.856 12.445 115.856 14.2255C115.856 16.006 114.411 17.451 112.631 17.451Z" fill="white"/>
<path d="M112.631 30.3524H78.2255C76.445 30.3524 75 28.9073 75 27.1269C75 25.3464 76.445 23.9014 78.2255 23.9014H112.631C114.411 23.9014 115.856 25.3464 115.856 27.1269C115.856 28.9073 114.411 30.3524 112.631 30.3524Z" fill="white"/>
<path d="M112.63 64.7571H95.4276C93.6472 64.7571 92.2021 63.3121 92.2021 61.5316V44.329C92.2021 42.5485 93.6472 41.1035 95.4276 41.1035H112.63C114.411 41.1035 115.856 42.5485 115.856 44.329V61.5316C115.856 63.3121 114.411 64.7571 112.63 64.7571Z" fill="white"/>
</svg>
