<svg width="129" height="195" viewBox="0 0 129 195" fill="none" xmlns="http://www.w3.org/2000/svg">
<path d="M66.3733 125.246C66.3733 125.246 49.9412 133.297 49.0278 110.088C48.9896 109.12 49.7289 108.297 50.6948 108.22C55.3395 107.846 67.7816 108.394 66.3733 125.246Z" fill="url(#paint0_linear_834_13609)"/>
<path d="M50.695 108.22C50.1595 108.263 49.6945 108.536 49.3916 108.934C56.4605 117.613 66.3746 125.247 66.3746 125.247C67.7817 108.394 55.3396 107.846 50.695 108.22Z" fill="url(#paint1_linear_834_13609)"/>
<path d="M63.656 148.887L58.0646 146.104L60.8609 147.496L58.0622 146.109C58.1051 146.022 62.3419 137.319 64.3274 122.801C66.1578 109.429 66.3975 88.2255 57.1523 63.1588L63.0121 60.998C72.7545 87.4111 72.4469 109.811 70.4745 123.952C68.3197 139.388 63.8456 148.506 63.656 148.887Z" fill="url(#paint2_linear_834_13609)"/>
<path d="M63.0121 60.998L57.1523 63.1588C61.884 75.9885 64.1271 87.7998 64.9487 98.0729L71.5454 104.671C71.2508 92.3562 69.0829 77.4564 63.0121 60.998Z" fill="url(#paint3_linear_834_13609)"/>
<path d="M116.243 157.025H21.8147C19.0207 157.025 16.7169 154.779 16.7109 151.985C16.7109 151.967 16.7109 151.95 16.7109 151.932C16.7109 144.984 19.4238 138.668 23.8502 133.99C25.5268 132.277 27.4085 130.764 29.456 129.495C34.0004 126.676 39.3606 125.047 45.1023 125.047C53.5735 125.047 61.2124 128.588 66.6262 134.273C67.9808 135.693 69.9973 136.289 71.8957 135.78C73.1728 135.436 74.5167 135.253 75.9047 135.253C80.2894 135.253 84.246 137.086 87.0495 140.025C88.5222 141.572 90.7676 142.103 92.7745 141.374C94.9495 140.585 97.2963 140.151 99.7444 140.151C108.454 140.151 115.889 145.61 118.817 153.288C119.504 155.093 118.173 157.025 116.243 157.025Z" fill="url(#paint4_linear_834_13609)"/>
<path d="M70.0708 127.977C70.0708 127.977 64.663 101.258 98.455 108.693C99.8645 109.003 100.771 110.378 100.519 111.8C99.3052 118.635 93.8271 136.359 70.0708 127.977Z" fill="url(#paint5_linear_834_13609)"/>
<path d="M100.519 111.799C100.658 111.011 100.441 110.238 99.9796 109.652C84.8091 116.566 70.0703 127.976 70.0703 127.976C93.8265 136.358 99.3047 118.634 100.519 111.799Z" fill="url(#paint6_linear_834_13609)"/>
<path d="M92.0958 117.282C91.8167 117.265 91.5389 117.228 91.2646 117.195C90.9892 117.163 90.7149 117.132 90.4442 117.085C90.1723 117.045 89.9052 116.965 89.6405 116.891C89.3758 116.815 89.1098 116.784 88.8368 116.793C88.5649 116.806 88.293 116.833 88.0092 116.886C88.318 116.669 88.6269 116.453 88.9369 116.235L90.4597 115.192C90.9677 114.841 91.49 114.525 92.0028 114.182C93.0378 113.514 94.0908 112.891 95.1902 112.338L95.0936 112.07L94.1993 112.356L93.7485 112.5C93.6007 112.553 93.4576 112.614 93.3121 112.67C92.7361 112.908 92.1411 113.125 91.5794 113.391C90.4347 113.895 89.3209 114.455 88.2012 115.008C87.9889 115.12 87.7755 115.232 87.5632 115.344C87.6419 115.161 87.7063 114.972 87.7409 114.771C87.7886 114.5 87.8327 114.223 87.9138 113.961C87.9901 113.698 88.0796 113.436 88.1702 113.175C88.2596 112.913 88.3479 112.647 88.454 112.388C88.6436 111.858 88.8821 111.347 89.1122 110.814L88.9858 110.719C88.5494 111.106 88.1392 111.53 87.7671 111.988C87.5787 112.214 87.4058 112.454 87.2293 112.693C87.0672 112.939 86.9026 113.187 86.7523 113.444C86.5997 113.699 86.4304 113.949 86.2718 114.208C86.1191 114.469 86.013 114.75 85.9677 115.05C85.9594 115.108 85.951 115.168 85.945 115.227C85.8783 115.875 85.4871 116.446 84.9171 116.762L84.9064 116.768C83.9143 117.318 82.9377 117.889 81.9551 118.455C82.06 118.194 82.1363 117.938 82.2007 117.682C82.2627 117.416 82.2842 117.149 82.2615 116.874C82.2401 116.601 82.2126 116.322 82.2258 116.048C82.2329 115.772 82.2556 115.498 82.2782 115.223C82.2997 114.946 82.3164 114.666 82.3545 114.389C82.4058 113.829 82.5096 113.274 82.599 112.702L82.4523 112.641C82.128 113.124 81.8358 113.638 81.5902 114.173C81.4638 114.44 81.3565 114.716 81.2456 114.991C81.1502 115.27 81.0536 115.552 80.9725 115.838C80.8878 116.123 80.7865 116.408 80.6982 116.698C80.6159 116.989 80.5825 117.288 80.6135 117.589C80.6291 117.722 80.6493 117.856 80.6767 117.988C80.8115 118.638 80.486 119.297 79.9076 119.62C79.4104 119.9 78.9131 120.176 78.4182 120.459C77.7898 120.814 77.184 121.202 76.5926 121.611C76.6772 121.384 76.744 121.16 76.8001 120.936C76.8621 120.67 76.8835 120.404 76.8609 120.13C76.8394 119.855 76.812 119.578 76.8251 119.303C76.8323 119.028 76.8549 118.754 76.8776 118.477C76.8978 118.2 76.9157 117.921 76.9539 117.645C77.0052 117.083 77.1089 116.53 77.1983 115.956L77.0517 115.895C76.7273 116.379 76.4364 116.892 76.1895 117.428C76.0631 117.695 75.957 117.97 75.8461 118.246C75.7495 118.525 75.6529 118.806 75.5718 119.092C75.4872 119.377 75.3858 119.662 75.2976 119.952C75.2153 120.243 75.1819 120.541 75.2129 120.843C75.2475 121.142 75.3071 121.444 75.4192 121.738C75.5468 122.077 75.455 122.456 75.1771 122.687C74.4569 123.286 73.163 124.377 72.5155 125.004C71.62 125.886 70.7531 126.805 69.9863 127.86L70.1533 128.092C71.3958 127.705 72.5501 127.202 73.6758 126.661C74.8003 126.116 75.8914 125.527 76.9527 124.897C76.9718 124.885 76.9908 124.874 77.0099 124.864C77.3522 124.661 77.7779 124.731 78.0581 125.014C78.2656 125.221 78.4957 125.393 78.733 125.543C78.9906 125.701 79.2744 125.802 79.5725 125.853C79.8718 125.899 80.1723 125.931 80.4669 125.98C80.759 126.03 81.0548 126.065 81.3481 126.099C81.645 126.119 81.9384 126.142 82.2341 126.144C82.8244 126.155 83.4123 126.116 83.9894 126.032L83.9978 125.874C83.4421 125.707 82.8983 125.559 82.3712 125.361C82.1053 125.275 81.8454 125.17 81.5866 125.07C81.329 124.97 81.0715 124.871 80.821 124.758C80.567 124.651 80.3286 124.506 80.0913 124.368C79.854 124.228 79.6047 124.133 79.3376 124.073C79.0478 124.014 78.7521 123.969 78.4337 123.954C78.968 123.589 79.4891 123.206 79.9994 122.807C80.4037 122.484 80.9546 122.054 81.4399 121.677C81.9551 121.278 82.6753 121.237 83.2119 121.608C83.4743 121.79 83.7616 121.931 84.0085 122.088C84.2661 122.246 84.5499 122.346 84.848 122.399C85.1473 122.444 85.4478 122.476 85.7411 122.524C86.0345 122.574 86.329 122.61 86.6224 122.645C86.9193 122.664 87.2138 122.686 87.5096 122.689C88.0986 122.699 88.6877 122.66 89.2637 122.577L89.2732 122.418C88.7175 122.251 88.1738 122.103 87.6467 121.906C87.3808 121.821 87.1208 121.716 86.8632 121.614C86.6045 121.514 86.3469 121.415 86.0965 121.303C85.8437 121.196 85.604 121.05 85.3667 120.913C85.1294 120.774 84.8802 120.677 84.6131 120.617C84.1027 120.512 83.5756 120.453 82.9281 120.53C83.9238 119.81 84.916 119.079 85.9224 118.373L85.9617 118.346C86.5639 117.903 87.3688 117.802 88.039 118.135C88.2286 118.229 88.423 118.303 88.6185 118.365C88.9083 118.454 89.2076 118.48 89.5093 118.457C89.811 118.426 90.1103 118.382 90.406 118.354C90.7018 118.33 90.9975 118.29 91.2897 118.25C91.5818 118.195 91.8728 118.143 92.159 118.071C92.7325 117.934 93.293 117.75 93.8296 117.524L93.7986 117.368C93.2203 117.348 92.6562 117.342 92.0958 117.282Z" fill="url(#paint7_linear_834_13609)"/>
<path d="M112.822 49.6378C112.822 76.6506 90.924 98.549 63.9112 98.549C36.8984 98.549 15 76.6506 15 49.6378C15 22.6249 36.8984 0.726562 63.9112 0.726562C90.924 0.726562 112.822 22.6249 112.822 49.6378Z" fill="url(#paint8_radial_834_13609)"/>
<path d="M15 49.6379C15 67.0944 24.1474 82.4127 37.9096 91.0676H89.9128C103.675 82.4127 112.822 67.0944 112.822 49.6379C112.822 32.1803 103.675 16.8619 89.9128 8.20703H37.9096C24.1474 16.8619 15 32.1803 15 49.6379Z" fill="url(#paint9_linear_834_13609)"/>
<path d="M15 49.6384C15 62.0913 19.6578 73.4554 27.3217 82.0901H100.501C108.165 73.4554 112.821 62.0913 112.821 49.6384C112.821 37.1843 108.165 25.8202 100.501 17.1855H27.3217C19.6566 25.8202 15 37.1843 15 49.6384Z" fill="url(#paint10_linear_834_13609)"/>
<path d="M15 49.6384C15 56.9172 16.5919 63.8227 19.4443 70.0295H108.378C111.229 63.8227 112.822 56.916 112.822 49.6384C112.822 42.3596 111.229 35.4541 108.378 29.2461H19.4443C16.5919 35.4541 15 42.3596 15 49.6384Z" fill="url(#paint11_linear_834_13609)"/>
<path d="M15 49.6388C15 53.8517 15.5342 57.9395 16.5359 61.84H111.285C112.288 57.9395 112.822 53.8517 112.822 49.6388C112.822 45.4258 112.288 41.338 111.285 37.4375H16.5359C15.5342 41.338 15 45.4258 15 49.6388Z" fill="url(#paint12_linear_834_13609)"/>
<path d="M60.0274 0.880859C34.8306 2.86035 15 23.9323 15 49.6382C15 75.3441 34.8306 96.4161 60.0274 98.3956C85.2241 96.4161 105.054 75.3429 105.054 49.6382C105.054 23.9323 85.2241 2.86035 60.0274 0.880859Z" fill="url(#paint13_radial_834_13609)"/>
<path d="M62.5591 5.35637C60.8789 5.12861 59.1749 5.12861 57.4947 5.35637C35.6894 8.32321 18.8828 27.0174 18.8828 49.6384C18.8828 72.2583 35.6894 90.9525 57.4959 93.9193C59.1749 94.1483 60.8801 94.1483 62.5591 93.9193C84.3657 90.9525 101.171 72.2583 101.171 49.6384C101.171 27.0174 84.3657 8.32321 62.5591 5.35637Z" fill="url(#paint14_radial_834_13609)"/>
<path d="M92.5348 49.6368C92.5348 29.9278 77.8914 13.9512 59.8279 13.9512C41.7645 13.9512 27.1211 29.9278 27.1211 49.6368C27.1211 69.3446 41.7645 85.3224 59.8279 85.3224C77.8914 85.3224 92.5348 69.3446 92.5348 49.6368Z" fill="url(#paint15_radial_834_13609)"/>
<path d="M68.8089 15.3161C64.7367 14.0509 60.3866 14.0509 56.3155 15.3161C42.6177 19.5744 32.5879 33.3282 32.5879 49.6387C32.5879 66.2688 43.0148 80.2397 57.124 84.1987C60.6763 85.1967 64.4469 85.1967 68.0004 84.1987C82.1096 80.2397 92.5353 66.2688 92.5353 49.6387C92.5353 33.3282 82.5055 19.5744 68.8089 15.3161Z" fill="url(#paint16_radial_834_13609)"/>
<path d="M92.1619 55.0406L70.5116 33.3902C70.1181 32.7046 69.3012 32.1393 68.0599 31.6922C66.7852 31.2354 65.4269 30.9242 63.9876 30.7525L62.088 29.0568C62.0499 28.7897 61.8925 28.5464 61.6015 28.3318C61.2664 28.085 60.9039 27.9609 60.5164 27.9609C60.0931 27.9609 59.7305 28.085 59.4312 28.3318C59.1307 28.5786 58.9817 28.8601 58.9817 29.1784V30.7131C56.1233 31.0303 53.7325 31.9831 51.809 33.5715C49.8856 35.1598 48.9245 37.4875 48.9245 40.5521C48.9245 41.6432 49.0473 42.639 49.2953 43.5369C49.541 44.4348 49.9476 45.2182 50.5128 45.8872C51.0757 46.5574 51.6147 47.1286 52.1262 47.6044C52.1536 47.6294 52.1846 47.6544 52.2121 47.6807L58.9817 54.4646V63.3198C57.4172 63.2137 56.0411 62.8094 54.8498 62.1047C53.6585 61.4011 52.7236 60.7405 52.0416 60.124C51.3607 59.5075 50.8097 59.1999 50.3924 59.1999C49.7604 59.1999 49.1987 59.5337 48.7074 60.2039C48.2161 60.8729 47.9717 61.5419 47.9717 62.2108C47.9717 63.3067 48.6085 64.3883 49.8748 65.4519L68.4796 84.0567C80.7954 80.3816 90.2123 69.0496 92.1619 55.0406Z" fill="url(#paint17_linear_834_13609)"/>
<path d="M47.9717 62.2108C47.9717 61.5419 48.2173 60.8729 48.7074 60.2039C49.1987 59.5349 49.7604 59.1999 50.3924 59.1999C50.8097 59.1999 51.3607 59.5075 52.0416 60.124C52.7236 60.7417 53.6585 61.4011 54.8498 62.1047C56.0411 62.8094 57.4184 63.2137 58.9817 63.3198V50.9063C57.9228 50.5187 57.1107 50.2111 56.5479 49.9821C55.9826 49.7532 55.2326 49.4181 54.2977 48.9781C53.3616 48.5381 52.639 48.0802 52.1274 47.6044C51.6158 47.1286 51.0769 46.5562 50.5128 45.8872C49.9476 45.2182 49.5422 44.4348 49.2953 43.5369C49.0485 42.639 48.9256 41.6432 48.9256 40.5521C48.9256 37.4863 49.8868 35.1598 51.8102 33.5715C53.7325 31.9831 56.1233 31.0315 58.9817 30.7131V29.1784C58.9817 28.8612 59.1319 28.5786 59.4324 28.3318C59.7317 28.0861 60.0942 27.9609 60.5176 27.9609C60.9051 27.9609 61.2664 28.0861 61.6027 28.3318C61.9366 28.5798 62.1047 28.8612 62.1047 29.1784V30.6082C64.2571 30.6798 66.2426 31.0411 68.0599 31.6933C69.8772 32.3468 70.7859 33.2543 70.7859 34.4193C70.7859 35.0549 70.5724 35.7167 70.1455 36.4048C69.7186 37.0928 69.1486 37.4362 68.4367 37.4362C68.1565 37.4362 67.3826 37.1369 66.1198 36.5371C64.8546 35.9373 63.5166 35.5843 62.1047 35.4782V46.2056C63.5083 46.7339 64.6757 47.2359 65.6058 47.7117C66.5347 48.1863 67.5185 48.8469 68.5536 49.6924C69.5898 50.5378 70.3697 51.6027 70.8956 52.8882C71.4214 54.1736 71.6862 55.6797 71.6862 57.404C71.6862 60.5569 70.8264 63.0634 69.1069 64.9225C67.3862 66.7815 65.0525 67.9239 62.1047 68.3484V70.1169C62.1047 70.4293 61.9366 70.7059 61.6027 70.9492C61.2664 71.1913 60.9051 71.3129 60.5176 71.3129C60.0942 71.3129 59.7317 71.1913 59.4324 70.9504C59.1319 70.7071 58.9817 70.4293 58.9817 70.118V68.507C55.9123 68.4713 53.3091 67.7701 51.1746 66.3999C49.0389 65.031 47.9717 63.6346 47.9717 62.2108ZM54.1653 40.0251C54.1653 41.3988 54.5922 42.447 55.4484 43.1672C56.3034 43.8898 57.5877 44.5684 59.2989 45.2016V35.5784C55.8753 36.0017 54.1653 37.4839 54.1653 40.0251ZM61.7875 63.2149C64.8915 62.6508 66.4453 60.9075 66.4453 57.9847C66.4453 56.4357 66.0387 55.2206 65.2278 54.3406C64.4157 53.4605 63.2698 52.7033 61.7875 52.0689V63.2149Z" fill="url(#paint18_linear_834_13609)"/>
<path d="M67.8552 98.3778C67.8552 98.3778 62.3675 71.7203 22.5822 73.0964C21.1226 73.1465 19.3148 74.643 19.6845 75.4909C23.393 83.9919 38.7961 113.644 67.8552 98.3778Z" fill="url(#paint19_linear_834_13609)"/>
<path d="M19.686 75.4918C19.519 75.1078 19.8004 74.5903 20.2929 74.1348C43.1691 75.0279 67.8567 98.3787 67.8567 98.3787C38.7976 113.645 23.3945 83.9928 19.686 75.4918Z" fill="url(#paint20_linear_834_13609)"/>
<path d="M19.6862 75.4908C19.4442 74.934 20.1394 74.1016 21.0576 73.5781C21.2066 73.8107 21.3569 74.0468 21.5083 74.29C38.2123 101.175 67.8581 98.3778 67.8581 98.3778C38.7978 113.644 23.3948 83.9919 19.6862 75.4908Z" fill="url(#paint21_linear_834_13609)"/>
<path d="M67.8564 98.3784C67.8564 98.3784 71.5495 71.4133 111.337 70.1243C112.797 70.0766 114.701 71.4491 114.389 72.3196C111.258 81.0496 97.8719 111.665 67.8564 98.3784Z" fill="url(#paint22_linear_834_13609)"/>
<path d="M114.389 72.32C114.531 71.9252 114.215 71.428 113.692 71.0059C90.927 73.4277 67.8564 98.3788 67.8564 98.3788C97.8719 111.665 111.258 81.05 114.389 72.32Z" fill="url(#paint23_linear_834_13609)"/>
<path d="M114.389 72.32C114.594 71.7488 113.844 70.9642 112.893 70.5039C112.76 70.7448 112.625 70.9904 112.49 71.2444C97.6239 99.1862 67.8564 98.3789 67.8564 98.3789C97.8719 111.665 111.258 81.05 114.389 72.32Z" fill="url(#paint24_linear_834_13609)"/>
<path d="M96.8185 163.954C95.1981 159.612 90.3427 157.405 86.0056 159.038L68.3427 165.679C63.4089 167.536 58.2136 168.392 53.0391 168.274L57.3535 184.596C63.9131 184.027 70.4205 182.596 76.6986 180.281L91.9062 174.669C96.2363 173.073 98.4347 168.277 96.8185 163.954Z" fill="url(#paint25_linear_834_13609)"/>
<path d="M107.674 162.501C105.8 158.362 100.91 156.539 96.7829 158.44L79.9746 166.176C73.4325 169.189 66.2645 170.345 59.2216 169.635L52.6895 186.113C65.0561 187.187 77.6075 185.102 89.1135 179.895L103.592 173.338C107.715 171.473 109.541 166.622 107.674 162.501Z" fill="url(#paint26_linear_834_13609)"/>
<path d="M115.208 162.819C113.03 158.728 107.926 157.18 103.842 159.37L87.2075 168.279C80.7332 171.749 73.5001 173.371 66.2739 173.087L60.6826 190.242C73.3603 190.563 86.021 187.663 97.4134 181.654L111.749 174.088C115.832 171.935 117.38 166.891 115.208 162.819Z" fill="url(#paint27_linear_834_13609)"/>
<path d="M113.191 160.08L106.27 165.263C105.966 165.476 105.66 165.686 105.351 165.891C97.0417 171.428 87.0054 173.735 77.0665 172.778C68.7546 171.977 65.4285 171.391 54.7235 165.612C52.8569 164.604 52.5993 162.588 54.1476 161.137L54.572 160.74C62.8743 157.402 70.8445 153.308 78.3828 148.512C82.7112 145.758 83.8931 139.96 81.0118 135.716C78.3892 131.852 73.2755 130.607 69.1593 132.812C62.0916 136.597 54.3071 138.905 46.2859 139.567C44.7533 139.693 43.2115 139.651 41.6822 139.492C36.8641 138.99 25.1984 137.857 21.2917 138.213C21.2555 138.216 21.2193 138.219 21.1832 138.222C10.9567 139.169 2.58 146.747 0.582628 156.822L0.463895 157.422C-2.11871 170.436 6.3427 183.081 19.3597 185.662L41.8367 190.118L55.9946 192.787C78.2168 196.794 101.124 191.847 119.657 179.038L124.155 175.688C128.488 172.695 129.556 166.766 126.542 162.442C123.517 158.103 117.522 157.044 113.191 160.08Z" fill="url(#paint28_linear_834_13609)"/>
<path d="M81.011 135.716C78.3883 131.853 73.2746 130.608 69.1584 132.813C61.3627 136.988 52.6946 139.365 43.7989 139.719C43.6651 139.725 43.5316 139.731 43.3981 139.737C28.3621 140.49 26.8432 162.122 41.6252 164.976C42.6875 165.181 43.7865 165.076 44.7904 164.672L54.5711 160.74C62.8734 157.403 70.8436 153.308 78.382 148.512C82.7106 145.758 83.8925 139.96 81.011 135.716Z" fill="url(#paint29_linear_834_13609)"/>
<defs>
<linearGradient id="paint0_linear_834_13609" x1="53.8233" y1="115.654" x2="67.4319" y2="122.326" gradientUnits="userSpaceOnUse">
<stop stop-color="#00E7B2"/>
<stop offset="0.2459" stop-color="#05E5B1"/>
<stop offset="0.5301" stop-color="#13DDAC"/>
<stop offset="0.8322" stop-color="#2AD1A5"/>
<stop offset="1" stop-color="#3AC9A0"/>
</linearGradient>
<linearGradient id="paint1_linear_834_13609" x1="60.6924" y1="112.513" x2="51.4126" y2="127.641" gradientUnits="userSpaceOnUse">
<stop stop-color="#3AC9A0" stop-opacity="0"/>
<stop offset="0.0351" stop-color="#38C69D" stop-opacity="0.035294"/>
<stop offset="0.4167" stop-color="#23AA82" stop-opacity="0.415686"/>
<stop offset="0.7511" stop-color="#169971" stop-opacity="0.752941"/>
<stop offset="1" stop-color="#11936B"/>
</linearGradient>
<linearGradient id="paint2_linear_834_13609" x1="57.1519" y1="104.942" x2="71.5824" y2="104.942" gradientUnits="userSpaceOnUse">
<stop stop-color="#00E7B2"/>
<stop offset="0.2459" stop-color="#05E5B1"/>
<stop offset="0.5301" stop-color="#13DDAC"/>
<stop offset="0.8322" stop-color="#2AD1A5"/>
<stop offset="1" stop-color="#3AC9A0"/>
</linearGradient>
<linearGradient id="paint3_linear_834_13609" x1="83.8104" y1="99.3658" x2="69.0378" y2="84.5932" gradientUnits="userSpaceOnUse">
<stop stop-color="#3AC9A0" stop-opacity="0"/>
<stop offset="0.0351" stop-color="#38C69D" stop-opacity="0.035294"/>
<stop offset="0.4167" stop-color="#23AA82" stop-opacity="0.415686"/>
<stop offset="0.7511" stop-color="#169971" stop-opacity="0.752941"/>
<stop offset="1" stop-color="#11936B"/>
</linearGradient>
<linearGradient id="paint4_linear_834_13609" x1="16.7109" y1="165.02" x2="94.8237" y2="104.224" gradientUnits="userSpaceOnUse">
<stop stop-color="#0A3ECA"/>
<stop offset="0.961522" stop-color="#4B7CFF"/>
</linearGradient>
<linearGradient id="paint5_linear_834_13609" x1="83.5112" y1="116.071" x2="94.1273" y2="134.599" gradientUnits="userSpaceOnUse">
<stop stop-color="#00E7B2"/>
<stop offset="0.2459" stop-color="#05E5B1"/>
<stop offset="0.5301" stop-color="#13DDAC"/>
<stop offset="0.8322" stop-color="#2AD1A5"/>
<stop offset="1" stop-color="#3AC9A0"/>
</linearGradient>
<linearGradient id="paint6_linear_834_13609" x1="90.3262" y1="125.549" x2="79.9422" y2="112.233" gradientUnits="userSpaceOnUse">
<stop stop-color="#3AC9A0" stop-opacity="0"/>
<stop offset="0.0351" stop-color="#38C69D" stop-opacity="0.035294"/>
<stop offset="0.4167" stop-color="#23AA82" stop-opacity="0.415686"/>
<stop offset="0.7511" stop-color="#169971" stop-opacity="0.752941"/>
<stop offset="1" stop-color="#11936B"/>
</linearGradient>
<linearGradient id="paint7_linear_834_13609" x1="82.5883" y1="110.719" x2="82.5883" y2="128.092" gradientUnits="userSpaceOnUse">
<stop stop-color="#0A257C"/>
<stop offset="1" stop-color="#0D36C1"/>
</linearGradient>
<radialGradient id="paint8_radial_834_13609" cx="0" cy="0" r="1" gradientUnits="userSpaceOnUse" gradientTransform="translate(61.5361 47.9516) scale(50.9425)">
<stop stop-color="#FFA700"/>
<stop offset="0.3227" stop-color="#FCA300"/>
<stop offset="0.6649" stop-color="#F39600"/>
<stop offset="1" stop-color="#E58200"/>
</radialGradient>
<linearGradient id="paint9_linear_834_13609" x1="63.9111" y1="41.9101" x2="63.9111" y2="129.312" gradientUnits="userSpaceOnUse">
<stop stop-color="#E58200" stop-opacity="0"/>
<stop offset="0.0396" stop-color="#E27F04" stop-opacity="0.039216"/>
<stop offset="0.4671" stop-color="#C15D2F" stop-opacity="0.466667"/>
<stop offset="0.8016" stop-color="#AD4949" stop-opacity="0.8"/>
<stop offset="1" stop-color="#A64153"/>
</linearGradient>
<linearGradient id="paint10_linear_834_13609" x1="63.9111" y1="61.474" x2="63.9111" y2="-26.8489" gradientUnits="userSpaceOnUse">
<stop stop-color="#E58200" stop-opacity="0"/>
<stop offset="0.0396" stop-color="#E27F04" stop-opacity="0.039216"/>
<stop offset="0.4671" stop-color="#C15D2F" stop-opacity="0.466667"/>
<stop offset="0.8016" stop-color="#AD4949" stop-opacity="0.8"/>
<stop offset="1" stop-color="#A64153"/>
</linearGradient>
<linearGradient id="paint11_linear_834_13609" x1="63.9111" y1="51.1168" x2="63.9111" y2="79.3639" gradientUnits="userSpaceOnUse">
<stop stop-color="#E58200" stop-opacity="0"/>
<stop offset="0.0396" stop-color="#E27F04" stop-opacity="0.039216"/>
<stop offset="0.4671" stop-color="#C15D2F" stop-opacity="0.466667"/>
<stop offset="0.8016" stop-color="#AD4949" stop-opacity="0.8"/>
<stop offset="1" stop-color="#A64153"/>
</linearGradient>
<linearGradient id="paint12_linear_834_13609" x1="63.9111" y1="60.3235" x2="63.9111" y2="12.2231" gradientUnits="userSpaceOnUse">
<stop stop-color="#E58200" stop-opacity="0"/>
<stop offset="0.0396" stop-color="#E27F04" stop-opacity="0.039216"/>
<stop offset="0.4671" stop-color="#C15D2F" stop-opacity="0.466667"/>
<stop offset="0.8016" stop-color="#AD4949" stop-opacity="0.8"/>
<stop offset="1" stop-color="#A64153"/>
</linearGradient>
<radialGradient id="paint13_radial_834_13609" cx="0" cy="0" r="1" gradientUnits="userSpaceOnUse" gradientTransform="translate(45.7127 36.4442) scale(68.4722 68.4722)">
<stop stop-color="#FFC738"/>
<stop offset="0.2837" stop-color="#FFC534"/>
<stop offset="0.5391" stop-color="#FFBF29"/>
<stop offset="0.7827" stop-color="#FFB417"/>
<stop offset="1" stop-color="#FFA700"/>
</radialGradient>
<radialGradient id="paint14_radial_834_13609" cx="0" cy="0" r="1" gradientUnits="userSpaceOnUse" gradientTransform="translate(60.0273 49.6381) scale(42.8302 42.8302)">
<stop stop-color="#FFFCF8"/>
<stop offset="0.9485" stop-color="#FFFCF8" stop-opacity="0.05098"/>
<stop offset="1" stop-color="#FFFCF8" stop-opacity="0"/>
</radialGradient>
<radialGradient id="paint15_radial_834_13609" cx="0" cy="0" r="1" gradientUnits="userSpaceOnUse" gradientTransform="translate(63.1764 45.0607) scale(51.189 55.8527)">
<stop stop-color="#FFA700"/>
<stop offset="0.3227" stop-color="#FCA300"/>
<stop offset="0.6649" stop-color="#F39600"/>
<stop offset="1" stop-color="#E58200"/>
</radialGradient>
<radialGradient id="paint16_radial_834_13609" cx="0" cy="0" r="1" gradientUnits="userSpaceOnUse" gradientTransform="translate(50.0947 37.3644) scale(52.1649)">
<stop stop-color="#FFC738"/>
<stop offset="0.2837" stop-color="#FFC534"/>
<stop offset="0.5391" stop-color="#FFBF29"/>
<stop offset="0.7827" stop-color="#FFB417"/>
<stop offset="1" stop-color="#FFA700"/>
</radialGradient>
<linearGradient id="paint17_linear_834_13609" x1="78.5152" y1="59.2271" x2="45.3325" y2="51.5548" gradientUnits="userSpaceOnUse">
<stop stop-color="#FFA700" stop-opacity="0"/>
<stop offset="0.0206" stop-color="#FEA600" stop-opacity="0.019608"/>
<stop offset="0.6348" stop-color="#EC8C00" stop-opacity="0.635294"/>
<stop offset="1" stop-color="#E58200"/>
</linearGradient>
<linearGradient id="paint18_linear_834_13609" x1="57.3897" y1="49.6372" x2="69.4064" y2="49.6372" gradientUnits="userSpaceOnUse">
<stop stop-color="#FFA700"/>
<stop offset="0.3227" stop-color="#FCA300"/>
<stop offset="0.6649" stop-color="#F39600"/>
<stop offset="1" stop-color="#E58200"/>
</linearGradient>
<linearGradient id="paint19_linear_834_13609" x1="45.4272" y1="85.0982" x2="38.1808" y2="100.323" gradientUnits="userSpaceOnUse">
<stop stop-color="#00E7B2"/>
<stop offset="0.2459" stop-color="#05E5B1"/>
<stop offset="0.5301" stop-color="#13DDAC"/>
<stop offset="0.8322" stop-color="#2AD1A5"/>
<stop offset="1" stop-color="#3AC9A0"/>
</linearGradient>
<linearGradient id="paint20_linear_834_13609" x1="37.163" y1="90.1042" x2="63.7742" y2="75.2202" gradientUnits="userSpaceOnUse">
<stop stop-color="#3AC9A0" stop-opacity="0"/>
<stop offset="0.0351" stop-color="#38C69D" stop-opacity="0.035294"/>
<stop offset="0.4167" stop-color="#23AA82" stop-opacity="0.415686"/>
<stop offset="0.7511" stop-color="#169971" stop-opacity="0.752941"/>
<stop offset="1" stop-color="#11936B"/>
</linearGradient>
<linearGradient id="paint21_linear_834_13609" x1="32.5033" y1="89.8721" x2="67.0589" y2="97.2484" gradientUnits="userSpaceOnUse">
<stop stop-color="#3AC9A0" stop-opacity="0"/>
<stop offset="0.0351" stop-color="#38C69D" stop-opacity="0.035294"/>
<stop offset="0.4167" stop-color="#23AA82" stop-opacity="0.415686"/>
<stop offset="0.7511" stop-color="#169971" stop-opacity="0.752941"/>
<stop offset="1" stop-color="#11936B"/>
</linearGradient>
<linearGradient id="paint22_linear_834_13609" x1="89.3596" y1="83.6395" x2="97.608" y2="98.3446" gradientUnits="userSpaceOnUse">
<stop stop-color="#00E7B2"/>
<stop offset="0.2459" stop-color="#05E5B1"/>
<stop offset="0.5301" stop-color="#13DDAC"/>
<stop offset="0.8322" stop-color="#2AD1A5"/>
<stop offset="1" stop-color="#3AC9A0"/>
</linearGradient>
<linearGradient id="paint23_linear_834_13609" x1="97.9417" y1="88.0806" x2="70.3952" y2="75.0092" gradientUnits="userSpaceOnUse">
<stop stop-color="#3AC9A0" stop-opacity="0"/>
<stop offset="0.0351" stop-color="#38C69D" stop-opacity="0.035294"/>
<stop offset="0.4167" stop-color="#23AA82" stop-opacity="0.415686"/>
<stop offset="0.7511" stop-color="#169971" stop-opacity="0.752941"/>
<stop offset="1" stop-color="#11936B"/>
</linearGradient>
<linearGradient id="paint24_linear_834_13609" x1="102.576" y1="87.5382" x2="68.59" y2="97.2091" gradientUnits="userSpaceOnUse">
<stop stop-color="#3AC9A0" stop-opacity="0"/>
<stop offset="0.0351" stop-color="#38C69D" stop-opacity="0.035294"/>
<stop offset="0.4167" stop-color="#23AA82" stop-opacity="0.415686"/>
<stop offset="0.7511" stop-color="#169971" stop-opacity="0.752941"/>
<stop offset="1" stop-color="#11936B"/>
</linearGradient>
<linearGradient id="paint25_linear_834_13609" x1="73.8755" y1="159.156" x2="75.4671" y2="166.989" gradientUnits="userSpaceOnUse">
<stop stop-color="#FFEEE6"/>
<stop offset="1" stop-color="#FFB09E"/>
</linearGradient>
<linearGradient id="paint26_linear_834_13609" x1="76.7208" y1="160.052" x2="78.946" y2="169.656" gradientUnits="userSpaceOnUse">
<stop stop-color="#FFEEE6"/>
<stop offset="1" stop-color="#FFB09E"/>
</linearGradient>
<linearGradient id="paint27_linear_834_13609" x1="83.3438" y1="166.131" x2="86.2613" y2="173.036" gradientUnits="userSpaceOnUse">
<stop stop-color="#FFEEE6"/>
<stop offset="1" stop-color="#FFB09E"/>
</linearGradient>
<linearGradient id="paint28_linear_834_13609" x1="46.3245" y1="200.057" x2="79.8004" y2="130.714" gradientUnits="userSpaceOnUse">
<stop stop-color="#FFEEE6"/>
<stop offset="1" stop-color="#FFB09E"/>
</linearGradient>
<linearGradient id="paint29_linear_834_13609" x1="56.6652" y1="147.223" x2="71.7293" y2="162.287" gradientUnits="userSpaceOnUse">
<stop stop-color="#FFB09E" stop-opacity="0"/>
<stop offset="1" stop-color="#EC806B"/>
</linearGradient>
</defs>
</svg>
