<svg width="884" height="868" viewBox="0 0 884 868" fill="none" xmlns="http://www.w3.org/2000/svg">
<g opacity="0.2">
<path d="M528.809 39.8113L94.5998 325.149C42.7978 359.191 47.2246 436.386 102.565 464.098L566.458 696.43C621.798 724.143 686.553 681.595 683.015 619.84L653.321 102.175C649.783 40.4204 580.611 5.76883 528.809 39.8113Z" stroke="url(#paint0_linear_433_5611)" stroke-width="0.5"/>
<path d="M523.789 50.4592L106.688 328.729C56.9236 361.923 61.7255 436.388 115.316 462.767L564.56 683.851C618.151 710.23 680.354 668.733 676.517 609.165L644.375 109.811C640.544 50.2288 573.554 17.2656 523.789 50.4592Z" stroke="url(#paint1_linear_433_5611)" stroke-width="0.5"/>
<path d="M518.768 61.108L118.76 332.305C71.0378 364.66 76.1996 436.391 128.046 461.421L562.63 671.261C614.477 696.292 674.133 655.856 669.994 598.465L635.402 117.423C631.293 60.043 566.479 28.7578 518.768 61.108Z" stroke="url(#paint2_linear_433_5611)" stroke-width="0.5"/>
<path d="M513.746 71.7555L130.837 335.889C85.1569 367.406 90.6785 436.403 140.775 460.1L560.726 658.697C610.823 682.394 667.923 642.998 663.5 587.8L626.459 125.069C622.042 69.8559 559.416 40.2439 513.746 71.7555Z" stroke="url(#paint3_linear_433_5611)" stroke-width="0.5"/>
<path d="M508.709 82.3988L142.919 339.46C99.2765 370.128 105.163 436.401 153.516 458.749L558.796 646.108C607.149 668.456 661.692 630.126 656.982 577.11L617.507 132.696C612.792 79.6701 552.352 51.7313 508.709 82.3988Z" stroke="url(#paint4_linear_433_5611)" stroke-width="0.5"/>
<path d="M503.688 93.0457L154.996 343.044C113.396 372.873 119.652 436.407 166.255 457.422L556.887 633.532C603.49 654.547 655.492 617.263 650.478 566.424L608.539 140.316C603.541 89.4823 545.288 63.2167 503.688 93.0457Z" stroke="url(#paint5_linear_433_5611)" stroke-width="0.5"/>
<path d="M498.666 103.694L167.073 346.63C127.51 375.61 134.131 436.42 178.984 456.101L554.961 620.978C599.82 640.644 649.26 604.415 643.964 555.769L599.575 147.972C594.29 99.2956 538.229 74.7135 498.666 103.694Z" stroke="url(#paint6_linear_433_5611)" stroke-width="0.5"/>
<path d="M493.645 114.342L179.16 350.21C141.639 378.352 148.625 436.438 191.73 454.76L553.053 608.378C596.157 626.7 643.06 591.528 637.466 545.069L590.628 155.583C585.05 109.104 531.166 86.2003 493.645 114.342Z" stroke="url(#paint7_linear_433_5611)" stroke-width="0.5"/>
<path d="M488.623 124.99L191.231 353.785C155.748 381.078 163.109 436.435 204.464 453.424L551.133 595.808C592.487 612.797 636.839 578.676 630.957 534.4L581.675 163.209C575.799 118.918 524.102 97.6867 488.623 124.99Z" stroke="url(#paint8_linear_433_5611)" stroke-width="0.5"/>
<path d="M483.597 135.627L203.304 357.36C169.863 383.814 177.584 436.437 217.194 452.077L549.214 583.213C588.824 598.853 630.618 565.798 624.444 523.694L572.713 170.815C566.548 128.731 517.038 109.173 483.597 135.627Z" stroke="#064DD6" stroke-width="0.5"/>
<path d="M478.576 146.275L215.391 360.94C183.992 386.555 192.073 436.444 229.934 450.751L547.299 570.653C585.159 584.96 624.407 552.941 617.94 513.034L563.76 178.466C557.297 138.544 509.974 120.659 478.576 146.275Z" stroke="#064DD6" stroke-width="0.5"/>
<path d="M473.554 156.924L227.468 364.526C198.107 389.293 206.552 436.458 242.669 449.416L545.385 558.07C581.501 571.028 618.192 540.074 611.437 502.35L554.807 186.094C548.047 148.358 502.905 132.162 473.554 156.924Z" stroke="#064DD6" stroke-width="0.5"/>
<path d="M468.533 167.573L239.555 368.107C212.236 392.035 221.051 436.461 255.418 448.086L543.475 545.496C577.842 557.121 611.992 527.213 604.933 491.665L545.855 193.72C538.796 158.172 495.841 143.649 468.533 167.573Z" stroke="#064DD6" stroke-width="0.5"/>
<path d="M463.506 178.21L251.627 371.682C226.345 394.761 235.525 436.463 268.138 446.744L541.545 532.906C574.158 543.186 605.761 514.34 598.415 480.975L536.887 201.341C529.556 167.981 488.777 155.136 463.506 178.21Z" stroke="#064DD6" stroke-width="0.5"/>
<path d="M458.475 188.861L263.698 375.255C240.459 397.496 249.999 436.463 280.872 445.406L539.626 520.334C570.499 529.277 599.545 501.471 591.906 470.303L527.929 208.981C520.305 177.793 481.714 166.621 458.475 188.861Z" stroke="#064DD6" stroke-width="0.5"/>
<path d="M453.453 199.511L275.775 378.842C254.574 400.234 264.489 436.472 293.607 444.071L537.712 507.751C566.83 515.35 593.33 488.605 585.403 459.619L518.976 216.608C511.055 187.607 474.655 178.119 453.453 199.511Z" stroke="#064DD6" stroke-width="0.5"/>
<path d="M448.432 210.157L287.863 382.421C268.703 402.974 278.978 436.478 306.357 442.739L535.802 495.175C563.177 501.425 587.119 475.747 578.899 448.933L510.024 224.233C501.804 197.419 467.591 189.604 448.432 210.157Z" stroke="#064DD6" stroke-width="0.5"/>
<path d="M443.41 220.806L299.939 386.007C282.822 405.722 293.457 436.492 319.082 441.409L533.882 482.607C559.507 487.524 580.903 462.88 572.39 438.264L501.061 231.865C492.553 207.234 460.527 201.092 443.41 220.806Z" stroke="#064DD6" stroke-width="0.5"/>
<path d="M438.384 231.444L312.011 389.583C296.932 408.448 307.931 436.494 331.816 440.073L531.958 470.027C555.838 473.595 574.677 450.018 565.877 427.584L492.098 239.497C483.303 217.048 453.464 212.579 438.384 231.444Z" stroke="#064DD6" stroke-width="0.5"/>
<path d="M433.363 242.091L324.098 393.162C311.061 411.189 322.431 436.496 344.562 438.73L530.054 457.436C552.184 459.671 568.482 437.14 559.379 416.883L483.151 247.106C474.062 226.855 446.4 224.064 433.363 242.091Z" stroke="#064DD6" stroke-width="0.5"/>
<path d="M428.341 252.74L336.175 396.748C325.175 413.926 336.914 436.52 357.291 437.411L528.123 444.873C548.5 445.764 562.251 424.294 552.859 406.219L474.182 254.754C464.811 236.669 439.341 235.562 428.341 252.74Z" stroke="#064DD6" stroke-width="0.5"/>
<path d="M423.32 263.388L348.258 400.318C339.3 416.658 351.399 436.517 370.031 436.059L526.22 432.283C544.857 431.836 556.041 411.411 546.366 395.529L465.24 262.375C455.561 246.483 432.267 247.054 423.32 263.388Z" stroke="#064DD6" stroke-width="0.5"/>
</g>
<defs>
<linearGradient id="paint0_linear_433_5611" x1="355.134" y1="684.25" x2="413.243" y2="12.0597" gradientUnits="userSpaceOnUse">
<stop stop-color="white"/>
<stop offset="0.3267" stop-color="#E2E6F2"/>
<stop offset="1" stop-color="#9CABD2"/>
</linearGradient>
<linearGradient id="paint1_linear_433_5611" x1="358.141" y1="686.951" x2="416.381" y2="13.2477" gradientUnits="userSpaceOnUse">
<stop stop-color="white"/>
<stop offset="0.3267" stop-color="#E2E6F2"/>
<stop offset="1" stop-color="#9CABD2"/>
</linearGradient>
<linearGradient id="paint2_linear_433_5611" x1="361.166" y1="689.438" x2="419.168" y2="18.4888" gradientUnits="userSpaceOnUse">
<stop stop-color="white"/>
<stop offset="0.3267" stop-color="#E2E6F2"/>
<stop offset="1" stop-color="#9CABD2"/>
</linearGradient>
<linearGradient id="paint3_linear_433_5611" x1="364.204" y1="691.787" x2="421.95" y2="23.7881" gradientUnits="userSpaceOnUse">
<stop stop-color="white"/>
<stop offset="0.3267" stop-color="#E2E6F2"/>
<stop offset="1" stop-color="#9CABD2"/>
</linearGradient>
<linearGradient id="paint4_linear_433_5611" x1="367.254" y1="693.986" x2="424.726" y2="29.1551" gradientUnits="userSpaceOnUse">
<stop stop-color="white"/>
<stop offset="0.3267" stop-color="#E2E6F2"/>
<stop offset="1" stop-color="#9CABD2"/>
</linearGradient>
<linearGradient id="paint5_linear_433_5611" x1="370.32" y1="696.013" x2="427.497" y2="34.5935" gradientUnits="userSpaceOnUse">
<stop stop-color="white"/>
<stop offset="0.3267" stop-color="#E2E6F2"/>
<stop offset="1" stop-color="#9CABD2"/>
</linearGradient>
<linearGradient id="paint6_linear_433_5611" x1="373.402" y1="697.852" x2="430.261" y2="40.1154" gradientUnits="userSpaceOnUse">
<stop stop-color="white"/>
<stop offset="0.3267" stop-color="#E2E6F2"/>
<stop offset="1" stop-color="#9CABD2"/>
</linearGradient>
<linearGradient id="paint7_linear_433_5611" x1="376.503" y1="699.478" x2="433.017" y2="45.7298" gradientUnits="userSpaceOnUse">
<stop stop-color="white"/>
<stop offset="0.3267" stop-color="#E2E6F2"/>
<stop offset="1" stop-color="#9CABD2"/>
</linearGradient>
<linearGradient id="paint8_linear_433_5611" x1="379.625" y1="700.864" x2="435.765" y2="51.4478" gradientUnits="userSpaceOnUse">
<stop stop-color="white"/>
<stop offset="0.3267" stop-color="#E2E6F2"/>
<stop offset="1" stop-color="#9CABD2"/>
</linearGradient>
</defs>
</svg>
