<svg width="64" height="64" viewBox="0 0 64 64" fill="none" xmlns="http://www.w3.org/2000/svg">
<path d="M29.4668 39.8667L24.5335 44.8C23.4935 45.84 21.8402 45.84 20.7735 44.8267C20.4802 44.5334 20.1868 44.2667 19.8935 43.9734C17.1468 41.2 14.6668 38.2934 12.4535 35.2534C10.2668 32.2134 8.50683 29.1734 7.22683 26.16C5.9735 23.12 5.3335 20.2134 5.3335 17.44C5.3335 15.6267 5.6535 13.8934 6.2935 12.2934C6.9335 10.6667 7.94683 9.17337 9.36016 7.84004C11.0668 6.16004 12.9335 5.33337 14.9068 5.33337C15.6535 5.33337 16.4002 5.49337 17.0668 5.81337C17.7602 6.13337 18.3735 6.61337 18.8535 7.30671L25.0402 16.0267C25.5202 16.6934 25.8668 17.3067 26.1068 17.8934C26.3468 18.4534 26.4802 19.0134 26.4802 19.52C26.4802 20.16 26.2935 20.8 25.9202 21.4134C25.5735 22.0267 25.0668 22.6667 24.4268 23.3067L22.4002 25.4134C22.1068 25.7067 21.9735 26.0534 21.9735 26.48C21.9735 26.6934 22.0002 26.88 22.0535 27.0934C22.1335 27.3067 22.2135 27.4667 22.2668 27.6267C22.7468 28.5067 23.5735 29.6534 24.7468 31.04C25.9468 32.4267 27.2268 33.84 28.6135 35.2534C28.8802 35.52 29.1735 35.7867 29.4402 36.0534C30.5068 37.0934 30.5335 38.8 29.4668 39.8667Z" fill="white"/>
<path d="M58.5868 48.8799C58.5868 49.6266 58.4534 50.3999 58.1868 51.1466C58.1068 51.3599 58.0268 51.5733 57.9201 51.7866C57.4668 52.7466 56.8801 53.6533 56.1068 54.5066C54.8001 55.9466 53.3601 56.9866 51.7334 57.6533C51.7068 57.6533 51.6801 57.6799 51.6534 57.6799C50.0801 58.3199 48.3734 58.6666 46.5334 58.6666C43.8134 58.6666 40.9068 58.0266 37.8401 56.7199C34.7734 55.4133 31.7068 53.6533 28.6668 51.4399C27.6268 50.6666 26.5868 49.8933 25.6001 49.0666L34.3201 40.3466C35.0668 40.9066 35.7334 41.3333 36.2934 41.6266C36.4268 41.6799 36.5868 41.7599 36.7734 41.8399C36.9868 41.9199 37.2001 41.9466 37.4401 41.9466C37.8934 41.9466 38.2401 41.7866 38.5334 41.4933L40.5601 39.4933C41.2268 38.8266 41.8668 38.3199 42.4801 37.9999C43.0934 37.6266 43.7068 37.4399 44.3734 37.4399C44.8801 37.4399 45.4134 37.5466 46.0001 37.7866C46.5868 38.0266 47.2001 38.3733 47.8668 38.8266L56.6934 45.0933C57.3868 45.5733 57.8668 46.1333 58.1601 46.7999C58.4268 47.4666 58.5868 48.1333 58.5868 48.8799Z" fill="white"/>
</svg>
