<svg width="32" height="33" viewBox="0 0 32 33" fill="none" xmlns="http://www.w3.org/2000/svg">
<g clip-path="url(#clip0_3477_5991)">
<path d="M32 19.0625C32 18.3621 31.6659 17.0507 29.4284 16.1374C29.2035 16.0456 28.9659 15.9615 28.7186 15.8842C28.7392 15.5691 28.75 15.2529 28.75 14.9375C28.75 11.0978 27.2548 7.48794 24.5397 4.77282C21.8246 2.05775 18.2147 0.5625 14.375 0.5625C10.5353 0.5625 6.92544 2.05775 4.21032 4.77282C1.49525 7.48794 0 11.0978 0 14.9375C0 18.7772 1.49525 22.3871 4.21032 25.1022C6.92544 27.8173 10.5353 29.3125 14.375 29.3125C15.3486 29.3125 16.3146 29.2149 17.2599 29.0223C17.3284 29.7527 17.7916 30.9089 19.8216 31.7376C21.1249 32.2695 22.8308 32.5625 24.625 32.5625C26.4192 32.5625 28.1251 32.2696 29.4284 31.7376C31.6659 30.8243 32 29.5129 32 28.8125V19.25H31.9918C31.9974 19.1837 32 19.1208 32 19.0625ZM29.4746 19.0619C29.4722 19.0652 29.4702 19.0683 29.4677 19.0716C29.463 19.0777 29.4579 19.084 29.4526 19.0903C29.4465 19.0976 29.4401 19.1049 29.4332 19.1124C29.4272 19.1189 29.4209 19.1255 29.4142 19.1322C29.4067 19.1399 29.3986 19.1477 29.3902 19.1556C29.3829 19.1625 29.3754 19.1694 29.3676 19.1764C29.3584 19.1845 29.3487 19.1927 29.3387 19.2011C29.3302 19.2082 29.3216 19.2153 29.3124 19.2226C29.3017 19.2311 29.2902 19.2398 29.2787 19.2485C29.2689 19.2559 29.2592 19.2632 29.2489 19.2706C29.2365 19.2796 29.2234 19.2887 29.2101 19.2977C29.1992 19.3052 29.1886 19.3126 29.1771 19.3202C29.1629 19.3295 29.1479 19.339 29.1329 19.3485C29.121 19.356 29.1094 19.3635 29.0969 19.3711C29.0809 19.3808 29.0639 19.3907 29.047 19.4006C29.0341 19.4081 29.0217 19.4155 29.0084 19.423C28.9902 19.4332 28.9711 19.4435 28.9521 19.4538C28.9386 19.4611 28.9256 19.4684 28.9116 19.4757C28.8906 19.4867 28.8684 19.4978 28.8464 19.5089C28.8331 19.5156 28.8204 19.5222 28.8067 19.5289C28.7791 19.5424 28.7502 19.5559 28.721 19.5694C28.7118 19.5737 28.7031 19.578 28.6938 19.5823C28.6545 19.6002 28.6139 19.6181 28.572 19.6359C28.564 19.6393 28.5554 19.6427 28.5472 19.6461C28.5131 19.6605 28.4784 19.6749 28.4424 19.6891C28.4269 19.6953 28.4104 19.7014 28.3946 19.7075C28.3651 19.7189 28.3356 19.7304 28.3049 19.7417C28.2861 19.7487 28.2662 19.7556 28.2469 19.7626C28.2179 19.7729 28.189 19.7834 28.159 19.7937C28.1381 19.8009 28.1164 19.8079 28.095 19.8151C28.0654 19.8249 28.0358 19.8348 28.0052 19.8446C27.9826 19.8518 27.959 19.8589 27.9358 19.8661C27.9053 19.8756 27.8749 19.8849 27.8436 19.8942C27.8191 19.9014 27.7939 19.9085 27.7689 19.9156C27.7374 19.9246 27.706 19.9335 27.6738 19.9423C27.6477 19.9494 27.621 19.9563 27.5944 19.9633C27.5619 19.9717 27.5293 19.9803 27.496 19.9886C27.4685 19.9954 27.4404 20.0022 27.4124 20.0089C27.3787 20.017 27.3447 20.025 27.3101 20.0329C27.2812 20.0394 27.2519 20.0459 27.2226 20.0523C27.1876 20.0599 27.1522 20.0674 27.1165 20.0748C27.0862 20.0811 27.0558 20.0872 27.0249 20.0933C26.9886 20.1004 26.9519 20.1074 26.9148 20.1143C26.8833 20.1201 26.8517 20.1258 26.8197 20.1314C26.7819 20.1381 26.7436 20.1445 26.7051 20.1509C26.6724 20.1563 26.6397 20.1616 26.6065 20.1667C26.5673 20.1728 26.5274 20.1787 26.4874 20.1844C26.4538 20.1893 26.4201 20.1942 26.3858 20.1988C26.3449 20.2043 26.3032 20.2096 26.2614 20.2147C26.2268 20.2191 26.1923 20.2234 26.1572 20.2274C26.1146 20.2324 26.0711 20.2369 26.0277 20.2414C25.9922 20.2451 25.9569 20.2489 25.9208 20.2524C25.8762 20.2566 25.8306 20.2604 25.7852 20.2643C25.7492 20.2674 25.7135 20.2706 25.677 20.2734C25.6296 20.277 25.5812 20.2801 25.5329 20.2832C25.4972 20.2855 25.4618 20.2881 25.4255 20.2901C25.3742 20.2931 25.3218 20.2953 25.2696 20.2977C25.2352 20.2993 25.2012 20.3011 25.1663 20.3024C25.1079 20.3046 25.0482 20.3061 24.9888 20.3076C24.9589 20.3083 24.9296 20.3094 24.8994 20.31C24.8092 20.3117 24.7179 20.3126 24.6251 20.3126C24.5324 20.3126 24.441 20.3117 24.3508 20.31C24.3207 20.3094 24.2914 20.3083 24.2615 20.3076C24.2019 20.3061 24.1423 20.3046 24.0839 20.3024C24.0491 20.3011 24.0151 20.2993 23.9806 20.2977C23.9284 20.2953 23.876 20.2931 23.8248 20.2901C23.7885 20.2881 23.7531 20.2855 23.7173 20.2832C23.6691 20.2801 23.6206 20.277 23.5732 20.2734C23.5368 20.2706 23.5011 20.2674 23.4651 20.2643C23.4196 20.2604 23.3741 20.2566 23.3294 20.2524C23.2934 20.2489 23.2581 20.2451 23.2226 20.2414C23.1791 20.2369 23.1357 20.2324 23.0931 20.2274C23.0579 20.2234 23.0234 20.2191 22.9888 20.2147C22.9471 20.2096 22.9054 20.2044 22.8644 20.1988C22.8302 20.1942 22.7965 20.1893 22.7628 20.1844C22.7228 20.1787 22.683 20.1729 22.6438 20.1667C22.6106 20.1616 22.5778 20.1563 22.5452 20.1509C22.5066 20.1445 22.4684 20.1381 22.4306 20.1314C22.3986 20.1258 22.3669 20.1201 22.3355 20.1143C22.2984 20.1074 22.2616 20.1004 22.2253 20.0933C22.1946 20.0872 22.164 20.0811 22.1338 20.0748C22.098 20.0674 22.0627 20.0599 22.0277 20.0523C21.9982 20.0459 21.969 20.0394 21.9401 20.0329C21.9056 20.025 21.8716 20.0169 21.8378 20.0089C21.8098 20.0021 21.7818 19.9954 21.7542 19.9886C21.7209 19.9803 21.6883 19.9717 21.6558 19.9633C21.6292 19.9563 21.6026 19.9493 21.5765 19.9423C21.5442 19.9335 21.5128 19.9246 21.4814 19.9156C21.4564 19.9085 21.4312 19.9014 21.4067 19.8942C21.3754 19.8849 21.3449 19.8755 21.3145 19.8661C21.2912 19.8589 21.2678 19.8518 21.245 19.8446C21.2144 19.8348 21.1849 19.8249 21.1552 19.8151C21.1339 19.8079 21.1121 19.8009 21.0912 19.7937C21.0612 19.7834 21.0324 19.773 21.0034 19.7626C20.9841 19.7556 20.9642 19.7487 20.9453 19.7417C20.9146 19.7304 20.8852 19.7189 20.8556 19.7075C20.8398 19.7014 20.8233 19.6953 20.8078 19.6891C20.7718 19.6748 20.7372 19.6605 20.703 19.6461C20.6949 19.6427 20.6862 19.6394 20.6782 19.6359C20.6362 19.6181 20.5957 19.6002 20.5565 19.5823C20.5471 19.578 20.5385 19.5737 20.5292 19.5694C20.5001 19.5559 20.4711 19.5424 20.4436 19.5289C20.4299 19.5222 20.4172 19.5156 20.4039 19.5089C20.3818 19.4977 20.3596 19.4867 20.3386 19.4757C20.3247 19.4684 20.3117 19.4611 20.2982 19.4538C20.2791 19.4435 20.2599 19.4332 20.2419 19.423C20.2285 19.4155 20.2161 19.4081 20.2032 19.4006C20.1863 19.3907 20.1693 19.3808 20.1533 19.3711C20.1409 19.3634 20.1292 19.356 20.1174 19.3485C20.1024 19.3391 20.0873 19.3296 20.0731 19.3202C20.0617 19.3126 20.051 19.3052 20.0401 19.2977C20.0269 19.2886 20.0137 19.2796 20.0013 19.2706C19.991 19.2631 19.9813 19.2558 19.9716 19.2485C19.96 19.2397 19.9486 19.2311 19.9378 19.2226C19.9287 19.2153 19.9201 19.2082 19.9116 19.2011C19.9016 19.1927 19.8918 19.1845 19.8827 19.1764C19.8748 19.1694 19.8673 19.1624 19.8601 19.1556C19.8517 19.1477 19.8436 19.1399 19.836 19.1322C19.8294 19.1255 19.8231 19.1189 19.8171 19.1124C19.8102 19.1049 19.8038 19.0976 19.7977 19.0903C19.7924 19.084 19.7872 19.0777 19.7826 19.0716C19.78 19.0683 19.7779 19.0652 19.7756 19.0619C20.07 18.6584 21.7366 17.8125 24.625 17.8125C27.5134 17.8125 29.18 18.6584 29.4746 19.0619ZM17.25 19.0625C17.25 19.1208 17.2526 19.1837 17.2582 19.25H17.25V26.4619C16.3143 26.6944 15.3497 26.8125 14.375 26.8125C7.82708 26.8125 2.5 21.4854 2.5 14.9375C2.5 8.38958 7.82708 3.0625 14.375 3.0625C20.9229 3.0625 26.25 8.38958 26.25 14.9375C26.25 15.0895 26.2469 15.2417 26.2411 15.3938C25.7167 15.3403 25.1751 15.3125 24.625 15.3125C22.8308 15.3125 21.1249 15.6055 19.8216 16.1374C17.5841 17.0507 17.25 18.3621 17.25 19.0625ZM29.5 28.7729C29.2935 29.1573 27.6129 30.0625 24.625 30.0625C21.6371 30.0625 19.9565 29.1572 19.75 28.7729V26.7696C19.7741 26.7797 19.7971 26.7901 19.8216 26.8001C21.1249 27.332 22.8308 27.625 24.625 27.625C26.4192 27.625 28.1251 27.3321 29.4284 26.8001C29.4529 26.79 29.4759 26.7797 29.5 26.7696V28.7729ZM29.5 23.8337C29.2986 24.2168 27.6184 25.125 24.625 25.125C21.6316 25.125 19.9514 24.2168 19.75 23.8337V21.9571C19.7741 21.9673 19.7971 21.9776 19.8216 21.9876C21.1249 22.5195 22.8308 22.8125 24.625 22.8125C26.4192 22.8125 28.1251 22.5196 29.4284 21.9876C29.4529 21.9776 29.4759 21.9673 29.5 21.9572V23.8337Z" fill="#064DD6"/>
<path d="M13.125 13.6875H7.5V16.1875H15.625V5.5625H13.125V13.6875Z" fill="#064DD6"/>
<path fill-rule="evenodd" clip-rule="evenodd" d="M32 19.0625C32 18.3621 31.6659 17.0507 29.4284 16.1374C29.2035 16.0456 28.9659 15.9615 28.7186 15.8842C27.7788 15.6499 27.2397 15.5371 26.2411 15.3938C25.7167 15.3403 25.1751 15.3125 24.625 15.3125C22.8308 15.3125 21.1249 15.6055 19.8216 16.1374C17.5841 17.0507 17.25 18.3621 17.25 19.0625C17.25 19.1208 17.2526 19.1837 17.2582 19.25H17.25V26.4619L17.2599 29.0223C17.3284 29.7527 17.7916 30.9089 19.8216 31.7376C21.1249 32.2695 22.8308 32.5625 24.625 32.5625C26.4192 32.5625 28.1251 32.2696 29.4284 31.7376C31.6659 30.8243 32 29.5129 32 28.8125V19.25H31.9918C31.9974 19.1837 32 19.1208 32 19.0625ZM29.4677 19.0716C29.4702 19.0683 29.4722 19.0652 29.4746 19.0619C29.18 18.6584 27.5134 17.8125 24.625 17.8125C21.7366 17.8125 20.07 18.6584 19.7756 19.0619C19.7779 19.0652 19.78 19.0683 19.7826 19.0716C19.7872 19.0777 19.7924 19.084 19.7977 19.0903C19.8038 19.0976 19.8102 19.1049 19.8171 19.1124C19.8231 19.1189 19.8294 19.1255 19.836 19.1322C19.8436 19.1399 19.8517 19.1477 19.8601 19.1556C19.8673 19.1624 19.8748 19.1694 19.8827 19.1764C19.8918 19.1845 19.9016 19.1927 19.9116 19.2011C19.9201 19.2082 19.9287 19.2153 19.9378 19.2226C19.9486 19.2311 19.96 19.2397 19.9716 19.2485C19.9813 19.2558 19.991 19.2631 20.0013 19.2706C20.0125 19.2787 20.0243 19.2869 20.0363 19.2951L20.0401 19.2977C20.051 19.3052 20.0617 19.3126 20.0731 19.3202C20.0873 19.3296 20.1024 19.3391 20.1174 19.3485C20.1292 19.356 20.1409 19.3634 20.1533 19.3711C20.1679 19.3799 20.1832 19.3889 20.1986 19.3979L20.2032 19.4006C20.2161 19.4081 20.2285 19.4155 20.2419 19.423C20.2599 19.4332 20.2791 19.4435 20.2982 19.4538C20.3117 19.4611 20.3247 19.4684 20.3386 19.4757C20.3596 19.4867 20.3818 19.4977 20.4039 19.5089C20.4172 19.5156 20.4299 19.5222 20.4436 19.5289C20.4702 19.5419 20.4981 19.5549 20.5262 19.568L20.5292 19.5694C20.5385 19.5737 20.5471 19.578 20.5565 19.5823C20.5957 19.6002 20.6362 19.6181 20.6782 19.6359C20.6862 19.6394 20.6949 19.6427 20.703 19.6461C20.7372 19.6605 20.7718 19.6748 20.8078 19.6891C20.8233 19.6953 20.8398 19.7014 20.8556 19.7075L20.8625 19.7102C20.8898 19.7207 20.917 19.7313 20.9453 19.7417C20.9642 19.7487 20.9841 19.7556 21.0034 19.7626C21.0324 19.773 21.0612 19.7834 21.0912 19.7937C21.1121 19.8009 21.1339 19.8079 21.1552 19.8151L21.1601 19.8167C21.1881 19.826 21.2161 19.8354 21.245 19.8446C21.2678 19.8518 21.2912 19.8589 21.3145 19.8661C21.3449 19.8755 21.3754 19.8849 21.4067 19.8942C21.4312 19.9014 21.4564 19.9085 21.4814 19.9156C21.5128 19.9246 21.5442 19.9335 21.5765 19.9423C21.6026 19.9493 21.6292 19.9563 21.6558 19.9633L21.6604 19.9645C21.6914 19.9725 21.7225 19.9807 21.7542 19.9886C21.7818 19.9954 21.8098 20.0021 21.8378 20.0089C21.8716 20.0169 21.9056 20.025 21.9401 20.0329C21.969 20.0394 21.9982 20.0459 22.0277 20.0523C22.0627 20.0599 22.098 20.0674 22.1338 20.0748C22.164 20.0811 22.1946 20.0872 22.2253 20.0933C22.2616 20.1004 22.2984 20.1074 22.3355 20.1143C22.3669 20.1201 22.3986 20.1258 22.4306 20.1314C22.4684 20.1381 22.5066 20.1445 22.5452 20.1509C22.5778 20.1563 22.6106 20.1616 22.6438 20.1667C22.683 20.1729 22.7228 20.1787 22.7628 20.1844C22.7965 20.1893 22.8302 20.1942 22.8644 20.1988C22.9054 20.2044 22.9471 20.2096 22.9888 20.2147L22.9941 20.2154C23.027 20.2195 23.0597 20.2236 23.0931 20.2274C23.1304 20.2318 23.1684 20.2357 23.2064 20.2397L23.2226 20.2414C23.2581 20.2451 23.2934 20.2489 23.3294 20.2524C23.3741 20.2566 23.4196 20.2604 23.4651 20.2643C23.5011 20.2674 23.5368 20.2706 23.5732 20.2734C23.6168 20.2767 23.6612 20.2796 23.7055 20.2824L23.7173 20.2832C23.7531 20.2855 23.7885 20.2881 23.8248 20.2901C23.876 20.2931 23.9284 20.2953 23.9806 20.2977C24.0151 20.2993 24.0491 20.3011 24.0839 20.3024C24.1369 20.3044 24.1909 20.3058 24.2449 20.3072L24.2615 20.3076C24.2914 20.3083 24.3207 20.3094 24.3508 20.31C24.441 20.3117 24.5324 20.3126 24.6251 20.3126C24.7179 20.3126 24.8092 20.3117 24.8994 20.31C24.9296 20.3094 24.9589 20.3083 24.9888 20.3076L25.0059 20.3071C25.0597 20.3058 25.1135 20.3044 25.1663 20.3024C25.2012 20.3011 25.2352 20.2993 25.2696 20.2977C25.3218 20.2953 25.3742 20.2931 25.4255 20.2901C25.4618 20.2881 25.4972 20.2855 25.5329 20.2832L25.5432 20.2825C25.5881 20.2796 25.6329 20.2767 25.677 20.2734C25.7135 20.2706 25.7492 20.2674 25.7852 20.2643C25.8306 20.2604 25.8762 20.2566 25.9208 20.2524C25.9569 20.2489 25.9922 20.2451 26.0277 20.2414L26.0439 20.2397C26.0819 20.2357 26.1199 20.2318 26.1572 20.2274C26.1905 20.2236 26.2233 20.2195 26.2562 20.2154L26.2614 20.2147C26.3032 20.2096 26.3449 20.2043 26.3858 20.1988C26.4201 20.1942 26.4538 20.1893 26.4874 20.1844C26.5274 20.1787 26.5673 20.1728 26.6065 20.1667C26.6397 20.1616 26.6724 20.1563 26.7051 20.1509C26.7436 20.1445 26.7819 20.1381 26.8197 20.1314C26.8517 20.1258 26.8833 20.1201 26.9148 20.1143C26.9519 20.1074 26.9886 20.1004 27.0249 20.0933C27.0558 20.0872 27.0862 20.0811 27.1165 20.0748C27.1522 20.0674 27.1876 20.0599 27.2226 20.0523C27.2519 20.0459 27.2812 20.0394 27.3101 20.0329C27.3447 20.025 27.3787 20.017 27.4124 20.0089C27.4404 20.0022 27.4685 19.9954 27.496 19.9886C27.5277 19.9807 27.5588 19.9726 27.5898 19.9645L27.5944 19.9633C27.621 19.9563 27.6477 19.9494 27.6738 19.9423C27.706 19.9335 27.7374 19.9246 27.7689 19.9156C27.7939 19.9085 27.8191 19.9014 27.8436 19.8942C27.8749 19.8849 27.9053 19.8756 27.9358 19.8661C27.959 19.8589 27.9826 19.8518 28.0052 19.8446C28.0341 19.8354 28.0621 19.826 28.0902 19.8167L28.095 19.8151C28.1164 19.8079 28.1381 19.8009 28.159 19.7937C28.189 19.7834 28.2179 19.7729 28.2469 19.7626C28.2662 19.7556 28.2861 19.7487 28.3049 19.7417C28.3321 19.7317 28.3582 19.7216 28.3843 19.7115L28.3946 19.7075C28.4104 19.7014 28.4269 19.6953 28.4424 19.6891C28.4784 19.6749 28.5131 19.6605 28.5472 19.6461C28.5554 19.6427 28.564 19.6393 28.572 19.6359C28.6139 19.6181 28.6545 19.6002 28.6938 19.5823C28.7031 19.578 28.7118 19.5737 28.721 19.5694C28.7502 19.5559 28.7791 19.5424 28.8067 19.5289C28.8204 19.5222 28.8331 19.5156 28.8464 19.5089L28.8488 19.5076C28.8701 19.497 28.8914 19.4863 28.9116 19.4757C28.9256 19.4684 28.9386 19.4611 28.9521 19.4538C28.9711 19.4435 28.9902 19.4332 29.0084 19.423C29.0217 19.4155 29.0341 19.4081 29.047 19.4006L29.054 19.3965C29.0686 19.388 29.0831 19.3795 29.0969 19.3711C29.1094 19.3635 29.121 19.356 29.1329 19.3485L29.1396 19.3442C29.1524 19.3361 29.165 19.3281 29.1771 19.3202C29.1886 19.3126 29.1992 19.3052 29.2101 19.2977C29.2234 19.2887 29.2365 19.2796 29.2489 19.2706C29.2587 19.2636 29.2679 19.2567 29.2771 19.2497L29.2787 19.2485C29.2902 19.2398 29.3017 19.2311 29.3124 19.2226C29.3216 19.2153 29.3302 19.2082 29.3387 19.2011C29.3487 19.1927 29.3584 19.1845 29.3676 19.1764C29.3754 19.1694 29.3829 19.1625 29.3902 19.1556C29.3986 19.1477 29.4067 19.1399 29.4142 19.1322C29.4209 19.1255 29.4272 19.1189 29.4332 19.1124C29.4401 19.1049 29.4465 19.0976 29.4526 19.0903C29.4579 19.084 29.463 19.0777 29.4677 19.0716ZM24.625 30.0625C27.6129 30.0625 29.2935 29.1573 29.5 28.7729V26.7696C29.4759 26.7797 29.4529 26.79 29.4284 26.8001C28.1251 27.3321 26.4192 27.625 24.625 27.625C22.8308 27.625 21.1249 27.332 19.8216 26.8001C19.7971 26.7901 19.7741 26.7797 19.75 26.7696V28.7729C19.9565 29.1572 21.6371 30.0625 24.625 30.0625ZM24.625 25.125C27.6184 25.125 29.2986 24.2168 29.5 23.8337V21.9572C29.4759 21.9673 29.4529 21.9776 29.4284 21.9876C28.1251 22.5196 26.4192 22.8125 24.625 22.8125C22.8308 22.8125 21.1249 22.5195 19.8216 21.9876C19.7971 21.9776 19.7741 21.9673 19.75 21.9571V23.8337C19.9514 24.2168 21.6316 25.125 24.625 25.125Z" fill="#FF6C0E"/>
</g>
<defs>
<clipPath id="clip0_3477_5991">
<rect width="32" height="32" fill="white" transform="translate(0 0.5625)"/>
</clipPath>
</defs>
</svg>
