<svg width="24" height="24" viewBox="0 0 24 24" fill="none" xmlns="http://www.w3.org/2000/svg">
<g clip-path="url(#clip0)">
<path d="M23.287 3.04207L13.287 0.0420695C13.1377 -0.0026645 12.98 -0.0118765 12.8265 0.0151686C12.673 0.0422137 12.5279 0.104767 12.4029 0.197836C12.2779 0.290905 12.1763 0.411913 12.1064 0.551202C12.0364 0.69049 12 0.844202 12 1.00007V6.00007H14V2.34407L22 4.74407V22.0001H16V9.00007C16 8.73485 15.8946 8.4805 15.7071 8.29296C15.5196 8.10543 15.2652 8.00007 15 8.00007H5C4.73478 8.00007 4.48043 8.10543 4.29289 8.29296C4.10536 8.4805 4 8.73485 4 9.00007V22.0001H2V12.0001H1C0.734784 12.0001 0.48043 12.1054 0.292893 12.293C0.105357 12.4805 0 12.7349 0 13.0001L0 23.0001C0 23.2653 0.105357 23.5196 0.292893 23.7072C0.48043 23.8947 0.734784 24.0001 1 24.0001H23C23.2652 24.0001 23.5196 23.8947 23.7071 23.7072C23.8946 23.5196 24 23.2653 24 23.0001V4.00007C24 3.78494 23.9307 3.57553 23.8022 3.40295C23.6738 3.23037 23.4931 3.10381 23.287 3.04207ZM12 21.0001H8V19.0001H12V21.0001ZM12 17.0001H8V15.0001H12V17.0001ZM12 13.0001H8V11.0001H12V13.0001Z" fill="url(#paint0_linear)"/>
<path d="M20 8H18V20H20V8Z" fill="url(#paint1_linear)"/>
</g>
<defs>
<linearGradient id="paint0_linear" x1="12" y1="31.0172" x2="12" y2="1.27244" gradientUnits="userSpaceOnUse">
<stop stop-color="#0A3ECA"/>
<stop offset="0.961522" stop-color="#4B7CFF"/>
</linearGradient>
<linearGradient id="paint1_linear" x1="19" y1="23.5085" x2="19.0001" y2="8.63622" gradientUnits="userSpaceOnUse">
<stop stop-color="#0A3ECA"/>
<stop offset="0.961522" stop-color="#4B7CFF"/>
</linearGradient>
<clipPath id="clip0">
<rect width="24" height="24" fill="white"/>
</clipPath>
</defs>
</svg>
