<svg width="32" height="33" viewBox="0 0 32 33" fill="none" xmlns="http://www.w3.org/2000/svg">
<g clip-path="url(#clip0_3477_6016)">
<path d="M28.25 0.617188H3.75C1.68213 0.617188 0 2.4357 0 4.67124V28.455C0 30.6906 1.68213 32.5091 3.75 32.5091H28.25C30.3179 32.5091 32 30.6906 32 28.455V4.67124C32 2.4357 30.3179 0.617188 28.25 0.617188ZM3.75 3.31989H28.25C28.9392 3.31989 29.5 3.92615 29.5 4.67124V8.7253H2.5V4.67124C2.5 3.92615 3.06079 3.31989 3.75 3.31989ZM28.25 29.8064H3.75C3.06079 29.8064 2.5 29.2001 2.5 28.455V11.428H29.5V28.455C29.5 29.2001 28.9392 29.8064 28.25 29.8064ZM4.375 6.02259C4.375 5.27617 4.93456 4.67124 5.625 4.67124C6.31544 4.67124 6.875 5.27617 6.875 6.02259C6.875 6.76901 6.31544 7.37394 5.625 7.37394C4.93456 7.37394 4.375 6.76901 4.375 6.02259ZM8.75 6.02259C8.75 5.27617 9.30956 4.67124 10 4.67124C10.6904 4.67124 11.25 5.27617 11.25 6.02259C11.25 6.76901 10.6904 7.37394 10 7.37394C9.30956 7.37394 8.75 6.76901 8.75 6.02259ZM21.3896 18.2742L26.0234 23.284L21.3896 28.2935L19.6218 26.3823L21.2046 24.6712H13.625V21.9685H21.2712L19.6218 20.1854L21.3896 18.2742ZM10.1926 19.2658L11.7796 20.9814L10.0117 22.8926L5.37792 17.8828L10.0117 12.8733L11.7796 14.7845L10.1343 16.5631H17.75V19.2658H10.1926Z" fill="#064DD6"/>
<path d="M26.0234 23.2818L21.3896 18.272L19.6218 20.1832L21.2712 21.9663H13.625V24.669H21.2046L19.6218 26.3801L21.3896 28.2913L26.0234 23.2818Z" fill="#FF6C0E"/>
<path d="M11.7796 20.9792L10.1926 19.2636H17.75V16.5609H10.1343L11.7796 14.7822L10.0117 12.8711L5.37793 17.8806L10.0117 22.8903L11.7796 20.9792Z" fill="#FF6C0E"/>
</g>
<defs>
<clipPath id="clip0_3477_6016">
<rect width="32" height="32" fill="white" transform="translate(0 0.5625)"/>
</clipPath>
</defs>
</svg>
