<svg width="32" height="33" viewBox="0 0 32 33" fill="none" xmlns="http://www.w3.org/2000/svg">
<g clip-path="url(#clip0_3477_5871)">
<path d="M12.432 21.8179C12.432 22.1489 12.5959 22.4583 12.8701 22.6453C13.2023 22.8716 13.4836 22.9875 13.5912 23.0105C14.0766 23.0815 19.6381 23.676 23.2848 24.0613L23.0221 26.5474C20.1813 26.2473 13.5324 25.5417 13.1471 25.4709C12.4679 25.3459 11.8 24.9412 11.4623 24.7112C11.1406 24.4917 10.8634 24.2234 10.6359 23.9207L10.6244 23.9324L4.62541 18.0454C4.38713 17.8113 4.07197 17.6848 3.73821 17.6875C3.40447 17.6907 3.09173 17.8235 2.85784 18.0618C2.62395 18.3003 2.497 18.6152 2.49993 18.9492C2.50311 19.2829 2.63616 19.5957 2.87444 19.8296L12.1518 28.9338C12.893 29.6619 13.8737 30.0625 14.9125 30.0625H31.9999V32.5625H14.9125C13.2145 32.5625 11.6122 31.9075 10.4006 30.7183L1.12347 21.614C0.408377 20.9123 0.00945145 19.9744 0.000174085 18.9727C-0.00934743 17.9712 0.372 17.0259 1.07342 16.311C1.77508 15.5959 2.71307 15.197 3.71477 15.1877C4.71477 15.1787 5.66157 15.5593 6.37665 16.261L10.35 20.1607C10.6718 19.5649 11.1608 19.0727 11.7541 18.7473C9.32269 16.8963 7.74993 13.9722 7.74993 10.6875C7.74993 5.1045 12.2919 0.5625 17.8749 0.5625C19.905 0.5625 21.7971 1.16358 23.3835 2.19629L21.6303 4.05347C20.5212 3.4231 19.2395 3.0625 17.8749 3.0625C13.6706 3.0625 10.2499 6.48314 10.2499 10.6875C10.2499 14.8919 13.6706 18.3125 17.8749 18.3125C22.0141 18.3125 25.3935 14.9973 25.4975 10.8826L27.7585 8.48754C27.9162 9.19606 27.9999 9.93214 27.9999 10.6875C27.9999 13.8203 26.5695 16.6253 24.3276 18.4839C26.6213 18.8323 28.7968 19.7139 30.7086 21.082L31.9999 22.0059V25.0801L29.2538 23.1152C27.1942 21.6413 24.7673 20.8462 22.2351 20.8157C22.1835 20.8149 22.1327 20.8145 22.0802 20.8147L13.4325 20.8181C12.8805 20.8179 12.432 21.2666 12.432 21.8179ZM14.4238 8.02514L12.7011 9.8369L18.1535 15.0203L28.2838 4.28906L26.466 2.573L18.0578 11.4797L14.4238 8.02514Z" fill="#064DD6"/>
<path d="M11.7542 18.7473C9.32276 16.8963 7.75 13.9722 7.75 10.6875C7.75 5.1045 12.292 0.5625 17.875 0.5625C19.905 0.5625 21.7971 1.16358 23.3836 2.19629L21.6304 4.05347C20.5212 3.4231 19.2395 3.0625 17.875 3.0625C13.6706 3.0625 10.25 6.48314 10.25 10.6875C10.25 14.8919 13.6706 18.3125 17.875 18.3125C22.0142 18.3125 25.3936 14.9973 25.4976 10.8826L27.7586 8.48754C27.9162 9.19606 28 9.93214 28 10.6875C28 13.8203 26.5696 16.6253 24.3276 18.4839C19.5997 21.7625 15.5997 21.1625 11.7542 18.7473Z" fill="#FF6C0E"/>
<path d="M14.4238 8.02514L12.7012 9.8369L18.1536 15.0203L28.2839 4.28906L26.4661 2.573L18.0579 11.4797L14.4238 8.02514Z" fill="#FF6C0E"/>
</g>
<defs>
<clipPath id="clip0_3477_5871">
<rect width="32" height="32" fill="white" transform="translate(0 0.5625)"/>
</clipPath>
</defs>
</svg>
