<svg width="24" height="24" viewBox="0 0 24 24" fill="none" xmlns="http://www.w3.org/2000/svg">
<g clip-path="url(#clip0)">
<path d="M12 18.75C12.002 16.9604 12.7138 15.2447 13.9792 13.9792C15.2447 12.7138 16.9604 12.002 18.75 12C19.7918 12.0007 20.8191 12.2447 21.75 12.7125V0.75C21.75 0.551088 21.671 0.360322 21.5303 0.21967C21.3897 0.0790176 21.1989 0 21 0L1.5 0C1.30109 0 1.11032 0.0790176 0.96967 0.21967C0.829018 0.360322 0.75 0.551088 0.75 0.75V23.25C0.75 23.4489 0.829018 23.6397 0.96967 23.7803C1.11032 23.921 1.30109 24 1.5 24H14.517C13.7316 23.3688 13.0977 22.5695 12.6621 21.6609C12.2265 20.7523 12.0002 19.7576 12 18.75ZM9.75 6H17.25V7.5H9.75V6ZM5.25 6H7.5V7.5H5.25V6ZM9.75 18H5.25V16.5H9.75V18ZM11.25 12.75H5.25V11.25H11.25V12.75Z" fill="url(#paint0_linear)"/>
<path d="M18.75 13.5C17.7117 13.5 16.6966 13.8079 15.8333 14.3848C14.9699 14.9617 14.297 15.7816 13.8996 16.7409C13.5023 17.7002 13.3983 18.7558 13.6009 19.7742C13.8035 20.7926 14.3035 21.7281 15.0377 22.4623C15.7719 23.1965 16.7074 23.6966 17.7258 23.8991C18.7442 24.1017 19.7998 23.9977 20.7591 23.6004C21.7184 23.203 22.5383 22.5301 23.1152 21.6667C23.6921 20.8034 24 19.7884 24 18.75C24 17.3576 23.4469 16.0223 22.4623 15.0377C21.4777 14.0531 20.1424 13.5 18.75 13.5ZM21.75 19.5H19.5V21.75H18V19.5H15.75V18H18V15.75H19.5V18H21.75V19.5Z" fill="url(#paint1_linear)"/>
</g>
<defs>
<linearGradient id="paint0_linear" x1="11.25" y1="31.0171" x2="11.25" y2="1.27243" gradientUnits="userSpaceOnUse">
<stop stop-color="#0A3ECA"/>
<stop offset="0.961522" stop-color="#4B7CFF"/>
</linearGradient>
<linearGradient id="paint1_linear" x1="18.75" y1="27.07" x2="18.75" y2="14.0567" gradientUnits="userSpaceOnUse">
<stop stop-color="#0A3ECA"/>
<stop offset="0.961522" stop-color="#4B7CFF"/>
</linearGradient>
<clipPath id="clip0">
<rect width="24" height="24" fill="white"/>
</clipPath>
</defs>
</svg>
