<svg width="26" height="24" viewBox="0 0 26 24" fill="none" xmlns="http://www.w3.org/2000/svg">
    <path d="M23.7148 21.9023C23.2882 21.9023 22.9531 21.5671 22.9531 21.1406V5.90625C22.9531 5.47964 22.618 5.14453 22.1914 5.14453L13.4114 3.62109L9.86172 2.09766L9.06948 0.909324C8.91719 0.696043 8.68862 0.574219 8.42969 0.574219H0.761719C0.335105 0.574219 0 0.909324 0 1.33594V22.6641C0 23.0906 0.335105 23.4258 0.761719 23.4258H23.7148C23.7606 23.4258 23.8215 23.4258 23.8671 23.4105C24.2176 23.3344 24.4766 23.0297 24.4766 22.6641C24.4766 22.2374 24.1415 21.9023 23.7148 21.9023Z" fill="url(#paint0_linear)"/>
    <path d="M9.95312 15.8086H3.85938C3.43835 15.8086 3.09766 16.1493 3.09766 16.5703V19.6172C3.09766 20.0382 3.43835 20.3789 3.85938 20.3789H9.95312C10.3742 20.3789 10.7148 20.0382 10.7148 19.6172V16.5703C10.7148 16.1493 10.3742 15.8086 9.95312 15.8086ZM25.2383 2.09766H9.86172L11.8879 5.14453H21.4297V21.1406C21.4297 22.4027 22.4528 23.4258 23.7148 23.4258C24.9769 23.4258 26 22.4027 26 21.1406V2.85938C26 2.4387 25.659 2.09766 25.2383 2.09766Z" fill="url(#paint1_linear)"/>
    <defs>
        <linearGradient id="paint0_linear" x1="12.2383" y1="30.1071" x2="12.2383" y2="1.78577" gradientUnits="userSpaceOnUse">
            <stop stop-color="#B5BDD2"/>
            <stop offset="0.961522" stop-color="#C3C9D9"/>
        </linearGradient>
        <linearGradient id="paint1_linear" x1="14.5488" y1="29.6617" x2="14.5489" y2="3.22843" gradientUnits="userSpaceOnUse">
            <stop stop-color="#E0E6F5"/>
            <stop offset="0.961522" stop-color="#F2F6FF"/>
        </linearGradient>
    </defs>
</svg>