<svg width="100" height="26" viewBox="0 0 100 26" fill="none" xmlns="http://www.w3.org/2000/svg">
    <g clip-path="url(#clip0)">
        <path d="M27.6056 24.4462C27.6056 24.3944 27.6574 24.3944 27.6574 24.3426C27.7092 24.2908 27.761 24.1872 27.8127 24.1354C27.8645 24.0836 27.8645 24.0318 27.9163 23.98C27.9681 23.9283 28.0199 23.8765 28.0199 23.7729C28.0717 23.7211 28.1235 23.6175 28.1235 23.5657C28.1235 23.5139 28.1753 23.4621 28.1753 23.4103C28.2271 23.3067 28.2789 23.2032 28.2789 23.1514C28.2789 23.0996 28.2789 23.0996 28.3307 23.0478C28.3825 22.9442 28.3825 22.8406 28.4343 22.737V22.6852C28.4861 22.5816 28.4861 22.4263 28.4861 22.3227V22.2709C28.4861 22.1673 28.5378 22.0119 28.5378 21.9083C28.5378 21.8565 28.5378 21.8565 28.5378 21.8047C28.5378 21.7012 28.5378 21.6494 28.5378 21.5458C28.5378 21.494 28.5378 21.494 28.5378 21.4422C28.5378 21.3904 28.5378 21.3904 28.5378 21.3386C28.5378 21.235 28.5378 21.1314 28.5378 21.0279C28.5378 20.9761 28.5378 20.9761 28.5378 20.9243C28.5378 20.8207 28.4861 20.6653 28.4861 20.5617V20.5099C28.4343 20.4063 28.4343 20.251 28.3825 20.1474V20.0956C28.3307 19.992 28.2789 19.8366 28.2271 19.733C28.2271 19.733 28.2271 19.6812 28.1753 19.6812C28.1235 19.5777 28.0717 19.4741 28.0199 19.3705C28.0199 19.3705 28.0199 19.3705 28.0199 19.3187L18.1275 2.22706C18.1275 2.17526 18.0757 2.17526 18.0757 2.12347C18.1275 2.07168 18.0757 2.07168 18.0757 2.01989C18.0239 1.96809 17.9721 1.86451 17.9203 1.81271C17.8685 1.76092 17.8685 1.70913 17.8167 1.65734C17.7131 1.55375 17.6614 1.50196 17.6096 1.45016C17.5578 1.39837 17.506 1.34658 17.4542 1.29479C17.4024 1.24299 17.3506 1.1912 17.2988 1.13941C17.247 1.08761 17.1952 1.03582 17.1434 1.03582C17.0916 0.984029 17.0398 0.932236 16.9363 0.880443C16.8845 0.82865 16.8327 0.776857 16.7809 0.776857C16.7291 0.725065 16.6773 0.673272 16.6255 0.673272L16.5737 0.621479C16.5219 0.569686 16.4701 0.517893 16.4183 0.517893C16.3665 0.517893 16.3147 0.4661 16.2629 0.4661C16.1594 0.414308 16.0558 0.362515 15.9522 0.310722H15.9004C15.7968 0.258929 15.6414 0.207136 15.4861 0.207136C15.3307 0.155343 15.2271 0.155343 15.0717 0.103551H15.0199C14.9163 0.103551 14.8127 0.0517578 14.7092 0.0517578C14.6574 0.0517578 14.6056 0.0517578 14.5538 0.0517578C14.502 0.0517578 14.3984 0.0517578 14.3466 0.0517578C14.243 0.0517578 14.1912 0.0517578 14.0876 0.0517578C14.0359 0.0517578 14.0359 0.0517578 13.9841 0.0517578C13.8805 0.0517578 13.7251 0.0517578 13.6215 0.103551C13.4661 0.103551 13.3625 0.155343 13.2072 0.207136C13.0518 0.258929 12.9482 0.310722 12.7928 0.362515H12.741C12.6374 0.414308 12.5339 0.4661 12.4303 0.517893C12.3785 0.517893 12.3267 0.569686 12.3267 0.569686C12.2749 0.621479 12.2231 0.621479 12.1713 0.673272L12.1195 0.725065C12.0677 0.776857 12.0159 0.776857 11.9641 0.82865C11.9123 0.880443 11.8606 0.880443 11.8088 0.932236C11.757 0.984029 11.7052 1.03582 11.6016 1.08761C11.5498 1.13941 11.498 1.1912 11.4462 1.1912C11.3944 1.24299 11.3426 1.29479 11.2908 1.34658C11.239 1.39837 11.1873 1.45016 11.1355 1.50196C10.9801 1.50196 10.9283 1.55375 10.8765 1.65734C10.8247 1.70913 10.7729 1.76092 10.7729 1.81271C10.7211 1.86451 10.6693 1.96809 10.6175 2.01989C10.5657 2.07168 10.5657 2.07168 10.5139 2.12347C10.5139 2.17526 10.4622 2.17526 10.4622 2.22706L0.569721 19.3187C0.569721 19.3187 0.569721 19.3705 0.517928 19.3705C0.517928 19.4223 0.466135 19.4741 0.466135 19.5259C0.414343 19.6294 0.36255 19.6812 0.36255 19.7848C0.36255 19.8366 0.310757 19.8884 0.310757 19.8884C0.258964 19.992 0.258964 20.0956 0.207171 20.1992C0.207171 20.251 0.207171 20.251 0.155378 20.3028C0.103586 20.4063 0.103586 20.5099 0.0517928 20.6135C0.0517928 20.6653 0.0517928 20.6653 0.0517928 20.7171C0.0517928 20.8207 0 20.9243 0 21.0796C0 21.1314 0 21.1314 0 21.1832C0 21.2868 0 21.3904 0 21.5458C0 21.5458 0 21.5458 0 21.5976C0 21.6494 0 21.6494 0 21.7012C0 21.8047 0 21.9083 0 22.0119C0 22.0637 0 22.1155 0 22.1673C0 22.2709 0 22.3227 0.0517928 22.4263C0.0517928 22.4781 0.0517928 22.5298 0.103586 22.5816C0.103586 22.6852 0.155378 22.737 0.155378 22.8406C0.155378 22.8924 0.207171 22.9442 0.207171 22.996C0.258964 23.0996 0.258964 23.1514 0.310757 23.2549C0.310757 23.3067 0.36255 23.3585 0.36255 23.4103C0.414343 23.5139 0.466135 23.6175 0.517928 23.6693C0.517928 23.7211 0.569721 23.7211 0.569721 23.7729C0.621514 23.8765 0.673307 23.98 0.776892 24.0836C1.13944 24.6016 1.60558 25.1195 2.22709 25.4302C2.27888 25.4302 2.27888 25.482 2.33068 25.482C2.38247 25.5338 2.48606 25.5338 2.53785 25.5856C2.69323 25.6374 2.84861 25.741 3.00398 25.7928C3.05578 25.8446 3.15936 25.8446 3.21115 25.8446C3.26295 25.8446 3.36653 25.8964 3.47012 25.8964C3.52191 25.8964 3.6255 25.9482 3.72908 25.9482C3.83267 25.9482 3.88446 26 3.98805 26C4.09163 26 4.19522 26 4.2988 26C4.3506 26 4.40239 26 4.45418 26H24.1873C24.1873 26 24.1872 26 24.239 26C24.2908 26 24.3426 26 24.3944 26C24.498 26 24.6016 26 24.7052 26C24.8088 26 24.8606 26 24.9641 25.9482C25.0677 25.9482 25.1713 25.8964 25.2231 25.8964C25.2749 25.8964 25.3785 25.8446 25.4303 25.8446C25.5339 25.7928 25.6374 25.7928 25.741 25.741C25.7928 25.741 25.8446 25.6892 25.9482 25.6892C26.1036 25.6374 26.259 25.5338 26.3625 25.482C26.3625 25.482 26.4143 25.482 26.4143 25.4302C26.4661 25.3785 26.5697 25.3267 26.6215 25.2749C26.6733 25.2749 26.6733 25.2231 26.7251 25.2231C26.8287 25.1713 26.9323 25.0677 26.9841 25.0159L27.0359 24.9641C27.1394 24.9123 27.1912 24.8087 27.2948 24.7051L27.3466 24.6534C27.4502 24.6016 27.5538 24.5498 27.6056 24.4462ZM26.5697 21.8565C26.5697 21.9601 26.5697 22.0119 26.5179 22.1155C26.5179 22.1673 26.4661 22.2191 26.4661 22.3227C26.4143 22.4263 26.4143 22.4781 26.3625 22.5816C26.3108 22.6334 26.3108 22.6852 26.259 22.7888C26.2072 22.8406 26.2072 22.9442 26.1554 22.996C26.1036 23.0478 26.0518 23.1514 26 23.2032C25.9482 23.2549 25.8964 23.3067 25.8446 23.3585C25.7928 23.4103 25.6892 23.4621 25.6374 23.5139C25.5857 23.5657 25.5339 23.6175 25.4821 23.6175C25.4303 23.6693 25.3267 23.7211 25.2749 23.7211C25.2231 23.7729 25.1713 23.7729 25.0677 23.8247C24.9641 23.8765 24.9123 23.8765 24.8088 23.9283C24.757 23.9283 24.7052 23.98 24.6534 23.98C24.5498 23.98 24.4462 24.0318 24.3426 24.0318C23.4621 24.0836 22.6335 23.6693 22.1673 22.8406L20.0956 19.2669H24.239C25.1713 19.2669 25.9482 19.7848 26.3625 20.5617C26.4143 20.6653 26.4661 20.7689 26.4661 20.8207C26.4661 20.8725 26.5179 20.9243 26.5179 20.9761C26.5179 21.0796 26.5697 21.1314 26.5697 21.235C26.5697 21.2868 26.5697 21.3904 26.5697 21.4422C26.5697 21.5458 26.5697 21.5976 26.5697 21.7012C26.5697 21.7012 26.5697 21.8047 26.5697 21.8565ZM4.03984 23.9283C3.98805 23.9283 3.93625 23.9283 3.88446 23.8765C3.78088 23.8765 3.67729 23.8247 3.5737 23.7729C3.52191 23.7729 3.47012 23.7211 3.41833 23.7211C3.31474 23.6693 3.21115 23.6175 3.15936 23.5657C3.10757 23.5139 3.10757 23.5139 3.05578 23.4621C2.95219 23.4103 2.9004 23.3067 2.79681 23.2549C2.74502 23.2032 2.74502 23.2032 2.69323 23.1514C2.64143 23.0478 2.53785 22.996 2.48606 22.8924C2.48606 22.8406 2.43426 22.8406 2.43426 22.7888C2.38247 22.6852 2.33068 22.5816 2.27888 22.5298C2.27888 22.4781 2.22709 22.4263 2.22709 22.3745C2.1753 22.2709 2.1753 22.1673 2.12351 22.1155C2.12351 22.0637 2.12351 22.0119 2.07171 21.9601C2.07171 21.8047 2.07171 21.7012 2.07171 21.5976C2.07171 21.5458 2.07171 21.494 2.07171 21.4422C2.07171 21.3386 2.07171 21.235 2.12351 21.1314C2.12351 21.0796 2.1753 21.0279 2.1753 20.9243C2.1753 20.8207 2.22709 20.7689 2.27888 20.6653C2.27888 20.6135 2.33068 20.5099 2.38247 20.4581C2.69323 19.733 3.52191 19.1633 4.45418 19.1633H8.59761L6.5259 22.737C6.21514 23.3067 5.69721 23.7211 5.0757 23.8765C4.81673 23.9283 4.55777 23.98 4.3506 23.9283C4.24701 23.9283 4.14343 23.9283 4.03984 23.9283ZM12.4821 2.95216C12.5339 2.90036 12.5857 2.84857 12.6374 2.74499C12.6892 2.69319 12.741 2.6414 12.7928 2.58961C12.8964 2.58961 12.9482 2.53781 13 2.48602C13.1036 2.43423 13.1554 2.38244 13.259 2.33064C13.259 2.33064 13.3108 2.33064 13.3108 2.27885C13.4661 2.22706 13.5697 2.17526 13.7251 2.12347C13.9323 2.07168 14.1394 2.07168 14.3466 2.07168C14.5538 2.07168 14.761 2.12347 14.9681 2.17526C15.1235 2.22706 15.2271 2.27885 15.3825 2.33064C15.3825 2.33064 15.4343 2.33064 15.4343 2.38244C15.5378 2.43423 15.5896 2.48602 15.6932 2.53781C15.745 2.53781 15.7968 2.58961 15.8486 2.58961C15.9004 2.6414 15.9522 2.69319 16.004 2.74499C16.0558 2.79678 16.1076 2.84857 16.1594 2.95216C16.2112 3.00395 16.2112 3.05574 16.2629 3.10753C16.4183 3.31471 16.5219 3.57367 16.6255 3.83263C16.7809 4.45415 16.7291 5.07566 16.3665 5.64538L14.2948 9.21909L12.2231 5.64538C11.9123 5.07566 11.8088 4.45415 11.9641 3.83263C12.0159 3.57367 12.1713 3.31471 12.3267 3.10753C12.4303 3.05574 12.4303 3.00395 12.4821 2.95216ZM10.4622 6.68124L13.1036 11.2908L9.78884 17.0916H4.45418C4.40239 17.0916 4.3506 17.0916 4.24701 17.0916L10.3586 6.47407C10.4104 6.57765 10.4622 6.62945 10.4622 6.68124ZM14.3466 13.3625L16.5219 17.0916H12.2231L14.3466 13.3625ZM8.33864 23.7729L10.9801 19.1633H17.6614L20.3028 23.7729C20.3546 23.8247 20.3546 23.8765 20.4064 23.9283H8.23506C8.23506 23.8765 8.28685 23.8247 8.33864 23.7729ZM24.239 17.0916H18.9044L15.5378 11.2908L18.1793 6.68124C18.2311 6.62945 18.2311 6.57765 18.2829 6.52586L24.3944 17.0916C24.3426 17.0916 24.2908 17.0916 24.239 17.0916Z" fill="white"/>
        <path d="M36.8765 4.14355H51.1713V7.71726H40.4502V11.291H47.5976V14.8647H40.4502V20.1993C40.4502 20.6655 40.2948 21.0798 39.9323 21.4424C39.5697 21.8049 39.1554 21.9603 38.6374 21.9603H36.8765V4.14355Z" fill="white"/>
        <path d="M88.7729 4.04004H92.3466L99.494 21.9604H97.1633C96.8008 21.9604 96.4382 21.8568 96.1275 21.6496C95.8167 21.4424 95.6095 21.1835 95.4542 20.8209L94.4701 18.3349H86.6494L85.6653 20.8209C85.5099 21.1835 85.3028 21.4424 84.992 21.6496C84.6813 21.8568 84.3705 21.9604 83.9562 21.9604H81.6255L88.7729 4.04004ZM88.0996 14.7612H93.0717L90.5856 8.49422L88.0996 14.7612Z" fill="white"/>
        <path d="M76.498 5.95634V16.3149L65.8287 4.0918H62.255V22.0121H64.0159C64.5339 22.0121 64.9482 21.8567 65.3108 21.4942C65.6733 21.1316 65.8287 20.7173 65.8287 20.2512V9.78901L76.498 22.0121H80.0717V4.0918H78.4143C77.3785 4.0918 76.498 4.92048 76.498 5.95634Z" fill="white"/>
        <path d="M54.745 4.04004V21.9604H56.6096C57.5418 21.9604 58.3187 21.2353 58.3187 20.303V18.801V4.04004H54.745Z" fill="white"/>
    </g>
    <defs>
        <clipPath id="clip0">
            <rect width="99.494" height="26" fill="white"/>
        </clipPath>
    </defs>
</svg>