<svg width="28" height="28" viewBox="0 0 28 28" fill="none" xmlns="http://www.w3.org/2000/svg">
<g clip-path="url(#clip0)">
<path d="M14.5392 1.89743C14.5395 1.89765 14.5397 1.89781 14.5399 1.89803C14.4994 1.86254 14.5007 1.86374 14.5392 1.89743ZM27.7194 13.4371C27.5541 13.2925 15.2183 2.49238 14.5392 1.89749C14.23 1.62766 13.769 1.62782 13.4601 1.89809C9.4726 5.38715 4.18437 10.0214 0.280614 13.4371C-0.0606357 13.736 -0.0959092 14.2542 0.203724 14.5947C0.500732 14.9359 1.02032 14.9705 1.36047 14.6724L3.33595 12.9368V25.4844C3.33595 25.9375 3.70323 26.3047 4.15626 26.3047H9.89845C10.8046 26.3047 11.5391 25.5702 11.5391 24.6641V18.1016H16.461V24.6641C16.461 25.5702 17.1955 26.3047 18.1016 26.3047H23.8438C24.2968 26.3047 24.6641 25.9375 24.6641 25.4844V12.9368L26.6396 14.6724C26.9797 14.9704 27.4992 14.9359 27.7963 14.5947C28.0959 14.2542 28.0607 13.7359 27.7194 13.4371Z" fill="url(#paint0_linear)"/>
<path d="M14 13.1797C15.357 13.1797 16.4609 12.0758 16.4609 10.7188C16.4609 9.3618 15.357 8.25787 14 8.25787C12.643 8.25787 11.5391 9.3618 11.5391 10.7188C11.5391 12.0758 12.643 13.1797 14 13.1797ZM17.2812 16.461H10.7187C10.2657 16.461 9.89844 16.8283 9.89844 17.2813V26.3047H18.1016V17.2813C18.1016 16.8283 17.7343 16.461 17.2812 16.461Z" fill="url(#paint1_linear)"/>
</g>
<defs>
<linearGradient id="paint0_linear" x1="14" y1="33.5" x2="14" y2="3" gradientUnits="userSpaceOnUse">
<stop stop-color="#B5BDD2"/>
<stop offset="0.961522" stop-color="#C3C9D9"/>
</linearGradient>
<linearGradient id="paint1_linear" x1="14" y1="31.5813" x2="14" y2="9.21468" gradientUnits="userSpaceOnUse">
<stop stop-color="#E0E6F5"/>
<stop offset="0.961522" stop-color="#F2F6FF"/>
</linearGradient>
<clipPath id="clip0">
<rect width="28" height="28" fill="white"/>
</clipPath>
</defs>
</svg>
