<svg width="28" height="26" viewBox="0 0 28 26" fill="none" xmlns="http://www.w3.org/2000/svg">
    <path d="M14.5392 0.897492C14.5394 0.897711 14.5397 0.897875 14.5399 0.898094C14.4994 0.862602 14.5007 0.863805 14.5392 0.897492ZM27.7194 12.4372C27.5541 12.2926 15.2183 1.49244 14.5392 0.897547C14.23 0.627719 13.769 0.627883 13.4601 0.898149C9.47259 4.38721 4.18437 9.02143 0.280607 12.4372C-0.0606433 12.736 -0.0959168 13.2543 0.203716 13.5948C0.500724 13.9359 1.02031 13.9706 1.36047 13.6725L3.33594 11.9369V24.4845C3.33594 24.9375 3.70322 25.3048 4.15626 25.3048H9.89844C10.8046 25.3048 11.5391 24.5703 11.5391 23.6642V17.1017H16.4609V23.6642C16.4609 24.5703 17.1955 25.3048 18.1016 25.3048H23.8438C24.2968 25.3048 24.6641 24.9375 24.6641 24.4845V11.9369L26.6395 13.6724C26.9797 13.9705 27.4992 13.9359 27.7963 13.5947C28.0959 13.2543 28.0607 12.736 27.7194 12.4372Z" fill="url(#paint0_linear)"/>
    <path d="M14 12.1797C15.357 12.1797 16.4609 11.0758 16.4609 9.71875C16.4609 8.36173 15.357 7.25781 14 7.25781C12.643 7.25781 11.5391 8.36173 11.5391 9.71875C11.5391 11.0758 12.643 12.1797 14 12.1797ZM17.2812 15.4609H10.7187C10.2657 15.4609 9.89843 15.8282 9.89843 16.2812V25.3047H18.1016V16.2812C18.1016 15.8282 17.7343 15.4609 17.2812 15.4609Z" fill="url(#paint1_linear)"/>
    <defs>
        <linearGradient id="paint0_linear" x1="14" y1="32.5001" x2="14" y2="2.00006" gradientUnits="userSpaceOnUse">
            <stop stop-color="#0A3ECA"/>
            <stop offset="0.961522" stop-color="#4B7CFF"/>
        </linearGradient>
        <linearGradient id="paint1_linear" x1="17.2289" y1="14.9999" x2="17.2289" y2="30.9999" gradientUnits="userSpaceOnUse">
            <stop stop-color="white"/>
            <stop offset="0.961522" stop-color="#9CB7FF"/>
        </linearGradient>
    </defs>
</svg>