<svg width="40" height="40" viewBox="0 0 40 40" fill="none" xmlns="http://www.w3.org/2000/svg">
<path d="M30.1376 25.0892C29.9188 25.0892 29.7 25.1264 29.4933 25.1511L26.9892 22.613H28.922C29.5905 22.613 30.1376 22.0559 30.1376 21.3749V20.9045C30.1376 19.9883 29.1894 19.3816 28.375 19.8026L25.6034 21.214L22.4793 18.0321C22.2605 17.7968 21.9444 17.6606 21.6284 17.6606H17.9816C17.313 17.6606 16.766 18.2178 16.766 18.8987C16.766 19.5797 17.313 20.1368 17.9816 20.1368H20.6194C20.9477 20.1368 21.2516 20.273 21.4825 20.4959L23.5612 22.613H19.4889C19.2944 22.613 19.1121 22.6626 18.9419 22.7492L15.125 24.693C14.663 24.9283 14.0917 24.8416 13.727 24.4578L12.2683 22.9721C12.0373 22.7492 11.7213 22.613 11.4052 22.613H7.04124C6.37266 22.613 5.82564 23.1702 5.82564 23.8511C5.82564 24.5321 6.37266 25.0892 7.04124 25.0892H10.688C7.62472 25.0892 5.23 27.9616 5.95936 31.2054C6.3605 33.0007 7.78275 34.4493 9.54537 34.8578C12.7302 35.6007 15.5504 33.1616 15.5504 30.0416L17.2644 31.7873C17.7263 32.2578 18.3463 32.5178 18.9905 32.5178H20.2183C21.0935 32.5178 21.8958 32.0473 22.3334 31.2673L25.8708 24.9654L27.0986 26.2159C25.725 27.3426 24.9591 29.1997 25.4211 31.2302C25.8344 33.0131 27.2566 34.4616 29.0071 34.8702C32.1798 35.6007 35 33.1493 35 30.0416C35 27.3054 32.824 25.0892 30.1376 25.0892ZM10.688 32.5178C9.35087 32.5178 8.25683 31.4035 8.25683 30.0416C8.25683 28.6797 9.35087 27.5654 10.688 27.5654C12.0252 27.5654 13.1192 28.6797 13.1192 30.0416C13.1192 31.4035 12.0252 32.5178 10.688 32.5178ZM30.1376 32.5178C28.8004 32.5178 27.7064 31.4035 27.7064 30.0416C27.7064 28.6797 28.8004 27.5654 30.1376 27.5654C31.4747 27.5654 32.5688 28.6797 32.5688 30.0416C32.5688 31.4035 31.4747 32.5178 30.1376 32.5178Z" fill="#064DD6"/>
<path d="M13.2651 5.17411L6.20086 8.31345C5.47428 8.63648 5 9.3633 5 10.1607V14.9051C5 17.2617 5.68568 19.554 6.86775 21.5138H14.0826V15.9145C16.7372 15.9097 16.8526 15.9072 16.9128 15.9059C16.9785 15.9044 16.9785 15.9044 20.1376 15.9044V10.6554L14.0826 8.03085V15.9145H7.01835V10.1582L14.0826 7.01888L21.1468 10.1582V15.9044C21.1185 16.1242 21.084 16.3427 21.0434 16.5596H23.053C23.1269 16.0141 23.1651 15.4614 23.1651 14.9051V10.1607C23.1651 9.3633 22.6909 8.63648 21.9643 8.31345L14.9001 5.17411C14.3854 4.94196 13.7798 4.94196 13.2651 5.17411Z" fill="#FF6C0E"/>
</svg>
