<svg width="40" height="40" viewBox="0 0 40 40" fill="none" xmlns="http://www.w3.org/2000/svg">
<path d="M31.4896 18.7552C31.2725 18.1158 30.6646 17.6606 29.9481 17.6606H18.0062C17.2896 17.6606 16.6925 18.1158 16.4646 18.7552L14.3259 24.8999C14.2499 25.1274 14.2065 25.3659 14.2065 25.6151V33.3745C14.2065 34.274 14.9338 35.0001 15.8349 35.0001C16.736 35.0001 17.4633 34.274 17.4633 33.3745V32.8327H30.4909V33.3745C30.4909 34.2632 31.2182 35.0001 32.1193 35.0001C33.0095 35.0001 33.7477 34.274 33.7477 33.3745V25.6151C33.7477 25.3767 33.7043 25.1274 33.6283 24.8999L31.4896 18.7552ZM18.0062 29.5815C17.1051 29.5815 16.3777 28.8554 16.3777 27.9559C16.3777 27.0565 17.1051 26.3304 18.0062 26.3304C18.9072 26.3304 19.6346 27.0565 19.6346 27.9559C19.6346 28.8554 18.9072 29.5815 18.0062 29.5815ZM29.9481 29.5815C29.047 29.5815 28.3196 28.8554 28.3196 27.9559C28.3196 27.0565 29.047 26.3304 29.9481 26.3304C30.8491 26.3304 31.5765 27.0565 31.5765 27.9559C31.5765 28.8554 30.8491 29.5815 29.9481 29.5815ZM16.3777 24.1629L17.7565 20.0231C17.9085 19.5897 18.321 19.2862 18.7878 19.2862H29.1664C29.6332 19.2862 30.0458 19.5897 30.1977 20.0231L31.5765 24.1629H16.3777Z" fill="#064DD6"/>
<path fill-rule="evenodd" clip-rule="evenodd" d="M7.70089 8.31345L14.7651 5.17411C15.2798 4.94196 15.8854 4.94196 16.4001 5.17411L23.4643 8.31345C24.1909 8.63648 24.6652 9.3633 24.6652 10.1607V14.9051C24.6652 15.4614 24.627 16.0141 24.553 16.5596H22.5434C22.584 16.3427 22.6185 16.1242 22.6468 15.9044V10.1582L15.5826 7.01887L8.51838 10.1582V15.9145H15.5826V17.3461L12.6239 25.7994C8.97362 23.6251 6.50003 19.3811 6.50003 14.9051V10.1607C6.50003 9.3633 6.97431 8.63648 7.70089 8.31345ZM18.4128 15.9033L18.4168 15.9032C18.4798 15.9019 18.5429 15.9019 21.6377 15.9019V10.6528L15.5826 8.02829V15.912C18.2372 15.9072 18.3526 15.9046 18.4128 15.9033Z" fill="#FF6C0E"/>
</svg>
