<svg width="40" height="40" viewBox="0 0 40 40" fill="none" xmlns="http://www.w3.org/2000/svg">
<path d="M25.3669 35.0001L23.9701 33.7528C19.0091 29.34 15.7339 26.4296 15.7339 22.8578C15.7339 19.9474 18.0651 17.6606 21.0321 17.6606C22.7082 17.6606 24.3169 18.426 25.3669 19.6355C26.4169 18.426 28.0256 17.6606 29.7018 17.6606C32.6687 17.6606 34.9999 19.9474 34.9999 22.8578C34.9999 26.4296 31.7247 29.34 26.7637 33.7622L25.3669 35.0001Z" fill="#064DD6"/>
<path d="M6.20086 8.31345L13.2651 5.17411C13.7798 4.94196 14.3854 4.94196 14.9001 5.17411L21.9643 8.31345C22.6909 8.63648 23.1651 9.3633 23.1651 10.1607V14.9051C23.1651 15.6032 23.105 16.2957 22.9895 16.9756L21.0332 16.6134C21.0782 16.3788 21.1162 16.1424 21.1468 15.9044V10.1582L14.0826 7.01887L7.01835 10.1582V15.9145H14.0826V24.9288C14.4089 24.8279 14.7278 24.7078 15.0385 24.5698L15.8327 26.4231C15.2698 26.6709 14.6851 26.8712 14.0826 27.0183C8.8752 25.7464 5 20.5075 5 14.9051V10.1607C5 9.3633 5.47428 8.63648 6.20086 8.31345Z" fill="#FF6C0E"/>
<path d="M16.9127 15.9033L16.9167 15.9032C16.9797 15.9019 17.0428 15.9019 20.1376 15.9019V10.6528L14.0825 8.0283V15.912C16.7371 15.9072 16.8525 15.9046 16.9127 15.9033Z" fill="#FF6C0E"/>
<path d="M10.1528 29.7707H7.20184C6.89783 29.7707 6.65138 30.0171 6.65138 30.3211C6.65138 30.6252 6.89783 30.8716 7.20184 30.8716H10.6911C10.9175 30.8716 11.1279 30.755 11.248 30.563L11.6344 29.9447C11.6751 29.8795 11.7742 29.8951 11.7929 29.9697L12.4757 32.7008C12.5304 32.9198 12.7272 33.0734 12.9529 33.0734C13.1392 33.0734 13.3095 32.9682 13.3928 32.8015L14.2222 31.1427C14.3053 30.9766 14.4751 30.8716 14.6609 30.8716H17.6606C17.9646 30.8716 18.211 30.6252 18.211 30.3211C18.211 30.0171 17.9646 29.7707 17.6606 29.7707H14.0717C13.8254 29.7707 13.6001 29.9099 13.4899 30.1302L13.1837 30.7428C13.1616 30.787 13.0963 30.7798 13.0843 30.7319L12.3867 27.9414C12.332 27.7225 12.1352 27.5688 11.9095 27.5688C11.7232 27.5688 11.5529 27.6741 11.4695 27.8408L10.6619 29.456C10.5655 29.6489 10.3684 29.7707 10.1528 29.7707Z" fill="#064DD6"/>
</svg>
