<svg width="24" height="24" viewBox="0 0 24 24" fill="none" xmlns="http://www.w3.org/2000/svg">
<path d="M21.75 0H2.25C1.83525 0 1.5 0.336 1.5 0.75V23.25C1.5 23.664 1.83525 24 2.25 24H21.75C22.1647 24 22.5 23.664 22.5 23.25V0.75C22.5 0.336 22.1647 0 21.75 0ZM7.5 21H4.5V18.75H7.5V21ZM7.5 16.5H4.5V14.25H7.5V16.5ZM7.5 12H4.5V9.75H7.5V12ZM13.5 21H10.5V18.75H13.5V21ZM13.5 16.5H10.5V14.25H13.5V16.5ZM13.5 12H10.5V9.75H13.5V12ZM19.5 21H16.5V14.25H19.5V21ZM19.5 12H16.5V9.75H19.5V12ZM19.5 6.75C19.5 7.164 19.1647 7.5 18.75 7.5H5.25C4.83525 7.5 4.5 7.164 4.5 6.75V3.75C4.5 3.336 4.83525 3 5.25 3H18.75C19.1647 3 19.5 3.336 19.5 3.75V6.75Z" fill="url(#paint0_linear)"/>
<defs>
<linearGradient id="paint0_linear" x1="12" y1="31.0171" x2="12" y2="1.27243" gradientUnits="userSpaceOnUse">
<stop stop-color="#0A3ECA"/>
<stop offset="0.961522" stop-color="#4B7CFF"/>
</linearGradient>
</defs>
</svg>
