<svg width="16" height="17" viewBox="0 0 16 17" fill="none" xmlns="http://www.w3.org/2000/svg">
<path d="M7.16681 3.52976L4.21348 2.06976C2.62014 1.28976 1.31348 2.0831 1.31348 3.82976V13.7231C1.31348 14.4831 1.94681 15.1031 2.72014 15.1031H7.66681C8.03348 15.1031 8.33348 14.8031 8.33348 14.4364V5.37643C8.33348 4.67643 7.80681 3.8431 7.16681 3.52976ZM5.98014 9.6031H3.66681C3.39348 9.6031 3.16681 9.37643 3.16681 9.1031C3.16681 8.82976 3.39348 8.6031 3.66681 8.6031H5.98014C6.25348 8.6031 6.48014 8.82976 6.48014 9.1031C6.48014 9.37643 6.26014 9.6031 5.98014 9.6031ZM5.98014 6.93643H3.66681C3.39348 6.93643 3.16681 6.70976 3.16681 6.43643C3.16681 6.1631 3.39348 5.93643 3.66681 5.93643H5.98014C6.25348 5.93643 6.48014 6.1631 6.48014 6.43643C6.48014 6.70976 6.26014 6.93643 5.98014 6.93643Z" fill="#FF6C0E"/>
<path d="M14.6663 12.4648V13.4382C14.6663 14.3582 13.9197 15.1048 12.9997 15.1048H9.97967C9.61967 15.1048 9.33301 14.8182 9.33301 14.4582V13.0182C10.0463 13.1048 10.7997 12.8982 11.3397 12.4648C11.793 12.8315 12.373 13.0515 13.0063 13.0515C13.6263 13.0515 14.2063 12.8315 14.6663 12.4648Z" fill="#FF6C0E"/>
<path d="M14.6663 10.4725V10.4791C14.613 11.3525 13.8997 12.0525 13.0063 12.0525C12.0797 12.0525 11.3397 11.2991 11.3397 10.3858C11.3397 11.4058 10.3997 12.2258 9.33301 12.0191V8.43914C9.33301 8.01248 9.72634 7.69248 10.1463 7.78581L11.3397 8.05248L11.6597 8.12581L13.0197 8.43248C13.3463 8.49914 13.6463 8.61248 13.9063 8.77914C13.9063 8.78581 13.913 8.78581 13.913 8.78581C13.9797 8.83248 14.0463 8.88581 14.1063 8.94581C14.413 9.25248 14.613 9.69914 14.6597 10.3525C14.6597 10.3925 14.6663 10.4325 14.6663 10.4725Z" fill="#FF6C0E"/>
</svg>
