<svg width="32" height="32" viewBox="0 0 32 32" fill="none" xmlns="http://www.w3.org/2000/svg">
<path d="M15 23H1V1H31V15" stroke="#0A3ECA" stroke-width="2" stroke-miterlimit="10" stroke-linecap="square"/>
<path d="M16 15C17.6569 15 19 13.6569 19 12C19 10.3431 17.6569 9 16 9C14.3431 9 13 10.3431 13 12C13 13.6569 14.3431 15 16 15Z" stroke="#0A3ECA" stroke-width="2" stroke-miterlimit="10" stroke-linecap="square"/>
<path d="M27 13V9C24.741 9 23 7.259 23 5H9C9 7.259 7.259 9 5 9V15C7.259 15 9 16.741 9 19H15" stroke="#0A3ECA" stroke-width="2" stroke-miterlimit="10" stroke-linecap="square"/>
<path d="M19 20V24C19 25.657 21.686 27 25 27C28.314 27 31 25.657 31 24V20" stroke="#0A3ECA" stroke-width="2" stroke-miterlimit="10"/>
<path d="M19 24V28C19 29.657 21.686 31 25 31C28.314 31 31 29.657 31 28V24" stroke="#0A3ECA" stroke-width="2" stroke-miterlimit="10"/>
<path d="M25 23C28.3137 23 31 21.6569 31 20C31 18.3431 28.3137 17 25 17C21.6863 17 19 18.3431 19 20C19 21.6569 21.6863 23 25 23Z" stroke="#0A3ECA" stroke-width="2" stroke-miterlimit="10" stroke-linecap="square"/>
</svg>
