<svg width="10" height="10" viewBox="0 0 10 10" fill="none" xmlns="http://www.w3.org/2000/svg">
<g clip-path="url(#clip0)">
<path d="M2.74415 1.42249L6.32165 4.99999L2.74415 8.57749C2.59235 8.73465 2.50836 8.94516 2.51026 9.16365C2.51216 9.38215 2.5998 9.59116 2.7543 9.74567C2.90881 9.90018 3.11782 9.98782 3.33632 9.98971C3.55482 9.99161 3.76532 9.90762 3.92249 9.75582L8.08915 5.58915C8.24538 5.43288 8.33314 5.22096 8.33314 4.99999C8.33314 4.77902 8.24538 4.56709 8.08915 4.41082L3.92249 0.244153C3.84561 0.16456 3.75366 0.101075 3.65199 0.0574007C3.55032 0.0137262 3.44097 -0.00926213 3.33032 -0.0102234C3.21967 -0.0111847 3.10994 0.00990007 3.00752 0.0518017C2.90511 0.0937023 2.81207 0.15558 2.73382 0.233824C2.65558 0.312067 2.5937 0.40511 2.5518 0.507524C2.5099 0.609938 2.48882 0.71967 2.48978 0.830319C2.49074 0.940969 2.51373 1.05032 2.5574 1.15199C2.60108 1.25366 2.66456 1.34561 2.74415 1.42249Z" fill="#B5BDD2"/>
</g>
<defs>
<clipPath id="clip0">
<rect width="10" height="10" fill="white" transform="translate(0 10) rotate(-90)"/>
</clipPath>
</defs>
</svg>
