<svg width="24" height="24" viewBox="0 0 24 24" fill="none" xmlns="http://www.w3.org/2000/svg">
<g clip-path="url(#clip0)">
<path d="M16.536 13.4101C16.3474 13.2279 16.0948 13.1272 15.8326 13.1294C15.5704 13.1317 15.3196 13.2369 15.1342 13.4223C14.9488 13.6077 14.8436 13.8585 14.8413 14.1207C14.8391 14.3829 14.9398 14.6355 15.122 14.8241L17.942 17.6441L16.625 18.9611L13.805 16.1411C13.7128 16.0456 13.6024 15.9694 13.4804 15.917C13.3584 15.8646 13.2272 15.837 13.0944 15.8359C12.9616 15.8347 12.8299 15.86 12.7071 15.9103C12.5842 15.9606 12.4725 16.0348 12.3786 16.1287C12.2847 16.2226 12.2105 16.3343 12.1602 16.4572C12.1099 16.58 12.0846 16.7117 12.0858 16.8445C12.0869 16.9773 12.1145 17.1085 12.1669 17.2305C12.2193 17.3525 12.2955 17.4629 12.391 17.5551L14.948 20.1131C14.2271 20.4137 13.4463 20.5428 12.667 20.4901C12.5977 21.1964 12.3191 21.866 11.867 22.4131C12.242 22.4768 12.6216 22.5103 13.002 22.5131C13.9212 22.5145 14.8316 22.3344 15.6811 21.9831C16.5305 21.6318 17.3023 21.1163 17.952 20.4661L20.06 18.3301C20.2458 18.1419 20.3494 17.8878 20.3483 17.6234C20.3472 17.3589 20.2414 17.1057 20.054 16.9191L16.536 13.4101Z" fill="#0A3ECA"/>
<path d="M1.82102 12.8558C2.11886 12.5649 2.46502 12.3281 2.84402 12.1558C2.24943 11.1608 1.95307 10.0161 1.99016 8.85756C2.02726 7.69907 2.39626 6.57559 3.05328 5.62071C3.7103 4.66582 4.62772 3.9197 5.69645 3.47103C6.76518 3.02237 7.94027 2.89005 9.08202 3.0898L9.51502 2.6568C9.9384 2.23253 10.4023 1.85071 10.9 1.5168C9.30628 0.918409 7.5641 0.83948 5.92278 1.29131C4.28145 1.74313 2.82511 2.70256 1.76215 4.03229C0.699185 5.36202 0.0840756 6.99391 0.00484069 8.69444C-0.0743942 10.395 0.386306 12.077 1.32102 13.4998C1.46296 13.267 1.63068 13.051 1.82102 12.8558Z" fill="#0A3ECA"/>
<path d="M10.9385 18.2809L6.22071 13.5631C5.20105 12.5434 3.54785 12.5434 2.5282 13.5631C1.50854 14.5827 1.50854 16.2359 2.5282 17.2556L7.24601 21.9734C8.26567 22.993 9.91886 22.993 10.9385 21.9734C11.9582 20.9537 11.9582 19.3005 10.9385 18.2809Z" fill="#0A3ECA"/>
<path d="M21.636 3.36388C20.1224 1.85031 18.0696 1 15.929 1C13.7885 1 11.7356 1.85031 10.222 3.36388L5.58502 7.99988L6.29302 8.70688C6.87885 9.29128 7.67255 9.61947 8.50002 9.61947C9.3275 9.61947 10.1212 9.29128 10.707 8.70688L12.5 6.91588L20.924 15.4919L21.638 14.7779C23.1516 13.2643 24.0019 11.2114 24.0019 9.07088C24.0019 6.93035 23.1516 4.87748 21.638 3.36388H21.636Z" fill="#0A3ECA"/>
</g>
<defs>
<clipPath id="clip0">
<rect width="24" height="24" fill="white"/>
</clipPath>
</defs>
</svg>
