<svg width="28" height="28" viewBox="0 0 28 28" fill="none" xmlns="http://www.w3.org/2000/svg">
<g clip-path="url(#clip0)">
<path d="M27.1682 3.54908L15.5015 0.0490811C15.3273 -0.00310858 15.1433 -0.013856 14.9642 0.0176967C14.7851 0.0492493 14.6159 0.122228 14.47 0.230809C14.3242 0.33939 14.2057 0.480565 14.1241 0.643068C14.0425 0.805572 14 0.984902 14 1.16675V7.00008H16.3333V2.73475L25.6667 5.53475V25.6667H18.6667V10.5001C18.6667 10.1907 18.5437 9.89392 18.325 9.67512C18.1062 9.45633 17.8094 9.33342 17.5 9.33342H5.83333C5.52391 9.33342 5.22717 9.45633 5.00838 9.67512C4.78958 9.89392 4.66667 10.1907 4.66667 10.5001V25.6667H2.33333V14.0001H1.16667C0.857247 14.0001 0.560501 14.123 0.341709 14.3418C0.122916 14.5606 0 14.8573 0 15.1667L0 26.8334C0 27.1428 0.122916 27.4396 0.341709 27.6584C0.560501 27.8772 0.857247 28.0001 1.16667 28.0001H26.8333C27.1428 28.0001 27.4395 27.8772 27.6583 27.6584C27.8771 27.4396 28 27.1428 28 26.8334V4.66675C28 4.41576 27.9191 4.17146 27.7692 3.97011C27.6194 3.76877 27.4086 3.62112 27.1682 3.54908ZM14 24.5001H9.33333V22.1667H14V24.5001ZM14 19.8334H9.33333V17.5001H14V19.8334ZM14 15.1667H9.33333V12.8334H14V15.1667Z" fill="#ABABAB"/>
<path d="M23.3333 9.3335H21V23.3335H23.3333V9.3335Z" fill="#ABABAB"/>
</g>
<defs>
<clipPath id="clip0">
<rect width="28" height="28" fill="white"/>
</clipPath>
</defs>
</svg>
