<svg width="26" height="26" viewBox="0 0 26 26" fill="none" xmlns="http://www.w3.org/2000/svg">
<g clip-path="url(#clip0)">
<path d="M8.25659 18.8206L7.17932 17.7434L9.09787 15.8248L10.1751 16.9021L8.25659 18.8206Z" fill="url(#paint0_linear)"/>
<path d="M16.0972 19.8055C10.6368 19.8055 6.19446 15.3631 6.19446 9.90275C6.19446 4.44237 10.6368 0 16.0972 0C21.5576 0 26 4.44237 26 9.90275C26 15.3631 21.5576 19.8055 16.0972 19.8055Z" fill="url(#paint1_linear)"/>
<path d="M18.7088 9.96267C18.1892 9.57291 17.5497 9.31254 16.8589 9.20178V6.1848C17.7365 6.39926 18.3824 6.96874 18.3824 7.6175C18.3824 8.03819 18.7235 8.37925 19.1442 8.37925C19.5649 8.37925 19.9059 8.03819 19.9059 7.6175C19.9059 6.77388 19.4696 5.96277 18.7088 5.39217C18.1892 5.00241 17.5497 4.74204 16.8589 4.63128V3.80875C16.8589 3.38806 16.5179 3.047 16.0972 3.047C15.6765 3.047 15.3354 3.38806 15.3354 3.80875V4.63128C14.6446 4.74204 14.0052 5.00241 13.4856 5.39217C12.7248 5.96277 12.2885 6.77388 12.2885 7.6175C12.2885 8.46111 12.7248 9.27222 13.4856 9.84282C14.0052 10.2326 14.6446 10.4929 15.3354 10.6037V13.6207C14.4579 13.4062 13.8119 12.8368 13.8119 12.188C13.8119 11.7673 13.4709 11.4262 13.0502 11.4262C12.6295 11.4262 12.2885 11.7673 12.2885 12.188C12.2885 13.0316 12.7248 13.8427 13.4856 14.4133C14.0052 14.8031 14.6446 15.0634 15.3354 15.1742V15.9967C15.3354 16.4174 15.6765 16.7585 16.0972 16.7585C16.5179 16.7585 16.8589 16.4174 16.8589 15.9967V15.1742C17.5497 15.0634 18.1892 14.8031 18.7088 14.4133C19.4696 13.8427 19.9059 13.0316 19.9059 12.188C19.9059 11.3444 19.4696 10.5333 18.7088 9.96267ZM13.8119 7.6175C13.8119 6.96874 14.4579 6.39926 15.3354 6.1848V9.0502C14.4579 8.83574 13.8119 8.26625 13.8119 7.6175ZM16.8589 13.6207V10.7553C17.7365 10.9698 18.3824 11.5392 18.3824 12.188C18.3824 12.8368 17.7365 13.4062 16.8589 13.6207Z" fill="url(#paint2_linear)"/>
<path d="M2.28415 26C1.69887 26 1.11374 25.7772 0.66822 25.3317C-0.222774 24.4407 -0.222723 22.9908 0.668271 22.0998L6.10209 16.666C6.24494 16.5232 6.43868 16.4429 6.6407 16.4429C6.84271 16.4429 7.0365 16.5232 7.1793 16.666L9.33384 18.8206C9.63133 19.1181 9.63133 19.6004 9.33384 19.8979L3.90002 25.3317C3.4546 25.7772 2.86927 26 2.28415 26Z" fill="url(#paint3_linear)"/>
</g>
<defs>
<linearGradient id="paint0_linear" x1="9.85644" y1="17.11" x2="9.85644" y2="19.766" gradientUnits="userSpaceOnUse">
<stop stop-color="white"/>
<stop offset="0.961522" stop-color="#9CB7FF"/>
</linearGradient>
<linearGradient id="paint1_linear" x1="16.0972" y1="25.5962" x2="16.0972" y2="1.05005" gradientUnits="userSpaceOnUse">
<stop stop-color="#0A3ECA"/>
<stop offset="0.961522" stop-color="#4B7CFF"/>
</linearGradient>
<linearGradient id="paint2_linear" x1="19.0956" y1="8.92924" x2="19.0956" y2="21.0856" gradientUnits="userSpaceOnUse">
<stop stop-color="white"/>
<stop offset="0.961522" stop-color="#9CB7FF"/>
</linearGradient>
<linearGradient id="paint3_linear" x1="4.77848" y1="28.7943" x2="4.77849" y2="16.9496" gradientUnits="userSpaceOnUse">
<stop stop-color="#0A3ECA"/>
<stop offset="0.961522" stop-color="#4B7CFF"/>
</linearGradient>
<clipPath id="clip0">
<rect width="26" height="26" fill="white"/>
</clipPath>
</defs>
</svg>
