<svg width="24" height="24" viewBox="0 0 24 24" fill="none" xmlns="http://www.w3.org/2000/svg">
<g clip-path="url(#clip0)">
<path d="M23.25 4.5H11.6745L9.64275 1.11375C9.5761 1.00282 9.48188 0.911017 9.36925 0.847277C9.25662 0.783536 9.12942 0.750025 9 0.75H0.75C0.551088 0.75 0.360322 0.829018 0.21967 0.96967C0.0790176 1.11032 0 1.30109 0 1.5L0 19.5C0 20.2956 0.316071 21.0587 0.87868 21.6213C1.44129 22.1839 2.20435 22.5 3 22.5H21C21.7956 22.5 22.5587 22.1839 23.1213 21.6213C23.6839 21.0587 24 20.2956 24 19.5V5.25C24 5.05109 23.921 4.86032 23.7803 4.71967C23.6397 4.57902 23.4489 4.5 23.25 4.5ZM15.75 13.8105L12.75 10.8105V19.5H11.25V10.8105L8.25 13.8105L7.1895 12.75L11.4698 8.46975C11.6104 8.32915 11.8011 8.25016 12 8.25016C12.1989 8.25016 12.3896 8.32915 12.5303 8.46975L16.8105 12.75L15.75 13.8105Z" fill="url(#paint0_linear)"/>
</g>
<defs>
<linearGradient id="paint0_linear" x1="12" y1="28.8592" x2="12" y2="1.90314" gradientUnits="userSpaceOnUse">
<stop stop-color="#0A3ECA"/>
<stop offset="0.961522" stop-color="#4B7CFF"/>
</linearGradient>
<clipPath id="clip0">
<rect width="24" height="24" fill="white"/>
</clipPath>
</defs>
</svg>
